<?xml version="1.0" encoding="UTF-8" standalone="no"?>
<!DOCTYPE svg PUBLIC "-//W3C//DTD SVG 1.1//EN"
 "http://www.w3.org/Graphics/SVG/1.1/DTD/svg11.dtd">
<!-- Generated by graphviz version 2.43.0 (0)
 -->
<!-- Title: autoconf.h Pages: 1 -->
<!--zoomable 258 -->

<svg id="main" version="1.1" xmlns="http://www.w3.org/2000/svg" xmlns:xlink="http://www.w3.org/1999/xlink" xml:space="preserve" onload="init(evt)">
<style type="text/css"><![CDATA[
.node, .edge {opacity: 0.7;}
.node.selected, .edge.selected {opacity: 1;}
.edge:hover path { stroke: red; }
.edge:hover polygon { stroke: red; fill: red; }
]]></style>

<defs>
  <circle id="rim" cx="0" cy="0" r="7"/>
  <circle id="rim2" cx="0" cy="0" r="3.5"/>
  <g id="zoomPlus">
    <use xlink:href="#rim" fill="#404040"><set attributeName="fill" to="#808080" begin="zoomplus.mouseover" end="zoomplus.mouseout"/></use>
    <path d="M-4,0h8M0,-4v8" fill="none" stroke="white" stroke-width="1.5" pointer-events="none"/>
  </g>
  <g id="zoomMin">
    <use xlink:href="#rim" fill="#404040"><set attributeName="fill" to="#808080" begin="zoomminus.mouseover" end="zoomminus.mouseout"/></use>
    <path d="M-4,0h8" fill="none" stroke="white" stroke-width="1.5" pointer-events="none"/>
  </g>
  <g id="arrowUp" transform="translate(30 24)">
    <use xlink:href="#rim"/>
    <path pointer-events="none" fill="none" stroke="white" stroke-width="1.5" d="M0,-3.0v7 M-2.5,-0.5L0,-3.0L2.5,-0.5"/>
  </g>
  <g id="arrowRight" transform="rotate(90) translate(36 -43)">
    <use xlink:href="#rim"/>
    <path pointer-events="none" fill="none" stroke="white" stroke-width="1.5" d="M0,-3.0v7 M-2.5,-0.5L0,-3.0L2.5,-0.5"/>
  </g>
  <g id="arrowDown" transform="rotate(180) translate(-30 -48)">
    <use xlink:href="#rim"/>
    <path pointer-events="none" fill="none" stroke="white" stroke-width="1.5" d="M0,-3.0v7 M-2.5,-0.5L0,-3.0L2.5,-0.5"/>
  </g>
  <g id="arrowLeft" transform="rotate(270) translate(-36 17)">
    <use xlink:href="#rim"/>
    <path pointer-events="none" fill="none" stroke="white" stroke-width="1.5" d="M0,-3.0v7 M-2.5,-0.5L0,-3.0L2.5,-0.5"/>
  </g>
  <g id="resetDef">
    <use xlink:href="#rim2" fill="#404040"><set attributeName="fill" to="#808080" begin="reset.mouseover" end="reset.mouseout"/></use>
  </g>
</defs>
<script type="application/ecmascript">
var viewWidth = 1772;
var viewHeight = 258;
var sectionId = 'dynsection-0';
</script>
<script type="application/ecmascript" xlink:href="svg.min.js"/>
<svg id="graph" class="graph">
<g id="viewport">
<title>autoconf.h</title>
<!-- Node1 -->
<g id="Node000001" class="node">
<title>Node1</title>
<g id="a_Node000001"><a xlink:title=" ">
<polygon fill="#999999" stroke="#666666" points="607.5,-250 539.5,-250 539.5,-231 607.5,-231 607.5,-250"/>
<text text-anchor="middle" x="573.5" y="-238" font-family="Helvetica,sans-Serif" font-size="10.00">autoconf.h</text>
</a>
</g>
</g>
<!-- Node2 -->
<g id="Node000002" class="node">
<title>Node2</title>
<g id="a_Node000002"><a xlink:href="FreeRTOSConfig_8h.html" target="_top" xlink:title=" ">
<polygon fill="white" stroke="#666666" points="575,-195 472,-195 472,-176 575,-176 575,-195"/>
<text text-anchor="middle" x="523.5" y="-183" font-family="Helvetica,sans-Serif" font-size="10.00">FreeRTOSConfig.h</text>
</a>
</g>
</g>
<!-- Node1&#45;&gt;Node2 -->
<g id="edge1_Node000001_Node000002" class="edge">
<title>Node1&#45;&gt;Node2</title>
<g id="a_edge1_Node000001_Node000002"><a xlink:title=" ">
<path fill="none" stroke="#63b8ff" d="M558.16,-223.24C549.4,-213.95 538.76,-202.68 531.6,-195.09"/>
<polygon fill="#63b8ff" stroke="#63b8ff" points="555.84,-225.88 565.24,-230.75 560.93,-221.07 555.84,-225.88"/>
</a>
</g>
</g>
<!-- Node3 -->
<g id="Node000003" class="node">
<title>Node3</title>
<g id="a_Node000003"><a xlink:href="conf__os_8h.html" target="_top" xlink:title=" ">
<polygon fill="white" stroke="#666666" points="656,-195 593,-195 593,-176 656,-176 656,-195"/>
<text text-anchor="middle" x="624.5" y="-183" font-family="Helvetica,sans-Serif" font-size="10.00">conf_os.h</text>
</a>
</g>
</g>
<!-- Node1&#45;&gt;Node3 -->
<g id="edge2_Node000001_Node000003" class="edge">
<title>Node1&#45;&gt;Node3</title>
<g id="a_edge2_Node000001_Node000003"><a xlink:title=" ">
<path fill="none" stroke="#63b8ff" d="M588.88,-223.52C597.87,-214.18 608.86,-202.75 616.24,-195.09"/>
<polygon fill="#63b8ff" stroke="#63b8ff" points="586.33,-221.12 581.92,-230.75 591.38,-225.97 586.33,-221.12"/>
</a>
</g>
</g>
<!-- Node4 -->
<g id="Node000004" class="node">
<title>Node4</title>
<g id="a_Node000004"><a xlink:href="drv__iic_8c.html" target="_top" xlink:title=" ">
<polygon fill="white" stroke="#666666" points="57,-140 0,-140 0,-121 57,-121 57,-140"/>
<text text-anchor="middle" x="28.5" y="-128" font-family="Helvetica,sans-Serif" font-size="10.00">drv_iic.c</text>
</a>
</g>
</g>
<!-- Node3&#45;&gt;Node4 -->
<g id="edge3_Node000003_Node000004" class="edge">
<title>Node3&#45;&gt;Node4</title>
<g id="a_edge3_Node000003_Node000004"><a xlink:title=" ">
<path fill="none" stroke="#63b8ff" d="M582.56,-176.09C355.74,-145.51 294.3,-169.74 71.5,-140 66.82,-139.38 61.89,-138.56 57.1,-137.67"/>
<polygon fill="#63b8ff" stroke="#63b8ff" points="582.41,-179.6 592.79,-177.49 583.36,-172.66 582.41,-179.6"/>
</a>
</g>
</g>
<!-- Node5 -->
<g id="Node000005" class="node">
<title>Node5</title>
<g id="a_Node000005"><a xlink:href="drv__iic_8h.html" target="_top" xlink:title=" ">
<polygon fill="white" stroke="#666666" points="789.5,-85 731.5,-85 731.5,-66 789.5,-66 789.5,-85"/>
<text text-anchor="middle" x="760.5" y="-73" font-family="Helvetica,sans-Serif" font-size="10.00">drv_iic.h</text>
</a>
</g>
</g>
<!-- Node3&#45;&gt;Node5 -->
<g id="edge4_Node000003_Node000005" class="edge">
<title>Node3&#45;&gt;Node5</title>
<g id="a_edge4_Node000003_Node000005"><a xlink:title=" ">
<path fill="none" stroke="#63b8ff" d="M643.76,-169.21C672.73,-146.2 726.57,-103.44 749.6,-85.16"/>
<polygon fill="#63b8ff" stroke="#63b8ff" points="641.28,-166.7 635.63,-175.66 645.64,-172.18 641.28,-166.7"/>
</a>
</g>
</g>
<!-- Node6 -->
<g id="Node000006" class="node">
<title>Node6</title>
<g id="a_Node000006"><a xlink:href="drv__uart_8c.html" target="_top" xlink:title=" ">
<polygon fill="white" stroke="#666666" points="179,-85 114,-85 114,-66 179,-66 179,-85"/>
<text text-anchor="middle" x="146.5" y="-73" font-family="Helvetica,sans-Serif" font-size="10.00">drv_uart.c</text>
</a>
</g>
</g>
<!-- Node3&#45;&gt;Node6 -->
<g id="edge5_Node000003_Node000006" class="edge">
<title>Node3&#45;&gt;Node6</title>
<g id="a_edge5_Node000003_Node000006"><a xlink:title=" ">
<path fill="none" stroke="#63b8ff" d="M582.73,-175.96C478.19,-157.68 448.9,-163.05 349.5,-140 283.31,-124.65 207.4,-98.56 169.93,-85.1"/>
<polygon fill="#63b8ff" stroke="#63b8ff" points="582.29,-179.44 592.75,-177.75 583.52,-172.55 582.29,-179.44"/>
</a>
</g>
</g>
<!-- Node7 -->
<g id="Node000007" class="node">
<title>Node7</title>
<g id="a_Node000007"><a xlink:href="drv__uart_8h.html" target="_top" xlink:title=" ">
<polygon fill="white" stroke="#666666" points="546.5,-85 480.5,-85 480.5,-66 546.5,-66 546.5,-85"/>
<text text-anchor="middle" x="513.5" y="-73" font-family="Helvetica,sans-Serif" font-size="10.00">drv_uart.h</text>
</a>
</g>
</g>
<!-- Node3&#45;&gt;Node7 -->
<g id="edge6_Node000003_Node000007" class="edge">
<title>Node3&#45;&gt;Node7</title>
<g id="a_edge6_Node000003_Node000007"><a xlink:title=" ">
<path fill="none" stroke="#63b8ff" d="M608.16,-168.61C584.38,-145.47 541.03,-103.29 522.4,-85.16"/>
<polygon fill="#63b8ff" stroke="#63b8ff" points="605.81,-171.2 615.42,-175.66 610.69,-166.18 605.81,-171.2"/>
</a>
</g>
</g>
<!-- Node8 -->
<g id="Node000008" class="node">
<title>Node8</title>
<g id="a_Node000008"><a xlink:href="global__var_8h.html" target="_top" xlink:title=" ">
<polygon fill="white" stroke="#666666" points="434.5,-140 358.5,-140 358.5,-121 434.5,-121 434.5,-140"/>
<text text-anchor="middle" x="396.5" y="-128" font-family="Helvetica,sans-Serif" font-size="10.00">global_var.h</text>
</a>
</g>
</g>
<!-- Node3&#45;&gt;Node8 -->
<g id="edge7_Node000003_Node000008" class="edge">
<title>Node3&#45;&gt;Node8</title>
<g id="a_edge7_Node000003_Node000008"><a xlink:title=" ">
<path fill="none" stroke="#63b8ff" d="M582.98,-174.85C540.2,-164.9 474.14,-149.55 433.21,-140.03"/>
<polygon fill="#63b8ff" stroke="#63b8ff" points="582.26,-178.28 592.8,-177.13 583.85,-171.46 582.26,-178.28"/>
</a>
</g>
</g>
<!-- Node10 -->
<g id="Node000010" class="node">
<title>Node10</title>
<g id="a_Node000010"><a xlink:href="kernel__syscall_8h.html" target="_top" xlink:title=" ">
<polygon fill="white" stroke="#666666" points="424,-85 329,-85 329,-66 424,-66 424,-85"/>
<text text-anchor="middle" x="376.5" y="-73" font-family="Helvetica,sans-Serif" font-size="10.00">kernel_syscall.h</text>
</a>
</g>
</g>
<!-- Node3&#45;&gt;Node10 -->
<g id="edge32_Node000003_Node000010" class="edge">
<title>Node3&#45;&gt;Node10</title>
<g id="a_edge32_Node000003_Node000010"><a xlink:title=" ">
<path fill="none" stroke="#63b8ff" d="M595.44,-171.84C544.32,-149.58 439.63,-103.99 396.13,-85.05"/>
<polygon fill="#63b8ff" stroke="#63b8ff" points="594.06,-175.06 604.62,-175.84 596.85,-168.64 594.06,-175.06"/>
</a>
</g>
</g>
<!-- Node12 -->
<g id="Node000012" class="node">
<title>Node12</title>
<g id="a_Node000012"><a xlink:href="os__shell__management_8c.html" target="_top" xlink:title=" ">
<polygon fill="white" stroke="#666666" points="368,-24.5 233,-24.5 233,-5.5 368,-5.5 368,-24.5"/>
<text text-anchor="middle" x="300.5" y="-12.5" font-family="Helvetica,sans-Serif" font-size="10.00">os_shell_management.c</text>
</a>
</g>
</g>
<!-- Node3&#45;&gt;Node12 -->
<g id="edge43_Node000003_Node000012" class="edge">
<title>Node3&#45;&gt;Node12</title>
<g id="a_edge43_Node000003_Node000012"><a xlink:title=" ">
<path fill="none" stroke="#63b8ff" d="M582.81,-176.15C459.89,-159.31 166.78,-170.01 104.5,-85 68.89,-36.4 163.15,-21.85 232.99,-17.6"/>
<polygon fill="#63b8ff" stroke="#63b8ff" points="582.36,-179.62 592.77,-177.64 583.39,-172.7 582.36,-179.62"/>
</a>
</g>
</g>
<!-- Node16 -->
<g id="Node000016" class="node">
<title>Node16</title>
<g id="a_Node000016"><a xlink:href="gpio__mgmt_8h.html" target="_top" xlink:title=" ">
<polygon fill="white" stroke="#666666" points="1366,-140 1285,-140 1285,-121 1366,-121 1366,-140"/>
<text text-anchor="middle" x="1325.5" y="-128" font-family="Helvetica,sans-Serif" font-size="10.00">gpio_mgmt.h</text>
</a>
</g>
</g>
<!-- Node3&#45;&gt;Node16 -->
<g id="edge19_Node000003_Node000016" class="edge">
<title>Node3&#45;&gt;Node16</title>
<g id="a_edge19_Node000003_Node000016"><a xlink:title=" ">
<path fill="none" stroke="#63b8ff" d="M666.78,-181.3C792.28,-171.81 1161.54,-143.9 1284.87,-134.57"/>
<polygon fill="#63b8ff" stroke="#63b8ff" points="666.15,-177.84 656.44,-182.08 666.68,-184.82 666.15,-177.84"/>
</a>
</g>
</g>
<!-- Node21 -->
<g id="Node000021" class="node">
<title>Node21</title>
<g id="a_Node000021"><a xlink:href="iic__mgmt_8h.html" target="_top" xlink:title=" ">
<polygon fill="white" stroke="#666666" points="660,-140 589,-140 589,-121 660,-121 660,-140"/>
<text text-anchor="middle" x="624.5" y="-128" font-family="Helvetica,sans-Serif" font-size="10.00">iic_mgmt.h</text>
</a>
</g>
</g>
<!-- Node3&#45;&gt;Node21 -->
<g id="edge24_Node000003_Node000021" class="edge">
<title>Node3&#45;&gt;Node21</title>
<g id="a_edge24_Node000003_Node000021"><a xlink:title=" ">
<path fill="none" stroke="#63b8ff" d="M624.5,-165.66C624.5,-156.93 624.5,-146.99 624.5,-140.09"/>
<polygon fill="#63b8ff" stroke="#63b8ff" points="621,-165.75 624.5,-175.75 628,-165.75 621,-165.75"/>
</a>
</g>
</g>
<!-- Node24 -->
<g id="Node000024" class="node">
<title>Node24</title>
<g id="a_Node000024"><a xlink:href="kernel__services_8h.html" target="_top" xlink:title=" ">
<polygon fill="white" stroke="#666666" points="1243,-85 1142,-85 1142,-66 1243,-66 1243,-85"/>
<text text-anchor="middle" x="1192.5" y="-73" font-family="Helvetica,sans-Serif" font-size="10.00">kernel_services.h</text>
</a>
</g>
</g>
<!-- Node3&#45;&gt;Node24 -->
<g id="edge27_Node000003_Node000024" class="edge">
<title>Node3&#45;&gt;Node24</title>
<g id="a_edge27_Node000003_Node000024"><a xlink:title=" ">
<path fill="none" stroke="#63b8ff" d="M666.31,-180.8C730.16,-174.74 855.6,-161.2 960.5,-140 1036.02,-124.74 1123.19,-98.49 1165.99,-85.02"/>
<polygon fill="#63b8ff" stroke="#63b8ff" points="665.87,-177.33 656.24,-181.74 666.52,-184.3 665.87,-177.33"/>
</a>
</g>
</g>
<!-- Node27 -->
<g id="Node000027" class="node">
<title>Node27</title>
<g id="a_Node000027"><a xlink:href="mqueue_8h.html" target="_top" xlink:title=" ">
<polygon fill="white" stroke="#666666" points="952,-140 887,-140 887,-121 952,-121 952,-140"/>
<text text-anchor="middle" x="919.5" y="-128" font-family="Helvetica,sans-Serif" font-size="10.00">mqueue.h</text>
</a>
</g>
</g>
<!-- Node3&#45;&gt;Node27 -->
<g id="edge33_Node000003_Node000027" class="edge">
<title>Node3&#45;&gt;Node27</title>
<g id="a_edge33_Node000003_Node000027"><a xlink:title=" ">
<path fill="none" stroke="#63b8ff" d="M666.21,-177.01C725.5,-166.35 832.92,-147.06 886.81,-137.37"/>
<polygon fill="#63b8ff" stroke="#63b8ff" points="665.29,-173.61 656.07,-178.83 666.53,-180.5 665.29,-173.61"/>
</a>
</g>
</g>
<!-- Node29 -->
<g id="Node000029" class="node">
<title>Node29</title>
<g id="a_Node000029"><a xlink:href="spi__mgmt_8h.html" target="_top" xlink:title=" ">
<polygon fill="white" stroke="#666666" points="1677.5,-140 1603.5,-140 1603.5,-121 1677.5,-121 1677.5,-140"/>
<text text-anchor="middle" x="1640.5" y="-128" font-family="Helvetica,sans-Serif" font-size="10.00">spi_mgmt.h</text>
</a>
</g>
</g>
<!-- Node3&#45;&gt;Node29 -->
<g id="edge44_Node000003_Node000029" class="edge">
<title>Node3&#45;&gt;Node29</title>
<g id="a_edge44_Node000003_Node000029"><a xlink:title=" ">
<path fill="none" stroke="#63b8ff" d="M666.56,-182.48C792.57,-176.41 1178,-157.64 1497.5,-140 1533.51,-138.01 1574.6,-135.55 1603.47,-133.79"/>
<polygon fill="#63b8ff" stroke="#63b8ff" points="666.04,-179 656.22,-182.98 666.37,-186 666.04,-179"/>
</a>
</g>
</g>
<!-- Node32 -->
<g id="Node000032" class="node">
<title>Node32</title>
<g id="a_Node000032"><a xlink:href="uart__mgmt_8h.html" target="_top" xlink:title=" ">
<polygon fill="white" stroke="#666666" points="1488.5,-140 1408.5,-140 1408.5,-121 1488.5,-121 1488.5,-140"/>
<text text-anchor="middle" x="1448.5" y="-128" font-family="Helvetica,sans-Serif" font-size="10.00">uart_mgmt.h</text>
</a>
</g>
</g>
<!-- Node3&#45;&gt;Node32 -->
<g id="edge47_Node000003_Node000032" class="edge">
<title>Node3&#45;&gt;Node32</title>
<g id="a_edge47_Node000003_Node000032"><a xlink:title=" ">
<path fill="none" stroke="#63b8ff" d="M666.39,-182.83C780.29,-178.1 1105.15,-163.44 1374.5,-140 1385.45,-139.05 1397.29,-137.79 1408.21,-136.54"/>
<polygon fill="#63b8ff" stroke="#63b8ff" points="666.19,-179.33 656.35,-183.24 666.48,-186.32 666.19,-179.33"/>
</a>
</g>
</g>
<!-- Node8&#45;&gt;Node6 -->
<g id="edge8_Node000008_Node000006" class="edge">
<title>Node8&#45;&gt;Node6</title>
<g id="a_edge8_Node000008_Node000006"><a xlink:title=" ">
<path fill="none" stroke="#63b8ff" d="M348.37,-119.3C298.62,-108.75 222.3,-92.57 179.16,-83.42"/>
<polygon fill="#63b8ff" stroke="#63b8ff" points="347.75,-122.74 358.26,-121.39 349.2,-115.89 347.75,-122.74"/>
</a>
</g>
</g>
<!-- Node8&#45;&gt;Node7 -->
<g id="edge9_Node000008_Node000007" class="edge">
<title>Node8&#45;&gt;Node7</title>
<g id="a_edge9_Node000008_Node000007"><a xlink:title=" ">
<path fill="none" stroke="#63b8ff" d="M424.61,-116.77C446.19,-106.99 475.41,-93.75 494.36,-85.17"/>
<polygon fill="#63b8ff" stroke="#63b8ff" points="422.96,-113.67 415.3,-120.98 425.85,-120.05 422.96,-113.67"/>
</a>
</g>
</g>
<!-- Node9 -->
<g id="Node000009" class="node">
<title>Node9</title>
<g id="a_Node000009"><a xlink:href="global__var_8c.html" target="_top" xlink:title=" ">
<polygon fill="white" stroke="#666666" points="272,-85 197,-85 197,-66 272,-66 272,-85"/>
<text text-anchor="middle" x="234.5" y="-73" font-family="Helvetica,sans-Serif" font-size="10.00">global_var.c</text>
</a>
</g>
</g>
<!-- Node8&#45;&gt;Node9 -->
<g id="edge10_Node000008_Node000009" class="edge">
<title>Node8&#45;&gt;Node9</title>
<g id="a_edge10_Node000008_Node000009"><a xlink:title=" ">
<path fill="none" stroke="#63b8ff" d="M360.73,-117.8C330.5,-107.91 287.89,-93.97 260.73,-85.08"/>
<polygon fill="#63b8ff" stroke="#63b8ff" points="359.88,-121.2 370.47,-120.98 362.06,-114.55 359.88,-121.2"/>
</a>
</g>
</g>
<!-- Node8&#45;&gt;Node10 -->
<g id="edge11_Node000008_Node000010" class="edge">
<title>Node8&#45;&gt;Node10</title>
<g id="a_edge11_Node000008_Node000010"><a xlink:title=" ">
<path fill="none" stroke="#63b8ff" d="M389.61,-111.24C386.26,-102.37 382.4,-92.14 379.74,-85.09"/>
<polygon fill="#63b8ff" stroke="#63b8ff" points="386.39,-112.63 393.2,-120.75 392.94,-110.16 386.39,-112.63"/>
</a>
</g>
</g>
<!-- Node11 -->
<g id="Node000011" class="node">
<title>Node11</title>
<g id="a_Node000011"><a xlink:href="main_8c.html" target="_top" xlink:title=" ">
<polygon fill="white" stroke="#666666" points="923.5,-24.5 873.5,-24.5 873.5,-5.5 923.5,-5.5 923.5,-24.5"/>
<text text-anchor="middle" x="898.5" y="-12.5" font-family="Helvetica,sans-Serif" font-size="10.00">main.c</text>
</a>
</g>
</g>
<!-- Node8&#45;&gt;Node11 -->
<g id="edge16_Node000008_Node000011" class="edge">
<title>Node8&#45;&gt;Node11</title>
<g id="a_edge16_Node000008_Node000011"><a xlink:title=" ">
<path fill="none" stroke="#63b8ff" d="M410.47,-113.12C424.31,-98.12 446.94,-76.66 471.5,-66 544.67,-34.24 793.34,-20.66 873.43,-17.04"/>
<polygon fill="#63b8ff" stroke="#63b8ff" points="407.77,-110.89 403.73,-120.69 412.99,-115.55 407.77,-110.89"/>
</a>
</g>
</g>
<!-- Node8&#45;&gt;Node12 -->
<g id="edge17_Node000008_Node000012" class="edge">
<title>Node8&#45;&gt;Node12</title>
<g id="a_edge17_Node000008_Node000012"><a xlink:title=" ">
<path fill="none" stroke="#63b8ff" d="M362.4,-116.84C347.27,-109.63 330.44,-99.17 319.5,-85 305.37,-66.71 301.74,-38.57 300.82,-24.55"/>
<polygon fill="#63b8ff" stroke="#63b8ff" points="360.98,-120.03 371.54,-120.91 363.83,-113.64 360.98,-120.03"/>
</a>
</g>
</g>
<!-- Node15 -->
<g id="Node000015" class="node">
<title>Node15</title>
<g id="a_Node000015"><a xlink:href="uart__mgmt_8c.html" target="_top" xlink:title=" ">
<polygon fill="white" stroke="#666666" points="925,-85 846,-85 846,-66 925,-66 925,-85"/>
<text text-anchor="middle" x="885.5" y="-73" font-family="Helvetica,sans-Serif" font-size="10.00">uart_mgmt.c</text>
</a>
</g>
</g>
<!-- Node8&#45;&gt;Node15 -->
<g id="edge18_Node000008_Node000015" class="edge">
<title>Node8&#45;&gt;Node15</title>
<g id="a_edge18_Node000008_Node000015"><a xlink:title=" ">
<path fill="none" stroke="#63b8ff" d="M444.96,-124.25C541.69,-113.76 757.05,-90.42 845.95,-80.79"/>
<polygon fill="#63b8ff" stroke="#63b8ff" points="444.44,-120.78 434.87,-125.34 445.19,-127.74 444.44,-120.78"/>
</a>
</g>
</g>
<!-- Node10&#45;&gt;Node11 -->
<g id="edge12_Node000010_Node000011" class="edge">
<title>Node10&#45;&gt;Node11</title>
<g id="a_edge12_Node000010_Node000011"><a xlink:title=" ">
<path fill="none" stroke="#63b8ff" d="M434.55,-66.49C435.88,-66.32 437.2,-66.16 438.5,-66 604.14,-45.65 803.88,-25.4 873.29,-18.49"/>
<polygon fill="#63b8ff" stroke="#63b8ff" points="433.68,-63.07 424.21,-67.82 434.57,-70.02 433.68,-63.07"/>
</a>
</g>
</g>
<!-- Node10&#45;&gt;Node12 -->
<g id="edge13_Node000010_Node000012" class="edge">
<title>Node10&#45;&gt;Node12</title>
<g id="a_edge13_Node000010_Node000012"><a xlink:title=" ">
<path fill="none" stroke="#63b8ff" d="M357.06,-59.54C342.71,-48.49 323.68,-33.84 311.76,-24.67"/>
<polygon fill="#63b8ff" stroke="#63b8ff" points="355.23,-62.54 365.29,-65.87 359.5,-56.99 355.23,-62.54"/>
</a>
</g>
</g>
<!-- Node13 -->
<g id="Node000013" class="node">
<title>Node13</title>
<g id="a_Node000013"><a xlink:href="shell__task__mgmt_8c.html" target="_top" xlink:title=" ">
<polygon fill="white" stroke="#666666" points="495,-24.5 386,-24.5 386,-5.5 495,-5.5 495,-24.5"/>
<text text-anchor="middle" x="440.5" y="-12.5" font-family="Helvetica,sans-Serif" font-size="10.00">shell_task_mgmt.c</text>
</a>
</g>
</g>
<!-- Node10&#45;&gt;Node13 -->
<g id="edge14_Node000010_Node000013" class="edge">
<title>Node10&#45;&gt;Node13</title>
<g id="a_edge14_Node000010_Node000013"><a xlink:title=" ">
<path fill="none" stroke="#63b8ff" d="M393.56,-58.91C405.56,-47.94 421.17,-33.67 431.02,-24.67"/>
<polygon fill="#63b8ff" stroke="#63b8ff" points="390.96,-56.54 385.94,-65.87 395.69,-61.7 390.96,-56.54"/>
</a>
</g>
</g>
<!-- Node14 -->
<g id="Node000014" class="node">
<title>Node14</title>
<g id="a_Node000014"><a xlink:href="syscalls_8c.html" target="_top" xlink:title=" ">
<polygon fill="white" stroke="#666666" points="670.5,-24.5 606.5,-24.5 606.5,-5.5 670.5,-5.5 670.5,-24.5"/>
<text text-anchor="middle" x="638.5" y="-12.5" font-family="Helvetica,sans-Serif" font-size="10.00">syscalls.c</text>
</a>
</g>
</g>
<!-- Node10&#45;&gt;Node14 -->
<g id="edge15_Node000010_Node000014" class="edge">
<title>Node10&#45;&gt;Node14</title>
<g id="a_edge15_Node000010_Node000014"><a xlink:title=" ">
<path fill="none" stroke="#63b8ff" d="M424.4,-63.8C477.17,-52.02 560.57,-33.4 606.14,-23.23"/>
<polygon fill="#63b8ff" stroke="#63b8ff" points="423.59,-60.4 414.6,-65.99 425.12,-67.23 423.59,-60.4"/>
</a>
</g>
</g>
<!-- Node17 -->
<g id="Node000017" class="node">
<title>Node17</title>
<g id="a_Node000017"><a xlink:href="gpio__app_8h.html" target="_top" xlink:title=" ">
<polygon fill="white" stroke="#666666" points="1429.5,-85 1359.5,-85 1359.5,-66 1429.5,-66 1429.5,-85"/>
<text text-anchor="middle" x="1394.5" y="-73" font-family="Helvetica,sans-Serif" font-size="10.00">gpio_app.h</text>
</a>
</g>
</g>
<!-- Node16&#45;&gt;Node17 -->
<g id="edge20_Node000016_Node000017" class="edge">
<title>Node16&#45;&gt;Node17</title>
<g id="a_edge20_Node000016_Node000017"><a xlink:title=" ">
<path fill="none" stroke="#63b8ff" d="M1344.54,-114.88C1356.96,-105.34 1372.74,-93.21 1383.21,-85.17"/>
<polygon fill="#63b8ff" stroke="#63b8ff" points="1342.38,-112.12 1336.59,-120.98 1346.65,-117.67 1342.38,-112.12"/>
</a>
</g>
</g>
<!-- Node19 -->
<g id="Node000019" class="node">
<title>Node19</title>
<g id="a_Node000019"><a xlink:href="gpio__mgmt_8c.html" target="_top" xlink:title=" ">
<polygon fill="white" stroke="#666666" points="1341.5,-85 1261.5,-85 1261.5,-66 1341.5,-66 1341.5,-85"/>
<text text-anchor="middle" x="1301.5" y="-73" font-family="Helvetica,sans-Serif" font-size="10.00">gpio_mgmt.c</text>
</a>
</g>
</g>
<!-- Node16&#45;&gt;Node19 -->
<g id="edge22_Node000016_Node000019" class="edge">
<title>Node16&#45;&gt;Node19</title>
<g id="a_edge22_Node000016_Node000019"><a xlink:title=" ">
<path fill="none" stroke="#63b8ff" d="M1317.36,-111.53C1313.32,-102.6 1308.62,-92.22 1305.39,-85.09"/>
<polygon fill="#63b8ff" stroke="#63b8ff" points="1314.22,-113.08 1321.54,-120.75 1320.6,-110.19 1314.22,-113.08"/>
</a>
</g>
</g>
<!-- Node20 -->
<g id="Node000020" class="node">
<title>Node20</title>
<g id="a_Node000020"><a xlink:href="kernel__service__core_8c.html" target="_top" xlink:title=" ">
<polygon fill="white" stroke="#666666" points="1537.5,-24.5 1415.5,-24.5 1415.5,-5.5 1537.5,-5.5 1537.5,-24.5"/>
<text text-anchor="middle" x="1476.5" y="-12.5" font-family="Helvetica,sans-Serif" font-size="10.00">kernel_service_core.c</text>
</a>
</g>
</g>
<!-- Node16&#45;&gt;Node20 -->
<g id="edge23_Node000016_Node000020" class="edge">
<title>Node16&#45;&gt;Node20</title>
<g id="a_edge23_Node000016_Node000020"><a xlink:title=" ">
<path fill="none" stroke="#63b8ff" d="M1375.58,-117.94C1396.82,-111.1 1420.73,-100.63 1438.5,-85 1457.6,-68.2 1469.01,-39.39 1473.81,-24.89"/>
<polygon fill="#63b8ff" stroke="#63b8ff" points="1374.28,-114.68 1365.72,-120.93 1376.3,-121.38 1374.28,-114.68"/>
</a>
</g>
</g>
<!-- Node18 -->
<g id="Node000018" class="node">
<title>Node18</title>
<g id="a_Node000018"><a xlink:href="gpio__app_8c.html" target="_top" xlink:title=" ">
<polygon fill="white" stroke="#666666" points="1397,-24.5 1328,-24.5 1328,-5.5 1397,-5.5 1397,-24.5"/>
<text text-anchor="middle" x="1362.5" y="-12.5" font-family="Helvetica,sans-Serif" font-size="10.00">gpio_app.c</text>
</a>
</g>
</g>
<!-- Node17&#45;&gt;Node18 -->
<g id="edge21_Node000017_Node000018" class="edge">
<title>Node17&#45;&gt;Node18</title>
<g id="a_edge21_Node000017_Node000018"><a xlink:title=" ">
<path fill="none" stroke="#63b8ff" d="M1384.92,-56.98C1379.08,-46.31 1371.88,-33.15 1367.24,-24.67"/>
<polygon fill="#63b8ff" stroke="#63b8ff" points="1381.91,-58.77 1389.78,-65.87 1388.05,-55.42 1381.91,-58.77"/>
</a>
</g>
</g>
<!-- Node22 -->
<g id="Node000022" class="node">
<title>Node22</title>
<g id="a_Node000022"><a xlink:href="iic__app_8c.html" target="_top" xlink:title=" ">
<polygon fill="white" stroke="#666666" points="713,-85 654,-85 654,-66 713,-66 713,-85"/>
<text text-anchor="middle" x="683.5" y="-73" font-family="Helvetica,sans-Serif" font-size="10.00">iic_app.c</text>
</a>
</g>
</g>
<!-- Node21&#45;&gt;Node22 -->
<g id="edge25_Node000021_Node000022" class="edge">
<title>Node21&#45;&gt;Node22</title>
<g id="a_edge25_Node000021_Node000022"><a xlink:title=" ">
<path fill="none" stroke="#63b8ff" d="M641.7,-114.04C652.17,-104.64 665.15,-92.98 673.85,-85.17"/>
<polygon fill="#63b8ff" stroke="#63b8ff" points="639.08,-111.7 633.98,-120.98 643.76,-116.91 639.08,-111.7"/>
</a>
</g>
</g>
<!-- Node23 -->
<g id="Node000023" class="node">
<title>Node23</title>
<g id="a_Node000023"><a xlink:href="iic__mgmt_8c.html" target="_top" xlink:title=" ">
<polygon fill="white" stroke="#666666" points="636,-85 565,-85 565,-66 636,-66 636,-85"/>
<text text-anchor="middle" x="600.5" y="-73" font-family="Helvetica,sans-Serif" font-size="10.00">iic_mgmt.c</text>
</a>
</g>
</g>
<!-- Node21&#45;&gt;Node23 -->
<g id="edge26_Node000021_Node000023" class="edge">
<title>Node21&#45;&gt;Node23</title>
<g id="a_edge26_Node000021_Node000023"><a xlink:title=" ">
<path fill="none" stroke="#63b8ff" d="M616.36,-111.53C612.32,-102.6 607.62,-92.22 604.39,-85.09"/>
<polygon fill="#63b8ff" stroke="#63b8ff" points="613.22,-113.08 620.54,-120.75 619.6,-110.19 613.22,-113.08"/>
</a>
</g>
</g>
<!-- Node24&#45;&gt;Node11 -->
<g id="edge31_Node000024_Node000011" class="edge">
<title>Node24&#45;&gt;Node11</title>
<g id="a_edge31_Node000024_Node000011"><a xlink:title=" ">
<path fill="none" stroke="#63b8ff" d="M1139.88,-64.03C1076.1,-51.34 971.24,-30.47 923.53,-20.98"/>
<polygon fill="#63b8ff" stroke="#63b8ff" points="1139.26,-67.47 1149.75,-65.99 1140.63,-60.61 1139.26,-67.47"/>
</a>
</g>
</g>
<!-- Node24&#45;&gt;Node20 -->
<g id="edge29_Node000024_Node000020" class="edge">
<title>Node24&#45;&gt;Node20</title>
<g id="a_edge29_Node000024_Node000020"><a xlink:title=" ">
<path fill="none" stroke="#63b8ff" d="M1243.65,-63.96C1298.48,-52.67 1384.44,-34.96 1435.15,-24.52"/>
<polygon fill="#63b8ff" stroke="#63b8ff" points="1242.88,-60.55 1233.8,-65.99 1244.3,-67.4 1242.88,-60.55"/>
</a>
</g>
</g>
<!-- Node25 -->
<g id="Node000025" class="node">
<title>Node25</title>
<g id="a_Node000025"><a xlink:href="init_8h.html" target="_top" xlink:title=" ">
<polygon fill="white" stroke="#666666" points="1134,-24.5 1093,-24.5 1093,-5.5 1134,-5.5 1134,-24.5"/>
<text text-anchor="middle" x="1113.5" y="-12.5" font-family="Helvetica,sans-Serif" font-size="10.00">init.h</text>
</a>
</g>
</g>
<!-- Node24&#45;&gt;Node25 -->
<g id="edge28_Node000024_Node000025" class="edge">
<title>Node24&#45;&gt;Node25</title>
<g id="a_edge28_Node000024_Node000025"><a xlink:title=" ">
<path fill="none" stroke="#63b8ff" d="M1172.71,-59.85C1157.75,-48.77 1137.71,-33.93 1125.2,-24.67"/>
<polygon fill="#63b8ff" stroke="#63b8ff" points="1170.72,-62.73 1180.84,-65.87 1174.89,-57.1 1170.72,-62.73"/>
</a>
</g>
</g>
<!-- Node26 -->
<g id="Node000026" class="node">
<title>Node26</title>
<g id="a_Node000026"><a xlink:href="kernel__service__task__manager_8c.html" target="_top" xlink:title=" ">
<polygon fill="white" stroke="#666666" points="1265,-30 1152,-30 1152,0 1265,0 1265,-30"/>
<text text-anchor="start" x="1160" y="-18" font-family="Helvetica,sans-Serif" font-size="10.00">kernel_service_task</text>
<text text-anchor="middle" x="1208.5" y="-7" font-family="Helvetica,sans-Serif" font-size="10.00">_manager.c</text>
</a>
</g>
</g>
<!-- Node24&#45;&gt;Node26 -->
<g id="edge30_Node000024_Node000026" class="edge">
<title>Node24&#45;&gt;Node26</title>
<g id="a_edge30_Node000024_Node000026"><a xlink:title=" ">
<path fill="none" stroke="#63b8ff" d="M1197.5,-56.22C1199.8,-47.79 1202.5,-37.95 1204.64,-30.11"/>
<polygon fill="#63b8ff" stroke="#63b8ff" points="1194.12,-55.3 1194.86,-65.87 1200.88,-57.15 1194.12,-55.3"/>
</a>
</g>
</g>
<!-- Node27&#45;&gt;Node5 -->
<g id="edge34_Node000027_Node000005" class="edge">
<title>Node27&#45;&gt;Node5</title>
<g id="a_edge34_Node000027_Node000005"><a xlink:title=" ">
<path fill="none" stroke="#63b8ff" d="M884.4,-117.8C854.72,-107.91 812.9,-93.97 786.25,-85.08"/>
<polygon fill="#63b8ff" stroke="#63b8ff" points="883.36,-121.14 893.95,-120.98 885.57,-114.5 883.36,-121.14"/>
</a>
</g>
</g>
<!-- Node27&#45;&gt;Node7 -->
<g id="edge35_Node000027_Node000007" class="edge">
<title>Node27&#45;&gt;Node7</title>
<g id="a_edge35_Node000027_Node000007"><a xlink:title=" ">
<path fill="none" stroke="#63b8ff" d="M876.39,-125.33C808.1,-118.48 670.93,-103.71 555.5,-85 552.71,-84.55 549.82,-84.04 546.93,-83.51"/>
<polygon fill="#63b8ff" stroke="#63b8ff" points="876.45,-128.85 886.75,-126.36 877.15,-121.89 876.45,-128.85"/>
</a>
</g>
</g>
<!-- Node27&#45;&gt;Node11 -->
<g id="edge38_Node000027_Node000011" class="edge">
<title>Node27&#45;&gt;Node11</title>
<g id="a_edge38_Node000027_Node000011"><a xlink:title=" ">
<path fill="none" stroke="#63b8ff" d="M942.54,-115.11C959.06,-102.85 976.86,-84.34 967.5,-66 957.48,-46.37 935.75,-32.65 919.33,-24.61"/>
<polygon fill="#63b8ff" stroke="#63b8ff" points="940.39,-112.34 934.18,-120.92 944.39,-118.09 940.39,-112.34"/>
</a>
</g>
</g>
<!-- Node27&#45;&gt;Node12 -->
<g id="edge40_Node000027_Node000012" class="edge">
<title>Node27&#45;&gt;Node12</title>
<g id="a_edge40_Node000027_Node000012"><a xlink:title=" ">
<path fill="none" stroke="#63b8ff" d="M894.72,-116.17C860.82,-97.99 803.6,-67.49 798.5,-66 617.81,-13.22 563.06,-55.08 376.5,-30 365.46,-28.52 353.59,-26.52 342.59,-24.51"/>
<polygon fill="#63b8ff" stroke="#63b8ff" points="893.13,-119.29 903.59,-120.94 896.44,-113.13 893.13,-119.29"/>
</a>
</g>
</g>
<!-- Node27&#45;&gt;Node14 -->
<g id="edge41_Node000027_Node000014" class="edge">
<title>Node27&#45;&gt;Node14</title>
<g id="a_edge41_Node000027_Node000014"><a xlink:title=" ">
<path fill="none" stroke="#63b8ff" d="M930.65,-111.91C937.93,-97.96 944.27,-78.75 933.5,-66 900.1,-26.47 739.99,-18.18 670.64,-16.45"/>
<polygon fill="#63b8ff" stroke="#63b8ff" points="927.61,-110.17 925.66,-120.58 933.68,-113.66 927.61,-110.17"/>
</a>
</g>
</g>
<!-- Node27&#45;&gt;Node15 -->
<g id="edge42_Node000027_Node000015" class="edge">
<title>Node27&#45;&gt;Node15</title>
<g id="a_edge42_Node000027_Node000015"><a xlink:title=" ">
<path fill="none" stroke="#63b8ff" d="M908.34,-112.1C902.53,-103.04 895.68,-92.37 891.01,-85.09"/>
<polygon fill="#63b8ff" stroke="#63b8ff" points="905.54,-114.22 913.89,-120.75 911.43,-110.44 905.54,-114.22"/>
</a>
</g>
</g>
<!-- Node27&#45;&gt;Node24 -->
<g id="edge37_Node000027_Node000024" class="edge">
<title>Node27&#45;&gt;Node24</title>
<g id="a_edge37_Node000027_Node000024"><a xlink:title=" ">
<path fill="none" stroke="#63b8ff" d="M962.15,-121.22C1012.9,-111.37 1097.21,-95 1148.53,-85.04"/>
<polygon fill="#63b8ff" stroke="#63b8ff" points="961.31,-117.82 952.16,-123.16 962.64,-124.69 961.31,-117.82"/>
</a>
</g>
</g>
<!-- Node27&#45;&gt;Node25 -->
<g id="edge36_Node000027_Node000025" class="edge">
<title>Node27&#45;&gt;Node25</title>
<g id="a_edge36_Node000027_Node000025"><a xlink:title=" ">
<path fill="none" stroke="#63b8ff" d="M962.37,-129.93C1001.55,-127.97 1058.55,-118.86 1093.5,-85 1110.34,-68.69 1113.23,-39.12 1113.58,-24.57"/>
<polygon fill="#63b8ff" stroke="#63b8ff" points="962.19,-126.43 952.33,-130.3 962.45,-133.43 962.19,-126.43"/>
</a>
</g>
</g>
<!-- Node28 -->
<g id="Node000028" class="node">
<title>Node28</title>
<g id="a_Node000028"><a xlink:href="mqueue_8c.html" target="_top" xlink:title=" ">
<polygon fill="white" stroke="#666666" points="1085,-85 1020,-85 1020,-66 1085,-66 1085,-85"/>
<text text-anchor="middle" x="1052.5" y="-73" font-family="Helvetica,sans-Serif" font-size="10.00">mqueue.c</text>
</a>
</g>
</g>
<!-- Node27&#45;&gt;Node28 -->
<g id="edge39_Node000027_Node000028" class="edge">
<title>Node27&#45;&gt;Node28</title>
<g id="a_edge39_Node000027_Node000028"><a xlink:title=" ">
<path fill="none" stroke="#63b8ff" d="M950.47,-117.16C975.09,-107.35 1008.91,-93.87 1030.74,-85.17"/>
<polygon fill="#63b8ff" stroke="#63b8ff" points="948.86,-114.03 940.87,-120.98 951.45,-120.53 948.86,-114.03"/>
</a>
</g>
</g>
<!-- Node30 -->
<g id="Node000030" class="node">
<title>Node30</title>
<g id="a_Node000030"><a xlink:href="spi__app_8c.html" target="_top" xlink:title=" ">
<polygon fill="white" stroke="#666666" points="1671.5,-85 1609.5,-85 1609.5,-66 1671.5,-66 1671.5,-85"/>
<text text-anchor="middle" x="1640.5" y="-73" font-family="Helvetica,sans-Serif" font-size="10.00">spi_app.c</text>
</a>
</g>
</g>
<!-- Node29&#45;&gt;Node30 -->
<g id="edge45_Node000029_Node000030" class="edge">
<title>Node29&#45;&gt;Node30</title>
<g id="a_edge45_Node000029_Node000030"><a xlink:title=" ">
<path fill="none" stroke="#63b8ff" d="M1640.5,-110.66C1640.5,-101.93 1640.5,-91.99 1640.5,-85.09"/>
<polygon fill="#63b8ff" stroke="#63b8ff" points="1637,-110.75 1640.5,-120.75 1644,-110.75 1637,-110.75"/>
</a>
</g>
</g>
<!-- Node31 -->
<g id="Node000031" class="node">
<title>Node31</title>
<g id="a_Node000031"><a xlink:href="spi__mgmt_8c.html" target="_top" xlink:title=" ">
<polygon fill="white" stroke="#666666" points="1763.5,-85 1689.5,-85 1689.5,-66 1763.5,-66 1763.5,-85"/>
<text text-anchor="middle" x="1726.5" y="-73" font-family="Helvetica,sans-Serif" font-size="10.00">spi_mgmt.c</text>
</a>
</g>
</g>
<!-- Node29&#45;&gt;Node31 -->
<g id="edge46_Node000029_Node000031" class="edge">
<title>Node29&#45;&gt;Node31</title>
<g id="a_edge46_Node000029_Node000031"><a xlink:title=" ">
<path fill="none" stroke="#63b8ff" d="M1662.9,-115.7C1678.57,-106.04 1699.01,-93.44 1712.43,-85.17"/>
<polygon fill="#63b8ff" stroke="#63b8ff" points="1660.99,-112.76 1654.32,-120.98 1664.67,-118.72 1660.99,-112.76"/>
</a>
</g>
</g>
<!-- Node32&#45;&gt;Node15 -->
<g id="edge50_Node000032_Node000015" class="edge">
<title>Node32&#45;&gt;Node15</title>
<g id="a_edge50_Node000032_Node000015"><a xlink:title=" ">
<path fill="none" stroke="#63b8ff" d="M1398,-123.54C1390.14,-122.66 1382.1,-121.78 1374.5,-121 1207.66,-103.83 1008.43,-86.77 925.15,-79.79"/>
<polygon fill="#63b8ff" stroke="#63b8ff" points="1397.86,-127.04 1408.19,-124.7 1398.65,-120.09 1397.86,-127.04"/>
</a>
</g>
</g>
<!-- Node32&#45;&gt;Node20 -->
<g id="edge48_Node000032_Node000020" class="edge">
<title>Node32&#45;&gt;Node20</title>
<g id="a_edge48_Node000032_Node000020"><a xlink:title=" ">
<path fill="none" stroke="#63b8ff" d="M1459.6,-112.07C1464.1,-104.12 1468.85,-94.4 1471.5,-85 1477.43,-63.96 1477.46,-37.96 1476.97,-24.69"/>
<polygon fill="#63b8ff" stroke="#63b8ff" points="1456.54,-110.37 1454.39,-120.74 1462.54,-113.97 1456.54,-110.37"/>
</a>
</g>
</g>
<!-- Node33 -->
<g id="Node000033" class="node">
<title>Node33</title>
<g id="a_Node000033"><a xlink:href="uart__app_8c.html" target="_top" xlink:title=" ">
<polygon fill="white" stroke="#666666" points="1591.5,-85 1523.5,-85 1523.5,-66 1591.5,-66 1591.5,-85"/>
<text text-anchor="middle" x="1557.5" y="-73" font-family="Helvetica,sans-Serif" font-size="10.00">uart_app.c</text>
</a>
</g>
</g>
<!-- Node32&#45;&gt;Node33 -->
<g id="edge49_Node000032_Node000033" class="edge">
<title>Node32&#45;&gt;Node33</title>
<g id="a_edge49_Node000032_Node000033"><a xlink:title=" ">
<path fill="none" stroke="#63b8ff" d="M1475.23,-116.5C1495.29,-106.75 1522.18,-93.68 1539.67,-85.17"/>
<polygon fill="#63b8ff" stroke="#63b8ff" points="1473.48,-113.46 1466.01,-120.98 1476.54,-119.76 1473.48,-113.46"/>
</a>
</g>
</g>
</g>
</svg>

<g id="navigator" transform="translate(0 0)" fill="#404254">
  <rect fill="#f2f5e9" fill-opacity="0.5" stroke="#606060" stroke-width=".5" x="0" y="0" width="60" height="60"/>
  <use id="zoomplus" xlink:href="#zoomPlus" x="17" y="9" onmousedown="handleZoom(evt,'in')"/>
  <use id="zoomminus" xlink:href="#zoomMin" x="42" y="9" onmousedown="handleZoom(evt,'out')"/>
  <use id="reset" xlink:href="#resetDef" x="30" y="36" onmousedown="handleReset()"/>
   <use id="arrowup" xlink:href="#arrowUp" x="0" y="0" onmousedown="handlePan(0,-1)"/>
  <use id="arrowright" xlink:href="#arrowRight" x="0" y="0" onmousedown="handlePan(1,0)"/>
  <use id="arrowdown" xlink:href="#arrowDown" x="0" y="0" onmousedown="handlePan(0,1)"/>
  <use id="arrowleft" xlink:href="#arrowLeft" x="0" y="0" onmousedown="handlePan(-1,0)"/>
</g>
<svg viewBox="0 0 15 15" width="100%" height="30px" preserveAspectRatio="xMaxYMin meet">
 <g id="arrow_out" transform="scale(0.3 0.3)">
  <a xlink:href="autoconf_8h__dep__incl_org.svg" target="_base">
   <rect id="button" ry="5" rx="5" y="6" x="6" height="38" width="38"
        fill="#f2f5e9" fill-opacity="0.5" stroke="#606060" stroke-width="1.0"/>
   <path id="arrow"
     d="M 11.500037,31.436501 C 11.940474,20.09759 22.043105,11.32322 32.158766,21.979434 L 37.068811,17.246167 C 37.068811,17.246167 37.088388,32 37.088388,32 L 22.160133,31.978069 C 22.160133,31.978069 26.997745,27.140456 26.997745,27.140456 C 18.528582,18.264221 13.291696,25.230495 11.500037,31.436501 z"
     style="fill:#404040;"/>
  </a>
 </g>
</svg>

<style type='text/css'>
<![CDATA[
[data-mouse-over-selected='false'] { opacity: 0.7; }
[data-mouse-over-selected='true']  { opacity: 1.0; }
]]>
</style>
<script type="application/ecmascript"><![CDATA[
document.addEventListener('DOMContentLoaded', (event) => {
  highlightEdges();
  highlightAdjacentNodes();
});
]]></script>
</svg>
