<?xml version="1.0" encoding="UTF-8" standalone="no"?>
<!DOCTYPE svg PUBLIC "-//W3C//DTD SVG 1.1//EN"
 "http://www.w3.org/Graphics/SVG/1.1/DTD/svg11.dtd">
<!-- Generated by graphviz version 2.43.0 (0)
 -->
<!-- Title: def_hw.h Pages: 1 -->
<svg width="779pt" height="203pt"
 viewBox="0.00 0.00 778.99 203.00" xmlns="http://www.w3.org/2000/svg" xmlns:xlink="http://www.w3.org/1999/xlink">
<g id="graph0" class="graph" transform="scale(1 1) rotate(0) translate(4 199)">
<title>def_hw.h</title>
<!-- Node1 -->
<g id="Node000001" class="node">
<title>Node1</title>
<g id="a_Node000001"><a xlink:title=" ">
<polygon fill="#999999" stroke="#666666" points="124.99,-195 64.99,-195 64.99,-176 124.99,-176 124.99,-195"/>
<text text-anchor="middle" x="94.99" y="-183" font-family="Helvetica,sans-Serif" font-size="10.00">def_hw.h</text>
</a>
</g>
</g>
<!-- Node2 -->
<g id="Node000002" class="node">
<title>Node2</title>
<g id="a_Node000002"><a xlink:href="drv__iic_8h.html" target="_top" xlink:title=" ">
<polygon fill="white" stroke="#666666" points="73.99,-85 15.99,-85 15.99,-66 73.99,-66 73.99,-85"/>
<text text-anchor="middle" x="44.99" y="-73" font-family="Helvetica,sans-Serif" font-size="10.00">drv_iic.h</text>
</a>
</g>
</g>
<!-- Node1&#45;&gt;Node2 -->
<g id="edge1_Node000001_Node000002" class="edge">
<title>Node1&#45;&gt;Node2</title>
<g id="a_edge1_Node000001_Node000002"><a xlink:title=" ">
<path fill="none" stroke="#63b8ff" d="M86.63,-166.44C75.74,-142.92 57.14,-102.73 49,-85.16"/>
<polygon fill="#63b8ff" stroke="#63b8ff" points="83.52,-168.06 90.9,-175.66 89.88,-165.12 83.52,-168.06"/>
</a>
</g>
</g>
<!-- Node3 -->
<g id="Node000003" class="node">
<title>Node3</title>
<g id="a_Node000003"><a xlink:href="drv__uart_8h.html" target="_top" xlink:title=" ">
<polygon fill="white" stroke="#666666" points="157.99,-85 91.99,-85 91.99,-66 157.99,-66 157.99,-85"/>
<text text-anchor="middle" x="124.99" y="-73" font-family="Helvetica,sans-Serif" font-size="10.00">drv_uart.h</text>
</a>
</g>
</g>
<!-- Node1&#45;&gt;Node3 -->
<g id="edge2_Node000001_Node000003" class="edge">
<title>Node1&#45;&gt;Node3</title>
<g id="a_edge2_Node000001_Node000003"><a xlink:title=" ">
<path fill="none" stroke="#63b8ff" d="M100.19,-165.8C106.74,-142.2 117.75,-102.58 122.59,-85.16"/>
<polygon fill="#63b8ff" stroke="#63b8ff" points="96.75,-165.09 97.45,-175.66 103.5,-166.96 96.75,-165.09"/>
</a>
</g>
</g>
<!-- Node4 -->
<g id="Node000004" class="node">
<title>Node4</title>
<g id="a_Node000004"><a xlink:href="init_8h.html" target="_top" xlink:title=" ">
<polygon fill="white" stroke="#666666" points="147.49,-24.5 106.49,-24.5 106.49,-5.5 147.49,-5.5 147.49,-24.5"/>
<text text-anchor="middle" x="126.99" y="-12.5" font-family="Helvetica,sans-Serif" font-size="10.00">init.h</text>
</a>
</g>
</g>
<!-- Node1&#45;&gt;Node4 -->
<g id="edge3_Node000001_Node000004" class="edge">
<title>Node1&#45;&gt;Node4</title>
<g id="a_edge3_Node000001_Node000004"><a xlink:title=" ">
<path fill="none" stroke="#63b8ff" d="M71.08,-170.49C36.93,-148.65 -18.97,-104.95 6.99,-66 29.15,-32.76 78.03,-21.58 106.09,-17.85"/>
<polygon fill="#63b8ff" stroke="#63b8ff" points="69.3,-173.5 79.64,-175.8 72.99,-167.56 69.3,-173.5"/>
</a>
</g>
</g>
<!-- Node5 -->
<g id="Node000005" class="node">
<title>Node5</title>
<g id="a_Node000005"><a xlink:href="mqueue_8h.html" target="_top" xlink:title=" ">
<polygon fill="white" stroke="#666666" points="355.49,-140 290.49,-140 290.49,-121 355.49,-121 355.49,-140"/>
<text text-anchor="middle" x="322.99" y="-128" font-family="Helvetica,sans-Serif" font-size="10.00">mqueue.h</text>
</a>
</g>
</g>
<!-- Node1&#45;&gt;Node5 -->
<g id="edge4_Node000001_Node000005" class="edge">
<title>Node1&#45;&gt;Node5</title>
<g id="a_edge4_Node000001_Node000005"><a xlink:title=" ">
<path fill="none" stroke="#63b8ff" d="M135.09,-175.18C179.26,-164.91 249.44,-148.6 290.38,-139.08"/>
<polygon fill="#63b8ff" stroke="#63b8ff" points="134.22,-171.79 125.27,-177.46 135.8,-178.61 134.22,-171.79"/>
</a>
</g>
</g>
<!-- Node5&#45;&gt;Node2 -->
<g id="edge5_Node000005_Node000002" class="edge">
<title>Node5&#45;&gt;Node2</title>
<g id="a_edge5_Node000005_Node000002"><a xlink:title=" ">
<path fill="none" stroke="#63b8ff" d="M280.27,-122.07C232.2,-113.59 151.84,-99.08 82.99,-85 80.08,-84.4 77.04,-83.76 74.01,-83.11"/>
<polygon fill="#63b8ff" stroke="#63b8ff" points="279.86,-125.55 290.31,-123.83 281.07,-118.65 279.86,-125.55"/>
</a>
</g>
</g>
<!-- Node5&#45;&gt;Node3 -->
<g id="edge6_Node000005_Node000003" class="edge">
<title>Node5&#45;&gt;Node3</title>
<g id="a_edge6_Node000005_Node000003"><a xlink:title=" ">
<path fill="none" stroke="#63b8ff" d="M281.19,-118.31C244.14,-108.39 190.82,-94.12 157.05,-85.08"/>
<polygon fill="#63b8ff" stroke="#63b8ff" points="280.61,-121.78 291.18,-120.98 282.42,-115.02 280.61,-121.78"/>
</a>
</g>
</g>
<!-- Node5&#45;&gt;Node4 -->
<g id="edge7_Node000005_Node000004" class="edge">
<title>Node5&#45;&gt;Node4</title>
<g id="a_edge7_Node000005_Node000004"><a xlink:title=" ">
<path fill="none" stroke="#63b8ff" d="M310.98,-112.42C300.16,-98.19 283.07,-78.32 263.99,-66 221.84,-38.78 203.58,-48.64 156.99,-30 152.94,-28.38 148.64,-26.48 144.61,-24.62"/>
<polygon fill="#63b8ff" stroke="#63b8ff" points="308.4,-114.82 317.14,-120.82 314.05,-110.69 308.4,-114.82"/>
</a>
</g>
</g>
<!-- Node6 -->
<g id="Node000006" class="node">
<title>Node6</title>
<g id="a_Node000006"><a xlink:href="kernel__services_8h.html" target="_top" xlink:title=" ">
<polygon fill="white" stroke="#666666" points="413.49,-85 312.49,-85 312.49,-66 413.49,-66 413.49,-85"/>
<text text-anchor="middle" x="362.99" y="-73" font-family="Helvetica,sans-Serif" font-size="10.00">kernel_services.h</text>
</a>
</g>
</g>
<!-- Node5&#45;&gt;Node6 -->
<g id="edge8_Node000005_Node000006" class="edge">
<title>Node5&#45;&gt;Node6</title>
<g id="a_edge8_Node000005_Node000006"><a xlink:title=" ">
<path fill="none" stroke="#63b8ff" d="M335.69,-112.67C342.62,-103.5 350.9,-92.52 356.51,-85.09"/>
<polygon fill="#63b8ff" stroke="#63b8ff" points="332.83,-110.66 329.6,-120.75 338.41,-114.87 332.83,-110.66"/>
</a>
</g>
</g>
<!-- Node9 -->
<g id="Node000009" class="node">
<title>Node9</title>
<g id="a_Node000009"><a xlink:href="main_8c.html" target="_top" xlink:title=" ">
<polygon fill="white" stroke="#666666" points="487.99,-24.5 437.99,-24.5 437.99,-5.5 487.99,-5.5 487.99,-24.5"/>
<text text-anchor="middle" x="462.99" y="-12.5" font-family="Helvetica,sans-Serif" font-size="10.00">main.c</text>
</a>
</g>
</g>
<!-- Node5&#45;&gt;Node9 -->
<g id="edge13_Node000005_Node000009" class="edge">
<title>Node5&#45;&gt;Node9</title>
<g id="a_edge13_Node000005_Node000009"><a xlink:title=" ">
<path fill="none" stroke="#63b8ff" d="M363.79,-117.56C383.05,-110.43 405.39,-99.81 421.99,-85 441.33,-67.74 454.21,-39.14 459.81,-24.79"/>
<polygon fill="#63b8ff" stroke="#63b8ff" points="362.61,-114.27 354.34,-120.89 364.93,-120.87 362.61,-114.27"/>
</a>
</g>
</g>
<!-- Node10 -->
<g id="Node000010" class="node">
<title>Node10</title>
<g id="a_Node000010"><a xlink:href="mqueue_8c.html" target="_top" xlink:title=" ">
<polygon fill="white" stroke="#666666" points="535.49,-85 470.49,-85 470.49,-66 535.49,-66 535.49,-85"/>
<text text-anchor="middle" x="502.99" y="-73" font-family="Helvetica,sans-Serif" font-size="10.00">mqueue.c</text>
</a>
</g>
</g>
<!-- Node5&#45;&gt;Node10 -->
<g id="edge14_Node000005_Node000010" class="edge">
<title>Node5&#45;&gt;Node10</title>
<g id="a_edge14_Node000005_Node000010"><a xlink:title=" ">
<path fill="none" stroke="#63b8ff" d="M361.86,-118.06C395.5,-108.15 443.41,-94.04 473.85,-85.08"/>
<polygon fill="#63b8ff" stroke="#63b8ff" points="360.52,-114.8 351.91,-120.98 362.49,-121.52 360.52,-114.8"/>
</a>
</g>
</g>
<!-- Node11 -->
<g id="Node000011" class="node">
<title>Node11</title>
<g id="a_Node000011"><a xlink:href="os__shell__management_8c.html" target="_top" xlink:title=" ">
<polygon fill="white" stroke="#666666" points="688.49,-85 553.49,-85 553.49,-66 688.49,-66 688.49,-85"/>
<text text-anchor="middle" x="620.99" y="-73" font-family="Helvetica,sans-Serif" font-size="10.00">os_shell_management.c</text>
</a>
</g>
</g>
<!-- Node5&#45;&gt;Node11 -->
<g id="edge15_Node000005_Node000011" class="edge">
<title>Node5&#45;&gt;Node11</title>
<g id="a_edge15_Node000005_Node000011"><a xlink:title=" ">
<path fill="none" stroke="#63b8ff" d="M365.83,-121.88C420.74,-112.11 515.68,-95.23 572.98,-85.04"/>
<polygon fill="#63b8ff" stroke="#63b8ff" points="364.97,-118.48 355.74,-123.68 366.19,-125.37 364.97,-118.48"/>
</a>
</g>
</g>
<!-- Node12 -->
<g id="Node000012" class="node">
<title>Node12</title>
<g id="a_Node000012"><a xlink:href="syscalls_8c.html" target="_top" xlink:title=" ">
<polygon fill="white" stroke="#666666" points="770.99,-85 706.99,-85 706.99,-66 770.99,-66 770.99,-85"/>
<text text-anchor="middle" x="738.99" y="-73" font-family="Helvetica,sans-Serif" font-size="10.00">syscalls.c</text>
</a>
</g>
</g>
<!-- Node5&#45;&gt;Node12 -->
<g id="edge16_Node000005_Node000012" class="edge">
<title>Node5&#45;&gt;Node12</title>
<g id="a_edge16_Node000005_Node000012"><a xlink:title=" ">
<path fill="none" stroke="#63b8ff" d="M365.9,-125.62C435.75,-119.04 578.28,-104.48 697.99,-85 700.86,-84.53 703.84,-84 706.81,-83.45"/>
<polygon fill="#63b8ff" stroke="#63b8ff" points="365.36,-122.16 355.73,-126.57 366.01,-129.13 365.36,-122.16"/>
</a>
</g>
</g>
<!-- Node13 -->
<g id="Node000013" class="node">
<title>Node13</title>
<g id="a_Node000013"><a xlink:href="uart__mgmt_8c.html" target="_top" xlink:title=" ">
<polygon fill="white" stroke="#666666" points="255.49,-85 176.49,-85 176.49,-66 255.49,-66 255.49,-85"/>
<text text-anchor="middle" x="215.99" y="-73" font-family="Helvetica,sans-Serif" font-size="10.00">uart_mgmt.c</text>
</a>
</g>
</g>
<!-- Node5&#45;&gt;Node13 -->
<g id="edge17_Node000005_Node000013" class="edge">
<title>Node5&#45;&gt;Node13</title>
<g id="a_edge17_Node000005_Node000013"><a xlink:title=" ">
<path fill="none" stroke="#63b8ff" d="M296.75,-116.5C277.07,-106.75 250.67,-93.68 233.5,-85.17"/>
<polygon fill="#63b8ff" stroke="#63b8ff" points="295.29,-119.68 305.8,-120.98 298.39,-113.41 295.29,-119.68"/>
</a>
</g>
</g>
<!-- Node6&#45;&gt;Node4 -->
<g id="edge9_Node000006_Node000004" class="edge">
<title>Node6&#45;&gt;Node4</title>
<g id="a_edge9_Node000006_Node000004"><a xlink:title=" ">
<path fill="none" stroke="#63b8ff" d="M302.22,-65.06C260.68,-57.72 204.73,-46.07 156.99,-30 152.53,-28.5 147.84,-26.52 143.54,-24.53"/>
<polygon fill="#63b8ff" stroke="#63b8ff" points="301.74,-68.53 312.19,-66.79 302.94,-61.63 301.74,-68.53"/>
</a>
</g>
</g>
<!-- Node7 -->
<g id="Node000007" class="node">
<title>Node7</title>
<g id="a_Node000007"><a xlink:href="kernel__service__core_8c.html" target="_top" xlink:title=" ">
<polygon fill="white" stroke="#666666" points="287.99,-24.5 165.99,-24.5 165.99,-5.5 287.99,-5.5 287.99,-24.5"/>
<text text-anchor="middle" x="226.99" y="-12.5" font-family="Helvetica,sans-Serif" font-size="10.00">kernel_service_core.c</text>
</a>
</g>
</g>
<!-- Node6&#45;&gt;Node7 -->
<g id="edge10_Node000006_Node000007" class="edge">
<title>Node6&#45;&gt;Node7</title>
<g id="a_edge10_Node000006_Node000007"><a xlink:title=" ">
<path fill="none" stroke="#63b8ff" d="M333.78,-61.93C307.52,-50.64 269.67,-34.36 246.79,-24.52"/>
<polygon fill="#63b8ff" stroke="#63b8ff" points="332.65,-65.26 343.22,-65.99 335.41,-58.83 332.65,-65.26"/>
</a>
</g>
</g>
<!-- Node8 -->
<g id="Node000008" class="node">
<title>Node8</title>
<g id="a_Node000008"><a xlink:href="kernel__service__task__manager_8c.html" target="_top" xlink:title=" ">
<polygon fill="white" stroke="#666666" points="419.49,-30 306.49,-30 306.49,0 419.49,0 419.49,-30"/>
<text text-anchor="start" x="314.49" y="-18" font-family="Helvetica,sans-Serif" font-size="10.00">kernel_service_task</text>
<text text-anchor="middle" x="362.99" y="-7" font-family="Helvetica,sans-Serif" font-size="10.00">_manager.c</text>
</a>
</g>
</g>
<!-- Node6&#45;&gt;Node8 -->
<g id="edge11_Node000006_Node000008" class="edge">
<title>Node6&#45;&gt;Node8</title>
<g id="a_edge11_Node000006_Node000008"><a xlink:title=" ">
<path fill="none" stroke="#63b8ff" d="M362.99,-55.65C362.99,-47.36 362.99,-37.78 362.99,-30.11"/>
<polygon fill="#63b8ff" stroke="#63b8ff" points="359.49,-55.87 362.99,-65.87 366.49,-55.87 359.49,-55.87"/>
</a>
</g>
</g>
<!-- Node6&#45;&gt;Node9 -->
<g id="edge12_Node000006_Node000009" class="edge">
<title>Node6&#45;&gt;Node9</title>
<g id="a_edge12_Node000006_Node000009"><a xlink:title=" ">
<path fill="none" stroke="#63b8ff" d="M386.46,-60.77C405.55,-49.6 431.9,-34.19 448.18,-24.67"/>
<polygon fill="#63b8ff" stroke="#63b8ff" points="384.61,-57.8 377.75,-65.87 388.15,-63.84 384.61,-57.8"/>
</a>
</g>
</g>
</g>
</svg>
