<?xml version="1.0" encoding="UTF-8" standalone="no"?>
<!DOCTYPE svg PUBLIC "-//W3C//DTD SVG 1.1//EN"
 "http://www.w3.org/Graphics/SVG/1.1/DTD/svg11.dtd">
<!-- Generated by graphviz version 2.43.0 (0)
 -->
<!-- Title: def_compiler.h Pages: 1 -->
<svg width="788pt" height="203pt"
 viewBox="0.00 0.00 788.00 203.00" xmlns="http://www.w3.org/2000/svg" xmlns:xlink="http://www.w3.org/1999/xlink">
<g id="graph0" class="graph" transform="scale(1 1) rotate(0) translate(4 199)">
<title>def_compiler.h</title>
<!-- Node1 -->
<g id="Node000001" class="node">
<title>Node1</title>
<g id="a_Node000001"><a xlink:title=" ">
<polygon fill="#999999" stroke="#666666" points="330.5,-195 241.5,-195 241.5,-176 330.5,-176 330.5,-195"/>
<text text-anchor="middle" x="286" y="-183" font-family="Helvetica,sans-Serif" font-size="10.00">def_compiler.h</text>
</a>
</g>
</g>
<!-- Node2 -->
<g id="Node000002" class="node">
<title>Node2</title>
<g id="a_Node000002"><a xlink:href="drv__iic_8h.html" target="_top" xlink:title=" ">
<polygon fill="white" stroke="#666666" points="58,-85 0,-85 0,-66 58,-66 58,-85"/>
<text text-anchor="middle" x="29" y="-73" font-family="Helvetica,sans-Serif" font-size="10.00">drv_iic.h</text>
</a>
</g>
</g>
<!-- Node1&#45;&gt;Node2 -->
<g id="edge1_Node000001_Node000002" class="edge">
<title>Node1&#45;&gt;Node2</title>
<g id="a_edge1_Node000001_Node000002"><a xlink:title=" ">
<path fill="none" stroke="#63b8ff" d="M255.89,-171.84C202.91,-149.58 94.42,-103.99 49.34,-85.05"/>
<polygon fill="#63b8ff" stroke="#63b8ff" points="254.83,-175.2 265.4,-175.84 257.54,-168.74 254.83,-175.2"/>
</a>
</g>
</g>
<!-- Node3 -->
<g id="Node000003" class="node">
<title>Node3</title>
<g id="a_Node000003"><a xlink:href="drv__uart_8h.html" target="_top" xlink:title=" ">
<polygon fill="white" stroke="#666666" points="142,-85 76,-85 76,-66 142,-66 142,-85"/>
<text text-anchor="middle" x="109" y="-73" font-family="Helvetica,sans-Serif" font-size="10.00">drv_uart.h</text>
</a>
</g>
</g>
<!-- Node1&#45;&gt;Node3 -->
<g id="edge2_Node000001_Node000003" class="edge">
<title>Node1&#45;&gt;Node3</title>
<g id="a_edge2_Node000001_Node000003"><a xlink:title=" ">
<path fill="none" stroke="#63b8ff" d="M263.2,-170.59C226.13,-147.97 153.87,-103.88 123.25,-85.2"/>
<polygon fill="#63b8ff" stroke="#63b8ff" points="261.46,-173.62 271.81,-175.84 265.1,-167.65 261.46,-173.62"/>
</a>
</g>
</g>
<!-- Node4 -->
<g id="Node000004" class="node">
<title>Node4</title>
<g id="a_Node000004"><a xlink:href="ipc__types_8h.html" target="_top" xlink:title=" ">
<polygon fill="white" stroke="#666666" points="469,-140 397,-140 397,-121 469,-121 469,-140"/>
<text text-anchor="middle" x="433" y="-128" font-family="Helvetica,sans-Serif" font-size="10.00">ipc_types.h</text>
</a>
</g>
</g>
<!-- Node1&#45;&gt;Node4 -->
<g id="edge3_Node000001_Node000004" class="edge">
<title>Node1&#45;&gt;Node4</title>
<g id="a_edge3_Node000001_Node000004"><a xlink:title=" ">
<path fill="none" stroke="#63b8ff" d="M319.14,-172.55C346.44,-162.71 384.5,-148.98 408.95,-140.17"/>
<polygon fill="#63b8ff" stroke="#63b8ff" points="317.84,-169.3 309.62,-175.98 320.21,-175.89 317.84,-169.3"/>
</a>
</g>
</g>
<!-- Node5 -->
<g id="Node000005" class="node">
<title>Node5</title>
<g id="a_Node000005"><a xlink:href="mqueue_8h.html" target="_top" xlink:title=" ">
<polygon fill="white" stroke="#666666" points="378.5,-140 313.5,-140 313.5,-121 378.5,-121 378.5,-140"/>
<text text-anchor="middle" x="346" y="-128" font-family="Helvetica,sans-Serif" font-size="10.00">mqueue.h</text>
</a>
</g>
</g>
<!-- Node1&#45;&gt;Node5 -->
<g id="edge4_Node000001_Node000005" class="edge">
<title>Node1&#45;&gt;Node5</title>
<g id="a_edge4_Node000001_Node000005"><a xlink:title=" ">
<path fill="none" stroke="#63b8ff" d="M303.18,-169.32C313.88,-159.87 327.26,-148.06 336.18,-140.17"/>
<polygon fill="#63b8ff" stroke="#63b8ff" points="300.82,-166.74 295.64,-175.98 305.45,-171.99 300.82,-166.74"/>
</a>
</g>
</g>
<!-- Node5&#45;&gt;Node2 -->
<g id="edge5_Node000005_Node000002" class="edge">
<title>Node5&#45;&gt;Node2</title>
<g id="a_edge5_Node000005_Node000002"><a xlink:title=" ">
<path fill="none" stroke="#63b8ff" d="M303.18,-123.51C248.3,-115.64 150.28,-100.94 67,-85 64.08,-84.44 61.04,-83.82 58.01,-83.18"/>
<polygon fill="#63b8ff" stroke="#63b8ff" points="302.85,-127 313.24,-124.95 303.84,-120.07 302.85,-127"/>
</a>
</g>
</g>
<!-- Node5&#45;&gt;Node3 -->
<g id="edge6_Node000005_Node000003" class="edge">
<title>Node5&#45;&gt;Node3</title>
<g id="a_edge6_Node000005_Node000003"><a xlink:title=" ">
<path fill="none" stroke="#63b8ff" d="M303.02,-119.89C256.73,-109.54 184.08,-93.29 142.06,-83.89"/>
<polygon fill="#63b8ff" stroke="#63b8ff" points="302.52,-123.36 313.05,-122.13 304.05,-116.53 302.52,-123.36"/>
</a>
</g>
</g>
<!-- Node6 -->
<g id="Node000006" class="node">
<title>Node6</title>
<g id="a_Node000006"><a xlink:href="init_8h.html" target="_top" xlink:title=" ">
<polygon fill="white" stroke="#666666" points="440.5,-24.5 399.5,-24.5 399.5,-5.5 440.5,-5.5 440.5,-24.5"/>
<text text-anchor="middle" x="420" y="-12.5" font-family="Helvetica,sans-Serif" font-size="10.00">init.h</text>
</a>
</g>
</g>
<!-- Node5&#45;&gt;Node6 -->
<g id="edge7_Node000005_Node000006" class="edge">
<title>Node5&#45;&gt;Node6</title>
<g id="a_edge7_Node000005_Node000006"><a xlink:title=" ">
<path fill="none" stroke="#63b8ff" d="M388.69,-118.44C427.02,-108.08 478.15,-93.03 484,-85 501.22,-61.36 463.07,-37.04 438.56,-24.56"/>
<polygon fill="#63b8ff" stroke="#63b8ff" points="387.52,-115.13 378.77,-121.1 389.33,-121.89 387.52,-115.13"/>
</a>
</g>
</g>
<!-- Node7 -->
<g id="Node000007" class="node">
<title>Node7</title>
<g id="a_Node000007"><a xlink:href="kernel__services_8h.html" target="_top" xlink:title=" ">
<polygon fill="white" stroke="#666666" points="633.5,-85 532.5,-85 532.5,-66 633.5,-66 633.5,-85"/>
<text text-anchor="middle" x="583" y="-73" font-family="Helvetica,sans-Serif" font-size="10.00">kernel_services.h</text>
</a>
</g>
</g>
<!-- Node5&#45;&gt;Node7 -->
<g id="edge8_Node000005_Node000007" class="edge">
<title>Node5&#45;&gt;Node7</title>
<g id="a_edge8_Node000005_Node000007"><a xlink:title=" ">
<path fill="none" stroke="#63b8ff" d="M388.88,-119.91C433.34,-109.97 502.2,-94.57 544.84,-85.03"/>
<polygon fill="#63b8ff" stroke="#63b8ff" points="387.95,-116.53 378.95,-122.13 389.48,-123.36 387.95,-116.53"/>
</a>
</g>
</g>
<!-- Node10 -->
<g id="Node000010" class="node">
<title>Node10</title>
<g id="a_Node000010"><a xlink:href="main_8c.html" target="_top" xlink:title=" ">
<polygon fill="white" stroke="#666666" points="780,-24.5 730,-24.5 730,-5.5 780,-5.5 780,-24.5"/>
<text text-anchor="middle" x="755" y="-12.5" font-family="Helvetica,sans-Serif" font-size="10.00">main.c</text>
</a>
</g>
</g>
<!-- Node5&#45;&gt;Node10 -->
<g id="edge13_Node000005_Node000010" class="edge">
<title>Node5&#45;&gt;Node10</title>
<g id="a_edge13_Node000005_Node000010"><a xlink:title=" ">
<path fill="none" stroke="#63b8ff" d="M388.71,-121.03C502.82,-102.85 538.38,-122.74 643,-85 663.95,-77.44 717.97,-41.36 742.52,-24.6"/>
<polygon fill="#63b8ff" stroke="#63b8ff" points="387.82,-117.63 378.52,-122.72 388.96,-124.54 387.82,-117.63"/>
</a>
</g>
</g>
<!-- Node11 -->
<g id="Node000011" class="node">
<title>Node11</title>
<g id="a_Node000011"><a xlink:href="mqueue_8c.html" target="_top" xlink:title=" ">
<polygon fill="white" stroke="#666666" points="755.5,-85 690.5,-85 690.5,-66 755.5,-66 755.5,-85"/>
<text text-anchor="middle" x="723" y="-73" font-family="Helvetica,sans-Serif" font-size="10.00">mqueue.c</text>
</a>
</g>
</g>
<!-- Node5&#45;&gt;Node11 -->
<g id="edge14_Node000005_Node000011" class="edge">
<title>Node5&#45;&gt;Node11</title>
<g id="a_edge14_Node000005_Node000011"><a xlink:title=" ">
<path fill="none" stroke="#63b8ff" d="M388.74,-121.01C517.05,-100.39 551.72,-103.99 676,-85 680.67,-84.29 685.59,-83.47 690.42,-82.63"/>
<polygon fill="#63b8ff" stroke="#63b8ff" points="387.82,-117.61 378.51,-122.67 388.95,-124.52 387.82,-117.61"/>
</a>
</g>
</g>
<!-- Node12 -->
<g id="Node000012" class="node">
<title>Node12</title>
<g id="a_Node000012"><a xlink:href="os__shell__management_8c.html" target="_top" xlink:title=" ">
<polygon fill="white" stroke="#666666" points="295.5,-85 160.5,-85 160.5,-66 295.5,-66 295.5,-85"/>
<text text-anchor="middle" x="228" y="-73" font-family="Helvetica,sans-Serif" font-size="10.00">os_shell_management.c</text>
</a>
</g>
</g>
<!-- Node5&#45;&gt;Node12 -->
<g id="edge15_Node000005_Node000012" class="edge">
<title>Node5&#45;&gt;Node12</title>
<g id="a_edge15_Node000005_Node000012"><a xlink:title=" ">
<path fill="none" stroke="#63b8ff" d="M317.65,-116.77C295.88,-106.99 266.41,-93.75 247.3,-85.17"/>
<polygon fill="#63b8ff" stroke="#63b8ff" points="316.49,-120.08 327.04,-120.98 319.35,-113.69 316.49,-120.08"/>
</a>
</g>
</g>
<!-- Node13 -->
<g id="Node000013" class="node">
<title>Node13</title>
<g id="a_Node000013"><a xlink:href="syscalls_8c.html" target="_top" xlink:title=" ">
<polygon fill="white" stroke="#666666" points="378,-85 314,-85 314,-66 378,-66 378,-85"/>
<text text-anchor="middle" x="346" y="-73" font-family="Helvetica,sans-Serif" font-size="10.00">syscalls.c</text>
</a>
</g>
</g>
<!-- Node5&#45;&gt;Node13 -->
<g id="edge16_Node000005_Node000013" class="edge">
<title>Node5&#45;&gt;Node13</title>
<g id="a_edge16_Node000005_Node000013"><a xlink:title=" ">
<path fill="none" stroke="#63b8ff" d="M346,-110.66C346,-101.93 346,-91.99 346,-85.09"/>
<polygon fill="#63b8ff" stroke="#63b8ff" points="342.5,-110.75 346,-120.75 349.5,-110.75 342.5,-110.75"/>
</a>
</g>
</g>
<!-- Node14 -->
<g id="Node000014" class="node">
<title>Node14</title>
<g id="a_Node000014"><a xlink:href="uart__mgmt_8c.html" target="_top" xlink:title=" ">
<polygon fill="white" stroke="#666666" points="475.5,-85 396.5,-85 396.5,-66 475.5,-66 475.5,-85"/>
<text text-anchor="middle" x="436" y="-73" font-family="Helvetica,sans-Serif" font-size="10.00">uart_mgmt.c</text>
</a>
</g>
</g>
<!-- Node5&#45;&gt;Node14 -->
<g id="edge17_Node000005_Node000014" class="edge">
<title>Node5&#45;&gt;Node14</title>
<g id="a_edge17_Node000005_Node000014"><a xlink:title=" ">
<path fill="none" stroke="#63b8ff" d="M369.44,-115.7C385.84,-106.04 407.23,-93.44 421.28,-85.17"/>
<polygon fill="#63b8ff" stroke="#63b8ff" points="367.3,-112.89 360.46,-120.98 370.85,-118.93 367.3,-112.89"/>
</a>
</g>
</g>
<!-- Node7&#45;&gt;Node6 -->
<g id="edge9_Node000007_Node000006" class="edge">
<title>Node7&#45;&gt;Node6</title>
<g id="a_edge9_Node000007_Node000006"><a xlink:title=" ">
<path fill="none" stroke="#63b8ff" d="M543.75,-62.93C516.78,-54.63 480.32,-42.7 449,-30 444.96,-28.36 440.69,-26.42 436.7,-24.52"/>
<polygon fill="#63b8ff" stroke="#63b8ff" points="543.01,-66.37 553.59,-65.93 545.05,-59.67 543.01,-66.37"/>
</a>
</g>
</g>
<!-- Node8 -->
<g id="Node000008" class="node">
<title>Node8</title>
<g id="a_Node000008"><a xlink:href="kernel__service__core_8c.html" target="_top" xlink:title=" ">
<polygon fill="white" stroke="#666666" points="712,-24.5 590,-24.5 590,-5.5 712,-5.5 712,-24.5"/>
<text text-anchor="middle" x="651" y="-12.5" font-family="Helvetica,sans-Serif" font-size="10.00">kernel_service_core.c</text>
</a>
</g>
</g>
<!-- Node7&#45;&gt;Node8 -->
<g id="edge10_Node000007_Node000008" class="edge">
<title>Node7&#45;&gt;Node8</title>
<g id="a_edge10_Node000007_Node000008"><a xlink:title=" ">
<path fill="none" stroke="#63b8ff" d="M600.76,-59.22C613.55,-48.21 630.36,-33.75 640.93,-24.67"/>
<polygon fill="#63b8ff" stroke="#63b8ff" points="598.33,-56.69 593.03,-65.87 602.9,-62 598.33,-56.69"/>
</a>
</g>
</g>
<!-- Node9 -->
<g id="Node000009" class="node">
<title>Node9</title>
<g id="a_Node000009"><a xlink:href="kernel__service__task__manager_8c.html" target="_top" xlink:title=" ">
<polygon fill="white" stroke="#666666" points="571.5,-30 458.5,-30 458.5,0 571.5,0 571.5,-30"/>
<text text-anchor="start" x="466.5" y="-18" font-family="Helvetica,sans-Serif" font-size="10.00">kernel_service_task</text>
<text text-anchor="middle" x="515" y="-7" font-family="Helvetica,sans-Serif" font-size="10.00">_manager.c</text>
</a>
</g>
</g>
<!-- Node7&#45;&gt;Node9 -->
<g id="edge11_Node000007_Node000009" class="edge">
<title>Node7&#45;&gt;Node9</title>
<g id="a_edge11_Node000007_Node000009"><a xlink:title=" ">
<path fill="none" stroke="#63b8ff" d="M565.26,-59.23C554.79,-50.23 541.63,-38.91 531.41,-30.11"/>
<polygon fill="#63b8ff" stroke="#63b8ff" points="563.1,-62 572.97,-65.87 567.67,-56.69 563.1,-62"/>
</a>
</g>
</g>
<!-- Node7&#45;&gt;Node10 -->
<g id="edge12_Node000007_Node000010" class="edge">
<title>Node7&#45;&gt;Node10</title>
<g id="a_edge12_Node000007_Node000010"><a xlink:title=" ">
<path fill="none" stroke="#63b8ff" d="M621.52,-62.97C649.35,-54.42 687.74,-42.19 721,-30 725.56,-28.33 730.4,-26.42 734.97,-24.56"/>
<polygon fill="#63b8ff" stroke="#63b8ff" points="620.31,-59.68 611.77,-65.95 622.35,-66.37 620.31,-59.68"/>
</a>
</g>
</g>
</g>
</svg>
