<?xml version="1.0" encoding="UTF-8" standalone="no"?>
<!DOCTYPE svg PUBLIC "-//W3C//DTD SVG 1.1//EN"
 "http://www.w3.org/Graphics/SVG/1.1/DTD/svg11.dtd">
<!-- Generated by graphviz version 2.43.0 (0)
 -->
<!-- Title: def_attributes.h Pages: 1 -->
<!--zoomable 258 -->

<svg id="main" version="1.1" xmlns="http://www.w3.org/2000/svg" xmlns:xlink="http://www.w3.org/1999/xlink" xml:space="preserve" onload="init(evt)">
<style type="text/css"><![CDATA[
.node, .edge {opacity: 0.7;}
.node.selected, .edge.selected {opacity: 1;}
.edge:hover path { stroke: red; }
.edge:hover polygon { stroke: red; fill: red; }
]]></style>

<defs>
  <circle id="rim" cx="0" cy="0" r="7"/>
  <circle id="rim2" cx="0" cy="0" r="3.5"/>
  <g id="zoomPlus">
    <use xlink:href="#rim" fill="#404040"><set attributeName="fill" to="#808080" begin="zoomplus.mouseover" end="zoomplus.mouseout"/></use>
    <path d="M-4,0h8M0,-4v8" fill="none" stroke="white" stroke-width="1.5" pointer-events="none"/>
  </g>
  <g id="zoomMin">
    <use xlink:href="#rim" fill="#404040"><set attributeName="fill" to="#808080" begin="zoomminus.mouseover" end="zoomminus.mouseout"/></use>
    <path d="M-4,0h8" fill="none" stroke="white" stroke-width="1.5" pointer-events="none"/>
  </g>
  <g id="arrowUp" transform="translate(30 24)">
    <use xlink:href="#rim"/>
    <path pointer-events="none" fill="none" stroke="white" stroke-width="1.5" d="M0,-3.0v7 M-2.5,-0.5L0,-3.0L2.5,-0.5"/>
  </g>
  <g id="arrowRight" transform="rotate(90) translate(36 -43)">
    <use xlink:href="#rim"/>
    <path pointer-events="none" fill="none" stroke="white" stroke-width="1.5" d="M0,-3.0v7 M-2.5,-0.5L0,-3.0L2.5,-0.5"/>
  </g>
  <g id="arrowDown" transform="rotate(180) translate(-30 -48)">
    <use xlink:href="#rim"/>
    <path pointer-events="none" fill="none" stroke="white" stroke-width="1.5" d="M0,-3.0v7 M-2.5,-0.5L0,-3.0L2.5,-0.5"/>
  </g>
  <g id="arrowLeft" transform="rotate(270) translate(-36 17)">
    <use xlink:href="#rim"/>
    <path pointer-events="none" fill="none" stroke="white" stroke-width="1.5" d="M0,-3.0v7 M-2.5,-0.5L0,-3.0L2.5,-0.5"/>
  </g>
  <g id="resetDef">
    <use xlink:href="#rim2" fill="#404040"><set attributeName="fill" to="#808080" begin="reset.mouseover" end="reset.mouseout"/></use>
  </g>
</defs>
<script type="application/ecmascript">
var viewWidth = 1327;
var viewHeight = 258;
var sectionId = 'dynsection-0';
</script>
<script type="application/ecmascript" xlink:href="svg.min.js"/>
<svg id="graph" class="graph">
<g id="viewport">
<title>def_attributes.h</title>
<!-- Node1 -->
<g id="Node000001" class="node">
<title>Node1</title>
<g id="a_Node000001"><a xlink:title=" ">
<polygon fill="#999999" stroke="#666666" points="913.2,-250 819.2,-250 819.2,-231 913.2,-231 913.2,-250"/>
<text text-anchor="middle" x="866.2" y="-238" font-family="Helvetica,sans-Serif" font-size="10.00">def_attributes.h</text>
</a>
</g>
</g>
<!-- Node2 -->
<g id="Node000002" class="node">
<title>Node2</title>
<g id="a_Node000002"><a xlink:href="hal__rcc__stm32_8c.html" target="_top" xlink:title="STM32 RCC + CMSIS system initialization backend.">
<polygon fill="white" stroke="#666666" points="802.7,-195 707.7,-195 707.7,-176 802.7,-176 802.7,-195"/>
<text text-anchor="middle" x="755.2" y="-183" font-family="Helvetica,sans-Serif" font-size="10.00">hal_rcc_stm32.c</text>
</a>
</g>
</g>
<!-- Node1&#45;&gt;Node2 -->
<g id="edge1_Node000001_Node000002" class="edge">
<title>Node1&#45;&gt;Node2</title>
<g id="a_edge1_Node000001_Node000002"><a xlink:title=" ">
<path fill="none" stroke="#63b8ff" d="M839.26,-226.63C818.81,-216.87 791.26,-203.71 773.36,-195.17"/>
<polygon fill="#63b8ff" stroke="#63b8ff" points="837.84,-229.83 848.37,-230.98 840.85,-223.52 837.84,-229.83"/>
</a>
</g>
</g>
<!-- Node3 -->
<g id="Node000003" class="node">
<title>Node3</title>
<g id="a_Node000003"><a xlink:href="kernel_8h.html" target="_top" xlink:title=" ">
<polygon fill="white" stroke="#666666" points="495.2,-140 439.2,-140 439.2,-121 495.2,-121 495.2,-140"/>
<text text-anchor="middle" x="467.2" y="-128" font-family="Helvetica,sans-Serif" font-size="10.00">kernel.h</text>
</a>
</g>
</g>
<!-- Node1&#45;&gt;Node3 -->
<g id="edge2_Node000001_Node000003" class="edge">
<title>Node1&#45;&gt;Node3</title>
<g id="a_edge2_Node000001_Node000003"><a xlink:title=" ">
<path fill="none" stroke="#63b8ff" d="M856.13,-221.94C846.58,-207.06 830.81,-186.53 811.2,-176 756.63,-146.69 567.57,-135.75 495.45,-132.58"/>
<polygon fill="#63b8ff" stroke="#63b8ff" points="853.29,-224.01 861.48,-230.73 859.27,-220.37 853.29,-224.01"/>
</a>
</g>
</g>
<!-- Node14 -->
<g id="Node000014" class="node">
<title>Node14</title>
<g id="a_Node000014"><a xlink:href="os_2kernel__mem_8h.html" target="_top" xlink:title=" ">
<polygon fill="white" stroke="#666666" points="945.2,-195 859.2,-195 859.2,-176 945.2,-176 945.2,-195"/>
<text text-anchor="middle" x="902.2" y="-183" font-family="Helvetica,sans-Serif" font-size="10.00">kernel_mem.h</text>
</a>
</g>
</g>
<!-- Node1&#45;&gt;Node14 -->
<g id="edge13_Node000001_Node000014" class="edge">
<title>Node1&#45;&gt;Node14</title>
<g id="a_edge13_Node000001_Node000014"><a xlink:title=" ">
<path fill="none" stroke="#63b8ff" d="M877.83,-222.39C884.02,-213.27 891.37,-202.45 896.37,-195.09"/>
<polygon fill="#63b8ff" stroke="#63b8ff" points="874.87,-220.51 872.15,-230.75 880.66,-224.44 874.87,-220.51"/>
</a>
</g>
</g>
<!-- Node25 -->
<g id="Node000025" class="node">
<title>Node25</title>
<g id="a_Node000025"><a xlink:href="system_8c.html" target="_top" xlink:title=" ">
<polygon fill="white" stroke="#666666" points="1024.7,-195 963.7,-195 963.7,-176 1024.7,-176 1024.7,-195"/>
<text text-anchor="middle" x="994.2" y="-183" font-family="Helvetica,sans-Serif" font-size="10.00">system.c</text>
</a>
</g>
</g>
<!-- Node1&#45;&gt;Node25 -->
<g id="edge32_Node000001_Node000025" class="edge">
<title>Node1&#45;&gt;Node25</title>
<g id="a_edge32_Node000001_Node000025"><a xlink:title=" ">
<path fill="none" stroke="#63b8ff" d="M896.32,-227.03C919.99,-217.23 952.35,-203.83 973.26,-195.17"/>
<polygon fill="#63b8ff" stroke="#63b8ff" points="894.67,-223.93 886.77,-230.98 897.35,-230.39 894.67,-223.93"/>
</a>
</g>
</g>
<!-- Node4 -->
<g id="Node000004" class="node">
<title>Node4</title>
<g id="a_Node000004"><a xlink:href="gpio__mgmt_8c.html" target="_top" xlink:title=" ">
<polygon fill="white" stroke="#666666" points="93.2,-85 13.2,-85 13.2,-66 93.2,-66 93.2,-85"/>
<text text-anchor="middle" x="53.2" y="-73" font-family="Helvetica,sans-Serif" font-size="10.00">gpio_mgmt.c</text>
</a>
</g>
</g>
<!-- Node3&#45;&gt;Node4 -->
<g id="edge3_Node000003_Node000004" class="edge">
<title>Node3&#45;&gt;Node4</title>
<g id="a_edge3_Node000003_Node000004"><a xlink:title=" ">
<path fill="none" stroke="#63b8ff" d="M428.7,-125.45C362.04,-118.3 220.9,-102.52 102.2,-85 99.3,-84.57 96.3,-84.11 93.29,-83.62"/>
<polygon fill="#63b8ff" stroke="#63b8ff" points="428.43,-128.94 438.74,-126.52 429.17,-121.98 428.43,-128.94"/>
</a>
</g>
</g>
<!-- Node5 -->
<g id="Node000005" class="node">
<title>Node5</title>
<g id="a_Node000005"><a xlink:href="iic__mgmt_8c.html" target="_top" xlink:title=" ">
<polygon fill="white" stroke="#666666" points="470.7,-85 399.7,-85 399.7,-66 470.7,-66 470.7,-85"/>
<text text-anchor="middle" x="435.2" y="-73" font-family="Helvetica,sans-Serif" font-size="10.00">iic_mgmt.c</text>
</a>
</g>
</g>
<!-- Node3&#45;&gt;Node5 -->
<g id="edge4_Node000003_Node000005" class="edge">
<title>Node3&#45;&gt;Node5</title>
<g id="a_edge4_Node000003_Node000005"><a xlink:title=" ">
<path fill="none" stroke="#63b8ff" d="M456.7,-112.1C451.23,-103.04 444.79,-92.37 440.39,-85.09"/>
<polygon fill="#63b8ff" stroke="#63b8ff" points="453.76,-114 461.92,-120.75 459.75,-110.38 453.76,-114"/>
</a>
</g>
</g>
<!-- Node6 -->
<g id="Node000006" class="node">
<title>Node6</title>
<g id="a_Node000006"><a xlink:href="kernel__service__core_8c.html" target="_top" xlink:title=" ">
<polygon fill="white" stroke="#666666" points="691.2,-24.5 569.2,-24.5 569.2,-5.5 691.2,-5.5 691.2,-24.5"/>
<text text-anchor="middle" x="630.2" y="-12.5" font-family="Helvetica,sans-Serif" font-size="10.00">kernel_service_core.c</text>
</a>
</g>
</g>
<!-- Node3&#45;&gt;Node6 -->
<g id="edge5_Node000003_Node000006" class="edge">
<title>Node3&#45;&gt;Node6</title>
<g id="a_edge5_Node000003_Node000006"><a xlink:title=" ">
<path fill="none" stroke="#63b8ff" d="M479.12,-112.46C489.51,-98.56 505.64,-79.15 523.2,-66 548.32,-47.2 581.63,-33.01 604.38,-24.64"/>
<polygon fill="#63b8ff" stroke="#63b8ff" points="476.21,-110.52 473.17,-120.67 481.87,-114.63 476.21,-110.52"/>
</a>
</g>
</g>
<!-- Node7 -->
<g id="Node000007" class="node">
<title>Node7</title>
<g id="a_Node000007"><a xlink:href="kernel__service__task__manager_8c.html" target="_top" xlink:title=" ">
<polygon fill="white" stroke="#666666" points="361.7,-30 248.7,-30 248.7,0 361.7,0 361.7,-30"/>
<text text-anchor="start" x="256.7" y="-18" font-family="Helvetica,sans-Serif" font-size="10.00">kernel_service_task</text>
<text text-anchor="middle" x="305.2" y="-7" font-family="Helvetica,sans-Serif" font-size="10.00">_manager.c</text>
</a>
</g>
</g>
<!-- Node3&#45;&gt;Node7 -->
<g id="edge6_Node000003_Node000007" class="edge">
<title>Node3&#45;&gt;Node7</title>
<g id="a_edge6_Node000003_Node000007"><a xlink:title=" ">
<path fill="none" stroke="#63b8ff" d="M428.72,-128.7C322.74,-126.11 32.55,-116.2 4.2,-85 -1.47,-78.75 -1.26,-72.44 4.2,-66 34.9,-29.78 170.18,-19.77 248.54,-17.02"/>
<polygon fill="#63b8ff" stroke="#63b8ff" points="428.89,-132.21 438.97,-128.94 429.06,-125.21 428.89,-132.21"/>
</a>
</g>
</g>
<!-- Node8 -->
<g id="Node000008" class="node">
<title>Node8</title>
<g id="a_Node000008"><a xlink:href="kernel__thread_8c.html" target="_top" xlink:title="All kernel thread operation api definition.">
<polygon fill="white" stroke="#666666" points="203.2,-85 111.2,-85 111.2,-66 203.2,-66 203.2,-85"/>
<text text-anchor="middle" x="157.2" y="-73" font-family="Helvetica,sans-Serif" font-size="10.00">kernel_thread.c</text>
</a>
</g>
</g>
<!-- Node3&#45;&gt;Node8 -->
<g id="edge7_Node000003_Node000008" class="edge">
<title>Node3&#45;&gt;Node8</title>
<g id="a_edge7_Node000003_Node000008"><a xlink:title=" ">
<path fill="none" stroke="#63b8ff" d="M429.11,-122.99C372.1,-113.24 264.73,-94.88 203.35,-84.39"/>
<polygon fill="#63b8ff" stroke="#63b8ff" points="428.7,-126.47 439.15,-124.7 429.88,-119.57 428.7,-126.47"/>
</a>
</g>
</g>
<!-- Node9 -->
<g id="Node000009" class="node">
<title>Node9</title>
<g id="a_Node000009"><a xlink:href="main_8c.html" target="_top" xlink:title=" ">
<polygon fill="white" stroke="#666666" points="891.2,-24.5 841.2,-24.5 841.2,-5.5 891.2,-5.5 891.2,-24.5"/>
<text text-anchor="middle" x="866.2" y="-12.5" font-family="Helvetica,sans-Serif" font-size="10.00">main.c</text>
</a>
</g>
</g>
<!-- Node3&#45;&gt;Node9 -->
<g id="edge8_Node000003_Node000009" class="edge">
<title>Node3&#45;&gt;Node9</title>
<g id="a_edge8_Node000003_Node000009"><a xlink:title=" ">
<path fill="none" stroke="#63b8ff" d="M486.01,-114.52C507.43,-97.74 541.39,-72.09 556.2,-66 608.02,-44.71 776.4,-25.38 840.82,-18.58"/>
<polygon fill="#63b8ff" stroke="#63b8ff" points="483.63,-111.94 477.95,-120.88 487.97,-117.43 483.63,-111.94"/>
</a>
</g>
</g>
<!-- Node10 -->
<g id="Node000010" class="node">
<title>Node10</title>
<g id="a_Node000010"><a xlink:href="os__shell__management_8c.html" target="_top" xlink:title=" ">
<polygon fill="white" stroke="#666666" points="797.7,-85 662.7,-85 662.7,-66 797.7,-66 797.7,-85"/>
<text text-anchor="middle" x="730.2" y="-73" font-family="Helvetica,sans-Serif" font-size="10.00">os_shell_management.c</text>
</a>
</g>
</g>
<!-- Node3&#45;&gt;Node10 -->
<g id="edge9_Node000003_Node000010" class="edge">
<title>Node3&#45;&gt;Node10</title>
<g id="a_edge9_Node000003_Node000010"><a xlink:title=" ">
<path fill="none" stroke="#63b8ff" d="M505.45,-121.79C554.04,-112 637.62,-95.16 688.01,-85"/>
<polygon fill="#63b8ff" stroke="#63b8ff" points="504.46,-118.42 495.35,-123.83 505.84,-125.28 504.46,-118.42"/>
</a>
</g>
</g>
<!-- Node11 -->
<g id="Node000011" class="node">
<title>Node11</title>
<g id="a_Node000011"><a xlink:href="spi__mgmt_8c.html" target="_top" xlink:title=" ">
<polygon fill="white" stroke="#666666" points="295.2,-85 221.2,-85 221.2,-66 295.2,-66 295.2,-85"/>
<text text-anchor="middle" x="258.2" y="-73" font-family="Helvetica,sans-Serif" font-size="10.00">spi_mgmt.c</text>
</a>
</g>
</g>
<!-- Node3&#45;&gt;Node11 -->
<g id="edge10_Node000003_Node000011" class="edge">
<title>Node3&#45;&gt;Node11</title>
<g id="a_edge10_Node000003_Node000011"><a xlink:title=" ">
<path fill="none" stroke="#63b8ff" d="M429.29,-119.89C390.06,-109.94 329.37,-94.55 291.81,-85.02"/>
<polygon fill="#63b8ff" stroke="#63b8ff" points="428.46,-123.29 439.02,-122.35 430.18,-116.5 428.46,-123.29"/>
</a>
</g>
</g>
<!-- Node12 -->
<g id="Node000012" class="node">
<title>Node12</title>
<g id="a_Node000012"><a xlink:href="uart__app_8c.html" target="_top" xlink:title=" ">
<polygon fill="white" stroke="#666666" points="381.2,-85 313.2,-85 313.2,-66 381.2,-66 381.2,-85"/>
<text text-anchor="middle" x="347.2" y="-73" font-family="Helvetica,sans-Serif" font-size="10.00">uart_app.c</text>
</a>
</g>
</g>
<!-- Node3&#45;&gt;Node12 -->
<g id="edge11_Node000003_Node000012" class="edge">
<title>Node3&#45;&gt;Node12</title>
<g id="a_edge11_Node000003_Node000012"><a xlink:title=" ">
<path fill="none" stroke="#63b8ff" d="M438.67,-116.9C416.51,-107.11 386.35,-93.79 366.84,-85.17"/>
<polygon fill="#63b8ff" stroke="#63b8ff" points="437.36,-120.15 447.92,-120.98 440.19,-113.74 437.36,-120.15"/>
</a>
</g>
</g>
<!-- Node13 -->
<g id="Node000013" class="node">
<title>Node13</title>
<g id="a_Node000013"><a xlink:href="uart__mgmt_8c.html" target="_top" xlink:title=" ">
<polygon fill="white" stroke="#666666" points="644.7,-85 565.7,-85 565.7,-66 644.7,-66 644.7,-85"/>
<text text-anchor="middle" x="605.2" y="-73" font-family="Helvetica,sans-Serif" font-size="10.00">uart_mgmt.c</text>
</a>
</g>
</g>
<!-- Node3&#45;&gt;Node13 -->
<g id="edge12_Node000003_Node000013" class="edge">
<title>Node3&#45;&gt;Node13</title>
<g id="a_edge12_Node000003_Node000013"><a xlink:title=" ">
<path fill="none" stroke="#63b8ff" d="M498.99,-117.29C524.57,-107.47 559.88,-93.91 582.63,-85.17"/>
<polygon fill="#63b8ff" stroke="#63b8ff" points="497.46,-114.13 489.38,-120.98 499.97,-120.67 497.46,-114.13"/>
</a>
</g>
</g>
<!-- Node14&#45;&gt;Node3 -->
<g id="edge15_Node000014_Node000003" class="edge">
<title>Node14&#45;&gt;Node3</title>
<g id="a_edge15_Node000014_Node000003"><a xlink:title=" ">
<path fill="none" stroke="#63b8ff" d="M849.01,-176.51C847.73,-176.34 846.46,-176.17 845.2,-176 714.54,-158.57 557.97,-141.28 495.22,-134.5"/>
<polygon fill="#63b8ff" stroke="#63b8ff" points="848.58,-179.99 858.96,-177.91 849.55,-173.05 848.58,-179.99"/>
</a>
</g>
</g>
<!-- Node15 -->
<g id="Node000015" class="node">
<title>Node15</title>
<g id="a_Node000015"><a xlink:href="irq__desc_8c.html" target="_top" xlink:title=" ">
<polygon fill="white" stroke="#666666" points="1060.7,-140 995.7,-140 995.7,-121 1060.7,-121 1060.7,-140"/>
<text text-anchor="middle" x="1028.2" y="-128" font-family="Helvetica,sans-Serif" font-size="10.00">irq_desc.c</text>
</a>
</g>
</g>
<!-- Node14&#45;&gt;Node15 -->
<g id="edge14_Node000014_Node000015" class="edge">
<title>Node14&#45;&gt;Node15</title>
<g id="a_edge14_Node000014_Node000015"><a xlink:title=" ">
<path fill="none" stroke="#63b8ff" d="M931.85,-172.03C955.15,-162.23 987,-148.83 1007.59,-140.17"/>
<polygon fill="#63b8ff" stroke="#63b8ff" points="930.31,-168.88 922.45,-175.98 933.02,-175.33 930.31,-168.88"/>
</a>
</g>
</g>
<!-- Node16 -->
<g id="Node000016" class="node">
<title>Node16</title>
<g id="a_Node000016"><a xlink:href="kernel__mem_8c.html" target="_top" xlink:title=" ">
<polygon fill="white" stroke="#666666" points="1165.2,-140 1079.2,-140 1079.2,-121 1165.2,-121 1165.2,-140"/>
<text text-anchor="middle" x="1122.2" y="-128" font-family="Helvetica,sans-Serif" font-size="10.00">kernel_mem.c</text>
</a>
</g>
</g>
<!-- Node14&#45;&gt;Node16 -->
<g id="edge16_Node000014_Node000016" class="edge">
<title>Node14&#45;&gt;Node16</title>
<g id="a_edge16_Node000014_Node000016"><a xlink:title=" ">
<path fill="none" stroke="#63b8ff" d="M947.34,-173.63C988.55,-163.7 1048.66,-149.22 1086.58,-140.08"/>
<polygon fill="#63b8ff" stroke="#63b8ff" points="946.45,-170.24 937.55,-175.98 948.09,-177.05 946.45,-170.24"/>
</a>
</g>
</g>
<!-- Node17 -->
<g id="Node000017" class="node">
<title>Node17</title>
<g id="a_Node000017"><a xlink:href="mqueue_8h.html" target="_top" xlink:title=" ">
<polygon fill="white" stroke="#666666" points="977.7,-140 912.7,-140 912.7,-121 977.7,-121 977.7,-140"/>
<text text-anchor="middle" x="945.2" y="-128" font-family="Helvetica,sans-Serif" font-size="10.00">mqueue.h</text>
</a>
</g>
</g>
<!-- Node14&#45;&gt;Node17 -->
<g id="edge17_Node000014_Node000017" class="edge">
<title>Node14&#45;&gt;Node17</title>
<g id="a_edge17_Node000014_Node000017"><a xlink:title=" ">
<path fill="none" stroke="#63b8ff" d="M915.63,-167.96C923.12,-158.72 932.14,-147.6 938.24,-140.09"/>
<polygon fill="#63b8ff" stroke="#63b8ff" points="912.89,-165.78 909.3,-175.75 918.32,-170.19 912.89,-165.78"/>
</a>
</g>
</g>
<!-- Node24 -->
<g id="Node000024" class="node">
<title>Node24</title>
<g id="a_Node000024"><a xlink:href="ringbuffer_8c.html" target="_top" xlink:title=" ">
<polygon fill="white" stroke="#666666" points="894.7,-140 823.7,-140 823.7,-121 894.7,-121 894.7,-140"/>
<text text-anchor="middle" x="859.2" y="-128" font-family="Helvetica,sans-Serif" font-size="10.00">ringbuffer.c</text>
</a>
</g>
</g>
<!-- Node14&#45;&gt;Node24 -->
<g id="edge31_Node000014_Node000024" class="edge">
<title>Node14&#45;&gt;Node24</title>
<g id="a_edge31_Node000014_Node000024"><a xlink:title=" ">
<path fill="none" stroke="#63b8ff" d="M888.78,-167.96C881.29,-158.72 872.27,-147.6 866.17,-140.09"/>
<polygon fill="#63b8ff" stroke="#63b8ff" points="886.09,-170.19 895.1,-175.75 891.52,-165.78 886.09,-170.19"/>
</a>
</g>
</g>
<!-- Node17&#45;&gt;Node9 -->
<g id="edge26_Node000017_Node000009" class="edge">
<title>Node17&#45;&gt;Node9</title>
<g id="a_edge26_Node000017_Node000009"><a xlink:title=" ">
<path fill="none" stroke="#63b8ff" d="M942.54,-110.66C939.97,-97.33 935.12,-79.51 926.2,-66 914.4,-48.12 894.31,-33.26 880.66,-24.51"/>
<polygon fill="#63b8ff" stroke="#63b8ff" points="939.1,-111.31 944.19,-120.6 946,-110.17 939.1,-111.31"/>
</a>
</g>
</g>
<!-- Node17&#45;&gt;Node10 -->
<g id="edge28_Node000017_Node000010" class="edge">
<title>Node17&#45;&gt;Node10</title>
<g id="a_edge28_Node000017_Node000010"><a xlink:title=" ">
<path fill="none" stroke="#63b8ff" d="M902.74,-119.03C862.41,-109.09 802.52,-94.33 764.95,-85.07"/>
<polygon fill="#63b8ff" stroke="#63b8ff" points="902,-122.46 912.55,-121.45 903.68,-115.66 902,-122.46"/>
</a>
</g>
</g>
<!-- Node17&#45;&gt;Node13 -->
<g id="edge30_Node000017_Node000013" class="edge">
<title>Node17&#45;&gt;Node13</title>
<g id="a_edge30_Node000017_Node000013"><a xlink:title=" ">
<path fill="none" stroke="#63b8ff" d="M902.64,-120.81C791.51,-101.61 761.33,-102.32 653.2,-85 650.45,-84.56 647.6,-84.09 644.74,-83.61"/>
<polygon fill="#63b8ff" stroke="#63b8ff" points="902.11,-124.27 912.57,-122.54 903.32,-117.38 902.11,-124.27"/>
</a>
</g>
</g>
<!-- Node18 -->
<g id="Node000018" class="node">
<title>Node18</title>
<g id="a_Node000018"><a xlink:href="drv__iic_8h.html" target="_top" xlink:title=" ">
<polygon fill="white" stroke="#666666" points="1031.2,-85 973.2,-85 973.2,-66 1031.2,-66 1031.2,-85"/>
<text text-anchor="middle" x="1002.2" y="-73" font-family="Helvetica,sans-Serif" font-size="10.00">drv_iic.h</text>
</a>
</g>
</g>
<!-- Node17&#45;&gt;Node18 -->
<g id="edge18_Node000017_Node000018" class="edge">
<title>Node17&#45;&gt;Node18</title>
<g id="a_edge18_Node000017_Node000018"><a xlink:title=" ">
<path fill="none" stroke="#63b8ff" d="M961.83,-114.04C971.94,-104.64 984.48,-92.98 992.88,-85.17"/>
<polygon fill="#63b8ff" stroke="#63b8ff" points="959.3,-111.61 954.36,-120.98 964.07,-116.74 959.3,-111.61"/>
</a>
</g>
</g>
<!-- Node19 -->
<g id="Node000019" class="node">
<title>Node19</title>
<g id="a_Node000019"><a xlink:href="drv__uart_8h.html" target="_top" xlink:title=" ">
<polygon fill="white" stroke="#666666" points="1115.2,-85 1049.2,-85 1049.2,-66 1115.2,-66 1115.2,-85"/>
<text text-anchor="middle" x="1082.2" y="-73" font-family="Helvetica,sans-Serif" font-size="10.00">drv_uart.h</text>
</a>
</g>
</g>
<!-- Node17&#45;&gt;Node19 -->
<g id="edge19_Node000017_Node000019" class="edge">
<title>Node17&#45;&gt;Node19</title>
<g id="a_edge19_Node000017_Node000019"><a xlink:title=" ">
<path fill="none" stroke="#63b8ff" d="M976.76,-117.29C1002.16,-107.47 1037.21,-93.91 1059.79,-85.17"/>
<polygon fill="#63b8ff" stroke="#63b8ff" points="975.28,-114.11 967.22,-120.98 977.8,-120.64 975.28,-114.11"/>
</a>
</g>
</g>
<!-- Node20 -->
<g id="Node000020" class="node">
<title>Node20</title>
<g id="a_Node000020"><a xlink:href="init_8h.html" target="_top" xlink:title=" ">
<polygon fill="white" stroke="#666666" points="1056.7,-24.5 1015.7,-24.5 1015.7,-5.5 1056.7,-5.5 1056.7,-24.5"/>
<text text-anchor="middle" x="1036.2" y="-12.5" font-family="Helvetica,sans-Serif" font-size="10.00">init.h</text>
</a>
</g>
</g>
<!-- Node17&#45;&gt;Node20 -->
<g id="edge20_Node000017_Node000020" class="edge">
<title>Node17&#45;&gt;Node20</title>
<g id="a_edge20_Node000017_Node000020"><a xlink:title=" ">
<path fill="none" stroke="#63b8ff" d="M987.72,-120.31C1039.29,-108.95 1119.93,-90.47 1124.2,-85 1146.57,-56.4 1089.3,-32.77 1056.81,-22.1"/>
<polygon fill="#63b8ff" stroke="#63b8ff" points="986.84,-116.92 977.82,-122.48 988.34,-123.75 986.84,-116.92"/>
</a>
</g>
</g>
<!-- Node21 -->
<g id="Node000021" class="node">
<title>Node21</title>
<g id="a_Node000021"><a xlink:href="kernel__services_8h.html" target="_top" xlink:title=" ">
<polygon fill="white" stroke="#666666" points="916.7,-85 815.7,-85 815.7,-66 916.7,-66 916.7,-85"/>
<text text-anchor="middle" x="866.2" y="-73" font-family="Helvetica,sans-Serif" font-size="10.00">kernel_services.h</text>
</a>
</g>
</g>
<!-- Node17&#45;&gt;Node21 -->
<g id="edge21_Node000017_Node000021" class="edge">
<title>Node17&#45;&gt;Node21</title>
<g id="a_edge21_Node000017_Node000021"><a xlink:title=" ">
<path fill="none" stroke="#63b8ff" d="M923.82,-115.15C909.54,-105.57 891.23,-93.29 879.13,-85.17"/>
<polygon fill="#63b8ff" stroke="#63b8ff" points="922.26,-118.32 932.51,-120.98 926.16,-112.51 922.26,-118.32"/>
</a>
</g>
</g>
<!-- Node22 -->
<g id="Node000022" class="node">
<title>Node22</title>
<g id="a_Node000022"><a xlink:href="mqueue_8c.html" target="_top" xlink:title=" ">
<polygon fill="white" stroke="#666666" points="1236.7,-85 1171.7,-85 1171.7,-66 1236.7,-66 1236.7,-85"/>
<text text-anchor="middle" x="1204.2" y="-73" font-family="Helvetica,sans-Serif" font-size="10.00">mqueue.c</text>
</a>
</g>
</g>
<!-- Node17&#45;&gt;Node22 -->
<g id="edge27_Node000017_Node000022" class="edge">
<title>Node17&#45;&gt;Node22</title>
<g id="a_edge27_Node000017_Node000022"><a xlink:title=" ">
<path fill="none" stroke="#63b8ff" d="M987.57,-120.83C1039.09,-110.29 1124.94,-92.72 1171.59,-83.17"/>
<polygon fill="#63b8ff" stroke="#63b8ff" points="986.84,-117.41 977.74,-122.84 988.24,-124.27 986.84,-117.41"/>
</a>
</g>
</g>
<!-- Node23 -->
<g id="Node000023" class="node">
<title>Node23</title>
<g id="a_Node000023"><a xlink:href="syscalls_8c.html" target="_top" xlink:title=" ">
<polygon fill="white" stroke="#666666" points="1319.2,-85 1255.2,-85 1255.2,-66 1319.2,-66 1319.2,-85"/>
<text text-anchor="middle" x="1287.2" y="-73" font-family="Helvetica,sans-Serif" font-size="10.00">syscalls.c</text>
</a>
</g>
</g>
<!-- Node17&#45;&gt;Node23 -->
<g id="edge29_Node000017_Node000023" class="edge">
<title>Node17&#45;&gt;Node23</title>
<g id="a_edge29_Node000017_Node000023"><a xlink:title=" ">
<path fill="none" stroke="#63b8ff" d="M987.69,-121.02C1103.47,-101.63 1134.82,-104.27 1246.2,-85 1249.07,-84.5 1252.04,-83.96 1255.01,-83.38"/>
<polygon fill="#63b8ff" stroke="#63b8ff" points="987,-117.59 977.73,-122.71 988.17,-124.49 987,-117.59"/>
</a>
</g>
</g>
<!-- Node21&#45;&gt;Node6 -->
<g id="edge23_Node000021_Node000006" class="edge">
<title>Node21&#45;&gt;Node6</title>
<g id="a_edge23_Node000021_Node000006"><a xlink:title=" ">
<path fill="none" stroke="#63b8ff" d="M821.98,-63.54C776.36,-52.23 706.18,-34.83 664.56,-24.52"/>
<polygon fill="#63b8ff" stroke="#63b8ff" points="821.34,-66.98 831.89,-65.99 823.02,-60.19 821.34,-66.98"/>
</a>
</g>
</g>
<!-- Node21&#45;&gt;Node7 -->
<g id="edge24_Node000021_Node000007" class="edge">
<title>Node21&#45;&gt;Node7</title>
<g id="a_edge24_Node000021_Node000007"><a xlink:title=" ">
<path fill="none" stroke="#63b8ff" d="M805.5,-65.96C638.04,-45.92 453.18,-28.93 362.01,-20.9"/>
<polygon fill="#63b8ff" stroke="#63b8ff" points="805.14,-69.45 815.48,-67.16 805.97,-62.5 805.14,-69.45"/>
</a>
</g>
</g>
<!-- Node21&#45;&gt;Node9 -->
<g id="edge25_Node000021_Node000009" class="edge">
<title>Node21&#45;&gt;Node9</title>
<g id="a_edge25_Node000021_Node000009"><a xlink:title=" ">
<path fill="none" stroke="#63b8ff" d="M866.2,-55.66C866.2,-45.24 866.2,-32.8 866.2,-24.67"/>
<polygon fill="#63b8ff" stroke="#63b8ff" points="862.7,-55.87 866.2,-65.87 869.7,-55.87 862.7,-55.87"/>
</a>
</g>
</g>
<!-- Node21&#45;&gt;Node20 -->
<g id="edge22_Node000021_Node000020" class="edge">
<title>Node21&#45;&gt;Node20</title>
<g id="a_edge22_Node000021_Node000020"><a xlink:title=" ">
<path fill="none" stroke="#63b8ff" d="M900.57,-62.67C935,-50.82 986.88,-32.97 1015.47,-23.14"/>
<polygon fill="#63b8ff" stroke="#63b8ff" points="899.24,-59.43 890.92,-65.99 901.52,-66.05 899.24,-59.43"/>
</a>
</g>
</g>
</g>
</svg>

<g id="navigator" transform="translate(0 0)" fill="#404254">
  <rect fill="#f2f5e9" fill-opacity="0.5" stroke="#606060" stroke-width=".5" x="0" y="0" width="60" height="60"/>
  <use id="zoomplus" xlink:href="#zoomPlus" x="17" y="9" onmousedown="handleZoom(evt,'in')"/>
  <use id="zoomminus" xlink:href="#zoomMin" x="42" y="9" onmousedown="handleZoom(evt,'out')"/>
  <use id="reset" xlink:href="#resetDef" x="30" y="36" onmousedown="handleReset()"/>
   <use id="arrowup" xlink:href="#arrowUp" x="0" y="0" onmousedown="handlePan(0,-1)"/>
  <use id="arrowright" xlink:href="#arrowRight" x="0" y="0" onmousedown="handlePan(1,0)"/>
  <use id="arrowdown" xlink:href="#arrowDown" x="0" y="0" onmousedown="handlePan(0,1)"/>
  <use id="arrowleft" xlink:href="#arrowLeft" x="0" y="0" onmousedown="handlePan(-1,0)"/>
</g>
<svg viewBox="0 0 15 15" width="100%" height="30px" preserveAspectRatio="xMaxYMin meet">
 <g id="arrow_out" transform="scale(0.3 0.3)">
  <a xlink:href="def__attributes_8h__dep__incl_org.svg" target="_base">
   <rect id="button" ry="5" rx="5" y="6" x="6" height="38" width="38"
        fill="#f2f5e9" fill-opacity="0.5" stroke="#606060" stroke-width="1.0"/>
   <path id="arrow"
     d="M 11.500037,31.436501 C 11.940474,20.09759 22.043105,11.32322 32.158766,21.979434 L 37.068811,17.246167 C 37.068811,17.246167 37.088388,32 37.088388,32 L 22.160133,31.978069 C 22.160133,31.978069 26.997745,27.140456 26.997745,27.140456 C 18.528582,18.264221 13.291696,25.230495 11.500037,31.436501 z"
     style="fill:#404040;"/>
  </a>
 </g>
</svg>

<style type='text/css'>
<![CDATA[
[data-mouse-over-selected='false'] { opacity: 0.7; }
[data-mouse-over-selected='true']  { opacity: 1.0; }
]]>
</style>
<script type="application/ecmascript"><![CDATA[
document.addEventListener('DOMContentLoaded', (event) => {
  highlightEdges();
  highlightAdjacentNodes();
});
]]></script>
</svg>
