<?xml version="1.0" encoding="UTF-8" standalone="no"?>
<!DOCTYPE svg PUBLIC "-//W3C//DTD SVG 1.1//EN"
 "http://www.w3.org/Graphics/SVG/1.1/DTD/svg11.dtd">
<!-- Generated by graphviz version 2.43.0 (0)
 -->
<!-- Title: drv_handle.h Pages: 1 -->
<svg width="2144pt" height="192pt"
 viewBox="0.00 0.00 2143.50 192.00" xmlns="http://www.w3.org/2000/svg" xmlns:xlink="http://www.w3.org/1999/xlink">
<g id="graph0" class="graph" transform="scale(1 1) rotate(0) translate(4 188)">
<title>drv_handle.h</title>
<!-- Node1 -->
<g id="Node000001" class="node">
<title>Node1</title>
<g id="a_Node000001"><a xlink:title=" ">
<polygon fill="#999999" stroke="#666666" points="1169.5,-184 1089.5,-184 1089.5,-165 1169.5,-165 1169.5,-184"/>
<text text-anchor="middle" x="1129.5" y="-172" font-family="Helvetica,sans-Serif" font-size="10.00">drv_handle.h</text>
</a>
</g>
</g>
<!-- Node2 -->
<g id="Node000002" class="node">
<title>Node2</title>
<g id="a_Node000002"><a xlink:href="drv__cpu_8c.html" target="_top" xlink:title=" ">
<polygon fill="white" stroke="#666666" points="63,-129 0,-129 0,-110 63,-110 63,-129"/>
<text text-anchor="middle" x="31.5" y="-117" font-family="Helvetica,sans-Serif" font-size="10.00">drv_cpu.c</text>
</a>
</g>
</g>
<!-- Node1&#45;&gt;Node2 -->
<g id="edge1_Node000001_Node000002" class="edge">
<title>Node1&#45;&gt;Node2</title>
<g id="a_edge1_Node000001_Node000002"><a xlink:title=" ">
<path fill="none" stroke="#63b8ff" d="M1079.11,-172.46C896.67,-168.54 270.97,-153.59 72.5,-129 69.47,-128.62 66.33,-128.14 63.2,-127.6"/>
<polygon fill="#63b8ff" stroke="#63b8ff" points="1079.15,-175.97 1089.23,-172.68 1079.3,-168.97 1079.15,-175.97"/>
</a>
</g>
</g>
<!-- Node3 -->
<g id="Node000003" class="node">
<title>Node3</title>
<g id="a_Node000003"><a xlink:href="drv__cpu_8h.html" target="_top" xlink:title=" ">
<polygon fill="white" stroke="#666666" points="145.5,-129 81.5,-129 81.5,-110 145.5,-110 145.5,-129"/>
<text text-anchor="middle" x="113.5" y="-117" font-family="Helvetica,sans-Serif" font-size="10.00">drv_cpu.h</text>
</a>
</g>
</g>
<!-- Node1&#45;&gt;Node3 -->
<g id="edge2_Node000001_Node000003" class="edge">
<title>Node1&#45;&gt;Node3</title>
<g id="a_edge2_Node000001_Node000003"><a xlink:title=" ">
<path fill="none" stroke="#63b8ff" d="M1078.85,-173.61C934.63,-173.41 509.57,-169.18 159.5,-129 154.98,-128.48 150.24,-127.78 145.59,-127.01"/>
<polygon fill="#63b8ff" stroke="#63b8ff" points="1079.15,-177.11 1089.15,-173.62 1079.15,-170.11 1079.15,-177.11"/>
</a>
</g>
</g>
<!-- Node5 -->
<g id="Node000005" class="node">
<title>Node5</title>
<g id="a_Node000005"><a xlink:href="drv__gpio_8c.html" target="_top" xlink:title=" ">
<polygon fill="white" stroke="#666666" points="666,-129 599,-129 599,-110 666,-110 666,-129"/>
<text text-anchor="middle" x="632.5" y="-117" font-family="Helvetica,sans-Serif" font-size="10.00">drv_gpio.c</text>
</a>
</g>
</g>
<!-- Node1&#45;&gt;Node5 -->
<g id="edge4_Node000001_Node000005" class="edge">
<title>Node1&#45;&gt;Node5</title>
<g id="a_edge4_Node000001_Node000005"><a xlink:title=" ">
<path fill="none" stroke="#63b8ff" d="M1079.43,-170.28C995.42,-164.51 820.87,-150.91 674.5,-129 671.85,-128.6 669.12,-128.15 666.37,-127.66"/>
<polygon fill="#63b8ff" stroke="#63b8ff" points="1079.25,-173.78 1089.47,-170.97 1079.73,-166.8 1079.25,-173.78"/>
</a>
</g>
</g>
<!-- Node6 -->
<g id="Node000006" class="node">
<title>Node6</title>
<g id="a_Node000006"><a xlink:href="drv__iic_8c.html" target="_top" xlink:title=" ">
<polygon fill="white" stroke="#666666" points="741,-129 684,-129 684,-110 741,-110 741,-129"/>
<text text-anchor="middle" x="712.5" y="-117" font-family="Helvetica,sans-Serif" font-size="10.00">drv_iic.c</text>
</a>
</g>
</g>
<!-- Node1&#45;&gt;Node6 -->
<g id="edge5_Node000001_Node000006" class="edge">
<title>Node1&#45;&gt;Node6</title>
<g id="a_edge5_Node000001_Node000006"><a xlink:title=" ">
<path fill="none" stroke="#63b8ff" d="M1079.22,-169.26C1006.41,-162.75 867.53,-148.91 750.5,-129 747.43,-128.48 744.24,-127.87 741.07,-127.22"/>
<polygon fill="#63b8ff" stroke="#63b8ff" points="1079.2,-172.77 1089.47,-170.17 1079.82,-165.8 1079.2,-172.77"/>
</a>
</g>
</g>
<!-- Node7 -->
<g id="Node000007" class="node">
<title>Node7</title>
<g id="a_Node000007"><a xlink:href="drv__spi_8c.html" target="_top" xlink:title=" ">
<polygon fill="white" stroke="#666666" points="819.5,-129 759.5,-129 759.5,-110 819.5,-110 819.5,-129"/>
<text text-anchor="middle" x="789.5" y="-117" font-family="Helvetica,sans-Serif" font-size="10.00">drv_spi.c</text>
</a>
</g>
</g>
<!-- Node1&#45;&gt;Node7 -->
<g id="edge6_Node000001_Node000007" class="edge">
<title>Node1&#45;&gt;Node7</title>
<g id="a_edge6_Node000001_Node000007"><a xlink:title=" ">
<path fill="none" stroke="#63b8ff" d="M1079.49,-167.16C1019.63,-159.33 916.43,-145.06 828.5,-129 825.64,-128.48 822.66,-127.9 819.69,-127.29"/>
<polygon fill="#63b8ff" stroke="#63b8ff" points="1079.07,-170.64 1089.43,-168.46 1079.97,-163.7 1079.07,-170.64"/>
</a>
</g>
</g>
<!-- Node8 -->
<g id="Node000008" class="node">
<title>Node8</title>
<g id="a_Node000008"><a xlink:href="drv__time_8c.html" target="_top" xlink:title=" ">
<polygon fill="white" stroke="#666666" points="566.5,-74 498.5,-74 498.5,-55 566.5,-55 566.5,-74"/>
<text text-anchor="middle" x="532.5" y="-62" font-family="Helvetica,sans-Serif" font-size="10.00">drv_time.c</text>
</a>
</g>
</g>
<!-- Node1&#45;&gt;Node8 -->
<g id="edge7_Node000001_Node000008" class="edge">
<title>Node1&#45;&gt;Node8</title>
<g id="a_edge7_Node000001_Node000008"><a xlink:title=" ">
<path fill="none" stroke="#63b8ff" d="M1078.9,-172.63C946.61,-169.94 597.79,-159.96 556.5,-129 538.96,-115.85 534.24,-88.29 532.97,-74.2"/>
<polygon fill="#63b8ff" stroke="#63b8ff" points="1079.1,-176.14 1089.16,-172.84 1079.23,-169.14 1079.1,-176.14"/>
</a>
</g>
</g>
<!-- Node9 -->
<g id="Node000009" class="node">
<title>Node9</title>
<g id="a_Node000009"><a xlink:href="drv__time_8h.html" target="_top" xlink:title=" ">
<polygon fill="white" stroke="#666666" points="451,-129 382,-129 382,-110 451,-110 451,-129"/>
<text text-anchor="middle" x="416.5" y="-117" font-family="Helvetica,sans-Serif" font-size="10.00">drv_time.h</text>
</a>
</g>
</g>
<!-- Node1&#45;&gt;Node9 -->
<g id="edge8_Node000001_Node000009" class="edge">
<title>Node1&#45;&gt;Node9</title>
<g id="a_edge8_Node000001_Node000009"><a xlink:title=" ">
<path fill="none" stroke="#63b8ff" d="M1079.21,-170.02C974.73,-162.74 726.6,-145.25 518.5,-129 496.18,-127.26 471.12,-125.17 451.43,-123.5"/>
<polygon fill="#63b8ff" stroke="#63b8ff" points="1079.24,-173.53 1089.46,-170.73 1079.72,-166.54 1079.24,-173.53"/>
</a>
</g>
</g>
<!-- Node12 -->
<g id="Node000012" class="node">
<title>Node12</title>
<g id="a_Node000012"><a xlink:href="os__shell__management_8c.html" target="_top" xlink:title=" ">
<polygon fill="white" stroke="#666666" points="283,-19 148,-19 148,0 283,0 283,-19"/>
<text text-anchor="middle" x="215.5" y="-7" font-family="Helvetica,sans-Serif" font-size="10.00">os_shell_management.c</text>
</a>
</g>
</g>
<!-- Node1&#45;&gt;Node12 -->
<g id="edge45_Node000001_Node000012" class="edge">
<title>Node1&#45;&gt;Node12</title>
<g id="a_edge45_Node000001_Node000012"><a xlink:title=" ">
<path fill="none" stroke="#63b8ff" d="M1079.03,-172.37C932.4,-168.81 508.3,-156.36 372.5,-129 300.43,-114.48 259.44,-133.67 216.5,-74 204.78,-57.71 209.22,-32.49 212.76,-19.27"/>
<polygon fill="#63b8ff" stroke="#63b8ff" points="1079.02,-175.87 1089.1,-172.62 1079.18,-168.88 1079.02,-175.87"/>
</a>
</g>
</g>
<!-- Node14 -->
<g id="Node000014" class="node">
<title>Node14</title>
<g id="a_Node000014"><a xlink:href="syscalls_8c.html" target="_top" xlink:title=" ">
<polygon fill="white" stroke="#666666" points="561.5,-19 497.5,-19 497.5,0 561.5,0 561.5,-19"/>
<text text-anchor="middle" x="529.5" y="-7" font-family="Helvetica,sans-Serif" font-size="10.00">syscalls.c</text>
</a>
</g>
</g>
<!-- Node1&#45;&gt;Node14 -->
<g id="edge50_Node000001_Node000014" class="edge">
<title>Node1&#45;&gt;Node14</title>
<g id="a_edge50_Node000001_Node000014"><a xlink:title=" ">
<path fill="none" stroke="#63b8ff" d="M1078.89,-172.76C951.55,-170.43 625.41,-161.33 589.5,-129 564.62,-106.6 591.38,-84.46 575.5,-55 567.48,-40.13 552.77,-27.23 542.14,-19.2"/>
<polygon fill="#63b8ff" stroke="#63b8ff" points="1079.09,-176.27 1089.15,-172.94 1079.21,-169.27 1079.09,-176.27"/>
</a>
</g>
</g>
<!-- Node15 -->
<g id="Node000015" class="node">
<title>Node15</title>
<g id="a_Node000015"><a xlink:href="drv__uart_8c.html" target="_top" xlink:title=" ">
<polygon fill="white" stroke="#666666" points="903,-129 838,-129 838,-110 903,-110 903,-129"/>
<text text-anchor="middle" x="870.5" y="-117" font-family="Helvetica,sans-Serif" font-size="10.00">drv_uart.c</text>
</a>
</g>
</g>
<!-- Node1&#45;&gt;Node15 -->
<g id="edge17_Node000001_Node000015" class="edge">
<title>Node1&#45;&gt;Node15</title>
<g id="a_edge17_Node000001_Node000015"><a xlink:title=" ">
<path fill="none" stroke="#63b8ff" d="M1079.32,-163.23C1027.4,-152.61 947.8,-136.32 903.38,-127.23"/>
<polygon fill="#63b8ff" stroke="#63b8ff" points="1078.82,-166.7 1089.32,-165.28 1080.22,-159.84 1078.82,-166.7"/>
</a>
</g>
</g>
<!-- Node16 -->
<g id="Node000016" class="node">
<title>Node16</title>
<g id="a_Node000016"><a xlink:href="gpio__app_8c.html" target="_top" xlink:title=" ">
<polygon fill="white" stroke="#666666" points="989,-19 920,-19 920,0 989,0 989,-19"/>
<text text-anchor="middle" x="954.5" y="-7" font-family="Helvetica,sans-Serif" font-size="10.00">gpio_app.c</text>
</a>
</g>
</g>
<!-- Node1&#45;&gt;Node16 -->
<g id="edge18_Node000001_Node000016" class="edge">
<title>Node1&#45;&gt;Node16</title>
<g id="a_edge18_Node000001_Node000016"><a xlink:title=" ">
<path fill="none" stroke="#63b8ff" d="M1079.14,-164.41C1042.29,-156.97 991.44,-145.05 948.5,-129 931.18,-122.53 928.12,-118.1 911.5,-110 877.18,-93.28 854.08,-106.16 833.5,-74 811,-38.83 876.63,-22 919.84,-14.92"/>
<polygon fill="#63b8ff" stroke="#63b8ff" points="1078.66,-167.88 1089.15,-166.39 1080.02,-161.01 1078.66,-167.88"/>
</a>
</g>
</g>
<!-- Node17 -->
<g id="Node000017" class="node">
<title>Node17</title>
<g id="a_Node000017"><a xlink:href="gpio__mgmt_8c.html" target="_top" xlink:title=" ">
<polygon fill="white" stroke="#666666" points="922.5,-74 842.5,-74 842.5,-55 922.5,-55 922.5,-74"/>
<text text-anchor="middle" x="882.5" y="-62" font-family="Helvetica,sans-Serif" font-size="10.00">gpio_mgmt.c</text>
</a>
</g>
</g>
<!-- Node1&#45;&gt;Node17 -->
<g id="edge19_Node000001_Node000017" class="edge">
<title>Node1&#45;&gt;Node17</title>
<g id="a_edge19_Node000001_Node000017"><a xlink:title=" ">
<path fill="none" stroke="#63b8ff" d="M1084.79,-162.28C1056.56,-154.5 1019.67,-143.02 988.5,-129 952.7,-112.89 913.92,-87.37 894.71,-74.12"/>
<polygon fill="#63b8ff" stroke="#63b8ff" points="1084.2,-165.75 1094.77,-164.98 1086.03,-158.99 1084.2,-165.75"/>
</a>
</g>
</g>
<!-- Node18 -->
<g id="Node000018" class="node">
<title>Node18</title>
<g id="a_Node000018"><a xlink:href="gpio__mgmt_8h.html" target="_top" xlink:title=" ">
<polygon fill="white" stroke="#666666" points="1239,-129 1158,-129 1158,-110 1239,-110 1239,-129"/>
<text text-anchor="middle" x="1198.5" y="-117" font-family="Helvetica,sans-Serif" font-size="10.00">gpio_mgmt.h</text>
</a>
</g>
</g>
<!-- Node1&#45;&gt;Node18 -->
<g id="edge20_Node000001_Node000018" class="edge">
<title>Node1&#45;&gt;Node18</title>
<g id="a_edge20_Node000001_Node000018"><a xlink:title=" ">
<path fill="none" stroke="#63b8ff" d="M1148.54,-158.88C1160.96,-149.34 1176.74,-137.21 1187.21,-129.17"/>
<polygon fill="#63b8ff" stroke="#63b8ff" points="1146.38,-156.12 1140.59,-164.98 1150.65,-161.67 1146.38,-156.12"/>
</a>
</g>
</g>
<!-- Node21 -->
<g id="Node000021" class="node">
<title>Node21</title>
<g id="a_Node000021"><a xlink:href="hal__gpio__stm32_8c.html" target="_top" xlink:title=" ">
<polygon fill="white" stroke="#666666" points="1042.5,-74 940.5,-74 940.5,-55 1042.5,-55 1042.5,-74"/>
<text text-anchor="middle" x="991.5" y="-62" font-family="Helvetica,sans-Serif" font-size="10.00">hal_gpio_stm32.c</text>
</a>
</g>
</g>
<!-- Node1&#45;&gt;Node21 -->
<g id="edge25_Node000001_Node000021" class="edge">
<title>Node1&#45;&gt;Node21</title>
<g id="a_edge25_Node000001_Node000021"><a xlink:title=" ">
<path fill="none" stroke="#63b8ff" d="M1127.98,-154.96C1125.92,-140.98 1121.03,-122.19 1109.5,-110 1091.82,-91.31 1065.51,-80.4 1042.22,-74.07"/>
<polygon fill="#63b8ff" stroke="#63b8ff" points="1124.51,-155.38 1129.11,-164.92 1131.47,-154.59 1124.51,-155.38"/>
</a>
</g>
</g>
<!-- Node22 -->
<g id="Node000022" class="node">
<title>Node22</title>
<g id="a_Node000022"><a xlink:href="hal__gpio__stm32_8h.html" target="_top" xlink:title=" ">
<polygon fill="white" stroke="#666666" points="1101,-129 998,-129 998,-110 1101,-110 1101,-129"/>
<text text-anchor="middle" x="1049.5" y="-117" font-family="Helvetica,sans-Serif" font-size="10.00">hal_gpio_stm32.h</text>
</a>
</g>
</g>
<!-- Node1&#45;&gt;Node22 -->
<g id="edge26_Node000001_Node000022" class="edge">
<title>Node1&#45;&gt;Node22</title>
<g id="a_edge26_Node000001_Node000022"><a xlink:title=" ">
<path fill="none" stroke="#63b8ff" d="M1108.25,-159.42C1093.74,-149.81 1074.96,-137.37 1062.59,-129.17"/>
<polygon fill="#63b8ff" stroke="#63b8ff" points="1106.38,-162.38 1116.65,-164.98 1110.24,-156.54 1106.38,-162.38"/>
</a>
</g>
</g>
<!-- Node23 -->
<g id="Node000023" class="node">
<title>Node23</title>
<g id="a_Node000023"><a xlink:href="hal__iic__stm32_8c.html" target="_top" xlink:title=" ">
<polygon fill="white" stroke="#666666" points="1683.5,-74 1591.5,-74 1591.5,-55 1683.5,-55 1683.5,-74"/>
<text text-anchor="middle" x="1637.5" y="-62" font-family="Helvetica,sans-Serif" font-size="10.00">hal_iic_stm32.c</text>
</a>
</g>
</g>
<!-- Node1&#45;&gt;Node23 -->
<g id="edge29_Node000001_Node000023" class="edge">
<title>Node1&#45;&gt;Node23</title>
<g id="a_edge29_Node000001_Node000023"><a xlink:title=" ">
<path fill="none" stroke="#63b8ff" d="M1179.84,-174.16C1256.24,-173.77 1405.16,-167.5 1524.5,-129 1564.55,-116.08 1606.38,-88.15 1626.03,-74.04"/>
<polygon fill="#63b8ff" stroke="#63b8ff" points="1179.55,-170.66 1169.56,-174.18 1179.56,-177.66 1179.55,-170.66"/>
</a>
</g>
</g>
<!-- Node24 -->
<g id="Node000024" class="node">
<title>Node24</title>
<g id="a_Node000024"><a xlink:href="hal__iic__stm32_8h.html" target="_top" xlink:title=" ">
<polygon fill="white" stroke="#666666" points="1683,-129 1590,-129 1590,-110 1683,-110 1683,-129"/>
<text text-anchor="middle" x="1636.5" y="-117" font-family="Helvetica,sans-Serif" font-size="10.00">hal_iic_stm32.h</text>
</a>
</g>
</g>
<!-- Node1&#45;&gt;Node24 -->
<g id="edge30_Node000001_Node000024" class="edge">
<title>Node1&#45;&gt;Node24</title>
<g id="a_edge30_Node000001_Node000024"><a xlink:title=" ">
<path fill="none" stroke="#63b8ff" d="M1179.65,-169.14C1262.27,-161.81 1432.12,-146.14 1575.5,-129 1580.17,-128.44 1585.04,-127.82 1589.9,-127.18"/>
<polygon fill="#63b8ff" stroke="#63b8ff" points="1179.19,-165.67 1169.54,-170.03 1179.81,-172.64 1179.19,-165.67"/>
</a>
</g>
</g>
<!-- Node25 -->
<g id="Node000025" class="node">
<title>Node25</title>
<g id="a_Node000025"><a xlink:href="iic__mgmt_8c.html" target="_top" xlink:title=" ">
<polygon fill="white" stroke="#666666" points="1773,-74 1702,-74 1702,-55 1773,-55 1773,-74"/>
<text text-anchor="middle" x="1737.5" y="-62" font-family="Helvetica,sans-Serif" font-size="10.00">iic_mgmt.c</text>
</a>
</g>
</g>
<!-- Node1&#45;&gt;Node25 -->
<g id="edge41_Node000001_Node000025" class="edge">
<title>Node1&#45;&gt;Node25</title>
<g id="a_edge41_Node000001_Node000025"><a xlink:title=" ">
<path fill="none" stroke="#63b8ff" d="M1179.64,-171.92C1309.08,-167.51 1647.46,-153.72 1691.5,-129 1713.58,-116.61 1727.86,-88.7 1734.02,-74.37"/>
<polygon fill="#63b8ff" stroke="#63b8ff" points="1179.47,-168.42 1169.59,-172.26 1179.7,-175.42 1179.47,-168.42"/>
</a>
</g>
</g>
<!-- Node26 -->
<g id="Node000026" class="node">
<title>Node26</title>
<g id="a_Node000026"><a xlink:href="hal__spi__stm32_8c.html" target="_top" xlink:title=" ">
<polygon fill="white" stroke="#666666" points="1963,-74 1868,-74 1868,-55 1963,-55 1963,-74"/>
<text text-anchor="middle" x="1915.5" y="-62" font-family="Helvetica,sans-Serif" font-size="10.00">hal_spi_stm32.c</text>
</a>
</g>
</g>
<!-- Node1&#45;&gt;Node26 -->
<g id="edge33_Node000001_Node000026" class="edge">
<title>Node1&#45;&gt;Node26</title>
<g id="a_edge33_Node000001_Node000026"><a xlink:title=" ">
<path fill="none" stroke="#63b8ff" d="M1180.05,-173.59C1318.43,-173.31 1700.99,-168.85 1819.5,-129 1837.78,-122.85 1883.06,-89.88 1904.24,-74.03"/>
<polygon fill="#63b8ff" stroke="#63b8ff" points="1179.74,-170.09 1169.74,-173.61 1179.75,-177.09 1179.74,-170.09"/>
</a>
</g>
</g>
<!-- Node27 -->
<g id="Node000027" class="node">
<title>Node27</title>
<g id="a_Node000027"><a xlink:href="hal__spi__stm32_8h.html" target="_top" xlink:title=" ">
<polygon fill="white" stroke="#666666" points="1963.5,-129 1867.5,-129 1867.5,-110 1963.5,-110 1963.5,-129"/>
<text text-anchor="middle" x="1915.5" y="-117" font-family="Helvetica,sans-Serif" font-size="10.00">hal_spi_stm32.h</text>
</a>
</g>
</g>
<!-- Node1&#45;&gt;Node27 -->
<g id="edge34_Node000001_Node000027" class="edge">
<title>Node1&#45;&gt;Node27</title>
<g id="a_edge34_Node000001_Node000027"><a xlink:title=" ">
<path fill="none" stroke="#63b8ff" d="M1179.77,-171.71C1297.67,-167.22 1601.08,-154.02 1853.5,-129 1858.04,-128.55 1862.76,-128.02 1867.48,-127.44"/>
<polygon fill="#63b8ff" stroke="#63b8ff" points="1179.47,-168.22 1169.61,-172.09 1179.74,-175.21 1179.47,-168.22"/>
</a>
</g>
</g>
<!-- Node28 -->
<g id="Node000028" class="node">
<title>Node28</title>
<g id="a_Node000028"><a xlink:href="spi__mgmt_8c.html" target="_top" xlink:title=" ">
<polygon fill="white" stroke="#666666" points="2055.5,-74 1981.5,-74 1981.5,-55 2055.5,-55 2055.5,-74"/>
<text text-anchor="middle" x="2018.5" y="-62" font-family="Helvetica,sans-Serif" font-size="10.00">spi_mgmt.c</text>
</a>
</g>
</g>
<!-- Node1&#45;&gt;Node28 -->
<g id="edge46_Node000001_Node000028" class="edge">
<title>Node1&#45;&gt;Node28</title>
<g id="a_edge46_Node000001_Node000028"><a xlink:title=" ">
<path fill="none" stroke="#63b8ff" d="M1179.77,-173.35C1350.74,-172.5 1902.99,-166.82 1972.5,-129 1994.74,-116.9 2008.95,-88.86 2015.05,-74.43"/>
<polygon fill="#63b8ff" stroke="#63b8ff" points="1179.53,-169.85 1169.54,-173.4 1179.56,-176.85 1179.53,-169.85"/>
</a>
</g>
</g>
<!-- Node29 -->
<g id="Node000029" class="node">
<title>Node29</title>
<g id="a_Node000029"><a xlink:href="hal__uart__stm32_8c.html" target="_top" xlink:title=" ">
<polygon fill="white" stroke="#666666" points="1573,-74 1472,-74 1472,-55 1573,-55 1573,-74"/>
<text text-anchor="middle" x="1522.5" y="-62" font-family="Helvetica,sans-Serif" font-size="10.00">hal_uart_stm32.c</text>
</a>
</g>
</g>
<!-- Node1&#45;&gt;Node29 -->
<g id="edge37_Node000001_Node000029" class="edge">
<title>Node1&#45;&gt;Node29</title>
<g id="a_edge37_Node000001_Node000029"><a xlink:title=" ">
<path fill="none" stroke="#63b8ff" d="M1179.81,-174.12C1270.32,-174.2 1455.61,-169.27 1503.5,-129 1519.88,-115.22 1522.49,-87.94 1522.69,-74.06"/>
<polygon fill="#63b8ff" stroke="#63b8ff" points="1179.8,-170.62 1169.79,-174.09 1179.78,-177.62 1179.8,-170.62"/>
</a>
</g>
</g>
<!-- Node30 -->
<g id="Node000030" class="node">
<title>Node30</title>
<g id="a_Node000030"><a xlink:href="hal__uart__stm32_8h.html" target="_top" xlink:title=" ">
<polygon fill="white" stroke="#666666" points="1495,-129 1394,-129 1394,-110 1495,-110 1495,-129"/>
<text text-anchor="middle" x="1444.5" y="-117" font-family="Helvetica,sans-Serif" font-size="10.00">hal_uart_stm32.h</text>
</a>
</g>
</g>
<!-- Node1&#45;&gt;Node30 -->
<g id="edge38_Node000001_Node000030" class="edge">
<title>Node1&#45;&gt;Node30</title>
<g id="a_edge38_Node000001_Node000030"><a xlink:title=" ">
<path fill="none" stroke="#63b8ff" d="M1179.86,-165.03C1238.57,-155.15 1335.04,-138.92 1393.86,-129.02"/>
<polygon fill="#63b8ff" stroke="#63b8ff" points="1179,-161.62 1169.71,-166.73 1180.16,-168.53 1179,-161.62"/>
</a>
</g>
</g>
<!-- Node31 -->
<g id="Node000031" class="node">
<title>Node31</title>
<g id="a_Node000031"><a xlink:href="uart__mgmt_8c.html" target="_top" xlink:title=" ">
<polygon fill="white" stroke="#666666" points="1454,-74 1375,-74 1375,-55 1454,-55 1454,-74"/>
<text text-anchor="middle" x="1414.5" y="-62" font-family="Helvetica,sans-Serif" font-size="10.00">uart_mgmt.c</text>
</a>
</g>
</g>
<!-- Node1&#45;&gt;Node31 -->
<g id="edge51_Node000001_Node000031" class="edge">
<title>Node1&#45;&gt;Node31</title>
<g id="a_edge51_Node000001_Node000031"><a xlink:title=" ">
<path fill="none" stroke="#63b8ff" d="M1179.63,-170.94C1225.34,-166.87 1293.61,-156.32 1346.5,-129 1373.19,-115.21 1396.99,-87.94 1408.02,-74.05"/>
<polygon fill="#63b8ff" stroke="#63b8ff" points="1179.34,-167.45 1169.66,-171.76 1179.92,-174.43 1179.34,-167.45"/>
</a>
</g>
</g>
<!-- Node32 -->
<g id="Node000032" class="node">
<title>Node32</title>
<g id="a_Node000032"><a xlink:href="iic__mgmt_8h.html" target="_top" xlink:title=" ">
<polygon fill="white" stroke="#666666" points="1811,-129 1740,-129 1740,-110 1811,-110 1811,-129"/>
<text text-anchor="middle" x="1775.5" y="-117" font-family="Helvetica,sans-Serif" font-size="10.00">iic_mgmt.h</text>
</a>
</g>
</g>
<!-- Node1&#45;&gt;Node32 -->
<g id="edge42_Node000001_Node000032" class="edge">
<title>Node1&#45;&gt;Node32</title>
<g id="a_edge42_Node000001_Node000032"><a xlink:title=" ">
<path fill="none" stroke="#63b8ff" d="M1179.84,-171.34C1282.66,-166.57 1524.11,-153.58 1725.5,-129 1730.13,-128.43 1734.99,-127.74 1739.78,-126.99"/>
<polygon fill="#63b8ff" stroke="#63b8ff" points="1179.57,-167.85 1169.74,-171.8 1179.89,-174.84 1179.57,-167.85"/>
</a>
</g>
</g>
<!-- Node34 -->
<g id="Node000034" class="node">
<title>Node34</title>
<g id="a_Node000034"><a xlink:href="spi__mgmt_8h.html" target="_top" xlink:title=" ">
<polygon fill="white" stroke="#666666" points="2093.5,-129 2019.5,-129 2019.5,-110 2093.5,-110 2093.5,-129"/>
<text text-anchor="middle" x="2056.5" y="-117" font-family="Helvetica,sans-Serif" font-size="10.00">spi_mgmt.h</text>
</a>
</g>
</g>
<!-- Node1&#45;&gt;Node34 -->
<g id="edge47_Node000001_Node000034" class="edge">
<title>Node1&#45;&gt;Node34</title>
<g id="a_edge47_Node000001_Node000034"><a xlink:title=" ">
<path fill="none" stroke="#63b8ff" d="M1179.8,-172.96C1314.19,-171.07 1692.7,-162.9 2005.5,-129 2009.96,-128.52 2014.63,-127.9 2019.24,-127.21"/>
<polygon fill="#63b8ff" stroke="#63b8ff" points="1179.75,-169.46 1169.79,-173.09 1179.84,-176.46 1179.75,-169.46"/>
</a>
</g>
</g>
<!-- Node36 -->
<g id="Node000036" class="node">
<title>Node36</title>
<g id="a_Node000036"><a xlink:href="uart__mgmt_8h.html" target="_top" xlink:title=" ">
<polygon fill="white" stroke="#666666" points="1337.5,-129 1257.5,-129 1257.5,-110 1337.5,-110 1337.5,-129"/>
<text text-anchor="middle" x="1297.5" y="-117" font-family="Helvetica,sans-Serif" font-size="10.00">uart_mgmt.h</text>
</a>
</g>
</g>
<!-- Node1&#45;&gt;Node36 -->
<g id="edge52_Node000001_Node000036" class="edge">
<title>Node1&#45;&gt;Node36</title>
<g id="a_edge52_Node000001_Node000036"><a xlink:title=" ">
<path fill="none" stroke="#63b8ff" d="M1166.18,-161.93C1197.56,-152.03 1242.01,-138.01 1270.3,-129.08"/>
<polygon fill="#63b8ff" stroke="#63b8ff" points="1164.98,-158.64 1156.49,-164.98 1167.08,-165.31 1164.98,-158.64"/>
</a>
</g>
</g>
<!-- Node4 -->
<g id="Node000004" class="node">
<title>Node4</title>
<g id="a_Node000004"><a xlink:href="main_8c.html" target="_top" xlink:title=" ">
<polygon fill="white" stroke="#666666" points="129.5,-19 79.5,-19 79.5,0 129.5,0 129.5,-19"/>
<text text-anchor="middle" x="104.5" y="-7" font-family="Helvetica,sans-Serif" font-size="10.00">main.c</text>
</a>
</g>
</g>
<!-- Node3&#45;&gt;Node4 -->
<g id="edge3_Node000003_Node000004" class="edge">
<title>Node3&#45;&gt;Node4</title>
<g id="a_edge3_Node000003_Node000004"><a xlink:title=" ">
<path fill="none" stroke="#63b8ff" d="M111.92,-99.48C109.95,-75.84 106.67,-36.5 105.22,-19.16"/>
<polygon fill="#63b8ff" stroke="#63b8ff" points="108.45,-99.99 112.76,-109.66 115.42,-99.41 108.45,-99.99"/>
</a>
</g>
</g>
<!-- Node9&#45;&gt;Node8 -->
<g id="edge9_Node000009_Node000008" class="edge">
<title>Node9&#45;&gt;Node8</title>
<g id="a_edge9_Node000009_Node000008"><a xlink:title=" ">
<path fill="none" stroke="#63b8ff" d="M444.37,-105.77C465.77,-95.99 494.74,-82.75 513.52,-74.17"/>
<polygon fill="#63b8ff" stroke="#63b8ff" points="442.78,-102.65 435.14,-109.98 445.69,-109.01 442.78,-102.65"/>
</a>
</g>
</g>
<!-- Node10 -->
<g id="Node000010" class="node">
<title>Node10</title>
<g id="a_Node000010"><a xlink:href="hal__timebase__stm32_8c.html" target="_top" xlink:title=" ">
<polygon fill="white" stroke="#666666" points="480,-74 353,-74 353,-55 480,-55 480,-74"/>
<text text-anchor="middle" x="416.5" y="-62" font-family="Helvetica,sans-Serif" font-size="10.00">hal_timebase_stm32.c</text>
</a>
</g>
</g>
<!-- Node9&#45;&gt;Node10 -->
<g id="edge10_Node000009_Node000010" class="edge">
<title>Node9&#45;&gt;Node10</title>
<g id="a_edge10_Node000009_Node000010"><a xlink:title=" ">
<path fill="none" stroke="#63b8ff" d="M416.5,-99.66C416.5,-90.93 416.5,-80.99 416.5,-74.09"/>
<polygon fill="#63b8ff" stroke="#63b8ff" points="413,-99.75 416.5,-109.75 420,-99.75 413,-99.75"/>
</a>
</g>
</g>
<!-- Node11 -->
<g id="Node000011" class="node">
<title>Node11</title>
<g id="a_Node000011"><a xlink:href="kernel__syscall_8h.html" target="_top" xlink:title=" ">
<polygon fill="white" stroke="#666666" points="335,-74 240,-74 240,-55 335,-55 335,-74"/>
<text text-anchor="middle" x="287.5" y="-62" font-family="Helvetica,sans-Serif" font-size="10.00">kernel_syscall.h</text>
</a>
</g>
</g>
<!-- Node9&#45;&gt;Node11 -->
<g id="edge11_Node000009_Node000011" class="edge">
<title>Node9&#45;&gt;Node11</title>
<g id="a_edge11_Node000009_Node000011"><a xlink:title=" ">
<path fill="none" stroke="#63b8ff" d="M386.46,-106.16C362.58,-96.35 329.78,-82.87 308.6,-74.17"/>
<polygon fill="#63b8ff" stroke="#63b8ff" points="385.19,-109.42 395.77,-109.98 387.85,-102.95 385.19,-109.42"/>
</a>
</g>
</g>
<!-- Node9&#45;&gt;Node12 -->
<g id="edge16_Node000009_Node000012" class="edge">
<title>Node9&#45;&gt;Node12</title>
<g id="a_edge16_Node000009_Node000012"><a xlink:title=" ">
<path fill="none" stroke="#63b8ff" d="M371.89,-113.24C323.36,-106.61 250.09,-93.65 230.5,-74 215.78,-59.24 214.47,-32.89 214.9,-19.24"/>
<polygon fill="#63b8ff" stroke="#63b8ff" points="371.46,-116.71 381.84,-114.56 372.38,-109.77 371.46,-116.71"/>
</a>
</g>
</g>
<!-- Node11&#45;&gt;Node4 -->
<g id="edge12_Node000011_Node000004" class="edge">
<title>Node11&#45;&gt;Node4</title>
<g id="a_edge12_Node000011_Node000004"><a xlink:title=" ">
<path fill="none" stroke="#63b8ff" d="M248.44,-52.19C212.54,-41.79 160.39,-26.69 129.71,-17.8"/>
<polygon fill="#63b8ff" stroke="#63b8ff" points="247.52,-55.56 258.1,-54.98 249.47,-48.84 247.52,-55.56"/>
</a>
</g>
</g>
<!-- Node11&#45;&gt;Node12 -->
<g id="edge13_Node000011_Node000012" class="edge">
<title>Node11&#45;&gt;Node12</title>
<g id="a_edge13_Node000011_Node000012"><a xlink:title=" ">
<path fill="none" stroke="#63b8ff" d="M267.63,-48.88C254.68,-39.34 238.2,-27.21 227.28,-19.17"/>
<polygon fill="#63b8ff" stroke="#63b8ff" points="265.8,-51.88 275.93,-54.98 269.95,-46.24 265.8,-51.88"/>
</a>
</g>
</g>
<!-- Node13 -->
<g id="Node000013" class="node">
<title>Node13</title>
<g id="a_Node000013"><a xlink:href="shell__task__mgmt_8c.html" target="_top" xlink:title=" ">
<polygon fill="white" stroke="#666666" points="410,-19 301,-19 301,0 410,0 410,-19"/>
<text text-anchor="middle" x="355.5" y="-7" font-family="Helvetica,sans-Serif" font-size="10.00">shell_task_mgmt.c</text>
</a>
</g>
</g>
<!-- Node11&#45;&gt;Node13 -->
<g id="edge14_Node000011_Node000013" class="edge">
<title>Node11&#45;&gt;Node13</title>
<g id="a_edge14_Node000011_Node000013"><a xlink:title=" ">
<path fill="none" stroke="#63b8ff" d="M306.62,-48.6C318.8,-39.11 334.16,-27.13 344.38,-19.17"/>
<polygon fill="#63b8ff" stroke="#63b8ff" points="304.16,-46.08 298.43,-54.98 308.46,-51.6 304.16,-46.08"/>
</a>
</g>
</g>
<!-- Node11&#45;&gt;Node14 -->
<g id="edge15_Node000011_Node000014" class="edge">
<title>Node11&#45;&gt;Node14</title>
<g id="a_edge15_Node000011_Node000014"><a xlink:title=" ">
<path fill="none" stroke="#63b8ff" d="M336.23,-52.83C384.19,-42.32 456.05,-26.59 497.3,-17.55"/>
<polygon fill="#63b8ff" stroke="#63b8ff" points="335.4,-49.43 326.38,-54.98 336.9,-56.26 335.4,-49.43"/>
</a>
</g>
</g>
<!-- Node18&#45;&gt;Node17 -->
<g id="edge23_Node000018_Node000017" class="edge">
<title>Node18&#45;&gt;Node17</title>
<g id="a_edge23_Node000018_Node000017"><a xlink:title=" ">
<path fill="none" stroke="#63b8ff" d="M1147.82,-110.16C1094.1,-101.29 1006.8,-86.81 931.5,-74 928.61,-73.51 925.62,-73 922.61,-72.48"/>
<polygon fill="#63b8ff" stroke="#63b8ff" points="1147.34,-113.62 1157.77,-111.8 1148.48,-106.72 1147.34,-113.62"/>
</a>
</g>
</g>
<!-- Node19 -->
<g id="Node000019" class="node">
<title>Node19</title>
<g id="a_Node000019"><a xlink:href="gpio__app_8h.html" target="_top" xlink:title=" ">
<polygon fill="white" stroke="#666666" points="1130.5,-74 1060.5,-74 1060.5,-55 1130.5,-55 1130.5,-74"/>
<text text-anchor="middle" x="1095.5" y="-62" font-family="Helvetica,sans-Serif" font-size="10.00">gpio_app.h</text>
</a>
</g>
</g>
<!-- Node18&#45;&gt;Node19 -->
<g id="edge21_Node000018_Node000019" class="edge">
<title>Node18&#45;&gt;Node19</title>
<g id="a_edge21_Node000018_Node000019"><a xlink:title=" ">
<path fill="none" stroke="#63b8ff" d="M1172.98,-105.37C1154.06,-95.63 1128.8,-82.64 1112.35,-74.17"/>
<polygon fill="#63b8ff" stroke="#63b8ff" points="1171.46,-108.52 1181.95,-109.98 1174.66,-102.3 1171.46,-108.52"/>
</a>
</g>
</g>
<!-- Node20 -->
<g id="Node000020" class="node">
<title>Node20</title>
<g id="a_Node000020"><a xlink:href="kernel__service__core_8c.html" target="_top" xlink:title=" ">
<polygon fill="white" stroke="#666666" points="1270.5,-74 1148.5,-74 1148.5,-55 1270.5,-55 1270.5,-74"/>
<text text-anchor="middle" x="1209.5" y="-62" font-family="Helvetica,sans-Serif" font-size="10.00">kernel_service_core.c</text>
</a>
</g>
</g>
<!-- Node18&#45;&gt;Node20 -->
<g id="edge24_Node000018_Node000020" class="edge">
<title>Node18&#45;&gt;Node20</title>
<g id="a_edge24_Node000018_Node000020"><a xlink:title=" ">
<path fill="none" stroke="#63b8ff" d="M1202.35,-99.95C1204.18,-91.15 1206.27,-81.06 1207.72,-74.09"/>
<polygon fill="#63b8ff" stroke="#63b8ff" points="1198.92,-99.25 1200.32,-109.75 1205.78,-100.67 1198.92,-99.25"/>
</a>
</g>
</g>
<!-- Node19&#45;&gt;Node16 -->
<g id="edge22_Node000019_Node000016" class="edge">
<title>Node19&#45;&gt;Node16</title>
<g id="a_edge22_Node000019_Node000016"><a xlink:title=" ">
<path fill="none" stroke="#63b8ff" d="M1063.36,-51.42C1037.21,-41.59 1000.91,-27.95 977.57,-19.17"/>
<polygon fill="#63b8ff" stroke="#63b8ff" points="1062.25,-54.74 1072.85,-54.98 1064.72,-48.19 1062.25,-54.74"/>
</a>
</g>
</g>
<!-- Node22&#45;&gt;Node17 -->
<g id="edge27_Node000022_Node000017" class="edge">
<title>Node22&#45;&gt;Node17</title>
<g id="a_edge27_Node000022_Node000017"><a xlink:title=" ">
<path fill="none" stroke="#63b8ff" d="M1013.04,-106.93C981.84,-97.03 937.66,-83.01 909.54,-74.08"/>
<polygon fill="#63b8ff" stroke="#63b8ff" points="1012.08,-110.3 1022.67,-109.98 1014.2,-103.62 1012.08,-110.3"/>
</a>
</g>
</g>
<!-- Node22&#45;&gt;Node21 -->
<g id="edge28_Node000022_Node000021" class="edge">
<title>Node22&#45;&gt;Node21</title>
<g id="a_edge28_Node000022_Node000021"><a xlink:title=" ">
<path fill="none" stroke="#63b8ff" d="M1032.59,-103.04C1022.3,-93.64 1009.53,-81.98 1000.99,-74.17"/>
<polygon fill="#63b8ff" stroke="#63b8ff" points="1030.44,-105.82 1040.18,-109.98 1035.16,-100.66 1030.44,-105.82"/>
</a>
</g>
</g>
<!-- Node24&#45;&gt;Node23 -->
<g id="edge31_Node000024_Node000023" class="edge">
<title>Node24&#45;&gt;Node23</title>
<g id="a_edge31_Node000024_Node000023"><a xlink:title=" ">
<path fill="none" stroke="#63b8ff" d="M1636.86,-99.66C1637.02,-90.93 1637.21,-80.99 1637.34,-74.09"/>
<polygon fill="#63b8ff" stroke="#63b8ff" points="1633.35,-99.68 1636.67,-109.75 1640.35,-99.82 1633.35,-99.68"/>
</a>
</g>
</g>
<!-- Node24&#45;&gt;Node25 -->
<g id="edge32_Node000024_Node000025" class="edge">
<title>Node24&#45;&gt;Node25</title>
<g id="a_edge32_Node000024_Node000025"><a xlink:title=" ">
<path fill="none" stroke="#63b8ff" d="M1661.78,-105.23C1680.3,-95.51 1704.92,-82.6 1720.98,-74.17"/>
<polygon fill="#63b8ff" stroke="#63b8ff" points="1659.96,-102.24 1652.73,-109.98 1663.21,-108.44 1659.96,-102.24"/>
</a>
</g>
</g>
<!-- Node27&#45;&gt;Node26 -->
<g id="edge35_Node000027_Node000026" class="edge">
<title>Node27&#45;&gt;Node26</title>
<g id="a_edge35_Node000027_Node000026"><a xlink:title=" ">
<path fill="none" stroke="#63b8ff" d="M1915.5,-99.66C1915.5,-90.93 1915.5,-80.99 1915.5,-74.09"/>
<polygon fill="#63b8ff" stroke="#63b8ff" points="1912,-99.75 1915.5,-109.75 1919,-99.75 1912,-99.75"/>
</a>
</g>
</g>
<!-- Node27&#45;&gt;Node28 -->
<g id="edge36_Node000027_Node000028" class="edge">
<title>Node27&#45;&gt;Node28</title>
<g id="a_edge36_Node000027_Node000028"><a xlink:title=" ">
<path fill="none" stroke="#63b8ff" d="M1941.02,-105.37C1959.94,-95.63 1985.2,-82.64 2001.65,-74.17"/>
<polygon fill="#63b8ff" stroke="#63b8ff" points="1939.34,-102.3 1932.05,-109.98 1942.54,-108.52 1939.34,-102.3"/>
</a>
</g>
</g>
<!-- Node30&#45;&gt;Node29 -->
<g id="edge39_Node000030_Node000029" class="edge">
<title>Node30&#45;&gt;Node29</title>
<g id="a_edge39_Node000030_Node000029"><a xlink:title=" ">
<path fill="none" stroke="#63b8ff" d="M1465.62,-104.15C1479.71,-94.57 1497.79,-82.29 1509.74,-74.17"/>
<polygon fill="#63b8ff" stroke="#63b8ff" points="1463.34,-101.47 1457.03,-109.98 1467.27,-107.26 1463.34,-101.47"/>
</a>
</g>
</g>
<!-- Node30&#45;&gt;Node31 -->
<g id="edge40_Node000030_Node000031" class="edge">
<title>Node30&#45;&gt;Node31</title>
<g id="a_edge40_Node000030_Node000031"><a xlink:title=" ">
<path fill="none" stroke="#63b8ff" d="M1434.49,-100.82C1429.4,-91.82 1423.44,-81.29 1419.36,-74.09"/>
<polygon fill="#63b8ff" stroke="#63b8ff" points="1431.57,-102.77 1439.55,-109.75 1437.67,-99.32 1431.57,-102.77"/>
</a>
</g>
</g>
<!-- Node32&#45;&gt;Node25 -->
<g id="edge44_Node000032_Node000025" class="edge">
<title>Node32&#45;&gt;Node25</title>
<g id="a_edge44_Node000032_Node000025"><a xlink:title=" ">
<path fill="none" stroke="#63b8ff" d="M1763.23,-101.39C1756.69,-92.27 1748.93,-81.45 1743.66,-74.09"/>
<polygon fill="#63b8ff" stroke="#63b8ff" points="1760.55,-103.66 1769.23,-109.75 1766.24,-99.58 1760.55,-103.66"/>
</a>
</g>
</g>
<!-- Node33 -->
<g id="Node000033" class="node">
<title>Node33</title>
<g id="a_Node000033"><a xlink:href="iic__app_8c.html" target="_top" xlink:title=" ">
<polygon fill="white" stroke="#666666" points="1850,-74 1791,-74 1791,-55 1850,-55 1850,-74"/>
<text text-anchor="middle" x="1820.5" y="-62" font-family="Helvetica,sans-Serif" font-size="10.00">iic_app.c</text>
</a>
</g>
</g>
<!-- Node32&#45;&gt;Node33 -->
<g id="edge43_Node000032_Node000033" class="edge">
<title>Node32&#45;&gt;Node33</title>
<g id="a_edge43_Node000032_Node000033"><a xlink:title=" ">
<path fill="none" stroke="#63b8ff" d="M1789.55,-101.96C1797.39,-92.72 1806.83,-81.6 1813.21,-74.09"/>
<polygon fill="#63b8ff" stroke="#63b8ff" points="1786.74,-99.86 1782.93,-109.75 1792.07,-104.39 1786.74,-99.86"/>
</a>
</g>
</g>
<!-- Node34&#45;&gt;Node28 -->
<g id="edge49_Node000034_Node000028" class="edge">
<title>Node34&#45;&gt;Node28</title>
<g id="a_edge49_Node000034_Node000028"><a xlink:title=" ">
<path fill="none" stroke="#63b8ff" d="M2044.23,-101.39C2037.69,-92.27 2029.93,-81.45 2024.66,-74.09"/>
<polygon fill="#63b8ff" stroke="#63b8ff" points="2041.55,-103.66 2050.23,-109.75 2047.24,-99.58 2041.55,-103.66"/>
</a>
</g>
</g>
<!-- Node35 -->
<g id="Node000035" class="node">
<title>Node35</title>
<g id="a_Node000035"><a xlink:href="spi__app_8c.html" target="_top" xlink:title=" ">
<polygon fill="white" stroke="#666666" points="2135.5,-74 2073.5,-74 2073.5,-55 2135.5,-55 2135.5,-74"/>
<text text-anchor="middle" x="2104.5" y="-62" font-family="Helvetica,sans-Serif" font-size="10.00">spi_app.c</text>
</a>
</g>
</g>
<!-- Node34&#45;&gt;Node35 -->
<g id="edge48_Node000034_Node000035" class="edge">
<title>Node34&#45;&gt;Node35</title>
<g id="a_edge48_Node000034_Node000035"><a xlink:title=" ">
<path fill="none" stroke="#63b8ff" d="M2071.23,-102.24C2079.64,-92.95 2089.85,-81.68 2096.72,-74.09"/>
<polygon fill="#63b8ff" stroke="#63b8ff" points="2068.54,-99.99 2064.43,-109.75 2073.73,-104.69 2068.54,-99.99"/>
</a>
</g>
</g>
<!-- Node36&#45;&gt;Node20 -->
<g id="edge53_Node000036_Node000020" class="edge">
<title>Node36&#45;&gt;Node20</title>
<g id="a_edge53_Node000036_Node000020"><a xlink:title=" ">
<path fill="none" stroke="#63b8ff" d="M1274.58,-104.7C1258.55,-95.04 1237.63,-82.44 1223.9,-74.17"/>
<polygon fill="#63b8ff" stroke="#63b8ff" points="1272.99,-107.82 1283.36,-109.98 1276.6,-101.83 1272.99,-107.82"/>
</a>
</g>
</g>
<!-- Node36&#45;&gt;Node31 -->
<g id="edge55_Node000036_Node000031" class="edge">
<title>Node36&#45;&gt;Node31</title>
<g id="a_edge55_Node000036_Node000031"><a xlink:title=" ">
<path fill="none" stroke="#63b8ff" d="M1325.61,-105.77C1347.19,-95.99 1376.41,-82.75 1395.36,-74.17"/>
<polygon fill="#63b8ff" stroke="#63b8ff" points="1323.96,-102.67 1316.3,-109.98 1326.85,-109.05 1323.96,-102.67"/>
</a>
</g>
</g>
<!-- Node37 -->
<g id="Node000037" class="node">
<title>Node37</title>
<g id="a_Node000037"><a xlink:href="uart__app_8c.html" target="_top" xlink:title=" ">
<polygon fill="white" stroke="#666666" points="1356.5,-74 1288.5,-74 1288.5,-55 1356.5,-55 1356.5,-74"/>
<text text-anchor="middle" x="1322.5" y="-62" font-family="Helvetica,sans-Serif" font-size="10.00">uart_app.c</text>
</a>
</g>
</g>
<!-- Node36&#45;&gt;Node37 -->
<g id="edge54_Node000036_Node000037" class="edge">
<title>Node36&#45;&gt;Node37</title>
<g id="a_edge54_Node000036_Node000037"><a xlink:title=" ">
<path fill="none" stroke="#63b8ff" d="M1305.98,-100.53C1310.19,-91.6 1315.09,-81.22 1318.45,-74.09"/>
<polygon fill="#63b8ff" stroke="#63b8ff" points="1302.73,-99.21 1301.63,-109.75 1309.06,-102.2 1302.73,-99.21"/>
</a>
</g>
</g>
</g>
</svg>
