<?xml version="1.0" encoding="UTF-8" standalone="no"?>
<!DOCTYPE svg PUBLIC "-//W3C//DTD SVG 1.1//EN"
 "http://www.w3.org/Graphics/SVG/1.1/DTD/svg11.dtd">
<!-- Generated by graphviz version 2.43.0 (0)
 -->
<!-- Title: drv_irq_dispatch_from_isr Pages: 1 -->
<svg width="334pt" height="172pt"
 viewBox="0.00 0.00 334.00 172.00" xmlns="http://www.w3.org/2000/svg" xmlns:xlink="http://www.w3.org/1999/xlink">

<svg id="main" version="1.1" xmlns="http://www.w3.org/2000/svg" xmlns:xlink="http://www.w3.org/1999/xlink" xml:space="preserve" onload="init(evt)">
<style type="text/css"><![CDATA[
.node, .edge {opacity: 0.7;}
.node.selected, .edge.selected {opacity: 1;}
.edge:hover path { stroke: red; }
.edge:hover polygon { stroke: red; fill: red; }
]]></style>
<script type="application/ecmascript" xlink:href="svg.min.js"/>
<svg id="graph" class="graph">
<g id="graph0" class="graph" transform="scale(1 1) rotate(0) translate(4 168)">
<title>drv_irq_dispatch_from_isr</title>
<!-- Node1 -->
<g id="Node000001" class="node">
<title>Node1</title>
<g id="a_Node000001"><a xlink:title="Dispatch an IRQ event from ISR context. Each registered callback receives pxHPT so it can accumulate ...">
<polygon fill="#999999" stroke="#666666" points="326,-88.5 183,-88.5 183,-69.5 326,-69.5 326,-88.5"/>
<text text-anchor="middle" x="254.5" y="-76.5" font-family="Helvetica,sans-Serif" font-size="10.00">drv_irq_dispatch_from_isr</text>
</a>
</g>
</g>
<!-- Node2 -->
<g id="Node000002" class="node">
<title>Node2</title>
<g id="a_Node000002"><a xlink:href="hal__iic__stm32_8c.html#a2cbe166e3c3ea0291b648d3e747a7dc5" target="_top" xlink:title="Called from I2Cx_ER_IRQHandler to dispatch HAL_I2C_ER_IRQHandler to whichever generic handle owns ins...">
<polygon fill="white" stroke="#666666" points="132,-164 15,-164 15,-134 132,-134 132,-164"/>
<text text-anchor="start" x="23" y="-152" font-family="Helvetica,sans-Serif" font-size="10.00">hal_iic_stm32_er_irq</text>
<text text-anchor="middle" x="73.5" y="-141" font-family="Helvetica,sans-Serif" font-size="10.00">_handler</text>
</a>
</g>
</g>
<!-- Node1&#45;&gt;Node2 -->
<g id="edge1_Node000001_Node000002" class="edge">
<title>Node1&#45;&gt;Node2</title>
<g id="a_edge1_Node000001_Node000002"><a xlink:title=" ">
<path fill="none" stroke="#63b8ff" d="M223.77,-92.68C202.57,-102.22 173.28,-115 147,-125 138.95,-128.07 130.31,-131.12 121.9,-133.98"/>
<polygon fill="#63b8ff" stroke="#63b8ff" points="225.24,-95.85 232.91,-88.54 222.35,-89.48 225.24,-95.85"/>
</a>
</g>
</g>
<!-- Node3 -->
<g id="Node000003" class="node">
<title>Node3</title>
<g id="a_Node000003"><a xlink:href="hal__iic__stm32_8c.html#af651223af8184f72b0eedf902dcfb2cc" target="_top" xlink:title="Called from I2Cx_EV_IRQHandler to dispatch HAL_I2C_EV_IRQHandler to whichever generic handle owns ins...">
<polygon fill="white" stroke="#666666" points="133,-116 14,-116 14,-86 133,-86 133,-116"/>
<text text-anchor="start" x="22" y="-104" font-family="Helvetica,sans-Serif" font-size="10.00">hal_iic_stm32_ev_irq</text>
<text text-anchor="middle" x="73.5" y="-93" font-family="Helvetica,sans-Serif" font-size="10.00">_handler</text>
</a>
</g>
</g>
<!-- Node1&#45;&gt;Node3 -->
<g id="edge2_Node000001_Node000003" class="edge">
<title>Node1&#45;&gt;Node3</title>
<g id="a_edge2_Node000001_Node000003"><a xlink:title=" ">
<path fill="none" stroke="#63b8ff" d="M172.66,-88.94C159.37,-90.57 145.82,-92.23 133.2,-93.78"/>
<polygon fill="#63b8ff" stroke="#63b8ff" points="173.26,-92.39 182.75,-87.69 172.4,-85.44 173.26,-92.39"/>
</a>
</g>
</g>
<!-- Node4 -->
<g id="Node000004" class="node">
<title>Node4</title>
<g id="a_Node000004"><a xlink:href="hal__spi__stm32_8c.html#a502fc75767c7ebbec7885a7798f2b665" target="_top" xlink:title="Called from SPIx_IRQHandler to dispatch HAL_SPI_IRQHandler to whichever generic handle owns instance.">
<polygon fill="white" stroke="#666666" points="147,-67.5 0,-67.5 0,-48.5 147,-48.5 147,-67.5"/>
<text text-anchor="middle" x="73.5" y="-55.5" font-family="Helvetica,sans-Serif" font-size="10.00">hal_spi_stm32_irq_handler</text>
</a>
</g>
</g>
<!-- Node1&#45;&gt;Node4 -->
<g id="edge3_Node000001_Node000004" class="edge">
<title>Node1&#45;&gt;Node4</title>
<g id="a_edge3_Node000001_Node000004"><a xlink:title=" ">
<path fill="none" stroke="#63b8ff" d="M172.77,-69.53C164.21,-68.52 155.54,-67.51 147.08,-66.52"/>
<polygon fill="#63b8ff" stroke="#63b8ff" points="172.41,-73.01 182.75,-70.7 173.23,-66.06 172.41,-73.01"/>
</a>
</g>
</g>
<!-- Node5 -->
<g id="Node000005" class="node">
<title>Node5</title>
<g id="a_Node000005"><a xlink:href="hal__uart__stm32_8c.html#a6b69ed104eb5d662230497d7ac2881a6" target="_top" xlink:title="Called from the USARTx_IRQHandler to dispatch HAL_UART_IRQHandler to whichever generic handle owns in...">
<polygon fill="white" stroke="#666666" points="128.5,-30 18.5,-30 18.5,0 128.5,0 128.5,-30"/>
<text text-anchor="start" x="26.5" y="-18" font-family="Helvetica,sans-Serif" font-size="10.00">hal_uart_stm32_irq</text>
<text text-anchor="middle" x="73.5" y="-7" font-family="Helvetica,sans-Serif" font-size="10.00">_handler</text>
</a>
</g>
</g>
<!-- Node1&#45;&gt;Node5 -->
<g id="edge4_Node000001_Node000005" class="edge">
<title>Node1&#45;&gt;Node5</title>
<g id="a_edge4_Node000001_Node000005"><a xlink:title=" ">
<path fill="none" stroke="#63b8ff" d="M218.08,-65.84C197.39,-58.2 170.76,-48.44 147,-40 137.84,-36.74 128.01,-33.31 118.64,-30.07"/>
<polygon fill="#63b8ff" stroke="#63b8ff" points="217.13,-69.22 227.72,-69.41 219.56,-62.65 217.13,-69.22"/>
</a>
</g>
</g>
</g>
</svg>
</svg>

<style type='text/css'>
<![CDATA[
[data-mouse-over-selected='false'] { opacity: 0.7; }
[data-mouse-over-selected='true']  { opacity: 1.0; }
]]>
</style>
<script type="application/ecmascript"><![CDATA[
document.addEventListener('DOMContentLoaded', (event) => {
  highlightEdges();
  highlightAdjacentNodes();
});
]]></script>
</svg>
