<?xml version="1.0" encoding="UTF-8" standalone="no"?>
<!DOCTYPE svg PUBLIC "-//W3C//DTD SVG 1.1//EN"
 "http://www.w3.org/Graphics/SVG/1.1/DTD/svg11.dtd">
<!-- Generated by graphviz version 2.43.0 (0)
 -->
<!-- Title: hal_rcc_stm32_periph_clk_en Pages: 1 -->
<svg width="405pt" height="38pt"
 viewBox="0.00 0.00 405.00 38.00" xmlns="http://www.w3.org/2000/svg" xmlns:xlink="http://www.w3.org/1999/xlink">
<g id="graph0" class="graph" transform="scale(1 1) rotate(0) translate(4 34)">
<title>hal_rcc_stm32_periph_clk_en</title>
<!-- Node1 -->
<g id="Node000001" class="node">
<title>Node1</title>
<g id="a_Node000001"><a xlink:title="Enable peripheral clock.">
<polygon fill="#999999" stroke="#666666" points="397,-30 274,-30 274,0 397,0 397,-30"/>
<text text-anchor="start" x="282" y="-18" font-family="Helvetica,sans-Serif" font-size="10.00">hal_rcc_stm32_periph</text>
<text text-anchor="middle" x="335.5" y="-7" font-family="Helvetica,sans-Serif" font-size="10.00">_clk_en</text>
</a>
</g>
</g>
<!-- Node2 -->
<g id="Node000002" class="node">
<title>Node2</title>
<g id="a_Node000002"><a xlink:href="drv__rcc_8c.html#a34ae13cd829b4e89b28f080845a9bb17" target="_top" xlink:title=" ">
<polygon fill="white" stroke="#666666" points="238,-24.5 113,-24.5 113,-5.5 238,-5.5 238,-24.5"/>
<text text-anchor="middle" x="175.5" y="-12.5" font-family="Helvetica,sans-Serif" font-size="10.00">drv_rcc_periph_clk_en</text>
</a>
</g>
</g>
<!-- Node1&#45;&gt;Node2 -->
<g id="edge1_Node000001_Node000002" class="edge">
<title>Node1&#45;&gt;Node2</title>
<g id="a_edge1_Node000001_Node000002"><a xlink:title=" ">
<path fill="none" stroke="#63b8ff" d="M263.84,-15C255.23,-15 246.48,-15 238.02,-15"/>
<polygon fill="#63b8ff" stroke="#63b8ff" points="263.86,-18.5 273.86,-15 263.86,-11.5 263.86,-18.5"/>
</a>
</g>
</g>
<!-- Node3 -->
<g id="Node000003" class="node">
<title>Node3</title>
<g id="a_Node000003"><a xlink:href="hal__timebase__stm32_8c.html#a879cdb21ef051eb81ec51c18147397d5" target="_top" xlink:title=" ">
<polygon fill="white" stroke="#666666" points="77,-24.5 0,-24.5 0,-5.5 77,-5.5 77,-24.5"/>
<text text-anchor="middle" x="38.5" y="-12.5" font-family="Helvetica,sans-Serif" font-size="10.00">HAL_InitTick</text>
</a>
</g>
</g>
<!-- Node2&#45;&gt;Node3 -->
<g id="edge2_Node000002_Node000003" class="edge">
<title>Node2&#45;&gt;Node3</title>
<g id="a_edge2_Node000002_Node000003"><a xlink:title=" ">
<path fill="none" stroke="#63b8ff" d="M102.86,-15C93.95,-15 85.14,-15 77.05,-15"/>
<polygon fill="#63b8ff" stroke="#63b8ff" points="102.93,-18.5 112.93,-15 102.93,-11.5 102.93,-18.5"/>
</a>
</g>
</g>
</g>
</svg>
