<?xml version="1.0" encoding="UTF-8" standalone="no"?>
<!DOCTYPE svg PUBLIC "-//W3C//DTD SVG 1.1//EN"
 "http://www.w3.org/Graphics/SVG/1.1/DTD/svg11.dtd">
<!-- Generated by graphviz version 2.43.0 (0)
 -->
<!-- Title: drv_can.h Pages: 1 -->
<svg width="1739pt" height="104pt"
 viewBox="0.00 0.00 1739.00 104.00" xmlns="http://www.w3.org/2000/svg" xmlns:xlink="http://www.w3.org/1999/xlink">
<g id="graph0" class="graph" transform="scale(1 1) rotate(0) translate(4 100)">
<title>drv_can.h</title>
<!-- Node1 -->
<g id="Node000001" class="node">
<title>Node1</title>
<g id="a_Node000001"><a xlink:title=" ">
<polygon fill="#999999" stroke="#666666" points="889,-96 825,-96 825,-77 889,-77 889,-96"/>
<text text-anchor="middle" x="857" y="-84" font-family="Helvetica,sans-Serif" font-size="10.00">drv_can.h</text>
</a>
</g>
</g>
<!-- Node2 -->
<g id="Node000002" class="node">
<title>Node2</title>
<g id="a_Node000002"><a xlink:title=" ">
<polygon fill="#e0e0e0" stroke="#999999" points="116,-35.5 0,-35.5 0,-5.5 116,-5.5 116,-35.5"/>
<text text-anchor="start" x="8" y="-23.5" font-family="Helvetica,sans-Serif" font-size="10.00">app/bsw_config/arch</text>
<text text-anchor="middle" x="58" y="-12.5" font-family="Helvetica,sans-Serif" font-size="10.00">_conf/board/board.h</text>
</a>
</g>
</g>
<!-- Node1&#45;&gt;Node2 -->
<g id="edge1_Node000001_Node000002" class="edge">
<title>Node1&#45;&gt;Node2</title>
<g id="a_edge1_Node000001_Node000002"><a xlink:title=" ">
<path fill="none" stroke="#63b8ff" d="M824.96,-86.08C722.28,-87.4 392.5,-87.46 125,-41 120.32,-40.19 115.51,-39.17 110.71,-38.02"/>
<polygon fill="#63b8ff" stroke="#63b8ff" points="111.47,-34.6 100.92,-35.52 109.74,-41.39 111.47,-34.6"/>
</a>
</g>
</g>
<!-- Node3 -->
<g id="Node000003" class="node">
<title>Node3</title>
<g id="a_Node000003"><a xlink:title=" ">
<polygon fill="#e0e0e0" stroke="#999999" points="240,-35.5 134,-35.5 134,-5.5 240,-5.5 240,-35.5"/>
<text text-anchor="start" x="142" y="-23.5" font-family="Helvetica,sans-Serif" font-size="10.00">bsw/utils/type_def</text>
<text text-anchor="middle" x="187" y="-12.5" font-family="Helvetica,sans-Serif" font-size="10.00">/typedef_global.h</text>
</a>
</g>
</g>
<!-- Node1&#45;&gt;Node3 -->
<g id="edge2_Node000001_Node000003" class="edge">
<title>Node1&#45;&gt;Node3</title>
<g id="a_edge2_Node000001_Node000003"><a xlink:title=" ">
<path fill="none" stroke="#63b8ff" d="M824.69,-85.75C733.38,-85.9 466.01,-82.49 249,-41 245.06,-40.25 241.02,-39.33 236.98,-38.3"/>
<polygon fill="#63b8ff" stroke="#63b8ff" points="237.58,-34.84 227.01,-35.57 235.73,-41.59 237.58,-34.84"/>
</a>
</g>
</g>
<!-- Node4 -->
<g id="Node000004" class="node">
<title>Node4</title>
<g id="a_Node000004"><a xlink:title=" ">
<polygon fill="#e0e0e0" stroke="#999999" points="369.5,-30 258.5,-30 258.5,-11 369.5,-11 369.5,-30"/>
<text text-anchor="middle" x="314" y="-18" font-family="Helvetica,sans-Serif" font-size="10.00">bsw/kernel/kernel.h</text>
</a>
</g>
</g>
<!-- Node1&#45;&gt;Node4 -->
<g id="edge3_Node000001_Node000004" class="edge">
<title>Node1&#45;&gt;Node4</title>
<g id="a_edge3_Node000001_Node000004"><a xlink:title=" ">
<path fill="none" stroke="#63b8ff" d="M824.73,-84.76C747.07,-82.49 543.94,-73.64 378,-41 368.02,-39.04 357.38,-36.13 347.69,-33.17"/>
<polygon fill="#63b8ff" stroke="#63b8ff" points="348.61,-29.78 338.02,-30.08 346.48,-36.45 348.61,-29.78"/>
</a>
</g>
</g>
<!-- Node5 -->
<g id="Node000005" class="node">
<title>Node5</title>
<g id="a_Node000005"><a xlink:title=" ">
<polygon fill="#e0e0e0" stroke="#999999" points="528.5,-41 387.5,-41 387.5,0 528.5,0 528.5,-41"/>
<text text-anchor="start" x="395.5" y="-29" font-family="Helvetica,sans-Serif" font-size="10.00">bsw/kernel/COMM_STACK</text>
<text text-anchor="start" x="395.5" y="-18" font-family="Helvetica,sans-Serif" font-size="10.00">/canopen&#45;stack/src/core</text>
<text text-anchor="middle" x="458" y="-7" font-family="Helvetica,sans-Serif" font-size="10.00">/co_core.h</text>
</a>
</g>
</g>
<!-- Node1&#45;&gt;Node5 -->
<g id="edge4_Node000001_Node000005" class="edge">
<title>Node1&#45;&gt;Node5</title>
<g id="a_edge4_Node000001_Node000005"><a xlink:title=" ">
<path fill="none" stroke="#63b8ff" d="M824.57,-82.12C768.27,-76 648.65,-61.94 538.5,-41.2"/>
<polygon fill="#63b8ff" stroke="#63b8ff" points="539.03,-37.74 528.56,-39.3 537.72,-44.61 539.03,-37.74"/>
</a>
</g>
</g>
<!-- Node6 -->
<g id="Node000006" class="node">
<title>Node6</title>
<g id="a_Node000006"><a xlink:title=" ">
<polygon fill="#e0e0e0" stroke="#999999" points="683.5,-35.5 546.5,-35.5 546.5,-5.5 683.5,-5.5 683.5,-35.5"/>
<text text-anchor="start" x="554.5" y="-23.5" font-family="Helvetica,sans-Serif" font-size="10.00">bsw/services/os_shell</text>
<text text-anchor="middle" x="615" y="-12.5" font-family="Helvetica,sans-Serif" font-size="10.00">_mgmt/os_shell_mgmt.h</text>
</a>
</g>
</g>
<!-- Node1&#45;&gt;Node6 -->
<g id="edge5_Node000001_Node000006" class="edge">
<title>Node1&#45;&gt;Node6</title>
<g id="a_edge5_Node000001_Node000006"><a xlink:title=" ">
<path fill="none" stroke="#63b8ff" d="M824.86,-77C787.53,-67.13 725.05,-50.6 677.95,-38.15"/>
<polygon fill="#63b8ff" stroke="#63b8ff" points="678.71,-34.73 668.15,-35.56 676.92,-41.5 678.71,-34.73"/>
</a>
</g>
</g>
<!-- Node7 -->
<g id="Node000007" class="node">
<title>Node7</title>
<g id="a_Node000007"><a xlink:title=" ">
<polygon fill="#e0e0e0" stroke="#999999" points="854.5,-35.5 701.5,-35.5 701.5,-5.5 854.5,-5.5 854.5,-35.5"/>
<text text-anchor="start" x="709.5" y="-23.5" font-family="Helvetica,sans-Serif" font-size="10.00">bsw/services/diagnostics</text>
<text text-anchor="middle" x="778" y="-12.5" font-family="Helvetica,sans-Serif" font-size="10.00">_mgmt/diagnostics_mgmt.h</text>
</a>
</g>
</g>
<!-- Node1&#45;&gt;Node7 -->
<g id="edge6_Node000001_Node000007" class="edge">
<title>Node1&#45;&gt;Node7</title>
<g id="a_edge6_Node000001_Node000007"><a xlink:title=" ">
<path fill="none" stroke="#63b8ff" d="M846.35,-76.87C835.43,-68.03 818.06,-53.95 803.56,-42.21"/>
<polygon fill="#63b8ff" stroke="#63b8ff" points="805.4,-39.19 795.42,-35.62 800.99,-44.63 805.4,-39.19"/>
</a>
</g>
</g>
<!-- Node8 -->
<g id="Node000008" class="node">
<title>Node8</title>
<g id="a_Node000008"><a xlink:title=" ">
<polygon fill="#e0e0e0" stroke="#999999" points="1001.5,-30 872.5,-30 872.5,-11 1001.5,-11 1001.5,-30"/>
<text text-anchor="middle" x="937" y="-18" font-family="Helvetica,sans-Serif" font-size="10.00">bsw/utils/error_codes.h</text>
</a>
</g>
</g>
<!-- Node1&#45;&gt;Node8 -->
<g id="edge7_Node000001_Node000008" class="edge">
<title>Node1&#45;&gt;Node8</title>
<g id="a_edge7_Node000001_Node000008"><a xlink:title=" ">
<path fill="none" stroke="#63b8ff" d="M867.79,-76.87C880.67,-66.56 902.44,-49.15 918.13,-36.59"/>
<polygon fill="#63b8ff" stroke="#63b8ff" points="920.5,-39.18 926.13,-30.2 916.13,-33.71 920.5,-39.18"/>
</a>
</g>
</g>
<!-- Node9 -->
<g id="Node000009" class="node">
<title>Node9</title>
<g id="a_Node000009"><a xlink:title=" ">
<polygon fill="#e0e0e0" stroke="#999999" points="1150.5,-30 1019.5,-30 1019.5,-11 1150.5,-11 1150.5,-30"/>
<text text-anchor="middle" x="1085" y="-18" font-family="Helvetica,sans-Serif" font-size="10.00">bsw/ipc/events/signal.h</text>
</a>
</g>
</g>
<!-- Node1&#45;&gt;Node9 -->
<g id="edge8_Node000001_Node000009" class="edge">
<title>Node1&#45;&gt;Node9</title>
<g id="a_edge8_Node000001_Node000009"><a xlink:title=" ">
<path fill="none" stroke="#63b8ff" d="M887.75,-76.87C928.32,-65.48 999.81,-45.41 1044.68,-32.82"/>
<polygon fill="#63b8ff" stroke="#63b8ff" points="1045.69,-36.17 1054.37,-30.1 1043.8,-29.43 1045.69,-36.17"/>
</a>
</g>
</g>
<!-- Node10 -->
<g id="Node000010" class="node">
<title>Node10</title>
<g id="a_Node000010"><a xlink:title=" ">
<polygon fill="#e0e0e0" stroke="#999999" points="1317,-30 1169,-30 1169,-11 1317,-11 1317,-30"/>
<text text-anchor="middle" x="1243" y="-18" font-family="Helvetica,sans-Serif" font-size="10.00">bsw/ipc/mqueue/mqueue.h</text>
</a>
</g>
</g>
<!-- Node1&#45;&gt;Node10 -->
<g id="edge9_Node000001_Node000010" class="edge">
<title>Node1&#45;&gt;Node10</title>
<g id="a_edge9_Node000001_Node000010"><a xlink:title=" ">
<path fill="none" stroke="#63b8ff" d="M889.44,-81.65C945.05,-74.86 1062.07,-59.66 1160,-41 1172.96,-38.53 1186.97,-35.41 1199.71,-32.4"/>
<polygon fill="#63b8ff" stroke="#63b8ff" points="1200.71,-35.76 1209.62,-30.03 1199.08,-28.96 1200.71,-35.76"/>
</a>
</g>
</g>
<!-- Node11 -->
<g id="Node000011" class="node">
<title>Node11</title>
<g id="a_Node000011"><a xlink:title=" ">
<polygon fill="#e0e0e0" stroke="#999999" points="1454.5,-35.5 1335.5,-35.5 1335.5,-5.5 1454.5,-5.5 1454.5,-35.5"/>
<text text-anchor="start" x="1343.5" y="-23.5" font-family="Helvetica,sans-Serif" font-size="10.00">bsw/ipc/global/global</text>
<text text-anchor="middle" x="1395" y="-12.5" font-family="Helvetica,sans-Serif" font-size="10.00">_var.h</text>
</a>
</g>
</g>
<!-- Node1&#45;&gt;Node11 -->
<g id="edge10_Node000001_Node000011" class="edge">
<title>Node1&#45;&gt;Node11</title>
<g id="a_edge10_Node000001_Node000011"><a xlink:title=" ">
<path fill="none" stroke="#63b8ff" d="M889.12,-84.45C965.48,-81.53 1163.61,-71.39 1326,-41 1330.46,-40.17 1335.04,-39.17 1339.63,-38.09"/>
<polygon fill="#63b8ff" stroke="#63b8ff" points="1340.78,-41.41 1349.62,-35.58 1339.07,-34.62 1340.78,-41.41"/>
</a>
</g>
</g>
<!-- Node12 -->
<g id="Node000012" class="node">
<title>Node12</title>
<g id="a_Node000012"><a xlink:title=" ">
<polygon fill="#e0e0e0" stroke="#999999" points="1581,-35.5 1473,-35.5 1473,-5.5 1581,-5.5 1581,-35.5"/>
<text text-anchor="start" x="1481" y="-23.5" font-family="Helvetica,sans-Serif" font-size="10.00">bsw/drivers/device</text>
<text text-anchor="middle" x="1527" y="-12.5" font-family="Helvetica,sans-Serif" font-size="10.00">/driver_port.h</text>
</a>
</g>
</g>
<!-- Node1&#45;&gt;Node12 -->
<g id="edge11_Node000001_Node000012" class="edge">
<title>Node1&#45;&gt;Node12</title>
<g id="a_edge11_Node000001_Node000012"><a xlink:title=" ">
<path fill="none" stroke="#63b8ff" d="M889.25,-85.7C980.38,-85.7 1247.26,-81.94 1464,-41 1468.11,-40.22 1472.34,-39.27 1476.56,-38.21"/>
<polygon fill="#63b8ff" stroke="#63b8ff" points="1477.6,-41.55 1486.33,-35.56 1475.77,-34.8 1477.6,-41.55"/>
</a>
</g>
</g>
<!-- Node13 -->
<g id="Node000013" class="node">
<title>Node13</title>
<g id="a_Node000013"><a xlink:title=" ">
<polygon fill="#e0e0e0" stroke="#999999" points="1731,-35.5 1599,-35.5 1599,-5.5 1731,-5.5 1731,-35.5"/>
<text text-anchor="start" x="1607" y="-23.5" font-family="Helvetica,sans-Serif" font-size="10.00">app/bsw_config/os_conf</text>
<text text-anchor="middle" x="1665" y="-12.5" font-family="Helvetica,sans-Serif" font-size="10.00">/can_network_config.h</text>
</a>
</g>
</g>
<!-- Node1&#45;&gt;Node13 -->
<g id="edge12_Node000001_Node000013" class="edge">
<title>Node1&#45;&gt;Node13</title>
<g id="a_edge12_Node000001_Node000013"><a xlink:title=" ">
<path fill="none" stroke="#63b8ff" d="M889.03,-85.76C991.69,-86.12 1321.49,-83.64 1590,-41 1595.4,-40.14 1600.97,-39.07 1606.53,-37.86"/>
<polygon fill="#63b8ff" stroke="#63b8ff" points="1607.51,-41.23 1616.47,-35.58 1605.94,-34.41 1607.51,-41.23"/>
</a>
</g>
</g>
</g>
</svg>
