<?xml version="1.0" encoding="UTF-8" standalone="no"?>
<!DOCTYPE svg PUBLIC "-//W3C//DTD SVG 1.1//EN"
 "http://www.w3.org/Graphics/SVG/1.1/DTD/svg11.dtd">
<!-- Generated by graphviz version 2.43.0 (0)
 -->
<!-- Title: drv_rcc.h Pages: 1 -->
<svg width="396pt" height="137pt"
 viewBox="0.00 0.00 396.00 137.00" xmlns="http://www.w3.org/2000/svg" xmlns:xlink="http://www.w3.org/1999/xlink">
<g id="graph0" class="graph" transform="scale(1 1) rotate(0) translate(4 133)">
<title>drv_rcc.h</title>
<!-- Node1 -->
<g id="Node000001" class="node">
<title>Node1</title>
<g id="a_Node000001"><a xlink:title=" ">
<polygon fill="#999999" stroke="#666666" points="221.5,-129 160.5,-129 160.5,-110 221.5,-110 221.5,-129"/>
<text text-anchor="middle" x="191" y="-117" font-family="Helvetica,sans-Serif" font-size="10.00">drv_rcc.h</text>
</a>
</g>
</g>
<!-- Node2 -->
<g id="Node000002" class="node">
<title>Node2</title>
<g id="a_Node000002"><a xlink:href="drv__rcc_8c.html" target="_top" xlink:title=" ">
<polygon fill="white" stroke="#666666" points="60,-74 0,-74 0,-55 60,-55 60,-74"/>
<text text-anchor="middle" x="30" y="-62" font-family="Helvetica,sans-Serif" font-size="10.00">drv_rcc.c</text>
</a>
</g>
</g>
<!-- Node1&#45;&gt;Node2 -->
<g id="edge1_Node000001_Node000002" class="edge">
<title>Node1&#45;&gt;Node2</title>
<g id="a_edge1_Node000001_Node000002"><a xlink:title=" ">
<path fill="none" stroke="#63b8ff" d="M155.45,-106.8C125.41,-96.91 83.06,-82.97 56.07,-74.08"/>
<polygon fill="#63b8ff" stroke="#63b8ff" points="154.54,-110.18 165.13,-109.98 156.73,-103.53 154.54,-110.18"/>
</a>
</g>
</g>
<!-- Node3 -->
<g id="Node000003" class="node">
<title>Node3</title>
<g id="a_Node000003"><a xlink:href="hal__rcc__stm32_8h.html" target="_top" xlink:title=" ">
<polygon fill="white" stroke="#666666" points="174,-74 78,-74 78,-55 174,-55 174,-74"/>
<text text-anchor="middle" x="126" y="-62" font-family="Helvetica,sans-Serif" font-size="10.00">hal_rcc_stm32.h</text>
</a>
</g>
</g>
<!-- Node1&#45;&gt;Node3 -->
<g id="edge2_Node000001_Node000003" class="edge">
<title>Node1&#45;&gt;Node3</title>
<g id="a_edge2_Node000001_Node000003"><a xlink:title=" ">
<path fill="none" stroke="#63b8ff" d="M172.73,-103.6C161.08,-94.11 146.4,-82.13 136.63,-74.17"/>
<polygon fill="#63b8ff" stroke="#63b8ff" points="170.59,-106.38 180.56,-109.98 175.02,-100.95 170.59,-106.38"/>
</a>
</g>
</g>
<!-- Node5 -->
<g id="Node000005" class="node">
<title>Node5</title>
<g id="a_Node000005"><a xlink:href="hal__timebase__stm32_8c.html" target="_top" xlink:title=" ">
<polygon fill="white" stroke="#666666" points="319.5,-74 192.5,-74 192.5,-55 319.5,-55 319.5,-74"/>
<text text-anchor="middle" x="256" y="-62" font-family="Helvetica,sans-Serif" font-size="10.00">hal_timebase_stm32.c</text>
</a>
</g>
</g>
<!-- Node1&#45;&gt;Node5 -->
<g id="edge4_Node000001_Node000005" class="edge">
<title>Node1&#45;&gt;Node5</title>
<g id="a_edge4_Node000001_Node000005"><a xlink:title=" ">
<path fill="none" stroke="#63b8ff" d="M209.27,-103.6C220.92,-94.11 235.6,-82.13 245.37,-74.17"/>
<polygon fill="#63b8ff" stroke="#63b8ff" points="206.98,-100.95 201.44,-109.98 211.41,-106.38 206.98,-100.95"/>
</a>
</g>
</g>
<!-- Node6 -->
<g id="Node000006" class="node">
<title>Node6</title>
<g id="a_Node000006"><a xlink:href="main_8c.html" target="_top" xlink:title=" ">
<polygon fill="white" stroke="#666666" points="388,-74 338,-74 338,-55 388,-55 388,-74"/>
<text text-anchor="middle" x="363" y="-62" font-family="Helvetica,sans-Serif" font-size="10.00">main.c</text>
</a>
</g>
</g>
<!-- Node1&#45;&gt;Node6 -->
<g id="edge5_Node000001_Node000006" class="edge">
<title>Node1&#45;&gt;Node6</title>
<g id="a_edge5_Node000001_Node000006"><a xlink:title=" ">
<path fill="none" stroke="#63b8ff" d="M228.44,-106.96C261.62,-96.74 309.16,-82.09 337.95,-73.22"/>
<polygon fill="#63b8ff" stroke="#63b8ff" points="227.16,-103.69 218.63,-109.98 229.22,-110.38 227.16,-103.69"/>
</a>
</g>
</g>
<!-- Node4 -->
<g id="Node000004" class="node">
<title>Node4</title>
<g id="a_Node000004"><a xlink:href="hal__rcc__stm32_8c.html" target="_top" xlink:title="STM32 RCC + CMSIS system initialization backend.">
<polygon fill="white" stroke="#666666" points="173.5,-19 78.5,-19 78.5,0 173.5,0 173.5,-19"/>
<text text-anchor="middle" x="126" y="-7" font-family="Helvetica,sans-Serif" font-size="10.00">hal_rcc_stm32.c</text>
</a>
</g>
</g>
<!-- Node3&#45;&gt;Node4 -->
<g id="edge3_Node000003_Node000004" class="edge">
<title>Node3&#45;&gt;Node4</title>
<g id="a_edge3_Node000003_Node000004"><a xlink:title=" ">
<path fill="none" stroke="#63b8ff" d="M126,-44.66C126,-35.93 126,-25.99 126,-19.09"/>
<polygon fill="#63b8ff" stroke="#63b8ff" points="122.5,-44.75 126,-54.75 129.5,-44.75 122.5,-44.75"/>
</a>
</g>
</g>
</g>
</svg>
