<?xml version="1.0" encoding="UTF-8" standalone="no"?>
<!DOCTYPE svg PUBLIC "-//W3C//DTD SVG 1.1//EN"
 "http://www.w3.org/Graphics/SVG/1.1/DTD/svg11.dtd">
<!-- Generated by graphviz version 2.43.0 (0)
 -->
<!-- Title: drv_irq_register Pages: 1 -->
<!--zoomable 119 -->

<svg id="main" version="1.1" xmlns="http://www.w3.org/2000/svg" xmlns:xlink="http://www.w3.org/1999/xlink" xml:space="preserve" onload="init(evt)">
<style type="text/css"><![CDATA[
.node, .edge {opacity: 0.7;}
.node.selected, .edge.selected {opacity: 1;}
.edge:hover path { stroke: red; }
.edge:hover polygon { stroke: red; fill: red; }
]]></style>

<defs>
  <circle id="rim" cx="0" cy="0" r="7"/>
  <circle id="rim2" cx="0" cy="0" r="3.5"/>
  <g id="zoomPlus">
    <use xlink:href="#rim" fill="#404040"><set attributeName="fill" to="#808080" begin="zoomplus.mouseover" end="zoomplus.mouseout"/></use>
    <path d="M-4,0h8M0,-4v8" fill="none" stroke="white" stroke-width="1.5" pointer-events="none"/>
  </g>
  <g id="zoomMin">
    <use xlink:href="#rim" fill="#404040"><set attributeName="fill" to="#808080" begin="zoomminus.mouseover" end="zoomminus.mouseout"/></use>
    <path d="M-4,0h8" fill="none" stroke="white" stroke-width="1.5" pointer-events="none"/>
  </g>
  <g id="arrowUp" transform="translate(30 24)">
    <use xlink:href="#rim"/>
    <path pointer-events="none" fill="none" stroke="white" stroke-width="1.5" d="M0,-3.0v7 M-2.5,-0.5L0,-3.0L2.5,-0.5"/>
  </g>
  <g id="arrowRight" transform="rotate(90) translate(36 -43)">
    <use xlink:href="#rim"/>
    <path pointer-events="none" fill="none" stroke="white" stroke-width="1.5" d="M0,-3.0v7 M-2.5,-0.5L0,-3.0L2.5,-0.5"/>
  </g>
  <g id="arrowDown" transform="rotate(180) translate(-30 -48)">
    <use xlink:href="#rim"/>
    <path pointer-events="none" fill="none" stroke="white" stroke-width="1.5" d="M0,-3.0v7 M-2.5,-0.5L0,-3.0L2.5,-0.5"/>
  </g>
  <g id="arrowLeft" transform="rotate(270) translate(-36 17)">
    <use xlink:href="#rim"/>
    <path pointer-events="none" fill="none" stroke="white" stroke-width="1.5" d="M0,-3.0v7 M-2.5,-0.5L0,-3.0L2.5,-0.5"/>
  </g>
  <g id="resetDef">
    <use xlink:href="#rim2" fill="#404040"><set attributeName="fill" to="#808080" begin="reset.mouseover" end="reset.mouseout"/></use>
  </g>
</defs>
<script type="application/ecmascript">
var viewWidth = 560;
var viewHeight = 119;
var sectionId = 'dynsection-7';
</script>
<script type="application/ecmascript" xlink:href="svg.min.js"/>
<svg id="graph" class="graph">
<g id="viewport">
<title>drv_irq_register</title>
<!-- Node1 -->
<g id="Node000001" class="node">
<title>Node1</title>
<g id="a_Node000001"><a xlink:title="Register a callback for a software IRQ ID. Thin wrapper over irq_register() — upper layers include on...">
<polygon fill="#999999" stroke="#666666" points="93,-74 0,-74 0,-55 93,-55 93,-74"/>
<text text-anchor="middle" x="46.5" y="-62" font-family="Helvetica,sans-Serif" font-size="10.00">drv_irq_register</text>
</a>
</g>
</g>
<!-- Node2 -->
<g id="Node000002" class="node">
<title>Node2</title>
<g id="a_Node000002"><a xlink:href="irq__notify_8c.html#a88ce0c4278f16ca232b715dff43ec969" target="_top" xlink:title="Register a callback for a generic IRQ ID. Call from task context before interrupts fire....">
<polygon fill="white" stroke="#666666" points="201,-74 129,-74 129,-55 201,-55 201,-74"/>
<text text-anchor="middle" x="165" y="-62" font-family="Helvetica,sans-Serif" font-size="10.00">irq_register</text>
</a>
</g>
</g>
<!-- Node1&#45;&gt;Node2 -->
<g id="edge1_Node000001_Node000002" class="edge">
<title>Node1&#45;&gt;Node2</title>
<g id="a_edge1_Node000001_Node000002"><a xlink:title=" ">
<path fill="none" stroke="#63b8ff" d="M93.21,-64.5C101.64,-64.5 110.44,-64.5 118.85,-64.5"/>
<polygon fill="#63b8ff" stroke="#63b8ff" points="118.87,-68 128.87,-64.5 118.87,-61 118.87,-68"/>
</a>
</g>
</g>
<!-- Node3 -->
<g id="Node000003" class="node">
<title>Node3</title>
<g id="a_Node000003"><a xlink:href="irq__notify_8c.html#a854bc11942113795c21bf83e08b564ae" target="_top" xlink:title=" ">
<polygon fill="white" stroke="#666666" points="343,-111 239,-111 239,-92 343,-92 343,-111"/>
<text text-anchor="middle" x="291" y="-99" font-family="Helvetica,sans-Serif" font-size="10.00">_alloc_trampoline</text>
</a>
</g>
</g>
<!-- Node2&#45;&gt;Node3 -->
<g id="edge2_Node000002_Node000003" class="edge">
<title>Node2&#45;&gt;Node3</title>
<g id="a_edge2_Node000002_Node000003"><a xlink:title=" ">
<path fill="none" stroke="#63b8ff" d="M197.93,-74.03C213.15,-78.57 231.55,-84.06 247.88,-88.93"/>
<polygon fill="#63b8ff" stroke="#63b8ff" points="247.16,-92.37 257.74,-91.88 249.16,-85.66 247.16,-92.37"/>
</a>
</g>
</g>
<!-- Node4 -->
<g id="Node000004" class="node">
<title>Node4</title>
<g id="a_Node000004"><a xlink:href="irq__notify_8c.html#a7faff0a2928451eb3d1965fb159ea580" target="_top" xlink:title=" ">
<polygon fill="white" stroke="#666666" points="345,-74 237,-74 237,-55 345,-55 345,-74"/>
<text text-anchor="middle" x="291" y="-62" font-family="Helvetica,sans-Serif" font-size="10.00">_notify_trampoline</text>
</a>
</g>
</g>
<!-- Node2&#45;&gt;Node4 -->
<g id="edge3_Node000002_Node000004" class="edge">
<title>Node2&#45;&gt;Node4</title>
<g id="a_edge3_Node000002_Node000004"><a xlink:title=" ">
<path fill="none" stroke="#63b8ff" d="M201.2,-64.5C209.13,-64.5 217.78,-64.5 226.46,-64.5"/>
<polygon fill="#63b8ff" stroke="#63b8ff" points="226.64,-68 236.64,-64.5 226.64,-61 226.64,-68"/>
</a>
</g>
</g>
<!-- Node5 -->
<g id="Node000005" class="node">
<title>Node5</title>
<g id="a_Node000005"><a xlink:href="irq__desc_8c.html#ab32b689bb2b7d1960aa47f19d9d65e90" target="_top" xlink:title=" ">
<polygon fill="white" stroke="#666666" points="326.5,-37 255.5,-37 255.5,-18 326.5,-18 326.5,-37"/>
<text text-anchor="middle" x="291" y="-25" font-family="Helvetica,sans-Serif" font-size="10.00">request_irq</text>
</a>
</g>
</g>
<!-- Node2&#45;&gt;Node5 -->
<g id="edge4_Node000002_Node000005" class="edge">
<title>Node2&#45;&gt;Node5</title>
<g id="a_edge4_Node000002_Node000005"><a xlink:title=" ">
<path fill="none" stroke="#63b8ff" d="M197.93,-54.97C213.15,-50.43 231.55,-44.94 247.88,-40.07"/>
<polygon fill="#63b8ff" stroke="#63b8ff" points="249.16,-43.34 257.74,-37.12 247.16,-36.63 249.16,-43.34"/>
</a>
</g>
</g>
<!-- Node6 -->
<g id="Node000006" class="node">
<title>Node6</title>
<g id="a_Node000006"><a xlink:href="irq__desc_8c.html#a0041385040c05835d54aca9c83340f87" target="_top" xlink:title=" ">
<polygon fill="white" stroke="#666666" points="461,-56 381,-56 381,-37 461,-37 461,-56"/>
<text text-anchor="middle" x="421" y="-44" font-family="Helvetica,sans-Serif" font-size="10.00">_alloc_action</text>
</a>
</g>
</g>
<!-- Node5&#45;&gt;Node6 -->
<g id="edge5_Node000005_Node000006" class="edge">
<title>Node5&#45;&gt;Node6</title>
<g id="a_edge5_Node000005_Node000006"><a xlink:title=" ">
<path fill="none" stroke="#63b8ff" d="M326.64,-32.64C340.23,-34.66 356.09,-37.01 370.83,-39.2"/>
<polygon fill="#63b8ff" stroke="#63b8ff" points="370.41,-42.68 380.81,-40.68 371.44,-35.75 370.41,-42.68"/>
</a>
</g>
</g>
<!-- Node9 -->
<g id="Node000009" class="node">
<title>Node9</title>
<g id="a_Node000009"><a xlink:href="group__list__api.html#gafb58231c241f9acee99a56aaa1b98cec" target="_top" xlink:title="Add a new node at the tail of the list.">
<polygon fill="white" stroke="#666666" points="459,-19 383,-19 383,0 459,0 459,-19"/>
<text text-anchor="middle" x="421" y="-7" font-family="Helvetica,sans-Serif" font-size="10.00">list_add_tail</text>
</a>
</g>
</g>
<!-- Node5&#45;&gt;Node9 -->
<g id="edge8_Node000005_Node000009" class="edge">
<title>Node5&#45;&gt;Node9</title>
<g id="a_edge8_Node000005_Node000009"><a xlink:title=" ">
<path fill="none" stroke="#63b8ff" d="M326.64,-22.63C340.72,-20.65 357.21,-18.33 372.39,-16.2"/>
<polygon fill="#63b8ff" stroke="#63b8ff" points="373.22,-19.61 382.64,-14.75 372.25,-12.68 373.22,-19.61"/>
</a>
</g>
</g>
<!-- Node7 -->
<g id="Node000007" class="node">
<title>Node7</title>
<g id="a_Node000007"><a xlink:href="os_2kernel__mem_8h.html#a2b55f9d76c0a87c16c336ec837a80101" target="_top" xlink:title=" ">
<polygon fill="white" stroke="#666666" points="551,-93 498,-93 498,-74 551,-74 551,-93"/>
<text text-anchor="middle" x="524.5" y="-81" font-family="Helvetica,sans-Serif" font-size="10.00">kmaloc</text>
</a>
</g>
</g>
<!-- Node6&#45;&gt;Node7 -->
<g id="edge6_Node000006_Node000007" class="edge">
<title>Node6&#45;&gt;Node7</title>
<g id="a_edge6_Node000006_Node000007"><a xlink:title=" ">
<path fill="none" stroke="#63b8ff" d="M448.14,-56.03C460.31,-60.46 474.97,-65.81 488.11,-70.6"/>
<polygon fill="#63b8ff" stroke="#63b8ff" points="487.21,-74 497.8,-74.13 489.6,-67.42 487.21,-74"/>
</a>
</g>
</g>
<!-- Node8 -->
<g id="Node000008" class="node">
<title>Node8</title>
<g id="a_Node000008"><a xlink:href="group__list__api.html#ga9e661d1dcd51bd4eb3951488574058b0" target="_top" xlink:title="Initialize a list node [ Doubly circular].">
<polygon fill="white" stroke="#666666" points="551,-56 498,-56 498,-37 551,-37 551,-56"/>
<text text-anchor="middle" x="524.5" y="-44" font-family="Helvetica,sans-Serif" font-size="10.00">list_init</text>
</a>
</g>
</g>
<!-- Node6&#45;&gt;Node8 -->
<g id="edge7_Node000006_Node000008" class="edge">
<title>Node6&#45;&gt;Node8</title>
<g id="a_edge7_Node000006_Node000008"><a xlink:title=" ">
<path fill="none" stroke="#63b8ff" d="M461.24,-46.5C469.97,-46.5 479.17,-46.5 487.75,-46.5"/>
<polygon fill="#63b8ff" stroke="#63b8ff" points="487.82,-50 497.82,-46.5 487.82,-43 487.82,-50"/>
</a>
</g>
</g>
<!-- Node10 -->
<g id="Node000010" class="node">
<title>Node10</title>
<g id="a_Node000010"><a xlink:href="group__list__api.html#gab1766e25461b90b75aa3360245547452" target="_top" xlink:title="add a node in between two nodes.">
<polygon fill="white" stroke="#666666" points="552,-19 497,-19 497,0 552,0 552,-19"/>
<text text-anchor="middle" x="524.5" y="-7" font-family="Helvetica,sans-Serif" font-size="10.00">list_add</text>
</a>
</g>
</g>
<!-- Node9&#45;&gt;Node10 -->
<g id="edge9_Node000009_Node000010" class="edge">
<title>Node9&#45;&gt;Node10</title>
<g id="a_edge9_Node000009_Node000010"><a xlink:title=" ">
<path fill="none" stroke="#63b8ff" d="M459.22,-9.5C468.16,-9.5 477.72,-9.5 486.65,-9.5"/>
<polygon fill="#63b8ff" stroke="#63b8ff" points="486.77,-13 496.77,-9.5 486.77,-6 486.77,-13"/>
</a>
</g>
</g>
</g>
</svg>

<g id="navigator" transform="translate(0 0)" fill="#404254">
  <rect fill="#f2f5e9" fill-opacity="0.5" stroke="#606060" stroke-width=".5" x="0" y="0" width="60" height="60"/>
  <use id="zoomplus" xlink:href="#zoomPlus" x="17" y="9" onmousedown="handleZoom(evt,'in')"/>
  <use id="zoomminus" xlink:href="#zoomMin" x="42" y="9" onmousedown="handleZoom(evt,'out')"/>
  <use id="reset" xlink:href="#resetDef" x="30" y="36" onmousedown="handleReset()"/>
   <use id="arrowup" xlink:href="#arrowUp" x="0" y="0" onmousedown="handlePan(0,-1)"/>
  <use id="arrowright" xlink:href="#arrowRight" x="0" y="0" onmousedown="handlePan(1,0)"/>
  <use id="arrowdown" xlink:href="#arrowDown" x="0" y="0" onmousedown="handlePan(0,1)"/>
  <use id="arrowleft" xlink:href="#arrowLeft" x="0" y="0" onmousedown="handlePan(-1,0)"/>
</g>
<svg viewBox="0 0 15 15" width="100%" height="30px" preserveAspectRatio="xMaxYMin meet">
 <g id="arrow_out" transform="scale(0.3 0.3)">
  <a xlink:href="drv__irq_8h_aa6d6a8b2c4fbd552e34f19094702effa_cgraph_org.svg" target="_base">
   <rect id="button" ry="5" rx="5" y="6" x="6" height="38" width="38"
        fill="#f2f5e9" fill-opacity="0.5" stroke="#606060" stroke-width="1.0"/>
   <path id="arrow"
     d="M 11.500037,31.436501 C 11.940474,20.09759 22.043105,11.32322 32.158766,21.979434 L 37.068811,17.246167 C 37.068811,17.246167 37.088388,32 37.088388,32 L 22.160133,31.978069 C 22.160133,31.978069 26.997745,27.140456 26.997745,27.140456 C 18.528582,18.264221 13.291696,25.230495 11.500037,31.436501 z"
     style="fill:#404040;"/>
  </a>
 </g>
</svg>

<style type='text/css'>
<![CDATA[
[data-mouse-over-selected='false'] { opacity: 0.7; }
[data-mouse-over-selected='true']  { opacity: 1.0; }
]]>
</style>
<script type="application/ecmascript"><![CDATA[
document.addEventListener('DOMContentLoaded', (event) => {
  highlightEdges();
  highlightAdjacentNodes();
});
]]></script>
</svg>
