<?xml version="1.0" encoding="UTF-8" standalone="no"?>
<!DOCTYPE svg PUBLIC "-//W3C//DTD SVG 1.1//EN"
 "http://www.w3.org/Graphics/SVG/1.1/DTD/svg11.dtd">
<!-- Generated by graphviz version 2.43.0 (0)
 -->
<!-- Title: drv_gpio_get_handle Pages: 1 -->
<!--zoomable 249 -->

<svg id="main" version="1.1" xmlns="http://www.w3.org/2000/svg" xmlns:xlink="http://www.w3.org/1999/xlink" xml:space="preserve" onload="init(evt)">
<style type="text/css"><![CDATA[
.node, .edge {opacity: 0.7;}
.node.selected, .edge.selected {opacity: 1;}
.edge:hover path { stroke: red; }
.edge:hover polygon { stroke: red; fill: red; }
]]></style>

<defs>
  <circle id="rim" cx="0" cy="0" r="7"/>
  <circle id="rim2" cx="0" cy="0" r="3.5"/>
  <g id="zoomPlus">
    <use xlink:href="#rim" fill="#404040"><set attributeName="fill" to="#808080" begin="zoomplus.mouseover" end="zoomplus.mouseout"/></use>
    <path d="M-4,0h8M0,-4v8" fill="none" stroke="white" stroke-width="1.5" pointer-events="none"/>
  </g>
  <g id="zoomMin">
    <use xlink:href="#rim" fill="#404040"><set attributeName="fill" to="#808080" begin="zoomminus.mouseover" end="zoomminus.mouseout"/></use>
    <path d="M-4,0h8" fill="none" stroke="white" stroke-width="1.5" pointer-events="none"/>
  </g>
  <g id="arrowUp" transform="translate(30 24)">
    <use xlink:href="#rim"/>
    <path pointer-events="none" fill="none" stroke="white" stroke-width="1.5" d="M0,-3.0v7 M-2.5,-0.5L0,-3.0L2.5,-0.5"/>
  </g>
  <g id="arrowRight" transform="rotate(90) translate(36 -43)">
    <use xlink:href="#rim"/>
    <path pointer-events="none" fill="none" stroke="white" stroke-width="1.5" d="M0,-3.0v7 M-2.5,-0.5L0,-3.0L2.5,-0.5"/>
  </g>
  <g id="arrowDown" transform="rotate(180) translate(-30 -48)">
    <use xlink:href="#rim"/>
    <path pointer-events="none" fill="none" stroke="white" stroke-width="1.5" d="M0,-3.0v7 M-2.5,-0.5L0,-3.0L2.5,-0.5"/>
  </g>
  <g id="arrowLeft" transform="rotate(270) translate(-36 17)">
    <use xlink:href="#rim"/>
    <path pointer-events="none" fill="none" stroke="white" stroke-width="1.5" d="M0,-3.0v7 M-2.5,-0.5L0,-3.0L2.5,-0.5"/>
  </g>
  <g id="resetDef">
    <use xlink:href="#rim2" fill="#404040"><set attributeName="fill" to="#808080" begin="reset.mouseover" end="reset.mouseout"/></use>
  </g>
</defs>
<script type="application/ecmascript">
var viewWidth = 708;
var viewHeight = 249;
var sectionId = 'dynsection-2';
</script>
<script type="application/ecmascript" xlink:href="svg.min.js"/>
<svg id="graph" class="graph">
<g id="viewport">
<title>drv_gpio_get_handle</title>
<!-- Node1 -->
<g id="Node000001" class="node">
<title>Node1</title>
<g id="a_Node000001"><a xlink:title=" ">
<polygon fill="#999999" stroke="#666666" points="700,-130 582,-130 582,-111 700,-111 700,-130"/>
<text text-anchor="middle" x="641" y="-118" font-family="Helvetica,sans-Serif" font-size="10.00">drv_gpio_get_handle</text>
</a>
</g>
</g>
<!-- Node2 -->
<g id="Node000002" class="node">
<title>Node2</title>
<g id="a_Node000002"><a xlink:href="drv__gpio_8c.html#a145a214f10db2ed035805be58637a7c2" target="_top" xlink:title=" ">
<polygon fill="white" stroke="#666666" points="542.5,-241 434.5,-241 434.5,-222 542.5,-222 542.5,-241"/>
<text text-anchor="middle" x="488.5" y="-229" font-family="Helvetica,sans-Serif" font-size="10.00">drv_gpio_clear_pin</text>
</a>
</g>
</g>
<!-- Node1&#45;&gt;Node2 -->
<g id="edge1_Node000001_Node000002" class="edge">
<title>Node1&#45;&gt;Node2</title>
<g id="a_edge1_Node000001_Node000002"><a xlink:title=" ">
<path fill="none" stroke="#63b8ff" d="M626.53,-138.19C609.79,-159.01 579.34,-193.32 546,-213.5 540.45,-216.86 534.21,-219.65 527.96,-221.96"/>
<polygon fill="#63b8ff" stroke="#63b8ff" points="629.41,-140.19 632.83,-130.16 623.9,-135.87 629.41,-140.19"/>
</a>
</g>
</g>
<!-- Node3 -->
<g id="Node000003" class="node">
<title>Node3</title>
<g id="a_Node000003"><a xlink:href="drv__gpio_8c.html#a787e9f22742f4238e5488bc12026a7c6" target="_top" xlink:title=" ">
<polygon fill="white" stroke="#666666" points="541.5,-204 435.5,-204 435.5,-185 541.5,-185 541.5,-204"/>
<text text-anchor="middle" x="488.5" y="-192" font-family="Helvetica,sans-Serif" font-size="10.00">drv_gpio_read_pin</text>
</a>
</g>
</g>
<!-- Node1&#45;&gt;Node3 -->
<g id="edge2_Node000001_Node000003" class="edge">
<title>Node1&#45;&gt;Node3</title>
<g id="a_edge2_Node000001_Node000003"><a xlink:title=" ">
<path fill="none" stroke="#63b8ff" d="M617.87,-135.66C599.3,-147.9 571.75,-164.91 546,-176.5 538.96,-179.67 531.19,-182.53 523.73,-184.98"/>
<polygon fill="#63b8ff" stroke="#63b8ff" points="619.84,-138.55 626.21,-130.09 615.95,-132.73 619.84,-138.55"/>
</a>
</g>
</g>
<!-- Node4 -->
<g id="Node000004" class="node">
<title>Node4</title>
<g id="a_Node000004"><a xlink:href="drv__gpio_8c.html#a7fa46770eb6d5c422de831ed670a38dd" target="_top" xlink:title=" ">
<polygon fill="white" stroke="#666666" points="538,-167 439,-167 439,-148 538,-148 538,-167"/>
<text text-anchor="middle" x="488.5" y="-155" font-family="Helvetica,sans-Serif" font-size="10.00">drv_gpio_set_pin</text>
</a>
</g>
</g>
<!-- Node1&#45;&gt;Node4 -->
<g id="edge3_Node000001_Node000004" class="edge">
<title>Node1&#45;&gt;Node4</title>
<g id="a_edge3_Node000001_Node000004"><a xlink:title=" ">
<path fill="none" stroke="#63b8ff" d="M591.49,-132.43C571.08,-137.44 547.64,-143.21 528.39,-147.94"/>
<polygon fill="#63b8ff" stroke="#63b8ff" points="592.37,-135.81 601.24,-130.03 590.7,-129.02 592.37,-135.81"/>
</a>
</g>
</g>
<!-- Node5 -->
<g id="Node000005" class="node">
<title>Node5</title>
<g id="a_Node000005"><a xlink:href="drv__gpio_8c.html#a3865c86979373f0595b47c1030e070b4" target="_top" xlink:title=" ">
<polygon fill="white" stroke="#666666" points="546,-130 431,-130 431,-111 546,-111 546,-130"/>
<text text-anchor="middle" x="488.5" y="-118" font-family="Helvetica,sans-Serif" font-size="10.00">drv_gpio_toggle_pin</text>
</a>
</g>
</g>
<!-- Node1&#45;&gt;Node5 -->
<g id="edge4_Node000001_Node000005" class="edge">
<title>Node1&#45;&gt;Node5</title>
<g id="a_edge4_Node000001_Node000005"><a xlink:title=" ">
<path fill="none" stroke="#63b8ff" d="M571.79,-120.5C563.18,-120.5 554.45,-120.5 546.05,-120.5"/>
<polygon fill="#63b8ff" stroke="#63b8ff" points="571.81,-124 581.81,-120.5 571.81,-117 571.81,-124"/>
</a>
</g>
</g>
<!-- Node6 -->
<g id="Node000006" class="node">
<title>Node6</title>
<g id="a_Node000006"><a xlink:href="drv__gpio_8c.html#ad2b6dfe6b256e0e5e7eb49ceb1171632" target="_top" xlink:title=" ">
<polygon fill="white" stroke="#666666" points="543,-93 434,-93 434,-74 543,-74 543,-93"/>
<text text-anchor="middle" x="488.5" y="-81" font-family="Helvetica,sans-Serif" font-size="10.00">drv_gpio_write_pin</text>
</a>
</g>
</g>
<!-- Node1&#45;&gt;Node6 -->
<g id="edge5_Node000001_Node000006" class="edge">
<title>Node1&#45;&gt;Node6</title>
<g id="a_edge5_Node000001_Node000006"><a xlink:title=" ">
<path fill="none" stroke="#63b8ff" d="M591.49,-108.57C571.08,-103.56 547.64,-97.79 528.39,-93.06"/>
<polygon fill="#63b8ff" stroke="#63b8ff" points="590.7,-111.98 601.24,-110.97 592.37,-105.19 590.7,-111.98"/>
</a>
</g>
</g>
<!-- Node7 -->
<g id="Node000007" class="node">
<title>Node7</title>
<g id="a_Node000007"><a xlink:href="gpio__mgmt_8c.html#a2f7aa8d4452bd40df6190f1027d25c20" target="_top" xlink:title=" ">
<polygon fill="white" stroke="#666666" points="543,-56 434,-56 434,-37 543,-37 543,-56"/>
<text text-anchor="middle" x="488.5" y="-44" font-family="Helvetica,sans-Serif" font-size="10.00">gpio_mgmt_thread</text>
</a>
</g>
</g>
<!-- Node1&#45;&gt;Node7 -->
<g id="edge6_Node000001_Node000007" class="edge">
<title>Node1&#45;&gt;Node7</title>
<g id="a_edge6_Node000001_Node000007"><a xlink:title=" ">
<path fill="none" stroke="#63b8ff" d="M617.2,-105.37C598.59,-93.47 571.32,-77.02 546,-65.5 538.28,-61.99 529.7,-58.77 521.62,-56.03"/>
<polygon fill="#63b8ff" stroke="#63b8ff" points="615.55,-108.47 625.84,-110.97 619.35,-102.59 615.55,-108.47"/>
</a>
</g>
</g>
<!-- Node11 -->
<g id="Node000011" class="node">
<title>Node11</title>
<g id="a_Node000011"><a xlink:href="gpio__app_8c.html#aacfbd4b414f59c7b3f02f35579ddd5a1" target="_top" xlink:title="Read current logical state of a GPIO pin.">
<polygon fill="white" stroke="#666666" points="521,-19 456,-19 456,0 521,0 521,-19"/>
<text text-anchor="middle" x="488.5" y="-7" font-family="Helvetica,sans-Serif" font-size="10.00">gpio_read</text>
</a>
</g>
</g>
<!-- Node1&#45;&gt;Node11 -->
<g id="edge10_Node000001_Node000011" class="edge">
<title>Node1&#45;&gt;Node11</title>
<g id="a_edge10_Node000001_Node000011"><a xlink:title=" ">
<path fill="none" stroke="#63b8ff" d="M626.44,-103.1C609.6,-82.59 579.06,-48.74 546,-28.5 538.41,-23.85 529.54,-20.18 521.11,-17.36"/>
<polygon fill="#63b8ff" stroke="#63b8ff" points="623.79,-105.39 632.78,-111 629.24,-101.01 623.79,-105.39"/>
</a>
</g>
</g>
<!-- Node8 -->
<g id="Node000008" class="node">
<title>Node8</title>
<g id="a_Node000008"><a xlink:href="gpio__mgmt_8c.html#a7beb78991c70b9fc3165c93ce5b7ff6b" target="_top" xlink:title=" ">
<polygon fill="white" stroke="#666666" points="395,-56 295,-56 295,-37 395,-37 395,-56"/>
<text text-anchor="middle" x="345" y="-44" font-family="Helvetica,sans-Serif" font-size="10.00">gpio_mgmt_start</text>
</a>
</g>
</g>
<!-- Node7&#45;&gt;Node8 -->
<g id="edge7_Node000007_Node000008" class="edge">
<title>Node7&#45;&gt;Node8</title>
<g id="a_edge7_Node000007_Node000008"><a xlink:title=" ">
<path fill="none" stroke="#63b8ff" d="M423.39,-46.5C413.89,-46.5 404.23,-46.5 395.1,-46.5"/>
<polygon fill="#63b8ff" stroke="#63b8ff" points="423.6,-50 433.6,-46.5 423.6,-43 423.6,-50"/>
</a>
</g>
</g>
<!-- Node9 -->
<g id="Node000009" class="node">
<title>Node9</title>
<g id="a_Node000009"><a xlink:href="kernel__service__core_8c.html#a77b96ca30dab7f5f8e84daae1ed8f183" target="_top" xlink:title=" ">
<polygon fill="white" stroke="#666666" points="259,-56 116,-56 116,-37 259,-37 259,-56"/>
<text text-anchor="middle" x="187.5" y="-44" font-family="Helvetica,sans-Serif" font-size="10.00">os_kernel_thread_register</text>
</a>
</g>
</g>
<!-- Node8&#45;&gt;Node9 -->
<g id="edge8_Node000008_Node000009" class="edge">
<title>Node8&#45;&gt;Node9</title>
<g id="a_edge8_Node000008_Node000009"><a xlink:title=" ">
<path fill="none" stroke="#63b8ff" d="M284.79,-46.5C276.44,-46.5 267.79,-46.5 259.25,-46.5"/>
<polygon fill="#63b8ff" stroke="#63b8ff" points="284.8,-50 294.8,-46.5 284.8,-43 284.8,-50"/>
</a>
</g>
</g>
<!-- Node10 -->
<g id="Node000010" class="node">
<title>Node10</title>
<g id="a_Node000010"><a xlink:href="main_8c.html#ab1eba6ea917a2135efde6edb0de4baef" target="_top" xlink:title=" ">
<polygon fill="white" stroke="#666666" points="80,-56 0,-56 0,-37 80,-37 80,-56"/>
<text text-anchor="middle" x="40" y="-44" font-family="Helvetica,sans-Serif" font-size="10.00">__attribute__</text>
</a>
</g>
</g>
<!-- Node9&#45;&gt;Node10 -->
<g id="edge9_Node000009_Node000010" class="edge">
<title>Node9&#45;&gt;Node10</title>
<g id="a_edge9_Node000009_Node000010"><a xlink:title=" ">
<path fill="none" stroke="#63b8ff" d="M105.79,-46.5C96.9,-46.5 88.16,-46.5 80.12,-46.5"/>
<polygon fill="#63b8ff" stroke="#63b8ff" points="105.88,-50 115.88,-46.5 105.88,-43 105.88,-50"/>
</a>
</g>
</g>
</g>
</svg>

<g id="navigator" transform="translate(0 0)" fill="#404254">
  <rect fill="#f2f5e9" fill-opacity="0.5" stroke="#606060" stroke-width=".5" x="0" y="0" width="60" height="60"/>
  <use id="zoomplus" xlink:href="#zoomPlus" x="17" y="9" onmousedown="handleZoom(evt,'in')"/>
  <use id="zoomminus" xlink:href="#zoomMin" x="42" y="9" onmousedown="handleZoom(evt,'out')"/>
  <use id="reset" xlink:href="#resetDef" x="30" y="36" onmousedown="handleReset()"/>
   <use id="arrowup" xlink:href="#arrowUp" x="0" y="0" onmousedown="handlePan(0,-1)"/>
  <use id="arrowright" xlink:href="#arrowRight" x="0" y="0" onmousedown="handlePan(1,0)"/>
  <use id="arrowdown" xlink:href="#arrowDown" x="0" y="0" onmousedown="handlePan(0,1)"/>
  <use id="arrowleft" xlink:href="#arrowLeft" x="0" y="0" onmousedown="handlePan(-1,0)"/>
</g>
<svg viewBox="0 0 15 15" width="100%" height="30px" preserveAspectRatio="xMaxYMin meet">
 <g id="arrow_out" transform="scale(0.3 0.3)">
  <a xlink:href="drv__gpio_8c_a0c96221e67620454c2c8f08c9a785524_icgraph_org.svg" target="_base">
   <rect id="button" ry="5" rx="5" y="6" x="6" height="38" width="38"
        fill="#f2f5e9" fill-opacity="0.5" stroke="#606060" stroke-width="1.0"/>
   <path id="arrow"
     d="M 11.500037,31.436501 C 11.940474,20.09759 22.043105,11.32322 32.158766,21.979434 L 37.068811,17.246167 C 37.068811,17.246167 37.088388,32 37.088388,32 L 22.160133,31.978069 C 22.160133,31.978069 26.997745,27.140456 26.997745,27.140456 C 18.528582,18.264221 13.291696,25.230495 11.500037,31.436501 z"
     style="fill:#404040;"/>
  </a>
 </g>
</svg>

<style type='text/css'>
<![CDATA[
[data-mouse-over-selected='false'] { opacity: 0.7; }
[data-mouse-over-selected='true']  { opacity: 1.0; }
]]>
</style>
<script type="application/ecmascript"><![CDATA[
document.addEventListener('DOMContentLoaded', (event) => {
  highlightEdges();
  highlightAdjacentNodes();
});
]]></script>
</svg>
