<?xml version="1.0" encoding="UTF-8" standalone="no"?>
<!DOCTYPE svg PUBLIC "-//W3C//DTD SVG 1.1//EN"
 "http://www.w3.org/Graphics/SVG/1.1/DTD/svg11.dtd">
<!-- Generated by graphviz version 2.43.0 (0)
 -->
<!-- Title: dma_complete_callback Pages: 1 -->
<svg width="430pt" height="64pt"
 viewBox="0.00 0.00 430.00 64.00" xmlns="http://www.w3.org/2000/svg" xmlns:xlink="http://www.w3.org/1999/xlink">
<g id="graph0" class="graph" transform="scale(1 1) rotate(0) translate(4 60)">
<title>dma_complete_callback</title>
<!-- Node1 -->
<g id="Node000001" class="node">
<title>Node1</title>
<g id="a_Node000001"><a xlink:title=" ">
<polygon fill="#999999" stroke="#666666" points="135,-37 0,-37 0,-18 135,-18 135,-37"/>
<text text-anchor="middle" x="67.5" y="-25" font-family="Helvetica,sans-Serif" font-size="10.00">dma_complete_callback</text>
</a>
</g>
</g>
<!-- Node2 -->
<g id="Node000002" class="node">
<title>Node2</title>
<g id="a_Node000002"><a xlink:href="drv__dma_8c.html#ae80f74a7ebc0a8083170f7a78550b04d" target="_top" xlink:title=" ">
<polygon fill="white" stroke="#666666" points="279,-56 210,-56 210,-37 279,-37 279,-56"/>
<text text-anchor="middle" x="244.5" y="-44" font-family="Helvetica,sans-Serif" font-size="10.00">_desc_free</text>
</a>
</g>
</g>
<!-- Node1&#45;&gt;Node2 -->
<g id="edge1_Node000001_Node000002" class="edge">
<title>Node1&#45;&gt;Node2</title>
<g id="a_edge1_Node000001_Node000002"><a xlink:title=" ">
<path fill="none" stroke="#63b8ff" d="M135.16,-34.74C156.77,-37.08 180.19,-39.63 199.71,-41.75"/>
<polygon fill="#63b8ff" stroke="#63b8ff" points="199.5,-45.24 209.82,-42.84 200.25,-38.28 199.5,-45.24"/>
</a>
</g>
</g>
<!-- Node3 -->
<g id="Node000003" class="node">
<title>Node3</title>
<g id="a_Node000003"><a xlink:href="drv__dma_8c.html#a0adc2fd6fab28e2e68c0a9876f14b180" target="_top" xlink:title=" ">
<polygon fill="white" stroke="#666666" points="318,-19 171,-19 171,0 318,0 318,-19"/>
<text text-anchor="middle" x="244.5" y="-7" font-family="Helvetica,sans-Serif" font-size="10.00">dma_async_issue_pending</text>
</a>
</g>
</g>
<!-- Node1&#45;&gt;Node3 -->
<g id="edge2_Node000001_Node000003" class="edge">
<title>Node1&#45;&gt;Node3</title>
<g id="a_edge2_Node000001_Node000003"><a xlink:title=" ">
<path fill="none" stroke="#63b8ff" d="M135.16,-20.64C143.56,-19.78 152.23,-18.89 160.84,-18"/>
<polygon fill="#63b8ff" stroke="#63b8ff" points="161.31,-21.47 170.9,-16.97 160.59,-14.51 161.31,-21.47"/>
</a>
</g>
</g>
<!-- Node4 -->
<g id="Node000004" class="node">
<title>Node4</title>
<g id="a_Node000004"><a xlink:href="group__list__api.html#ga42ec4f71d5c7199de9b75f81b3f4e8ed" target="_top" xlink:title="Delete a node from the list.">
<polygon fill="white" stroke="#666666" points="422,-19 354,-19 354,0 422,0 422,-19"/>
<text text-anchor="middle" x="388" y="-7" font-family="Helvetica,sans-Serif" font-size="10.00">list_delete</text>
</a>
</g>
</g>
<!-- Node3&#45;&gt;Node4 -->
<g id="edge3_Node000003_Node000004" class="edge">
<title>Node3&#45;&gt;Node4</title>
<g id="a_edge3_Node000003_Node000004"><a xlink:title=" ">
<path fill="none" stroke="#63b8ff" d="M318.32,-9.5C326.99,-9.5 335.61,-9.5 343.67,-9.5"/>
<polygon fill="#63b8ff" stroke="#63b8ff" points="343.9,-13 353.9,-9.5 343.9,-6 343.9,-13"/>
</a>
</g>
</g>
</g>
</svg>
