<?xml version="1.0" encoding="UTF-8" standalone="no"?>
<!DOCTYPE svg PUBLIC "-//W3C//DTD SVG 1.1//EN"
 "http://www.w3.org/Graphics/SVG/1.1/DTD/svg11.dtd">
<!-- Generated by graphviz version 2.43.0 (0)
 -->
<!-- Title: _desc_alloc Pages: 1 -->
<svg width="247pt" height="134pt"
 viewBox="0.00 0.00 247.00 134.00" xmlns="http://www.w3.org/2000/svg" xmlns:xlink="http://www.w3.org/1999/xlink">
<g id="graph0" class="graph" transform="scale(1 1) rotate(0) translate(4 130)">
<title>_desc_alloc</title>
<!-- Node1 -->
<g id="Node000001" class="node">
<title>Node1</title>
<g id="a_Node000001"><a xlink:title=" ">
<polygon fill="#999999" stroke="#666666" points="239,-72.5 166,-72.5 166,-53.5 239,-53.5 239,-72.5"/>
<text text-anchor="middle" x="202.5" y="-60.5" font-family="Helvetica,sans-Serif" font-size="10.00">_desc_alloc</text>
</a>
</g>
</g>
<!-- Node2 -->
<g id="Node000002" class="node">
<title>Node2</title>
<g id="a_Node000002"><a xlink:href="drv__dma_8c.html#a4e7a4b1ef89bb29e81b169445c0e5536" target="_top" xlink:title=" ">
<polygon fill="white" stroke="#666666" points="127.5,-126 2.5,-126 2.5,-96 127.5,-96 127.5,-126"/>
<text text-anchor="start" x="10.5" y="-114" font-family="Helvetica,sans-Serif" font-size="10.00">dmaengine_prep_dma</text>
<text text-anchor="middle" x="65" y="-103" font-family="Helvetica,sans-Serif" font-size="10.00">_cyclic</text>
</a>
</g>
</g>
<!-- Node1&#45;&gt;Node2 -->
<g id="edge1_Node000001_Node000002" class="edge">
<title>Node1&#45;&gt;Node2</title>
<g id="a_edge1_Node000001_Node000002"><a xlink:title=" ">
<path fill="none" stroke="#63b8ff" d="M164.64,-76.06C147.3,-82.2 126.52,-89.56 108.52,-95.94"/>
<polygon fill="#63b8ff" stroke="#63b8ff" points="166.15,-79.24 174.41,-72.6 163.81,-72.64 166.15,-79.24"/>
</a>
</g>
</g>
<!-- Node3 -->
<g id="Node000003" class="node">
<title>Node3</title>
<g id="a_Node000003"><a xlink:href="drv__dma_8c.html#a033c3a8b58eb67996fa448956d081b30" target="_top" xlink:title=" ">
<polygon fill="white" stroke="#666666" points="127.5,-78 2.5,-78 2.5,-48 127.5,-48 127.5,-78"/>
<text text-anchor="start" x="10.5" y="-66" font-family="Helvetica,sans-Serif" font-size="10.00">dmaengine_prep_dma</text>
<text text-anchor="middle" x="65" y="-55" font-family="Helvetica,sans-Serif" font-size="10.00">_memcpy</text>
</a>
</g>
</g>
<!-- Node1&#45;&gt;Node3 -->
<g id="edge2_Node000001_Node000003" class="edge">
<title>Node1&#45;&gt;Node3</title>
<g id="a_edge2_Node000001_Node000003"><a xlink:title=" ">
<path fill="none" stroke="#63b8ff" d="M155.62,-63C146.6,-63 137,-63 127.56,-63"/>
<polygon fill="#63b8ff" stroke="#63b8ff" points="155.9,-66.5 165.9,-63 155.9,-59.5 155.9,-66.5"/>
</a>
</g>
</g>
<!-- Node4 -->
<g id="Node000004" class="node">
<title>Node4</title>
<g id="a_Node000004"><a xlink:href="drv__dma_8c.html#a8f2b1e38f956c560b4ee5ad4e72453a0" target="_top" xlink:title=" ">
<polygon fill="white" stroke="#666666" points="130,-30 0,-30 0,0 130,0 130,-30"/>
<text text-anchor="start" x="8" y="-18" font-family="Helvetica,sans-Serif" font-size="10.00">dmaengine_prep_slave</text>
<text text-anchor="middle" x="65" y="-7" font-family="Helvetica,sans-Serif" font-size="10.00">_single</text>
</a>
</g>
</g>
<!-- Node1&#45;&gt;Node4 -->
<g id="edge3_Node000001_Node000004" class="edge">
<title>Node1&#45;&gt;Node4</title>
<g id="a_edge3_Node000001_Node000004"><a xlink:title=" ">
<path fill="none" stroke="#63b8ff" d="M164.64,-49.94C147.3,-43.8 126.52,-36.44 108.52,-30.06"/>
<polygon fill="#63b8ff" stroke="#63b8ff" points="163.81,-53.36 174.41,-53.4 166.15,-46.76 163.81,-53.36"/>
</a>
</g>
</g>
</g>
</svg>
