<?xml version="1.0" encoding="UTF-8" standalone="no"?>
<!DOCTYPE svg PUBLIC "-//W3C//DTD SVG 1.1//EN"
 "http://www.w3.org/Graphics/SVG/1.1/DTD/svg11.dtd">
<!-- Generated by graphviz version 2.43.0 (0)
 -->
<!-- Title: drv_uart.h Pages: 1 -->
<svg width="1329pt" height="247pt"
 viewBox="0.00 0.00 1329.00 247.00" xmlns="http://www.w3.org/2000/svg" xmlns:xlink="http://www.w3.org/1999/xlink">
<g id="graph0" class="graph" transform="scale(1 1) rotate(0) translate(4 243)">
<title>drv_uart.h</title>
<!-- Node1 -->
<g id="Node000001" class="node">
<title>Node1</title>
<g id="a_Node000001"><a xlink:title=" ">
<polygon fill="#999999" stroke="#666666" points="1010,-239 944,-239 944,-220 1010,-220 1010,-239"/>
<text text-anchor="middle" x="977" y="-227" font-family="Helvetica,sans-Serif" font-size="10.00">drv_uart.h</text>
</a>
</g>
</g>
<!-- Node2 -->
<g id="Node000002" class="node">
<title>Node2</title>
<g id="a_Node000002"><a xlink:href="def__std_8h.html" target="_top" xlink:title=" ">
<polygon fill="white" stroke="#666666" points="1047,-74 985,-74 985,-55 1047,-55 1047,-74"/>
<text text-anchor="middle" x="1016" y="-62" font-family="Helvetica,sans-Serif" font-size="10.00">def_std.h</text>
</a>
</g>
</g>
<!-- Node1&#45;&gt;Node2 -->
<g id="edge1_Node000001_Node000002" class="edge">
<title>Node1&#45;&gt;Node2</title>
<g id="a_edge1_Node000001_Node000002"><a xlink:title=" ">
<path fill="none" stroke="#63b8ff" d="M985.27,-219.82C1000.11,-203.57 1030.76,-166.77 1042,-129 1046.81,-112.83 1038.34,-95.12 1029.81,-82.52"/>
<polygon fill="#63b8ff" stroke="#63b8ff" points="1032.54,-80.31 1023.78,-74.34 1026.9,-84.47 1032.54,-80.31"/>
</a>
</g>
</g>
<!-- Node10 -->
<g id="Node000010" class="node">
<title>Node10</title>
<g id="a_Node000010"><a xlink:href="def__compiler_8h.html" target="_top" xlink:title=" ">
<polygon fill="white" stroke="#666666" points="515.5,-129 426.5,-129 426.5,-110 515.5,-110 515.5,-129"/>
<text text-anchor="middle" x="471" y="-117" font-family="Helvetica,sans-Serif" font-size="10.00">def_compiler.h</text>
</a>
</g>
</g>
<!-- Node1&#45;&gt;Node10 -->
<g id="edge9_Node000001_Node000010" class="edge">
<title>Node1&#45;&gt;Node10</title>
<g id="a_edge9_Node000001_Node000010"><a xlink:title=" ">
<path fill="none" stroke="#63b8ff" d="M943.91,-224.81C890.09,-218.49 780.37,-204.28 689,-184 623.44,-169.45 548.61,-146.15 505.87,-132.18"/>
<polygon fill="#63b8ff" stroke="#63b8ff" points="506.82,-128.81 496.23,-129.01 504.64,-135.46 506.82,-128.81"/>
</a>
</g>
</g>
<!-- Node11 -->
<g id="Node000011" class="node">
<title>Node11</title>
<g id="a_Node000011"><a xlink:href="def__env__macros_8h.html" target="_top" xlink:title=" ">
<polygon fill="white" stroke="#666666" points="955,-129 849,-129 849,-110 955,-110 955,-129"/>
<text text-anchor="middle" x="902" y="-117" font-family="Helvetica,sans-Serif" font-size="10.00">def_env_macros.h</text>
</a>
</g>
</g>
<!-- Node1&#45;&gt;Node11 -->
<g id="edge10_Node000001_Node000011" class="edge">
<title>Node1&#45;&gt;Node11</title>
<g id="a_edge10_Node000001_Node000011"><a xlink:title=" ">
<path fill="none" stroke="#63b8ff" d="M970.86,-219.66C958.38,-201.69 929.88,-160.64 913.72,-137.38"/>
<polygon fill="#63b8ff" stroke="#63b8ff" points="916.59,-135.38 908.01,-129.16 910.84,-139.37 916.59,-135.38"/>
</a>
</g>
</g>
<!-- Node12 -->
<g id="Node000012" class="node">
<title>Node12</title>
<g id="a_Node000012"><a xlink:href="def__hw_8h.html" target="_top" xlink:title=" ">
<polygon fill="white" stroke="#666666" points="1033,-129 973,-129 973,-110 1033,-110 1033,-129"/>
<text text-anchor="middle" x="1003" y="-117" font-family="Helvetica,sans-Serif" font-size="10.00">def_hw.h</text>
</a>
</g>
</g>
<!-- Node1&#45;&gt;Node12 -->
<g id="edge11_Node000001_Node000012" class="edge">
<title>Node1&#45;&gt;Node12</title>
<g id="a_edge11_Node000001_Node000012"><a xlink:title=" ">
<path fill="none" stroke="#63b8ff" d="M979.13,-219.66C983.36,-202.09 992.9,-162.45 998.56,-138.95"/>
<polygon fill="#63b8ff" stroke="#63b8ff" points="1001.98,-139.7 1000.92,-129.16 995.17,-138.06 1001.98,-139.7"/>
</a>
</g>
</g>
<!-- Node13 -->
<g id="Node000013" class="node">
<title>Node13</title>
<g id="a_Node000013"><a xlink:href="conf__os_8h.html" target="_top" xlink:title=" ">
<polygon fill="white" stroke="#666666" points="1152.5,-129 1089.5,-129 1089.5,-110 1152.5,-110 1152.5,-129"/>
<text text-anchor="middle" x="1121" y="-117" font-family="Helvetica,sans-Serif" font-size="10.00">conf_os.h</text>
</a>
</g>
</g>
<!-- Node1&#45;&gt;Node13 -->
<g id="edge12_Node000001_Node000013" class="edge">
<title>Node1&#45;&gt;Node13</title>
<g id="a_edge12_Node000001_Node000013"><a xlink:title=" ">
<path fill="none" stroke="#63b8ff" d="M1005.77,-219.87C1026.55,-212.64 1054.45,-200.79 1075,-184 1090.44,-171.39 1103.27,-152.42 1111.42,-138.5"/>
<polygon fill="#63b8ff" stroke="#63b8ff" points="1114.67,-139.86 1116.5,-129.42 1108.56,-136.44 1114.67,-139.86"/>
</a>
</g>
</g>
<!-- Node15 -->
<g id="Node000015" class="node">
<title>Node15</title>
<g id="a_Node000015"><a xlink:href="ipc_2ringbuffer_8h.html" target="_top" xlink:title=" ">
<polygon fill="white" stroke="#666666" points="268.5,-129 179.5,-129 179.5,-110 268.5,-110 268.5,-129"/>
<text text-anchor="middle" x="224" y="-117" font-family="Helvetica,sans-Serif" font-size="10.00">ipc/ringbuffer.h</text>
</a>
</g>
</g>
<!-- Node1&#45;&gt;Node15 -->
<g id="edge14_Node000001_Node000015" class="edge">
<title>Node1&#45;&gt;Node15</title>
<g id="a_edge14_Node000001_Node000015"><a xlink:title=" ">
<path fill="none" stroke="#63b8ff" d="M943.82,-224.89C879.76,-217.84 734.64,-201.36 613,-184 493.47,-166.94 353.91,-143.23 278.72,-130.14"/>
<polygon fill="#63b8ff" stroke="#63b8ff" points="278.99,-126.64 268.54,-128.37 277.79,-133.53 278.99,-126.64"/>
</a>
</g>
</g>
<!-- Node17 -->
<g id="Node000017" class="node">
<title>Node17</title>
<g id="a_Node000017"><a xlink:href="mqueue_8h.html" target="_top" xlink:title=" ">
<polygon fill="white" stroke="#666666" points="780.5,-184 697.5,-184 697.5,-165 780.5,-165 780.5,-184"/>
<text text-anchor="middle" x="739" y="-172" font-family="Helvetica,sans-Serif" font-size="10.00">ipc/mqueue.h</text>
</a>
</g>
</g>
<!-- Node1&#45;&gt;Node17 -->
<g id="edge17_Node000001_Node000017" class="edge">
<title>Node1&#45;&gt;Node17</title>
<g id="a_edge17_Node000001_Node000017"><a xlink:title=" ">
<path fill="none" stroke="#63b8ff" d="M943.91,-221.13C903.21,-212.07 833.81,-196.61 787.19,-186.23"/>
<polygon fill="#63b8ff" stroke="#63b8ff" points="787.84,-182.79 777.32,-184.03 786.32,-189.62 787.84,-182.79"/>
</a>
</g>
</g>
<!-- Node30 -->
<g id="Node000030" class="node">
<title>Node30</title>
<g id="a_Node000030"><a xlink:href="global__var_8h.html" target="_top" xlink:title=" ">
<polygon fill="white" stroke="#666666" points="1225.5,-184 1132.5,-184 1132.5,-165 1225.5,-165 1225.5,-184"/>
<text text-anchor="middle" x="1179" y="-172" font-family="Helvetica,sans-Serif" font-size="10.00">ipc/global_var.h</text>
</a>
</g>
</g>
<!-- Node1&#45;&gt;Node30 -->
<g id="edge40_Node000001_Node000030" class="edge">
<title>Node1&#45;&gt;Node30</title>
<g id="a_edge40_Node000001_Node000030"><a xlink:title=" ">
<path fill="none" stroke="#63b8ff" d="M1009.45,-219.98C1043.96,-210.93 1098.66,-196.58 1136.56,-186.64"/>
<polygon fill="#63b8ff" stroke="#63b8ff" points="1137.51,-190.01 1146.29,-184.08 1135.73,-183.23 1137.51,-190.01"/>
</a>
</g>
</g>
<!-- Node3 -->
<g id="Node000003" class="node">
<title>Node3</title>
<g id="a_Node000003"><a xlink:title=" ">
<polygon fill="#e0e0e0" stroke="#999999" points="1080.5,-19 1027.5,-19 1027.5,0 1080.5,0 1080.5,-19"/>
<text text-anchor="middle" x="1054" y="-7" font-family="Helvetica,sans-Serif" font-size="10.00">stdlib.h</text>
</a>
</g>
</g>
<!-- Node2&#45;&gt;Node3 -->
<g id="edge2_Node000002_Node000003" class="edge">
<title>Node2&#45;&gt;Node3</title>
<g id="a_edge2_Node000002_Node000003"><a xlink:title=" ">
<path fill="none" stroke="#63b8ff" d="M1022.27,-54.75C1027.59,-47.34 1035.36,-36.5 1041.88,-27.41"/>
<polygon fill="#63b8ff" stroke="#63b8ff" points="1044.86,-29.26 1047.84,-19.09 1039.17,-25.18 1044.86,-29.26"/>
</a>
</g>
</g>
<!-- Node4 -->
<g id="Node000004" class="node">
<title>Node4</title>
<g id="a_Node000004"><a xlink:title=" ">
<polygon fill="#e0e0e0" stroke="#999999" points="1149.5,-19 1098.5,-19 1098.5,0 1149.5,0 1149.5,-19"/>
<text text-anchor="middle" x="1124" y="-7" font-family="Helvetica,sans-Serif" font-size="10.00">errno.h</text>
</a>
</g>
</g>
<!-- Node2&#45;&gt;Node4 -->
<g id="edge3_Node000002_Node000004" class="edge">
<title>Node2&#45;&gt;Node4</title>
<g id="a_edge3_Node000002_Node000004"><a xlink:title=" ">
<path fill="none" stroke="#63b8ff" d="M1033.35,-54.98C1050.57,-46.54 1077.2,-33.47 1097.15,-23.68"/>
<polygon fill="#63b8ff" stroke="#63b8ff" points="1098.9,-26.72 1106.33,-19.17 1095.81,-20.43 1098.9,-26.72"/>
</a>
</g>
</g>
<!-- Node5 -->
<g id="Node000005" class="node">
<title>Node5</title>
<g id="a_Node000005"><a xlink:title=" ">
<polygon fill="#e0e0e0" stroke="#999999" points="1218,-19 1168,-19 1168,0 1218,0 1218,-19"/>
<text text-anchor="middle" x="1193" y="-7" font-family="Helvetica,sans-Serif" font-size="10.00">stdio.h</text>
</a>
</g>
</g>
<!-- Node2&#45;&gt;Node5 -->
<g id="edge4_Node000002_Node000005" class="edge">
<title>Node2&#45;&gt;Node5</title>
<g id="a_edge4_Node000002_Node000005"><a xlink:title=" ">
<path fill="none" stroke="#63b8ff" d="M1044.44,-54.98C1075.35,-45.73 1124.76,-30.93 1158.02,-20.97"/>
<polygon fill="#63b8ff" stroke="#63b8ff" points="1159.21,-24.27 1167.79,-18.05 1157.2,-17.57 1159.21,-24.27"/>
</a>
</g>
</g>
<!-- Node6 -->
<g id="Node000006" class="node">
<title>Node6</title>
<g id="a_Node000006"><a xlink:title=" ">
<polygon fill="#e0e0e0" stroke="#999999" points="859.5,-19 804.5,-19 804.5,0 859.5,0 859.5,-19"/>
<text text-anchor="middle" x="832" y="-7" font-family="Helvetica,sans-Serif" font-size="10.00">signal.h</text>
</a>
</g>
</g>
<!-- Node2&#45;&gt;Node6 -->
<g id="edge5_Node000002_Node000006" class="edge">
<title>Node2&#45;&gt;Node6</title>
<g id="a_edge5_Node000002_Node000006"><a xlink:title=" ">
<path fill="none" stroke="#63b8ff" d="M986.44,-54.98C954.63,-45.82 903.97,-31.23 869.41,-21.28"/>
<polygon fill="#63b8ff" stroke="#63b8ff" points="870.26,-17.88 859.68,-18.47 868.32,-24.61 870.26,-17.88"/>
</a>
</g>
</g>
<!-- Node7 -->
<g id="Node000007" class="node">
<title>Node7</title>
<g id="a_Node000007"><a xlink:title=" ">
<polygon fill="#e0e0e0" stroke="#999999" points="926,-19 878,-19 878,0 926,0 926,-19"/>
<text text-anchor="middle" x="902" y="-7" font-family="Helvetica,sans-Serif" font-size="10.00">time.h</text>
</a>
</g>
</g>
<!-- Node2&#45;&gt;Node7 -->
<g id="edge6_Node000002_Node000007" class="edge">
<title>Node2&#45;&gt;Node7</title>
<g id="a_edge6_Node000002_Node000007"><a xlink:title=" ">
<path fill="none" stroke="#63b8ff" d="M997.68,-54.98C979.34,-46.46 950.89,-33.23 929.77,-23.41"/>
<polygon fill="#63b8ff" stroke="#63b8ff" points="931.19,-20.21 920.65,-19.17 928.24,-26.56 931.19,-20.21"/>
</a>
</g>
</g>
<!-- Node8 -->
<g id="Node000008" class="node">
<title>Node8</title>
<g id="a_Node000008"><a xlink:title=" ">
<polygon fill="#e0e0e0" stroke="#999999" points="467.5,-19 414.5,-19 414.5,0 467.5,0 467.5,-19"/>
<text text-anchor="middle" x="441" y="-7" font-family="Helvetica,sans-Serif" font-size="10.00">stdint.h</text>
</a>
</g>
</g>
<!-- Node2&#45;&gt;Node8 -->
<g id="edge7_Node000002_Node000008" class="edge">
<title>Node2&#45;&gt;Node8</title>
<g id="a_edge7_Node000002_Node000008"><a xlink:title=" ">
<path fill="none" stroke="#63b8ff" d="M984.62,-56.44C981.72,-55.91 978.81,-55.41 976,-55 789.89,-27.6 564.69,-15.74 477.73,-11.95"/>
<polygon fill="#63b8ff" stroke="#63b8ff" points="477.72,-8.45 467.58,-11.52 477.42,-15.44 477.72,-8.45"/>
</a>
</g>
</g>
<!-- Node9 -->
<g id="Node000009" class="node">
<title>Node9</title>
<g id="a_Node000009"><a xlink:title=" ">
<polygon fill="#e0e0e0" stroke="#999999" points="1009.5,-19 944.5,-19 944.5,0 1009.5,0 1009.5,-19"/>
<text text-anchor="middle" x="977" y="-7" font-family="Helvetica,sans-Serif" font-size="10.00">inttypes.h</text>
</a>
</g>
</g>
<!-- Node2&#45;&gt;Node9 -->
<g id="edge8_Node000002_Node000009" class="edge">
<title>Node2&#45;&gt;Node9</title>
<g id="a_edge8_Node000002_Node000009"><a xlink:title=" ">
<path fill="none" stroke="#63b8ff" d="M1009.56,-54.75C1004.11,-47.34 996.14,-36.5 989.44,-27.41"/>
<polygon fill="#63b8ff" stroke="#63b8ff" points="992.07,-25.07 983.32,-19.09 986.43,-29.22 992.07,-25.07"/>
</a>
</g>
</g>
<!-- Node14 -->
<g id="Node000014" class="node">
<title>Node14</title>
<g id="a_Node000014"><a xlink:href="autoconf_8h.html" target="_top" xlink:title=" ">
<polygon fill="white" stroke="#666666" points="1155,-74 1087,-74 1087,-55 1155,-55 1155,-74"/>
<text text-anchor="middle" x="1121" y="-62" font-family="Helvetica,sans-Serif" font-size="10.00">autoconf.h</text>
</a>
</g>
</g>
<!-- Node13&#45;&gt;Node14 -->
<g id="edge13_Node000013_Node000014" class="edge">
<title>Node13&#45;&gt;Node14</title>
<g id="a_edge13_Node000013_Node000014"><a xlink:title=" ">
<path fill="none" stroke="#63b8ff" d="M1121,-109.75C1121,-102.8 1121,-92.85 1121,-84.13"/>
<polygon fill="#63b8ff" stroke="#63b8ff" points="1124.5,-84.09 1121,-74.09 1117.5,-84.09 1124.5,-84.09"/>
</a>
</g>
</g>
<!-- Node15&#45;&gt;Node8 -->
<g id="edge15_Node000015_Node000008" class="edge">
<title>Node15&#45;&gt;Node8</title>
<g id="a_edge15_Node000015_Node000008"><a xlink:title=" ">
<path fill="none" stroke="#63b8ff" d="M179.22,-111.29C134.92,-102.3 77.19,-84.43 103,-55 122.67,-32.57 321.02,-17.87 404.4,-12.63"/>
<polygon fill="#63b8ff" stroke="#63b8ff" points="404.67,-16.12 414.44,-12.01 404.24,-9.14 404.67,-16.12"/>
</a>
</g>
</g>
<!-- Node16 -->
<g id="Node000016" class="node">
<title>Node16</title>
<g id="a_Node000016"><a xlink:title=" ">
<polygon fill="#e0e0e0" stroke="#999999" points="56,-74 0,-74 0,-55 56,-55 56,-74"/>
<text text-anchor="middle" x="28" y="-62" font-family="Helvetica,sans-Serif" font-size="10.00">stddef.h</text>
</a>
</g>
</g>
<!-- Node15&#45;&gt;Node16 -->
<g id="edge16_Node000015_Node000016" class="edge">
<title>Node15&#45;&gt;Node16</title>
<g id="a_edge16_Node000015_Node000016"><a xlink:title=" ">
<path fill="none" stroke="#63b8ff" d="M192.51,-109.98C158.09,-100.68 102.94,-85.76 66.1,-75.8"/>
<polygon fill="#63b8ff" stroke="#63b8ff" points="66.8,-72.37 56.23,-73.13 64.97,-79.12 66.8,-72.37"/>
</a>
</g>
</g>
<!-- Node17&#45;&gt;Node2 -->
<g id="edge18_Node000017_Node000002" class="edge">
<title>Node17&#45;&gt;Node2</title>
<g id="a_edge18_Node000017_Node000002"><a xlink:title=" ">
<path fill="none" stroke="#63b8ff" d="M739.05,-164.57C739.64,-150.65 742.94,-123.94 759,-110 830.44,-47.97 876.87,-89.3 974.64,-74.03"/>
<polygon fill="#63b8ff" stroke="#63b8ff" points="975.33,-77.47 984.58,-72.32 974.13,-70.57 975.33,-77.47"/>
</a>
</g>
</g>
<!-- Node17&#45;&gt;Node10 -->
<g id="edge19_Node000017_Node000010" class="edge">
<title>Node17&#45;&gt;Node10</title>
<g id="a_edge19_Node000017_Node000010"><a xlink:title=" ">
<path fill="none" stroke="#63b8ff" d="M697.42,-165.28C650.69,-156.04 574.74,-141.01 523.84,-130.95"/>
<polygon fill="#63b8ff" stroke="#63b8ff" points="524.5,-127.51 514.01,-129.01 523.14,-134.38 524.5,-127.51"/>
</a>
</g>
</g>
<!-- Node17&#45;&gt;Node11 -->
<g id="edge22_Node000017_Node000011" class="edge">
<title>Node17&#45;&gt;Node11</title>
<g id="a_edge22_Node000017_Node000011"><a xlink:title=" ">
<path fill="none" stroke="#63b8ff" d="M765.19,-164.98C792.44,-156.13 835.3,-142.19 865.78,-132.28"/>
<polygon fill="#63b8ff" stroke="#63b8ff" points="867.18,-135.5 875.61,-129.08 865.01,-128.85 867.18,-135.5"/>
</a>
</g>
</g>
<!-- Node17&#45;&gt;Node12 -->
<g id="edge23_Node000017_Node000012" class="edge">
<title>Node17&#45;&gt;Node12</title>
<g id="a_edge23_Node000017_Node000012"><a xlink:title=" ">
<path fill="none" stroke="#63b8ff" d="M780.52,-165.54C823.68,-157.21 893.44,-143.58 962.97,-129.18"/>
<polygon fill="#63b8ff" stroke="#63b8ff" points="963.7,-132.61 972.78,-127.15 962.28,-125.75 963.7,-132.61"/>
</a>
</g>
</g>
<!-- Node17&#45;&gt;Node13 -->
<g id="edge24_Node000017_Node000013" class="edge">
<title>Node17&#45;&gt;Node13</title>
<g id="a_edge24_Node000017_Node000013"><a xlink:title=" ">
<path fill="none" stroke="#63b8ff" d="M780.61,-167.73C853.96,-157.55 1005.47,-136.53 1079.06,-126.32"/>
<polygon fill="#63b8ff" stroke="#63b8ff" points="1079.91,-129.73 1089.34,-124.89 1078.95,-122.8 1079.91,-129.73"/>
</a>
</g>
</g>
<!-- Node17&#45;&gt;Node15 -->
<g id="edge25_Node000017_Node000015" class="edge">
<title>Node17&#45;&gt;Node15</title>
<g id="a_edge25_Node000017_Node000015"><a xlink:title=" ">
<path fill="none" stroke="#63b8ff" d="M697.29,-169.21C604.8,-159.69 382.52,-136.81 278.9,-126.15"/>
<polygon fill="#63b8ff" stroke="#63b8ff" points="278.96,-122.64 268.65,-125.1 278.24,-129.6 278.96,-122.64"/>
</a>
</g>
</g>
<!-- Node18 -->
<g id="Node000018" class="node">
<title>Node18</title>
<g id="a_Node000018"><a xlink:href="list_8h.html" target="_top" xlink:title="All linked list operation functions definitions and macros.">
<polygon fill="white" stroke="#666666" points="830.5,-129 767.5,-129 767.5,-110 830.5,-110 830.5,-129"/>
<text text-anchor="middle" x="799" y="-117" font-family="Helvetica,sans-Serif" font-size="10.00">mm/list.h</text>
</a>
</g>
</g>
<!-- Node17&#45;&gt;Node18 -->
<g id="edge20_Node000017_Node000018" class="edge">
<title>Node17&#45;&gt;Node18</title>
<g id="a_edge20_Node000017_Node000018"><a xlink:title=" ">
<path fill="none" stroke="#63b8ff" d="M748.64,-164.98C757.51,-157.15 770.87,-145.34 781.61,-135.86"/>
<polygon fill="#63b8ff" stroke="#63b8ff" points="784.01,-138.41 789.18,-129.17 779.37,-133.17 784.01,-138.41"/>
</a>
</g>
</g>
<!-- Node19 -->
<g id="Node000019" class="node">
<title>Node19</title>
<g id="a_Node000019"><a xlink:href="os_2kernel__mem_8h.html" target="_top" xlink:title=" ">
<polygon fill="white" stroke="#666666" points="634.5,-129 533.5,-129 533.5,-110 634.5,-110 634.5,-129"/>
<text text-anchor="middle" x="584" y="-117" font-family="Helvetica,sans-Serif" font-size="10.00">os/kernel_mem.h</text>
</a>
</g>
</g>
<!-- Node17&#45;&gt;Node19 -->
<g id="edge26_Node000017_Node000019" class="edge">
<title>Node17&#45;&gt;Node19</title>
<g id="a_edge26_Node000017_Node000019"><a xlink:title=" ">
<path fill="none" stroke="#63b8ff" d="M714.1,-164.98C688.3,-156.16 647.78,-142.31 618.82,-132.41"/>
<polygon fill="#63b8ff" stroke="#63b8ff" points="619.69,-129.01 609.1,-129.08 617.43,-135.63 619.69,-129.01"/>
</a>
</g>
</g>
<!-- Node22 -->
<g id="Node000022" class="node">
<title>Node22</title>
<g id="a_Node000022"><a xlink:title=" ">
<polygon fill="#e0e0e0" stroke="#999999" points="893,-74 821,-74 821,-55 893,-55 893,-74"/>
<text text-anchor="middle" x="857" y="-62" font-family="Helvetica,sans-Serif" font-size="10.00">FreeRTOS.h</text>
</a>
</g>
</g>
<!-- Node17&#45;&gt;Node22 -->
<g id="edge38_Node000017_Node000022" class="edge">
<title>Node17&#45;&gt;Node22</title>
<g id="a_edge38_Node000017_Node000022"><a xlink:title=" ">
<path fill="none" stroke="#63b8ff" d="M723.14,-165C702.7,-152.93 671.5,-130.08 687,-110 694.7,-100.02 763.29,-84.38 810.96,-74.55"/>
<polygon fill="#63b8ff" stroke="#63b8ff" points="811.68,-77.97 820.78,-72.54 810.28,-71.12 811.68,-77.97"/>
</a>
</g>
</g>
<!-- Node24 -->
<g id="Node000024" class="node">
<title>Node24</title>
<g id="a_Node000024"><a xlink:title=" ">
<polygon fill="#e0e0e0" stroke="#999999" points="967,-74 911,-74 911,-55 967,-55 967,-74"/>
<text text-anchor="middle" x="939" y="-62" font-family="Helvetica,sans-Serif" font-size="10.00">queue.h</text>
</a>
</g>
</g>
<!-- Node17&#45;&gt;Node24 -->
<g id="edge39_Node000017_Node000024" class="edge">
<title>Node17&#45;&gt;Node24</title>
<g id="a_edge39_Node000017_Node000024"><a xlink:title=" ">
<path fill="none" stroke="#63b8ff" d="M732.91,-164.64C724.56,-151.29 712,-125.91 725,-110 773.81,-50.26 819.81,-87.78 900.69,-74.01"/>
<polygon fill="#63b8ff" stroke="#63b8ff" points="901.58,-77.41 910.73,-72.07 900.25,-70.53 901.58,-77.41"/>
</a>
</g>
</g>
<!-- Node18&#45;&gt;Node2 -->
<g id="edge21_Node000018_Node000002" class="edge">
<title>Node18&#45;&gt;Node2</title>
<g id="a_edge21_Node000018_Node000002"><a xlink:title=" ">
<path fill="none" stroke="#63b8ff" d="M830.55,-110.79C868.67,-101.48 932.89,-85.8 974.86,-75.55"/>
<polygon fill="#63b8ff" stroke="#63b8ff" points="975.88,-78.9 984.76,-73.13 974.22,-72.1 975.88,-78.9"/>
</a>
</g>
</g>
<!-- Node19&#45;&gt;Node2 -->
<g id="edge27_Node000019_Node000002" class="edge">
<title>Node19&#45;&gt;Node2</title>
<g id="a_edge27_Node000019_Node000002"><a xlink:title=" ">
<path fill="none" stroke="#63b8ff" d="M634.65,-114.32C707.65,-107.95 846.84,-94.52 974.65,-74.08"/>
<polygon fill="#63b8ff" stroke="#63b8ff" points="975.3,-77.52 984.61,-72.47 974.18,-70.61 975.3,-77.52"/>
</a>
</g>
</g>
<!-- Node20 -->
<g id="Node000020" class="node">
<title>Node20</title>
<g id="a_Node000020"><a xlink:href="def__err_8h.html" target="_top" xlink:title=" ">
<polygon fill="white" stroke="#666666" points="282.5,-74 223.5,-74 223.5,-55 282.5,-55 282.5,-74"/>
<text text-anchor="middle" x="253" y="-62" font-family="Helvetica,sans-Serif" font-size="10.00">def_err.h</text>
</a>
</g>
</g>
<!-- Node19&#45;&gt;Node20 -->
<g id="edge28_Node000019_Node000020" class="edge">
<title>Node19&#45;&gt;Node20</title>
<g id="a_edge28_Node000019_Node000020"><a xlink:title=" ">
<path fill="none" stroke="#63b8ff" d="M533.48,-111.2C466.62,-101.47 351.28,-84.44 292.69,-74"/>
<polygon fill="#63b8ff" stroke="#63b8ff" points="293.24,-70.54 282.77,-72.19 291.98,-77.43 293.24,-70.54"/>
</a>
</g>
</g>
<!-- Node21 -->
<g id="Node000021" class="node">
<title>Node21</title>
<g id="a_Node000021"><a xlink:href="def__attributes_8h.html" target="_top" xlink:title=" ">
<polygon fill="white" stroke="#666666" points="395,-74 301,-74 301,-55 395,-55 395,-74"/>
<text text-anchor="middle" x="348" y="-62" font-family="Helvetica,sans-Serif" font-size="10.00">def_attributes.h</text>
</a>
</g>
</g>
<!-- Node19&#45;&gt;Node21 -->
<g id="edge29_Node000019_Node000021" class="edge">
<title>Node19&#45;&gt;Node21</title>
<g id="a_edge29_Node000019_Node000021"><a xlink:title=" ">
<path fill="none" stroke="#63b8ff" d="M546.08,-109.98C505.35,-100.84 440.5,-86.27 396.18,-76.32"/>
<polygon fill="#63b8ff" stroke="#63b8ff" points="396.74,-72.86 386.21,-74.08 395.2,-79.69 396.74,-72.86"/>
</a>
</g>
</g>
<!-- Node19&#45;&gt;Node22 -->
<g id="edge30_Node000019_Node000022" class="edge">
<title>Node19&#45;&gt;Node22</title>
<g id="a_edge30_Node000019_Node000022"><a xlink:title=" ">
<path fill="none" stroke="#63b8ff" d="M627.86,-109.98C677.92,-100.27 759.45,-84.44 810.56,-74.52"/>
<polygon fill="#63b8ff" stroke="#63b8ff" points="811.52,-77.89 820.67,-72.55 810.19,-71.02 811.52,-77.89"/>
</a>
</g>
</g>
<!-- Node23 -->
<g id="Node000023" class="node">
<title>Node23</title>
<g id="a_Node000023"><a xlink:title=" ">
<polygon fill="#e0e0e0" stroke="#999999" points="472.5,-74 413.5,-74 413.5,-55 472.5,-55 472.5,-74"/>
<text text-anchor="middle" x="443" y="-62" font-family="Helvetica,sans-Serif" font-size="10.00">atomic.h</text>
</a>
</g>
</g>
<!-- Node19&#45;&gt;Node23 -->
<g id="edge31_Node000019_Node000023" class="edge">
<title>Node19&#45;&gt;Node23</title>
<g id="a_edge31_Node000019_Node000023"><a xlink:title=" ">
<path fill="none" stroke="#63b8ff" d="M561.35,-109.98C538.15,-101.27 501.88,-87.63 475.6,-77.75"/>
<polygon fill="#63b8ff" stroke="#63b8ff" points="476.66,-74.41 466.07,-74.17 474.2,-80.97 476.66,-74.41"/>
</a>
</g>
</g>
<!-- Node19&#45;&gt;Node24 -->
<g id="edge32_Node000019_Node000024" class="edge">
<title>Node19&#45;&gt;Node24</title>
<g id="a_edge32_Node000019_Node000024"><a xlink:title=" ">
<path fill="none" stroke="#63b8ff" d="M634.61,-112.79C695.51,-105.62 801.04,-92.22 900.82,-74.08"/>
<polygon fill="#63b8ff" stroke="#63b8ff" points="901.57,-77.5 910.77,-72.25 900.3,-70.62 901.57,-77.5"/>
</a>
</g>
</g>
<!-- Node25 -->
<g id="Node000025" class="node">
<title>Node25</title>
<g id="a_Node000025"><a xlink:title=" ">
<polygon fill="#e0e0e0" stroke="#999999" points="537.5,-74 490.5,-74 490.5,-55 537.5,-55 537.5,-74"/>
<text text-anchor="middle" x="514" y="-62" font-family="Helvetica,sans-Serif" font-size="10.00">task.h</text>
</a>
</g>
</g>
<!-- Node19&#45;&gt;Node25 -->
<g id="edge33_Node000019_Node000025" class="edge">
<title>Node19&#45;&gt;Node25</title>
<g id="a_edge33_Node000019_Node000025"><a xlink:title=" ">
<path fill="none" stroke="#63b8ff" d="M572.75,-109.98C562.2,-102 546.2,-89.88 533.56,-80.31"/>
<polygon fill="#63b8ff" stroke="#63b8ff" points="535.54,-77.42 525.45,-74.17 531.31,-83 535.54,-77.42"/>
</a>
</g>
</g>
<!-- Node26 -->
<g id="Node000026" class="node">
<title>Node26</title>
<g id="a_Node000026"><a xlink:title=" ">
<polygon fill="#e0e0e0" stroke="#999999" points="612.5,-74 555.5,-74 555.5,-55 612.5,-55 612.5,-74"/>
<text text-anchor="middle" x="584" y="-62" font-family="Helvetica,sans-Serif" font-size="10.00">timers.h</text>
</a>
</g>
</g>
<!-- Node19&#45;&gt;Node26 -->
<g id="edge34_Node000019_Node000026" class="edge">
<title>Node19&#45;&gt;Node26</title>
<g id="a_edge34_Node000019_Node000026"><a xlink:title=" ">
<path fill="none" stroke="#63b8ff" d="M584,-109.75C584,-102.8 584,-92.85 584,-84.13"/>
<polygon fill="#63b8ff" stroke="#63b8ff" points="587.5,-84.09 584,-74.09 580.5,-84.09 587.5,-84.09"/>
</a>
</g>
</g>
<!-- Node27 -->
<g id="Node000027" class="node">
<title>Node27</title>
<g id="a_Node000027"><a xlink:title=" ">
<polygon fill="#e0e0e0" stroke="#999999" points="693,-74 631,-74 631,-55 693,-55 693,-74"/>
<text text-anchor="middle" x="662" y="-62" font-family="Helvetica,sans-Serif" font-size="10.00">semphr.h</text>
</a>
</g>
</g>
<!-- Node19&#45;&gt;Node27 -->
<g id="edge35_Node000019_Node000027" class="edge">
<title>Node19&#45;&gt;Node27</title>
<g id="a_edge35_Node000019_Node000027"><a xlink:title=" ">
<path fill="none" stroke="#63b8ff" d="M596.53,-109.98C608.4,-101.92 626.46,-89.65 640.61,-80.03"/>
<polygon fill="#63b8ff" stroke="#63b8ff" points="642.94,-82.69 649.24,-74.17 639,-76.9 642.94,-82.69"/>
</a>
</g>
</g>
<!-- Node28 -->
<g id="Node000028" class="node">
<title>Node28</title>
<g id="a_Node000028"><a xlink:title=" ">
<polygon fill="#e0e0e0" stroke="#999999" points="803,-74 711,-74 711,-55 803,-55 803,-74"/>
<text text-anchor="middle" x="757" y="-62" font-family="Helvetica,sans-Serif" font-size="10.00">event_groups.h</text>
</a>
</g>
</g>
<!-- Node19&#45;&gt;Node28 -->
<g id="edge36_Node000019_Node000028" class="edge">
<title>Node19&#45;&gt;Node28</title>
<g id="a_edge36_Node000019_Node000028"><a xlink:title=" ">
<path fill="none" stroke="#63b8ff" d="M611.8,-109.98C640.97,-101.05 687,-86.94 719.4,-77.02"/>
<polygon fill="#63b8ff" stroke="#63b8ff" points="720.45,-80.36 728.99,-74.08 718.4,-73.66 720.45,-80.36"/>
</a>
</g>
</g>
<!-- Node29 -->
<g id="Node000029" class="node">
<title>Node29</title>
<g id="a_Node000029"><a xlink:title=" ">
<polygon fill="#e0e0e0" stroke="#999999" points="205.5,-74 112.5,-74 112.5,-55 205.5,-55 205.5,-74"/>
<text text-anchor="middle" x="159" y="-62" font-family="Helvetica,sans-Serif" font-size="10.00">stream_buffer.h</text>
</a>
</g>
</g>
<!-- Node19&#45;&gt;Node29 -->
<g id="edge37_Node000019_Node000029" class="edge">
<title>Node19&#45;&gt;Node29</title>
<g id="a_edge37_Node000019_Node000029"><a xlink:title=" ">
<path fill="none" stroke="#63b8ff" d="M533.27,-111.22C530.14,-110.8 527.03,-110.39 524,-110 389.66,-92.69 353.15,-92.59 215.85,-74.21"/>
<polygon fill="#63b8ff" stroke="#63b8ff" points="216.17,-70.72 205.79,-72.85 215.23,-77.66 216.17,-70.72"/>
</a>
</g>
</g>
<!-- Node30&#45;&gt;Node2 -->
<g id="edge41_Node000030_Node000002" class="edge">
<title>Node30&#45;&gt;Node2</title>
<g id="a_edge41_Node000030_Node000002"><a xlink:title=" ">
<path fill="none" stroke="#63b8ff" d="M1179.18,-164.84C1178.99,-151.3 1176.59,-125.1 1162,-110 1147.44,-94.93 1095.16,-81.5 1057.32,-73.43"/>
<polygon fill="#63b8ff" stroke="#63b8ff" points="1057.57,-69.91 1047.07,-71.3 1056.15,-76.76 1057.57,-69.91"/>
</a>
</g>
</g>
<!-- Node30&#45;&gt;Node13 -->
<g id="edge42_Node000030_Node000013" class="edge">
<title>Node30&#45;&gt;Node13</title>
<g id="a_edge42_Node000030_Node000013"><a xlink:title=" ">
<path fill="none" stroke="#63b8ff" d="M1169.68,-164.98C1161.19,-157.23 1148.44,-145.58 1138.12,-136.14"/>
<polygon fill="#63b8ff" stroke="#63b8ff" points="1140.23,-133.33 1130.49,-129.17 1135.51,-138.5 1140.23,-133.33"/>
</a>
</g>
</g>
<!-- Node31 -->
<g id="Node000031" class="node">
<title>Node31</title>
<g id="a_Node000031"><a xlink:title=" ">
<polygon fill="#e0e0e0" stroke="#999999" points="1321,-129 1209,-129 1209,-110 1321,-110 1321,-129"/>
<text text-anchor="middle" x="1265" y="-117" font-family="Helvetica,sans-Serif" font-size="10.00">board/mcu_config.h</text>
</a>
</g>
</g>
<!-- Node30&#45;&gt;Node31 -->
<g id="edge43_Node000030_Node000031" class="edge">
<title>Node30&#45;&gt;Node31</title>
<g id="a_edge43_Node000030_Node000031"><a xlink:title=" ">
<path fill="none" stroke="#63b8ff" d="M1192.82,-164.98C1206.15,-156.77 1226.58,-144.18 1242.31,-134.49"/>
<polygon fill="#63b8ff" stroke="#63b8ff" points="1244.25,-137.4 1250.93,-129.17 1240.58,-131.44 1244.25,-137.4"/>
</a>
</g>
</g>
</g>
</svg>
