<?xml version="1.0" encoding="UTF-8" standalone="no"?>
<!DOCTYPE svg PUBLIC "-//W3C//DTD SVG 1.1//EN"
 "http://www.w3.org/Graphics/SVG/1.1/DTD/svg11.dtd">
<!-- Generated by graphviz version 2.43.0 (0)
 -->
<!-- Title: drv_irq.h Pages: 1 -->
<svg width="410pt" height="82pt"
 viewBox="0.00 0.00 410.00 82.00" xmlns="http://www.w3.org/2000/svg" xmlns:xlink="http://www.w3.org/1999/xlink">
<g id="graph0" class="graph" transform="scale(1 1) rotate(0) translate(4 78)">
<title>drv_irq.h</title>
<!-- Node1 -->
<g id="Node000001" class="node">
<title>Node1</title>
<g id="a_Node000001"><a xlink:title=" ">
<polygon fill="#999999" stroke="#666666" points="209,-74 150,-74 150,-55 209,-55 209,-74"/>
<text text-anchor="middle" x="179.5" y="-62" font-family="Helvetica,sans-Serif" font-size="10.00">drv_irq.h</text>
</a>
</g>
</g>
<!-- Node2 -->
<g id="Node000002" class="node">
<title>Node2</title>
<g id="a_Node000002"><a xlink:href="drv__irq_8c.html" target="_top" xlink:title=" ">
<polygon fill="white" stroke="#666666" points="59,-19 0,-19 0,0 59,0 59,-19"/>
<text text-anchor="middle" x="29.5" y="-7" font-family="Helvetica,sans-Serif" font-size="10.00">drv_irq.c</text>
</a>
</g>
</g>
<!-- Node1&#45;&gt;Node2 -->
<g id="edge1_Node000001_Node000002" class="edge">
<title>Node1&#45;&gt;Node2</title>
<g id="a_edge1_Node000001_Node000002"><a xlink:title=" ">
<path fill="none" stroke="#63b8ff" d="M145.68,-51.55C117.82,-41.71 78.99,-27.98 54.04,-19.17"/>
<polygon fill="#63b8ff" stroke="#63b8ff" points="144.81,-54.95 155.4,-54.98 147.14,-48.35 144.81,-54.95"/>
</a>
</g>
</g>
<!-- Node3 -->
<g id="Node000003" class="node">
<title>Node3</title>
<g id="a_Node000003"><a xlink:href="hal__iic__stm32_8c.html" target="_top" xlink:title=" ">
<polygon fill="white" stroke="#666666" points="169.5,-19 77.5,-19 77.5,0 169.5,0 169.5,-19"/>
<text text-anchor="middle" x="123.5" y="-7" font-family="Helvetica,sans-Serif" font-size="10.00">hal_iic_stm32.c</text>
</a>
</g>
</g>
<!-- Node1&#45;&gt;Node3 -->
<g id="edge2_Node000001_Node000003" class="edge">
<title>Node1&#45;&gt;Node3</title>
<g id="a_edge2_Node000001_Node000003"><a xlink:title=" ">
<path fill="none" stroke="#63b8ff" d="M163.17,-48.04C153.24,-38.64 140.91,-26.98 132.66,-19.17"/>
<polygon fill="#63b8ff" stroke="#63b8ff" points="160.83,-50.65 170.5,-54.98 165.65,-45.57 160.83,-50.65"/>
</a>
</g>
</g>
<!-- Node4 -->
<g id="Node000004" class="node">
<title>Node4</title>
<g id="a_Node000004"><a xlink:href="hal__spi__stm32_8c.html" target="_top" xlink:title=" ">
<polygon fill="white" stroke="#666666" points="283,-19 188,-19 188,0 283,0 283,-19"/>
<text text-anchor="middle" x="235.5" y="-7" font-family="Helvetica,sans-Serif" font-size="10.00">hal_spi_stm32.c</text>
</a>
</g>
</g>
<!-- Node1&#45;&gt;Node4 -->
<g id="edge3_Node000001_Node000004" class="edge">
<title>Node1&#45;&gt;Node4</title>
<g id="a_edge3_Node000001_Node000004"><a xlink:title=" ">
<path fill="none" stroke="#63b8ff" d="M195.83,-48.04C205.76,-38.64 218.09,-26.98 226.34,-19.17"/>
<polygon fill="#63b8ff" stroke="#63b8ff" points="193.35,-45.57 188.5,-54.98 198.17,-50.65 193.35,-45.57"/>
</a>
</g>
</g>
<!-- Node5 -->
<g id="Node000005" class="node">
<title>Node5</title>
<g id="a_Node000005"><a xlink:href="hal__uart__stm32_8c.html" target="_top" xlink:title=" ">
<polygon fill="white" stroke="#666666" points="402,-19 301,-19 301,0 402,0 402,-19"/>
<text text-anchor="middle" x="351.5" y="-7" font-family="Helvetica,sans-Serif" font-size="10.00">hal_uart_stm32.c</text>
</a>
</g>
</g>
<!-- Node1&#45;&gt;Node5 -->
<g id="edge4_Node000001_Node000005" class="edge">
<title>Node1&#45;&gt;Node5</title>
<g id="a_edge4_Node000001_Node000005"><a xlink:title=" ">
<path fill="none" stroke="#63b8ff" d="M217.06,-51.93C249.18,-42.03 294.69,-28.01 323.65,-19.08"/>
<polygon fill="#63b8ff" stroke="#63b8ff" points="215.66,-48.69 207.13,-54.98 217.72,-55.38 215.66,-48.69"/>
</a>
</g>
</g>
</g>
</svg>
