<?xml version="1.0" encoding="UTF-8" standalone="no"?>
<!DOCTYPE svg PUBLIC "-//W3C//DTD SVG 1.1//EN"
 "http://www.w3.org/Graphics/SVG/1.1/DTD/svg11.dtd">
<!-- Generated by graphviz version 2.43.0 (0)
 -->
<!-- Title: drv_time.h Pages: 1 -->
<svg width="578pt" height="137pt"
 viewBox="0.00 0.00 578.00 137.00" xmlns="http://www.w3.org/2000/svg" xmlns:xlink="http://www.w3.org/1999/xlink">
<g id="graph0" class="graph" transform="scale(1 1) rotate(0) translate(4 133)">
<title>drv_time.h</title>
<!-- Node1 -->
<g id="Node000001" class="node">
<title>Node1</title>
<g id="a_Node000001"><a xlink:title=" ">
<polygon fill="#999999" stroke="#666666" points="230.5,-129 161.5,-129 161.5,-110 230.5,-110 230.5,-129"/>
<text text-anchor="middle" x="196" y="-117" font-family="Helvetica,sans-Serif" font-size="10.00">drv_time.h</text>
</a>
</g>
</g>
<!-- Node2 -->
<g id="Node000002" class="node">
<title>Node2</title>
<g id="a_Node000002"><a xlink:href="drv__time_8c.html" target="_top" xlink:title=" ">
<polygon fill="white" stroke="#666666" points="68,-74 0,-74 0,-55 68,-55 68,-74"/>
<text text-anchor="middle" x="34" y="-62" font-family="Helvetica,sans-Serif" font-size="10.00">drv_time.c</text>
</a>
</g>
</g>
<!-- Node1&#45;&gt;Node2 -->
<g id="edge1_Node000001_Node000002" class="edge">
<title>Node1&#45;&gt;Node2</title>
<g id="a_edge1_Node000001_Node000002"><a xlink:title=" ">
<path fill="none" stroke="#63b8ff" d="M160.23,-106.8C130,-96.91 87.39,-82.97 60.23,-74.08"/>
<polygon fill="#63b8ff" stroke="#63b8ff" points="159.38,-110.2 169.97,-109.98 161.56,-103.55 159.38,-110.2"/>
</a>
</g>
</g>
<!-- Node3 -->
<g id="Node000003" class="node">
<title>Node3</title>
<g id="a_Node000003"><a xlink:href="hal__timebase__stm32_8c.html" target="_top" xlink:title=" ">
<polygon fill="white" stroke="#666666" points="213.5,-74 86.5,-74 86.5,-55 213.5,-55 213.5,-74"/>
<text text-anchor="middle" x="150" y="-62" font-family="Helvetica,sans-Serif" font-size="10.00">hal_timebase_stm32.c</text>
</a>
</g>
</g>
<!-- Node1&#45;&gt;Node3 -->
<g id="edge2_Node000001_Node000003" class="edge">
<title>Node1&#45;&gt;Node3</title>
<g id="a_edge2_Node000001_Node000003"><a xlink:title=" ">
<path fill="none" stroke="#63b8ff" d="M181.64,-101.96C173.63,-92.72 163.97,-81.6 157.45,-74.09"/>
<polygon fill="#63b8ff" stroke="#63b8ff" points="179.21,-104.49 188.4,-109.75 184.49,-99.9 179.21,-104.49"/>
</a>
</g>
</g>
<!-- Node4 -->
<g id="Node000004" class="node">
<title>Node4</title>
<g id="a_Node000004"><a xlink:href="kernel__syscall_8h.html" target="_top" xlink:title=" ">
<polygon fill="white" stroke="#666666" points="382.5,-74 287.5,-74 287.5,-55 382.5,-55 382.5,-74"/>
<text text-anchor="middle" x="335" y="-62" font-family="Helvetica,sans-Serif" font-size="10.00">kernel_syscall.h</text>
</a>
</g>
</g>
<!-- Node1&#45;&gt;Node4 -->
<g id="edge3_Node000001_Node000004" class="edge">
<title>Node1&#45;&gt;Node4</title>
<g id="a_edge3_Node000001_Node000004"><a xlink:title=" ">
<path fill="none" stroke="#63b8ff" d="M227.68,-106.42C253.47,-96.59 289.24,-82.95 312.26,-74.17"/>
<polygon fill="#63b8ff" stroke="#63b8ff" points="226.43,-103.15 218.33,-109.98 228.92,-109.69 226.43,-103.15"/>
</a>
</g>
</g>
<!-- Node6 -->
<g id="Node000006" class="node">
<title>Node6</title>
<g id="a_Node000006"><a xlink:href="os__shell__management_8c.html" target="_top" xlink:title=" ">
<polygon fill="white" stroke="#666666" points="291.5,-19 156.5,-19 156.5,0 291.5,0 291.5,-19"/>
<text text-anchor="middle" x="224" y="-7" font-family="Helvetica,sans-Serif" font-size="10.00">os_shell_management.c</text>
</a>
</g>
</g>
<!-- Node1&#45;&gt;Node6 -->
<g id="edge8_Node000001_Node000006" class="edge">
<title>Node1&#45;&gt;Node6</title>
<g id="a_edge8_Node000001_Node000006"><a xlink:title=" ">
<path fill="none" stroke="#63b8ff" d="M208.58,-101.57C213.76,-93.62 219.19,-83.77 222,-74 227.43,-55.13 226.27,-31.8 225.07,-19.34"/>
<polygon fill="#63b8ff" stroke="#63b8ff" points="205.62,-99.69 202.79,-109.9 211.37,-103.68 205.62,-99.69"/>
</a>
</g>
</g>
<!-- Node5 -->
<g id="Node000005" class="node">
<title>Node5</title>
<g id="a_Node000005"><a xlink:href="main_8c.html" target="_top" xlink:title=" ">
<polygon fill="white" stroke="#666666" points="360,-19 310,-19 310,0 360,0 360,-19"/>
<text text-anchor="middle" x="335" y="-7" font-family="Helvetica,sans-Serif" font-size="10.00">main.c</text>
</a>
</g>
</g>
<!-- Node4&#45;&gt;Node5 -->
<g id="edge4_Node000004_Node000005" class="edge">
<title>Node4&#45;&gt;Node5</title>
<g id="a_edge4_Node000004_Node000005"><a xlink:title=" ">
<path fill="none" stroke="#63b8ff" d="M335,-44.66C335,-35.93 335,-25.99 335,-19.09"/>
<polygon fill="#63b8ff" stroke="#63b8ff" points="331.5,-44.75 335,-54.75 338.5,-44.75 331.5,-44.75"/>
</a>
</g>
</g>
<!-- Node4&#45;&gt;Node6 -->
<g id="edge5_Node000004_Node000006" class="edge">
<title>Node4&#45;&gt;Node6</title>
<g id="a_edge5_Node000004_Node000006"><a xlink:title=" ">
<path fill="none" stroke="#63b8ff" d="M308.05,-50.63C287.61,-40.87 260.05,-27.71 242.16,-19.17"/>
<polygon fill="#63b8ff" stroke="#63b8ff" points="306.63,-53.83 317.17,-54.98 309.65,-47.52 306.63,-53.83"/>
</a>
</g>
</g>
<!-- Node7 -->
<g id="Node000007" class="node">
<title>Node7</title>
<g id="a_Node000007"><a xlink:href="shell__task__mgmt_8c.html" target="_top" xlink:title=" ">
<polygon fill="white" stroke="#666666" points="487.5,-19 378.5,-19 378.5,0 487.5,0 487.5,-19"/>
<text text-anchor="middle" x="433" y="-7" font-family="Helvetica,sans-Serif" font-size="10.00">shell_task_mgmt.c</text>
</a>
</g>
</g>
<!-- Node4&#45;&gt;Node7 -->
<g id="edge6_Node000004_Node000007" class="edge">
<title>Node4&#45;&gt;Node7</title>
<g id="a_edge6_Node000004_Node000007"><a xlink:title=" ">
<path fill="none" stroke="#63b8ff" d="M360.03,-49.97C377.94,-40.28 401.53,-27.52 416.97,-19.17"/>
<polygon fill="#63b8ff" stroke="#63b8ff" points="357.88,-47.15 350.75,-54.98 361.21,-53.31 357.88,-47.15"/>
</a>
</g>
</g>
<!-- Node8 -->
<g id="Node000008" class="node">
<title>Node8</title>
<g id="a_Node000008"><a xlink:href="syscalls_8c.html" target="_top" xlink:title=" ">
<polygon fill="white" stroke="#666666" points="570,-19 506,-19 506,0 570,0 570,-19"/>
<text text-anchor="middle" x="538" y="-7" font-family="Helvetica,sans-Serif" font-size="10.00">syscalls.c</text>
</a>
</g>
</g>
<!-- Node4&#45;&gt;Node8 -->
<g id="edge7_Node000004_Node000008" class="edge">
<title>Node4&#45;&gt;Node8</title>
<g id="a_edge7_Node000004_Node000008"><a xlink:title=" ">
<path fill="none" stroke="#63b8ff" d="M377.43,-52.42C415.68,-42.44 471.09,-27.97 505.8,-18.91"/>
<polygon fill="#63b8ff" stroke="#63b8ff" points="376.41,-49.07 367.62,-54.98 378.18,-55.84 376.41,-49.07"/>
</a>
</g>
</g>
</g>
</svg>
