<?xml version="1.0" encoding="UTF-8" standalone="no"?>
<!DOCTYPE svg PUBLIC "-//W3C//DTD SVG 1.1//EN"
 "http://www.w3.org/Graphics/SVG/1.1/DTD/svg11.dtd">
<!-- Generated by graphviz version 2.43.0 (0)
 -->
<!-- Title: drv_irq_dispatch Pages: 1 -->
<svg width="311pt" height="27pt"
 viewBox="0.00 0.00 311.00 27.00" xmlns="http://www.w3.org/2000/svg" xmlns:xlink="http://www.w3.org/1999/xlink">
<g id="graph0" class="graph" transform="scale(1 1) rotate(0) translate(4 23)">
<title>drv_irq_dispatch</title>
<!-- Node1 -->
<g id="Node000001" class="node">
<title>Node1</title>
<g id="a_Node000001"><a xlink:title="Dispatch an IRQ event from task context. Calls every callback registered for id.">
<polygon fill="#999999" stroke="#666666" points="97,-19 0,-19 0,0 97,0 97,-19"/>
<text text-anchor="middle" x="48.5" y="-7" font-family="Helvetica,sans-Serif" font-size="10.00">drv_irq_dispatch</text>
</a>
</g>
</g>
<!-- Node2 -->
<g id="Node000002" class="node">
<title>Node2</title>
<g id="a_Node000002"><a xlink:href="irq__desc_8c.html#aad293c8a451bcfc8824fba41ef042a7d" target="_top" xlink:title=" ">
<polygon fill="white" stroke="#666666" points="195,-19 133,-19 133,0 195,0 195,-19"/>
<text text-anchor="middle" x="164" y="-7" font-family="Helvetica,sans-Serif" font-size="10.00">__do_IRQ</text>
</a>
</g>
</g>
<!-- Node1&#45;&gt;Node2 -->
<g id="edge1_Node000001_Node000002" class="edge">
<title>Node1&#45;&gt;Node2</title>
<g id="a_edge1_Node000001_Node000002"><a xlink:title=" ">
<path fill="none" stroke="#63b8ff" d="M97.31,-9.5C105.74,-9.5 114.44,-9.5 122.65,-9.5"/>
<polygon fill="#63b8ff" stroke="#63b8ff" points="122.72,-13 132.72,-9.5 122.72,-6 122.72,-13"/>
</a>
</g>
</g>
<!-- Node3 -->
<g id="Node000003" class="node">
<title>Node3</title>
<g id="a_Node000003"><a xlink:href="irq__desc_8c.html#aaef6f6dd8053daf49e96ef43997f43bd" target="_top" xlink:title=" ">
<polygon fill="white" stroke="#666666" points="303,-19 231,-19 231,0 303,0 303,-19"/>
<text text-anchor="middle" x="267" y="-7" font-family="Helvetica,sans-Serif" font-size="10.00">irq_to_desc</text>
</a>
</g>
</g>
<!-- Node2&#45;&gt;Node3 -->
<g id="edge2_Node000002_Node000003" class="edge">
<title>Node2&#45;&gt;Node3</title>
<g id="a_edge2_Node000002_Node000003"><a xlink:title=" ">
<path fill="none" stroke="#63b8ff" d="M195.03,-9.5C203.14,-9.5 212.09,-9.5 220.83,-9.5"/>
<polygon fill="#63b8ff" stroke="#63b8ff" points="220.93,-13 230.93,-9.5 220.93,-6 220.93,-13"/>
</a>
</g>
</g>
</g>
</svg>
