<?xml version="1.0" encoding="UTF-8" standalone="no"?>
<!DOCTYPE svg PUBLIC "-//W3C//DTD SVG 1.1//EN"
 "http://www.w3.org/Graphics/SVG/1.1/DTD/svg11.dtd">
<!-- Generated by graphviz version 2.43.0 (0)
 -->
<!-- Title: drv_irq_dispatch_from_isr Pages: 1 -->
<svg width="402pt" height="27pt"
 viewBox="0.00 0.00 402.00 27.00" xmlns="http://www.w3.org/2000/svg" xmlns:xlink="http://www.w3.org/1999/xlink">
<g id="graph0" class="graph" transform="scale(1 1) rotate(0) translate(4 23)">
<title>drv_irq_dispatch_from_isr</title>
<!-- Node1 -->
<g id="Node000001" class="node">
<title>Node1</title>
<g id="a_Node000001"><a xlink:title="Dispatch an IRQ event from ISR context. Each registered callback receives pxHPT so it can accumulate ...">
<polygon fill="#999999" stroke="#666666" points="143,-19 0,-19 0,0 143,0 143,-19"/>
<text text-anchor="middle" x="71.5" y="-7" font-family="Helvetica,sans-Serif" font-size="10.00">drv_irq_dispatch_from_isr</text>
</a>
</g>
</g>
<!-- Node2 -->
<g id="Node000002" class="node">
<title>Node2</title>
<g id="a_Node000002"><a xlink:href="irq__desc_8c.html#ad30e8177b86aac1c40b8181fc0927b3c" target="_top" xlink:title=" ">
<polygon fill="white" stroke="#666666" points="286,-19 179,-19 179,0 286,0 286,-19"/>
<text text-anchor="middle" x="232.5" y="-7" font-family="Helvetica,sans-Serif" font-size="10.00">__do_IRQ_from_isr</text>
</a>
</g>
</g>
<!-- Node1&#45;&gt;Node2 -->
<g id="edge1_Node000001_Node000002" class="edge">
<title>Node1&#45;&gt;Node2</title>
<g id="a_edge1_Node000001_Node000002"><a xlink:title=" ">
<path fill="none" stroke="#63b8ff" d="M143.17,-9.5C151.66,-9.5 160.28,-9.5 168.65,-9.5"/>
<polygon fill="#63b8ff" stroke="#63b8ff" points="168.71,-13 178.71,-9.5 168.71,-6 168.71,-13"/>
</a>
</g>
</g>
<!-- Node3 -->
<g id="Node000003" class="node">
<title>Node3</title>
<g id="a_Node000003"><a xlink:href="irq__desc_8c.html#aaef6f6dd8053daf49e96ef43997f43bd" target="_top" xlink:title=" ">
<polygon fill="white" stroke="#666666" points="394,-19 322,-19 322,0 394,0 394,-19"/>
<text text-anchor="middle" x="358" y="-7" font-family="Helvetica,sans-Serif" font-size="10.00">irq_to_desc</text>
</a>
</g>
</g>
<!-- Node2&#45;&gt;Node3 -->
<g id="edge2_Node000002_Node000003" class="edge">
<title>Node2&#45;&gt;Node3</title>
<g id="a_edge2_Node000002_Node000003"><a xlink:title=" ">
<path fill="none" stroke="#63b8ff" d="M286.23,-9.5C294.72,-9.5 303.43,-9.5 311.72,-9.5"/>
<polygon fill="#63b8ff" stroke="#63b8ff" points="311.94,-13 321.94,-9.5 311.94,-6 311.94,-13"/>
</a>
</g>
</g>
</g>
</svg>
