<?xml version="1.0" encoding="UTF-8" standalone="no"?>
<!DOCTYPE svg PUBLIC "-//W3C//DTD SVG 1.1//EN"
 "http://www.w3.org/Graphics/SVG/1.1/DTD/svg11.dtd">
<!-- Generated by graphviz version 2.43.0 (0)
 -->
<!-- Title: _desc_free Pages: 1 -->
<svg width="518pt" height="101pt"
 viewBox="0.00 0.00 518.00 101.00" xmlns="http://www.w3.org/2000/svg" xmlns:xlink="http://www.w3.org/1999/xlink">
<g id="graph0" class="graph" transform="scale(1 1) rotate(0) translate(4 97)">
<title>_desc_free</title>
<!-- Node1 -->
<g id="Node000001" class="node">
<title>Node1</title>
<g id="a_Node000001"><a xlink:title=" ">
<polygon fill="#999999" stroke="#666666" points="510,-56 441,-56 441,-37 510,-37 510,-56"/>
<text text-anchor="middle" x="475.5" y="-44" font-family="Helvetica,sans-Serif" font-size="10.00">_desc_free</text>
</a>
</g>
</g>
<!-- Node2 -->
<g id="Node000002" class="node">
<title>Node2</title>
<g id="a_Node000002"><a xlink:href="drv__dma_8c.html#a98fb2a47d76acc4facd0d271f3896738" target="_top" xlink:title=" ">
<polygon fill="white" stroke="#666666" points="401.5,-56 266.5,-56 266.5,-37 401.5,-37 401.5,-56"/>
<text text-anchor="middle" x="334" y="-44" font-family="Helvetica,sans-Serif" font-size="10.00">dma_complete_callback</text>
</a>
</g>
</g>
<!-- Node1&#45;&gt;Node2 -->
<g id="edge1_Node000001_Node000002" class="edge">
<title>Node1&#45;&gt;Node2</title>
<g id="a_edge1_Node000001_Node000002"><a xlink:title=" ">
<path fill="none" stroke="#63b8ff" d="M430.62,-46.5C421.36,-46.5 411.4,-46.5 401.52,-46.5"/>
<polygon fill="#63b8ff" stroke="#63b8ff" points="430.73,-50 440.73,-46.5 430.73,-43 430.73,-50"/>
</a>
</g>
</g>
<!-- Node6 -->
<g id="Node000006" class="node">
<title>Node6</title>
<g id="a_Node000006"><a xlink:href="drv__dma_8c.html#a174b15cf2c7b78b0fb99be21103c3b12" target="_top" xlink:title=" ">
<polygon fill="white" stroke="#666666" points="390.5,-93 277.5,-93 277.5,-74 390.5,-74 390.5,-93"/>
<text text-anchor="middle" x="334" y="-81" font-family="Helvetica,sans-Serif" font-size="10.00">dma_error_callback</text>
</a>
</g>
</g>
<!-- Node1&#45;&gt;Node6 -->
<g id="edge5_Node000001_Node000006" class="edge">
<title>Node1&#45;&gt;Node6</title>
<g id="a_edge5_Node000001_Node000006"><a xlink:title=" ">
<path fill="none" stroke="#63b8ff" d="M431.05,-58.49C422.42,-60.84 413.43,-63.26 405,-65.5 394.45,-68.3 382.98,-71.27 372.45,-73.98"/>
<polygon fill="#63b8ff" stroke="#63b8ff" points="432.22,-61.8 440.95,-55.78 430.38,-55.04 432.22,-61.8"/>
</a>
</g>
</g>
<!-- Node8 -->
<g id="Node000008" class="node">
<title>Node8</title>
<g id="a_Node000008"><a xlink:href="drv__dma_8c.html#aa1c797ead001222bc7a8ccb68d12c956" target="_top" xlink:title=" ">
<polygon fill="white" stroke="#666666" points="405,-19 263,-19 263,0 405,0 405,-19"/>
<text text-anchor="middle" x="334" y="-7" font-family="Helvetica,sans-Serif" font-size="10.00">dmaengine_terminate_all</text>
</a>
</g>
</g>
<!-- Node1&#45;&gt;Node8 -->
<g id="edge9_Node000001_Node000008" class="edge">
<title>Node1&#45;&gt;Node8</title>
<g id="a_edge9_Node000001_Node000008"><a xlink:title=" ">
<path fill="none" stroke="#63b8ff" d="M430.96,-34.95C411.66,-29.83 389.22,-23.88 370.9,-19.02"/>
<polygon fill="#63b8ff" stroke="#63b8ff" points="430.17,-38.36 440.73,-37.54 431.96,-31.6 430.17,-38.36"/>
</a>
</g>
</g>
<!-- Node3 -->
<g id="Node000003" class="node">
<title>Node3</title>
<g id="a_Node000003"><a xlink:href="hal__dma__stm32_8c.html#a40fcd1481855f18e0dd34bec27af7f65" target="_top" xlink:title=" ">
<polygon fill="white" stroke="#666666" points="211.5,-56 134.5,-56 134.5,-37 211.5,-37 211.5,-56"/>
<text text-anchor="middle" x="173" y="-44" font-family="Helvetica,sans-Serif" font-size="10.00">_hal_cplt_cb</text>
</a>
</g>
</g>
<!-- Node2&#45;&gt;Node3 -->
<g id="edge2_Node000002_Node000003" class="edge">
<title>Node2&#45;&gt;Node3</title>
<g id="a_edge2_Node000002_Node000003"><a xlink:title=" ">
<path fill="none" stroke="#63b8ff" d="M256.33,-46.5C240.79,-46.5 225.11,-46.5 211.67,-46.5"/>
<polygon fill="#63b8ff" stroke="#63b8ff" points="256.49,-50 266.49,-46.5 256.49,-43 256.49,-50"/>
</a>
</g>
</g>
<!-- Node4 -->
<g id="Node000004" class="node">
<title>Node4</title>
<g id="a_Node000004"><a xlink:href="hal__dma__stm32_8c.html#a203873983dd8e25dcf61692a31d21662" target="_top" xlink:title=" ">
<polygon fill="white" stroke="#666666" points="77,-93 6,-93 6,-74 77,-74 77,-93"/>
<text text-anchor="middle" x="41.5" y="-81" font-family="Helvetica,sans-Serif" font-size="10.00">_dma_start</text>
</a>
</g>
</g>
<!-- Node3&#45;&gt;Node4 -->
<g id="edge3_Node000003_Node000004" class="edge">
<title>Node3&#45;&gt;Node4</title>
<g id="a_edge3_Node000003_Node000004"><a xlink:title=" ">
<path fill="none" stroke="#63b8ff" d="M128.86,-58.83C111.71,-63.73 92.27,-69.28 76.19,-73.88"/>
<polygon fill="#63b8ff" stroke="#63b8ff" points="130,-62.14 138.65,-56.03 128.07,-55.41 130,-62.14"/>
</a>
</g>
</g>
<!-- Node5 -->
<g id="Node000005" class="node">
<title>Node5</title>
<g id="a_Node000005"><a xlink:href="hal__dma__stm32_8c.html#aff2b00b9ecd0e15a4db199aabddceda0" target="_top" xlink:title=" ">
<polygon fill="white" stroke="#666666" points="83,-56 0,-56 0,-37 83,-37 83,-56"/>
<text text-anchor="middle" x="41.5" y="-44" font-family="Helvetica,sans-Serif" font-size="10.00">_slave_config</text>
</a>
</g>
</g>
<!-- Node3&#45;&gt;Node5 -->
<g id="edge4_Node000003_Node000005" class="edge">
<title>Node3&#45;&gt;Node5</title>
<g id="a_edge4_Node000003_Node000005"><a xlink:title=" ">
<path fill="none" stroke="#63b8ff" d="M124.17,-46.5C110.74,-46.5 96.27,-46.5 83.29,-46.5"/>
<polygon fill="#63b8ff" stroke="#63b8ff" points="124.2,-50 134.2,-46.5 124.2,-43 124.2,-50"/>
</a>
</g>
</g>
<!-- Node7 -->
<g id="Node000007" class="node">
<title>Node7</title>
<g id="a_Node000007"><a xlink:href="hal__dma__stm32_8c.html#a5b15eb61eb2b8ebce42fbf717b1244c5" target="_top" xlink:title=" ">
<polygon fill="white" stroke="#666666" points="214,-93 132,-93 132,-74 214,-74 214,-93"/>
<text text-anchor="middle" x="173" y="-81" font-family="Helvetica,sans-Serif" font-size="10.00">_hal_error_cb</text>
</a>
</g>
</g>
<!-- Node6&#45;&gt;Node7 -->
<g id="edge6_Node000006_Node000007" class="edge">
<title>Node6&#45;&gt;Node7</title>
<g id="a_edge6_Node000006_Node000007"><a xlink:title=" ">
<path fill="none" stroke="#63b8ff" d="M267.25,-83.5C249.29,-83.5 230.37,-83.5 214.3,-83.5"/>
<polygon fill="#63b8ff" stroke="#63b8ff" points="267.39,-87 277.39,-83.5 267.39,-80 267.39,-87"/>
</a>
</g>
</g>
<!-- Node7&#45;&gt;Node4 -->
<g id="edge7_Node000007_Node000004" class="edge">
<title>Node7&#45;&gt;Node4</title>
<g id="a_edge7_Node000007_Node000004"><a xlink:title=" ">
<path fill="none" stroke="#63b8ff" d="M121.62,-83.5C106.71,-83.5 90.73,-83.5 77.06,-83.5"/>
<polygon fill="#63b8ff" stroke="#63b8ff" points="121.74,-87 131.74,-83.5 121.74,-80 121.74,-87"/>
</a>
</g>
</g>
<!-- Node7&#45;&gt;Node5 -->
<g id="edge8_Node000007_Node000005" class="edge">
<title>Node7&#45;&gt;Node5</title>
<g id="a_edge8_Node000007_Node000005"><a xlink:title=" ">
<path fill="none" stroke="#63b8ff" d="M128.86,-71.17C111.71,-66.27 92.27,-60.72 76.19,-56.12"/>
<polygon fill="#63b8ff" stroke="#63b8ff" points="128.07,-74.59 138.65,-73.97 130,-67.86 128.07,-74.59"/>
</a>
</g>
</g>
<!-- Node9 -->
<g id="Node000009" class="node">
<title>Node9</title>
<g id="a_Node000009"><a xlink:href="drv__dma_8c.html#a83f402c36a8b0d09bbb1fdb25c35d677" target="_top" xlink:title=" ">
<polygon fill="white" stroke="#666666" points="227,-19 119,-19 119,0 227,0 227,-19"/>
<text text-anchor="middle" x="173" y="-7" font-family="Helvetica,sans-Serif" font-size="10.00">dma_release_chan</text>
</a>
</g>
</g>
<!-- Node8&#45;&gt;Node9 -->
<g id="edge10_Node000008_Node000009" class="edge">
<title>Node8&#45;&gt;Node9</title>
<g id="a_edge10_Node000008_Node000009"><a xlink:title=" ">
<path fill="none" stroke="#63b8ff" d="M252.65,-9.5C243.98,-9.5 235.33,-9.5 227.11,-9.5"/>
<polygon fill="#63b8ff" stroke="#63b8ff" points="252.8,-13 262.8,-9.5 252.8,-6 252.8,-13"/>
</a>
</g>
</g>
</g>
</svg>
