<?xml version="1.0" encoding="UTF-8" standalone="no"?>
<!DOCTYPE svg PUBLIC "-//W3C//DTD SVG 1.1//EN"
 "http://www.w3.org/Graphics/SVG/1.1/DTD/svg11.dtd">
<!-- Generated by graphviz version 2.43.0 (0)
 -->
<!-- Title: drv_uart_tx_kick Pages: 1 -->
<svg width="822pt" height="103pt"
 viewBox="0.00 0.00 822.00 103.00" xmlns="http://www.w3.org/2000/svg" xmlns:xlink="http://www.w3.org/1999/xlink">
<g id="graph0" class="graph" transform="scale(1 1) rotate(0) translate(4 99)">
<title>drv_uart_tx_kick</title>
<!-- Node1 -->
<g id="Node000001" class="node">
<title>Node1</title>
<g id="a_Node000001"><a xlink:title=" ">
<polygon fill="#999999" stroke="#666666" points="814,-38 716,-38 716,-19 814,-19 814,-38"/>
<text text-anchor="middle" x="765" y="-26" font-family="Helvetica,sans-Serif" font-size="10.00">drv_uart_tx_kick</text>
</a>
</g>
</g>
<!-- Node2 -->
<g id="Node000002" class="node">
<title>Node2</title>
<g id="a_Node000002"><a xlink:href="os__shell__management_8c.html#a674105c8790acda9c7e4ea9a74cf1aec" target="_top" xlink:title=" ">
<polygon fill="white" stroke="#666666" points="680,-57 605,-57 605,-38 680,-38 680,-57"/>
<text text-anchor="middle" x="642.5" y="-45" font-family="Helvetica,sans-Serif" font-size="10.00">_shell_write</text>
</a>
</g>
</g>
<!-- Node1&#45;&gt;Node2 -->
<g id="edge1_Node000001_Node000002" class="edge">
<title>Node1&#45;&gt;Node2</title>
<g id="a_edge1_Node000001_Node000002"><a xlink:title=" ">
<path fill="none" stroke="#63b8ff" d="M705.63,-37.7C697.01,-39.06 688.34,-40.43 680.32,-41.69"/>
<polygon fill="#63b8ff" stroke="#63b8ff" points="706.35,-41.13 715.68,-36.12 705.26,-34.22 706.35,-41.13"/>
</a>
</g>
</g>
<!-- Node9 -->
<g id="Node000009" class="node">
<title>Node9</title>
<g id="a_Node000009"><a xlink:href="syscalls_8c.html#ae9112526a914a06994511bdf3095b0a9" target="_top" xlink:title=" ">
<polygon fill="white" stroke="#666666" points="665,-20 620,-20 620,-1 665,-1 665,-20"/>
<text text-anchor="middle" x="642.5" y="-8" font-family="Helvetica,sans-Serif" font-size="10.00">printk</text>
</a>
</g>
</g>
<!-- Node1&#45;&gt;Node9 -->
<g id="edge8_Node000001_Node000009" class="edge">
<title>Node1&#45;&gt;Node9</title>
<g id="a_edge8_Node000001_Node000009"><a xlink:title=" ">
<path fill="none" stroke="#63b8ff" d="M705.7,-19.79C691.2,-17.63 676.54,-15.44 665.1,-13.73"/>
<polygon fill="#63b8ff" stroke="#63b8ff" points="705.27,-23.27 715.68,-21.28 706.31,-16.34 705.27,-23.27"/>
</a>
</g>
</g>
<!-- Node3 -->
<g id="Node000003" class="node">
<title>Node3</title>
<g id="a_Node000003"><a xlink:href="os__shell__management_8c.html#a038e91f0ffdf433bba8536c74ef958d9" target="_top" xlink:title=" ">
<polygon fill="white" stroke="#666666" points="561,-95 466,-95 466,-76 561,-76 561,-95"/>
<text text-anchor="middle" x="513.5" y="-83" font-family="Helvetica,sans-Serif" font-size="10.00">_cmd_reboot_fn</text>
</a>
</g>
</g>
<!-- Node2&#45;&gt;Node3 -->
<g id="edge2_Node000002_Node000003" class="edge">
<title>Node2&#45;&gt;Node3</title>
<g id="a_edge2_Node000002_Node000003"><a xlink:title=" ">
<path fill="none" stroke="#63b8ff" d="M599.61,-60.04C582.33,-65.2 562.63,-71.1 546.54,-75.91"/>
<polygon fill="#63b8ff" stroke="#63b8ff" points="600.88,-63.31 609.45,-57.09 598.87,-56.6 600.88,-63.31"/>
</a>
</g>
</g>
<!-- Node4 -->
<g id="Node000004" class="node">
<title>Node4</title>
<g id="a_Node000004"><a xlink:href="os__shell__management_8c.html#a5b7eb0bbbac6bbc8febc3cf4a41932f5" target="_top" xlink:title=" ">
<polygon fill="white" stroke="#666666" points="422,-38 334,-38 334,-19 422,-19 422,-38"/>
<text text-anchor="middle" x="378" y="-26" font-family="Helvetica,sans-Serif" font-size="10.00">_os_shell_task</text>
</a>
</g>
</g>
<!-- Node2&#45;&gt;Node4 -->
<g id="edge3_Node000002_Node000004" class="edge">
<title>Node2&#45;&gt;Node4</title>
<g id="a_edge3_Node000002_Node000004"><a xlink:title=" ">
<path fill="none" stroke="#63b8ff" d="M594.71,-44.11C545.77,-40.57 469.57,-35.06 422.06,-31.62"/>
<polygon fill="#63b8ff" stroke="#63b8ff" points="594.5,-47.61 604.72,-44.84 595,-40.63 594.5,-47.61"/>
</a>
</g>
</g>
<!-- Node8 -->
<g id="Node000008" class="node">
<title>Node8</title>
<g id="a_Node000008"><a xlink:href="os__shell__management_8c.html#a4dcab531b1b38b06384ff4035db371da" target="_top" xlink:title=" ">
<polygon fill="white" stroke="#666666" points="569,-19 458,-19 458,0 569,0 569,-19"/>
<text text-anchor="middle" x="513.5" y="-7" font-family="Helvetica,sans-Serif" font-size="10.00">_shell_process_line</text>
</a>
</g>
</g>
<!-- Node2&#45;&gt;Node8 -->
<g id="edge6_Node000002_Node000008" class="edge">
<title>Node2&#45;&gt;Node8</title>
<g id="a_edge6_Node000002_Node000008"><a xlink:title=" ">
<path fill="none" stroke="#63b8ff" d="M599.61,-34.96C582.33,-29.8 562.63,-23.9 546.54,-19.09"/>
<polygon fill="#63b8ff" stroke="#63b8ff" points="598.87,-38.4 609.45,-37.91 600.88,-31.69 598.87,-38.4"/>
</a>
</g>
</g>
<!-- Node5 -->
<g id="Node000005" class="node">
<title>Node5</title>
<g id="a_Node000005"><a xlink:href="os__shell__management_8c.html#a8fae79f71d15477bc1251891e977e46e" target="_top" xlink:title="Create and start the OS shell management task.">
<polygon fill="white" stroke="#666666" points="298,-38 179,-38 179,-19 298,-19 298,-38"/>
<text text-anchor="middle" x="238.5" y="-26" font-family="Helvetica,sans-Serif" font-size="10.00">os_shell_mgmt_start</text>
</a>
</g>
</g>
<!-- Node4&#45;&gt;Node5 -->
<g id="edge4_Node000004_Node000005" class="edge">
<title>Node4&#45;&gt;Node5</title>
<g id="a_edge4_Node000004_Node000005"><a xlink:title=" ">
<path fill="none" stroke="#63b8ff" d="M323.8,-28.5C315.38,-28.5 306.63,-28.5 298.1,-28.5"/>
<polygon fill="#63b8ff" stroke="#63b8ff" points="323.87,-32 333.87,-28.5 323.87,-25 323.87,-32"/>
</a>
</g>
</g>
<!-- Node6 -->
<g id="Node000006" class="node">
<title>Node6</title>
<g id="a_Node000006"><a xlink:href="kernel__service__core_8c.html#a77b96ca30dab7f5f8e84daae1ed8f183" target="_top" xlink:title=" ">
<polygon fill="#fff0f0" stroke="red" points="143,-38 0,-38 0,-19 143,-19 143,-38"/>
<text text-anchor="middle" x="71.5" y="-26" font-family="Helvetica,sans-Serif" font-size="10.00">os_kernel_thread_register</text>
</a>
</g>
</g>
<!-- Node5&#45;&gt;Node6 -->
<g id="edge5_Node000005_Node000006" class="edge">
<title>Node5&#45;&gt;Node6</title>
<g id="a_edge5_Node000005_Node000006"><a xlink:title=" ">
<path fill="none" stroke="#63b8ff" d="M168.67,-28.5C160.22,-28.5 151.57,-28.5 143.09,-28.5"/>
<polygon fill="#63b8ff" stroke="#63b8ff" points="168.86,-32 178.86,-28.5 168.86,-25 168.86,-32"/>
</a>
</g>
</g>
<!-- Node8&#45;&gt;Node4 -->
<g id="edge7_Node000008_Node000004" class="edge">
<title>Node8&#45;&gt;Node4</title>
<g id="a_edge7_Node000008_Node000004"><a xlink:title=" ">
<path fill="none" stroke="#63b8ff" d="M447.76,-18.71C439.15,-19.94 430.5,-21.17 422.37,-22.33"/>
<polygon fill="#63b8ff" stroke="#63b8ff" points="448.41,-22.16 457.82,-17.28 447.42,-15.23 448.41,-22.16"/>
</a>
</g>
</g>
</g>
</svg>
