<?xml version="1.0" encoding="UTF-8" standalone="no"?>
<!DOCTYPE svg PUBLIC "-//W3C//DTD SVG 1.1//EN"
 "http://www.w3.org/Graphics/SVG/1.1/DTD/svg11.dtd">
<!-- Generated by graphviz version 2.43.0 (0)
 -->
<!-- Title: drv_irq_enable Pages: 1 -->
<svg width="246pt" height="101pt"
 viewBox="0.00 0.00 246.00 101.00" xmlns="http://www.w3.org/2000/svg" xmlns:xlink="http://www.w3.org/1999/xlink">
<g id="graph0" class="graph" transform="scale(1 1) rotate(0) translate(4 97)">
<title>drv_irq_enable</title>
<!-- Node1 -->
<g id="Node000001" class="node">
<title>Node1</title>
<g id="a_Node000001"><a xlink:title="Set priority and enable an interrupt line.">
<polygon fill="#999999" stroke="#666666" points="238,-56 149,-56 149,-37 238,-37 238,-56"/>
<text text-anchor="middle" x="193.5" y="-44" font-family="Helvetica,sans-Serif" font-size="10.00">drv_irq_enable</text>
</a>
</g>
</g>
<!-- Node2 -->
<g id="Node000002" class="node">
<title>Node2</title>
<g id="a_Node000002"><a xlink:href="hal__iic__stm32_8c.html#aed2aa84ea7710109eb5cfa905e9c3b6e" target="_top" xlink:title=" ">
<polygon fill="white" stroke="#666666" points="108.5,-93 4.5,-93 4.5,-74 108.5,-74 108.5,-93"/>
<text text-anchor="middle" x="56.5" y="-81" font-family="Helvetica,sans-Serif" font-size="10.00">stm32_iic_hw_init</text>
</a>
</g>
</g>
<!-- Node1&#45;&gt;Node2 -->
<g id="edge1_Node000001_Node000002" class="edge">
<title>Node1&#45;&gt;Node2</title>
<g id="a_edge1_Node000001_Node000002"><a xlink:title=" ">
<path fill="none" stroke="#63b8ff" d="M148.03,-58.69C130.03,-63.62 109.54,-69.24 92.62,-73.88"/>
<polygon fill="#63b8ff" stroke="#63b8ff" points="149.01,-62.05 157.73,-56.03 147.16,-55.3 149.01,-62.05"/>
</a>
</g>
</g>
<!-- Node3 -->
<g id="Node000003" class="node">
<title>Node3</title>
<g id="a_Node000003"><a xlink:href="hal__spi__stm32_8c.html#a0799a6711c950ee3affb4ba4de43612f" target="_top" xlink:title=" ">
<polygon fill="white" stroke="#666666" points="110,-56 3,-56 3,-37 110,-37 110,-56"/>
<text text-anchor="middle" x="56.5" y="-44" font-family="Helvetica,sans-Serif" font-size="10.00">stm32_spi_hw_init</text>
</a>
</g>
</g>
<!-- Node1&#45;&gt;Node3 -->
<g id="edge2_Node000001_Node000003" class="edge">
<title>Node1&#45;&gt;Node3</title>
<g id="a_edge2_Node000001_Node000003"><a xlink:title=" ">
<path fill="none" stroke="#63b8ff" d="M138.63,-46.5C129.22,-46.5 119.44,-46.5 110.06,-46.5"/>
<polygon fill="#63b8ff" stroke="#63b8ff" points="138.67,-50 148.67,-46.5 138.67,-43 138.67,-50"/>
</a>
</g>
</g>
<!-- Node4 -->
<g id="Node000004" class="node">
<title>Node4</title>
<g id="a_Node000004"><a xlink:href="hal__uart__stm32_8c.html#ad6051285aff30b48f94a752d4b13db19" target="_top" xlink:title=" ">
<polygon fill="white" stroke="#666666" points="113,-19 0,-19 0,0 113,0 113,-19"/>
<text text-anchor="middle" x="56.5" y="-7" font-family="Helvetica,sans-Serif" font-size="10.00">stm32_uart_hw_init</text>
</a>
</g>
</g>
<!-- Node1&#45;&gt;Node4 -->
<g id="edge3_Node000001_Node000004" class="edge">
<title>Node1&#45;&gt;Node4</title>
<g id="a_edge3_Node000001_Node000004"><a xlink:title=" ">
<path fill="none" stroke="#63b8ff" d="M148.03,-34.31C130.03,-29.38 109.54,-23.76 92.62,-19.12"/>
<polygon fill="#63b8ff" stroke="#63b8ff" points="147.16,-37.7 157.73,-36.97 149.01,-30.95 147.16,-37.7"/>
</a>
</g>
</g>
</g>
</svg>
