<?xml version="1.0" encoding="UTF-8" standalone="no"?>
<!DOCTYPE svg PUBLIC "-//W3C//DTD SVG 1.1//EN"
 "http://www.w3.org/Graphics/SVG/1.1/DTD/svg11.dtd">
<!-- Generated by graphviz version 2.43.0 (0)
 -->
<!-- Title: drv_spi.h Pages: 1 -->
<svg width="1556pt" height="93pt"
 viewBox="0.00 0.00 1556.00 93.00" xmlns="http://www.w3.org/2000/svg" xmlns:xlink="http://www.w3.org/1999/xlink">
<g id="graph0" class="graph" transform="scale(1 1) rotate(0) translate(4 89)">
<title>drv_spi.h</title>
<!-- Node1 -->
<g id="Node000001" class="node">
<title>Node1</title>
<g id="a_Node000001"><a xlink:title=" ">
<polygon fill="#999999" stroke="#666666" points="817.5,-85 756.5,-85 756.5,-66 817.5,-66 817.5,-85"/>
<text text-anchor="middle" x="787" y="-73" font-family="Helvetica,sans-Serif" font-size="10.00">drv_spi.h</text>
</a>
</g>
</g>
<!-- Node2 -->
<g id="Node000002" class="node">
<title>Node2</title>
<g id="a_Node000002"><a xlink:title=" ">
<polygon fill="#e0e0e0" stroke="#999999" points="116,-30 0,-30 0,0 116,0 116,-30"/>
<text text-anchor="start" x="8" y="-18" font-family="Helvetica,sans-Serif" font-size="10.00">app/bsw_config/arch</text>
<text text-anchor="middle" x="58" y="-7" font-family="Helvetica,sans-Serif" font-size="10.00">_conf/board/board.h</text>
</a>
</g>
</g>
<!-- Node1&#45;&gt;Node2 -->
<g id="edge1_Node000001_Node000002" class="edge">
<title>Node1&#45;&gt;Node2</title>
<g id="a_edge1_Node000001_Node000002"><a xlink:title=" ">
<path fill="none" stroke="#63b8ff" d="M756.49,-73.95C663.4,-71.97 374.68,-63.47 125.97,-29.99"/>
<polygon fill="#63b8ff" stroke="#63b8ff" points="126.4,-26.52 116.02,-28.64 125.45,-33.46 126.4,-26.52"/>
</a>
</g>
</g>
<!-- Node3 -->
<g id="Node000003" class="node">
<title>Node3</title>
<g id="a_Node000003"><a xlink:title=" ">
<polygon fill="#e0e0e0" stroke="#999999" points="240,-30 134,-30 134,0 240,0 240,-30"/>
<text text-anchor="start" x="142" y="-18" font-family="Helvetica,sans-Serif" font-size="10.00">bsw/utils/type_def</text>
<text text-anchor="middle" x="187" y="-7" font-family="Helvetica,sans-Serif" font-size="10.00">/typedef_global.h</text>
</a>
</g>
</g>
<!-- Node1&#45;&gt;Node3 -->
<g id="edge2_Node000001_Node000003" class="edge">
<title>Node1&#45;&gt;Node3</title>
<g id="a_edge2_Node000001_Node000003"><a xlink:title=" ">
<path fill="none" stroke="#63b8ff" d="M756.49,-73.47C675.53,-70.41 448.47,-59.79 250.03,-30.01"/>
<polygon fill="#63b8ff" stroke="#63b8ff" points="250.42,-26.52 240.01,-28.48 249.37,-33.44 250.42,-26.52"/>
</a>
</g>
</g>
<!-- Node4 -->
<g id="Node000004" class="node">
<title>Node4</title>
<g id="a_Node000004"><a xlink:title=" ">
<polygon fill="#e0e0e0" stroke="#999999" points="395.5,-30 258.5,-30 258.5,0 395.5,0 395.5,-30"/>
<text text-anchor="start" x="266.5" y="-18" font-family="Helvetica,sans-Serif" font-size="10.00">bsw/services/os_shell</text>
<text text-anchor="middle" x="327" y="-7" font-family="Helvetica,sans-Serif" font-size="10.00">_mgmt/os_shell_mgmt.h</text>
</a>
</g>
</g>
<!-- Node1&#45;&gt;Node4 -->
<g id="edge3_Node000001_Node000004" class="edge">
<title>Node1&#45;&gt;Node4</title>
<g id="a_edge3_Node000001_Node000004"><a xlink:title=" ">
<path fill="none" stroke="#63b8ff" d="M756.13,-71.59C692.52,-65.45 542.02,-50.18 405.99,-30.24"/>
<polygon fill="#63b8ff" stroke="#63b8ff" points="406.22,-26.74 395.81,-28.74 405.19,-33.66 406.22,-26.74"/>
</a>
</g>
</g>
<!-- Node5 -->
<g id="Node000005" class="node">
<title>Node5</title>
<g id="a_Node000005"><a xlink:title=" ">
<polygon fill="#e0e0e0" stroke="#999999" points="566.5,-30 413.5,-30 413.5,0 566.5,0 566.5,-30"/>
<text text-anchor="start" x="421.5" y="-18" font-family="Helvetica,sans-Serif" font-size="10.00">bsw/services/diagnostics</text>
<text text-anchor="middle" x="490" y="-7" font-family="Helvetica,sans-Serif" font-size="10.00">_mgmt/diagnostics_mgmt.h</text>
</a>
</g>
</g>
<!-- Node1&#45;&gt;Node5 -->
<g id="edge4_Node000001_Node000005" class="edge">
<title>Node1&#45;&gt;Node5</title>
<g id="a_edge4_Node000001_Node000005"><a xlink:title=" ">
<path fill="none" stroke="#63b8ff" d="M756.33,-68.46C713.02,-59.93 632.39,-44.05 571.15,-31.98"/>
<polygon fill="#63b8ff" stroke="#63b8ff" points="571.6,-28.5 561.11,-30.01 570.24,-35.37 571.6,-28.5"/>
</a>
</g>
</g>
<!-- Node6 -->
<g id="Node000006" class="node">
<title>Node6</title>
<g id="a_Node000006"><a xlink:title=" ">
<polygon fill="#e0e0e0" stroke="#999999" points="713.5,-24.5 584.5,-24.5 584.5,-5.5 713.5,-5.5 713.5,-24.5"/>
<text text-anchor="middle" x="649" y="-12.5" font-family="Helvetica,sans-Serif" font-size="10.00">bsw/utils/error_codes.h</text>
</a>
</g>
</g>
<!-- Node1&#45;&gt;Node6 -->
<g id="edge5_Node000001_Node000006" class="edge">
<title>Node1&#45;&gt;Node6</title>
<g id="a_edge5_Node000001_Node000006"><a xlink:title=" ">
<path fill="none" stroke="#63b8ff" d="M766.93,-65.99C743.63,-56.12 704.99,-39.73 678.32,-28.43"/>
<polygon fill="#63b8ff" stroke="#63b8ff" points="679.66,-25.2 669.09,-24.52 676.93,-31.64 679.66,-25.2"/>
</a>
</g>
</g>
<!-- Node7 -->
<g id="Node000007" class="node">
<title>Node7</title>
<g id="a_Node000007"><a xlink:title=" ">
<polygon fill="#e0e0e0" stroke="#999999" points="842.5,-24.5 731.5,-24.5 731.5,-5.5 842.5,-5.5 842.5,-24.5"/>
<text text-anchor="middle" x="787" y="-12.5" font-family="Helvetica,sans-Serif" font-size="10.00">bsw/kernel/kernel.h</text>
</a>
</g>
</g>
<!-- Node1&#45;&gt;Node7 -->
<g id="edge6_Node000001_Node000007" class="edge">
<title>Node1&#45;&gt;Node7</title>
<g id="a_edge6_Node000001_Node000007"><a xlink:title=" ">
<path fill="none" stroke="#63b8ff" d="M787,-65.87C787,-57.75 787,-45.31 787,-34.89"/>
<polygon fill="#63b8ff" stroke="#63b8ff" points="790.5,-34.67 787,-24.67 783.5,-34.67 790.5,-34.67"/>
</a>
</g>
</g>
<!-- Node8 -->
<g id="Node000008" class="node">
<title>Node8</title>
<g id="a_Node000008"><a xlink:title=" ">
<polygon fill="#e0e0e0" stroke="#999999" points="991.5,-24.5 860.5,-24.5 860.5,-5.5 991.5,-5.5 991.5,-24.5"/>
<text text-anchor="middle" x="926" y="-12.5" font-family="Helvetica,sans-Serif" font-size="10.00">bsw/ipc/events/signal.h</text>
</a>
</g>
</g>
<!-- Node1&#45;&gt;Node8 -->
<g id="edge7_Node000001_Node000008" class="edge">
<title>Node1&#45;&gt;Node8</title>
<g id="a_edge7_Node000001_Node000008"><a xlink:title=" ">
<path fill="none" stroke="#63b8ff" d="M807.21,-65.99C830.68,-56.12 869.61,-39.73 896.46,-28.43"/>
<polygon fill="#63b8ff" stroke="#63b8ff" points="897.9,-31.62 905.76,-24.52 895.19,-25.17 897.9,-31.62"/>
</a>
</g>
</g>
<!-- Node9 -->
<g id="Node000009" class="node">
<title>Node9</title>
<g id="a_Node000009"><a xlink:title=" ">
<polygon fill="#e0e0e0" stroke="#999999" points="1158,-24.5 1010,-24.5 1010,-5.5 1158,-5.5 1158,-24.5"/>
<text text-anchor="middle" x="1084" y="-12.5" font-family="Helvetica,sans-Serif" font-size="10.00">bsw/ipc/mqueue/mqueue.h</text>
</a>
</g>
</g>
<!-- Node1&#45;&gt;Node9 -->
<g id="edge8_Node000001_Node000009" class="edge">
<title>Node1&#45;&gt;Node9</title>
<g id="a_edge8_Node000001_Node000009"><a xlink:title=" ">
<path fill="none" stroke="#63b8ff" d="M817.67,-68.46C867.93,-58.56 968.45,-38.76 1030.6,-26.52"/>
<polygon fill="#63b8ff" stroke="#63b8ff" points="1031.47,-29.91 1040.61,-24.55 1030.12,-23.05 1031.47,-29.91"/>
</a>
</g>
</g>
<!-- Node10 -->
<g id="Node000010" class="node">
<title>Node10</title>
<g id="a_Node000010"><a xlink:title=" ">
<polygon fill="#e0e0e0" stroke="#999999" points="1295.5,-30 1176.5,-30 1176.5,0 1295.5,0 1295.5,-30"/>
<text text-anchor="start" x="1184.5" y="-18" font-family="Helvetica,sans-Serif" font-size="10.00">bsw/ipc/global/global</text>
<text text-anchor="middle" x="1236" y="-7" font-family="Helvetica,sans-Serif" font-size="10.00">_var.h</text>
</a>
</g>
</g>
<!-- Node1&#45;&gt;Node10 -->
<g id="edge9_Node000001_Node000010" class="edge">
<title>Node1&#45;&gt;Node10</title>
<g id="a_edge9_Node000001_Node000010"><a xlink:title=" ">
<path fill="none" stroke="#63b8ff" d="M817.66,-71.79C880.83,-66.01 1030.25,-51.38 1166.05,-30.06"/>
<polygon fill="#63b8ff" stroke="#63b8ff" points="1166.89,-33.47 1176.22,-28.45 1165.79,-26.56 1166.89,-33.47"/>
</a>
</g>
</g>
<!-- Node11 -->
<g id="Node000011" class="node">
<title>Node11</title>
<g id="a_Node000011"><a xlink:title=" ">
<polygon fill="#e0e0e0" stroke="#999999" points="1422,-30 1314,-30 1314,0 1422,0 1422,-30"/>
<text text-anchor="start" x="1322" y="-18" font-family="Helvetica,sans-Serif" font-size="10.00">bsw/drivers/device</text>
<text text-anchor="middle" x="1368" y="-7" font-family="Helvetica,sans-Serif" font-size="10.00">/driver_port.h</text>
</a>
</g>
</g>
<!-- Node1&#45;&gt;Node11 -->
<g id="edge10_Node000001_Node000011" class="edge">
<title>Node1&#45;&gt;Node11</title>
<g id="a_edge10_Node000001_Node000011"><a xlink:title=" ">
<path fill="none" stroke="#63b8ff" d="M817.53,-73.3C896.42,-69.88 1113.62,-58.58 1303.89,-30.03"/>
<polygon fill="#63b8ff" stroke="#63b8ff" points="1304.43,-33.49 1313.79,-28.53 1303.38,-26.57 1304.43,-33.49"/>
</a>
</g>
</g>
<!-- Node12 -->
<g id="Node000012" class="node">
<title>Node12</title>
<g id="a_Node000012"><a xlink:title=" ">
<polygon fill="#e0e0e0" stroke="#999999" points="1548,-30 1440,-30 1440,0 1548,0 1548,-30"/>
<text text-anchor="start" x="1448" y="-18" font-family="Helvetica,sans-Serif" font-size="10.00">bsw/drivers/device</text>
<text text-anchor="middle" x="1494" y="-7" font-family="Helvetica,sans-Serif" font-size="10.00">/gpio/drv_gpio.h</text>
</a>
</g>
</g>
<!-- Node1&#45;&gt;Node12 -->
<g id="edge11_Node000001_Node000012" class="edge">
<title>Node1&#45;&gt;Node12</title>
<g id="a_edge11_Node000001_Node000012"><a xlink:title=" ">
<path fill="none" stroke="#63b8ff" d="M817.68,-74.01C909.28,-72.19 1188.9,-64.16 1429.8,-30.02"/>
<polygon fill="#63b8ff" stroke="#63b8ff" points="1430.4,-33.47 1439.8,-28.58 1429.4,-26.54 1430.4,-33.47"/>
</a>
</g>
</g>
</g>
</svg>
