<?xml version="1.0" encoding="UTF-8" standalone="no"?>
<!DOCTYPE svg PUBLIC "-//W3C//DTD SVG 1.1//EN"
 "http://www.w3.org/Graphics/SVG/1.1/DTD/svg11.dtd">
<!-- Generated by graphviz version 2.43.0 (0)
 -->
<!-- Title: fsm_event_alloc Pages: 1 -->
<svg width="269pt" height="64pt"
 viewBox="0.00 0.00 269.00 64.00" xmlns="http://www.w3.org/2000/svg" xmlns:xlink="http://www.w3.org/1999/xlink">
<g id="graph0" class="graph" transform="scale(1 1) rotate(0) translate(4 60)">
<title>fsm_event_alloc</title>
<!-- Node1 -->
<g id="Node000001" class="node">
<title>Node1</title>
<g id="a_Node000001"><a xlink:title=" ">
<polygon fill="#999999" stroke="#666666" points="261,-37 164,-37 164,-18 261,-18 261,-37"/>
<text text-anchor="middle" x="212.5" y="-25" font-family="Helvetica,sans-Serif" font-size="10.00">fsm_event_alloc</text>
</a>
</g>
</g>
<!-- Node2 -->
<g id="Node000002" class="node">
<title>Node2</title>
<g id="a_Node000002"><a xlink:href="fsm_8c.html#aa8590e43a569ebdfe6e26d6f8c663252" target="_top" xlink:title="Post an event from task / thread context.">
<polygon fill="white" stroke="#666666" points="105,-56 23,-56 23,-37 105,-37 105,-56"/>
<text text-anchor="middle" x="64" y="-44" font-family="Helvetica,sans-Serif" font-size="10.00">fsm_dispatch</text>
</a>
</g>
</g>
<!-- Node1&#45;&gt;Node2 -->
<g id="edge1_Node000001_Node000002" class="edge">
<title>Node1&#45;&gt;Node2</title>
<g id="a_edge1_Node000001_Node000002"><a xlink:title=" ">
<path fill="none" stroke="#63b8ff" d="M154,-34.96C137.77,-37.06 120.45,-39.31 105.45,-41.25"/>
<polygon fill="#63b8ff" stroke="#63b8ff" points="154.47,-38.43 163.94,-33.67 153.57,-31.48 154.47,-38.43"/>
</a>
</g>
</g>
<!-- Node3 -->
<g id="Node000003" class="node">
<title>Node3</title>
<g id="a_Node000003"><a xlink:href="fsm_8c.html#aaa5026b4a05e5d3fd26364d10e4bc646" target="_top" xlink:title="Post an event from an ISR.">
<polygon fill="white" stroke="#666666" points="128,-19 0,-19 0,0 128,0 128,-19"/>
<text text-anchor="middle" x="64" y="-7" font-family="Helvetica,sans-Serif" font-size="10.00">fsm_dispatch_from_isr</text>
</a>
</g>
</g>
<!-- Node1&#45;&gt;Node3 -->
<g id="edge2_Node000001_Node000003" class="edge">
<title>Node1&#45;&gt;Node3</title>
<g id="a_edge2_Node000001_Node000003"><a xlink:title=" ">
<path fill="none" stroke="#63b8ff" d="M153.8,-20.41C145.35,-19.37 136.61,-18.3 128.06,-17.25"/>
<polygon fill="#63b8ff" stroke="#63b8ff" points="153.58,-23.91 163.94,-21.66 154.44,-16.96 153.58,-23.91"/>
</a>
</g>
</g>
</g>
</svg>
