<?xml version="1.0" encoding="UTF-8" standalone="no"?>
<!DOCTYPE svg PUBLIC "-//W3C//DTD SVG 1.1//EN"
 "http://www.w3.org/Graphics/SVG/1.1/DTD/svg11.dtd">
<!-- Generated by graphviz version 2.43.0 (0)
 -->
<!-- Title: fsm_run Pages: 1 -->
<svg width="226pt" height="138pt"
 viewBox="0.00 0.00 226.00 138.00" xmlns="http://www.w3.org/2000/svg" xmlns:xlink="http://www.w3.org/1999/xlink">

<svg id="main" version="1.1" xmlns="http://www.w3.org/2000/svg" xmlns:xlink="http://www.w3.org/1999/xlink" xml:space="preserve" onload="init(evt)">
<style type="text/css"><![CDATA[
.node, .edge {opacity: 0.7;}
.node.selected, .edge.selected {opacity: 1;}
.edge:hover path { stroke: red; }
.edge:hover polygon { stroke: red; fill: red; }
]]></style>
<script type="application/ecmascript" xlink:href="svg.min.js"/>
<svg id="graph" class="graph">
<g id="graph0" class="graph" transform="scale(1 1) rotate(0) translate(4 134)">
<title>fsm_run</title>
<!-- Node1 -->
<g id="Node000001" class="node">
<title>Node1</title>
<g id="a_Node000001"><a xlink:title="Process all pending events — call this in your task loop.">
<polygon fill="#999999" stroke="#666666" points="56,-74 0,-74 0,-55 56,-55 56,-74"/>
<text text-anchor="middle" x="28" y="-62" font-family="Helvetica,sans-Serif" font-size="10.00">fsm_run</text>
</a>
</g>
</g>
<!-- Node2 -->
<g id="Node000002" class="node">
<title>Node2</title>
<g id="a_Node000002"><a xlink:href="fsm_8c.html#a4d3aadd348e4b34191cb7cdc66153e6f" target="_top" xlink:title="Walk down from &#39;ancestor&#39; to &#39;target&#39; calling on_entry.">
<polygon fill="white" stroke="#666666" points="218,-130 92,-130 92,-111 218,-111 218,-130"/>
<text text-anchor="middle" x="155" y="-118" font-family="Helvetica,sans-Serif" font-size="10.00">fsm_enter_down_from</text>
</a>
</g>
</g>
<!-- Node1&#45;&gt;Node2 -->
<g id="edge1_Node000001_Node000002" class="edge">
<title>Node1&#45;&gt;Node2</title>
<g id="a_edge1_Node000001_Node000002"><a xlink:title=" ">
<path fill="none" stroke="#63b8ff" d="M42.45,-74.03C54.84,-82.46 73.98,-94.61 92,-102.5 96.39,-104.42 101.04,-106.2 105.75,-107.84"/>
<polygon fill="#63b8ff" stroke="#63b8ff" points="104.82,-111.22 115.41,-110.99 106.99,-104.56 104.82,-111.22"/>
</a>
</g>
</g>
<!-- Node3 -->
<g id="Node000003" class="node">
<title>Node3</title>
<g id="a_Node000003"><a xlink:href="fsm_8c.html#ae71454993499fc4591711ea6b4e71538" target="_top" xlink:title="Walk up the parent chain calling on_exit until &#39;stop&#39;.">
<polygon fill="white" stroke="#666666" points="201,-93 109,-93 109,-74 201,-74 201,-93"/>
<text text-anchor="middle" x="155" y="-81" font-family="Helvetica,sans-Serif" font-size="10.00">fsm_exit_up_to</text>
</a>
</g>
</g>
<!-- Node1&#45;&gt;Node3 -->
<g id="edge2_Node000001_Node000003" class="edge">
<title>Node1&#45;&gt;Node3</title>
<g id="a_edge2_Node000001_Node000003"><a xlink:title=" ">
<path fill="none" stroke="#63b8ff" d="M56.12,-68.62C68.61,-70.52 83.9,-72.84 98.66,-75.09"/>
<polygon fill="#63b8ff" stroke="#63b8ff" points="98.33,-78.58 108.74,-76.62 99.38,-71.66 98.33,-78.58"/>
</a>
</g>
</g>
<!-- Node4 -->
<g id="Node000004" class="node">
<title>Node4</title>
<g id="a_Node000004"><a xlink:href="fsm_8c.html#ab3913b4ca5be1e70c7b18949f67aea4b" target="_top" xlink:title="Find the Lowest Common Ancestor (LCA) of states a and b.">
<polygon fill="white" stroke="#666666" points="182.5,-56 127.5,-56 127.5,-37 182.5,-37 182.5,-56"/>
<text text-anchor="middle" x="155" y="-44" font-family="Helvetica,sans-Serif" font-size="10.00">fsm_lca</text>
</a>
</g>
</g>
<!-- Node1&#45;&gt;Node4 -->
<g id="edge3_Node000001_Node000004" class="edge">
<title>Node1&#45;&gt;Node4</title>
<g id="a_edge3_Node000001_Node000004"><a xlink:title=" ">
<path fill="none" stroke="#63b8ff" d="M56.12,-60.59C74.02,-58.02 97.68,-54.61 117.26,-51.79"/>
<polygon fill="#63b8ff" stroke="#63b8ff" points="117.96,-55.23 127.36,-50.34 116.96,-48.3 117.96,-55.23"/>
</a>
</g>
</g>
<!-- Node5 -->
<g id="Node000005" class="node">
<title>Node5</title>
<g id="a_Node000005"><a xlink:href="fsm_8c.html#a5f657e2bd363c3cddd83764eae9e25e4" target="_top" xlink:title="Remove and return the event at the head of the queue.">
<polygon fill="white" stroke="#666666" points="190,-19 120,-19 120,0 190,0 190,-19"/>
<text text-anchor="middle" x="155" y="-7" font-family="Helvetica,sans-Serif" font-size="10.00">queue_pop</text>
</a>
</g>
</g>
<!-- Node1&#45;&gt;Node5 -->
<g id="edge4_Node000001_Node000005" class="edge">
<title>Node1&#45;&gt;Node5</title>
<g id="a_edge4_Node000001_Node000005"><a xlink:title=" ">
<path fill="none" stroke="#63b8ff" d="M43.54,-54.95C56.01,-47.07 74.66,-36 92,-28.5 97.76,-26.01 103.96,-23.7 110.12,-21.61"/>
<polygon fill="#63b8ff" stroke="#63b8ff" points="111.28,-24.92 119.72,-18.52 109.13,-18.25 111.28,-24.92"/>
</a>
</g>
</g>
</g>
</svg>
</svg>

<style type='text/css'>
<![CDATA[
[data-mouse-over-selected='false'] { opacity: 0.7; }
[data-mouse-over-selected='true']  { opacity: 1.0; }
]]>
</style>
<script type="application/ecmascript"><![CDATA[
document.addEventListener('DOMContentLoaded', (event) => {
  highlightEdges();
  highlightAdjacentNodes();
});
]]></script>
</svg>
