<?xml version="1.0" encoding="UTF-8" standalone="no"?>
<!DOCTYPE svg PUBLIC "-//W3C//DTD SVG 1.1//EN"
 "http://www.w3.org/Graphics/SVG/1.1/DTD/svg11.dtd">
<!-- Generated by graphviz version 2.43.0 (0)
 -->
<!-- Title: global_var.h Pages: 1 -->
<svg width="631pt" height="137pt"
 viewBox="0.00 0.00 630.50 137.00" xmlns="http://www.w3.org/2000/svg" xmlns:xlink="http://www.w3.org/1999/xlink">
<g id="graph0" class="graph" transform="scale(1 1) rotate(0) translate(4 133)">
<title>global_var.h</title>
<!-- Node1 -->
<g id="Node000001" class="node">
<title>Node1</title>
<g id="a_Node000001"><a xlink:title=" ">
<polygon fill="#999999" stroke="#666666" points="309.5,-129 233.5,-129 233.5,-110 309.5,-110 309.5,-129"/>
<text text-anchor="middle" x="271.5" y="-117" font-family="Helvetica,sans-Serif" font-size="10.00">global_var.h</text>
</a>
</g>
</g>
<!-- Node2 -->
<g id="Node000002" class="node">
<title>Node2</title>
<g id="a_Node000002"><a xlink:href="drv__uart_8c.html" target="_top" xlink:title=" ">
<polygon fill="white" stroke="#666666" points="65,-74 0,-74 0,-55 65,-55 65,-74"/>
<text text-anchor="middle" x="32.5" y="-62" font-family="Helvetica,sans-Serif" font-size="10.00">drv_uart.c</text>
</a>
</g>
</g>
<!-- Node1&#45;&gt;Node2 -->
<g id="edge1_Node000001_Node000002" class="edge">
<title>Node1&#45;&gt;Node2</title>
<g id="a_edge1_Node000001_Node000002"><a xlink:title=" ">
<path fill="none" stroke="#63b8ff" d="M223.41,-107.83C176.36,-97.4 105.99,-81.8 65.12,-72.73"/>
<polygon fill="#63b8ff" stroke="#63b8ff" points="222.84,-111.3 233.37,-110.04 224.36,-104.46 222.84,-111.3"/>
</a>
</g>
</g>
<!-- Node3 -->
<g id="Node000003" class="node">
<title>Node3</title>
<g id="a_Node000003"><a xlink:href="drv__uart_8h.html" target="_top" xlink:title=" ">
<polygon fill="white" stroke="#666666" points="149.5,-74 83.5,-74 83.5,-55 149.5,-55 149.5,-74"/>
<text text-anchor="middle" x="116.5" y="-62" font-family="Helvetica,sans-Serif" font-size="10.00">drv_uart.h</text>
</a>
</g>
</g>
<!-- Node1&#45;&gt;Node3 -->
<g id="edge2_Node000001_Node000003" class="edge">
<title>Node1&#45;&gt;Node3</title>
<g id="a_edge2_Node000001_Node000003"><a xlink:title=" ">
<path fill="none" stroke="#63b8ff" d="M236.9,-106.67C208,-96.79 167.47,-82.93 141.6,-74.08"/>
<polygon fill="#63b8ff" stroke="#63b8ff" points="236,-110.06 246.6,-109.98 238.27,-103.44 236,-110.06"/>
</a>
</g>
</g>
<!-- Node4 -->
<g id="Node000004" class="node">
<title>Node4</title>
<g id="a_Node000004"><a xlink:href="global__var_8c.html" target="_top" xlink:title=" ">
<polygon fill="white" stroke="#666666" points="243,-74 168,-74 168,-55 243,-55 243,-74"/>
<text text-anchor="middle" x="205.5" y="-62" font-family="Helvetica,sans-Serif" font-size="10.00">global_var.c</text>
</a>
</g>
</g>
<!-- Node1&#45;&gt;Node4 -->
<g id="edge3_Node000001_Node000004" class="edge">
<title>Node1&#45;&gt;Node4</title>
<g id="a_edge3_Node000001_Node000004"><a xlink:title=" ">
<path fill="none" stroke="#63b8ff" d="M252.95,-103.6C241.12,-94.11 226.21,-82.13 216.3,-74.17"/>
<polygon fill="#63b8ff" stroke="#63b8ff" points="250.91,-106.45 260.9,-109.98 255.29,-100.99 250.91,-106.45"/>
</a>
</g>
</g>
<!-- Node5 -->
<g id="Node000005" class="node">
<title>Node5</title>
<g id="a_Node000005"><a xlink:href="kernel__syscall_8h.html" target="_top" xlink:title=" ">
<polygon fill="white" stroke="#666666" points="433,-74 338,-74 338,-55 433,-55 433,-74"/>
<text text-anchor="middle" x="385.5" y="-62" font-family="Helvetica,sans-Serif" font-size="10.00">kernel_syscall.h</text>
</a>
</g>
</g>
<!-- Node1&#45;&gt;Node5 -->
<g id="edge4_Node000001_Node000005" class="edge">
<title>Node1&#45;&gt;Node5</title>
<g id="a_edge4_Node000001_Node000005"><a xlink:title=" ">
<path fill="none" stroke="#63b8ff" d="M298.89,-105.77C319.92,-95.99 348.39,-82.75 366.85,-74.17"/>
<polygon fill="#63b8ff" stroke="#63b8ff" points="297.41,-102.6 289.82,-109.98 300.36,-108.94 297.41,-102.6"/>
</a>
</g>
</g>
<!-- Node6 -->
<g id="Node000006" class="node">
<title>Node6</title>
<g id="a_Node000006"><a xlink:href="main_8c.html" target="_top" xlink:title=" ">
<polygon fill="white" stroke="#666666" points="259.5,-19 209.5,-19 209.5,0 259.5,0 259.5,-19"/>
<text text-anchor="middle" x="234.5" y="-7" font-family="Helvetica,sans-Serif" font-size="10.00">main.c</text>
</a>
</g>
</g>
<!-- Node1&#45;&gt;Node6 -->
<g id="edge9_Node000001_Node000006" class="edge">
<title>Node1&#45;&gt;Node6</title>
<g id="a_edge9_Node000001_Node000006"><a xlink:title=" ">
<path fill="none" stroke="#63b8ff" d="M265.98,-99.97C262.12,-87.26 256.73,-70.03 251.5,-55 247.15,-42.5 241.6,-28.24 238.04,-19.31"/>
<polygon fill="#63b8ff" stroke="#63b8ff" points="262.71,-101.25 268.95,-109.82 269.42,-99.23 262.71,-101.25"/>
</a>
</g>
</g>
<!-- Node7 -->
<g id="Node000007" class="node">
<title>Node7</title>
<g id="a_Node000007"><a xlink:href="os__shell__management_8c.html" target="_top" xlink:title=" ">
<polygon fill="white" stroke="#666666" points="413,-19 278,-19 278,0 413,0 413,-19"/>
<text text-anchor="middle" x="345.5" y="-7" font-family="Helvetica,sans-Serif" font-size="10.00">os_shell_management.c</text>
</a>
</g>
</g>
<!-- Node1&#45;&gt;Node7 -->
<g id="edge10_Node000001_Node000007" class="edge">
<title>Node1&#45;&gt;Node7</title>
<g id="a_edge10_Node000001_Node000007"><a xlink:title=" ">
<path fill="none" stroke="#63b8ff" d="M283.23,-101.38C299.25,-78.01 327.36,-36.97 339.57,-19.16"/>
<polygon fill="#63b8ff" stroke="#63b8ff" points="280.32,-99.43 277.56,-109.66 286.1,-103.39 280.32,-99.43"/>
</a>
</g>
</g>
<!-- Node10 -->
<g id="Node000010" class="node">
<title>Node10</title>
<g id="a_Node000010"><a xlink:href="uart__mgmt_8c.html" target="_top" xlink:title=" ">
<polygon fill="white" stroke="#666666" points="530,-74 451,-74 451,-55 530,-55 530,-74"/>
<text text-anchor="middle" x="490.5" y="-62" font-family="Helvetica,sans-Serif" font-size="10.00">uart_mgmt.c</text>
</a>
</g>
</g>
<!-- Node1&#45;&gt;Node10 -->
<g id="edge11_Node000001_Node000010" class="edge">
<title>Node1&#45;&gt;Node10</title>
<g id="a_edge11_Node000001_Node000010"><a xlink:title=" ">
<path fill="none" stroke="#63b8ff" d="M316.43,-107.63C357.45,-97.7 417.29,-83.22 455.04,-74.08"/>
<polygon fill="#63b8ff" stroke="#63b8ff" points="315.58,-104.23 306.69,-109.98 317.23,-111.03 315.58,-104.23"/>
</a>
</g>
</g>
<!-- Node5&#45;&gt;Node6 -->
<g id="edge5_Node000005_Node000006" class="edge">
<title>Node5&#45;&gt;Node6</title>
<g id="a_edge5_Node000005_Node000006"><a xlink:title=" ">
<path fill="none" stroke="#63b8ff" d="M351.45,-51.55C323.41,-41.71 284.32,-27.98 259.2,-19.17"/>
<polygon fill="#63b8ff" stroke="#63b8ff" points="350.64,-54.98 361.24,-54.98 352.96,-48.37 350.64,-54.98"/>
</a>
</g>
</g>
<!-- Node5&#45;&gt;Node7 -->
<g id="edge6_Node000005_Node000007" class="edge">
<title>Node5&#45;&gt;Node7</title>
<g id="a_edge6_Node000005_Node000007"><a xlink:title=" ">
<path fill="none" stroke="#63b8ff" d="M372.8,-46.67C365.87,-37.5 357.59,-26.52 351.98,-19.09"/>
<polygon fill="#63b8ff" stroke="#63b8ff" points="370.08,-48.87 378.89,-54.75 375.66,-44.66 370.08,-48.87"/>
</a>
</g>
</g>
<!-- Node8 -->
<g id="Node000008" class="node">
<title>Node8</title>
<g id="a_Node000008"><a xlink:href="shell__task__mgmt_8c.html" target="_top" xlink:title=" ">
<polygon fill="white" stroke="#666666" points="540,-19 431,-19 431,0 540,0 540,-19"/>
<text text-anchor="middle" x="485.5" y="-7" font-family="Helvetica,sans-Serif" font-size="10.00">shell_task_mgmt.c</text>
</a>
</g>
</g>
<!-- Node5&#45;&gt;Node8 -->
<g id="edge7_Node000005_Node000008" class="edge">
<title>Node5&#45;&gt;Node8</title>
<g id="a_edge7_Node000005_Node000008"><a xlink:title=" ">
<path fill="none" stroke="#63b8ff" d="M410.53,-50.23C428.87,-40.51 453.24,-27.6 469.14,-19.17"/>
<polygon fill="#63b8ff" stroke="#63b8ff" points="408.76,-47.21 401.57,-54.98 412.04,-53.39 408.76,-47.21"/>
</a>
</g>
</g>
<!-- Node9 -->
<g id="Node000009" class="node">
<title>Node9</title>
<g id="a_Node000009"><a xlink:href="syscalls_8c.html" target="_top" xlink:title=" ">
<polygon fill="white" stroke="#666666" points="622.5,-19 558.5,-19 558.5,0 622.5,0 622.5,-19"/>
<text text-anchor="middle" x="590.5" y="-7" font-family="Helvetica,sans-Serif" font-size="10.00">syscalls.c</text>
</a>
</g>
</g>
<!-- Node5&#45;&gt;Node9 -->
<g id="edge8_Node000005_Node000009" class="edge">
<title>Node5&#45;&gt;Node9</title>
<g id="a_edge8_Node000005_Node000009"><a xlink:title=" ">
<path fill="none" stroke="#63b8ff" d="M428.38,-52.41C467.13,-42.4 523.3,-27.87 558.32,-18.82"/>
<polygon fill="#63b8ff" stroke="#63b8ff" points="427.24,-49.09 418.44,-54.98 428.99,-55.87 427.24,-49.09"/>
</a>
</g>
</g>
</g>
</svg>
