<?xml version="1.0" encoding="UTF-8" standalone="no"?>
<!DOCTYPE svg PUBLIC "-//W3C//DTD SVG 1.1//EN"
 "http://www.w3.org/Graphics/SVG/1.1/DTD/svg11.dtd">
<!-- Generated by graphviz version 2.43.0 (0)
 -->
<!-- Title: gpio_mgmt_thread Pages: 1 -->
<svg width="290pt" height="187pt"
 viewBox="0.00 0.00 290.00 187.00" xmlns="http://www.w3.org/2000/svg" xmlns:xlink="http://www.w3.org/1999/xlink">
<g id="graph0" class="graph" transform="scale(1 1) rotate(0) translate(4 183)">
<title>gpio_mgmt_thread</title>
<!-- Node1 -->
<g id="Node000001" class="node">
<title>Node1</title>
<g id="a_Node000001"><a xlink:title=" ">
<polygon fill="#999999" stroke="#666666" points="109,-105 0,-105 0,-86 109,-86 109,-105"/>
<text text-anchor="middle" x="54.5" y="-93" font-family="Helvetica,sans-Serif" font-size="10.00">gpio_mgmt_thread</text>
</a>
</g>
</g>
<!-- Node2 -->
<g id="Node000002" class="node">
<title>Node2</title>
<g id="a_Node000002"><a xlink:href="drv__gpio_8c.html#a0c96221e67620454c2c8f08c9a785524" target="_top" xlink:title=" ">
<polygon fill="white" stroke="#666666" points="272.5,-179 154.5,-179 154.5,-160 272.5,-160 272.5,-179"/>
<text text-anchor="middle" x="213.5" y="-167" font-family="Helvetica,sans-Serif" font-size="10.00">drv_gpio_get_handle</text>
</a>
</g>
</g>
<!-- Node1&#45;&gt;Node2 -->
<g id="edge1_Node000001_Node000002" class="edge">
<title>Node1&#45;&gt;Node2</title>
<g id="a_edge1_Node000001_Node000002"><a xlink:title=" ">
<path fill="none" stroke="#63b8ff" d="M68.16,-105.14C84.91,-117.49 115.75,-138.79 145,-151.5 149.61,-153.5 154.5,-155.33 159.45,-156.98"/>
<polygon fill="#63b8ff" stroke="#63b8ff" points="158.41,-160.32 169,-159.95 160.49,-153.64 158.41,-160.32"/>
</a>
</g>
</g>
<!-- Node3 -->
<g id="Node000003" class="node">
<title>Node3</title>
<g id="a_Node000003"><a xlink:href="drv__gpio_8c.html#a72d83c6bed1bb43b771c47d2de6417d3" target="_top" xlink:title=" ">
<polygon fill="white" stroke="#666666" points="264,-142 163,-142 163,-123 264,-123 264,-142"/>
<text text-anchor="middle" x="213.5" y="-130" font-family="Helvetica,sans-Serif" font-size="10.00">drv_gpio_register</text>
</a>
</g>
</g>
<!-- Node1&#45;&gt;Node3 -->
<g id="edge2_Node000001_Node000003" class="edge">
<title>Node1&#45;&gt;Node3</title>
<g id="a_edge2_Node000001_Node000003"><a xlink:title=" ">
<path fill="none" stroke="#63b8ff" d="M95.93,-105.03C116.09,-109.78 140.67,-115.57 162.05,-120.61"/>
<polygon fill="#63b8ff" stroke="#63b8ff" points="161.4,-124.05 171.93,-122.94 163,-117.24 161.4,-124.05"/>
</a>
</g>
</g>
<!-- Node4 -->
<g id="Node000004" class="node">
<title>Node4</title>
<g id="a_Node000004"><a xlink:href="hal__gpio__stm32_8c.html#abcec079fb8a1cf67b382f5378299a8ef" target="_top" xlink:title="Return pointer to the STM32 GPIO HAL ops table.">
<polygon fill="white" stroke="#666666" points="282,-105 145,-105 145,-86 282,-86 282,-105"/>
<text text-anchor="middle" x="213.5" y="-93" font-family="Helvetica,sans-Serif" font-size="10.00">hal_gpio_stm32_get_ops</text>
</a>
</g>
</g>
<!-- Node1&#45;&gt;Node4 -->
<g id="edge3_Node000001_Node000004" class="edge">
<title>Node1&#45;&gt;Node4</title>
<g id="a_edge3_Node000001_Node000004"><a xlink:title=" ">
<path fill="none" stroke="#63b8ff" d="M109.09,-95.5C117.39,-95.5 126.11,-95.5 134.81,-95.5"/>
<polygon fill="#63b8ff" stroke="#63b8ff" points="134.99,-99 144.99,-95.5 134.99,-92 134.99,-99"/>
</a>
</g>
</g>
<!-- Node5 -->
<g id="Node000005" class="node">
<title>Node5</title>
<g id="a_Node000005"><a xlink:href="hal__gpio__stm32_8c.html#ad2d190ad23771d78c159360bc6f14264" target="_top" xlink:title="Populate the hardware context in a generic GPIO handle.">
<polygon fill="white" stroke="#666666" points="270.5,-67.5 156.5,-67.5 156.5,-37.5 270.5,-37.5 270.5,-67.5"/>
<text text-anchor="start" x="164.5" y="-55.5" font-family="Helvetica,sans-Serif" font-size="10.00">hal_gpio_stm32_set</text>
<text text-anchor="middle" x="213.5" y="-44.5" font-family="Helvetica,sans-Serif" font-size="10.00">_config</text>
</a>
</g>
</g>
<!-- Node1&#45;&gt;Node5 -->
<g id="edge4_Node000001_Node000005" class="edge">
<title>Node1&#45;&gt;Node5</title>
<g id="a_edge4_Node000001_Node000005"><a xlink:title=" ">
<path fill="none" stroke="#63b8ff" d="M90.34,-85.96C107.27,-81.32 128.16,-75.6 147.86,-70.21"/>
<polygon fill="#63b8ff" stroke="#63b8ff" points="148.99,-73.52 157.71,-67.51 147.14,-66.77 148.99,-73.52"/>
</a>
</g>
</g>
<!-- Node6 -->
<g id="Node000006" class="node">
<title>Node6</title>
<g id="a_Node000006"><a xlink:href="group__Thread.html#gaf16424e47477714927313ecec2821eec" target="_top" xlink:title=" ">
<polygon fill="white" stroke="#666666" points="262,-19 165,-19 165,0 262,0 262,-19"/>
<text text-anchor="middle" x="213.5" y="-7" font-family="Helvetica,sans-Serif" font-size="10.00">os_thread_delay</text>
</a>
</g>
</g>
<!-- Node1&#45;&gt;Node6 -->
<g id="edge5_Node000001_Node000006" class="edge">
<title>Node1&#45;&gt;Node6</title>
<g id="a_edge5_Node000001_Node000006"><a xlink:title=" ">
<path fill="none" stroke="#63b8ff" d="M65.67,-85.86C81.45,-71.4 113.32,-44.14 145,-28.5 149.66,-26.2 154.64,-24.14 159.7,-22.3"/>
<polygon fill="#63b8ff" stroke="#63b8ff" points="161.1,-25.53 169.48,-19.04 158.89,-18.89 161.1,-25.53"/>
</a>
</g>
</g>
</g>
</svg>
