<?xml version="1.0" encoding="UTF-8" standalone="no"?>
<!DOCTYPE svg PUBLIC "-//W3C//DTD SVG 1.1//EN"
 "http://www.w3.org/Graphics/SVG/1.1/DTD/svg11.dtd">
<!-- Generated by graphviz version 2.43.0 (0)
 -->
<!-- Title: gpio_mgmt_start Pages: 1 -->
<svg width="426pt" height="187pt"
 viewBox="0.00 0.00 426.00 187.00" xmlns="http://www.w3.org/2000/svg" xmlns:xlink="http://www.w3.org/1999/xlink">

<svg id="main" version="1.1" xmlns="http://www.w3.org/2000/svg" xmlns:xlink="http://www.w3.org/1999/xlink" xml:space="preserve" onload="init(evt)">
<style type="text/css"><![CDATA[
.node, .edge {opacity: 0.7;}
.node.selected, .edge.selected {opacity: 1;}
.edge:hover path { stroke: red; }
.edge:hover polygon { stroke: red; fill: red; }
]]></style>
<script type="application/ecmascript" xlink:href="svg.min.js"/>
<svg id="graph" class="graph">
<g id="graph0" class="graph" transform="scale(1 1) rotate(0) translate(4 183)">
<title>gpio_mgmt_start</title>
<!-- Node1 -->
<g id="Node000001" class="node">
<title>Node1</title>
<g id="a_Node000001"><a xlink:title=" ">
<polygon fill="#999999" stroke="#666666" points="100,-86 0,-86 0,-67 100,-67 100,-86"/>
<text text-anchor="middle" x="50" y="-74" font-family="Helvetica,sans-Serif" font-size="10.00">gpio_mgmt_start</text>
</a>
</g>
</g>
<!-- Node2 -->
<g id="Node000002" class="node">
<title>Node2</title>
<g id="a_Node000002"><a xlink:href="gpio__mgmt_8c.html#a2f7aa8d4452bd40df6190f1027d25c20" target="_top" xlink:title=" ">
<polygon fill="white" stroke="#666666" points="245,-105 136,-105 136,-86 245,-86 245,-105"/>
<text text-anchor="middle" x="190.5" y="-93" font-family="Helvetica,sans-Serif" font-size="10.00">gpio_mgmt_thread</text>
</a>
</g>
</g>
<!-- Node1&#45;&gt;Node2 -->
<g id="edge1_Node000001_Node000002" class="edge">
<title>Node1&#45;&gt;Node2</title>
<g id="a_edge1_Node000001_Node000002"><a xlink:title=" ">
<path fill="none" stroke="#63b8ff" d="M100.22,-83.25C108.49,-84.39 117.18,-85.58 125.75,-86.75"/>
<polygon fill="#63b8ff" stroke="#63b8ff" points="125.35,-90.23 135.74,-88.12 126.3,-83.3 125.35,-90.23"/>
</a>
</g>
</g>
<!-- Node8 -->
<g id="Node000008" class="node">
<title>Node8</title>
<g id="a_Node000008"><a xlink:href="group__Thread.html#ga21ff81ef0bcb5564ba8ee6c5a0da2acc" target="_top" xlink:title=" ">
<polygon fill="white" stroke="#666666" points="241,-68 140,-68 140,-49 241,-49 241,-68"/>
<text text-anchor="middle" x="190.5" y="-56" font-family="Helvetica,sans-Serif" font-size="10.00">os_thread_create</text>
</a>
</g>
</g>
<!-- Node1&#45;&gt;Node8 -->
<g id="edge7_Node000001_Node000008" class="edge">
<title>Node1&#45;&gt;Node8</title>
<g id="a_edge7_Node000001_Node000008"><a xlink:title=" ">
<path fill="none" stroke="#63b8ff" d="M100.22,-70.1C109.8,-68.86 119.94,-67.54 129.81,-66.26"/>
<polygon fill="#63b8ff" stroke="#63b8ff" points="130.51,-69.7 139.97,-64.94 129.6,-62.75 130.51,-69.7"/>
</a>
</g>
</g>
<!-- Node3 -->
<g id="Node000003" class="node">
<title>Node3</title>
<g id="a_Node000003"><a xlink:href="drv__gpio_8c.html#a0c96221e67620454c2c8f08c9a785524" target="_top" xlink:title=" ">
<polygon fill="white" stroke="#666666" points="408.5,-179 290.5,-179 290.5,-160 408.5,-160 408.5,-179"/>
<text text-anchor="middle" x="349.5" y="-167" font-family="Helvetica,sans-Serif" font-size="10.00">drv_gpio_get_handle</text>
</a>
</g>
</g>
<!-- Node2&#45;&gt;Node3 -->
<g id="edge2_Node000002_Node000003" class="edge">
<title>Node2&#45;&gt;Node3</title>
<g id="a_edge2_Node000002_Node000003"><a xlink:title=" ">
<path fill="none" stroke="#63b8ff" d="M204.16,-105.14C220.91,-117.49 251.75,-138.79 281,-151.5 285.61,-153.5 290.5,-155.33 295.45,-156.98"/>
<polygon fill="#63b8ff" stroke="#63b8ff" points="294.41,-160.32 305,-159.95 296.49,-153.64 294.41,-160.32"/>
</a>
</g>
</g>
<!-- Node4 -->
<g id="Node000004" class="node">
<title>Node4</title>
<g id="a_Node000004"><a xlink:href="drv__gpio_8c.html#a72d83c6bed1bb43b771c47d2de6417d3" target="_top" xlink:title=" ">
<polygon fill="white" stroke="#666666" points="400,-142 299,-142 299,-123 400,-123 400,-142"/>
<text text-anchor="middle" x="349.5" y="-130" font-family="Helvetica,sans-Serif" font-size="10.00">drv_gpio_register</text>
</a>
</g>
</g>
<!-- Node2&#45;&gt;Node4 -->
<g id="edge3_Node000002_Node000004" class="edge">
<title>Node2&#45;&gt;Node4</title>
<g id="a_edge3_Node000002_Node000004"><a xlink:title=" ">
<path fill="none" stroke="#63b8ff" d="M231.93,-105.03C252.09,-109.78 276.67,-115.57 298.05,-120.61"/>
<polygon fill="#63b8ff" stroke="#63b8ff" points="297.4,-124.05 307.93,-122.94 299,-117.24 297.4,-124.05"/>
</a>
</g>
</g>
<!-- Node5 -->
<g id="Node000005" class="node">
<title>Node5</title>
<g id="a_Node000005"><a xlink:href="hal__gpio__stm32_8c.html#abcec079fb8a1cf67b382f5378299a8ef" target="_top" xlink:title="Return pointer to the STM32 GPIO HAL ops table.">
<polygon fill="white" stroke="#666666" points="418,-105 281,-105 281,-86 418,-86 418,-105"/>
<text text-anchor="middle" x="349.5" y="-93" font-family="Helvetica,sans-Serif" font-size="10.00">hal_gpio_stm32_get_ops</text>
</a>
</g>
</g>
<!-- Node2&#45;&gt;Node5 -->
<g id="edge4_Node000002_Node000005" class="edge">
<title>Node2&#45;&gt;Node5</title>
<g id="a_edge4_Node000002_Node000005"><a xlink:title=" ">
<path fill="none" stroke="#63b8ff" d="M245.09,-95.5C253.39,-95.5 262.11,-95.5 270.81,-95.5"/>
<polygon fill="#63b8ff" stroke="#63b8ff" points="270.99,-99 280.99,-95.5 270.99,-92 270.99,-99"/>
</a>
</g>
</g>
<!-- Node6 -->
<g id="Node000006" class="node">
<title>Node6</title>
<g id="a_Node000006"><a xlink:href="hal__gpio__stm32_8c.html#ad2d190ad23771d78c159360bc6f14264" target="_top" xlink:title="Populate the hardware context in a generic GPIO handle.">
<polygon fill="white" stroke="#666666" points="406.5,-67.5 292.5,-67.5 292.5,-37.5 406.5,-37.5 406.5,-67.5"/>
<text text-anchor="start" x="300.5" y="-55.5" font-family="Helvetica,sans-Serif" font-size="10.00">hal_gpio_stm32_set</text>
<text text-anchor="middle" x="349.5" y="-44.5" font-family="Helvetica,sans-Serif" font-size="10.00">_config</text>
</a>
</g>
</g>
<!-- Node2&#45;&gt;Node6 -->
<g id="edge5_Node000002_Node000006" class="edge">
<title>Node2&#45;&gt;Node6</title>
<g id="a_edge5_Node000002_Node000006"><a xlink:title=" ">
<path fill="none" stroke="#63b8ff" d="M226.34,-85.96C243.27,-81.32 264.16,-75.6 283.86,-70.21"/>
<polygon fill="#63b8ff" stroke="#63b8ff" points="284.99,-73.52 293.71,-67.51 283.14,-66.77 284.99,-73.52"/>
</a>
</g>
</g>
<!-- Node7 -->
<g id="Node000007" class="node">
<title>Node7</title>
<g id="a_Node000007"><a xlink:href="group__Thread.html#gaf16424e47477714927313ecec2821eec" target="_top" xlink:title=" ">
<polygon fill="white" stroke="#666666" points="398,-19 301,-19 301,0 398,0 398,-19"/>
<text text-anchor="middle" x="349.5" y="-7" font-family="Helvetica,sans-Serif" font-size="10.00">os_thread_delay</text>
</a>
</g>
</g>
<!-- Node2&#45;&gt;Node7 -->
<g id="edge6_Node000002_Node000007" class="edge">
<title>Node2&#45;&gt;Node7</title>
<g id="a_edge6_Node000002_Node000007"><a xlink:title=" ">
<path fill="none" stroke="#63b8ff" d="M229.49,-85.99C234.97,-83.7 240.33,-80.91 245,-77.5 266.82,-61.56 258.78,-43.89 281,-28.5 284.28,-26.23 287.83,-24.22 291.53,-22.46"/>
<polygon fill="#63b8ff" stroke="#63b8ff" points="293.05,-25.61 300.95,-18.54 290.37,-19.15 293.05,-25.61"/>
</a>
</g>
</g>
</g>
</svg>
</svg>

<style type='text/css'>
<![CDATA[
[data-mouse-over-selected='false'] { opacity: 0.7; }
[data-mouse-over-selected='true']  { opacity: 1.0; }
]]>
</style>
<script type="application/ecmascript"><![CDATA[
document.addEventListener('DOMContentLoaded', (event) => {
  highlightEdges();
  highlightAdjacentNodes();
});
]]></script>
</svg>
