<?xml version="1.0" encoding="UTF-8" standalone="no"?>
<!DOCTYPE svg PUBLIC "-//W3C//DTD SVG 1.1//EN"
 "http://www.w3.org/Graphics/SVG/1.1/DTD/svg11.dtd">
<!-- Generated by graphviz version 2.43.0 (0)
 -->
<!-- Title: gpio_app.c Pages: 1 -->
<svg width="812pt" height="302pt"
 viewBox="0.00 0.00 812.00 302.00" xmlns="http://www.w3.org/2000/svg" xmlns:xlink="http://www.w3.org/1999/xlink">
<g id="graph0" class="graph" transform="scale(1 1) rotate(0) translate(4 298)">
<title>gpio_app.c</title>
<!-- Node1 -->
<g id="Node000001" class="node">
<title>Node1</title>
<g id="a_Node000001"><a xlink:title=" ">
<polygon fill="#999999" stroke="#666666" points="103,-294 34,-294 34,-275 103,-275 103,-294"/>
<text text-anchor="middle" x="68.5" y="-282" font-family="Helvetica,sans-Serif" font-size="10.00">gpio_app.c</text>
</a>
</g>
</g>
<!-- Node2 -->
<g id="Node000002" class="node">
<title>Node2</title>
<g id="a_Node000002"><a xlink:href="gpio__app_8h.html" target="_top" xlink:title=" ">
<polygon fill="white" stroke="#666666" points="248.5,-239 136.5,-239 136.5,-220 248.5,-220 248.5,-239"/>
<text text-anchor="middle" x="192.5" y="-227" font-family="Helvetica,sans-Serif" font-size="10.00">drv_app/gpio_app.h</text>
</a>
</g>
</g>
<!-- Node1&#45;&gt;Node2 -->
<g id="edge1_Node000001_Node000002" class="edge">
<title>Node1&#45;&gt;Node2</title>
<g id="a_edge1_Node000001_Node000002"><a xlink:title=" ">
<path fill="none" stroke="#63b8ff" d="M88.42,-274.98C108.55,-266.38 139.88,-252.99 162.91,-243.15"/>
<polygon fill="#63b8ff" stroke="#63b8ff" points="164.4,-246.32 172.21,-239.17 161.64,-239.88 164.4,-246.32"/>
</a>
</g>
</g>
<!-- Node16 -->
<g id="Node000016" class="node">
<title>Node16</title>
<g id="a_Node000016"><a xlink:href="drv__handle_8h.html" target="_top" xlink:title=" ">
<polygon fill="white" stroke="#666666" points="246.5,-129 130.5,-129 130.5,-110 246.5,-110 246.5,-129"/>
<text text-anchor="middle" x="188.5" y="-117" font-family="Helvetica,sans-Serif" font-size="10.00">drivers/drv_handle.h</text>
</a>
</g>
</g>
<!-- Node1&#45;&gt;Node16 -->
<g id="edge26_Node000001_Node000016" class="edge">
<title>Node1&#45;&gt;Node16</title>
<g id="a_edge26_Node000001_Node000016"><a xlink:title=" ">
<path fill="none" stroke="#63b8ff" d="M74.95,-274.74C94.08,-248.76 150.71,-171.83 176.03,-137.44"/>
<polygon fill="#63b8ff" stroke="#63b8ff" points="178.91,-139.44 182.02,-129.31 173.27,-135.28 178.91,-139.44"/>
</a>
</g>
</g>
<!-- Node3 -->
<g id="Node000003" class="node">
<title>Node3</title>
<g id="a_Node000003"><a xlink:href="def__std_8h.html" target="_top" xlink:title=" ">
<polygon fill="white" stroke="#666666" points="586.5,-74 524.5,-74 524.5,-55 586.5,-55 586.5,-74"/>
<text text-anchor="middle" x="555.5" y="-62" font-family="Helvetica,sans-Serif" font-size="10.00">def_std.h</text>
</a>
</g>
</g>
<!-- Node2&#45;&gt;Node3 -->
<g id="edge2_Node000002_Node000003" class="edge">
<title>Node2&#45;&gt;Node3</title>
<g id="a_edge2_Node000002_Node000003"><a xlink:title=" ">
<path fill="none" stroke="#63b8ff" d="M247.27,-219.99C335.15,-205.22 501.83,-172.23 541.5,-129 552.47,-117.04 555.54,-98.49 556.11,-84.52"/>
<polygon fill="#63b8ff" stroke="#63b8ff" points="559.61,-84.12 556.13,-74.11 552.61,-84.1 559.61,-84.12"/>
</a>
</g>
</g>
<!-- Node11 -->
<g id="Node000011" class="node">
<title>Node11</title>
<g id="a_Node000011"><a xlink:href="def__err_8h.html" target="_top" xlink:title=" ">
<polygon fill="white" stroke="#666666" points="59,-74 0,-74 0,-55 59,-55 59,-74"/>
<text text-anchor="middle" x="29.5" y="-62" font-family="Helvetica,sans-Serif" font-size="10.00">def_err.h</text>
</a>
</g>
</g>
<!-- Node2&#45;&gt;Node11 -->
<g id="edge10_Node000002_Node000011" class="edge">
<title>Node2&#45;&gt;Node11</title>
<g id="a_edge10_Node000002_Node000011"><a xlink:title=" ">
<path fill="none" stroke="#63b8ff" d="M182.32,-219.81C162.74,-202.94 118.76,-164.32 84.5,-129 69.82,-113.86 54.17,-95.56 43.33,-82.5"/>
<polygon fill="#63b8ff" stroke="#63b8ff" points="45.73,-79.9 36.67,-74.4 40.32,-84.35 45.73,-79.9"/>
</a>
</g>
</g>
<!-- Node12 -->
<g id="Node000012" class="node">
<title>Node12</title>
<g id="a_Node000012"><a xlink:href="gpio__mgmt_8h.html" target="_top" xlink:title=" ">
<polygon fill="white" stroke="#666666" points="356,-184 231,-184 231,-165 356,-165 356,-184"/>
<text text-anchor="middle" x="293.5" y="-172" font-family="Helvetica,sans-Serif" font-size="10.00">services/gpio_mgmt.h</text>
</a>
</g>
</g>
<!-- Node2&#45;&gt;Node12 -->
<g id="edge11_Node000002_Node000012" class="edge">
<title>Node2&#45;&gt;Node12</title>
<g id="a_edge11_Node000002_Node000012"><a xlink:title=" ">
<path fill="none" stroke="#63b8ff" d="M208.73,-219.98C224.68,-211.61 249.28,-198.7 267.88,-188.95"/>
<polygon fill="#63b8ff" stroke="#63b8ff" points="269.75,-191.92 276.98,-184.17 266.5,-185.72 269.75,-191.92"/>
</a>
</g>
</g>
<!-- Node4 -->
<g id="Node000004" class="node">
<title>Node4</title>
<g id="a_Node000004"><a xlink:title=" ">
<polygon fill="#e0e0e0" stroke="#999999" points="372,-19 319,-19 319,0 372,0 372,-19"/>
<text text-anchor="middle" x="345.5" y="-7" font-family="Helvetica,sans-Serif" font-size="10.00">stdlib.h</text>
</a>
</g>
</g>
<!-- Node3&#45;&gt;Node4 -->
<g id="edge3_Node000003_Node000004" class="edge">
<title>Node3&#45;&gt;Node4</title>
<g id="a_edge3_Node000003_Node000004"><a xlink:title=" ">
<path fill="none" stroke="#63b8ff" d="M524.06,-55.57C486.06,-45.98 422.24,-29.87 382.07,-19.73"/>
<polygon fill="#63b8ff" stroke="#63b8ff" points="382.71,-16.28 372.15,-17.23 380.99,-23.07 382.71,-16.28"/>
</a>
</g>
</g>
<!-- Node5 -->
<g id="Node000005" class="node">
<title>Node5</title>
<g id="a_Node000005"><a xlink:title=" ">
<polygon fill="#e0e0e0" stroke="#999999" points="441,-19 390,-19 390,0 441,0 441,-19"/>
<text text-anchor="middle" x="415.5" y="-7" font-family="Helvetica,sans-Serif" font-size="10.00">errno.h</text>
</a>
</g>
</g>
<!-- Node3&#45;&gt;Node5 -->
<g id="edge4_Node000003_Node000005" class="edge">
<title>Node3&#45;&gt;Node5</title>
<g id="a_edge4_Node000003_Node000005"><a xlink:title=" ">
<path fill="none" stroke="#63b8ff" d="M533.01,-54.98C509.98,-46.27 473.96,-32.63 447.87,-22.75"/>
<polygon fill="#63b8ff" stroke="#63b8ff" points="448.99,-19.44 438.4,-19.17 446.52,-25.98 448.99,-19.44"/>
</a>
</g>
</g>
<!-- Node6 -->
<g id="Node000006" class="node">
<title>Node6</title>
<g id="a_Node000006"><a xlink:title=" ">
<polygon fill="#e0e0e0" stroke="#999999" points="509.5,-19 459.5,-19 459.5,0 509.5,0 509.5,-19"/>
<text text-anchor="middle" x="484.5" y="-7" font-family="Helvetica,sans-Serif" font-size="10.00">stdio.h</text>
</a>
</g>
</g>
<!-- Node3&#45;&gt;Node6 -->
<g id="edge5_Node000003_Node000006" class="edge">
<title>Node3&#45;&gt;Node6</title>
<g id="a_edge5_Node000003_Node000006"><a xlink:title=" ">
<path fill="none" stroke="#63b8ff" d="M544.09,-54.98C533.39,-47 517.16,-34.88 504.34,-25.31"/>
<polygon fill="#63b8ff" stroke="#63b8ff" points="506.22,-22.35 496.11,-19.17 502.03,-27.96 506.22,-22.35"/>
</a>
</g>
</g>
<!-- Node7 -->
<g id="Node000007" class="node">
<title>Node7</title>
<g id="a_Node000007"><a xlink:title=" ">
<polygon fill="#e0e0e0" stroke="#999999" points="583,-19 528,-19 528,0 583,0 583,-19"/>
<text text-anchor="middle" x="555.5" y="-7" font-family="Helvetica,sans-Serif" font-size="10.00">signal.h</text>
</a>
</g>
</g>
<!-- Node3&#45;&gt;Node7 -->
<g id="edge6_Node000003_Node000007" class="edge">
<title>Node3&#45;&gt;Node7</title>
<g id="a_edge6_Node000003_Node000007"><a xlink:title=" ">
<path fill="none" stroke="#63b8ff" d="M555.5,-54.75C555.5,-47.8 555.5,-37.85 555.5,-29.13"/>
<polygon fill="#63b8ff" stroke="#63b8ff" points="559,-29.09 555.5,-19.09 552,-29.09 559,-29.09"/>
</a>
</g>
</g>
<!-- Node8 -->
<g id="Node000008" class="node">
<title>Node8</title>
<g id="a_Node000008"><a xlink:title=" ">
<polygon fill="#e0e0e0" stroke="#999999" points="649.5,-19 601.5,-19 601.5,0 649.5,0 649.5,-19"/>
<text text-anchor="middle" x="625.5" y="-7" font-family="Helvetica,sans-Serif" font-size="10.00">time.h</text>
</a>
</g>
</g>
<!-- Node3&#45;&gt;Node8 -->
<g id="edge7_Node000003_Node000008" class="edge">
<title>Node3&#45;&gt;Node8</title>
<g id="a_edge7_Node000003_Node000008"><a xlink:title=" ">
<path fill="none" stroke="#63b8ff" d="M566.75,-54.98C577.3,-47 593.3,-34.88 605.94,-25.31"/>
<polygon fill="#63b8ff" stroke="#63b8ff" points="608.19,-28 614.05,-19.17 603.96,-22.42 608.19,-28"/>
</a>
</g>
</g>
<!-- Node9 -->
<g id="Node000009" class="node">
<title>Node9</title>
<g id="a_Node000009"><a xlink:title=" ">
<polygon fill="#e0e0e0" stroke="#999999" points="721,-19 668,-19 668,0 721,0 721,-19"/>
<text text-anchor="middle" x="694.5" y="-7" font-family="Helvetica,sans-Serif" font-size="10.00">stdint.h</text>
</a>
</g>
</g>
<!-- Node3&#45;&gt;Node9 -->
<g id="edge8_Node000003_Node000009" class="edge">
<title>Node3&#45;&gt;Node9</title>
<g id="a_edge8_Node000003_Node000009"><a xlink:title=" ">
<path fill="none" stroke="#63b8ff" d="M577.83,-54.98C600.7,-46.27 636.46,-32.63 662.36,-22.75"/>
<polygon fill="#63b8ff" stroke="#63b8ff" points="663.66,-26 671.76,-19.17 661.17,-19.46 663.66,-26"/>
</a>
</g>
</g>
<!-- Node10 -->
<g id="Node000010" class="node">
<title>Node10</title>
<g id="a_Node000010"><a xlink:title=" ">
<polygon fill="#e0e0e0" stroke="#999999" points="804,-19 739,-19 739,0 804,0 804,-19"/>
<text text-anchor="middle" x="771.5" y="-7" font-family="Helvetica,sans-Serif" font-size="10.00">inttypes.h</text>
</a>
</g>
</g>
<!-- Node3&#45;&gt;Node10 -->
<g id="edge9_Node000003_Node000010" class="edge">
<title>Node3&#45;&gt;Node10</title>
<g id="a_edge9_Node000003_Node000010"><a xlink:title=" ">
<path fill="none" stroke="#63b8ff" d="M586.91,-55.79C624.42,-46.59 687.32,-31.16 729.11,-20.9"/>
<polygon fill="#63b8ff" stroke="#63b8ff" points="730.12,-24.26 738.99,-18.48 728.45,-17.46 730.12,-24.26"/>
</a>
</g>
</g>
<!-- Node12&#45;&gt;Node3 -->
<g id="edge12_Node000012_Node000003" class="edge">
<title>Node12&#45;&gt;Node3</title>
<g id="a_edge12_Node000012_Node000003"><a xlink:title=" ">
<path fill="none" stroke="#63b8ff" d="M356.24,-167.05C413.79,-160.1 493.88,-147.48 519.5,-129 534.74,-118.01 544.4,-98.46 549.83,-83.95"/>
<polygon fill="#63b8ff" stroke="#63b8ff" points="553.29,-84.65 553.19,-74.05 546.66,-82.4 553.29,-84.65"/>
</a>
</g>
</g>
<!-- Node12&#45;&gt;Node11 -->
<g id="edge13_Node000012_Node000011" class="edge">
<title>Node12&#45;&gt;Node11</title>
<g id="a_edge13_Node000012_Node000011"><a xlink:title=" ">
<path fill="none" stroke="#63b8ff" d="M241.47,-164.98C206.49,-158.07 159.93,-146.56 121.5,-129 93.44,-116.18 64.75,-94.79 47.03,-80.42"/>
<polygon fill="#63b8ff" stroke="#63b8ff" points="49.21,-77.68 39.27,-74 44.74,-83.07 49.21,-77.68"/>
</a>
</g>
</g>
<!-- Node13 -->
<g id="Node000013" class="node">
<title>Node13</title>
<g id="a_Node000013"><a xlink:title=" ">
<polygon fill="#e0e0e0" stroke="#999999" points="330.5,-74 218.5,-74 218.5,-55 330.5,-55 330.5,-74"/>
<text text-anchor="middle" x="274.5" y="-62" font-family="Helvetica,sans-Serif" font-size="10.00">board/mcu_config.h</text>
</a>
</g>
</g>
<!-- Node12&#45;&gt;Node13 -->
<g id="edge14_Node000012_Node000013" class="edge">
<title>Node12&#45;&gt;Node13</title>
<g id="a_edge14_Node000012_Node000013"><a xlink:title=" ">
<path fill="none" stroke="#63b8ff" d="M291.95,-164.66C288.87,-147.17 281.94,-107.8 277.8,-84.27"/>
<polygon fill="#63b8ff" stroke="#63b8ff" points="281.2,-83.4 276.02,-74.16 274.31,-84.61 281.2,-83.4"/>
</a>
</g>
</g>
<!-- Node14 -->
<g id="Node000014" class="node">
<title>Node14</title>
<g id="a_Node000014"><a xlink:href="conf__os_8h.html" target="_top" xlink:title=" ">
<polygon fill="white" stroke="#666666" points="510,-129 415,-129 415,-110 510,-110 510,-129"/>
<text text-anchor="middle" x="462.5" y="-117" font-family="Helvetica,sans-Serif" font-size="10.00">config/conf_os.h</text>
</a>
</g>
</g>
<!-- Node12&#45;&gt;Node14 -->
<g id="edge15_Node000012_Node000014" class="edge">
<title>Node12&#45;&gt;Node14</title>
<g id="a_edge15_Node000012_Node000014"><a xlink:title=" ">
<path fill="none" stroke="#63b8ff" d="M320.65,-164.98C349.03,-156.09 393.73,-142.07 425.36,-132.15"/>
<polygon fill="#63b8ff" stroke="#63b8ff" points="426.64,-135.41 435.13,-129.08 424.55,-128.73 426.64,-135.41"/>
</a>
</g>
</g>
<!-- Node12&#45;&gt;Node16 -->
<g id="edge17_Node000012_Node000016" class="edge">
<title>Node12&#45;&gt;Node16</title>
<g id="a_edge17_Node000012_Node000016"><a xlink:title=" ">
<path fill="none" stroke="#63b8ff" d="M276.63,-164.98C259.89,-156.54 234,-143.47 214.61,-133.68"/>
<polygon fill="#63b8ff" stroke="#63b8ff" points="216.18,-130.55 205.68,-129.17 213.03,-136.8 216.18,-130.55"/>
</a>
</g>
</g>
<!-- Node17 -->
<g id="Node000017" class="node">
<title>Node17</title>
<g id="a_Node000017"><a xlink:title=" ">
<polygon fill="#e0e0e0" stroke="#999999" points="420.5,-74 348.5,-74 348.5,-55 420.5,-55 420.5,-74"/>
<text text-anchor="middle" x="384.5" y="-62" font-family="Helvetica,sans-Serif" font-size="10.00">FreeRTOS.h</text>
</a>
</g>
</g>
<!-- Node12&#45;&gt;Node17 -->
<g id="edge24_Node000012_Node000017" class="edge">
<title>Node12&#45;&gt;Node17</title>
<g id="a_edge24_Node000012_Node000017"><a xlink:title=" ">
<path fill="none" stroke="#63b8ff" d="M297.59,-164.69C303.81,-151.84 316.5,-127.6 331.5,-110 341,-98.86 353.46,-88.24 363.92,-80.17"/>
<polygon fill="#63b8ff" stroke="#63b8ff" points="366.21,-82.83 372.12,-74.04 362.02,-77.22 366.21,-82.83"/>
</a>
</g>
</g>
<!-- Node20 -->
<g id="Node000020" class="node">
<title>Node20</title>
<g id="a_Node000020"><a xlink:title=" ">
<polygon fill="#e0e0e0" stroke="#999999" points="396.5,-129 340.5,-129 340.5,-110 396.5,-110 396.5,-129"/>
<text text-anchor="middle" x="368.5" y="-117" font-family="Helvetica,sans-Serif" font-size="10.00">queue.h</text>
</a>
</g>
</g>
<!-- Node12&#45;&gt;Node20 -->
<g id="edge25_Node000012_Node000020" class="edge">
<title>Node12&#45;&gt;Node20</title>
<g id="a_edge25_Node000012_Node000020"><a xlink:title=" ">
<path fill="none" stroke="#63b8ff" d="M305.55,-164.98C316.96,-156.92 334.33,-144.65 347.93,-135.03"/>
<polygon fill="#63b8ff" stroke="#63b8ff" points="350.08,-137.8 356.23,-129.17 346.04,-132.08 350.08,-137.8"/>
</a>
</g>
</g>
<!-- Node15 -->
<g id="Node000015" class="node">
<title>Node15</title>
<g id="a_Node000015"><a xlink:href="autoconf_8h.html" target="_top" xlink:title=" ">
<polygon fill="white" stroke="#666666" points="506.5,-74 438.5,-74 438.5,-55 506.5,-55 506.5,-74"/>
<text text-anchor="middle" x="472.5" y="-62" font-family="Helvetica,sans-Serif" font-size="10.00">autoconf.h</text>
</a>
</g>
</g>
<!-- Node14&#45;&gt;Node15 -->
<g id="edge16_Node000014_Node000015" class="edge">
<title>Node14&#45;&gt;Node15</title>
<g id="a_edge16_Node000014_Node000015"><a xlink:title=" ">
<path fill="none" stroke="#63b8ff" d="M464.15,-109.75C465.46,-102.8 467.34,-92.85 468.98,-84.13"/>
<polygon fill="#63b8ff" stroke="#63b8ff" points="472.46,-84.56 470.88,-74.09 465.59,-83.27 472.46,-84.56"/>
</a>
</g>
</g>
<!-- Node16&#45;&gt;Node3 -->
<g id="edge18_Node000016_Node000003" class="edge">
<title>Node16&#45;&gt;Node3</title>
<g id="a_edge18_Node000016_Node000003"><a xlink:title=" ">
<path fill="none" stroke="#63b8ff" d="M246.59,-111.91C310.01,-104.43 414.78,-91.2 514.19,-74.12"/>
<polygon fill="#63b8ff" stroke="#63b8ff" points="514.84,-77.56 524.1,-72.4 513.65,-70.66 514.84,-77.56"/>
</a>
</g>
</g>
<!-- Node16&#45;&gt;Node11 -->
<g id="edge19_Node000016_Node000011" class="edge">
<title>Node16&#45;&gt;Node11</title>
<g id="a_edge19_Node000016_Node000011"><a xlink:title=" ">
<path fill="none" stroke="#63b8ff" d="M162.95,-109.98C136.38,-101.13 94.56,-87.19 64.83,-77.28"/>
<polygon fill="#63b8ff" stroke="#63b8ff" points="65.84,-73.92 55.25,-74.08 63.63,-80.56 65.84,-73.92"/>
</a>
</g>
</g>
<!-- Node16&#45;&gt;Node13 -->
<g id="edge20_Node000016_Node000013" class="edge">
<title>Node16&#45;&gt;Node13</title>
<g id="a_edge20_Node000016_Node000013"><a xlink:title=" ">
<path fill="none" stroke="#63b8ff" d="M202.32,-109.98C215.65,-101.77 236.08,-89.18 251.81,-79.49"/>
<polygon fill="#63b8ff" stroke="#63b8ff" points="253.75,-82.4 260.43,-74.17 250.08,-76.44 253.75,-82.4"/>
</a>
</g>
</g>
<!-- Node16&#45;&gt;Node17 -->
<g id="edge21_Node000016_Node000017" class="edge">
<title>Node16&#45;&gt;Node17</title>
<g id="a_edge21_Node000016_Node000017"><a xlink:title=" ">
<path fill="none" stroke="#63b8ff" d="M219.99,-109.98C253.32,-100.97 306.1,-86.7 342.85,-76.76"/>
<polygon fill="#63b8ff" stroke="#63b8ff" points="344.02,-80.07 352.76,-74.08 342.2,-73.31 344.02,-80.07"/>
</a>
</g>
</g>
<!-- Node18 -->
<g id="Node000018" class="node">
<title>Node18</title>
<g id="a_Node000018"><a xlink:title=" ">
<polygon fill="#e0e0e0" stroke="#999999" points="124,-74 77,-74 77,-55 124,-55 124,-74"/>
<text text-anchor="middle" x="100.5" y="-62" font-family="Helvetica,sans-Serif" font-size="10.00">task.h</text>
</a>
</g>
</g>
<!-- Node16&#45;&gt;Node18 -->
<g id="edge22_Node000016_Node000018" class="edge">
<title>Node16&#45;&gt;Node18</title>
<g id="a_edge22_Node000016_Node000018"><a xlink:title=" ">
<path fill="none" stroke="#63b8ff" d="M174.36,-109.98C160.71,-101.77 139.81,-89.18 123.72,-79.49"/>
<polygon fill="#63b8ff" stroke="#63b8ff" points="125.27,-76.33 114.9,-74.17 121.66,-82.33 125.27,-76.33"/>
</a>
</g>
</g>
<!-- Node19 -->
<g id="Node000019" class="node">
<title>Node19</title>
<g id="a_Node000019"><a xlink:title=" ">
<polygon fill="#e0e0e0" stroke="#999999" points="200.5,-74 142.5,-74 142.5,-55 200.5,-55 200.5,-74"/>
<text text-anchor="middle" x="171.5" y="-62" font-family="Helvetica,sans-Serif" font-size="10.00">device.h</text>
</a>
</g>
</g>
<!-- Node16&#45;&gt;Node19 -->
<g id="edge23_Node000016_Node000019" class="edge">
<title>Node16&#45;&gt;Node19</title>
<g id="a_edge23_Node000016_Node000019"><a xlink:title=" ">
<path fill="none" stroke="#63b8ff" d="M185.69,-109.75C183.44,-102.72 180.2,-92.62 177.38,-83.84"/>
<polygon fill="#63b8ff" stroke="#63b8ff" points="180.64,-82.54 174.25,-74.09 173.98,-84.68 180.64,-82.54"/>
</a>
</g>
</g>
</g>
</svg>
