<?xml version="1.0" encoding="UTF-8" standalone="no"?>
<!DOCTYPE svg PUBLIC "-//W3C//DTD SVG 1.1//EN"
 "http://www.w3.org/Graphics/SVG/1.1/DTD/svg11.dtd">
<!-- Generated by graphviz version 2.43.0 (0)
 -->
<!-- Title: gpio_mgmt_post Pages: 1 -->
<svg width="258pt" height="175pt"
 viewBox="0.00 0.00 258.00 175.00" xmlns="http://www.w3.org/2000/svg" xmlns:xlink="http://www.w3.org/1999/xlink">
<g id="graph0" class="graph" transform="scale(1 1) rotate(0) translate(4 171)">
<title>gpio_mgmt_post</title>
<!-- Node1 -->
<g id="Node000001" class="node">
<title>Node1</title>
<g id="a_Node000001"><a xlink:title="Post a GPIO command (non&#45;blocking, delay_ms = 0 for immediate).">
<polygon fill="#999999" stroke="#666666" points="250,-93 152,-93 152,-74 250,-74 250,-93"/>
<text text-anchor="middle" x="201" y="-81" font-family="Helvetica,sans-Serif" font-size="10.00">gpio_mgmt_post</text>
</a>
</g>
</g>
<!-- Node2 -->
<g id="Node000002" class="node">
<title>Node2</title>
<g id="a_Node000002"><a xlink:href="gpio__app_8c.html#a69bd6fa45a28f0cfc797a7a795db53ec" target="_top" xlink:title="Clear pin to its inactive state (non&#45;blocking).">
<polygon fill="white" stroke="#666666" points="108.5,-167 7.5,-167 7.5,-148 108.5,-148 108.5,-167"/>
<text text-anchor="middle" x="58" y="-155" font-family="Helvetica,sans-Serif" font-size="10.00">gpio_async_clear</text>
</a>
</g>
</g>
<!-- Node1&#45;&gt;Node2 -->
<g id="edge1_Node000001_Node000002" class="edge">
<title>Node1&#45;&gt;Node2</title>
<g id="a_edge1_Node000001_Node000002"><a xlink:title=" ">
<path fill="none" stroke="#63b8ff" d="M179.57,-99.51C163.14,-111.79 139.07,-128.44 116,-139.5 109.26,-142.73 101.81,-145.57 94.57,-147.98"/>
<polygon fill="#63b8ff" stroke="#63b8ff" points="182.02,-102.05 187.86,-93.21 177.78,-96.48 182.02,-102.05"/>
</a>
</g>
</g>
<!-- Node3 -->
<g id="Node000003" class="node">
<title>Node3</title>
<g id="a_Node000003"><a xlink:href="gpio__app_8c.html#a4daaf3a20acc4645ea4487f61d4fd5b4" target="_top" xlink:title="Schedule a GPIO command with an optional pre&#45;execution delay.">
<polygon fill="white" stroke="#666666" points="116,-130 0,-130 0,-111 116,-111 116,-130"/>
<text text-anchor="middle" x="58" y="-118" font-family="Helvetica,sans-Serif" font-size="10.00">gpio_async_delayed</text>
</a>
</g>
</g>
<!-- Node1&#45;&gt;Node3 -->
<g id="edge2_Node000001_Node000003" class="edge">
<title>Node1&#45;&gt;Node3</title>
<g id="a_edge2_Node000001_Node000003"><a xlink:title=" ">
<path fill="none" stroke="#63b8ff" d="M153.81,-95.62C134.95,-100.57 113.44,-106.22 95.68,-110.88"/>
<polygon fill="#63b8ff" stroke="#63b8ff" points="154.9,-98.95 163.69,-93.03 153.13,-92.18 154.9,-98.95"/>
</a>
</g>
</g>
<!-- Node4 -->
<g id="Node000004" class="node">
<title>Node4</title>
<g id="a_Node000004"><a xlink:href="gpio__app_8c.html#a7f3f6bb3fd0155ba5d5ade602ca1456f" target="_top" xlink:title="Set pin to its active state (non&#45;blocking).">
<polygon fill="white" stroke="#666666" points="104,-93 12,-93 12,-74 104,-74 104,-93"/>
<text text-anchor="middle" x="58" y="-81" font-family="Helvetica,sans-Serif" font-size="10.00">gpio_async_set</text>
</a>
</g>
</g>
<!-- Node1&#45;&gt;Node4 -->
<g id="edge3_Node000001_Node000004" class="edge">
<title>Node1&#45;&gt;Node4</title>
<g id="a_edge3_Node000001_Node000004"><a xlink:title=" ">
<path fill="none" stroke="#63b8ff" d="M141.52,-83.5C129.01,-83.5 115.98,-83.5 104.06,-83.5"/>
<polygon fill="#63b8ff" stroke="#63b8ff" points="141.87,-87 151.87,-83.5 141.87,-80 141.87,-87"/>
</a>
</g>
</g>
<!-- Node5 -->
<g id="Node000005" class="node">
<title>Node5</title>
<g id="a_Node000005"><a xlink:href="gpio__app_8c.html#a54da8fd1087b1cb3ecaa3efc289a159e" target="_top" xlink:title="Toggle pin state (non&#45;blocking).">
<polygon fill="white" stroke="#666666" points="111.5,-56 4.5,-56 4.5,-37 111.5,-37 111.5,-56"/>
<text text-anchor="middle" x="58" y="-44" font-family="Helvetica,sans-Serif" font-size="10.00">gpio_async_toggle</text>
</a>
</g>
</g>
<!-- Node1&#45;&gt;Node5 -->
<g id="edge4_Node000001_Node000005" class="edge">
<title>Node1&#45;&gt;Node5</title>
<g id="a_edge4_Node000001_Node000005"><a xlink:title=" ">
<path fill="none" stroke="#63b8ff" d="M153.81,-71.38C134.95,-66.43 113.44,-60.78 95.68,-56.12"/>
<polygon fill="#63b8ff" stroke="#63b8ff" points="153.13,-74.82 163.69,-73.97 154.9,-68.05 153.13,-74.82"/>
</a>
</g>
</g>
<!-- Node6 -->
<g id="Node000006" class="node">
<title>Node6</title>
<g id="a_Node000006"><a xlink:href="gpio__app_8c.html#abf4276aa23621fb4e5e684fefe12c2d0" target="_top" xlink:title="Write an explicit 0/1 level to the pin (non&#45;blocking).">
<polygon fill="white" stroke="#666666" points="108.5,-19 7.5,-19 7.5,0 108.5,0 108.5,-19"/>
<text text-anchor="middle" x="58" y="-7" font-family="Helvetica,sans-Serif" font-size="10.00">gpio_async_write</text>
</a>
</g>
</g>
<!-- Node1&#45;&gt;Node6 -->
<g id="edge5_Node000001_Node000006" class="edge">
<title>Node1&#45;&gt;Node6</title>
<g id="a_edge5_Node000001_Node000006"><a xlink:title=" ">
<path fill="none" stroke="#63b8ff" d="M179.19,-67.69C162.72,-55.72 138.77,-39.52 116,-28.5 108.58,-24.91 100.31,-21.73 92.43,-19.04"/>
<polygon fill="#63b8ff" stroke="#63b8ff" points="177.4,-70.71 187.52,-73.84 181.56,-65.08 177.4,-70.71"/>
</a>
</g>
</g>
</g>
</svg>
