<?xml version="1.0" encoding="UTF-8" standalone="no"?>
<!DOCTYPE svg PUBLIC "-//W3C//DTD SVG 1.1//EN"
 "http://www.w3.org/Graphics/SVG/1.1/DTD/svg11.dtd">
<!-- Generated by graphviz version 2.43.0 (0)
 -->
<!-- Title: gpio_mgmt.c Pages: 1 -->
<!--zoomable 258 -->

<svg id="main" version="1.1" xmlns="http://www.w3.org/2000/svg" xmlns:xlink="http://www.w3.org/1999/xlink" xml:space="preserve" onload="init(evt)">
<style type="text/css"><![CDATA[
.node, .edge {opacity: 0.7;}
.node.selected, .edge.selected {opacity: 1;}
.edge:hover path { stroke: red; }
.edge:hover polygon { stroke: red; fill: red; }
]]></style>

<defs>
  <circle id="rim" cx="0" cy="0" r="7"/>
  <circle id="rim2" cx="0" cy="0" r="3.5"/>
  <g id="zoomPlus">
    <use xlink:href="#rim" fill="#404040"><set attributeName="fill" to="#808080" begin="zoomplus.mouseover" end="zoomplus.mouseout"/></use>
    <path d="M-4,0h8M0,-4v8" fill="none" stroke="white" stroke-width="1.5" pointer-events="none"/>
  </g>
  <g id="zoomMin">
    <use xlink:href="#rim" fill="#404040"><set attributeName="fill" to="#808080" begin="zoomminus.mouseover" end="zoomminus.mouseout"/></use>
    <path d="M-4,0h8" fill="none" stroke="white" stroke-width="1.5" pointer-events="none"/>
  </g>
  <g id="arrowUp" transform="translate(30 24)">
    <use xlink:href="#rim"/>
    <path pointer-events="none" fill="none" stroke="white" stroke-width="1.5" d="M0,-3.0v7 M-2.5,-0.5L0,-3.0L2.5,-0.5"/>
  </g>
  <g id="arrowRight" transform="rotate(90) translate(36 -43)">
    <use xlink:href="#rim"/>
    <path pointer-events="none" fill="none" stroke="white" stroke-width="1.5" d="M0,-3.0v7 M-2.5,-0.5L0,-3.0L2.5,-0.5"/>
  </g>
  <g id="arrowDown" transform="rotate(180) translate(-30 -48)">
    <use xlink:href="#rim"/>
    <path pointer-events="none" fill="none" stroke="white" stroke-width="1.5" d="M0,-3.0v7 M-2.5,-0.5L0,-3.0L2.5,-0.5"/>
  </g>
  <g id="arrowLeft" transform="rotate(270) translate(-36 17)">
    <use xlink:href="#rim"/>
    <path pointer-events="none" fill="none" stroke="white" stroke-width="1.5" d="M0,-3.0v7 M-2.5,-0.5L0,-3.0L2.5,-0.5"/>
  </g>
  <g id="resetDef">
    <use xlink:href="#rim2" fill="#404040"><set attributeName="fill" to="#808080" begin="reset.mouseover" end="reset.mouseout"/></use>
  </g>
</defs>
<script type="application/ecmascript">
var viewWidth = 1235;
var viewHeight = 258;
var sectionId = 'dynsection-0';
</script>
<script type="application/ecmascript" xlink:href="svg.min.js"/>
<svg id="graph" class="graph">
<g id="viewport">
<title>gpio_mgmt.c</title>
<!-- Node1 -->
<g id="Node000001" class="node">
<title>Node1</title>
<g id="a_Node000001"><a xlink:title=" ">
<polygon fill="#999999" stroke="#666666" points="979,-250 899,-250 899,-231 979,-231 979,-250"/>
<text text-anchor="middle" x="939" y="-238" font-family="Helvetica,sans-Serif" font-size="10.00">gpio_mgmt.c</text>
</a>
</g>
</g>
<!-- Node2 -->
<g id="Node000002" class="node">
<title>Node2</title>
<g id="a_Node000002"><a xlink:href="gpio__mgmt_8h.html" target="_top" xlink:title=" ">
<polygon fill="white" stroke="#666666" points="910.5,-189.5 785.5,-189.5 785.5,-170.5 910.5,-170.5 910.5,-189.5"/>
<text text-anchor="middle" x="848" y="-177.5" font-family="Helvetica,sans-Serif" font-size="10.00">services/gpio_mgmt.h</text>
</a>
</g>
</g>
<!-- Node1&#45;&gt;Node2 -->
<g id="edge1_Node000001_Node000002" class="edge">
<title>Node1&#45;&gt;Node2</title>
<g id="a_edge1_Node000001_Node000002"><a xlink:title=" ">
<path fill="none" stroke="#63b8ff" d="M925.57,-230.87C910.92,-221.45 887.24,-206.23 869.9,-195.08"/>
<polygon fill="#63b8ff" stroke="#63b8ff" points="871.79,-192.13 861.48,-189.67 868,-198.02 871.79,-192.13"/>
</a>
</g>
</g>
<!-- Node15 -->
<g id="Node000015" class="node">
<title>Node15</title>
<g id="a_Node000015"><a xlink:href="drv__handle_8h.html" target="_top" xlink:title=" ">
<polygon fill="white" stroke="#666666" points="997,-129 881,-129 881,-110 997,-110 997,-129"/>
<text text-anchor="middle" x="939" y="-117" font-family="Helvetica,sans-Serif" font-size="10.00">drivers/drv_handle.h</text>
</a>
</g>
</g>
<!-- Node1&#45;&gt;Node15 -->
<g id="edge42_Node000001_Node000015" class="edge">
<title>Node1&#45;&gt;Node15</title>
<g id="a_edge42_Node000001_Node000015"><a xlink:title=" ">
<path fill="none" stroke="#63b8ff" d="M939,-230.94C939,-211.91 939,-165.69 939,-139.47"/>
<polygon fill="#63b8ff" stroke="#63b8ff" points="942.5,-139.3 939,-129.3 935.5,-139.3 942.5,-139.3"/>
</a>
</g>
</g>
<!-- Node20 -->
<g id="Node000020" class="node">
<title>Node20</title>
<g id="a_Node000020"><a xlink:href="kernel_8h.html" target="_top" xlink:title=" ">
<polygon fill="white" stroke="#666666" points="660,-189.5 590,-189.5 590,-170.5 660,-170.5 660,-189.5"/>
<text text-anchor="middle" x="625" y="-177.5" font-family="Helvetica,sans-Serif" font-size="10.00">os/kernel.h</text>
</a>
</g>
</g>
<!-- Node1&#45;&gt;Node20 -->
<g id="edge23_Node000001_Node000020" class="edge">
<title>Node1&#45;&gt;Node20</title>
<g id="a_edge23_Node000001_Node000020"><a xlink:title=" ">
<path fill="none" stroke="#63b8ff" d="M898.91,-232.03C840.3,-221.11 731.55,-200.85 670.18,-189.42"/>
<polygon fill="#63b8ff" stroke="#63b8ff" points="670.49,-185.92 660.02,-187.52 669.21,-192.8 670.49,-185.92"/>
</a>
</g>
</g>
<!-- Node29 -->
<g id="Node000029" class="node">
<title>Node29</title>
<g id="a_Node000029"><a xlink:title=" ">
<polygon fill="#e0e0e0" stroke="#999999" points="1226.5,-189.5 1107.5,-189.5 1107.5,-170.5 1226.5,-170.5 1226.5,-189.5"/>
<text text-anchor="middle" x="1167" y="-177.5" font-family="Helvetica,sans-Serif" font-size="10.00">board/board_config.h</text>
</a>
</g>
</g>
<!-- Node1&#45;&gt;Node29 -->
<g id="edge43_Node000001_Node000029" class="edge">
<title>Node1&#45;&gt;Node29</title>
<g id="a_edge43_Node000001_Node000029"><a xlink:title=" ">
<path fill="none" stroke="#63b8ff" d="M972.15,-230.99C1012.26,-220.7 1079.86,-203.36 1123.95,-192.04"/>
<polygon fill="#63b8ff" stroke="#63b8ff" points="1124.99,-195.39 1133.81,-189.52 1123.25,-188.61 1124.99,-195.39"/>
</a>
</g>
</g>
<!-- Node30 -->
<g id="Node000030" class="node">
<title>Node30</title>
<g id="a_Node000030"><a xlink:href="hal__gpio__stm32_8h.html" target="_top" xlink:title=" ">
<polygon fill="white" stroke="#666666" points="1089,-195 967,-195 967,-165 1089,-165 1089,-195"/>
<text text-anchor="start" x="975" y="-183" font-family="Helvetica,sans-Serif" font-size="10.00">drivers/cpu/hal/stm32</text>
<text text-anchor="middle" x="1028" y="-172" font-family="Helvetica,sans-Serif" font-size="10.00">/hal_gpio_stm32.h</text>
</a>
</g>
</g>
<!-- Node1&#45;&gt;Node30 -->
<g id="edge44_Node000001_Node000030" class="edge">
<title>Node1&#45;&gt;Node30</title>
<g id="a_edge44_Node000001_Node000030"><a xlink:title=" ">
<path fill="none" stroke="#63b8ff" d="M952.13,-230.87C964.1,-223 982.22,-211.09 997.75,-200.89"/>
<polygon fill="#63b8ff" stroke="#63b8ff" points="1000.09,-203.53 1006.53,-195.11 996.25,-197.68 1000.09,-203.53"/>
</a>
</g>
</g>
<!-- Node3 -->
<g id="Node000003" class="node">
<title>Node3</title>
<g id="a_Node000003"><a xlink:href="def__std_8h.html" target="_top" xlink:title=" ">
<polygon fill="white" stroke="#666666" points="702,-74 640,-74 640,-55 702,-55 702,-74"/>
<text text-anchor="middle" x="671" y="-62" font-family="Helvetica,sans-Serif" font-size="10.00">def_std.h</text>
</a>
</g>
</g>
<!-- Node2&#45;&gt;Node3 -->
<g id="edge2_Node000002_Node000003" class="edge">
<title>Node2&#45;&gt;Node3</title>
<g id="a_edge2_Node000002_Node000003"><a xlink:title=" ">
<path fill="none" stroke="#63b8ff" d="M834.7,-170.47C804.46,-151.08 730.31,-103.53 693.08,-79.66"/>
<polygon fill="#63b8ff" stroke="#63b8ff" points="694.77,-76.58 684.46,-74.13 690.99,-82.47 694.77,-76.58"/>
</a>
</g>
</g>
<!-- Node11 -->
<g id="Node000011" class="node">
<title>Node11</title>
<g id="a_Node000011"><a xlink:href="def__err_8h.html" target="_top" xlink:title=" ">
<polygon fill="white" stroke="#666666" points="779.5,-74 720.5,-74 720.5,-55 779.5,-55 779.5,-74"/>
<text text-anchor="middle" x="750" y="-62" font-family="Helvetica,sans-Serif" font-size="10.00">def_err.h</text>
</a>
</g>
</g>
<!-- Node2&#45;&gt;Node11 -->
<g id="edge10_Node000002_Node000011" class="edge">
<title>Node2&#45;&gt;Node11</title>
<g id="a_edge10_Node000002_Node000011"><a xlink:title=" ">
<path fill="none" stroke="#63b8ff" d="M840.63,-170.47C824.39,-151.65 785.25,-106.32 764.11,-81.84"/>
<polygon fill="#63b8ff" stroke="#63b8ff" points="766.64,-79.41 757.45,-74.13 761.34,-83.99 766.64,-79.41"/>
</a>
</g>
</g>
<!-- Node12 -->
<g id="Node000012" class="node">
<title>Node12</title>
<g id="a_Node000012"><a xlink:title=" ">
<polygon fill="#e0e0e0" stroke="#999999" points="1227,-74 1115,-74 1115,-55 1227,-55 1227,-74"/>
<text text-anchor="middle" x="1171" y="-62" font-family="Helvetica,sans-Serif" font-size="10.00">board/mcu_config.h</text>
</a>
</g>
</g>
<!-- Node2&#45;&gt;Node12 -->
<g id="edge11_Node000002_Node000012" class="edge">
<title>Node2&#45;&gt;Node12</title>
<g id="a_edge11_Node000002_Node000012"><a xlink:title=" ">
<path fill="none" stroke="#63b8ff" d="M906.41,-170.48C980.79,-159.29 1101.91,-139.79 1120,-129 1138.35,-118.05 1152.81,-97.9 1161.57,-83.23"/>
<polygon fill="#63b8ff" stroke="#63b8ff" points="1164.84,-84.55 1166.71,-74.12 1158.75,-81.11 1164.84,-84.55"/>
</a>
</g>
</g>
<!-- Node13 -->
<g id="Node000013" class="node">
<title>Node13</title>
<g id="a_Node000013"><a xlink:href="conf__os_8h.html" target="_top" xlink:title=" ">
<polygon fill="white" stroke="#666666" points="1110.5,-129 1015.5,-129 1015.5,-110 1110.5,-110 1110.5,-129"/>
<text text-anchor="middle" x="1063" y="-117" font-family="Helvetica,sans-Serif" font-size="10.00">config/conf_os.h</text>
</a>
</g>
</g>
<!-- Node2&#45;&gt;Node13 -->
<g id="edge12_Node000002_Node000013" class="edge">
<title>Node2&#45;&gt;Node13</title>
<g id="a_edge12_Node000002_Node000013"><a xlink:title=" ">
<path fill="none" stroke="#63b8ff" d="M879.26,-170.49C916.92,-160.25 980.29,-143 1021.88,-131.69"/>
<polygon fill="#63b8ff" stroke="#63b8ff" points="1022.97,-135.02 1031.7,-129.02 1021.13,-128.27 1022.97,-135.02"/>
</a>
</g>
</g>
<!-- Node2&#45;&gt;Node15 -->
<g id="edge14_Node000002_Node000015" class="edge">
<title>Node2&#45;&gt;Node15</title>
<g id="a_edge14_Node000002_Node000015"><a xlink:title=" ">
<path fill="none" stroke="#63b8ff" d="M861.43,-170.37C876.08,-160.95 899.76,-145.73 917.1,-134.58"/>
<polygon fill="#63b8ff" stroke="#63b8ff" points="919,-137.52 925.52,-129.17 915.21,-131.63 919,-137.52"/>
</a>
</g>
</g>
<!-- Node16 -->
<g id="Node000016" class="node">
<title>Node16</title>
<g id="a_Node000016"><a xlink:title=" ">
<polygon fill="#e0e0e0" stroke="#999999" points="935,-74 863,-74 863,-55 935,-55 935,-74"/>
<text text-anchor="middle" x="899" y="-62" font-family="Helvetica,sans-Serif" font-size="10.00">FreeRTOS.h</text>
</a>
</g>
</g>
<!-- Node2&#45;&gt;Node16 -->
<g id="edge21_Node000002_Node000016" class="edge">
<title>Node2&#45;&gt;Node16</title>
<g id="a_edge21_Node000002_Node000016"><a xlink:title=" ">
<path fill="none" stroke="#63b8ff" d="M850.39,-170.27C854.18,-156.95 862.17,-130.88 872,-110 876.43,-100.6 882.32,-90.66 887.48,-82.57"/>
<polygon fill="#63b8ff" stroke="#63b8ff" points="890.5,-84.34 893.06,-74.06 884.65,-80.51 890.5,-84.34"/>
</a>
</g>
</g>
<!-- Node19 -->
<g id="Node000019" class="node">
<title>Node19</title>
<g id="a_Node000019"><a xlink:title=" ">
<polygon fill="#e0e0e0" stroke="#999999" points="622,-74 566,-74 566,-55 622,-55 622,-74"/>
<text text-anchor="middle" x="594" y="-62" font-family="Helvetica,sans-Serif" font-size="10.00">queue.h</text>
</a>
</g>
</g>
<!-- Node2&#45;&gt;Node19 -->
<g id="edge22_Node000002_Node000019" class="edge">
<title>Node2&#45;&gt;Node19</title>
<g id="a_edge22_Node000002_Node000019"><a xlink:title=" ">
<path fill="none" stroke="#63b8ff" d="M828.91,-170.47C784.69,-150.71 675.02,-101.71 622.69,-78.32"/>
<polygon fill="#63b8ff" stroke="#63b8ff" points="623.87,-75.01 613.31,-74.13 621.01,-81.41 623.87,-75.01"/>
</a>
</g>
</g>
<!-- Node4 -->
<g id="Node000004" class="node">
<title>Node4</title>
<g id="a_Node000004"><a xlink:title=" ">
<polygon fill="#e0e0e0" stroke="#999999" points="487.5,-19 434.5,-19 434.5,0 487.5,0 487.5,-19"/>
<text text-anchor="middle" x="461" y="-7" font-family="Helvetica,sans-Serif" font-size="10.00">stdlib.h</text>
</a>
</g>
</g>
<!-- Node3&#45;&gt;Node4 -->
<g id="edge3_Node000003_Node000004" class="edge">
<title>Node3&#45;&gt;Node4</title>
<g id="a_edge3_Node000003_Node000004"><a xlink:title=" ">
<path fill="none" stroke="#63b8ff" d="M639.56,-55.57C601.56,-45.98 537.74,-29.87 497.57,-19.73"/>
<polygon fill="#63b8ff" stroke="#63b8ff" points="498.21,-16.28 487.65,-17.23 496.49,-23.07 498.21,-16.28"/>
</a>
</g>
</g>
<!-- Node5 -->
<g id="Node000005" class="node">
<title>Node5</title>
<g id="a_Node000005"><a xlink:title=" ">
<polygon fill="#e0e0e0" stroke="#999999" points="556.5,-19 505.5,-19 505.5,0 556.5,0 556.5,-19"/>
<text text-anchor="middle" x="531" y="-7" font-family="Helvetica,sans-Serif" font-size="10.00">errno.h</text>
</a>
</g>
</g>
<!-- Node3&#45;&gt;Node5 -->
<g id="edge4_Node000003_Node000005" class="edge">
<title>Node3&#45;&gt;Node5</title>
<g id="a_edge4_Node000003_Node000005"><a xlink:title=" ">
<path fill="none" stroke="#63b8ff" d="M648.51,-54.98C625.48,-46.27 589.46,-32.63 563.37,-22.75"/>
<polygon fill="#63b8ff" stroke="#63b8ff" points="564.49,-19.44 553.9,-19.17 562.02,-25.98 564.49,-19.44"/>
</a>
</g>
</g>
<!-- Node6 -->
<g id="Node000006" class="node">
<title>Node6</title>
<g id="a_Node000006"><a xlink:title=" ">
<polygon fill="#e0e0e0" stroke="#999999" points="625,-19 575,-19 575,0 625,0 625,-19"/>
<text text-anchor="middle" x="600" y="-7" font-family="Helvetica,sans-Serif" font-size="10.00">stdio.h</text>
</a>
</g>
</g>
<!-- Node3&#45;&gt;Node6 -->
<g id="edge5_Node000003_Node000006" class="edge">
<title>Node3&#45;&gt;Node6</title>
<g id="a_edge5_Node000003_Node000006"><a xlink:title=" ">
<path fill="none" stroke="#63b8ff" d="M659.59,-54.98C648.89,-47 632.66,-34.88 619.84,-25.31"/>
<polygon fill="#63b8ff" stroke="#63b8ff" points="621.72,-22.35 611.61,-19.17 617.53,-27.96 621.72,-22.35"/>
</a>
</g>
</g>
<!-- Node7 -->
<g id="Node000007" class="node">
<title>Node7</title>
<g id="a_Node000007"><a xlink:title=" ">
<polygon fill="#e0e0e0" stroke="#999999" points="698.5,-19 643.5,-19 643.5,0 698.5,0 698.5,-19"/>
<text text-anchor="middle" x="671" y="-7" font-family="Helvetica,sans-Serif" font-size="10.00">signal.h</text>
</a>
</g>
</g>
<!-- Node3&#45;&gt;Node7 -->
<g id="edge6_Node000003_Node000007" class="edge">
<title>Node3&#45;&gt;Node7</title>
<g id="a_edge6_Node000003_Node000007"><a xlink:title=" ">
<path fill="none" stroke="#63b8ff" d="M671,-54.75C671,-47.8 671,-37.85 671,-29.13"/>
<polygon fill="#63b8ff" stroke="#63b8ff" points="674.5,-29.09 671,-19.09 667.5,-29.09 674.5,-29.09"/>
</a>
</g>
</g>
<!-- Node8 -->
<g id="Node000008" class="node">
<title>Node8</title>
<g id="a_Node000008"><a xlink:title=" ">
<polygon fill="#e0e0e0" stroke="#999999" points="765,-19 717,-19 717,0 765,0 765,-19"/>
<text text-anchor="middle" x="741" y="-7" font-family="Helvetica,sans-Serif" font-size="10.00">time.h</text>
</a>
</g>
</g>
<!-- Node3&#45;&gt;Node8 -->
<g id="edge7_Node000003_Node000008" class="edge">
<title>Node3&#45;&gt;Node8</title>
<g id="a_edge7_Node000003_Node000008"><a xlink:title=" ">
<path fill="none" stroke="#63b8ff" d="M682.25,-54.98C692.8,-47 708.8,-34.88 721.44,-25.31"/>
<polygon fill="#63b8ff" stroke="#63b8ff" points="723.69,-28 729.55,-19.17 719.46,-22.42 723.69,-28"/>
</a>
</g>
</g>
<!-- Node9 -->
<g id="Node000009" class="node">
<title>Node9</title>
<g id="a_Node000009"><a xlink:title=" ">
<polygon fill="#e0e0e0" stroke="#999999" points="836.5,-19 783.5,-19 783.5,0 836.5,0 836.5,-19"/>
<text text-anchor="middle" x="810" y="-7" font-family="Helvetica,sans-Serif" font-size="10.00">stdint.h</text>
</a>
</g>
</g>
<!-- Node3&#45;&gt;Node9 -->
<g id="edge8_Node000003_Node000009" class="edge">
<title>Node3&#45;&gt;Node9</title>
<g id="a_edge8_Node000003_Node000009"><a xlink:title=" ">
<path fill="none" stroke="#63b8ff" d="M693.33,-54.98C716.2,-46.27 751.96,-32.63 777.86,-22.75"/>
<polygon fill="#63b8ff" stroke="#63b8ff" points="779.16,-26 787.26,-19.17 776.67,-19.46 779.16,-26"/>
</a>
</g>
</g>
<!-- Node10 -->
<g id="Node000010" class="node">
<title>Node10</title>
<g id="a_Node000010"><a xlink:title=" ">
<polygon fill="#e0e0e0" stroke="#999999" points="919.5,-19 854.5,-19 854.5,0 919.5,0 919.5,-19"/>
<text text-anchor="middle" x="887" y="-7" font-family="Helvetica,sans-Serif" font-size="10.00">inttypes.h</text>
</a>
</g>
</g>
<!-- Node3&#45;&gt;Node10 -->
<g id="edge9_Node000003_Node000010" class="edge">
<title>Node3&#45;&gt;Node10</title>
<g id="a_edge9_Node000003_Node000010"><a xlink:title=" ">
<path fill="none" stroke="#63b8ff" d="M702.41,-55.79C739.92,-46.59 802.82,-31.16 844.61,-20.9"/>
<polygon fill="#63b8ff" stroke="#63b8ff" points="845.62,-24.26 854.49,-18.48 843.95,-17.46 845.62,-24.26"/>
</a>
</g>
</g>
<!-- Node14 -->
<g id="Node000014" class="node">
<title>Node14</title>
<g id="a_Node000014"><a xlink:href="autoconf_8h.html" target="_top" xlink:title=" ">
<polygon fill="white" stroke="#666666" points="1097,-74 1029,-74 1029,-55 1097,-55 1097,-74"/>
<text text-anchor="middle" x="1063" y="-62" font-family="Helvetica,sans-Serif" font-size="10.00">autoconf.h</text>
</a>
</g>
</g>
<!-- Node13&#45;&gt;Node14 -->
<g id="edge13_Node000013_Node000014" class="edge">
<title>Node13&#45;&gt;Node14</title>
<g id="a_edge13_Node000013_Node000014"><a xlink:title=" ">
<path fill="none" stroke="#63b8ff" d="M1063,-109.75C1063,-102.8 1063,-92.85 1063,-84.13"/>
<polygon fill="#63b8ff" stroke="#63b8ff" points="1066.5,-84.09 1063,-74.09 1059.5,-84.09 1066.5,-84.09"/>
</a>
</g>
</g>
<!-- Node15&#45;&gt;Node3 -->
<g id="edge15_Node000015_Node000003" class="edge">
<title>Node15&#45;&gt;Node3</title>
<g id="a_edge15_Node000015_Node000003"><a xlink:title=" ">
<path fill="none" stroke="#63b8ff" d="M894.6,-109.94C850.88,-101.49 781.92,-88.06 712.18,-74.02"/>
<polygon fill="#63b8ff" stroke="#63b8ff" points="712.83,-70.58 702.33,-72.03 711.44,-77.44 712.83,-70.58"/>
</a>
</g>
</g>
<!-- Node15&#45;&gt;Node11 -->
<g id="edge16_Node000015_Node000011" class="edge">
<title>Node15&#45;&gt;Node11</title>
<g id="a_edge16_Node000015_Node000011"><a xlink:title=" ">
<path fill="none" stroke="#63b8ff" d="M908.63,-109.98C876.34,-100.93 825.14,-86.57 789.68,-76.63"/>
<polygon fill="#63b8ff" stroke="#63b8ff" points="790.24,-73.15 779.67,-73.82 788.35,-79.89 790.24,-73.15"/>
</a>
</g>
</g>
<!-- Node15&#45;&gt;Node12 -->
<g id="edge17_Node000015_Node000012" class="edge">
<title>Node15&#45;&gt;Node12</title>
<g id="a_edge17_Node000015_Node000012"><a xlink:title=" ">
<path fill="none" stroke="#63b8ff" d="M976.27,-109.98C1016.32,-100.84 1080.07,-86.27 1123.64,-76.32"/>
<polygon fill="#63b8ff" stroke="#63b8ff" points="1124.46,-79.72 1133.43,-74.08 1122.9,-72.9 1124.46,-79.72"/>
</a>
</g>
</g>
<!-- Node15&#45;&gt;Node16 -->
<g id="edge18_Node000015_Node000016" class="edge">
<title>Node15&#45;&gt;Node16</title>
<g id="a_edge18_Node000015_Node000016"><a xlink:title=" ">
<path fill="none" stroke="#63b8ff" d="M932.39,-109.75C926.74,-102.26 918.46,-91.28 911.55,-82.13"/>
<polygon fill="#63b8ff" stroke="#63b8ff" points="914.3,-79.96 905.48,-74.09 908.71,-84.18 914.3,-79.96"/>
</a>
</g>
</g>
<!-- Node17 -->
<g id="Node000017" class="node">
<title>Node17</title>
<g id="a_Node000017"><a xlink:title=" ">
<polygon fill="#e0e0e0" stroke="#999999" points="844.5,-74 797.5,-74 797.5,-55 844.5,-55 844.5,-74"/>
<text text-anchor="middle" x="821" y="-62" font-family="Helvetica,sans-Serif" font-size="10.00">task.h</text>
</a>
</g>
</g>
<!-- Node15&#45;&gt;Node17 -->
<g id="edge19_Node000015_Node000017" class="edge">
<title>Node15&#45;&gt;Node17</title>
<g id="a_edge19_Node000015_Node000017"><a xlink:title=" ">
<path fill="none" stroke="#63b8ff" d="M920.04,-109.98C900.97,-101.42 871.34,-88.11 849.45,-78.28"/>
<polygon fill="#63b8ff" stroke="#63b8ff" points="850.86,-75.07 840.3,-74.17 847.99,-81.46 850.86,-75.07"/>
</a>
</g>
</g>
<!-- Node18 -->
<g id="Node000018" class="node">
<title>Node18</title>
<g id="a_Node000018"><a xlink:title=" ">
<polygon fill="#e0e0e0" stroke="#999999" points="1011,-74 953,-74 953,-55 1011,-55 1011,-74"/>
<text text-anchor="middle" x="982" y="-62" font-family="Helvetica,sans-Serif" font-size="10.00">device.h</text>
</a>
</g>
</g>
<!-- Node15&#45;&gt;Node18 -->
<g id="edge20_Node000015_Node000018" class="edge">
<title>Node15&#45;&gt;Node18</title>
<g id="a_edge20_Node000015_Node000018"><a xlink:title=" ">
<path fill="none" stroke="#63b8ff" d="M946.1,-109.75C952.17,-102.26 961.09,-91.28 968.51,-82.13"/>
<polygon fill="#63b8ff" stroke="#63b8ff" points="971.45,-84.06 975.03,-74.09 966.01,-79.65 971.45,-84.06"/>
</a>
</g>
</g>
<!-- Node20&#45;&gt;Node3 -->
<g id="edge25_Node000020_Node000003" class="edge">
<title>Node20&#45;&gt;Node3</title>
<g id="a_edge25_Node000020_Node000003"><a xlink:title=" ">
<path fill="none" stroke="#63b8ff" d="M628.46,-170.47C635.92,-152.06 653.66,-108.29 663.71,-83.48"/>
<polygon fill="#63b8ff" stroke="#63b8ff" points="666.99,-84.71 667.5,-74.13 660.5,-82.08 666.99,-84.71"/>
</a>
</g>
</g>
<!-- Node20&#45;&gt;Node11 -->
<g id="edge26_Node000020_Node000011" class="edge">
<title>Node20&#45;&gt;Node11</title>
<g id="a_edge26_Node000020_Node000011"><a xlink:title=" ">
<path fill="none" stroke="#63b8ff" d="M634.4,-170.47C655.39,-151.41 706.35,-105.13 733.05,-80.89"/>
<polygon fill="#63b8ff" stroke="#63b8ff" points="735.45,-83.44 740.5,-74.13 730.74,-78.26 735.45,-83.44"/>
</a>
</g>
</g>
<!-- Node20&#45;&gt;Node16 -->
<g id="edge27_Node000020_Node000016" class="edge">
<title>Node20&#45;&gt;Node16</title>
<g id="a_edge27_Node000020_Node000016"><a xlink:title=" ">
<path fill="none" stroke="#63b8ff" d="M645.59,-170.47C693.5,-150.63 812.58,-101.3 868.76,-78.03"/>
<polygon fill="#63b8ff" stroke="#63b8ff" points="870.27,-81.19 878.17,-74.13 867.59,-74.72 870.27,-81.19"/>
</a>
</g>
</g>
<!-- Node21 -->
<g id="Node000021" class="node">
<title>Node21</title>
<g id="a_Node000021"><a xlink:href="def__attributes_8h.html" target="_top" xlink:title=" ">
<polygon fill="white" stroke="#666666" points="94,-74 0,-74 0,-55 94,-55 94,-74"/>
<text text-anchor="middle" x="47" y="-62" font-family="Helvetica,sans-Serif" font-size="10.00">def_attributes.h</text>
</a>
</g>
</g>
<!-- Node20&#45;&gt;Node21 -->
<g id="edge24_Node000020_Node000021" class="edge">
<title>Node20&#45;&gt;Node21</title>
<g id="a_edge24_Node000020_Node000021"><a xlink:title=" ">
<path fill="none" stroke="#63b8ff" d="M589.71,-172.07C492.05,-152.89 217.68,-99.02 100.81,-76.07"/>
<polygon fill="#63b8ff" stroke="#63b8ff" points="101.15,-72.57 90.67,-74.07 99.81,-79.44 101.15,-72.57"/>
</a>
</g>
</g>
<!-- Node22 -->
<g id="Node000022" class="node">
<title>Node22</title>
<g id="a_Node000022"><a xlink:href="list_8h.html" target="_top" xlink:title="All linked list operation functions definitions and macros.">
<polygon fill="white" stroke="#666666" points="596.5,-129 533.5,-129 533.5,-110 596.5,-110 596.5,-129"/>
<text text-anchor="middle" x="565" y="-117" font-family="Helvetica,sans-Serif" font-size="10.00">mm/list.h</text>
</a>
</g>
</g>
<!-- Node20&#45;&gt;Node22 -->
<g id="edge28_Node000020_Node000022" class="edge">
<title>Node20&#45;&gt;Node22</title>
<g id="a_edge28_Node000020_Node000022"><a xlink:title=" ">
<path fill="none" stroke="#63b8ff" d="M616.15,-170.37C607.02,-161.47 592.58,-147.39 581.36,-136.45"/>
<polygon fill="#63b8ff" stroke="#63b8ff" points="583.49,-133.64 573.89,-129.17 578.61,-138.65 583.49,-133.64"/>
</a>
</g>
</g>
<!-- Node23 -->
<g id="Node000023" class="node">
<title>Node23</title>
<g id="a_Node000023"><a xlink:href="os_2kernel__mem_8h.html" target="_top" xlink:title=" ">
<polygon fill="white" stroke="#666666" points="515,-129 429,-129 429,-110 515,-110 515,-129"/>
<text text-anchor="middle" x="472" y="-117" font-family="Helvetica,sans-Serif" font-size="10.00">kernel_mem.h</text>
</a>
</g>
</g>
<!-- Node20&#45;&gt;Node23 -->
<g id="edge30_Node000020_Node000023" class="edge">
<title>Node20&#45;&gt;Node23</title>
<g id="a_edge30_Node000020_Node000023"><a xlink:title=" ">
<path fill="none" stroke="#63b8ff" d="M602.75,-170.49C576.69,-160.53 533.32,-143.95 503.73,-132.63"/>
<polygon fill="#63b8ff" stroke="#63b8ff" points="504.86,-129.32 494.27,-129.02 502.36,-135.86 504.86,-129.32"/>
</a>
</g>
</g>
<!-- Node22&#45;&gt;Node3 -->
<g id="edge29_Node000022_Node000003" class="edge">
<title>Node22&#45;&gt;Node3</title>
<g id="a_edge29_Node000022_Node000003"><a xlink:title=" ">
<path fill="none" stroke="#63b8ff" d="M582.03,-109.98C598.93,-101.54 625.06,-88.47 644.64,-78.68"/>
<polygon fill="#63b8ff" stroke="#63b8ff" points="646.28,-81.77 653.66,-74.17 643.15,-75.51 646.28,-81.77"/>
</a>
</g>
</g>
<!-- Node23&#45;&gt;Node3 -->
<g id="edge31_Node000023_Node000003" class="edge">
<title>Node23&#45;&gt;Node3</title>
<g id="a_edge31_Node000023_Node000003"><a xlink:title=" ">
<path fill="none" stroke="#63b8ff" d="M503.97,-109.98C538.12,-100.89 592.35,-86.45 629.71,-76.5"/>
<polygon fill="#63b8ff" stroke="#63b8ff" points="631,-79.78 639.76,-73.82 629.2,-73.01 631,-79.78"/>
</a>
</g>
</g>
<!-- Node23&#45;&gt;Node11 -->
<g id="edge32_Node000023_Node000011" class="edge">
<title>Node23&#45;&gt;Node11</title>
<g id="a_edge32_Node000023_Node000011"><a xlink:title=" ">
<path fill="none" stroke="#63b8ff" d="M515.25,-110.86C561.13,-102.66 635.96,-89.03 710.21,-74.11"/>
<polygon fill="#63b8ff" stroke="#63b8ff" points="711.1,-77.5 720.21,-72.09 709.71,-70.64 711.1,-77.5"/>
</a>
</g>
</g>
<!-- Node23&#45;&gt;Node16 -->
<g id="edge34_Node000023_Node000016" class="edge">
<title>Node23&#45;&gt;Node16</title>
<g id="a_edge34_Node000023_Node000016"><a xlink:title=" ">
<path fill="none" stroke="#63b8ff" d="M515.1,-111.27C518.11,-110.82 521.1,-110.39 524,-110 666.9,-90.54 706.31,-95.47 852.45,-74.12"/>
<polygon fill="#63b8ff" stroke="#63b8ff" points="853.31,-77.53 862.69,-72.61 852.29,-70.61 853.31,-77.53"/>
</a>
</g>
</g>
<!-- Node23&#45;&gt;Node17 -->
<g id="edge37_Node000023_Node000017" class="edge">
<title>Node23&#45;&gt;Node17</title>
<g id="a_edge37_Node000023_Node000017"><a xlink:title=" ">
<path fill="none" stroke="#63b8ff" d="M515.12,-111.36C518.12,-110.89 521.1,-110.43 524,-110 638.34,-92.89 670.69,-97.05 787.28,-74.14"/>
<polygon fill="#63b8ff" stroke="#63b8ff" points="788.19,-77.53 797.31,-72.14 786.82,-70.66 788.19,-77.53"/>
</a>
</g>
</g>
<!-- Node23&#45;&gt;Node19 -->
<g id="edge36_Node000023_Node000019" class="edge">
<title>Node23&#45;&gt;Node19</title>
<g id="a_edge36_Node000023_Node000019"><a xlink:title=" ">
<path fill="none" stroke="#63b8ff" d="M491.6,-109.98C511.32,-101.42 541.95,-88.11 564.58,-78.28"/>
<polygon fill="#63b8ff" stroke="#63b8ff" points="566.26,-81.37 574.04,-74.17 563.48,-74.94 566.26,-81.37"/>
</a>
</g>
</g>
<!-- Node23&#45;&gt;Node21 -->
<g id="edge33_Node000023_Node000021" class="edge">
<title>Node23&#45;&gt;Node21</title>
<g id="a_edge33_Node000023_Node000021"><a xlink:title=" ">
<path fill="none" stroke="#63b8ff" d="M428.77,-113.72C361.62,-106.2 227.93,-90.86 104.08,-74.11"/>
<polygon fill="#63b8ff" stroke="#63b8ff" points="104.42,-70.62 94.04,-72.75 103.48,-77.56 104.42,-70.62"/>
</a>
</g>
</g>
<!-- Node24 -->
<g id="Node000024" class="node">
<title>Node24</title>
<g id="a_Node000024"><a xlink:title=" ">
<polygon fill="#e0e0e0" stroke="#999999" points="472.5,-74 413.5,-74 413.5,-55 472.5,-55 472.5,-74"/>
<text text-anchor="middle" x="443" y="-62" font-family="Helvetica,sans-Serif" font-size="10.00">atomic.h</text>
</a>
</g>
</g>
<!-- Node23&#45;&gt;Node24 -->
<g id="edge35_Node000023_Node000024" class="edge">
<title>Node23&#45;&gt;Node24</title>
<g id="a_edge35_Node000023_Node000024"><a xlink:title=" ">
<path fill="none" stroke="#63b8ff" d="M467.21,-109.75C463.24,-102.49 457.47,-91.95 452.57,-82.98"/>
<polygon fill="#63b8ff" stroke="#63b8ff" points="455.57,-81.18 447.7,-74.09 449.43,-84.54 455.57,-81.18"/>
</a>
</g>
</g>
<!-- Node25 -->
<g id="Node000025" class="node">
<title>Node25</title>
<g id="a_Node000025"><a xlink:title=" ">
<polygon fill="#e0e0e0" stroke="#999999" points="547.5,-74 490.5,-74 490.5,-55 547.5,-55 547.5,-74"/>
<text text-anchor="middle" x="519" y="-62" font-family="Helvetica,sans-Serif" font-size="10.00">timers.h</text>
</a>
</g>
</g>
<!-- Node23&#45;&gt;Node25 -->
<g id="edge38_Node000023_Node000025" class="edge">
<title>Node23&#45;&gt;Node25</title>
<g id="a_edge38_Node000023_Node000025"><a xlink:title=" ">
<path fill="none" stroke="#63b8ff" d="M479.76,-109.75C486.47,-102.18 496.34,-91.05 504.51,-81.84"/>
<polygon fill="#63b8ff" stroke="#63b8ff" points="507.37,-83.89 511.38,-74.09 502.13,-79.25 507.37,-83.89"/>
</a>
</g>
</g>
<!-- Node26 -->
<g id="Node000026" class="node">
<title>Node26</title>
<g id="a_Node000026"><a xlink:title=" ">
<polygon fill="#e0e0e0" stroke="#999999" points="174,-74 112,-74 112,-55 174,-55 174,-74"/>
<text text-anchor="middle" x="143" y="-62" font-family="Helvetica,sans-Serif" font-size="10.00">semphr.h</text>
</a>
</g>
</g>
<!-- Node23&#45;&gt;Node26 -->
<g id="edge39_Node000023_Node000026" class="edge">
<title>Node23&#45;&gt;Node26</title>
<g id="a_edge39_Node000023_Node000026"><a xlink:title=" ">
<path fill="none" stroke="#63b8ff" d="M428.78,-112.62C374.16,-105.03 277.02,-90.94 184.5,-74.19"/>
<polygon fill="#63b8ff" stroke="#63b8ff" points="184.88,-70.7 174.41,-72.35 183.62,-77.59 184.88,-70.7"/>
</a>
</g>
</g>
<!-- Node27 -->
<g id="Node000027" class="node">
<title>Node27</title>
<g id="a_Node000027"><a xlink:title=" ">
<polygon fill="#e0e0e0" stroke="#999999" points="284,-74 192,-74 192,-55 284,-55 284,-74"/>
<text text-anchor="middle" x="238" y="-62" font-family="Helvetica,sans-Serif" font-size="10.00">event_groups.h</text>
</a>
</g>
</g>
<!-- Node23&#45;&gt;Node27 -->
<g id="edge40_Node000023_Node000027" class="edge">
<title>Node23&#45;&gt;Node27</title>
<g id="a_edge40_Node000023_Node000027"><a xlink:title=" ">
<path fill="none" stroke="#63b8ff" d="M434.4,-109.98C394.01,-100.84 329.72,-86.27 285.77,-76.32"/>
<polygon fill="#63b8ff" stroke="#63b8ff" points="286.42,-72.88 275.89,-74.08 284.87,-79.7 286.42,-72.88"/>
</a>
</g>
</g>
<!-- Node28 -->
<g id="Node000028" class="node">
<title>Node28</title>
<g id="a_Node000028"><a xlink:title=" ">
<polygon fill="#e0e0e0" stroke="#999999" points="395.5,-74 302.5,-74 302.5,-55 395.5,-55 395.5,-74"/>
<text text-anchor="middle" x="349" y="-62" font-family="Helvetica,sans-Serif" font-size="10.00">stream_buffer.h</text>
</a>
</g>
</g>
<!-- Node23&#45;&gt;Node28 -->
<g id="edge41_Node000023_Node000028" class="edge">
<title>Node23&#45;&gt;Node28</title>
<g id="a_edge41_Node000023_Node000028"><a xlink:title=" ">
<path fill="none" stroke="#63b8ff" d="M452.24,-109.98C432.27,-101.38 401.2,-87.99 378.35,-78.15"/>
<polygon fill="#63b8ff" stroke="#63b8ff" points="379.69,-74.91 369.12,-74.17 376.92,-81.34 379.69,-74.91"/>
</a>
</g>
</g>
<!-- Node30&#45;&gt;Node12 -->
<g id="edge45_Node000030_Node000012" class="edge">
<title>Node30&#45;&gt;Node12</title>
<g id="a_edge45_Node000030_Node000012"><a xlink:title=" ">
<path fill="none" stroke="#63b8ff" d="M1089.05,-166.68C1111.91,-159.26 1136.34,-147.5 1153,-129 1164.02,-116.76 1168.34,-98.25 1170.01,-84.36"/>
<polygon fill="#63b8ff" stroke="#63b8ff" points="1173.53,-84.28 1170.88,-74.03 1166.55,-83.7 1173.53,-84.28"/>
</a>
</g>
</g>
<!-- Node30&#45;&gt;Node15 -->
<g id="edge46_Node000030_Node000015" class="edge">
<title>Node30&#45;&gt;Node15</title>
<g id="a_edge46_Node000030_Node000015"><a xlink:title=" ">
<path fill="none" stroke="#63b8ff" d="M1006.46,-164.84C992.53,-155.68 974.47,-143.82 960.55,-134.66"/>
<polygon fill="#63b8ff" stroke="#63b8ff" points="962.35,-131.66 952.08,-129.09 958.51,-137.51 962.35,-131.66"/>
</a>
</g>
</g>
</g>
</svg>

<g id="navigator" transform="translate(0 0)" fill="#404254">
  <rect fill="#f2f5e9" fill-opacity="0.5" stroke="#606060" stroke-width=".5" x="0" y="0" width="60" height="60"/>
  <use id="zoomplus" xlink:href="#zoomPlus" x="17" y="9" onmousedown="handleZoom(evt,'in')"/>
  <use id="zoomminus" xlink:href="#zoomMin" x="42" y="9" onmousedown="handleZoom(evt,'out')"/>
  <use id="reset" xlink:href="#resetDef" x="30" y="36" onmousedown="handleReset()"/>
   <use id="arrowup" xlink:href="#arrowUp" x="0" y="0" onmousedown="handlePan(0,-1)"/>
  <use id="arrowright" xlink:href="#arrowRight" x="0" y="0" onmousedown="handlePan(1,0)"/>
  <use id="arrowdown" xlink:href="#arrowDown" x="0" y="0" onmousedown="handlePan(0,1)"/>
  <use id="arrowleft" xlink:href="#arrowLeft" x="0" y="0" onmousedown="handlePan(-1,0)"/>
</g>
<svg viewBox="0 0 15 15" width="100%" height="30px" preserveAspectRatio="xMaxYMin meet">
 <g id="arrow_out" transform="scale(0.3 0.3)">
  <a xlink:href="gpio__mgmt_8c__incl_org.svg" target="_base">
   <rect id="button" ry="5" rx="5" y="6" x="6" height="38" width="38"
        fill="#f2f5e9" fill-opacity="0.5" stroke="#606060" stroke-width="1.0"/>
   <path id="arrow"
     d="M 11.500037,31.436501 C 11.940474,20.09759 22.043105,11.32322 32.158766,21.979434 L 37.068811,17.246167 C 37.068811,17.246167 37.088388,32 37.088388,32 L 22.160133,31.978069 C 22.160133,31.978069 26.997745,27.140456 26.997745,27.140456 C 18.528582,18.264221 13.291696,25.230495 11.500037,31.436501 z"
     style="fill:#404040;"/>
  </a>
 </g>
</svg>

<style type='text/css'>
<![CDATA[
[data-mouse-over-selected='false'] { opacity: 0.7; }
[data-mouse-over-selected='true']  { opacity: 1.0; }
]]>
</style>
<script type="application/ecmascript"><![CDATA[
document.addEventListener('DOMContentLoaded', (event) => {
  highlightEdges();
  highlightAdjacentNodes();
});
]]></script>
</svg>
