<?xml version="1.0" encoding="UTF-8" standalone="no"?>
<!DOCTYPE svg PUBLIC "-//W3C//DTD SVG 1.1//EN"
 "http://www.w3.org/Graphics/SVG/1.1/DTD/svg11.dtd">
<!-- Generated by graphviz version 2.43.0 (0)
 -->
<!-- Title: list_delete Pages: 1 -->
<svg width="662pt" height="157pt"
 viewBox="0.00 0.00 662.00 157.00" xmlns="http://www.w3.org/2000/svg" xmlns:xlink="http://www.w3.org/1999/xlink">
<g id="graph0" class="graph" transform="scale(1 1) rotate(0) translate(4 153)">
<title>list_delete</title>
<!-- Node1 -->
<g id="Node000001" class="node">
<title>Node1</title>
<g id="a_Node000001"><a xlink:title="Delete a node from the list.">
<polygon fill="#999999" stroke="#666666" points="654,-74 586,-74 586,-55 654,-55 654,-74"/>
<text text-anchor="middle" x="620" y="-62" font-family="Helvetica,sans-Serif" font-size="10.00">list_delete</text>
</a>
</g>
</g>
<!-- Node2 -->
<g id="Node000002" class="node">
<title>Node2</title>
<g id="a_Node000002"><a xlink:href="drv__dma_8c.html#a0adc2fd6fab28e2e68c0a9876f14b180" target="_top" xlink:title=" ">
<polygon fill="white" stroke="#666666" points="550,-130 403,-130 403,-111 550,-111 550,-130"/>
<text text-anchor="middle" x="476.5" y="-118" font-family="Helvetica,sans-Serif" font-size="10.00">dma_async_issue_pending</text>
</a>
</g>
</g>
<!-- Node1&#45;&gt;Node2 -->
<g id="edge1_Node000001_Node000002" class="edge">
<title>Node1&#45;&gt;Node2</title>
<g id="a_edge1_Node000001_Node000002"><a xlink:title=" ">
<path fill="none" stroke="#63b8ff" d="M594.86,-79.26C581.91,-86.71 565.47,-95.42 550,-101.5 540.67,-105.16 530.4,-108.34 520.59,-111"/>
<polygon fill="#63b8ff" stroke="#63b8ff" points="596.76,-82.2 603.61,-74.12 593.22,-76.17 596.76,-82.2"/>
</a>
</g>
</g>
<!-- Node7 -->
<g id="Node000007" class="node">
<title>Node7</title>
<g id="a_Node000007"><a xlink:href="drv__dma_8c.html#aa1c797ead001222bc7a8ccb68d12c956" target="_top" xlink:title=" ">
<polygon fill="white" stroke="#666666" points="547.5,-93 405.5,-93 405.5,-74 547.5,-74 547.5,-93"/>
<text text-anchor="middle" x="476.5" y="-81" font-family="Helvetica,sans-Serif" font-size="10.00">dmaengine_terminate_all</text>
</a>
</g>
</g>
<!-- Node1&#45;&gt;Node7 -->
<g id="edge6_Node000001_Node000007" class="edge">
<title>Node1&#45;&gt;Node7</title>
<g id="a_edge6_Node000001_Node000007"><a xlink:title=" ">
<path fill="none" stroke="#63b8ff" d="M575.7,-70.31C566.78,-71.51 557.16,-72.8 547.56,-74.09"/>
<polygon fill="#63b8ff" stroke="#63b8ff" points="576.38,-73.75 585.82,-68.95 575.45,-66.82 576.38,-73.75"/>
</a>
</g>
</g>
<!-- Node9 -->
<g id="Node000009" class="node">
<title>Node9</title>
<g id="a_Node000009"><a xlink:href="irq__desc_8c.html#a62938807635ece657b67ecad3550a7c3" target="_top" xlink:title=" ">
<polygon fill="white" stroke="#666666" points="503.5,-56 449.5,-56 449.5,-37 503.5,-37 503.5,-56"/>
<text text-anchor="middle" x="476.5" y="-44" font-family="Helvetica,sans-Serif" font-size="10.00">free_irq</text>
</a>
</g>
</g>
<!-- Node1&#45;&gt;Node9 -->
<g id="edge8_Node000001_Node000009" class="edge">
<title>Node1&#45;&gt;Node9</title>
<g id="a_edge8_Node000001_Node000009"><a xlink:title=" ">
<path fill="none" stroke="#63b8ff" d="M575.76,-59C552.29,-56.01 524.03,-52.42 503.86,-49.85"/>
<polygon fill="#63b8ff" stroke="#63b8ff" points="575.46,-62.49 585.82,-60.28 576.35,-55.55 575.46,-62.49"/>
</a>
</g>
</g>
<!-- Node10 -->
<g id="Node000010" class="node">
<title>Node10</title>
<g id="a_Node000010"><a xlink:href="mqueue_8c.html#a35e33eddc9a274c42cb45d56f4d3ea0f" target="_top" xlink:title=" ">
<polygon fill="white" stroke="#666666" points="542,-19 411,-19 411,0 542,0 542,-19"/>
<text text-anchor="middle" x="476.5" y="-7" font-family="Helvetica,sans-Serif" font-size="10.00">ipc_mqueue_unregister</text>
</a>
</g>
</g>
<!-- Node1&#45;&gt;Node10 -->
<g id="edge9_Node000001_Node000010" class="edge">
<title>Node1&#45;&gt;Node10</title>
<g id="a_edge9_Node000001_Node000010"><a xlink:title=" ">
<path fill="none" stroke="#63b8ff" d="M595.15,-49.81C582.17,-42.3 565.62,-33.52 550,-27.5 541.53,-24.24 532.27,-21.41 523.29,-19.03"/>
<polygon fill="#63b8ff" stroke="#63b8ff" points="593.51,-52.9 603.9,-54.98 597.08,-46.88 593.51,-52.9"/>
</a>
</g>
</g>
<!-- Node3 -->
<g id="Node000003" class="node">
<title>Node3</title>
<g id="a_Node000003"><a xlink:href="drv__dma_8c.html#a98fb2a47d76acc4facd0d271f3896738" target="_top" xlink:title=" ">
<polygon fill="white" stroke="#666666" points="367,-130 232,-130 232,-111 367,-111 367,-130"/>
<text text-anchor="middle" x="299.5" y="-118" font-family="Helvetica,sans-Serif" font-size="10.00">dma_complete_callback</text>
</a>
</g>
</g>
<!-- Node2&#45;&gt;Node3 -->
<g id="edge2_Node000002_Node000003" class="edge">
<title>Node2&#45;&gt;Node3</title>
<g id="a_edge2_Node000002_Node000003"><a xlink:title=" ">
<path fill="none" stroke="#63b8ff" d="M392.75,-120.5C384.15,-120.5 375.48,-120.5 367.09,-120.5"/>
<polygon fill="#63b8ff" stroke="#63b8ff" points="392.8,-124 402.8,-120.5 392.8,-117 392.8,-124"/>
</a>
</g>
</g>
<!-- Node4 -->
<g id="Node000004" class="node">
<title>Node4</title>
<g id="a_Node000004"><a xlink:href="hal__dma__stm32_8c.html#a40fcd1481855f18e0dd34bec27af7f65" target="_top" xlink:title=" ">
<polygon fill="white" stroke="#666666" points="196,-130 119,-130 119,-111 196,-111 196,-130"/>
<text text-anchor="middle" x="157.5" y="-118" font-family="Helvetica,sans-Serif" font-size="10.00">_hal_cplt_cb</text>
</a>
</g>
</g>
<!-- Node3&#45;&gt;Node4 -->
<g id="edge3_Node000003_Node000004" class="edge">
<title>Node3&#45;&gt;Node4</title>
<g id="a_edge3_Node000003_Node000004"><a xlink:title=" ">
<path fill="none" stroke="#63b8ff" d="M221.73,-120.5C212.85,-120.5 204.13,-120.5 196.12,-120.5"/>
<polygon fill="#63b8ff" stroke="#63b8ff" points="221.78,-124 231.78,-120.5 221.78,-117 221.78,-124"/>
</a>
</g>
</g>
<!-- Node5 -->
<g id="Node000005" class="node">
<title>Node5</title>
<g id="a_Node000005"><a xlink:href="hal__dma__stm32_8c.html#a203873983dd8e25dcf61692a31d21662" target="_top" xlink:title=" ">
<polygon fill="white" stroke="#666666" points="77,-149 6,-149 6,-130 77,-130 77,-149"/>
<text text-anchor="middle" x="41.5" y="-137" font-family="Helvetica,sans-Serif" font-size="10.00">_dma_start</text>
</a>
</g>
</g>
<!-- Node4&#45;&gt;Node5 -->
<g id="edge4_Node000004_Node000005" class="edge">
<title>Node4&#45;&gt;Node5</title>
<g id="a_edge4_Node000004_Node000005"><a xlink:title=" ">
<path fill="none" stroke="#63b8ff" d="M108.82,-128.45C98.15,-130.23 87.04,-132.08 77.02,-133.75"/>
<polygon fill="#63b8ff" stroke="#63b8ff" points="109.57,-131.87 118.86,-126.77 108.42,-124.97 109.57,-131.87"/>
</a>
</g>
</g>
<!-- Node6 -->
<g id="Node000006" class="node">
<title>Node6</title>
<g id="a_Node000006"><a xlink:href="hal__dma__stm32_8c.html#aff2b00b9ecd0e15a4db199aabddceda0" target="_top" xlink:title=" ">
<polygon fill="white" stroke="#666666" points="83,-112 0,-112 0,-93 83,-93 83,-112"/>
<text text-anchor="middle" x="41.5" y="-100" font-family="Helvetica,sans-Serif" font-size="10.00">_slave_config</text>
</a>
</g>
</g>
<!-- Node4&#45;&gt;Node6 -->
<g id="edge5_Node000004_Node000006" class="edge">
<title>Node4&#45;&gt;Node6</title>
<g id="a_edge5_Node000004_Node000006"><a xlink:title=" ">
<path fill="none" stroke="#63b8ff" d="M108.72,-112.96C100.25,-111.62 91.5,-110.24 83.24,-108.93"/>
<polygon fill="#63b8ff" stroke="#63b8ff" points="108.43,-116.45 118.86,-114.56 109.52,-109.54 108.43,-116.45"/>
</a>
</g>
</g>
<!-- Node8 -->
<g id="Node000008" class="node">
<title>Node8</title>
<g id="a_Node000008"><a xlink:href="drv__dma_8c.html#a83f402c36a8b0d09bbb1fdb25c35d677" target="_top" xlink:title=" ">
<polygon fill="white" stroke="#666666" points="353.5,-93 245.5,-93 245.5,-74 353.5,-74 353.5,-93"/>
<text text-anchor="middle" x="299.5" y="-81" font-family="Helvetica,sans-Serif" font-size="10.00">dma_release_chan</text>
</a>
</g>
</g>
<!-- Node7&#45;&gt;Node8 -->
<g id="edge7_Node000007_Node000008" class="edge">
<title>Node7&#45;&gt;Node8</title>
<g id="a_edge7_Node000007_Node000008"><a xlink:title=" ">
<path fill="none" stroke="#63b8ff" d="M395.16,-83.5C381.1,-83.5 366.8,-83.5 353.71,-83.5"/>
<polygon fill="#63b8ff" stroke="#63b8ff" points="395.33,-87 405.33,-83.5 395.33,-80 395.33,-87"/>
</a>
</g>
</g>
</g>
</svg>
