<?xml version="1.0" encoding="UTF-8" standalone="no"?>
<!DOCTYPE svg PUBLIC "-//W3C//DTD SVG 1.1//EN"
 "http://www.w3.org/Graphics/SVG/1.1/DTD/svg11.dtd">
<!-- Generated by graphviz version 2.43.0 (0)
 -->
<!-- Title: os_thread_create Pages: 1 -->
<svg width="559pt" height="140pt"
 viewBox="0.00 0.00 559.00 140.00" xmlns="http://www.w3.org/2000/svg" xmlns:xlink="http://www.w3.org/1999/xlink">
<g id="graph0" class="graph" transform="scale(1 1) rotate(0) translate(4 136)">
<title>os_thread_create</title>
<!-- Node1 -->
<g id="Node000001" class="node">
<title>Node1</title>
<g id="a_Node000001"><a xlink:title=" ">
<polygon fill="#999999" stroke="#666666" points="551,-75 450,-75 450,-56 551,-56 551,-75"/>
<text text-anchor="middle" x="500.5" y="-63" font-family="Helvetica,sans-Serif" font-size="10.00">os_thread_create</text>
</a>
</g>
</g>
<!-- Node2 -->
<g id="Node000002" class="node">
<title>Node2</title>
<g id="a_Node000002"><a xlink:href="gpio__mgmt_8c.html#a7beb78991c70b9fc3165c93ce5b7ff6b" target="_top" xlink:title=" ">
<polygon fill="white" stroke="#666666" points="404.5,-132 304.5,-132 304.5,-113 404.5,-113 404.5,-132"/>
<text text-anchor="middle" x="354.5" y="-120" font-family="Helvetica,sans-Serif" font-size="10.00">gpio_mgmt_start</text>
</a>
</g>
</g>
<!-- Node1&#45;&gt;Node2 -->
<g id="edge1_Node000001_Node000002" class="edge">
<title>Node1&#45;&gt;Node2</title>
<g id="a_edge1_Node000001_Node000002"><a xlink:title=" ">
<path fill="none" stroke="#63b8ff" d="M465.8,-78.84C439.39,-89.3 403.28,-103.59 379.68,-112.93"/>
<polygon fill="#63b8ff" stroke="#63b8ff" points="467.39,-81.98 475.4,-75.04 464.81,-75.47 467.39,-81.98"/>
</a>
</g>
</g>
<!-- Node3 -->
<g id="Node000003" class="node">
<title>Node3</title>
<g id="a_Node000003"><a xlink:href="kernel__service__core_8c.html#a77b96ca30dab7f5f8e84daae1ed8f183" target="_top" xlink:title=" ">
<polygon fill="white" stroke="#666666" points="259,-75 116,-75 116,-56 259,-56 259,-75"/>
<text text-anchor="middle" x="187.5" y="-63" font-family="Helvetica,sans-Serif" font-size="10.00">os_kernel_thread_register</text>
</a>
</g>
</g>
<!-- Node1&#45;&gt;Node3 -->
<g id="edge4_Node000001_Node000003" class="edge">
<title>Node1&#45;&gt;Node3</title>
<g id="a_edge4_Node000001_Node000003"><a xlink:title=" ">
<path fill="none" stroke="#63b8ff" d="M439.56,-65.5C387.99,-65.5 313.52,-65.5 259.07,-65.5"/>
<polygon fill="#63b8ff" stroke="#63b8ff" points="439.88,-69 449.88,-65.5 439.88,-62 439.88,-69"/>
</a>
</g>
</g>
<!-- Node5 -->
<g id="Node000005" class="node">
<title>Node5</title>
<g id="a_Node000005"><a xlink:href="os__shell__management_8c.html#a8fae79f71d15477bc1251891e977e46e" target="_top" xlink:title="Create and start the OS shell management task.">
<polygon fill="white" stroke="#666666" points="414,-56 295,-56 295,-37 414,-37 414,-56"/>
<text text-anchor="middle" x="354.5" y="-44" font-family="Helvetica,sans-Serif" font-size="10.00">os_shell_mgmt_start</text>
</a>
</g>
</g>
<!-- Node1&#45;&gt;Node5 -->
<g id="edge5_Node000001_Node000005" class="edge">
<title>Node1&#45;&gt;Node5</title>
<g id="a_edge5_Node000001_Node000005"><a xlink:title=" ">
<path fill="none" stroke="#63b8ff" d="M440.02,-57.65C431.45,-56.52 422.63,-55.36 414.08,-54.23"/>
<polygon fill="#63b8ff" stroke="#63b8ff" points="439.57,-61.12 449.94,-58.96 440.49,-54.18 439.57,-61.12"/>
</a>
</g>
</g>
<!-- Node6 -->
<g id="Node000006" class="node">
<title>Node6</title>
<g id="a_Node000006"><a xlink:href="uart__mgmt_8c.html#a8e8f570b41df4e77ed5acfbeaef25423" target="_top" xlink:title="Create and start the UART management thread.">
<polygon fill="white" stroke="#666666" points="403.5,-19 305.5,-19 305.5,0 403.5,0 403.5,-19"/>
<text text-anchor="middle" x="354.5" y="-7" font-family="Helvetica,sans-Serif" font-size="10.00">uart_mgmt_start</text>
</a>
</g>
</g>
<!-- Node1&#45;&gt;Node6 -->
<g id="edge7_Node000001_Node000006" class="edge">
<title>Node1&#45;&gt;Node6</title>
<g id="a_edge7_Node000001_Node000006"><a xlink:title=" ">
<path fill="none" stroke="#63b8ff" d="M469.47,-51.68C453.2,-44.4 432.67,-35.55 414,-28.5 405.21,-25.18 395.55,-21.9 386.66,-19.02"/>
<polygon fill="#63b8ff" stroke="#63b8ff" points="468.44,-55.05 478.99,-55.98 471.32,-48.67 468.44,-55.05"/>
</a>
</g>
</g>
<!-- Node2&#45;&gt;Node3 -->
<g id="edge2_Node000002_Node000003" class="edge">
<title>Node2&#45;&gt;Node3</title>
<g id="a_edge2_Node000002_Node000003"><a xlink:title=" ">
<path fill="none" stroke="#63b8ff" d="M316.08,-109.57C285.72,-99.08 243.6,-84.54 216.21,-75.07"/>
<polygon fill="#63b8ff" stroke="#63b8ff" points="315.29,-113 325.88,-112.96 317.57,-106.39 315.29,-113"/>
</a>
</g>
</g>
<!-- Node4 -->
<g id="Node000004" class="node">
<title>Node4</title>
<g id="a_Node000004"><a xlink:href="main_8c.html#ab1eba6ea917a2135efde6edb0de4baef" target="_top" xlink:title=" ">
<polygon fill="white" stroke="#666666" points="80,-75 0,-75 0,-56 80,-56 80,-75"/>
<text text-anchor="middle" x="40" y="-63" font-family="Helvetica,sans-Serif" font-size="10.00">__attribute__</text>
</a>
</g>
</g>
<!-- Node3&#45;&gt;Node4 -->
<g id="edge3_Node000003_Node000004" class="edge">
<title>Node3&#45;&gt;Node4</title>
<g id="a_edge3_Node000003_Node000004"><a xlink:title=" ">
<path fill="none" stroke="#63b8ff" d="M105.79,-65.5C96.9,-65.5 88.16,-65.5 80.12,-65.5"/>
<polygon fill="#63b8ff" stroke="#63b8ff" points="105.88,-69 115.88,-65.5 105.88,-62 105.88,-69"/>
</a>
</g>
</g>
<!-- Node5&#45;&gt;Node3 -->
<g id="edge6_Node000005_Node000003" class="edge">
<title>Node5&#45;&gt;Node3</title>
<g id="a_edge6_Node000005_Node000003"><a xlink:title=" ">
<path fill="none" stroke="#63b8ff" d="M284.67,-54.43C276.22,-55.4 267.57,-56.39 259.09,-57.37"/>
<polygon fill="#63b8ff" stroke="#63b8ff" points="285.33,-57.87 294.86,-53.25 284.53,-50.92 285.33,-57.87"/>
</a>
</g>
</g>
<!-- Node6&#45;&gt;Node3 -->
<g id="edge8_Node000006_Node000003" class="edge">
<title>Node6&#45;&gt;Node3</title>
<g id="a_edge8_Node000006_Node000003"><a xlink:title=" ">
<path fill="none" stroke="#63b8ff" d="M313.93,-22.23C307.59,-24.3 301.11,-26.45 295,-28.5 267.91,-37.6 237.08,-48.36 215.59,-55.92"/>
<polygon fill="#63b8ff" stroke="#63b8ff" points="315.28,-25.47 323.7,-19.05 313.11,-18.82 315.28,-25.47"/>
</a>
</g>
</g>
</g>
</svg>
