<?xml version="1.0" encoding="UTF-8" standalone="no"?>
<!DOCTYPE svg PUBLIC "-//W3C//DTD SVG 1.1//EN"
 "http://www.w3.org/Graphics/SVG/1.1/DTD/svg11.dtd">
<!-- Generated by graphviz version 2.43.0 (0)
 -->
<!-- Title: os_thread_list_get Pages: 1 -->
<svg width="666pt" height="27pt"
 viewBox="0.00 0.00 666.00 27.00" xmlns="http://www.w3.org/2000/svg" xmlns:xlink="http://www.w3.org/1999/xlink">
<g id="graph0" class="graph" transform="scale(1 1) rotate(0) translate(4 23)">
<title>os_thread_list_get</title>
<!-- Node1 -->
<g id="Node000001" class="node">
<title>Node1</title>
<g id="a_Node000001"><a xlink:title="Return the head sentinel of the intrusive thread list.">
<polygon fill="#999999" stroke="#666666" points="658,-19 552,-19 552,0 658,0 658,-19"/>
<text text-anchor="middle" x="605" y="-7" font-family="Helvetica,sans-Serif" font-size="10.00">os_thread_list_get</text>
</a>
</g>
</g>
<!-- Node2 -->
<g id="Node000002" class="node">
<title>Node2</title>
<g id="a_Node000002"><a xlink:href="kernel__service__task__manager_8c.html#a342acfaa98bdf03d21e1d9fca4edf719" target="_top" xlink:title=" ">
<polygon fill="white" stroke="#666666" points="516,-19 440,-19 440,0 516,0 516,-19"/>
<text text-anchor="middle" x="478" y="-7" font-family="Helvetica,sans-Serif" font-size="10.00">_scan_tasks</text>
</a>
</g>
</g>
<!-- Node1&#45;&gt;Node2 -->
<g id="edge1_Node000001_Node000002" class="edge">
<title>Node1&#45;&gt;Node2</title>
<g id="a_edge1_Node000001_Node000002"><a xlink:title=" ">
<path fill="none" stroke="#63b8ff" d="M541.58,-9.5C532.92,-9.5 524.26,-9.5 516.26,-9.5"/>
<polygon fill="#63b8ff" stroke="#63b8ff" points="541.71,-13 551.71,-9.5 541.71,-6 541.71,-13"/>
</a>
</g>
</g>
<!-- Node3 -->
<g id="Node000003" class="node">
<title>Node3</title>
<g id="a_Node000003"><a xlink:href="kernel__service__task__manager_8c.html#a2f2b4590ebd8517da5b7479999cb13af" target="_top" xlink:title=" ">
<polygon fill="white" stroke="#666666" points="404,-19 295,-19 295,0 404,0 404,-19"/>
<text text-anchor="middle" x="349.5" y="-7" font-family="Helvetica,sans-Serif" font-size="10.00">thread_task_mgmt</text>
</a>
</g>
</g>
<!-- Node2&#45;&gt;Node3 -->
<g id="edge2_Node000002_Node000003" class="edge">
<title>Node2&#45;&gt;Node3</title>
<g id="a_edge2_Node000002_Node000003"><a xlink:title=" ">
<path fill="none" stroke="#63b8ff" d="M429.57,-9.5C421.35,-9.5 412.75,-9.5 404.38,-9.5"/>
<polygon fill="#63b8ff" stroke="#63b8ff" points="429.73,-13 439.73,-9.5 429.73,-6 429.73,-13"/>
</a>
</g>
</g>
<!-- Node4 -->
<g id="Node000004" class="node">
<title>Node4</title>
<g id="a_Node000004"><a xlink:href="kernel__service__core_8c.html#a77b96ca30dab7f5f8e84daae1ed8f183" target="_top" xlink:title=" ">
<polygon fill="white" stroke="#666666" points="259,-19 116,-19 116,0 259,0 259,-19"/>
<text text-anchor="middle" x="187.5" y="-7" font-family="Helvetica,sans-Serif" font-size="10.00">os_kernel_thread_register</text>
</a>
</g>
</g>
<!-- Node3&#45;&gt;Node4 -->
<g id="edge3_Node000003_Node000004" class="edge">
<title>Node3&#45;&gt;Node4</title>
<g id="a_edge3_Node000003_Node000004"><a xlink:title=" ">
<path fill="none" stroke="#63b8ff" d="M284.68,-9.5C276.28,-9.5 267.64,-9.5 259.13,-9.5"/>
<polygon fill="#63b8ff" stroke="#63b8ff" points="284.78,-13 294.78,-9.5 284.78,-6 284.78,-13"/>
</a>
</g>
</g>
<!-- Node5 -->
<g id="Node000005" class="node">
<title>Node5</title>
<g id="a_Node000005"><a xlink:href="main_8c.html#ab1eba6ea917a2135efde6edb0de4baef" target="_top" xlink:title=" ">
<polygon fill="white" stroke="#666666" points="80,-19 0,-19 0,0 80,0 80,-19"/>
<text text-anchor="middle" x="40" y="-7" font-family="Helvetica,sans-Serif" font-size="10.00">__attribute__</text>
</a>
</g>
</g>
<!-- Node4&#45;&gt;Node5 -->
<g id="edge4_Node000004_Node000005" class="edge">
<title>Node4&#45;&gt;Node5</title>
<g id="a_edge4_Node000004_Node000005"><a xlink:title=" ">
<path fill="none" stroke="#63b8ff" d="M105.79,-9.5C96.9,-9.5 88.16,-9.5 80.12,-9.5"/>
<polygon fill="#63b8ff" stroke="#63b8ff" points="105.88,-13 115.88,-9.5 105.88,-6 105.88,-13"/>
</a>
</g>
</g>
</g>
</svg>
