<?xml version="1.0" encoding="UTF-8" standalone="no"?>
<!DOCTYPE svg PUBLIC "-//W3C//DTD SVG 1.1//EN"
 "http://www.w3.org/Graphics/SVG/1.1/DTD/svg11.dtd">
<!-- Generated by graphviz version 2.43.0 (0)
 -->
<!-- Title: list_add_tail Pages: 1 -->
<!--zoomable 212 -->

<svg id="main" version="1.1" xmlns="http://www.w3.org/2000/svg" xmlns:xlink="http://www.w3.org/1999/xlink" xml:space="preserve" onload="init(evt)">
<style type="text/css"><![CDATA[
.node, .edge {opacity: 0.7;}
.node.selected, .edge.selected {opacity: 1;}
.edge:hover path { stroke: red; }
.edge:hover polygon { stroke: red; fill: red; }
]]></style>

<defs>
  <circle id="rim" cx="0" cy="0" r="7"/>
  <circle id="rim2" cx="0" cy="0" r="3.5"/>
  <g id="zoomPlus">
    <use xlink:href="#rim" fill="#404040"><set attributeName="fill" to="#808080" begin="zoomplus.mouseover" end="zoomplus.mouseout"/></use>
    <path d="M-4,0h8M0,-4v8" fill="none" stroke="white" stroke-width="1.5" pointer-events="none"/>
  </g>
  <g id="zoomMin">
    <use xlink:href="#rim" fill="#404040"><set attributeName="fill" to="#808080" begin="zoomminus.mouseover" end="zoomminus.mouseout"/></use>
    <path d="M-4,0h8" fill="none" stroke="white" stroke-width="1.5" pointer-events="none"/>
  </g>
  <g id="arrowUp" transform="translate(30 24)">
    <use xlink:href="#rim"/>
    <path pointer-events="none" fill="none" stroke="white" stroke-width="1.5" d="M0,-3.0v7 M-2.5,-0.5L0,-3.0L2.5,-0.5"/>
  </g>
  <g id="arrowRight" transform="rotate(90) translate(36 -43)">
    <use xlink:href="#rim"/>
    <path pointer-events="none" fill="none" stroke="white" stroke-width="1.5" d="M0,-3.0v7 M-2.5,-0.5L0,-3.0L2.5,-0.5"/>
  </g>
  <g id="arrowDown" transform="rotate(180) translate(-30 -48)">
    <use xlink:href="#rim"/>
    <path pointer-events="none" fill="none" stroke="white" stroke-width="1.5" d="M0,-3.0v7 M-2.5,-0.5L0,-3.0L2.5,-0.5"/>
  </g>
  <g id="arrowLeft" transform="rotate(270) translate(-36 17)">
    <use xlink:href="#rim"/>
    <path pointer-events="none" fill="none" stroke="white" stroke-width="1.5" d="M0,-3.0v7 M-2.5,-0.5L0,-3.0L2.5,-0.5"/>
  </g>
  <g id="resetDef">
    <use xlink:href="#rim2" fill="#404040"><set attributeName="fill" to="#808080" begin="reset.mouseover" end="reset.mouseout"/></use>
  </g>
</defs>
<script type="application/ecmascript">
var viewWidth = 668;
var viewHeight = 212;
var sectionId = 'dynsection-3';
</script>
<script type="application/ecmascript" xlink:href="svg.min.js"/>
<svg id="graph" class="graph">
<g id="viewport">
<title>list_add_tail</title>
<!-- Node1 -->
<g id="Node000001" class="node">
<title>Node1</title>
<g id="a_Node000001"><a xlink:title="Add a new node at the tail of the list.">
<polygon fill="#999999" stroke="#666666" points="660,-130 584,-130 584,-111 660,-111 660,-130"/>
<text text-anchor="middle" x="622" y="-118" font-family="Helvetica,sans-Serif" font-size="10.00">list_add_tail</text>
</a>
</g>
</g>
<!-- Node2 -->
<g id="Node000002" class="node">
<title>Node2</title>
<g id="a_Node000002"><a xlink:href="kernel__thread_8c.html#a50c699f62ea35510879d318e5a956029" target="_top" xlink:title="A generic thread create api.">
<polygon fill="white" stroke="#666666" points="528.5,-204 448.5,-204 448.5,-185 528.5,-185 528.5,-204"/>
<text text-anchor="middle" x="488.5" y="-192" font-family="Helvetica,sans-Serif" font-size="10.00">__attribute__</text>
</a>
</g>
</g>
<!-- Node1&#45;&gt;Node2 -->
<g id="edge1_Node000001_Node000002" class="edge">
<title>Node1&#45;&gt;Node2</title>
<g id="a_edge1_Node000001_Node000002"><a xlink:title=" ">
<path fill="none" stroke="#63b8ff" d="M603.47,-136.85C589.4,-149.22 568.65,-165.84 548,-176.5 541.58,-179.81 534.44,-182.64 527.42,-185"/>
<polygon fill="#63b8ff" stroke="#63b8ff" points="605.84,-139.42 610.93,-130.13 601.16,-134.22 605.84,-139.42"/>
</a>
</g>
</g>
<!-- Node3 -->
<g id="Node000003" class="node">
<title>Node3</title>
<g id="a_Node000003"><a xlink:href="drv__dma_8c.html#a07ff6a90408aa434a89427323a523334" target="_top" xlink:title=" ">
<polygon fill="white" stroke="#666666" points="548,-167 429,-167 429,-148 548,-148 548,-167"/>
<text text-anchor="middle" x="488.5" y="-155" font-family="Helvetica,sans-Serif" font-size="10.00">dma_register_device</text>
</a>
</g>
</g>
<!-- Node1&#45;&gt;Node3 -->
<g id="edge2_Node000001_Node000003" class="edge">
<title>Node1&#45;&gt;Node3</title>
<g id="a_edge2_Node000001_Node000003"><a xlink:title=" ">
<path fill="none" stroke="#63b8ff" d="M577.19,-132.83C559.78,-137.73 540.04,-143.28 523.71,-147.88"/>
<polygon fill="#63b8ff" stroke="#63b8ff" points="578.46,-136.11 587.14,-130.03 576.56,-129.37 578.46,-136.11"/>
</a>
</g>
</g>
<!-- Node5 -->
<g id="Node000005" class="node">
<title>Node5</title>
<g id="a_Node000005"><a xlink:href="drv__dma_8c.html#a735ba435471da145df7fe16048f6b50b" target="_top" xlink:title=" ">
<polygon fill="white" stroke="#666666" points="543.5,-130 433.5,-130 433.5,-111 543.5,-111 543.5,-130"/>
<text text-anchor="middle" x="488.5" y="-118" font-family="Helvetica,sans-Serif" font-size="10.00">dmaengine_submit</text>
</a>
</g>
</g>
<!-- Node1&#45;&gt;Node5 -->
<g id="edge4_Node000001_Node000005" class="edge">
<title>Node1&#45;&gt;Node5</title>
<g id="a_edge4_Node000001_Node000005"><a xlink:title=" ">
<path fill="none" stroke="#63b8ff" d="M573.43,-120.5C563.75,-120.5 553.5,-120.5 543.61,-120.5"/>
<polygon fill="#63b8ff" stroke="#63b8ff" points="573.67,-124 583.67,-120.5 573.67,-117 573.67,-124"/>
</a>
</g>
</g>
<!-- Node6 -->
<g id="Node000006" class="node">
<title>Node6</title>
<g id="a_Node000006"><a xlink:href="mqueue_8c.html#a24352a9ab122f2913f5c92467d5bc676" target="_top" xlink:title=" ">
<polygon fill="white" stroke="#666666" points="548,-93 429,-93 429,-74 548,-74 548,-93"/>
<text text-anchor="middle" x="488.5" y="-81" font-family="Helvetica,sans-Serif" font-size="10.00">ipc_mqueue_register</text>
</a>
</g>
</g>
<!-- Node1&#45;&gt;Node6 -->
<g id="edge5_Node000001_Node000006" class="edge">
<title>Node1&#45;&gt;Node6</title>
<g id="a_edge5_Node000001_Node000006"><a xlink:title=" ">
<path fill="none" stroke="#63b8ff" d="M577.19,-108.17C559.78,-103.27 540.04,-97.72 523.71,-93.12"/>
<polygon fill="#63b8ff" stroke="#63b8ff" points="576.56,-111.63 587.14,-110.97 578.46,-104.89 576.56,-111.63"/>
</a>
</g>
</g>
<!-- Node9 -->
<g id="Node000009" class="node">
<title>Node9</title>
<g id="a_Node000009"><a xlink:href="irq__desc_8c.html#ab32b689bb2b7d1960aa47f19d9d65e90" target="_top" xlink:title=" ">
<polygon fill="white" stroke="#666666" points="524,-56 453,-56 453,-37 524,-37 524,-56"/>
<text text-anchor="middle" x="488.5" y="-44" font-family="Helvetica,sans-Serif" font-size="10.00">request_irq</text>
</a>
</g>
</g>
<!-- Node1&#45;&gt;Node9 -->
<g id="edge8_Node000001_Node000009" class="edge">
<title>Node1&#45;&gt;Node9</title>
<g id="a_edge8_Node000001_Node000009"><a xlink:title=" ">
<path fill="none" stroke="#63b8ff" d="M602.49,-103.79C588.39,-91.78 568.05,-75.93 548,-65.5 540.61,-61.65 532.29,-58.39 524.3,-55.71"/>
<polygon fill="#63b8ff" stroke="#63b8ff" points="600.56,-106.76 610.4,-110.69 605.16,-101.48 600.56,-106.76"/>
</a>
</g>
</g>
<!-- Node4 -->
<g id="Node000004" class="node">
<title>Node4</title>
<g id="a_Node000004"><a xlink:href="hal__dma__stm32_8c.html#abf0f458bc474fea788266124410803b5" target="_top" xlink:title=" ">
<polygon fill="white" stroke="#666666" points="393,-167 277,-167 277,-148 393,-148 393,-167"/>
<text text-anchor="middle" x="335" y="-155" font-family="Helvetica,sans-Serif" font-size="10.00">hal_dma_stm32_init</text>
</a>
</g>
</g>
<!-- Node3&#45;&gt;Node4 -->
<g id="edge3_Node000003_Node000004" class="edge">
<title>Node3&#45;&gt;Node4</title>
<g id="a_edge3_Node000003_Node000004"><a xlink:title=" ">
<path fill="none" stroke="#63b8ff" d="M418.7,-157.5C410.25,-157.5 401.68,-157.5 393.42,-157.5"/>
<polygon fill="#63b8ff" stroke="#63b8ff" points="418.93,-161 428.93,-157.5 418.93,-154 418.93,-161"/>
</a>
</g>
</g>
<!-- Node7 -->
<g id="Node000007" class="node">
<title>Node7</title>
<g id="a_Node000007"><a xlink:href="main_8c.html#aa675774b79cc01e2a386c7caf4fbdf03" target="_top" xlink:title=" ">
<polygon fill="white" stroke="#666666" points="381,-93 289,-93 289,-74 381,-74 381,-93"/>
<text text-anchor="middle" x="335" y="-81" font-family="Helvetica,sans-Serif" font-size="10.00">ipc_queues_init</text>
</a>
</g>
</g>
<!-- Node6&#45;&gt;Node7 -->
<g id="edge6_Node000006_Node000007" class="edge">
<title>Node6&#45;&gt;Node7</title>
<g id="a_edge6_Node000006_Node000007"><a xlink:title=" ">
<path fill="none" stroke="#63b8ff" d="M418.8,-83.5C406.07,-83.5 393.07,-83.5 381.26,-83.5"/>
<polygon fill="#63b8ff" stroke="#63b8ff" points="418.93,-87 428.93,-83.5 418.93,-80 418.93,-87"/>
</a>
</g>
</g>
<!-- Node8 -->
<g id="Node000008" class="node">
<title>Node8</title>
<g id="a_Node000008"><a xlink:href="main_8c.html#ab1eba6ea917a2135efde6edb0de4baef" target="_top" xlink:title=" ">
<polygon fill="white" stroke="#666666" points="227.5,-93 147.5,-93 147.5,-74 227.5,-74 227.5,-93"/>
<text text-anchor="middle" x="187.5" y="-81" font-family="Helvetica,sans-Serif" font-size="10.00">__attribute__</text>
</a>
</g>
</g>
<!-- Node7&#45;&gt;Node8 -->
<g id="edge7_Node000007_Node000008" class="edge">
<title>Node7&#45;&gt;Node8</title>
<g id="a_edge7_Node000007_Node000008"><a xlink:title=" ">
<path fill="none" stroke="#63b8ff" d="M278.46,-83.5C261.58,-83.5 243.39,-83.5 227.81,-83.5"/>
<polygon fill="#63b8ff" stroke="#63b8ff" points="278.76,-87 288.76,-83.5 278.76,-80 278.76,-87"/>
</a>
</g>
</g>
<!-- Node10 -->
<g id="Node000010" class="node">
<title>Node10</title>
<g id="a_Node000010"><a xlink:href="irq__notify_8c.html#a88ce0c4278f16ca232b715dff43ec969" target="_top" xlink:title="Register a callback for a generic IRQ ID. Call from task context before interrupts fire....">
<polygon fill="white" stroke="#666666" points="371,-56 299,-56 299,-37 371,-37 371,-56"/>
<text text-anchor="middle" x="335" y="-44" font-family="Helvetica,sans-Serif" font-size="10.00">irq_register</text>
</a>
</g>
</g>
<!-- Node9&#45;&gt;Node10 -->
<g id="edge9_Node000009_Node000010" class="edge">
<title>Node9&#45;&gt;Node10</title>
<g id="a_edge9_Node000009_Node000010"><a xlink:title=" ">
<path fill="none" stroke="#63b8ff" d="M442.6,-46.5C419.76,-46.5 392.4,-46.5 371.12,-46.5"/>
<polygon fill="#63b8ff" stroke="#63b8ff" points="442.74,-50 452.74,-46.5 442.74,-43 442.74,-50"/>
</a>
</g>
</g>
<!-- Node11 -->
<g id="Node000011" class="node">
<title>Node11</title>
<g id="a_Node000011"><a xlink:href="drv__irq_8c.html#aa6d6a8b2c4fbd552e34f19094702effa" target="_top" xlink:title="Register a callback for a software IRQ ID. Thin wrapper over irq_register() — upper layers include on...">
<polygon fill="white" stroke="#666666" points="234,-56 141,-56 141,-37 234,-37 234,-56"/>
<text text-anchor="middle" x="187.5" y="-44" font-family="Helvetica,sans-Serif" font-size="10.00">drv_irq_register</text>
</a>
</g>
</g>
<!-- Node10&#45;&gt;Node11 -->
<g id="edge10_Node000010_Node000011" class="edge">
<title>Node10&#45;&gt;Node11</title>
<g id="a_edge10_Node000010_Node000011"><a xlink:title=" ">
<path fill="none" stroke="#63b8ff" d="M288.37,-46.5C271.08,-46.5 251.42,-46.5 234.13,-46.5"/>
<polygon fill="#63b8ff" stroke="#63b8ff" points="288.78,-50 298.78,-46.5 288.78,-43 288.78,-50"/>
</a>
</g>
</g>
<!-- Node12 -->
<g id="Node000012" class="node">
<title>Node12</title>
<g id="a_Node000012"><a xlink:href="uart__mgmt_8c.html#af8eff33b840c2e11d5bd889fd97c705a" target="_top" xlink:title=" ">
<polygon fill="white" stroke="#666666" points="241,-19 134,-19 134,0 241,0 241,-19"/>
<text text-anchor="middle" x="187.5" y="-7" font-family="Helvetica,sans-Serif" font-size="10.00">uart_mgmt_thread</text>
</a>
</g>
</g>
<!-- Node10&#45;&gt;Node12 -->
<g id="edge11_Node000010_Node000012" class="edge">
<title>Node10&#45;&gt;Node12</title>
<g id="a_edge11_Node000010_Node000012"><a xlink:title=" ">
<path fill="none" stroke="#63b8ff" d="M288.86,-35.02C268.67,-29.89 245.14,-23.9 225.94,-19.02"/>
<polygon fill="#63b8ff" stroke="#63b8ff" points="288.22,-38.47 298.78,-37.54 289.95,-31.69 288.22,-38.47"/>
</a>
</g>
</g>
<!-- Node13 -->
<g id="Node000013" class="node">
<title>Node13</title>
<g id="a_Node000013"><a xlink:href="uart__mgmt_8c.html#a8e8f570b41df4e77ed5acfbeaef25423" target="_top" xlink:title="Create and start the UART management thread.">
<polygon fill="#fff0f0" stroke="red" points="98,-19 0,-19 0,0 98,0 98,-19"/>
<text text-anchor="middle" x="49" y="-7" font-family="Helvetica,sans-Serif" font-size="10.00">uart_mgmt_start</text>
</a>
</g>
</g>
<!-- Node12&#45;&gt;Node13 -->
<g id="edge12_Node000012_Node000013" class="edge">
<title>Node12&#45;&gt;Node13</title>
<g id="a_edge12_Node000012_Node000013"><a xlink:title=" ">
<path fill="none" stroke="#63b8ff" d="M123.45,-9.5C114.96,-9.5 106.35,-9.5 98.17,-9.5"/>
<polygon fill="#63b8ff" stroke="#63b8ff" points="123.73,-13 133.73,-9.5 123.73,-6 123.73,-13"/>
</a>
</g>
</g>
</g>
</svg>

<g id="navigator" transform="translate(0 0)" fill="#404254">
  <rect fill="#f2f5e9" fill-opacity="0.5" stroke="#606060" stroke-width=".5" x="0" y="0" width="60" height="60"/>
  <use id="zoomplus" xlink:href="#zoomPlus" x="17" y="9" onmousedown="handleZoom(evt,'in')"/>
  <use id="zoomminus" xlink:href="#zoomMin" x="42" y="9" onmousedown="handleZoom(evt,'out')"/>
  <use id="reset" xlink:href="#resetDef" x="30" y="36" onmousedown="handleReset()"/>
   <use id="arrowup" xlink:href="#arrowUp" x="0" y="0" onmousedown="handlePan(0,-1)"/>
  <use id="arrowright" xlink:href="#arrowRight" x="0" y="0" onmousedown="handlePan(1,0)"/>
  <use id="arrowdown" xlink:href="#arrowDown" x="0" y="0" onmousedown="handlePan(0,1)"/>
  <use id="arrowleft" xlink:href="#arrowLeft" x="0" y="0" onmousedown="handlePan(-1,0)"/>
</g>
<svg viewBox="0 0 15 15" width="100%" height="30px" preserveAspectRatio="xMaxYMin meet">
 <g id="arrow_out" transform="scale(0.3 0.3)">
  <a xlink:href="group__list__api_gafb58231c241f9acee99a56aaa1b98cec_icgraph_org.svg" target="_base">
   <rect id="button" ry="5" rx="5" y="6" x="6" height="38" width="38"
        fill="#f2f5e9" fill-opacity="0.5" stroke="#606060" stroke-width="1.0"/>
   <path id="arrow"
     d="M 11.500037,31.436501 C 11.940474,20.09759 22.043105,11.32322 32.158766,21.979434 L 37.068811,17.246167 C 37.068811,17.246167 37.088388,32 37.088388,32 L 22.160133,31.978069 C 22.160133,31.978069 26.997745,27.140456 26.997745,27.140456 C 18.528582,18.264221 13.291696,25.230495 11.500037,31.436501 z"
     style="fill:#404040;"/>
  </a>
 </g>
</svg>

<style type='text/css'>
<![CDATA[
[data-mouse-over-selected='false'] { opacity: 0.7; }
[data-mouse-over-selected='true']  { opacity: 1.0; }
]]>
</style>
<script type="application/ecmascript"><![CDATA[
document.addEventListener('DOMContentLoaded', (event) => {
  highlightEdges();
  highlightAdjacentNodes();
});
]]></script>
</svg>
