<?xml version="1.0" encoding="UTF-8" standalone="no"?>
<!DOCTYPE svg PUBLIC "-//W3C//DTD SVG 1.1//EN"
 "http://www.w3.org/Graphics/SVG/1.1/DTD/svg11.dtd">
<!-- Generated by graphviz version 2.43.0 (0)
 -->
<!-- Title: os_thread_create Pages: 1 -->
<!--zoomable 140 -->

<svg id="main" version="1.1" xmlns="http://www.w3.org/2000/svg" xmlns:xlink="http://www.w3.org/1999/xlink" xml:space="preserve" onload="init(evt)">
<style type="text/css"><![CDATA[
.node, .edge {opacity: 0.7;}
.node.selected, .edge.selected {opacity: 1;}
.edge:hover path { stroke: red; }
.edge:hover polygon { stroke: red; fill: red; }
]]></style>

<defs>
  <circle id="rim" cx="0" cy="0" r="7"/>
  <circle id="rim2" cx="0" cy="0" r="3.5"/>
  <g id="zoomPlus">
    <use xlink:href="#rim" fill="#404040"><set attributeName="fill" to="#808080" begin="zoomplus.mouseover" end="zoomplus.mouseout"/></use>
    <path d="M-4,0h8M0,-4v8" fill="none" stroke="white" stroke-width="1.5" pointer-events="none"/>
  </g>
  <g id="zoomMin">
    <use xlink:href="#rim" fill="#404040"><set attributeName="fill" to="#808080" begin="zoomminus.mouseover" end="zoomminus.mouseout"/></use>
    <path d="M-4,0h8" fill="none" stroke="white" stroke-width="1.5" pointer-events="none"/>
  </g>
  <g id="arrowUp" transform="translate(30 24)">
    <use xlink:href="#rim"/>
    <path pointer-events="none" fill="none" stroke="white" stroke-width="1.5" d="M0,-3.0v7 M-2.5,-0.5L0,-3.0L2.5,-0.5"/>
  </g>
  <g id="arrowRight" transform="rotate(90) translate(36 -43)">
    <use xlink:href="#rim"/>
    <path pointer-events="none" fill="none" stroke="white" stroke-width="1.5" d="M0,-3.0v7 M-2.5,-0.5L0,-3.0L2.5,-0.5"/>
  </g>
  <g id="arrowDown" transform="rotate(180) translate(-30 -48)">
    <use xlink:href="#rim"/>
    <path pointer-events="none" fill="none" stroke="white" stroke-width="1.5" d="M0,-3.0v7 M-2.5,-0.5L0,-3.0L2.5,-0.5"/>
  </g>
  <g id="arrowLeft" transform="rotate(270) translate(-36 17)">
    <use xlink:href="#rim"/>
    <path pointer-events="none" fill="none" stroke="white" stroke-width="1.5" d="M0,-3.0v7 M-2.5,-0.5L0,-3.0L2.5,-0.5"/>
  </g>
  <g id="resetDef">
    <use xlink:href="#rim2" fill="#404040"><set attributeName="fill" to="#808080" begin="reset.mouseover" end="reset.mouseout"/></use>
  </g>
</defs>
<script type="application/ecmascript">
var viewWidth = 559;
var viewHeight = 140;
var sectionId = 'dynsection-0';
</script>
<script type="application/ecmascript" xlink:href="svg.min.js"/>
<svg id="graph" class="graph">
<g id="viewport">
<title>os_thread_create</title>
<!-- Node1 -->
<g id="Node000001" class="node">
<title>Node1</title>
<g id="a_Node000001"><a xlink:title=" ">
<polygon fill="#999999" stroke="#666666" points="551,-75 450,-75 450,-56 551,-56 551,-75"/>
<text text-anchor="middle" x="500.5" y="-63" font-family="Helvetica,sans-Serif" font-size="10.00">os_thread_create</text>
</a>
</g>
</g>
<!-- Node2 -->
<g id="Node000002" class="node">
<title>Node2</title>
<g id="a_Node000002"><a xlink:href="gpio__mgmt_8c.html#a7beb78991c70b9fc3165c93ce5b7ff6b" target="_top" xlink:title=" ">
<polygon fill="white" stroke="#666666" points="404.5,-132 304.5,-132 304.5,-113 404.5,-113 404.5,-132"/>
<text text-anchor="middle" x="354.5" y="-120" font-family="Helvetica,sans-Serif" font-size="10.00">gpio_mgmt_start</text>
</a>
</g>
</g>
<!-- Node1&#45;&gt;Node2 -->
<g id="edge1_Node000001_Node000002" class="edge">
<title>Node1&#45;&gt;Node2</title>
<g id="a_edge1_Node000001_Node000002"><a xlink:title=" ">
<path fill="none" stroke="#63b8ff" d="M465.8,-78.84C439.39,-89.3 403.28,-103.59 379.68,-112.93"/>
<polygon fill="#63b8ff" stroke="#63b8ff" points="467.39,-81.98 475.4,-75.04 464.81,-75.47 467.39,-81.98"/>
</a>
</g>
</g>
<!-- Node3 -->
<g id="Node000003" class="node">
<title>Node3</title>
<g id="a_Node000003"><a xlink:href="kernel__service__core_8c.html#a77b96ca30dab7f5f8e84daae1ed8f183" target="_top" xlink:title=" ">
<polygon fill="white" stroke="#666666" points="259,-75 116,-75 116,-56 259,-56 259,-75"/>
<text text-anchor="middle" x="187.5" y="-63" font-family="Helvetica,sans-Serif" font-size="10.00">os_kernel_thread_register</text>
</a>
</g>
</g>
<!-- Node1&#45;&gt;Node3 -->
<g id="edge4_Node000001_Node000003" class="edge">
<title>Node1&#45;&gt;Node3</title>
<g id="a_edge4_Node000001_Node000003"><a xlink:title=" ">
<path fill="none" stroke="#63b8ff" d="M439.56,-65.5C387.99,-65.5 313.52,-65.5 259.07,-65.5"/>
<polygon fill="#63b8ff" stroke="#63b8ff" points="439.88,-69 449.88,-65.5 439.88,-62 439.88,-69"/>
</a>
</g>
</g>
<!-- Node5 -->
<g id="Node000005" class="node">
<title>Node5</title>
<g id="a_Node000005"><a xlink:href="os__shell__management_8c.html#a8fae79f71d15477bc1251891e977e46e" target="_top" xlink:title="Create and start the OS shell management task.">
<polygon fill="white" stroke="#666666" points="414,-56 295,-56 295,-37 414,-37 414,-56"/>
<text text-anchor="middle" x="354.5" y="-44" font-family="Helvetica,sans-Serif" font-size="10.00">os_shell_mgmt_start</text>
</a>
</g>
</g>
<!-- Node1&#45;&gt;Node5 -->
<g id="edge5_Node000001_Node000005" class="edge">
<title>Node1&#45;&gt;Node5</title>
<g id="a_edge5_Node000001_Node000005"><a xlink:title=" ">
<path fill="none" stroke="#63b8ff" d="M440.02,-57.65C431.45,-56.52 422.63,-55.36 414.08,-54.23"/>
<polygon fill="#63b8ff" stroke="#63b8ff" points="439.57,-61.12 449.94,-58.96 440.49,-54.18 439.57,-61.12"/>
</a>
</g>
</g>
<!-- Node6 -->
<g id="Node000006" class="node">
<title>Node6</title>
<g id="a_Node000006"><a xlink:href="uart__mgmt_8c.html#a8e8f570b41df4e77ed5acfbeaef25423" target="_top" xlink:title="Create and start the UART management thread.">
<polygon fill="white" stroke="#666666" points="403.5,-19 305.5,-19 305.5,0 403.5,0 403.5,-19"/>
<text text-anchor="middle" x="354.5" y="-7" font-family="Helvetica,sans-Serif" font-size="10.00">uart_mgmt_start</text>
</a>
</g>
</g>
<!-- Node1&#45;&gt;Node6 -->
<g id="edge7_Node000001_Node000006" class="edge">
<title>Node1&#45;&gt;Node6</title>
<g id="a_edge7_Node000001_Node000006"><a xlink:title=" ">
<path fill="none" stroke="#63b8ff" d="M469.47,-51.68C453.2,-44.4 432.67,-35.55 414,-28.5 405.21,-25.18 395.55,-21.9 386.66,-19.02"/>
<polygon fill="#63b8ff" stroke="#63b8ff" points="468.44,-55.05 478.99,-55.98 471.32,-48.67 468.44,-55.05"/>
</a>
</g>
</g>
<!-- Node2&#45;&gt;Node3 -->
<g id="edge2_Node000002_Node000003" class="edge">
<title>Node2&#45;&gt;Node3</title>
<g id="a_edge2_Node000002_Node000003"><a xlink:title=" ">
<path fill="none" stroke="#63b8ff" d="M316.08,-109.57C285.72,-99.08 243.6,-84.54 216.21,-75.07"/>
<polygon fill="#63b8ff" stroke="#63b8ff" points="315.29,-113 325.88,-112.96 317.57,-106.39 315.29,-113"/>
</a>
</g>
</g>
<!-- Node4 -->
<g id="Node000004" class="node">
<title>Node4</title>
<g id="a_Node000004"><a xlink:href="main_8c.html#ab1eba6ea917a2135efde6edb0de4baef" target="_top" xlink:title=" ">
<polygon fill="white" stroke="#666666" points="80,-75 0,-75 0,-56 80,-56 80,-75"/>
<text text-anchor="middle" x="40" y="-63" font-family="Helvetica,sans-Serif" font-size="10.00">__attribute__</text>
</a>
</g>
</g>
<!-- Node3&#45;&gt;Node4 -->
<g id="edge3_Node000003_Node000004" class="edge">
<title>Node3&#45;&gt;Node4</title>
<g id="a_edge3_Node000003_Node000004"><a xlink:title=" ">
<path fill="none" stroke="#63b8ff" d="M105.79,-65.5C96.9,-65.5 88.16,-65.5 80.12,-65.5"/>
<polygon fill="#63b8ff" stroke="#63b8ff" points="105.88,-69 115.88,-65.5 105.88,-62 105.88,-69"/>
</a>
</g>
</g>
<!-- Node5&#45;&gt;Node3 -->
<g id="edge6_Node000005_Node000003" class="edge">
<title>Node5&#45;&gt;Node3</title>
<g id="a_edge6_Node000005_Node000003"><a xlink:title=" ">
<path fill="none" stroke="#63b8ff" d="M284.67,-54.43C276.22,-55.4 267.57,-56.39 259.09,-57.37"/>
<polygon fill="#63b8ff" stroke="#63b8ff" points="285.33,-57.87 294.86,-53.25 284.53,-50.92 285.33,-57.87"/>
</a>
</g>
</g>
<!-- Node6&#45;&gt;Node3 -->
<g id="edge8_Node000006_Node000003" class="edge">
<title>Node6&#45;&gt;Node3</title>
<g id="a_edge8_Node000006_Node000003"><a xlink:title=" ">
<path fill="none" stroke="#63b8ff" d="M313.93,-22.23C307.59,-24.3 301.11,-26.45 295,-28.5 267.91,-37.6 237.08,-48.36 215.59,-55.92"/>
<polygon fill="#63b8ff" stroke="#63b8ff" points="315.28,-25.47 323.7,-19.05 313.11,-18.82 315.28,-25.47"/>
</a>
</g>
</g>
</g>
</svg>

<g id="navigator" transform="translate(0 0)" fill="#404254">
  <rect fill="#f2f5e9" fill-opacity="0.5" stroke="#606060" stroke-width=".5" x="0" y="0" width="60" height="60"/>
  <use id="zoomplus" xlink:href="#zoomPlus" x="17" y="9" onmousedown="handleZoom(evt,'in')"/>
  <use id="zoomminus" xlink:href="#zoomMin" x="42" y="9" onmousedown="handleZoom(evt,'out')"/>
  <use id="reset" xlink:href="#resetDef" x="30" y="36" onmousedown="handleReset()"/>
   <use id="arrowup" xlink:href="#arrowUp" x="0" y="0" onmousedown="handlePan(0,-1)"/>
  <use id="arrowright" xlink:href="#arrowRight" x="0" y="0" onmousedown="handlePan(1,0)"/>
  <use id="arrowdown" xlink:href="#arrowDown" x="0" y="0" onmousedown="handlePan(0,1)"/>
  <use id="arrowleft" xlink:href="#arrowLeft" x="0" y="0" onmousedown="handlePan(-1,0)"/>
</g>
<svg viewBox="0 0 15 15" width="100%" height="30px" preserveAspectRatio="xMaxYMin meet">
 <g id="arrow_out" transform="scale(0.3 0.3)">
  <a xlink:href="group__Thread_ga21ff81ef0bcb5564ba8ee6c5a0da2acc_icgraph_org.svg" target="_base">
   <rect id="button" ry="5" rx="5" y="6" x="6" height="38" width="38"
        fill="#f2f5e9" fill-opacity="0.5" stroke="#606060" stroke-width="1.0"/>
   <path id="arrow"
     d="M 11.500037,31.436501 C 11.940474,20.09759 22.043105,11.32322 32.158766,21.979434 L 37.068811,17.246167 C 37.068811,17.246167 37.088388,32 37.088388,32 L 22.160133,31.978069 C 22.160133,31.978069 26.997745,27.140456 26.997745,27.140456 C 18.528582,18.264221 13.291696,25.230495 11.500037,31.436501 z"
     style="fill:#404040;"/>
  </a>
 </g>
</svg>

<style type='text/css'>
<![CDATA[
[data-mouse-over-selected='false'] { opacity: 0.7; }
[data-mouse-over-selected='true']  { opacity: 1.0; }
]]>
</style>
<script type="application/ecmascript"><![CDATA[
document.addEventListener('DOMContentLoaded', (event) => {
  highlightEdges();
  highlightAdjacentNodes();
});
]]></script>
</svg>
