<?xml version="1.0" encoding="UTF-8" standalone="no"?>
<!DOCTYPE svg PUBLIC "-//W3C//DTD SVG 1.1//EN"
 "http://www.w3.org/Graphics/SVG/1.1/DTD/svg11.dtd">
<!-- Generated by graphviz version 2.43.0 (0)
 -->
<!-- Title: list_init Pages: 1 -->
<svg width="581pt" height="119pt"
 viewBox="0.00 0.00 581.00 119.00" xmlns="http://www.w3.org/2000/svg" xmlns:xlink="http://www.w3.org/1999/xlink">
<g id="graph0" class="graph" transform="scale(1 1) rotate(0) translate(4 115)">
<title>list_init</title>
<!-- Node1 -->
<g id="Node000001" class="node">
<title>Node1</title>
<g id="a_Node000001"><a xlink:title="Initialize a list node [ Doubly circular].">
<polygon fill="#999999" stroke="#666666" points="573,-56 520,-56 520,-37 573,-37 573,-56"/>
<text text-anchor="middle" x="546.5" y="-44" font-family="Helvetica,sans-Serif" font-size="10.00">list_init</text>
</a>
</g>
</g>
<!-- Node2 -->
<g id="Node000002" class="node">
<title>Node2</title>
<g id="a_Node000002"><a xlink:href="irq__desc_8c.html#a0041385040c05835d54aca9c83340f87" target="_top" xlink:title=" ">
<polygon fill="white" stroke="#666666" points="475.5,-93 395.5,-93 395.5,-74 475.5,-74 475.5,-93"/>
<text text-anchor="middle" x="435.5" y="-81" font-family="Helvetica,sans-Serif" font-size="10.00">_alloc_action</text>
</a>
</g>
</g>
<!-- Node1&#45;&gt;Node2 -->
<g id="edge1_Node000001_Node000002" class="edge">
<title>Node1&#45;&gt;Node2</title>
<g id="a_edge1_Node000001_Node000002"><a xlink:title=" ">
<path fill="none" stroke="#63b8ff" d="M510.13,-58.51C495.37,-63.52 478.46,-69.26 464.57,-73.97"/>
<polygon fill="#63b8ff" stroke="#63b8ff" points="511.6,-61.7 519.94,-55.17 509.35,-55.08 511.6,-61.7"/>
</a>
</g>
</g>
<!-- Node10 -->
<g id="Node000010" class="node">
<title>Node10</title>
<g id="a_Node000010"><a xlink:href="mqueue_8c.html#a873322f98cefc36f436c51802b74c9b4" target="_top" xlink:title=" ">
<polygon fill="white" stroke="#666666" points="484,-56 387,-56 387,-37 484,-37 484,-56"/>
<text text-anchor="middle" x="435.5" y="-44" font-family="Helvetica,sans-Serif" font-size="10.00">ipc_mqueue_init</text>
</a>
</g>
</g>
<!-- Node1&#45;&gt;Node10 -->
<g id="edge6_Node000001_Node000010" class="edge">
<title>Node1&#45;&gt;Node10</title>
<g id="a_edge6_Node000001_Node000010"><a xlink:title=" ">
<path fill="none" stroke="#63b8ff" d="M509.93,-46.5C501.69,-46.5 492.8,-46.5 484.14,-46.5"/>
<polygon fill="#63b8ff" stroke="#63b8ff" points="509.94,-50 519.94,-46.5 509.94,-43 509.94,-50"/>
</a>
</g>
</g>
<!-- Node12 -->
<g id="Node000012" class="node">
<title>Node12</title>
<g id="a_Node000012"><a xlink:href="irq__desc_8c.html#a6f6124af8d1d870a3f18c7df5151f638" target="_top" xlink:title=" ">
<polygon fill="white" stroke="#666666" points="483,-19 388,-19 388,0 483,0 483,-19"/>
<text text-anchor="middle" x="435.5" y="-7" font-family="Helvetica,sans-Serif" font-size="10.00">irq_desc_init_all</text>
</a>
</g>
</g>
<!-- Node1&#45;&gt;Node12 -->
<g id="edge9_Node000001_Node000012" class="edge">
<title>Node1&#45;&gt;Node12</title>
<g id="a_edge9_Node000001_Node000012"><a xlink:title=" ">
<path fill="none" stroke="#63b8ff" d="M510.13,-34.49C495.37,-29.48 478.46,-23.74 464.57,-19.03"/>
<polygon fill="#63b8ff" stroke="#63b8ff" points="509.35,-37.92 519.94,-37.83 511.6,-31.3 509.35,-37.92"/>
</a>
</g>
</g>
<!-- Node3 -->
<g id="Node000003" class="node">
<title>Node3</title>
<g id="a_Node000003"><a xlink:href="irq__desc_8c.html#ab32b689bb2b7d1960aa47f19d9d65e90" target="_top" xlink:title=" ">
<polygon fill="white" stroke="#666666" points="340.5,-93 269.5,-93 269.5,-74 340.5,-74 340.5,-93"/>
<text text-anchor="middle" x="305" y="-81" font-family="Helvetica,sans-Serif" font-size="10.00">request_irq</text>
</a>
</g>
</g>
<!-- Node2&#45;&gt;Node3 -->
<g id="edge2_Node000002_Node000003" class="edge">
<title>Node2&#45;&gt;Node3</title>
<g id="a_edge2_Node000002_Node000003"><a xlink:title=" ">
<path fill="none" stroke="#63b8ff" d="M385.19,-83.5C370.33,-83.5 354.35,-83.5 340.66,-83.5"/>
<polygon fill="#63b8ff" stroke="#63b8ff" points="385.25,-87 395.25,-83.5 385.25,-80 385.25,-87"/>
</a>
</g>
</g>
<!-- Node4 -->
<g id="Node000004" class="node">
<title>Node4</title>
<g id="a_Node000004"><a xlink:href="irq__notify_8c.html#a88ce0c4278f16ca232b715dff43ec969" target="_top" xlink:title="Register a callback for a generic IRQ ID. Call from task context before interrupts fire....">
<polygon fill="white" stroke="#666666" points="219,-93 147,-93 147,-74 219,-74 219,-93"/>
<text text-anchor="middle" x="183" y="-81" font-family="Helvetica,sans-Serif" font-size="10.00">irq_register</text>
</a>
</g>
</g>
<!-- Node3&#45;&gt;Node4 -->
<g id="edge3_Node000003_Node000004" class="edge">
<title>Node3&#45;&gt;Node4</title>
<g id="a_edge3_Node000003_Node000004"><a xlink:title=" ">
<path fill="none" stroke="#63b8ff" d="M258.98,-83.5C245.77,-83.5 231.53,-83.5 219.05,-83.5"/>
<polygon fill="#63b8ff" stroke="#63b8ff" points="259.29,-87 269.29,-83.5 259.29,-80 259.29,-87"/>
</a>
</g>
</g>
<!-- Node5 -->
<g id="Node000005" class="node">
<title>Node5</title>
<g id="a_Node000005"><a xlink:href="drv__irq_8c.html#aa6d6a8b2c4fbd552e34f19094702effa" target="_top" xlink:title="Register a callback for a software IRQ ID. Thin wrapper over irq_register() — upper layers include on...">
<polygon fill="white" stroke="#666666" points="100,-111 7,-111 7,-92 100,-92 100,-111"/>
<text text-anchor="middle" x="53.5" y="-99" font-family="Helvetica,sans-Serif" font-size="10.00">drv_irq_register</text>
</a>
</g>
</g>
<!-- Node4&#45;&gt;Node5 -->
<g id="edge4_Node000004_Node000005" class="edge">
<title>Node4&#45;&gt;Node5</title>
<g id="a_edge4_Node000004_Node000005"><a xlink:title=" ">
<path fill="none" stroke="#63b8ff" d="M136.67,-89.9C124.79,-91.58 111.98,-93.39 100.08,-95.06"/>
<polygon fill="#63b8ff" stroke="#63b8ff" points="137.41,-93.33 146.82,-88.47 136.43,-86.4 137.41,-93.33"/>
</a>
</g>
</g>
<!-- Node6 -->
<g id="Node000006" class="node">
<title>Node6</title>
<g id="a_Node000006"><a xlink:href="uart__mgmt_8c.html#af8eff33b840c2e11d5bd889fd97c705a" target="_top" xlink:title=" ">
<polygon fill="#fff0f0" stroke="red" points="107,-74 0,-74 0,-55 107,-55 107,-74"/>
<text text-anchor="middle" x="53.5" y="-62" font-family="Helvetica,sans-Serif" font-size="10.00">uart_mgmt_thread</text>
</a>
</g>
</g>
<!-- Node4&#45;&gt;Node6 -->
<g id="edge5_Node000004_Node000006" class="edge">
<title>Node4&#45;&gt;Node6</title>
<g id="a_edge5_Node000004_Node000006"><a xlink:title=" ">
<path fill="none" stroke="#63b8ff" d="M136.74,-76.76C127.19,-75.33 117.04,-73.82 107.24,-72.36"/>
<polygon fill="#63b8ff" stroke="#63b8ff" points="136.42,-80.25 146.82,-78.26 137.45,-73.32 136.42,-80.25"/>
</a>
</g>
</g>
<!-- Node11 -->
<g id="Node000011" class="node">
<title>Node11</title>
<g id="a_Node000011"><a xlink:href="main_8c.html#aa675774b79cc01e2a386c7caf4fbdf03" target="_top" xlink:title=" ">
<polygon fill="white" stroke="#666666" points="351,-56 259,-56 259,-37 351,-37 351,-56"/>
<text text-anchor="middle" x="305" y="-44" font-family="Helvetica,sans-Serif" font-size="10.00">ipc_queues_init</text>
</a>
</g>
</g>
<!-- Node10&#45;&gt;Node11 -->
<g id="edge7_Node000010_Node000011" class="edge">
<title>Node10&#45;&gt;Node11</title>
<g id="a_edge7_Node000010_Node000011"><a xlink:title=" ">
<path fill="none" stroke="#63b8ff" d="M376.48,-46.5C368.04,-46.5 359.47,-46.5 351.33,-46.5"/>
<polygon fill="#63b8ff" stroke="#63b8ff" points="376.65,-50 386.65,-46.5 376.65,-43 376.65,-50"/>
</a>
</g>
</g>
<!-- Node9 -->
<g id="Node000009" class="node">
<title>Node9</title>
<g id="a_Node000009"><a xlink:href="main_8c.html#ab1eba6ea917a2135efde6edb0de4baef" target="_top" xlink:title=" ">
<polygon fill="white" stroke="#666666" points="223,-56 143,-56 143,-37 223,-37 223,-56"/>
<text text-anchor="middle" x="183" y="-44" font-family="Helvetica,sans-Serif" font-size="10.00">__attribute__</text>
</a>
</g>
</g>
<!-- Node11&#45;&gt;Node9 -->
<g id="edge8_Node000011_Node000009" class="edge">
<title>Node11&#45;&gt;Node9</title>
<g id="a_edge8_Node000011_Node000009"><a xlink:title=" ">
<path fill="none" stroke="#63b8ff" d="M248.95,-46.5C240.32,-46.5 231.55,-46.5 223.37,-46.5"/>
<polygon fill="#63b8ff" stroke="#63b8ff" points="248.98,-50 258.98,-46.5 248.97,-43 248.98,-50"/>
</a>
</g>
</g>
</g>
</svg>
