<?xml version="1.0" encoding="UTF-8" standalone="no"?>
<!DOCTYPE svg PUBLIC "-//W3C//DTD SVG 1.1//EN"
 "http://www.w3.org/Graphics/SVG/1.1/DTD/svg11.dtd">
<!-- Generated by graphviz version 2.43.0 (0)
 -->
<!-- Title: hal_timebase_stm32.c Pages: 1 -->
<svg width="816pt" height="258pt"
 viewBox="0.00 0.00 816.00 258.00" xmlns="http://www.w3.org/2000/svg" xmlns:xlink="http://www.w3.org/1999/xlink">
<g id="graph0" class="graph" transform="scale(1 1) rotate(0) translate(4 254)">
<title>hal_timebase_stm32.c</title>
<!-- Node1 -->
<g id="Node000001" class="node">
<title>Node1</title>
<g id="a_Node000001"><a xlink:title=" ">
<polygon fill="#999999" stroke="#666666" points="355.5,-250 228.5,-250 228.5,-231 355.5,-231 355.5,-250"/>
<text text-anchor="middle" x="292" y="-238" font-family="Helvetica,sans-Serif" font-size="10.00">hal_timebase_stm32.c</text>
</a>
</g>
</g>
<!-- Node2 -->
<g id="Node000002" class="node">
<title>Node2</title>
<g id="a_Node000002"><a xlink:title=" ">
<polygon fill="#e0e0e0" stroke="#999999" points="227,-74 115,-74 115,-55 227,-55 227,-74"/>
<text text-anchor="middle" x="171" y="-62" font-family="Helvetica,sans-Serif" font-size="10.00">board/mcu_config.h</text>
</a>
</g>
</g>
<!-- Node1&#45;&gt;Node2 -->
<g id="edge1_Node000001_Node000002" class="edge">
<title>Node1&#45;&gt;Node2</title>
<g id="a_edge1_Node000001_Node000002"><a xlink:title=" ">
<path fill="none" stroke="#63b8ff" d="M228.37,-232.21C205.15,-226.12 181.14,-215.05 167,-195 143.52,-161.72 155.25,-110.74 164.14,-83.74"/>
<polygon fill="#63b8ff" stroke="#63b8ff" points="167.53,-84.65 167.54,-74.06 160.92,-82.33 167.53,-84.65"/>
</a>
</g>
</g>
<!-- Node3 -->
<g id="Node000003" class="node">
<title>Node3</title>
<g id="a_Node000003"><a xlink:title=" ">
<polygon fill="#e0e0e0" stroke="#999999" points="323,-74 265,-74 265,-55 323,-55 323,-74"/>
<text text-anchor="middle" x="294" y="-62" font-family="Helvetica,sans-Serif" font-size="10.00">device.h</text>
</a>
</g>
</g>
<!-- Node1&#45;&gt;Node3 -->
<g id="edge2_Node000001_Node000003" class="edge">
<title>Node1&#45;&gt;Node3</title>
<g id="a_edge2_Node000001_Node000003"><a xlink:title=" ">
<path fill="none" stroke="#63b8ff" d="M299.67,-230.7C306.52,-222.21 316.05,-208.68 320,-195 323.7,-182.19 322.61,-178.07 320,-165 316.6,-148 309.84,-145.64 305,-129 300.74,-114.36 297.9,-97.31 296.17,-84.57"/>
<polygon fill="#63b8ff" stroke="#63b8ff" points="299.6,-83.76 294.89,-74.27 292.65,-84.62 299.6,-83.76"/>
</a>
</g>
</g>
<!-- Node4 -->
<g id="Node000004" class="node">
<title>Node4</title>
<g id="a_Node000004"><a xlink:href="irq__desc_8h.html" target="_top" xlink:title=" ">
<polygon fill="white" stroke="#666666" points="559,-189.5 477,-189.5 477,-170.5 559,-170.5 559,-189.5"/>
<text text-anchor="middle" x="518" y="-177.5" font-family="Helvetica,sans-Serif" font-size="10.00">irq/irq_desc.h</text>
</a>
</g>
</g>
<!-- Node1&#45;&gt;Node4 -->
<g id="edge3_Node000001_Node000004" class="edge">
<title>Node1&#45;&gt;Node4</title>
<g id="a_edge3_Node000001_Node000004"><a xlink:title=" ">
<path fill="none" stroke="#63b8ff" d="M324.86,-230.99C364.61,-220.7 431.63,-203.36 475.33,-192.04"/>
<polygon fill="#63b8ff" stroke="#63b8ff" points="476.29,-195.41 485.1,-189.52 474.54,-188.63 476.29,-195.41"/>
</a>
</g>
</g>
<!-- Node17 -->
<g id="Node000017" class="node">
<title>Node17</title>
<g id="a_Node000017"><a xlink:href="hal__timebase__stm32_8h.html" target="_top" xlink:title=" ">
<polygon fill="white" stroke="#666666" points="120,-195 0,-195 0,-165 120,-165 120,-195"/>
<text text-anchor="start" x="8" y="-183" font-family="Helvetica,sans-Serif" font-size="10.00">drivers/hal/stm32/hal</text>
<text text-anchor="middle" x="60" y="-172" font-family="Helvetica,sans-Serif" font-size="10.00">_timebase_stm32.h</text>
</a>
</g>
</g>
<!-- Node1&#45;&gt;Node17 -->
<g id="edge18_Node000001_Node000017" class="edge">
<title>Node1&#45;&gt;Node17</title>
<g id="a_edge18_Node000001_Node000017"><a xlink:title=" ">
<path fill="none" stroke="#63b8ff" d="M258.27,-230.99C223.64,-222.26 168.86,-208.45 125.65,-197.55"/>
<polygon fill="#63b8ff" stroke="#63b8ff" points="126.33,-194.12 115.78,-195.06 124.62,-200.9 126.33,-194.12"/>
</a>
</g>
</g>
<!-- Node18 -->
<g id="Node000018" class="node">
<title>Node18</title>
<g id="a_Node000018"><a xlink:href="drv__time_8h.html" target="_top" xlink:title=" ">
<polygon fill="white" stroke="#666666" points="311.5,-189.5 176.5,-189.5 176.5,-170.5 311.5,-170.5 311.5,-189.5"/>
<text text-anchor="middle" x="244" y="-177.5" font-family="Helvetica,sans-Serif" font-size="10.00">drivers/timer/drv_time.h</text>
</a>
</g>
</g>
<!-- Node1&#45;&gt;Node18 -->
<g id="edge20_Node000001_Node000018" class="edge">
<title>Node1&#45;&gt;Node18</title>
<g id="a_edge20_Node000001_Node000018"><a xlink:title=" ">
<path fill="none" stroke="#63b8ff" d="M284.92,-230.87C277.76,-222.14 266.51,-208.43 257.61,-197.59"/>
<polygon fill="#63b8ff" stroke="#63b8ff" points="260.16,-195.18 251.11,-189.67 254.75,-199.62 260.16,-195.18"/>
</a>
</g>
</g>
<!-- Node22 -->
<g id="Node000022" class="node">
<title>Node22</title>
<g id="a_Node000022"><a xlink:href="drv__rcc_8h.html" target="_top" xlink:title=" ">
<polygon fill="white" stroke="#666666" points="808,-129 710,-129 710,-110 808,-110 808,-129"/>
<text text-anchor="middle" x="759" y="-117" font-family="Helvetica,sans-Serif" font-size="10.00">drivers/drv_rcc.h</text>
</a>
</g>
</g>
<!-- Node1&#45;&gt;Node22 -->
<g id="edge29_Node000001_Node000022" class="edge">
<title>Node1&#45;&gt;Node22</title>
<g id="a_edge29_Node000001_Node000022"><a xlink:title=" ">
<path fill="none" stroke="#63b8ff" d="M355.57,-233.13C412.04,-226.56 496.47,-214.48 568,-195 627.96,-178.67 694.97,-149.97 731.53,-133.36"/>
<polygon fill="#63b8ff" stroke="#63b8ff" points="733.37,-136.36 741,-129.01 730.45,-130 733.37,-136.36"/>
</a>
</g>
</g>
<!-- Node5 -->
<g id="Node000005" class="node">
<title>Node5</title>
<g id="a_Node000005"><a xlink:href="def__std_8h.html" target="_top" xlink:title=" ">
<polygon fill="white" stroke="#666666" points="486,-74 424,-74 424,-55 486,-55 486,-74"/>
<text text-anchor="middle" x="455" y="-62" font-family="Helvetica,sans-Serif" font-size="10.00">def_std.h</text>
</a>
</g>
</g>
<!-- Node4&#45;&gt;Node5 -->
<g id="edge4_Node000004_Node000005" class="edge">
<title>Node4&#45;&gt;Node5</title>
<g id="a_edge4_Node000004_Node000005"><a xlink:title=" ">
<path fill="none" stroke="#63b8ff" d="M509.4,-170.49C500.29,-161.07 485.99,-145.07 477,-129 468.99,-114.68 463.14,-96.93 459.5,-83.84"/>
<polygon fill="#63b8ff" stroke="#63b8ff" points="462.87,-82.91 456.95,-74.12 456.1,-84.68 462.87,-82.91"/>
</a>
</g>
</g>
<!-- Node13 -->
<g id="Node000013" class="node">
<title>Node13</title>
<g id="a_Node000013"><a xlink:title=" ">
<polygon fill="#e0e0e0" stroke="#999999" points="576,-74 504,-74 504,-55 576,-55 576,-74"/>
<text text-anchor="middle" x="540" y="-62" font-family="Helvetica,sans-Serif" font-size="10.00">FreeRTOS.h</text>
</a>
</g>
</g>
<!-- Node4&#45;&gt;Node13 -->
<g id="edge12_Node000004_Node000013" class="edge">
<title>Node4&#45;&gt;Node13</title>
<g id="a_edge12_Node000004_Node000013"><a xlink:title=" ">
<path fill="none" stroke="#63b8ff" d="M528.17,-170.26C537.96,-161.12 552.11,-145.78 558,-129 563.38,-113.66 557.27,-95.83 550.75,-82.97"/>
<polygon fill="#63b8ff" stroke="#63b8ff" points="553.81,-81.26 545.88,-74.23 547.7,-84.67 553.81,-81.26"/>
</a>
</g>
</g>
<!-- Node14 -->
<g id="Node000014" class="node">
<title>Node14</title>
<g id="a_Node000014"><a xlink:href="irq__notify_8h.html" target="_top" xlink:title=" ">
<polygon fill="white" stroke="#666666" points="692,-129 606,-129 606,-110 692,-110 692,-129"/>
<text text-anchor="middle" x="649" y="-117" font-family="Helvetica,sans-Serif" font-size="10.00">irq/irq_notify.h</text>
</a>
</g>
</g>
<!-- Node4&#45;&gt;Node14 -->
<g id="edge13_Node000004_Node000014" class="edge">
<title>Node4&#45;&gt;Node14</title>
<g id="a_edge13_Node000004_Node000014"><a xlink:title=" ">
<path fill="none" stroke="#63b8ff" d="M537.05,-170.49C558.97,-160.7 595.21,-144.52 620.5,-133.23"/>
<polygon fill="#63b8ff" stroke="#63b8ff" points="622.22,-136.29 629.93,-129.02 619.37,-129.9 622.22,-136.29"/>
</a>
</g>
</g>
<!-- Node16 -->
<g id="Node000016" class="node">
<title>Node16</title>
<g id="a_Node000016"><a xlink:href="list_8h.html" target="_top" xlink:title="All linked list operation functions definitions and macros.">
<polygon fill="white" stroke="#666666" points="549.5,-129 486.5,-129 486.5,-110 549.5,-110 549.5,-129"/>
<text text-anchor="middle" x="518" y="-117" font-family="Helvetica,sans-Serif" font-size="10.00">mm/list.h</text>
</a>
</g>
</g>
<!-- Node4&#45;&gt;Node16 -->
<g id="edge16_Node000004_Node000016" class="edge">
<title>Node4&#45;&gt;Node16</title>
<g id="a_edge16_Node000004_Node000016"><a xlink:title=" ">
<path fill="none" stroke="#63b8ff" d="M518,-170.37C518,-162.25 518,-149.81 518,-139.39"/>
<polygon fill="#63b8ff" stroke="#63b8ff" points="521.5,-139.17 518,-129.17 514.5,-139.17 521.5,-139.17"/>
</a>
</g>
</g>
<!-- Node6 -->
<g id="Node000006" class="node">
<title>Node6</title>
<g id="a_Node000006"><a xlink:title=" ">
<polygon fill="#e0e0e0" stroke="#999999" points="520.5,-19 467.5,-19 467.5,0 520.5,0 520.5,-19"/>
<text text-anchor="middle" x="494" y="-7" font-family="Helvetica,sans-Serif" font-size="10.00">stdlib.h</text>
</a>
</g>
</g>
<!-- Node5&#45;&gt;Node6 -->
<g id="edge5_Node000005_Node000006" class="edge">
<title>Node5&#45;&gt;Node6</title>
<g id="a_edge5_Node000005_Node000006"><a xlink:title=" ">
<path fill="none" stroke="#63b8ff" d="M461.44,-54.75C466.89,-47.34 474.86,-36.5 481.56,-27.41"/>
<polygon fill="#63b8ff" stroke="#63b8ff" points="484.57,-29.22 487.68,-19.09 478.93,-25.07 484.57,-29.22"/>
</a>
</g>
</g>
<!-- Node7 -->
<g id="Node000007" class="node">
<title>Node7</title>
<g id="a_Node000007"><a xlink:title=" ">
<polygon fill="#e0e0e0" stroke="#999999" points="589.5,-19 538.5,-19 538.5,0 589.5,0 589.5,-19"/>
<text text-anchor="middle" x="564" y="-7" font-family="Helvetica,sans-Serif" font-size="10.00">errno.h</text>
</a>
</g>
</g>
<!-- Node5&#45;&gt;Node7 -->
<g id="edge6_Node000005_Node000007" class="edge">
<title>Node5&#45;&gt;Node7</title>
<g id="a_edge6_Node000005_Node000007"><a xlink:title=" ">
<path fill="none" stroke="#63b8ff" d="M472.51,-54.98C489.97,-46.5 517.01,-33.35 537.17,-23.54"/>
<polygon fill="#63b8ff" stroke="#63b8ff" points="538.71,-26.69 546.17,-19.17 535.64,-20.4 538.71,-26.69"/>
</a>
</g>
</g>
<!-- Node8 -->
<g id="Node000008" class="node">
<title>Node8</title>
<g id="a_Node000008"><a xlink:title=" ">
<polygon fill="#e0e0e0" stroke="#999999" points="658,-19 608,-19 608,0 658,0 658,-19"/>
<text text-anchor="middle" x="633" y="-7" font-family="Helvetica,sans-Serif" font-size="10.00">stdio.h</text>
</a>
</g>
</g>
<!-- Node5&#45;&gt;Node8 -->
<g id="edge7_Node000005_Node000008" class="edge">
<title>Node5&#45;&gt;Node8</title>
<g id="a_edge7_Node000005_Node000008"><a xlink:title=" ">
<path fill="none" stroke="#63b8ff" d="M483.6,-54.98C514.77,-45.7 564.66,-30.85 598.11,-20.89"/>
<polygon fill="#63b8ff" stroke="#63b8ff" points="599.34,-24.17 607.92,-17.97 597.34,-17.47 599.34,-24.17"/>
</a>
</g>
</g>
<!-- Node9 -->
<g id="Node000009" class="node">
<title>Node9</title>
<g id="a_Node000009"><a xlink:title=" ">
<polygon fill="#e0e0e0" stroke="#999999" points="299.5,-19 244.5,-19 244.5,0 299.5,0 299.5,-19"/>
<text text-anchor="middle" x="272" y="-7" font-family="Helvetica,sans-Serif" font-size="10.00">signal.h</text>
</a>
</g>
</g>
<!-- Node5&#45;&gt;Node9 -->
<g id="edge8_Node000005_Node000009" class="edge">
<title>Node5&#45;&gt;Node9</title>
<g id="a_edge8_Node000005_Node000009"><a xlink:title=" ">
<path fill="none" stroke="#63b8ff" d="M425.6,-54.98C393.96,-45.82 343.58,-31.23 309.21,-21.28"/>
<polygon fill="#63b8ff" stroke="#63b8ff" points="310.11,-17.89 299.53,-18.47 308.16,-24.62 310.11,-17.89"/>
</a>
</g>
</g>
<!-- Node10 -->
<g id="Node000010" class="node">
<title>Node10</title>
<g id="a_Node000010"><a xlink:title=" ">
<polygon fill="#e0e0e0" stroke="#999999" points="366,-19 318,-19 318,0 366,0 366,-19"/>
<text text-anchor="middle" x="342" y="-7" font-family="Helvetica,sans-Serif" font-size="10.00">time.h</text>
</a>
</g>
</g>
<!-- Node5&#45;&gt;Node10 -->
<g id="edge9_Node000005_Node000010" class="edge">
<title>Node5&#45;&gt;Node10</title>
<g id="a_edge9_Node000005_Node000010"><a xlink:title=" ">
<path fill="none" stroke="#63b8ff" d="M436.84,-54.98C418.75,-46.5 390.72,-33.35 369.81,-23.54"/>
<polygon fill="#63b8ff" stroke="#63b8ff" points="371.03,-20.25 360.49,-19.17 368.05,-26.59 371.03,-20.25"/>
</a>
</g>
</g>
<!-- Node11 -->
<g id="Node000011" class="node">
<title>Node11</title>
<g id="a_Node000011"><a xlink:title=" ">
<polygon fill="#e0e0e0" stroke="#999999" points="785.5,-19 732.5,-19 732.5,0 785.5,0 785.5,-19"/>
<text text-anchor="middle" x="759" y="-7" font-family="Helvetica,sans-Serif" font-size="10.00">stdint.h</text>
</a>
</g>
</g>
<!-- Node5&#45;&gt;Node11 -->
<g id="edge10_Node000005_Node000011" class="edge">
<title>Node5&#45;&gt;Node11</title>
<g id="a_edge10_Node000005_Node000011"><a xlink:title=" ">
<path fill="none" stroke="#63b8ff" d="M486.42,-56.69C489.32,-56.1 492.21,-55.53 495,-55 575.95,-39.58 671.39,-24.18 722.43,-16.16"/>
<polygon fill="#63b8ff" stroke="#63b8ff" points="722.99,-19.62 732.33,-14.61 721.91,-12.7 722.99,-19.62"/>
</a>
</g>
</g>
<!-- Node12 -->
<g id="Node000012" class="node">
<title>Node12</title>
<g id="a_Node000012"><a xlink:title=" ">
<polygon fill="#e0e0e0" stroke="#999999" points="449.5,-19 384.5,-19 384.5,0 449.5,0 449.5,-19"/>
<text text-anchor="middle" x="417" y="-7" font-family="Helvetica,sans-Serif" font-size="10.00">inttypes.h</text>
</a>
</g>
</g>
<!-- Node5&#45;&gt;Node12 -->
<g id="edge11_Node000005_Node000012" class="edge">
<title>Node5&#45;&gt;Node12</title>
<g id="a_edge11_Node000005_Node000012"><a xlink:title=" ">
<path fill="none" stroke="#63b8ff" d="M448.73,-54.75C443.41,-47.34 435.64,-36.5 429.12,-27.41"/>
<polygon fill="#63b8ff" stroke="#63b8ff" points="431.83,-25.18 423.16,-19.09 426.14,-29.26 431.83,-25.18"/>
</a>
</g>
</g>
<!-- Node14&#45;&gt;Node13 -->
<g id="edge15_Node000014_Node000013" class="edge">
<title>Node14&#45;&gt;Node13</title>
<g id="a_edge15_Node000014_Node000013"><a xlink:title=" ">
<path fill="none" stroke="#63b8ff" d="M631.49,-109.98C614.03,-101.5 586.99,-88.35 566.83,-78.54"/>
<polygon fill="#63b8ff" stroke="#63b8ff" points="568.36,-75.4 557.83,-74.17 565.29,-81.69 568.36,-75.4"/>
</a>
</g>
</g>
<!-- Node15 -->
<g id="Node000015" class="node">
<title>Node15</title>
<g id="a_Node000015"><a xlink:title=" ">
<polygon fill="#e0e0e0" stroke="#999999" points="708,-74 594,-74 594,-55 708,-55 708,-74"/>
<text text-anchor="middle" x="651" y="-62" font-family="Helvetica,sans-Serif" font-size="10.00">board/irq_hw_conf.h</text>
</a>
</g>
</g>
<!-- Node14&#45;&gt;Node15 -->
<g id="edge14_Node000014_Node000015" class="edge">
<title>Node14&#45;&gt;Node15</title>
<g id="a_edge14_Node000014_Node000015"><a xlink:title=" ">
<path fill="none" stroke="#63b8ff" d="M649.33,-109.75C649.59,-102.8 649.97,-92.85 650.3,-84.13"/>
<polygon fill="#63b8ff" stroke="#63b8ff" points="653.8,-84.21 650.68,-74.09 646.8,-83.95 653.8,-84.21"/>
</a>
</g>
</g>
<!-- Node16&#45;&gt;Node5 -->
<g id="edge17_Node000016_Node000005" class="edge">
<title>Node16&#45;&gt;Node5</title>
<g id="a_edge17_Node000016_Node000005"><a xlink:title=" ">
<path fill="none" stroke="#63b8ff" d="M507.88,-109.98C498.56,-102.15 484.53,-90.34 473.26,-80.86"/>
<polygon fill="#63b8ff" stroke="#63b8ff" points="475.21,-77.93 465.31,-74.17 470.71,-83.29 475.21,-77.93"/>
</a>
</g>
</g>
<!-- Node17&#45;&gt;Node2 -->
<g id="edge19_Node000017_Node000002" class="edge">
<title>Node17&#45;&gt;Node2</title>
<g id="a_edge19_Node000017_Node000002"><a xlink:title=" ">
<path fill="none" stroke="#63b8ff" d="M74.06,-164.63C94.84,-143.37 133.64,-103.71 155.32,-81.54"/>
<polygon fill="#63b8ff" stroke="#63b8ff" points="157.97,-83.83 162.46,-74.23 152.97,-78.93 157.97,-83.83"/>
</a>
</g>
</g>
<!-- Node18&#45;&gt;Node2 -->
<g id="edge28_Node000018_Node000002" class="edge">
<title>Node18&#45;&gt;Node2</title>
<g id="a_edge28_Node000018_Node000002"><a xlink:title=" ">
<path fill="none" stroke="#63b8ff" d="M238.51,-170.47C226.57,-151.9 198.02,-107.51 182.14,-82.82"/>
<polygon fill="#63b8ff" stroke="#63b8ff" points="184.9,-80.65 176.55,-74.13 179.02,-84.43 184.9,-80.65"/>
</a>
</g>
</g>
<!-- Node19 -->
<g id="Node000019" class="node">
<title>Node19</title>
<g id="a_Node000019"><a xlink:href="drv__handle_8h.html" target="_top" xlink:title=" ">
<polygon fill="white" stroke="#666666" points="430,-129 314,-129 314,-110 430,-110 430,-129"/>
<text text-anchor="middle" x="372" y="-117" font-family="Helvetica,sans-Serif" font-size="10.00">drivers/drv_handle.h</text>
</a>
</g>
</g>
<!-- Node18&#45;&gt;Node19 -->
<g id="edge21_Node000018_Node000019" class="edge">
<title>Node18&#45;&gt;Node19</title>
<g id="a_edge21_Node000018_Node000019"><a xlink:title=" ">
<path fill="none" stroke="#63b8ff" d="M262.61,-170.49C284.04,-160.7 319.44,-144.52 344.15,-133.23"/>
<polygon fill="#63b8ff" stroke="#63b8ff" points="345.72,-136.36 353.37,-129.02 342.82,-129.99 345.72,-136.36"/>
</a>
</g>
</g>
<!-- Node19&#45;&gt;Node2 -->
<g id="edge24_Node000019_Node000002" class="edge">
<title>Node19&#45;&gt;Node2</title>
<g id="a_edge24_Node000019_Node000002"><a xlink:title=" ">
<path fill="none" stroke="#63b8ff" d="M339.71,-109.98C305.38,-100.93 250.94,-86.58 213.23,-76.64"/>
<polygon fill="#63b8ff" stroke="#63b8ff" points="214.11,-73.25 203.55,-74.08 212.32,-80.02 214.11,-73.25"/>
</a>
</g>
</g>
<!-- Node19&#45;&gt;Node3 -->
<g id="edge27_Node000019_Node000003" class="edge">
<title>Node19&#45;&gt;Node3</title>
<g id="a_edge27_Node000019_Node000003"><a xlink:title=" ">
<path fill="none" stroke="#63b8ff" d="M359.47,-109.98C347.6,-101.92 329.54,-89.65 315.39,-80.03"/>
<polygon fill="#63b8ff" stroke="#63b8ff" points="317,-76.9 306.76,-74.17 313.06,-82.69 317,-76.9"/>
</a>
</g>
</g>
<!-- Node19&#45;&gt;Node5 -->
<g id="edge22_Node000019_Node000005" class="edge">
<title>Node19&#45;&gt;Node5</title>
<g id="a_edge22_Node000019_Node000005"><a xlink:title=" ">
<path fill="none" stroke="#63b8ff" d="M385.34,-109.98C398.09,-101.84 417.55,-89.41 432.67,-79.76"/>
<polygon fill="#63b8ff" stroke="#63b8ff" points="434.88,-82.5 441.42,-74.17 431.11,-76.6 434.88,-82.5"/>
</a>
</g>
</g>
<!-- Node19&#45;&gt;Node13 -->
<g id="edge25_Node000019_Node000013" class="edge">
<title>Node19&#45;&gt;Node13</title>
<g id="a_edge25_Node000019_Node000013"><a xlink:title=" ">
<path fill="none" stroke="#63b8ff" d="M398.99,-109.98C427.2,-101.09 471.64,-87.07 503.08,-77.15"/>
<polygon fill="#63b8ff" stroke="#63b8ff" points="504.31,-80.43 512.8,-74.08 502.21,-73.75 504.31,-80.43"/>
</a>
</g>
</g>
<!-- Node20 -->
<g id="Node000020" class="node">
<title>Node20</title>
<g id="a_Node000020"><a xlink:href="def__err_8h.html" target="_top" xlink:title=" ">
<polygon fill="white" stroke="#666666" points="785.5,-74 726.5,-74 726.5,-55 785.5,-55 785.5,-74"/>
<text text-anchor="middle" x="756" y="-62" font-family="Helvetica,sans-Serif" font-size="10.00">def_err.h</text>
</a>
</g>
</g>
<!-- Node19&#45;&gt;Node20 -->
<g id="edge23_Node000019_Node000020" class="edge">
<title>Node19&#45;&gt;Node20</title>
<g id="a_edge23_Node000019_Node000020"><a xlink:title=" ">
<path fill="none" stroke="#63b8ff" d="M430.22,-112.54C496.91,-105.37 609.65,-92.19 716.27,-73.98"/>
<polygon fill="#63b8ff" stroke="#63b8ff" points="716.98,-77.41 726.24,-72.26 715.79,-70.51 716.98,-77.41"/>
</a>
</g>
</g>
<!-- Node21 -->
<g id="Node000021" class="node">
<title>Node21</title>
<g id="a_Node000021"><a xlink:title=" ">
<polygon fill="#e0e0e0" stroke="#999999" points="395.5,-74 348.5,-74 348.5,-55 395.5,-55 395.5,-74"/>
<text text-anchor="middle" x="372" y="-62" font-family="Helvetica,sans-Serif" font-size="10.00">task.h</text>
</a>
</g>
</g>
<!-- Node19&#45;&gt;Node21 -->
<g id="edge26_Node000019_Node000021" class="edge">
<title>Node19&#45;&gt;Node21</title>
<g id="a_edge26_Node000019_Node000021"><a xlink:title=" ">
<path fill="none" stroke="#63b8ff" d="M372,-109.75C372,-102.8 372,-92.85 372,-84.13"/>
<polygon fill="#63b8ff" stroke="#63b8ff" points="375.5,-84.09 372,-74.09 368.5,-84.09 375.5,-84.09"/>
</a>
</g>
</g>
<!-- Node22&#45;&gt;Node11 -->
<g id="edge30_Node000022_Node000011" class="edge">
<title>Node22&#45;&gt;Node11</title>
<g id="a_edge30_Node000022_Node000011"><a xlink:title=" ">
<path fill="none" stroke="#63b8ff" d="M769.53,-109.93C782.63,-98.16 802.44,-76.03 795,-55 791.25,-44.41 783.79,-34.49 776.63,-26.71"/>
<polygon fill="#63b8ff" stroke="#63b8ff" points="778.69,-23.82 769.16,-19.19 773.72,-28.76 778.69,-23.82"/>
</a>
</g>
</g>
<!-- Node22&#45;&gt;Node20 -->
<g id="edge31_Node000022_Node000020" class="edge">
<title>Node22&#45;&gt;Node20</title>
<g id="a_edge31_Node000022_Node000020"><a xlink:title=" ">
<path fill="none" stroke="#63b8ff" d="M758.5,-109.75C758.11,-102.8 757.55,-92.85 757.05,-84.13"/>
<polygon fill="#63b8ff" stroke="#63b8ff" points="760.55,-83.88 756.49,-74.09 753.56,-84.27 760.55,-83.88"/>
</a>
</g>
</g>
</g>
</svg>
