<?xml version="1.0" encoding="UTF-8" standalone="no"?>
<!DOCTYPE svg PUBLIC "-//W3C//DTD SVG 1.1//EN"
 "http://www.w3.org/Graphics/SVG/1.1/DTD/svg11.dtd">
<!-- Generated by graphviz version 2.43.0 (0)
 -->
<!-- Title: _hal_to_os_err Pages: 1 -->
<svg width="253pt" height="261pt"
 viewBox="0.00 0.00 253.00 261.00" xmlns="http://www.w3.org/2000/svg" xmlns:xlink="http://www.w3.org/1999/xlink">
<g id="graph0" class="graph" transform="scale(1 1) rotate(0) translate(4 257)">
<title>_hal_to_os_err</title>
<!-- Node1 -->
<g id="Node000001" class="node">
<title>Node1</title>
<g id="a_Node000001"><a xlink:title=" ">
<polygon fill="#999999" stroke="#666666" points="245,-130 158,-130 158,-111 245,-111 245,-130"/>
<text text-anchor="middle" x="201.5" y="-118" font-family="Helvetica,sans-Serif" font-size="10.00">_hal_to_os_err</text>
</a>
</g>
</g>
<!-- Node2 -->
<g id="Node000002" class="node">
<title>Node2</title>
<g id="a_Node000002"><a xlink:href="hal__iic__stm32_8c.html#a3c69faf6c6f1c5db47ec200c81c54651" target="_top" xlink:title=" ">
<polygon fill="white" stroke="#666666" points="119,-253 3,-253 3,-234 119,-234 119,-253"/>
<text text-anchor="middle" x="61" y="-241" font-family="Helvetica,sans-Serif" font-size="10.00">stm32_iic_hw_deinit</text>
</a>
</g>
</g>
<!-- Node1&#45;&gt;Node2 -->
<g id="edge1_Node000001_Node000002" class="edge">
<title>Node1&#45;&gt;Node2</title>
<g id="a_edge1_Node000001_Node000002"><a xlink:title=" ">
<path fill="none" stroke="#63b8ff" d="M191.33,-139.24C178.85,-162.8 154.32,-202.91 122,-225.5 117.1,-228.93 111.53,-231.71 105.82,-233.97"/>
<polygon fill="#63b8ff" stroke="#63b8ff" points="194.49,-140.75 195.93,-130.25 188.25,-137.56 194.49,-140.75"/>
</a>
</g>
</g>
<!-- Node3 -->
<g id="Node000003" class="node">
<title>Node3</title>
<g id="a_Node000003"><a xlink:href="hal__iic__stm32_8c.html#aed2aa84ea7710109eb5cfa905e9c3b6e" target="_top" xlink:title=" ">
<polygon fill="white" stroke="#666666" points="113,-216 9,-216 9,-197 113,-197 113,-216"/>
<text text-anchor="middle" x="61" y="-204" font-family="Helvetica,sans-Serif" font-size="10.00">stm32_iic_hw_init</text>
</a>
</g>
</g>
<!-- Node1&#45;&gt;Node3 -->
<g id="edge2_Node000001_Node000003" class="edge">
<title>Node1&#45;&gt;Node3</title>
<g id="a_edge2_Node000001_Node000003"><a xlink:title=" ">
<path fill="none" stroke="#63b8ff" d="M184.41,-137.69C169.5,-152.71 146.06,-174.15 122,-187.5 115.22,-191.26 107.58,-194.4 100.09,-196.97"/>
<polygon fill="#63b8ff" stroke="#63b8ff" points="187.32,-139.71 191.76,-130.09 182.29,-134.84 187.32,-139.71"/>
</a>
</g>
</g>
<!-- Node4 -->
<g id="Node000004" class="node">
<title>Node4</title>
<g id="a_Node000004"><a xlink:href="hal__iic__stm32_8c.html#a9506dd62840e5eaff6ae10ab8c2d36aa" target="_top" xlink:title=" ">
<polygon fill="white" stroke="#666666" points="118.5,-178.5 3.5,-178.5 3.5,-148.5 118.5,-148.5 118.5,-178.5"/>
<text text-anchor="start" x="11.5" y="-166.5" font-family="Helvetica,sans-Serif" font-size="10.00">stm32_iic_is_device</text>
<text text-anchor="middle" x="61" y="-155.5" font-family="Helvetica,sans-Serif" font-size="10.00">_ready</text>
</a>
</g>
</g>
<!-- Node1&#45;&gt;Node4 -->
<g id="edge3_Node000001_Node000004" class="edge">
<title>Node1&#45;&gt;Node4</title>
<g id="a_edge3_Node000001_Node000004"><a xlink:title=" ">
<path fill="none" stroke="#63b8ff" d="M159.93,-133.09C144.4,-137.92 126.52,-143.47 110.33,-148.49"/>
<polygon fill="#63b8ff" stroke="#63b8ff" points="161.25,-136.35 169.76,-130.04 159.17,-129.67 161.25,-136.35"/>
</a>
</g>
</g>
<!-- Node5 -->
<g id="Node000005" class="node">
<title>Node5</title>
<g id="a_Node000005"><a xlink:href="hal__iic__stm32_8c.html#a6c95ed83a2830647a4b0c4ac64adbf0c" target="_top" xlink:title=" ">
<polygon fill="white" stroke="#666666" points="113.5,-130 8.5,-130 8.5,-111 113.5,-111 113.5,-130"/>
<text text-anchor="middle" x="61" y="-118" font-family="Helvetica,sans-Serif" font-size="10.00">stm32_iic_receive</text>
</a>
</g>
</g>
<!-- Node1&#45;&gt;Node5 -->
<g id="edge4_Node000001_Node000005" class="edge">
<title>Node1&#45;&gt;Node5</title>
<g id="a_edge4_Node000001_Node000005"><a xlink:title=" ">
<path fill="none" stroke="#63b8ff" d="M147.73,-120.5C136.53,-120.5 124.72,-120.5 113.56,-120.5"/>
<polygon fill="#63b8ff" stroke="#63b8ff" points="147.82,-124 157.82,-120.5 147.82,-117 147.82,-124"/>
</a>
</g>
</g>
<!-- Node6 -->
<g id="Node000006" class="node">
<title>Node6</title>
<g id="a_Node000006"><a xlink:href="hal__iic__stm32_8c.html#a5c7d4922bcf5b205bf5833156228da75" target="_top" xlink:title=" ">
<polygon fill="white" stroke="#666666" points="119.5,-93 2.5,-93 2.5,-74 119.5,-74 119.5,-93"/>
<text text-anchor="middle" x="61" y="-81" font-family="Helvetica,sans-Serif" font-size="10.00">stm32_iic_receive_it</text>
</a>
</g>
</g>
<!-- Node1&#45;&gt;Node6 -->
<g id="edge5_Node000001_Node000006" class="edge">
<title>Node1&#45;&gt;Node6</title>
<g id="a_edge5_Node000001_Node000006"><a xlink:title=" ">
<path fill="none" stroke="#63b8ff" d="M155.13,-108.38C136.6,-103.43 115.47,-97.78 98.03,-93.12"/>
<polygon fill="#63b8ff" stroke="#63b8ff" points="154.27,-111.77 164.83,-110.97 156.07,-105.01 154.27,-111.77"/>
</a>
</g>
</g>
<!-- Node7 -->
<g id="Node000007" class="node">
<title>Node7</title>
<g id="a_Node000007"><a xlink:href="hal__iic__stm32_8c.html#a3f10e3028eb98f53d6379074072d6b38" target="_top" xlink:title=" ">
<polygon fill="white" stroke="#666666" points="116,-56 6,-56 6,-37 116,-37 116,-56"/>
<text text-anchor="middle" x="61" y="-44" font-family="Helvetica,sans-Serif" font-size="10.00">stm32_iic_transmit</text>
</a>
</g>
</g>
<!-- Node1&#45;&gt;Node7 -->
<g id="edge6_Node000001_Node000007" class="edge">
<title>Node1&#45;&gt;Node7</title>
<g id="a_edge6_Node000001_Node000007"><a xlink:title=" ">
<path fill="none" stroke="#63b8ff" d="M181.1,-104.38C165.83,-92.33 143.58,-76.16 122,-65.5 114.56,-61.82 106.24,-58.65 98.23,-56.01"/>
<polygon fill="#63b8ff" stroke="#63b8ff" points="179.25,-107.38 189.23,-110.93 183.64,-101.93 179.25,-107.38"/>
</a>
</g>
</g>
<!-- Node8 -->
<g id="Node000008" class="node">
<title>Node8</title>
<g id="a_Node000008"><a xlink:href="hal__iic__stm32_8c.html#a86e50f8c8eda510a4967f909b47cc3a5" target="_top" xlink:title=" ">
<polygon fill="white" stroke="#666666" points="122,-19 0,-19 0,0 122,0 122,-19"/>
<text text-anchor="middle" x="61" y="-7" font-family="Helvetica,sans-Serif" font-size="10.00">stm32_iic_transmit_it</text>
</a>
</g>
</g>
<!-- Node1&#45;&gt;Node8 -->
<g id="edge7_Node000001_Node000008" class="edge">
<title>Node1&#45;&gt;Node8</title>
<g id="a_edge7_Node000001_Node000008"><a xlink:title=" ">
<path fill="none" stroke="#63b8ff" d="M189.53,-102.36C176.09,-81.62 151.44,-48.02 122,-28.5 116.17,-24.64 109.51,-21.52 102.79,-19.01"/>
<polygon fill="#63b8ff" stroke="#63b8ff" points="186.6,-104.28 194.89,-110.89 192.53,-100.56 186.6,-104.28"/>
</a>
</g>
</g>
</g>
</svg>
