<?xml version="1.0" encoding="UTF-8" standalone="no"?>
<!DOCTYPE svg PUBLIC "-//W3C//DTD SVG 1.1//EN"
 "http://www.w3.org/Graphics/SVG/1.1/DTD/svg11.dtd">
<!-- Generated by graphviz version 2.43.0 (0)
 -->
<!-- Title: hal_uart_stm32_get_ops Pages: 1 -->
<svg width="716pt" height="27pt"
 viewBox="0.00 0.00 716.00 27.00" xmlns="http://www.w3.org/2000/svg" xmlns:xlink="http://www.w3.org/1999/xlink">
<g id="graph0" class="graph" transform="scale(1 1) rotate(0) translate(4 23)">
<title>hal_uart_stm32_get_ops</title>
<!-- Node1 -->
<g id="Node000001" class="node">
<title>Node1</title>
<g id="a_Node000001"><a xlink:title="Return a pointer to the STM32 UART HAL ops table.">
<polygon fill="#999999" stroke="#666666" points="708,-19 572,-19 572,0 708,0 708,-19"/>
<text text-anchor="middle" x="640" y="-7" font-family="Helvetica,sans-Serif" font-size="10.00">hal_uart_stm32_get_ops</text>
</a>
</g>
</g>
<!-- Node2 -->
<g id="Node000002" class="node">
<title>Node2</title>
<g id="a_Node000002"><a xlink:href="uart__mgmt_8c.html#af8eff33b840c2e11d5bd889fd97c705a" target="_top" xlink:title=" ">
<polygon fill="white" stroke="#666666" points="536,-19 429,-19 429,0 536,0 536,-19"/>
<text text-anchor="middle" x="482.5" y="-7" font-family="Helvetica,sans-Serif" font-size="10.00">uart_mgmt_thread</text>
</a>
</g>
</g>
<!-- Node1&#45;&gt;Node2 -->
<g id="edge1_Node000001_Node000002" class="edge">
<title>Node1&#45;&gt;Node2</title>
<g id="a_edge1_Node000001_Node000002"><a xlink:title=" ">
<path fill="none" stroke="#63b8ff" d="M561.67,-9.5C553.11,-9.5 544.54,-9.5 536.38,-9.5"/>
<polygon fill="#63b8ff" stroke="#63b8ff" points="561.7,-13 571.7,-9.5 561.7,-6 561.7,-13"/>
</a>
</g>
</g>
<!-- Node3 -->
<g id="Node000003" class="node">
<title>Node3</title>
<g id="a_Node000003"><a xlink:href="uart__mgmt_8c.html#a8e8f570b41df4e77ed5acfbeaef25423" target="_top" xlink:title="Create and start the UART management thread.">
<polygon fill="white" stroke="#666666" points="393,-19 295,-19 295,0 393,0 393,-19"/>
<text text-anchor="middle" x="344" y="-7" font-family="Helvetica,sans-Serif" font-size="10.00">uart_mgmt_start</text>
</a>
</g>
</g>
<!-- Node2&#45;&gt;Node3 -->
<g id="edge2_Node000002_Node000003" class="edge">
<title>Node2&#45;&gt;Node3</title>
<g id="a_edge2_Node000002_Node000003"><a xlink:title=" ">
<path fill="none" stroke="#63b8ff" d="M418.45,-9.5C409.96,-9.5 401.35,-9.5 393.17,-9.5"/>
<polygon fill="#63b8ff" stroke="#63b8ff" points="418.73,-13 428.73,-9.5 418.73,-6 418.73,-13"/>
</a>
</g>
</g>
<!-- Node4 -->
<g id="Node000004" class="node">
<title>Node4</title>
<g id="a_Node000004"><a xlink:href="kernel__service__core_8c.html#a77b96ca30dab7f5f8e84daae1ed8f183" target="_top" xlink:title=" ">
<polygon fill="white" stroke="#666666" points="259,-19 116,-19 116,0 259,0 259,-19"/>
<text text-anchor="middle" x="187.5" y="-7" font-family="Helvetica,sans-Serif" font-size="10.00">os_kernel_thread_register</text>
</a>
</g>
</g>
<!-- Node3&#45;&gt;Node4 -->
<g id="edge3_Node000003_Node000004" class="edge">
<title>Node3&#45;&gt;Node4</title>
<g id="a_edge3_Node000003_Node000004"><a xlink:title=" ">
<path fill="none" stroke="#63b8ff" d="M284.91,-9.5C276.52,-9.5 267.8,-9.5 259.19,-9.5"/>
<polygon fill="#63b8ff" stroke="#63b8ff" points="284.96,-13 294.96,-9.5 284.96,-6 284.96,-13"/>
</a>
</g>
</g>
<!-- Node5 -->
<g id="Node000005" class="node">
<title>Node5</title>
<g id="a_Node000005"><a xlink:href="main_8c.html#ab1eba6ea917a2135efde6edb0de4baef" target="_top" xlink:title=" ">
<polygon fill="white" stroke="#666666" points="80,-19 0,-19 0,0 80,0 80,-19"/>
<text text-anchor="middle" x="40" y="-7" font-family="Helvetica,sans-Serif" font-size="10.00">__attribute__</text>
</a>
</g>
</g>
<!-- Node4&#45;&gt;Node5 -->
<g id="edge4_Node000004_Node000005" class="edge">
<title>Node4&#45;&gt;Node5</title>
<g id="a_edge4_Node000004_Node000005"><a xlink:title=" ">
<path fill="none" stroke="#63b8ff" d="M105.79,-9.5C96.9,-9.5 88.16,-9.5 80.12,-9.5"/>
<polygon fill="#63b8ff" stroke="#63b8ff" points="105.88,-13 115.88,-9.5 105.88,-6 105.88,-13"/>
</a>
</g>
</g>
</g>
</svg>
