<?xml version="1.0" encoding="UTF-8" standalone="no"?>
<!DOCTYPE svg PUBLIC "-//W3C//DTD SVG 1.1//EN"
 "http://www.w3.org/Graphics/SVG/1.1/DTD/svg11.dtd">
<!-- Generated by graphviz version 2.43.0 (0)
 -->
<!-- Title: _dma_start Pages: 1 -->
<svg width="655pt" height="64pt"
 viewBox="0.00 0.00 655.00 64.00" xmlns="http://www.w3.org/2000/svg" xmlns:xlink="http://www.w3.org/1999/xlink">
<g id="graph0" class="graph" transform="scale(1 1) rotate(0) translate(4 60)">
<title>_dma_start</title>
<!-- Node1 -->
<g id="Node000001" class="node">
<title>Node1</title>
<g id="a_Node000001"><a xlink:title=" ">
<polygon fill="#999999" stroke="#666666" points="71,-37 0,-37 0,-18 71,-18 71,-37"/>
<text text-anchor="middle" x="35.5" y="-25" font-family="Helvetica,sans-Serif" font-size="10.00">_dma_start</text>
</a>
</g>
</g>
<!-- Node2 -->
<g id="Node000002" class="node">
<title>Node2</title>
<g id="a_Node000002"><a xlink:href="hal__dma__stm32_8c.html#a40fcd1481855f18e0dd34bec27af7f65" target="_top" xlink:title=" ">
<polygon fill="white" stroke="#666666" points="186.5,-56 109.5,-56 109.5,-37 186.5,-37 186.5,-56"/>
<text text-anchor="middle" x="148" y="-44" font-family="Helvetica,sans-Serif" font-size="10.00">_hal_cplt_cb</text>
</a>
</g>
</g>
<!-- Node1&#45;&gt;Node2 -->
<g id="edge1_Node000001_Node000002" class="edge">
<title>Node1&#45;&gt;Node2</title>
<g id="a_edge1_Node000001_Node000002"><a xlink:title=" ">
<path fill="none" stroke="#63b8ff" d="M71.16,-33.46C80.08,-34.99 89.84,-36.67 99.3,-38.3"/>
<polygon fill="#63b8ff" stroke="#63b8ff" points="98.95,-41.79 109.4,-40.03 100.13,-34.89 98.95,-41.79"/>
</a>
</g>
</g>
<!-- Node7 -->
<g id="Node000007" class="node">
<title>Node7</title>
<g id="a_Node000007"><a xlink:href="hal__dma__stm32_8c.html#a5b15eb61eb2b8ebce42fbf717b1244c5" target="_top" xlink:title=" ">
<polygon fill="white" stroke="#666666" points="189,-19 107,-19 107,0 189,0 189,-19"/>
<text text-anchor="middle" x="148" y="-7" font-family="Helvetica,sans-Serif" font-size="10.00">_hal_error_cb</text>
</a>
</g>
</g>
<!-- Node1&#45;&gt;Node7 -->
<g id="edge6_Node000001_Node000007" class="edge">
<title>Node1&#45;&gt;Node7</title>
<g id="a_edge6_Node000001_Node000007"><a xlink:title=" ">
<path fill="none" stroke="#63b8ff" d="M71.16,-21.85C79.26,-20.54 88.04,-19.1 96.67,-17.7"/>
<polygon fill="#63b8ff" stroke="#63b8ff" points="97.36,-21.13 106.67,-16.07 96.24,-14.22 97.36,-21.13"/>
</a>
</g>
</g>
<!-- Node3 -->
<g id="Node000003" class="node">
<title>Node3</title>
<g id="a_Node000003"><a xlink:href="drv__dma_8c.html#a98fb2a47d76acc4facd0d271f3896738" target="_top" xlink:title=" ">
<polygon fill="white" stroke="#666666" points="360,-56 225,-56 225,-37 360,-37 360,-56"/>
<text text-anchor="middle" x="292.5" y="-44" font-family="Helvetica,sans-Serif" font-size="10.00">dma_complete_callback</text>
</a>
</g>
</g>
<!-- Node2&#45;&gt;Node3 -->
<g id="edge2_Node000002_Node000003" class="edge">
<title>Node2&#45;&gt;Node3</title>
<g id="a_edge2_Node000002_Node000003"><a xlink:title=" ">
<path fill="none" stroke="#63b8ff" d="M186.81,-46.5C195.5,-46.5 205.05,-46.5 214.74,-46.5"/>
<polygon fill="#63b8ff" stroke="#63b8ff" points="214.85,-50 224.85,-46.5 214.85,-43 214.85,-50"/>
</a>
</g>
</g>
<!-- Node4 -->
<g id="Node000004" class="node">
<title>Node4</title>
<g id="a_Node000004"><a xlink:href="drv__dma_8c.html#ae80f74a7ebc0a8083170f7a78550b04d" target="_top" xlink:title=" ">
<polygon fill="white" stroke="#666666" points="504,-19 435,-19 435,0 504,0 504,-19"/>
<text text-anchor="middle" x="469.5" y="-7" font-family="Helvetica,sans-Serif" font-size="10.00">_desc_free</text>
</a>
</g>
</g>
<!-- Node3&#45;&gt;Node4 -->
<g id="edge3_Node000003_Node000004" class="edge">
<title>Node3&#45;&gt;Node4</title>
<g id="a_edge3_Node000003_Node000004"><a xlink:title=" ">
<path fill="none" stroke="#63b8ff" d="M338.57,-36.97C365.12,-31.36 398.55,-24.29 424.85,-18.73"/>
<polygon fill="#63b8ff" stroke="#63b8ff" points="425.86,-22.09 434.92,-16.6 424.41,-15.24 425.86,-22.09"/>
</a>
</g>
</g>
<!-- Node5 -->
<g id="Node000005" class="node">
<title>Node5</title>
<g id="a_Node000005"><a xlink:href="drv__dma_8c.html#a0adc2fd6fab28e2e68c0a9876f14b180" target="_top" xlink:title=" ">
<polygon fill="white" stroke="#666666" points="543,-56 396,-56 396,-37 543,-37 543,-56"/>
<text text-anchor="middle" x="469.5" y="-44" font-family="Helvetica,sans-Serif" font-size="10.00">dma_async_issue_pending</text>
</a>
</g>
</g>
<!-- Node3&#45;&gt;Node5 -->
<g id="edge4_Node000003_Node000005" class="edge">
<title>Node3&#45;&gt;Node5</title>
<g id="a_edge4_Node000003_Node000005"><a xlink:title=" ">
<path fill="none" stroke="#63b8ff" d="M360.16,-46.5C368.56,-46.5 377.23,-46.5 385.84,-46.5"/>
<polygon fill="#63b8ff" stroke="#63b8ff" points="385.9,-50 395.9,-46.5 385.9,-43 385.9,-50"/>
</a>
</g>
</g>
<!-- Node6 -->
<g id="Node000006" class="node">
<title>Node6</title>
<g id="a_Node000006"><a xlink:href="group__list__api.html#ga42ec4f71d5c7199de9b75f81b3f4e8ed" target="_top" xlink:title="Delete a node from the list.">
<polygon fill="white" stroke="#666666" points="647,-56 579,-56 579,-37 647,-37 647,-56"/>
<text text-anchor="middle" x="613" y="-44" font-family="Helvetica,sans-Serif" font-size="10.00">list_delete</text>
</a>
</g>
</g>
<!-- Node5&#45;&gt;Node6 -->
<g id="edge5_Node000005_Node000006" class="edge">
<title>Node5&#45;&gt;Node6</title>
<g id="a_edge5_Node000005_Node000006"><a xlink:title=" ">
<path fill="none" stroke="#63b8ff" d="M543.32,-46.5C551.99,-46.5 560.61,-46.5 568.67,-46.5"/>
<polygon fill="#63b8ff" stroke="#63b8ff" points="568.9,-50 578.9,-46.5 568.9,-43 568.9,-50"/>
</a>
</g>
</g>
<!-- Node8 -->
<g id="Node000008" class="node">
<title>Node8</title>
<g id="a_Node000008"><a xlink:href="drv__dma_8c.html#a174b15cf2c7b78b0fb99be21103c3b12" target="_top" xlink:title=" ">
<polygon fill="white" stroke="#666666" points="349,-19 236,-19 236,0 349,0 349,-19"/>
<text text-anchor="middle" x="292.5" y="-7" font-family="Helvetica,sans-Serif" font-size="10.00">dma_error_callback</text>
</a>
</g>
</g>
<!-- Node7&#45;&gt;Node8 -->
<g id="edge7_Node000007_Node000008" class="edge">
<title>Node7&#45;&gt;Node8</title>
<g id="a_edge7_Node000007_Node000008"><a xlink:title=" ">
<path fill="none" stroke="#63b8ff" d="M189.07,-9.5C200.39,-9.5 213.02,-9.5 225.43,-9.5"/>
<polygon fill="#63b8ff" stroke="#63b8ff" points="225.78,-13 235.78,-9.5 225.78,-6 225.78,-13"/>
</a>
</g>
</g>
<!-- Node8&#45;&gt;Node4 -->
<g id="edge8_Node000008_Node000004" class="edge">
<title>Node8&#45;&gt;Node4</title>
<g id="a_edge8_Node000008_Node000004"><a xlink:title=" ">
<path fill="none" stroke="#63b8ff" d="M349.35,-9.5C373.73,-9.5 401.89,-9.5 424.71,-9.5"/>
<polygon fill="#63b8ff" stroke="#63b8ff" points="424.79,-13 434.79,-9.5 424.79,-6 424.79,-13"/>
</a>
</g>
</g>
</g>
</svg>
