<?xml version="1.0" encoding="UTF-8" standalone="no"?>
<!DOCTYPE svg PUBLIC "-//W3C//DTD SVG 1.1//EN"
 "http://www.w3.org/Graphics/SVG/1.1/DTD/svg11.dtd">
<!-- Generated by graphviz version 2.43.0 (0)
 -->
<!-- Title: hal_iic_stm32.h Pages: 1 -->
<svg width="586pt" height="192pt"
 viewBox="0.00 0.00 585.50 192.00" xmlns="http://www.w3.org/2000/svg" xmlns:xlink="http://www.w3.org/1999/xlink">
<g id="graph0" class="graph" transform="scale(1 1) rotate(0) translate(4 188)">
<title>hal_iic_stm32.h</title>
<!-- Node1 -->
<g id="Node000001" class="node">
<title>Node1</title>
<g id="a_Node000001"><a xlink:title=" ">
<polygon fill="#999999" stroke="#666666" points="270,-184 177,-184 177,-165 270,-165 270,-184"/>
<text text-anchor="middle" x="223.5" y="-172" font-family="Helvetica,sans-Serif" font-size="10.00">hal_iic_stm32.h</text>
</a>
</g>
</g>
<!-- Node2 -->
<g id="Node000002" class="node">
<title>Node2</title>
<g id="a_Node000002"><a xlink:title=" ">
<polygon fill="#e0e0e0" stroke="#999999" points="187.5,-74 75.5,-74 75.5,-55 187.5,-55 187.5,-74"/>
<text text-anchor="middle" x="131.5" y="-62" font-family="Helvetica,sans-Serif" font-size="10.00">board/mcu_config.h</text>
</a>
</g>
</g>
<!-- Node1&#45;&gt;Node2 -->
<g id="edge1_Node000001_Node000002" class="edge">
<title>Node1&#45;&gt;Node2</title>
<g id="a_edge1_Node000001_Node000002"><a xlink:title=" ">
<path fill="none" stroke="#63b8ff" d="M215.97,-164.66C200.6,-146.61 165.38,-105.28 145.62,-82.08"/>
<polygon fill="#63b8ff" stroke="#63b8ff" points="148.02,-79.5 138.88,-74.16 142.7,-84.04 148.02,-79.5"/>
</a>
</g>
</g>
<!-- Node3 -->
<g id="Node000003" class="node">
<title>Node3</title>
<g id="a_Node000003"><a xlink:href="drv__handle_8h.html" target="_top" xlink:title=" ">
<polygon fill="white" stroke="#666666" points="373.5,-129 257.5,-129 257.5,-110 373.5,-110 373.5,-129"/>
<text text-anchor="middle" x="315.5" y="-117" font-family="Helvetica,sans-Serif" font-size="10.00">drivers/drv_handle.h</text>
</a>
</g>
</g>
<!-- Node1&#45;&gt;Node3 -->
<g id="edge2_Node000001_Node000003" class="edge">
<title>Node1&#45;&gt;Node3</title>
<g id="a_edge2_Node000001_Node000003"><a xlink:title=" ">
<path fill="none" stroke="#63b8ff" d="M238.28,-164.98C252.68,-156.69 274.81,-143.94 291.69,-134.22"/>
<polygon fill="#63b8ff" stroke="#63b8ff" points="293.53,-137.19 300.45,-129.17 290.04,-131.13 293.53,-137.19"/>
</a>
</g>
</g>
<!-- Node3&#45;&gt;Node2 -->
<g id="edge12_Node000003_Node000002" class="edge">
<title>Node3&#45;&gt;Node2</title>
<g id="a_edge12_Node000003_Node000002"><a xlink:title=" ">
<path fill="none" stroke="#63b8ff" d="M285.94,-109.98C254.78,-101.01 205.53,-86.82 171.04,-76.89"/>
<polygon fill="#63b8ff" stroke="#63b8ff" points="171.87,-73.49 161.29,-74.08 169.93,-80.21 171.87,-73.49"/>
</a>
</g>
</g>
<!-- Node4 -->
<g id="Node000004" class="node">
<title>Node4</title>
<g id="a_Node000004"><a xlink:href="def__std_8h.html" target="_top" xlink:title=" ">
<polygon fill="white" stroke="#666666" points="267.5,-74 205.5,-74 205.5,-55 267.5,-55 267.5,-74"/>
<text text-anchor="middle" x="236.5" y="-62" font-family="Helvetica,sans-Serif" font-size="10.00">def_std.h</text>
</a>
</g>
</g>
<!-- Node3&#45;&gt;Node4 -->
<g id="edge3_Node000003_Node000004" class="edge">
<title>Node3&#45;&gt;Node4</title>
<g id="a_edge3_Node000003_Node000004"><a xlink:title=" ">
<path fill="none" stroke="#63b8ff" d="M302.81,-109.98C290.67,-101.84 272.14,-89.41 257.75,-79.76"/>
<polygon fill="#63b8ff" stroke="#63b8ff" points="259.68,-76.84 249.42,-74.17 255.78,-82.65 259.68,-76.84"/>
</a>
</g>
</g>
<!-- Node12 -->
<g id="Node000012" class="node">
<title>Node12</title>
<g id="a_Node000012"><a xlink:href="def__err_8h.html" target="_top" xlink:title=" ">
<polygon fill="white" stroke="#666666" points="345,-74 286,-74 286,-55 345,-55 345,-74"/>
<text text-anchor="middle" x="315.5" y="-62" font-family="Helvetica,sans-Serif" font-size="10.00">def_err.h</text>
</a>
</g>
</g>
<!-- Node3&#45;&gt;Node12 -->
<g id="edge11_Node000003_Node000012" class="edge">
<title>Node3&#45;&gt;Node12</title>
<g id="a_edge11_Node000003_Node000012"><a xlink:title=" ">
<path fill="none" stroke="#63b8ff" d="M315.5,-109.75C315.5,-102.8 315.5,-92.85 315.5,-84.13"/>
<polygon fill="#63b8ff" stroke="#63b8ff" points="319,-84.09 315.5,-74.09 312,-84.09 319,-84.09"/>
</a>
</g>
</g>
<!-- Node13 -->
<g id="Node000013" class="node">
<title>Node13</title>
<g id="a_Node000013"><a xlink:title=" ">
<polygon fill="#e0e0e0" stroke="#999999" points="435.5,-74 363.5,-74 363.5,-55 435.5,-55 435.5,-74"/>
<text text-anchor="middle" x="399.5" y="-62" font-family="Helvetica,sans-Serif" font-size="10.00">FreeRTOS.h</text>
</a>
</g>
</g>
<!-- Node3&#45;&gt;Node13 -->
<g id="edge13_Node000003_Node000013" class="edge">
<title>Node3&#45;&gt;Node13</title>
<g id="a_edge13_Node000003_Node000013"><a xlink:title=" ">
<path fill="none" stroke="#63b8ff" d="M329,-109.98C341.9,-101.84 361.6,-89.41 376.9,-79.76"/>
<polygon fill="#63b8ff" stroke="#63b8ff" points="379.17,-82.47 385.76,-74.17 375.43,-76.55 379.17,-82.47"/>
</a>
</g>
</g>
<!-- Node14 -->
<g id="Node000014" class="node">
<title>Node14</title>
<g id="a_Node000014"><a xlink:title=" ">
<polygon fill="#e0e0e0" stroke="#999999" points="501,-74 454,-74 454,-55 501,-55 501,-74"/>
<text text-anchor="middle" x="477.5" y="-62" font-family="Helvetica,sans-Serif" font-size="10.00">task.h</text>
</a>
</g>
</g>
<!-- Node3&#45;&gt;Node14 -->
<g id="edge14_Node000003_Node000014" class="edge">
<title>Node3&#45;&gt;Node14</title>
<g id="a_edge14_Node000003_Node000014"><a xlink:title=" ">
<path fill="none" stroke="#63b8ff" d="M341.53,-109.98C369.41,-100.86 413.75,-86.36 444.17,-76.4"/>
<polygon fill="#63b8ff" stroke="#63b8ff" points="445.49,-79.65 453.91,-73.22 443.31,-73 445.49,-79.65"/>
</a>
</g>
</g>
<!-- Node15 -->
<g id="Node000015" class="node">
<title>Node15</title>
<g id="a_Node000015"><a xlink:title=" ">
<polygon fill="#e0e0e0" stroke="#999999" points="577.5,-74 519.5,-74 519.5,-55 577.5,-55 577.5,-74"/>
<text text-anchor="middle" x="548.5" y="-62" font-family="Helvetica,sans-Serif" font-size="10.00">device.h</text>
</a>
</g>
</g>
<!-- Node3&#45;&gt;Node15 -->
<g id="edge15_Node000003_Node000015" class="edge">
<title>Node3&#45;&gt;Node15</title>
<g id="a_edge15_Node000003_Node000015"><a xlink:title=" ">
<path fill="none" stroke="#63b8ff" d="M352.94,-109.98C395.81,-100.23 465.73,-84.33 509.32,-74.41"/>
<polygon fill="#63b8ff" stroke="#63b8ff" points="510.3,-77.78 519.27,-72.15 508.74,-70.95 510.3,-77.78"/>
</a>
</g>
</g>
<!-- Node5 -->
<g id="Node000005" class="node">
<title>Node5</title>
<g id="a_Node000005"><a xlink:title=" ">
<polygon fill="#e0e0e0" stroke="#999999" points="53,-19 0,-19 0,0 53,0 53,-19"/>
<text text-anchor="middle" x="26.5" y="-7" font-family="Helvetica,sans-Serif" font-size="10.00">stdlib.h</text>
</a>
</g>
</g>
<!-- Node4&#45;&gt;Node5 -->
<g id="edge4_Node000004_Node000005" class="edge">
<title>Node4&#45;&gt;Node5</title>
<g id="a_edge4_Node000004_Node000005"><a xlink:title=" ">
<path fill="none" stroke="#63b8ff" d="M205.06,-55.57C167.06,-45.98 103.24,-29.87 63.07,-19.73"/>
<polygon fill="#63b8ff" stroke="#63b8ff" points="63.71,-16.28 53.15,-17.23 61.99,-23.07 63.71,-16.28"/>
</a>
</g>
</g>
<!-- Node6 -->
<g id="Node000006" class="node">
<title>Node6</title>
<g id="a_Node000006"><a xlink:title=" ">
<polygon fill="#e0e0e0" stroke="#999999" points="122,-19 71,-19 71,0 122,0 122,-19"/>
<text text-anchor="middle" x="96.5" y="-7" font-family="Helvetica,sans-Serif" font-size="10.00">errno.h</text>
</a>
</g>
</g>
<!-- Node4&#45;&gt;Node6 -->
<g id="edge5_Node000004_Node000006" class="edge">
<title>Node4&#45;&gt;Node6</title>
<g id="a_edge5_Node000004_Node000006"><a xlink:title=" ">
<path fill="none" stroke="#63b8ff" d="M214.01,-54.98C190.98,-46.27 154.96,-32.63 128.87,-22.75"/>
<polygon fill="#63b8ff" stroke="#63b8ff" points="129.99,-19.44 119.4,-19.17 127.52,-25.98 129.99,-19.44"/>
</a>
</g>
</g>
<!-- Node7 -->
<g id="Node000007" class="node">
<title>Node7</title>
<g id="a_Node000007"><a xlink:title=" ">
<polygon fill="#e0e0e0" stroke="#999999" points="190.5,-19 140.5,-19 140.5,0 190.5,0 190.5,-19"/>
<text text-anchor="middle" x="165.5" y="-7" font-family="Helvetica,sans-Serif" font-size="10.00">stdio.h</text>
</a>
</g>
</g>
<!-- Node4&#45;&gt;Node7 -->
<g id="edge6_Node000004_Node000007" class="edge">
<title>Node4&#45;&gt;Node7</title>
<g id="a_edge6_Node000004_Node000007"><a xlink:title=" ">
<path fill="none" stroke="#63b8ff" d="M225.09,-54.98C214.39,-47 198.16,-34.88 185.34,-25.31"/>
<polygon fill="#63b8ff" stroke="#63b8ff" points="187.22,-22.35 177.11,-19.17 183.03,-27.96 187.22,-22.35"/>
</a>
</g>
</g>
<!-- Node8 -->
<g id="Node000008" class="node">
<title>Node8</title>
<g id="a_Node000008"><a xlink:title=" ">
<polygon fill="#e0e0e0" stroke="#999999" points="264,-19 209,-19 209,0 264,0 264,-19"/>
<text text-anchor="middle" x="236.5" y="-7" font-family="Helvetica,sans-Serif" font-size="10.00">signal.h</text>
</a>
</g>
</g>
<!-- Node4&#45;&gt;Node8 -->
<g id="edge7_Node000004_Node000008" class="edge">
<title>Node4&#45;&gt;Node8</title>
<g id="a_edge7_Node000004_Node000008"><a xlink:title=" ">
<path fill="none" stroke="#63b8ff" d="M236.5,-54.75C236.5,-47.8 236.5,-37.85 236.5,-29.13"/>
<polygon fill="#63b8ff" stroke="#63b8ff" points="240,-29.09 236.5,-19.09 233,-29.09 240,-29.09"/>
</a>
</g>
</g>
<!-- Node9 -->
<g id="Node000009" class="node">
<title>Node9</title>
<g id="a_Node000009"><a xlink:title=" ">
<polygon fill="#e0e0e0" stroke="#999999" points="330.5,-19 282.5,-19 282.5,0 330.5,0 330.5,-19"/>
<text text-anchor="middle" x="306.5" y="-7" font-family="Helvetica,sans-Serif" font-size="10.00">time.h</text>
</a>
</g>
</g>
<!-- Node4&#45;&gt;Node9 -->
<g id="edge8_Node000004_Node000009" class="edge">
<title>Node4&#45;&gt;Node9</title>
<g id="a_edge8_Node000004_Node000009"><a xlink:title=" ">
<path fill="none" stroke="#63b8ff" d="M247.75,-54.98C258.3,-47 274.3,-34.88 286.94,-25.31"/>
<polygon fill="#63b8ff" stroke="#63b8ff" points="289.19,-28 295.05,-19.17 284.96,-22.42 289.19,-28"/>
</a>
</g>
</g>
<!-- Node10 -->
<g id="Node000010" class="node">
<title>Node10</title>
<g id="a_Node000010"><a xlink:title=" ">
<polygon fill="#e0e0e0" stroke="#999999" points="402,-19 349,-19 349,0 402,0 402,-19"/>
<text text-anchor="middle" x="375.5" y="-7" font-family="Helvetica,sans-Serif" font-size="10.00">stdint.h</text>
</a>
</g>
</g>
<!-- Node4&#45;&gt;Node10 -->
<g id="edge9_Node000004_Node000010" class="edge">
<title>Node4&#45;&gt;Node10</title>
<g id="a_edge9_Node000004_Node000010"><a xlink:title=" ">
<path fill="none" stroke="#63b8ff" d="M258.83,-54.98C281.7,-46.27 317.46,-32.63 343.36,-22.75"/>
<polygon fill="#63b8ff" stroke="#63b8ff" points="344.66,-26 352.76,-19.17 342.17,-19.46 344.66,-26"/>
</a>
</g>
</g>
<!-- Node11 -->
<g id="Node000011" class="node">
<title>Node11</title>
<g id="a_Node000011"><a xlink:title=" ">
<polygon fill="#e0e0e0" stroke="#999999" points="485,-19 420,-19 420,0 485,0 485,-19"/>
<text text-anchor="middle" x="452.5" y="-7" font-family="Helvetica,sans-Serif" font-size="10.00">inttypes.h</text>
</a>
</g>
</g>
<!-- Node4&#45;&gt;Node11 -->
<g id="edge10_Node000004_Node000011" class="edge">
<title>Node4&#45;&gt;Node11</title>
<g id="a_edge10_Node000004_Node000011"><a xlink:title=" ">
<path fill="none" stroke="#63b8ff" d="M267.91,-55.79C305.42,-46.59 368.32,-31.16 410.11,-20.9"/>
<polygon fill="#63b8ff" stroke="#63b8ff" points="411.12,-24.26 419.99,-18.48 409.45,-17.46 411.12,-24.26"/>
</a>
</g>
</g>
</g>
</svg>
