<?xml version="1.0" encoding="UTF-8" standalone="no"?>
<!DOCTYPE svg PUBLIC "-//W3C//DTD SVG 1.1//EN"
 "http://www.w3.org/Graphics/SVG/1.1/DTD/svg11.dtd">
<!-- Generated by graphviz version 2.43.0 (0)
 -->
<!-- Title: _hal_to_os_err Pages: 1 -->
<svg width="256pt" height="286pt"
 viewBox="0.00 0.00 256.00 286.00" xmlns="http://www.w3.org/2000/svg" xmlns:xlink="http://www.w3.org/1999/xlink">

<svg id="main" version="1.1" xmlns="http://www.w3.org/2000/svg" xmlns:xlink="http://www.w3.org/1999/xlink" xml:space="preserve" onload="init(evt)">
<style type="text/css"><![CDATA[
.node, .edge {opacity: 0.7;}
.node.selected, .edge.selected {opacity: 1;}
.edge:hover path { stroke: red; }
.edge:hover polygon { stroke: red; fill: red; }
]]></style>
<script type="application/ecmascript" xlink:href="svg.min.js"/>
<svg id="graph" class="graph">
<g id="graph0" class="graph" transform="scale(1 1) rotate(0) translate(4 282)">
<title>_hal_to_os_err</title>
<!-- Node1 -->
<g id="Node000001" class="node">
<title>Node1</title>
<g id="a_Node000001"><a xlink:title=" ">
<polygon fill="#999999" stroke="#666666" points="248,-148 161,-148 161,-129 248,-129 248,-148"/>
<text text-anchor="middle" x="204.5" y="-136" font-family="Helvetica,sans-Serif" font-size="10.00">_hal_to_os_err</text>
</a>
</g>
</g>
<!-- Node2 -->
<g id="Node000002" class="node">
<title>Node2</title>
<g id="a_Node000002"><a xlink:href="hal__spi__stm32_8c.html#a89e313999ed40bcf217bb5193ca1f753" target="_top" xlink:title=" ">
<polygon fill="white" stroke="#666666" points="122,-278 3,-278 3,-259 122,-259 122,-278"/>
<text text-anchor="middle" x="62.5" y="-266" font-family="Helvetica,sans-Serif" font-size="10.00">stm32_spi_hw_deinit</text>
</a>
</g>
</g>
<!-- Node1&#45;&gt;Node2 -->
<g id="edge1_Node000001_Node000002" class="edge">
<title>Node1&#45;&gt;Node2</title>
<g id="a_edge1_Node000001_Node000002"><a xlink:title=" ">
<path fill="none" stroke="#63b8ff" d="M195.2,-157.44C183.27,-182.45 158.92,-226.18 125,-250.5 120.21,-253.94 114.76,-256.72 109.14,-258.98"/>
<polygon fill="#63b8ff" stroke="#63b8ff" points="198.42,-158.81 199.41,-148.26 192.06,-155.89 198.42,-158.81"/>
</a>
</g>
</g>
<!-- Node3 -->
<g id="Node000003" class="node">
<title>Node3</title>
<g id="a_Node000003"><a xlink:href="hal__spi__stm32_8c.html#a0799a6711c950ee3affb4ba4de43612f" target="_top" xlink:title=" ">
<polygon fill="white" stroke="#666666" points="116,-241 9,-241 9,-222 116,-222 116,-241"/>
<text text-anchor="middle" x="62.5" y="-229" font-family="Helvetica,sans-Serif" font-size="10.00">stm32_spi_hw_init</text>
</a>
</g>
</g>
<!-- Node1&#45;&gt;Node3 -->
<g id="edge2_Node000001_Node000003" class="edge">
<title>Node1&#45;&gt;Node3</title>
<g id="a_edge2_Node000001_Node000003"><a xlink:title=" ">
<path fill="none" stroke="#63b8ff" d="M189.47,-156.11C175.02,-173.13 150.99,-198.49 125,-213.5 119.12,-216.89 112.56,-219.69 105.96,-221.99"/>
<polygon fill="#63b8ff" stroke="#63b8ff" points="192.45,-158.01 196.12,-148.07 187.05,-153.55 192.45,-158.01"/>
</a>
</g>
</g>
<!-- Node4 -->
<g id="Node000004" class="node">
<title>Node4</title>
<g id="a_Node000004"><a xlink:href="hal__spi__stm32_8c.html#afdedd426007fe0d8cb129d14fb4638fb" target="_top" xlink:title=" ">
<polygon fill="white" stroke="#666666" points="116.5,-204 8.5,-204 8.5,-185 116.5,-185 116.5,-204"/>
<text text-anchor="middle" x="62.5" y="-192" font-family="Helvetica,sans-Serif" font-size="10.00">stm32_spi_receive</text>
</a>
</g>
</g>
<!-- Node1&#45;&gt;Node4 -->
<g id="edge3_Node000001_Node000004" class="edge">
<title>Node1&#45;&gt;Node4</title>
<g id="a_edge3_Node000001_Node000004"><a xlink:title=" ">
<path fill="none" stroke="#63b8ff" d="M176.63,-152.88C161.7,-160.52 142.62,-169.71 125,-176.5 117.01,-179.58 108.26,-182.44 99.93,-184.92"/>
<polygon fill="#63b8ff" stroke="#63b8ff" points="178.53,-155.84 185.79,-148.12 175.31,-149.62 178.53,-155.84"/>
</a>
</g>
</g>
<!-- Node5 -->
<g id="Node000005" class="node">
<title>Node5</title>
<g id="a_Node000005"><a xlink:href="hal__spi__stm32_8c.html#a30df629da71b0065dcc4bfa3366fc2c2" target="_top" xlink:title=" ">
<polygon fill="white" stroke="#666666" points="122.5,-167 2.5,-167 2.5,-148 122.5,-148 122.5,-167"/>
<text text-anchor="middle" x="62.5" y="-155" font-family="Helvetica,sans-Serif" font-size="10.00">stm32_spi_receive_it</text>
</a>
</g>
</g>
<!-- Node1&#45;&gt;Node5 -->
<g id="edge4_Node000001_Node000005" class="edge">
<title>Node1&#45;&gt;Node5</title>
<g id="a_edge4_Node000001_Node000005"><a xlink:title=" ">
<path fill="none" stroke="#63b8ff" d="M150.66,-145.67C141.55,-146.91 132.02,-148.2 122.76,-149.46"/>
<polygon fill="#63b8ff" stroke="#63b8ff" points="151.3,-149.12 160.73,-144.3 150.35,-142.18 151.3,-149.12"/>
</a>
</g>
</g>
<!-- Node6 -->
<g id="Node000006" class="node">
<title>Node6</title>
<g id="a_Node000006"><a xlink:href="hal__spi__stm32_8c.html#af597bd98956ef5cf7aaf28f1db5a3c7b" target="_top" xlink:title=" ">
<polygon fill="white" stroke="#666666" points="117.5,-130 7.5,-130 7.5,-111 117.5,-111 117.5,-130"/>
<text text-anchor="middle" x="62.5" y="-118" font-family="Helvetica,sans-Serif" font-size="10.00">stm32_spi_transfer</text>
</a>
</g>
</g>
<!-- Node1&#45;&gt;Node6 -->
<g id="edge5_Node000001_Node000006" class="edge">
<title>Node1&#45;&gt;Node6</title>
<g id="a_edge5_Node000001_Node000006"><a xlink:title=" ">
<path fill="none" stroke="#63b8ff" d="M150.61,-131.7C139.83,-130.31 128.47,-128.85 117.65,-127.46"/>
<polygon fill="#63b8ff" stroke="#63b8ff" points="150.37,-135.2 160.73,-133 151.26,-128.25 150.37,-135.2"/>
</a>
</g>
</g>
<!-- Node7 -->
<g id="Node000007" class="node">
<title>Node7</title>
<g id="a_Node000007"><a xlink:href="hal__spi__stm32_8c.html#abb0f30f8260336fd4f4f5d56e03ab982" target="_top" xlink:title=" ">
<polygon fill="white" stroke="#666666" points="123.5,-93 1.5,-93 1.5,-74 123.5,-74 123.5,-93"/>
<text text-anchor="middle" x="62.5" y="-81" font-family="Helvetica,sans-Serif" font-size="10.00">stm32_spi_transfer_it</text>
</a>
</g>
</g>
<!-- Node1&#45;&gt;Node7 -->
<g id="edge6_Node000001_Node000007" class="edge">
<title>Node1&#45;&gt;Node7</title>
<g id="a_edge6_Node000001_Node000007"><a xlink:title=" ">
<path fill="none" stroke="#63b8ff" d="M175.32,-124.5C160.54,-117.43 142,-108.99 125,-102.5 116.13,-99.11 106.37,-95.88 97.28,-93.07"/>
<polygon fill="#63b8ff" stroke="#63b8ff" points="173.92,-127.7 184.44,-128.91 176.97,-121.4 173.92,-127.7"/>
</a>
</g>
</g>
<!-- Node8 -->
<g id="Node000008" class="node">
<title>Node8</title>
<g id="a_Node000008"><a xlink:href="hal__spi__stm32_8c.html#a7b09a1584aa1380fa06fb04732c9c03f" target="_top" xlink:title=" ">
<polygon fill="white" stroke="#666666" points="119,-56 6,-56 6,-37 119,-37 119,-56"/>
<text text-anchor="middle" x="62.5" y="-44" font-family="Helvetica,sans-Serif" font-size="10.00">stm32_spi_transmit</text>
</a>
</g>
</g>
<!-- Node1&#45;&gt;Node8 -->
<g id="edge7_Node000001_Node000008" class="edge">
<title>Node1&#45;&gt;Node8</title>
<g id="a_edge7_Node000001_Node000008"><a xlink:title=" ">
<path fill="none" stroke="#63b8ff" d="M189.09,-121.19C174.51,-104.7 150.52,-80.26 125,-65.5 118.42,-61.7 111,-58.57 103.64,-56.03"/>
<polygon fill="#63b8ff" stroke="#63b8ff" points="186.64,-123.71 195.82,-129 191.95,-119.14 186.64,-123.71"/>
</a>
</g>
</g>
<!-- Node9 -->
<g id="Node000009" class="node">
<title>Node9</title>
<g id="a_Node000009"><a xlink:href="hal__spi__stm32_8c.html#a455c65aa092bf95cb1e347b325c47e4a" target="_top" xlink:title=" ">
<polygon fill="white" stroke="#666666" points="125,-19 0,-19 0,0 125,0 125,-19"/>
<text text-anchor="middle" x="62.5" y="-7" font-family="Helvetica,sans-Serif" font-size="10.00">stm32_spi_transmit_it</text>
</a>
</g>
</g>
<!-- Node1&#45;&gt;Node9 -->
<g id="edge8_Node000001_Node000009" class="edge">
<title>Node1&#45;&gt;Node9</title>
<g id="a_edge8_Node000001_Node000009"><a xlink:title=" ">
<path fill="none" stroke="#63b8ff" d="M194.89,-119.65C182.75,-95.11 158.29,-52.53 125,-28.5 119.65,-24.64 113.51,-21.55 107.21,-19.08"/>
<polygon fill="#63b8ff" stroke="#63b8ff" points="191.87,-121.44 199.34,-128.95 198.19,-118.42 191.87,-121.44"/>
</a>
</g>
</g>
</g>
</svg>
</svg>

<style type='text/css'>
<![CDATA[
[data-mouse-over-selected='false'] { opacity: 0.7; }
[data-mouse-over-selected='true']  { opacity: 1.0; }
]]>
</style>
<script type="application/ecmascript"><![CDATA[
document.addEventListener('DOMContentLoaded', (event) => {
  highlightEdges();
  highlightAdjacentNodes();
});
]]></script>
</svg>
