<?xml version="1.0" encoding="UTF-8" standalone="no"?>
<!DOCTYPE svg PUBLIC "-//W3C//DTD SVG 1.1//EN"
 "http://www.w3.org/Graphics/SVG/1.1/DTD/svg11.dtd">
<!-- Generated by graphviz version 2.43.0 (0)
 -->
<!-- Title: hal_uart_stm32_set_config Pages: 1 -->
<svg width="693pt" height="38pt"
 viewBox="0.00 0.00 693.00 38.00" xmlns="http://www.w3.org/2000/svg" xmlns:xlink="http://www.w3.org/1999/xlink">
<g id="graph0" class="graph" transform="scale(1 1) rotate(0) translate(4 34)">
<title>hal_uart_stm32_set_config</title>
<!-- Node1 -->
<g id="Node000001" class="node">
<title>Node1</title>
<g id="a_Node000001"><a xlink:title="Configure the STM32 peripheral parameters directly in the hw context before calling drv_uart_register...">
<polygon fill="#999999" stroke="#666666" points="685,-30 572,-30 572,0 685,0 685,-30"/>
<text text-anchor="start" x="580" y="-18" font-family="Helvetica,sans-Serif" font-size="10.00">hal_uart_stm32_set</text>
<text text-anchor="middle" x="628.5" y="-7" font-family="Helvetica,sans-Serif" font-size="10.00">_config</text>
</a>
</g>
</g>
<!-- Node2 -->
<g id="Node000002" class="node">
<title>Node2</title>
<g id="a_Node000002"><a xlink:href="uart__mgmt_8c.html#af8eff33b840c2e11d5bd889fd97c705a" target="_top" xlink:title=" ">
<polygon fill="white" stroke="#666666" points="536,-24.5 429,-24.5 429,-5.5 536,-5.5 536,-24.5"/>
<text text-anchor="middle" x="482.5" y="-12.5" font-family="Helvetica,sans-Serif" font-size="10.00">uart_mgmt_thread</text>
</a>
</g>
</g>
<!-- Node1&#45;&gt;Node2 -->
<g id="edge1_Node000001_Node000002" class="edge">
<title>Node1&#45;&gt;Node2</title>
<g id="a_edge1_Node000001_Node000002"><a xlink:title=" ">
<path fill="none" stroke="#63b8ff" d="M561.55,-15C553.05,-15 544.44,-15 536.19,-15"/>
<polygon fill="#63b8ff" stroke="#63b8ff" points="561.83,-18.5 571.83,-15 561.83,-11.5 561.83,-18.5"/>
</a>
</g>
</g>
<!-- Node3 -->
<g id="Node000003" class="node">
<title>Node3</title>
<g id="a_Node000003"><a xlink:href="uart__mgmt_8c.html#a8e8f570b41df4e77ed5acfbeaef25423" target="_top" xlink:title="Create and start the UART management thread.">
<polygon fill="white" stroke="#666666" points="393,-24.5 295,-24.5 295,-5.5 393,-5.5 393,-24.5"/>
<text text-anchor="middle" x="344" y="-12.5" font-family="Helvetica,sans-Serif" font-size="10.00">uart_mgmt_start</text>
</a>
</g>
</g>
<!-- Node2&#45;&gt;Node3 -->
<g id="edge2_Node000002_Node000003" class="edge">
<title>Node2&#45;&gt;Node3</title>
<g id="a_edge2_Node000002_Node000003"><a xlink:title=" ">
<path fill="none" stroke="#63b8ff" d="M418.45,-15C409.96,-15 401.35,-15 393.17,-15"/>
<polygon fill="#63b8ff" stroke="#63b8ff" points="418.73,-18.5 428.73,-15 418.73,-11.5 418.73,-18.5"/>
</a>
</g>
</g>
<!-- Node4 -->
<g id="Node000004" class="node">
<title>Node4</title>
<g id="a_Node000004"><a xlink:href="kernel__service__core_8c.html#a77b96ca30dab7f5f8e84daae1ed8f183" target="_top" xlink:title=" ">
<polygon fill="white" stroke="#666666" points="259,-24.5 116,-24.5 116,-5.5 259,-5.5 259,-24.5"/>
<text text-anchor="middle" x="187.5" y="-12.5" font-family="Helvetica,sans-Serif" font-size="10.00">os_kernel_thread_register</text>
</a>
</g>
</g>
<!-- Node3&#45;&gt;Node4 -->
<g id="edge3_Node000003_Node000004" class="edge">
<title>Node3&#45;&gt;Node4</title>
<g id="a_edge3_Node000003_Node000004"><a xlink:title=" ">
<path fill="none" stroke="#63b8ff" d="M284.91,-15C276.52,-15 267.8,-15 259.19,-15"/>
<polygon fill="#63b8ff" stroke="#63b8ff" points="284.96,-18.5 294.96,-15 284.96,-11.5 284.96,-18.5"/>
</a>
</g>
</g>
<!-- Node5 -->
<g id="Node000005" class="node">
<title>Node5</title>
<g id="a_Node000005"><a xlink:href="main_8c.html#ab1eba6ea917a2135efde6edb0de4baef" target="_top" xlink:title=" ">
<polygon fill="white" stroke="#666666" points="80,-24.5 0,-24.5 0,-5.5 80,-5.5 80,-24.5"/>
<text text-anchor="middle" x="40" y="-12.5" font-family="Helvetica,sans-Serif" font-size="10.00">__attribute__</text>
</a>
</g>
</g>
<!-- Node4&#45;&gt;Node5 -->
<g id="edge4_Node000004_Node000005" class="edge">
<title>Node4&#45;&gt;Node5</title>
<g id="a_edge4_Node000004_Node000005"><a xlink:title=" ">
<path fill="none" stroke="#63b8ff" d="M105.79,-15C96.9,-15 88.16,-15 80.12,-15"/>
<polygon fill="#63b8ff" stroke="#63b8ff" points="105.88,-18.5 115.88,-15 105.88,-11.5 105.88,-18.5"/>
</a>
</g>
</g>
</g>
</svg>
