<?xml version="1.0" encoding="UTF-8" standalone="no"?>
<!DOCTYPE svg PUBLIC "-//W3C//DTD SVG 1.1//EN"
 "http://www.w3.org/Graphics/SVG/1.1/DTD/svg11.dtd">
<!-- Generated by graphviz version 2.43.0 (0)
 -->
<!-- Title: hal_rcc_stm32.c Pages: 1 -->
<svg width="511pt" height="203pt"
 viewBox="0.00 0.00 510.69 203.00" xmlns="http://www.w3.org/2000/svg" xmlns:xlink="http://www.w3.org/1999/xlink">
<g id="graph0" class="graph" transform="scale(1 1) rotate(0) translate(4 199)">
<title>hal_rcc_stm32.c</title>
<!-- Node1 -->
<g id="Node000001" class="node">
<title>Node1</title>
<g id="a_Node000001"><a xlink:title="STM32 RCC + CMSIS system initialization backend.">
<polygon fill="#999999" stroke="#666666" points="291.5,-195 196.5,-195 196.5,-176 291.5,-176 291.5,-195"/>
<text text-anchor="middle" x="244" y="-183" font-family="Helvetica,sans-Serif" font-size="10.00">hal_rcc_stm32.c</text>
</a>
</g>
</g>
<!-- Node2 -->
<g id="Node000002" class="node">
<title>Node2</title>
<g id="a_Node000002"><a xlink:title=" ">
<polygon fill="#e0e0e0" stroke="#999999" points="112,-134.5 0,-134.5 0,-115.5 112,-115.5 112,-134.5"/>
<text text-anchor="middle" x="56" y="-122.5" font-family="Helvetica,sans-Serif" font-size="10.00">board/mcu_config.h</text>
</a>
</g>
</g>
<!-- Node1&#45;&gt;Node2 -->
<g id="edge1_Node000001_Node000002" class="edge">
<title>Node1&#45;&gt;Node2</title>
<g id="a_edge1_Node000001_Node000002"><a xlink:title=" ">
<path fill="none" stroke="#63b8ff" d="M216.66,-175.99C184.08,-165.86 129.49,-148.87 93.11,-137.55"/>
<polygon fill="#63b8ff" stroke="#63b8ff" points="93.96,-134.15 83.37,-134.52 91.88,-140.83 93.96,-134.15"/>
</a>
</g>
</g>
<!-- Node3 -->
<g id="Node000003" class="node">
<title>Node3</title>
<g id="a_Node000003"><a xlink:title=" ">
<polygon fill="#e0e0e0" stroke="#999999" points="354.5,-19 301.5,-19 301.5,0 354.5,0 354.5,-19"/>
<text text-anchor="middle" x="328" y="-7" font-family="Helvetica,sans-Serif" font-size="10.00">stdint.h</text>
</a>
</g>
</g>
<!-- Node1&#45;&gt;Node3 -->
<g id="edge2_Node000001_Node000003" class="edge">
<title>Node1&#45;&gt;Node3</title>
<g id="a_edge2_Node000001_Node000003"><a xlink:title=" ">
<path fill="none" stroke="#63b8ff" d="M291.54,-182.69C354.63,-179.16 460.88,-168.98 485,-140 509.17,-110.96 507.78,-85.14 485,-55 470.51,-35.83 406.29,-22.53 364.61,-15.73"/>
<polygon fill="#63b8ff" stroke="#63b8ff" points="364.96,-12.25 354.54,-14.15 363.87,-19.16 364.96,-12.25"/>
</a>
</g>
</g>
<!-- Node4 -->
<g id="Node000004" class="node">
<title>Node4</title>
<g id="a_Node000004"><a xlink:title=" ">
<polygon fill="#e0e0e0" stroke="#999999" points="226,-134.5 168,-134.5 168,-115.5 226,-115.5 226,-134.5"/>
<text text-anchor="middle" x="197" y="-122.5" font-family="Helvetica,sans-Serif" font-size="10.00">device.h</text>
</a>
</g>
</g>
<!-- Node1&#45;&gt;Node4 -->
<g id="edge3_Node000001_Node000004" class="edge">
<title>Node1&#45;&gt;Node4</title>
<g id="a_edge3_Node000001_Node000004"><a xlink:title=" ">
<path fill="none" stroke="#63b8ff" d="M237.06,-175.87C230.05,-167.14 219.04,-153.43 210.33,-142.59"/>
<polygon fill="#63b8ff" stroke="#63b8ff" points="212.96,-140.27 203.96,-134.67 207.5,-144.66 212.96,-140.27"/>
</a>
</g>
</g>
<!-- Node5 -->
<g id="Node000005" class="node">
<title>Node5</title>
<g id="a_Node000005"><a xlink:href="def__attributes_8h.html" target="_top" xlink:title=" ">
<polygon fill="white" stroke="#666666" points="338,-134.5 244,-134.5 244,-115.5 338,-115.5 338,-134.5"/>
<text text-anchor="middle" x="291" y="-122.5" font-family="Helvetica,sans-Serif" font-size="10.00">def_attributes.h</text>
</a>
</g>
</g>
<!-- Node1&#45;&gt;Node5 -->
<g id="edge4_Node000001_Node000005" class="edge">
<title>Node1&#45;&gt;Node5</title>
<g id="a_edge4_Node000001_Node000005"><a xlink:title=" ">
<path fill="none" stroke="#63b8ff" d="M250.94,-175.87C257.95,-167.14 268.96,-153.43 277.67,-142.59"/>
<polygon fill="#63b8ff" stroke="#63b8ff" points="280.5,-144.66 284.04,-134.67 275.04,-140.27 280.5,-144.66"/>
</a>
</g>
</g>
<!-- Node6 -->
<g id="Node000006" class="node">
<title>Node6</title>
<g id="a_Node000006"><a xlink:href="def__err_8h.html" target="_top" xlink:title=" ">
<polygon fill="white" stroke="#666666" points="225.5,-19 166.5,-19 166.5,0 225.5,0 225.5,-19"/>
<text text-anchor="middle" x="196" y="-7" font-family="Helvetica,sans-Serif" font-size="10.00">def_err.h</text>
</a>
</g>
</g>
<!-- Node1&#45;&gt;Node6 -->
<g id="edge5_Node000001_Node000006" class="edge">
<title>Node1&#45;&gt;Node6</title>
<g id="a_edge5_Node000001_Node000006"><a xlink:title=" ">
<path fill="none" stroke="#63b8ff" d="M209.78,-175.93C191.29,-169.37 170.04,-158.24 159,-140 137,-103.66 164.87,-53.67 182.9,-27.71"/>
<polygon fill="#63b8ff" stroke="#63b8ff" points="185.95,-29.46 188.98,-19.31 180.28,-25.35 185.95,-29.46"/>
</a>
</g>
</g>
<!-- Node7 -->
<g id="Node000007" class="node">
<title>Node7</title>
<g id="a_Node000007"><a xlink:href="hal__rcc__stm32_8h.html" target="_top" xlink:title=" ">
<polygon fill="white" stroke="#666666" points="476,-140 356,-140 356,-110 476,-110 476,-140"/>
<text text-anchor="start" x="364" y="-128" font-family="Helvetica,sans-Serif" font-size="10.00">drivers/hal/stm32/hal</text>
<text text-anchor="middle" x="416" y="-117" font-family="Helvetica,sans-Serif" font-size="10.00">_rcc_stm32.h</text>
</a>
</g>
</g>
<!-- Node1&#45;&gt;Node7 -->
<g id="edge6_Node000001_Node000007" class="edge">
<title>Node1&#45;&gt;Node7</title>
<g id="a_edge6_Node000001_Node000007"><a xlink:title=" ">
<path fill="none" stroke="#63b8ff" d="M269.01,-175.99C294.09,-167.46 333.42,-154.09 365.09,-143.32"/>
<polygon fill="#63b8ff" stroke="#63b8ff" points="366.31,-146.6 374.65,-140.06 364.05,-139.97 366.31,-146.6"/>
</a>
</g>
</g>
<!-- Node7&#45;&gt;Node3 -->
<g id="edge7_Node000007_Node000003" class="edge">
<title>Node7&#45;&gt;Node3</title>
<g id="a_edge7_Node000007_Node000003"><a xlink:title=" ">
<path fill="none" stroke="#63b8ff" d="M389.18,-109.82C375.12,-101.17 358.66,-88.9 348,-74 338.44,-60.63 333.33,-42.53 330.67,-29.07"/>
<polygon fill="#63b8ff" stroke="#63b8ff" points="334.1,-28.34 328.98,-19.06 327.2,-29.51 334.1,-28.34"/>
</a>
</g>
</g>
<!-- Node8 -->
<g id="Node000008" class="node">
<title>Node8</title>
<g id="a_Node000008"><a xlink:title=" ">
<polygon fill="#e0e0e0" stroke="#999999" points="475.5,-74 356.5,-74 356.5,-55 475.5,-55 475.5,-74"/>
<text text-anchor="middle" x="416" y="-62" font-family="Helvetica,sans-Serif" font-size="10.00">board/board_config.h</text>
</a>
</g>
</g>
<!-- Node7&#45;&gt;Node8 -->
<g id="edge8_Node000007_Node000008" class="edge">
<title>Node7&#45;&gt;Node8</title>
<g id="a_edge8_Node000007_Node000008"><a xlink:title=" ">
<path fill="none" stroke="#63b8ff" d="M416,-109.84C416,-102.21 416,-92.7 416,-84.45"/>
<polygon fill="#63b8ff" stroke="#63b8ff" points="419.5,-84.27 416,-74.27 412.5,-84.27 419.5,-84.27"/>
</a>
</g>
</g>
<!-- Node9 -->
<g id="Node000009" class="node">
<title>Node9</title>
<g id="a_Node000009"><a xlink:href="drv__rcc_8h.html" target="_top" xlink:title=" ">
<polygon fill="white" stroke="#666666" points="300,-74 202,-74 202,-55 300,-55 300,-74"/>
<text text-anchor="middle" x="251" y="-62" font-family="Helvetica,sans-Serif" font-size="10.00">drivers/drv_rcc.h</text>
</a>
</g>
</g>
<!-- Node7&#45;&gt;Node9 -->
<g id="edge9_Node000007_Node000009" class="edge">
<title>Node7&#45;&gt;Node9</title>
<g id="a_edge9_Node000007_Node000009"><a xlink:title=" ">
<path fill="none" stroke="#63b8ff" d="M376.48,-109.99C348.58,-100.1 311.59,-86.98 285,-77.56"/>
<polygon fill="#63b8ff" stroke="#63b8ff" points="285.96,-74.18 275.37,-74.14 283.62,-80.78 285.96,-74.18"/>
</a>
</g>
</g>
<!-- Node9&#45;&gt;Node3 -->
<g id="edge10_Node000009_Node000003" class="edge">
<title>Node9&#45;&gt;Node3</title>
<g id="a_edge10_Node000009_Node000003"><a xlink:title=" ">
<path fill="none" stroke="#63b8ff" d="M263.37,-54.98C275.09,-46.92 292.92,-34.65 306.89,-25.03"/>
<polygon fill="#63b8ff" stroke="#63b8ff" points="309.15,-27.72 315.4,-19.17 305.18,-21.96 309.15,-27.72"/>
</a>
</g>
</g>
<!-- Node9&#45;&gt;Node6 -->
<g id="edge11_Node000009_Node000006" class="edge">
<title>Node9&#45;&gt;Node6</title>
<g id="a_edge11_Node000009_Node000006"><a xlink:title=" ">
<path fill="none" stroke="#63b8ff" d="M241.92,-54.75C233.91,-47.03 222.04,-35.6 212.38,-26.28"/>
<polygon fill="#63b8ff" stroke="#63b8ff" points="214.54,-23.51 204.91,-19.09 209.69,-28.55 214.54,-23.51"/>
</a>
</g>
</g>
</g>
</svg>
