<?xml version="1.0" encoding="UTF-8" standalone="no"?>
<!DOCTYPE svg PUBLIC "-//W3C//DTD SVG 1.1//EN"
 "http://www.w3.org/Graphics/SVG/1.1/DTD/svg11.dtd">
<!-- Generated by graphviz version 2.43.0 (0)
 -->
<!-- Title: hal_rcc_stm32.h Pages: 1 -->
<svg width="256pt" height="137pt"
 viewBox="0.00 0.00 256.24 137.00" xmlns="http://www.w3.org/2000/svg" xmlns:xlink="http://www.w3.org/1999/xlink">
<g id="graph0" class="graph" transform="scale(1 1) rotate(0) translate(4 133)">
<title>hal_rcc_stm32.h</title>
<!-- Node1 -->
<g id="Node000001" class="node">
<title>Node1</title>
<g id="a_Node000001"><a xlink:title=" ">
<polygon fill="#999999" stroke="#666666" points="120.24,-129 24.24,-129 24.24,-110 120.24,-110 120.24,-129"/>
<text text-anchor="middle" x="72.24" y="-117" font-family="Helvetica,sans-Serif" font-size="10.00">hal_rcc_stm32.h</text>
</a>
</g>
</g>
<!-- Node2 -->
<g id="Node000002" class="node">
<title>Node2</title>
<g id="a_Node000002"><a xlink:title=" ">
<polygon fill="#e0e0e0" stroke="#999999" points="81.74,-19 28.74,-19 28.74,0 81.74,0 81.74,-19"/>
<text text-anchor="middle" x="55.24" y="-7" font-family="Helvetica,sans-Serif" font-size="10.00">stdint.h</text>
</a>
</g>
</g>
<!-- Node1&#45;&gt;Node2 -->
<g id="edge1_Node000001_Node000002" class="edge">
<title>Node1&#45;&gt;Node2</title>
<g id="a_edge1_Node000001_Node000002"><a xlink:title=" ">
<path fill="none" stroke="#63b8ff" d="M47.78,-109.86C31.97,-102.85 12.66,-91.27 3.24,-74 -6.95,-55.29 12.51,-36.77 30.45,-24.61"/>
<polygon fill="#63b8ff" stroke="#63b8ff" points="32.44,-27.49 39.01,-19.17 28.69,-21.58 32.44,-27.49"/>
</a>
</g>
</g>
<!-- Node3 -->
<g id="Node000003" class="node">
<title>Node3</title>
<g id="a_Node000003"><a xlink:title=" ">
<polygon fill="#e0e0e0" stroke="#999999" points="131.74,-74 12.74,-74 12.74,-55 131.74,-55 131.74,-74"/>
<text text-anchor="middle" x="72.24" y="-62" font-family="Helvetica,sans-Serif" font-size="10.00">board/board_config.h</text>
</a>
</g>
</g>
<!-- Node1&#45;&gt;Node3 -->
<g id="edge2_Node000001_Node000003" class="edge">
<title>Node1&#45;&gt;Node3</title>
<g id="a_edge2_Node000001_Node000003"><a xlink:title=" ">
<path fill="none" stroke="#63b8ff" d="M72.24,-109.75C72.24,-102.8 72.24,-92.85 72.24,-84.13"/>
<polygon fill="#63b8ff" stroke="#63b8ff" points="75.74,-84.09 72.24,-74.09 68.74,-84.09 75.74,-84.09"/>
</a>
</g>
</g>
<!-- Node4 -->
<g id="Node000004" class="node">
<title>Node4</title>
<g id="a_Node000004"><a xlink:href="drv__rcc_8h.html" target="_top" xlink:title=" ">
<polygon fill="white" stroke="#666666" points="248.24,-74 150.24,-74 150.24,-55 248.24,-55 248.24,-74"/>
<text text-anchor="middle" x="199.24" y="-62" font-family="Helvetica,sans-Serif" font-size="10.00">drivers/drv_rcc.h</text>
</a>
</g>
</g>
<!-- Node1&#45;&gt;Node4 -->
<g id="edge3_Node000001_Node000004" class="edge">
<title>Node1&#45;&gt;Node4</title>
<g id="a_edge3_Node000001_Node000004"><a xlink:title=" ">
<path fill="none" stroke="#63b8ff" d="M92.65,-109.98C113.26,-101.38 145.35,-87.99 168.94,-78.15"/>
<polygon fill="#63b8ff" stroke="#63b8ff" points="170.59,-81.25 178.47,-74.17 167.89,-74.79 170.59,-81.25"/>
</a>
</g>
</g>
<!-- Node4&#45;&gt;Node2 -->
<g id="edge4_Node000004_Node000002" class="edge">
<title>Node4&#45;&gt;Node2</title>
<g id="a_edge4_Node000004_Node000002"><a xlink:title=" ">
<path fill="none" stroke="#63b8ff" d="M176.11,-54.98C152.42,-46.27 115.38,-32.63 88.54,-22.75"/>
<polygon fill="#63b8ff" stroke="#63b8ff" points="89.4,-19.34 78.8,-19.17 86.98,-25.91 89.4,-19.34"/>
</a>
</g>
</g>
<!-- Node5 -->
<g id="Node000005" class="node">
<title>Node5</title>
<g id="a_Node000005"><a xlink:href="def__err_8h.html" target="_top" xlink:title=" ">
<polygon fill="white" stroke="#666666" points="228.74,-19 169.74,-19 169.74,0 228.74,0 228.74,-19"/>
<text text-anchor="middle" x="199.24" y="-7" font-family="Helvetica,sans-Serif" font-size="10.00">def_err.h</text>
</a>
</g>
</g>
<!-- Node4&#45;&gt;Node5 -->
<g id="edge5_Node000004_Node000005" class="edge">
<title>Node4&#45;&gt;Node5</title>
<g id="a_edge5_Node000004_Node000005"><a xlink:title=" ">
<path fill="none" stroke="#63b8ff" d="M199.24,-54.75C199.24,-47.8 199.24,-37.85 199.24,-29.13"/>
<polygon fill="#63b8ff" stroke="#63b8ff" points="202.74,-29.09 199.24,-19.09 195.74,-29.09 202.74,-29.09"/>
</a>
</g>
</g>
</g>
</svg>
