<?xml version="1.0" encoding="UTF-8" standalone="no"?>
<!DOCTYPE svg PUBLIC "-//W3C//DTD SVG 1.1//EN"
 "http://www.w3.org/Graphics/SVG/1.1/DTD/svg11.dtd">
<!-- Generated by graphviz version 2.43.0 (0)
 -->
<!-- Title: hal_iic_stm32_ev_irq_handler Pages: 1 -->
<svg width="557pt" height="64pt"
 viewBox="0.00 0.00 557.00 64.00" xmlns="http://www.w3.org/2000/svg" xmlns:xlink="http://www.w3.org/1999/xlink">
<g id="graph0" class="graph" transform="scale(1 1) rotate(0) translate(4 60)">
<title>hal_iic_stm32_ev_irq_handler</title>
<!-- Node1 -->
<g id="Node000001" class="node">
<title>Node1</title>
<g id="a_Node000001"><a xlink:title="Called from I2Cx_EV_IRQHandler to dispatch HAL_I2C_EV_IRQHandler to whichever generic handle owns ins...">
<polygon fill="#999999" stroke="#666666" points="119,-42.5 0,-42.5 0,-12.5 119,-12.5 119,-42.5"/>
<text text-anchor="start" x="8" y="-30.5" font-family="Helvetica,sans-Serif" font-size="10.00">hal_iic_stm32_ev_irq</text>
<text text-anchor="middle" x="59.5" y="-19.5" font-family="Helvetica,sans-Serif" font-size="10.00">_handler</text>
</a>
</g>
</g>
<!-- Node2 -->
<g id="Node000002" class="node">
<title>Node2</title>
<g id="a_Node000002"><a xlink:href="drv__handle_8h.html#a1983afbd310179c3bb8777277f8f863d" target="_top" xlink:title=" ">
<polygon fill="white" stroke="#666666" points="280.5,-56 172.5,-56 172.5,-37 280.5,-37 280.5,-56"/>
<text text-anchor="middle" x="226.5" y="-44" font-family="Helvetica,sans-Serif" font-size="10.00">drv_iic_get_handle</text>
</a>
</g>
</g>
<!-- Node1&#45;&gt;Node2 -->
<g id="edge1_Node000001_Node000002" class="edge">
<title>Node1&#45;&gt;Node2</title>
<g id="a_edge1_Node000001_Node000002"><a xlink:title=" ">
<path fill="none" stroke="#63b8ff" d="M119.14,-34.25C133.08,-35.86 148.01,-37.58 162.15,-39.2"/>
<polygon fill="#63b8ff" stroke="#63b8ff" points="161.94,-42.7 172.28,-40.37 162.74,-35.75 161.94,-42.7"/>
</a>
</g>
</g>
<!-- Node3 -->
<g id="Node000003" class="node">
<title>Node3</title>
<g id="a_Node000003"><a xlink:href="drv__irq_8c.html#a104acd29a44e0545013a32f6585963e3" target="_top" xlink:title="Dispatch an IRQ event from ISR context. Each registered callback receives pxHPT so it can accumulate ...">
<polygon fill="white" stroke="#666666" points="298,-19 155,-19 155,0 298,0 298,-19"/>
<text text-anchor="middle" x="226.5" y="-7" font-family="Helvetica,sans-Serif" font-size="10.00">drv_irq_dispatch_from_isr</text>
</a>
</g>
</g>
<!-- Node1&#45;&gt;Node3 -->
<g id="edge2_Node000001_Node000003" class="edge">
<title>Node1&#45;&gt;Node3</title>
<g id="a_edge2_Node000001_Node000003"><a xlink:title=" ">
<path fill="none" stroke="#63b8ff" d="M119.14,-21.1C127.46,-20.2 136.14,-19.25 144.79,-18.31"/>
<polygon fill="#63b8ff" stroke="#63b8ff" points="145.34,-21.77 154.91,-17.2 144.59,-14.81 145.34,-21.77"/>
</a>
</g>
</g>
<!-- Node4 -->
<g id="Node000004" class="node">
<title>Node4</title>
<g id="a_Node000004"><a xlink:href="irq__desc_8c.html#ad30e8177b86aac1c40b8181fc0927b3c" target="_top" xlink:title=" ">
<polygon fill="white" stroke="#666666" points="441,-19 334,-19 334,0 441,0 441,-19"/>
<text text-anchor="middle" x="387.5" y="-7" font-family="Helvetica,sans-Serif" font-size="10.00">__do_IRQ_from_isr</text>
</a>
</g>
</g>
<!-- Node3&#45;&gt;Node4 -->
<g id="edge3_Node000003_Node000004" class="edge">
<title>Node3&#45;&gt;Node4</title>
<g id="a_edge3_Node000003_Node000004"><a xlink:title=" ">
<path fill="none" stroke="#63b8ff" d="M298.17,-9.5C306.66,-9.5 315.28,-9.5 323.65,-9.5"/>
<polygon fill="#63b8ff" stroke="#63b8ff" points="323.71,-13 333.71,-9.5 323.71,-6 323.71,-13"/>
</a>
</g>
</g>
<!-- Node5 -->
<g id="Node000005" class="node">
<title>Node5</title>
<g id="a_Node000005"><a xlink:href="irq__desc_8c.html#aaef6f6dd8053daf49e96ef43997f43bd" target="_top" xlink:title=" ">
<polygon fill="white" stroke="#666666" points="549,-19 477,-19 477,0 549,0 549,-19"/>
<text text-anchor="middle" x="513" y="-7" font-family="Helvetica,sans-Serif" font-size="10.00">irq_to_desc</text>
</a>
</g>
</g>
<!-- Node4&#45;&gt;Node5 -->
<g id="edge4_Node000004_Node000005" class="edge">
<title>Node4&#45;&gt;Node5</title>
<g id="a_edge4_Node000004_Node000005"><a xlink:title=" ">
<path fill="none" stroke="#63b8ff" d="M441.23,-9.5C449.72,-9.5 458.43,-9.5 466.72,-9.5"/>
<polygon fill="#63b8ff" stroke="#63b8ff" points="466.94,-13 476.94,-9.5 466.94,-6 466.94,-13"/>
</a>
</g>
</g>
</g>
</svg>
