<?xml version="1.0" encoding="UTF-8" standalone="no"?>
<!DOCTYPE svg PUBLIC "-//W3C//DTD SVG 1.1//EN"
 "http://www.w3.org/Graphics/SVG/1.1/DTD/svg11.dtd">
<!-- Generated by graphviz version 2.43.0 (0)
 -->
<!-- Title: hal_iic_stm32_er_irq_handler Pages: 1 -->
<svg width="555pt" height="64pt"
 viewBox="0.00 0.00 555.00 64.00" xmlns="http://www.w3.org/2000/svg" xmlns:xlink="http://www.w3.org/1999/xlink">
<g id="graph0" class="graph" transform="scale(1 1) rotate(0) translate(4 60)">
<title>hal_iic_stm32_er_irq_handler</title>
<!-- Node1 -->
<g id="Node000001" class="node">
<title>Node1</title>
<g id="a_Node000001"><a xlink:title="Called from I2Cx_ER_IRQHandler to dispatch HAL_I2C_ER_IRQHandler to whichever generic handle owns ins...">
<polygon fill="#999999" stroke="#666666" points="117,-42.5 0,-42.5 0,-12.5 117,-12.5 117,-42.5"/>
<text text-anchor="start" x="8" y="-30.5" font-family="Helvetica,sans-Serif" font-size="10.00">hal_iic_stm32_er_irq</text>
<text text-anchor="middle" x="58.5" y="-19.5" font-family="Helvetica,sans-Serif" font-size="10.00">_handler</text>
</a>
</g>
</g>
<!-- Node2 -->
<g id="Node000002" class="node">
<title>Node2</title>
<g id="a_Node000002"><a xlink:href="drv__handle_8h.html#a1983afbd310179c3bb8777277f8f863d" target="_top" xlink:title=" ">
<polygon fill="white" stroke="#666666" points="278.5,-56 170.5,-56 170.5,-37 278.5,-37 278.5,-56"/>
<text text-anchor="middle" x="224.5" y="-44" font-family="Helvetica,sans-Serif" font-size="10.00">drv_iic_get_handle</text>
</a>
</g>
</g>
<!-- Node1&#45;&gt;Node2 -->
<g id="edge1_Node000001_Node000002" class="edge">
<title>Node1&#45;&gt;Node2</title>
<g id="a_edge1_Node000001_Node000002"><a xlink:title=" ">
<path fill="none" stroke="#63b8ff" d="M117.32,-34.2C131.2,-35.81 146.09,-37.53 160.2,-39.17"/>
<polygon fill="#63b8ff" stroke="#63b8ff" points="159.98,-42.66 170.31,-40.34 160.78,-35.71 159.98,-42.66"/>
</a>
</g>
</g>
<!-- Node3 -->
<g id="Node000003" class="node">
<title>Node3</title>
<g id="a_Node000003"><a xlink:href="drv__irq_8c.html#a104acd29a44e0545013a32f6585963e3" target="_top" xlink:title="Dispatch an IRQ event from ISR context. Each registered callback receives pxHPT so it can accumulate ...">
<polygon fill="white" stroke="#666666" points="296,-19 153,-19 153,0 296,0 296,-19"/>
<text text-anchor="middle" x="224.5" y="-7" font-family="Helvetica,sans-Serif" font-size="10.00">drv_irq_dispatch_from_isr</text>
</a>
</g>
</g>
<!-- Node1&#45;&gt;Node3 -->
<g id="edge2_Node000001_Node000003" class="edge">
<title>Node1&#45;&gt;Node3</title>
<g id="a_edge2_Node000001_Node000003"><a xlink:title=" ">
<path fill="none" stroke="#63b8ff" d="M117.32,-21.15C125.61,-20.24 134.25,-19.3 142.88,-18.35"/>
<polygon fill="#63b8ff" stroke="#63b8ff" points="143.42,-21.81 152.97,-17.24 142.65,-14.85 143.42,-21.81"/>
</a>
</g>
</g>
<!-- Node4 -->
<g id="Node000004" class="node">
<title>Node4</title>
<g id="a_Node000004"><a xlink:href="irq__desc_8c.html#ad30e8177b86aac1c40b8181fc0927b3c" target="_top" xlink:title=" ">
<polygon fill="white" stroke="#666666" points="439,-19 332,-19 332,0 439,0 439,-19"/>
<text text-anchor="middle" x="385.5" y="-7" font-family="Helvetica,sans-Serif" font-size="10.00">__do_IRQ_from_isr</text>
</a>
</g>
</g>
<!-- Node3&#45;&gt;Node4 -->
<g id="edge3_Node000003_Node000004" class="edge">
<title>Node3&#45;&gt;Node4</title>
<g id="a_edge3_Node000003_Node000004"><a xlink:title=" ">
<path fill="none" stroke="#63b8ff" d="M296.17,-9.5C304.66,-9.5 313.28,-9.5 321.65,-9.5"/>
<polygon fill="#63b8ff" stroke="#63b8ff" points="321.71,-13 331.71,-9.5 321.71,-6 321.71,-13"/>
</a>
</g>
</g>
<!-- Node5 -->
<g id="Node000005" class="node">
<title>Node5</title>
<g id="a_Node000005"><a xlink:href="irq__desc_8c.html#aaef6f6dd8053daf49e96ef43997f43bd" target="_top" xlink:title=" ">
<polygon fill="white" stroke="#666666" points="547,-19 475,-19 475,0 547,0 547,-19"/>
<text text-anchor="middle" x="511" y="-7" font-family="Helvetica,sans-Serif" font-size="10.00">irq_to_desc</text>
</a>
</g>
</g>
<!-- Node4&#45;&gt;Node5 -->
<g id="edge4_Node000004_Node000005" class="edge">
<title>Node4&#45;&gt;Node5</title>
<g id="a_edge4_Node000004_Node000005"><a xlink:title=" ">
<path fill="none" stroke="#63b8ff" d="M439.23,-9.5C447.72,-9.5 456.43,-9.5 464.72,-9.5"/>
<polygon fill="#63b8ff" stroke="#63b8ff" points="464.94,-13 474.94,-9.5 464.94,-6 464.94,-13"/>
</a>
</g>
</g>
</g>
</svg>
