<?xml version="1.0" encoding="UTF-8" standalone="no"?>
<!DOCTYPE svg PUBLIC "-//W3C//DTD SVG 1.1//EN"
 "http://www.w3.org/Graphics/SVG/1.1/DTD/svg11.dtd">
<!-- Generated by graphviz version 2.43.0 (0)
 -->
<!-- Title: _hal_to_os_err Pages: 1 -->
<svg width="256pt" height="138pt"
 viewBox="0.00 0.00 256.00 138.00" xmlns="http://www.w3.org/2000/svg" xmlns:xlink="http://www.w3.org/1999/xlink">

<svg id="main" version="1.1" xmlns="http://www.w3.org/2000/svg" xmlns:xlink="http://www.w3.org/1999/xlink" xml:space="preserve" onload="init(evt)">
<style type="text/css"><![CDATA[
.node, .edge {opacity: 0.7;}
.node.selected, .edge.selected {opacity: 1;}
.edge:hover path { stroke: red; }
.edge:hover polygon { stroke: red; fill: red; }
]]></style>
<script type="application/ecmascript" xlink:href="svg.min.js"/>
<svg id="graph" class="graph">
<g id="graph0" class="graph" transform="scale(1 1) rotate(0) translate(4 134)">
<title>_hal_to_os_err</title>
<!-- Node1 -->
<g id="Node000001" class="node">
<title>Node1</title>
<g id="a_Node000001"><a xlink:title=" ">
<polygon fill="#999999" stroke="#666666" points="248,-74 161,-74 161,-55 248,-55 248,-74"/>
<text text-anchor="middle" x="204.5" y="-62" font-family="Helvetica,sans-Serif" font-size="10.00">_hal_to_os_err</text>
</a>
</g>
</g>
<!-- Node2 -->
<g id="Node000002" class="node">
<title>Node2</title>
<g id="a_Node000002"><a xlink:href="hal__uart__stm32_8c.html#a8e2813f8cafd9656d2d4be93ba7df60a" target="_top" xlink:title=" ">
<polygon fill="white" stroke="#666666" points="125,-130 0,-130 0,-111 125,-111 125,-130"/>
<text text-anchor="middle" x="62.5" y="-118" font-family="Helvetica,sans-Serif" font-size="10.00">stm32_uart_hw_deinit</text>
</a>
</g>
</g>
<!-- Node1&#45;&gt;Node2 -->
<g id="edge1_Node000001_Node000002" class="edge">
<title>Node1&#45;&gt;Node2</title>
<g id="a_edge1_Node000001_Node000002"><a xlink:title=" ">
<path fill="none" stroke="#63b8ff" d="M176.63,-78.88C161.7,-86.52 142.62,-95.71 125,-102.5 117.01,-105.58 108.26,-108.44 99.93,-110.92"/>
<polygon fill="#63b8ff" stroke="#63b8ff" points="178.53,-81.84 185.79,-74.12 175.31,-75.62 178.53,-81.84"/>
</a>
</g>
</g>
<!-- Node3 -->
<g id="Node000003" class="node">
<title>Node3</title>
<g id="a_Node000003"><a xlink:href="hal__uart__stm32_8c.html#ad6051285aff30b48f94a752d4b13db19" target="_top" xlink:title=" ">
<polygon fill="white" stroke="#666666" points="119,-93 6,-93 6,-74 119,-74 119,-93"/>
<text text-anchor="middle" x="62.5" y="-81" font-family="Helvetica,sans-Serif" font-size="10.00">stm32_uart_hw_init</text>
</a>
</g>
</g>
<!-- Node1&#45;&gt;Node3 -->
<g id="edge2_Node000001_Node000003" class="edge">
<title>Node1&#45;&gt;Node3</title>
<g id="a_edge2_Node000001_Node000003"><a xlink:title=" ">
<path fill="none" stroke="#63b8ff" d="M150.66,-71.67C140.37,-73.07 129.55,-74.54 119.17,-75.94"/>
<polygon fill="#63b8ff" stroke="#63b8ff" points="151.3,-75.12 160.73,-70.3 150.35,-68.18 151.3,-75.12"/>
</a>
</g>
</g>
<!-- Node4 -->
<g id="Node000004" class="node">
<title>Node4</title>
<g id="a_Node000004"><a xlink:href="hal__uart__stm32_8c.html#a9532c96165a6ef1b5e6dd648042525f0" target="_top" xlink:title=" ">
<polygon fill="white" stroke="#666666" points="119,-56 6,-56 6,-37 119,-37 119,-56"/>
<text text-anchor="middle" x="62.5" y="-44" font-family="Helvetica,sans-Serif" font-size="10.00">stm32_uart_receive</text>
</a>
</g>
</g>
<!-- Node1&#45;&gt;Node4 -->
<g id="edge3_Node000001_Node000004" class="edge">
<title>Node1&#45;&gt;Node4</title>
<g id="a_edge3_Node000001_Node000004"><a xlink:title=" ">
<path fill="none" stroke="#63b8ff" d="M150.66,-57.71C140.37,-56.38 129.55,-54.99 119.17,-53.66"/>
<polygon fill="#63b8ff" stroke="#63b8ff" points="150.37,-61.2 160.73,-59 151.26,-54.25 150.37,-61.2"/>
</a>
</g>
</g>
<!-- Node5 -->
<g id="Node000005" class="node">
<title>Node5</title>
<g id="a_Node000005"><a xlink:href="hal__uart__stm32_8c.html#ad8dd390f84c56f9de391eb4fb61e43c9" target="_top" xlink:title=" ">
<polygon fill="white" stroke="#666666" points="122,-19 3,-19 3,0 122,0 122,-19"/>
<text text-anchor="middle" x="62.5" y="-7" font-family="Helvetica,sans-Serif" font-size="10.00">stm32_uart_transmit</text>
</a>
</g>
</g>
<!-- Node1&#45;&gt;Node5 -->
<g id="edge4_Node000001_Node000005" class="edge">
<title>Node1&#45;&gt;Node5</title>
<g id="a_edge4_Node000001_Node000005"><a xlink:title=" ">
<path fill="none" stroke="#63b8ff" d="M175.32,-50.5C160.54,-43.43 142,-34.99 125,-28.5 116.13,-25.11 106.37,-21.88 97.28,-19.07"/>
<polygon fill="#63b8ff" stroke="#63b8ff" points="173.92,-53.7 184.44,-54.91 176.97,-47.4 173.92,-53.7"/>
</a>
</g>
</g>
</g>
</svg>
</svg>

<style type='text/css'>
<![CDATA[
[data-mouse-over-selected='false'] { opacity: 0.7; }
[data-mouse-over-selected='true']  { opacity: 1.0; }
]]>
</style>
<script type="application/ecmascript"><![CDATA[
document.addEventListener('DOMContentLoaded', (event) => {
  highlightEdges();
  highlightAdjacentNodes();
});
]]></script>
</svg>
