<?xml version="1.0" encoding="UTF-8" standalone="no"?>
<!DOCTYPE svg PUBLIC "-//W3C//DTD SVG 1.1//EN"
 "http://www.w3.org/Graphics/SVG/1.1/DTD/svg11.dtd">
<!-- Generated by graphviz version 2.43.0 (0)
 -->
<!-- Title: _slave_config Pages: 1 -->
<svg width="667pt" height="138pt"
 viewBox="0.00 0.00 667.00 138.00" xmlns="http://www.w3.org/2000/svg" xmlns:xlink="http://www.w3.org/1999/xlink">
<g id="graph0" class="graph" transform="scale(1 1) rotate(0) translate(4 134)">
<title>_slave_config</title>
<!-- Node1 -->
<g id="Node000001" class="node">
<title>Node1</title>
<g id="a_Node000001"><a xlink:title=" ">
<polygon fill="#999999" stroke="#666666" points="83,-74 0,-74 0,-55 83,-55 83,-74"/>
<text text-anchor="middle" x="41.5" y="-62" font-family="Helvetica,sans-Serif" font-size="10.00">_slave_config</text>
</a>
</g>
</g>
<!-- Node2 -->
<g id="Node000002" class="node">
<title>Node2</title>
<g id="a_Node000002"><a xlink:href="hal__dma__stm32_8c.html#ab91489c4e218b31fa158ae7fbafd6683" target="_top" xlink:title=" ">
<polygon fill="white" stroke="#666666" points="193,-130 127,-130 127,-111 193,-111 193,-130"/>
<text text-anchor="middle" x="160" y="-118" font-family="Helvetica,sans-Serif" font-size="10.00">_hal_align</text>
</a>
</g>
</g>
<!-- Node1&#45;&gt;Node2 -->
<g id="edge1_Node000001_Node000002" class="edge">
<title>Node1&#45;&gt;Node2</title>
<g id="a_edge1_Node000001_Node000002"><a xlink:title=" ">
<path fill="none" stroke="#63b8ff" d="M61.27,-74.07C76.69,-81.88 99.16,-93.11 119,-102.5 121.96,-103.9 125.05,-105.34 128.15,-106.76"/>
<polygon fill="#63b8ff" stroke="#63b8ff" points="126.79,-109.99 137.34,-110.93 129.68,-103.61 126.79,-109.99"/>
</a>
</g>
</g>
<!-- Node3 -->
<g id="Node000003" class="node">
<title>Node3</title>
<g id="a_Node000003"><a xlink:href="hal__dma__stm32_8c.html#a40fcd1481855f18e0dd34bec27af7f65" target="_top" xlink:title=" ">
<polygon fill="white" stroke="#666666" points="198.5,-93 121.5,-93 121.5,-74 198.5,-74 198.5,-93"/>
<text text-anchor="middle" x="160" y="-81" font-family="Helvetica,sans-Serif" font-size="10.00">_hal_cplt_cb</text>
</a>
</g>
</g>
<!-- Node1&#45;&gt;Node3 -->
<g id="edge2_Node000001_Node000003" class="edge">
<title>Node1&#45;&gt;Node3</title>
<g id="a_edge2_Node000001_Node000003"><a xlink:title=" ">
<path fill="none" stroke="#63b8ff" d="M83.25,-71.15C92.31,-72.62 101.99,-74.2 111.3,-75.72"/>
<polygon fill="#63b8ff" stroke="#63b8ff" points="110.77,-79.18 121.21,-77.34 111.9,-72.27 110.77,-79.18"/>
</a>
</g>
</g>
<!-- Node8 -->
<g id="Node000008" class="node">
<title>Node8</title>
<g id="a_Node000008"><a xlink:href="hal__dma__stm32_8c.html#aac7eff67ec9f98acaa582bbe5eafa3f2" target="_top" xlink:title=" ">
<polygon fill="white" stroke="#666666" points="187.5,-56 132.5,-56 132.5,-37 187.5,-37 187.5,-56"/>
<text text-anchor="middle" x="160" y="-44" font-family="Helvetica,sans-Serif" font-size="10.00">_hal_dir</text>
</a>
</g>
</g>
<!-- Node1&#45;&gt;Node8 -->
<g id="edge7_Node000001_Node000008" class="edge">
<title>Node1&#45;&gt;Node8</title>
<g id="a_edge7_Node000001_Node000008"><a xlink:title=" ">
<path fill="none" stroke="#63b8ff" d="M83.25,-58.2C95.96,-56.24 109.9,-54.09 122.32,-52.17"/>
<polygon fill="#63b8ff" stroke="#63b8ff" points="122.98,-55.61 132.33,-50.62 121.91,-48.69 122.98,-55.61"/>
</a>
</g>
</g>
<!-- Node9 -->
<g id="Node000009" class="node">
<title>Node9</title>
<g id="a_Node000009"><a xlink:href="hal__dma__stm32_8c.html#a5b15eb61eb2b8ebce42fbf717b1244c5" target="_top" xlink:title=" ">
<polygon fill="white" stroke="#666666" points="201,-19 119,-19 119,0 201,0 201,-19"/>
<text text-anchor="middle" x="160" y="-7" font-family="Helvetica,sans-Serif" font-size="10.00">_hal_error_cb</text>
</a>
</g>
</g>
<!-- Node1&#45;&gt;Node9 -->
<g id="edge8_Node000001_Node000009" class="edge">
<title>Node1&#45;&gt;Node9</title>
<g id="a_edge8_Node000001_Node000009"><a xlink:title=" ">
<path fill="none" stroke="#63b8ff" d="M61.92,-54.92C77.34,-47.36 99.48,-36.61 119,-27.5 121.97,-26.12 125.07,-24.69 128.17,-23.27"/>
<polygon fill="#63b8ff" stroke="#63b8ff" points="129.7,-26.42 137.36,-19.11 126.81,-20.05 129.7,-26.42"/>
</a>
</g>
</g>
<!-- Node4 -->
<g id="Node000004" class="node">
<title>Node4</title>
<g id="a_Node000004"><a xlink:href="drv__dma_8c.html#a98fb2a47d76acc4facd0d271f3896738" target="_top" xlink:title=" ">
<polygon fill="white" stroke="#666666" points="372,-88 237,-88 237,-69 372,-69 372,-88"/>
<text text-anchor="middle" x="304.5" y="-76" font-family="Helvetica,sans-Serif" font-size="10.00">dma_complete_callback</text>
</a>
</g>
</g>
<!-- Node3&#45;&gt;Node4 -->
<g id="edge3_Node000003_Node000004" class="edge">
<title>Node3&#45;&gt;Node4</title>
<g id="a_edge3_Node000003_Node000004"><a xlink:title=" ">
<path fill="none" stroke="#63b8ff" d="M198.81,-82.17C207.5,-81.87 217.05,-81.53 226.74,-81.19"/>
<polygon fill="#63b8ff" stroke="#63b8ff" points="226.98,-84.69 236.85,-80.84 226.73,-77.69 226.98,-84.69"/>
</a>
</g>
</g>
<!-- Node5 -->
<g id="Node000005" class="node">
<title>Node5</title>
<g id="a_Node000005"><a xlink:href="drv__dma_8c.html#ae80f74a7ebc0a8083170f7a78550b04d" target="_top" xlink:title=" ">
<polygon fill="white" stroke="#666666" points="516,-46 447,-46 447,-27 516,-27 516,-46"/>
<text text-anchor="middle" x="481.5" y="-34" font-family="Helvetica,sans-Serif" font-size="10.00">_desc_free</text>
</a>
</g>
</g>
<!-- Node4&#45;&gt;Node5 -->
<g id="edge4_Node000004_Node000005" class="edge">
<title>Node4&#45;&gt;Node5</title>
<g id="a_edge4_Node000004_Node000005"><a xlink:title=" ">
<path fill="none" stroke="#63b8ff" d="M345.21,-68.97C372.51,-62.42 408.77,-53.71 436.88,-46.97"/>
<polygon fill="#63b8ff" stroke="#63b8ff" points="437.93,-50.32 446.84,-44.58 436.3,-43.51 437.93,-50.32"/>
</a>
</g>
</g>
<!-- Node6 -->
<g id="Node000006" class="node">
<title>Node6</title>
<g id="a_Node000006"><a xlink:href="drv__dma_8c.html#a0adc2fd6fab28e2e68c0a9876f14b180" target="_top" xlink:title=" ">
<polygon fill="white" stroke="#666666" points="555,-88 408,-88 408,-69 555,-69 555,-88"/>
<text text-anchor="middle" x="481.5" y="-76" font-family="Helvetica,sans-Serif" font-size="10.00">dma_async_issue_pending</text>
</a>
</g>
</g>
<!-- Node4&#45;&gt;Node6 -->
<g id="edge5_Node000004_Node000006" class="edge">
<title>Node4&#45;&gt;Node6</title>
<g id="a_edge5_Node000004_Node000006"><a xlink:title=" ">
<path fill="none" stroke="#63b8ff" d="M372.16,-78.5C380.56,-78.5 389.23,-78.5 397.84,-78.5"/>
<polygon fill="#63b8ff" stroke="#63b8ff" points="397.9,-82 407.9,-78.5 397.9,-75 397.9,-82"/>
</a>
</g>
</g>
<!-- Node7 -->
<g id="Node000007" class="node">
<title>Node7</title>
<g id="a_Node000007"><a xlink:href="group__list__api.html#ga42ec4f71d5c7199de9b75f81b3f4e8ed" target="_top" xlink:title="Delete a node from the list.">
<polygon fill="white" stroke="#666666" points="659,-88 591,-88 591,-69 659,-69 659,-88"/>
<text text-anchor="middle" x="625" y="-76" font-family="Helvetica,sans-Serif" font-size="10.00">list_delete</text>
</a>
</g>
</g>
<!-- Node6&#45;&gt;Node7 -->
<g id="edge6_Node000006_Node000007" class="edge">
<title>Node6&#45;&gt;Node7</title>
<g id="a_edge6_Node000006_Node000007"><a xlink:title=" ">
<path fill="none" stroke="#63b8ff" d="M555.32,-78.5C563.99,-78.5 572.61,-78.5 580.67,-78.5"/>
<polygon fill="#63b8ff" stroke="#63b8ff" points="580.9,-82 590.9,-78.5 580.9,-75 580.9,-82"/>
</a>
</g>
</g>
<!-- Node10 -->
<g id="Node000010" class="node">
<title>Node10</title>
<g id="a_Node000010"><a xlink:href="drv__dma_8c.html#a174b15cf2c7b78b0fb99be21103c3b12" target="_top" xlink:title=" ">
<polygon fill="white" stroke="#666666" points="361,-37 248,-37 248,-18 361,-18 361,-37"/>
<text text-anchor="middle" x="304.5" y="-25" font-family="Helvetica,sans-Serif" font-size="10.00">dma_error_callback</text>
</a>
</g>
</g>
<!-- Node9&#45;&gt;Node10 -->
<g id="edge9_Node000009_Node000010" class="edge">
<title>Node9&#45;&gt;Node10</title>
<g id="a_edge9_Node000009_Node000010"><a xlink:title=" ">
<path fill="none" stroke="#63b8ff" d="M201.07,-14.56C212.51,-16.01 225.27,-17.62 237.81,-19.2"/>
<polygon fill="#63b8ff" stroke="#63b8ff" points="237.42,-22.68 247.78,-20.46 238.3,-15.74 237.42,-22.68"/>
</a>
</g>
</g>
<!-- Node10&#45;&gt;Node5 -->
<g id="edge10_Node000010_Node000005" class="edge">
<title>Node10&#45;&gt;Node5</title>
<g id="a_edge10_Node000010_Node000005"><a xlink:title=" ">
<path fill="none" stroke="#63b8ff" d="M361.35,-30.37C385.73,-31.63 413.89,-33.07 436.71,-34.25"/>
<polygon fill="#63b8ff" stroke="#63b8ff" points="436.62,-37.75 446.79,-34.77 436.98,-30.76 436.62,-37.75"/>
</a>
</g>
</g>
</g>
</svg>
