<?xml version="1.0" encoding="UTF-8" standalone="no"?>
<!DOCTYPE svg PUBLIC "-//W3C//DTD SVG 1.1//EN"
 "http://www.w3.org/Graphics/SVG/1.1/DTD/svg11.dtd">
<!-- Generated by graphviz version 2.43.0 (0)
 -->
<!-- Title: iic_mgmt.c Pages: 1 -->
<svg width="1239pt" height="258pt"
 viewBox="0.00 0.00 1239.00 258.00" xmlns="http://www.w3.org/2000/svg" xmlns:xlink="http://www.w3.org/1999/xlink">
<g id="graph0" class="graph" transform="scale(1 1) rotate(0) translate(4 254)">
<title>iic_mgmt.c</title>
<!-- Node1 -->
<g id="Node000001" class="node">
<title>Node1</title>
<g id="a_Node000001"><a xlink:title=" ">
<polygon fill="#999999" stroke="#666666" points="486.5,-250 415.5,-250 415.5,-231 486.5,-231 486.5,-250"/>
<text text-anchor="middle" x="451" y="-238" font-family="Helvetica,sans-Serif" font-size="10.00">iic_mgmt.c</text>
</a>
</g>
</g>
<!-- Node2 -->
<g id="Node000002" class="node">
<title>Node2</title>
<g id="a_Node000002"><a xlink:href="iic__mgmt_8h.html" target="_top" xlink:title=" ">
<polygon fill="white" stroke="#666666" points="441.5,-189.5 326.5,-189.5 326.5,-170.5 441.5,-170.5 441.5,-189.5"/>
<text text-anchor="middle" x="384" y="-177.5" font-family="Helvetica,sans-Serif" font-size="10.00">services/iic_mgmt.h</text>
</a>
</g>
</g>
<!-- Node1&#45;&gt;Node2 -->
<g id="edge1_Node000001_Node000002" class="edge">
<title>Node1&#45;&gt;Node2</title>
<g id="a_edge1_Node000001_Node000002"><a xlink:title=" ">
<path fill="none" stroke="#63b8ff" d="M441.11,-230.87C430.72,-221.8 414.16,-207.34 401.55,-196.32"/>
<polygon fill="#63b8ff" stroke="#63b8ff" points="403.76,-193.61 393.93,-189.67 399.16,-198.88 403.76,-193.61"/>
</a>
</g>
</g>
<!-- Node15 -->
<g id="Node000015" class="node">
<title>Node15</title>
<g id="a_Node000015"><a xlink:href="drv__handle_8h.html" target="_top" xlink:title=" ">
<polygon fill="white" stroke="#666666" points="325,-129 209,-129 209,-110 325,-110 325,-129"/>
<text text-anchor="middle" x="267" y="-117" font-family="Helvetica,sans-Serif" font-size="10.00">drivers/drv_handle.h</text>
</a>
</g>
</g>
<!-- Node1&#45;&gt;Node15 -->
<g id="edge43_Node000001_Node000015" class="edge">
<title>Node1&#45;&gt;Node15</title>
<g id="a_edge43_Node000001_Node000015"><a xlink:title=" ">
<path fill="none" stroke="#63b8ff" d="M415.31,-234.02C386.72,-228.19 346.76,-216.71 318,-195 298.32,-180.14 283.56,-155.4 275.12,-138.54"/>
<polygon fill="#63b8ff" stroke="#63b8ff" points="278.14,-136.75 270.68,-129.22 271.82,-139.76 278.14,-136.75"/>
</a>
</g>
</g>
<!-- Node20 -->
<g id="Node000020" class="node">
<title>Node20</title>
<g id="a_Node000020"><a xlink:href="kernel_8h.html" target="_top" xlink:title=" ">
<polygon fill="white" stroke="#666666" points="667,-189.5 597,-189.5 597,-170.5 667,-170.5 667,-189.5"/>
<text text-anchor="middle" x="632" y="-177.5" font-family="Helvetica,sans-Serif" font-size="10.00">os/kernel.h</text>
</a>
</g>
</g>
<!-- Node1&#45;&gt;Node20 -->
<g id="edge24_Node000001_Node000020" class="edge">
<title>Node1&#45;&gt;Node20</title>
<g id="a_edge24_Node000001_Node000020"><a xlink:title=" ">
<path fill="none" stroke="#63b8ff" d="M477.32,-230.99C508.55,-220.9 560.8,-204.01 595.82,-192.69"/>
<polygon fill="#63b8ff" stroke="#63b8ff" points="597.21,-195.92 605.65,-189.52 595.06,-189.26 597.21,-195.92"/>
</a>
</g>
</g>
<!-- Node29 -->
<g id="Node000029" class="node">
<title>Node29</title>
<g id="a_Node000029"><a xlink:title=" ">
<polygon fill="#e0e0e0" stroke="#999999" points="578.5,-189.5 459.5,-189.5 459.5,-170.5 578.5,-170.5 578.5,-189.5"/>
<text text-anchor="middle" x="519" y="-177.5" font-family="Helvetica,sans-Serif" font-size="10.00">board/board_config.h</text>
</a>
</g>
</g>
<!-- Node1&#45;&gt;Node29 -->
<g id="edge44_Node000001_Node000029" class="edge">
<title>Node1&#45;&gt;Node29</title>
<g id="a_edge44_Node000001_Node000029"><a xlink:title=" ">
<path fill="none" stroke="#63b8ff" d="M461.03,-230.87C471.58,-221.8 488.39,-207.34 501.19,-196.32"/>
<polygon fill="#63b8ff" stroke="#63b8ff" points="503.63,-198.84 508.93,-189.67 499.06,-193.54 503.63,-198.84"/>
</a>
</g>
</g>
<!-- Node30 -->
<g id="Node000030" class="node">
<title>Node30</title>
<g id="a_Node000030"><a xlink:href="irq__notify_8h.html" target="_top" xlink:title=" ">
<polygon fill="white" stroke="#666666" points="1094,-189.5 1008,-189.5 1008,-170.5 1094,-170.5 1094,-189.5"/>
<text text-anchor="middle" x="1051" y="-177.5" font-family="Helvetica,sans-Serif" font-size="10.00">irq/irq_notify.h</text>
</a>
</g>
</g>
<!-- Node1&#45;&gt;Node30 -->
<g id="edge45_Node000001_Node000030" class="edge">
<title>Node1&#45;&gt;Node30</title>
<g id="a_edge45_Node000001_Node000030"><a xlink:title=" ">
<path fill="none" stroke="#63b8ff" d="M486.74,-236.02C588.1,-226.13 877.86,-197.88 997.91,-186.18"/>
<polygon fill="#63b8ff" stroke="#63b8ff" points="998.35,-189.65 1007.97,-185.2 997.67,-182.68 998.35,-189.65"/>
</a>
</g>
</g>
<!-- Node32 -->
<g id="Node000032" class="node">
<title>Node32</title>
<g id="a_Node000032"><a xlink:href="hal__iic__stm32_8h.html" target="_top" xlink:title=" ">
<polygon fill="white" stroke="#666666" points="270,-195 144,-195 144,-165 270,-165 270,-195"/>
<text text-anchor="start" x="152" y="-183" font-family="Helvetica,sans-Serif" font-size="10.00">drivers/com/hal/stm32</text>
<text text-anchor="middle" x="207" y="-172" font-family="Helvetica,sans-Serif" font-size="10.00">/hal_iic_stm32.h</text>
</a>
</g>
</g>
<!-- Node1&#45;&gt;Node32 -->
<g id="edge48_Node000001_Node000032" class="edge">
<title>Node1&#45;&gt;Node32</title>
<g id="a_edge48_Node000001_Node000032"><a xlink:title=" ">
<path fill="none" stroke="#63b8ff" d="M415.52,-230.99C378.95,-222.23 321,-208.33 275.47,-197.42"/>
<polygon fill="#63b8ff" stroke="#63b8ff" points="276.2,-193.99 265.66,-195.06 274.57,-200.8 276.2,-193.99"/>
</a>
</g>
</g>
<!-- Node3 -->
<g id="Node000003" class="node">
<title>Node3</title>
<g id="a_Node000003"><a xlink:href="def__std_8h.html" target="_top" xlink:title=" ">
<polygon fill="white" stroke="#666666" points="420,-74 358,-74 358,-55 420,-55 420,-74"/>
<text text-anchor="middle" x="389" y="-62" font-family="Helvetica,sans-Serif" font-size="10.00">def_std.h</text>
</a>
</g>
</g>
<!-- Node2&#45;&gt;Node3 -->
<g id="edge2_Node000002_Node000003" class="edge">
<title>Node2&#45;&gt;Node3</title>
<g id="a_edge2_Node000002_Node000003"><a xlink:title=" ">
<path fill="none" stroke="#63b8ff" d="M384.38,-170.47C385.18,-152.23 387.08,-109.07 388.18,-84.14"/>
<polygon fill="#63b8ff" stroke="#63b8ff" points="391.68,-84.27 388.62,-74.13 384.68,-83.97 391.68,-84.27"/>
</a>
</g>
</g>
<!-- Node11 -->
<g id="Node000011" class="node">
<title>Node11</title>
<g id="a_Node000011"><a xlink:href="def__err_8h.html" target="_top" xlink:title=" ">
<polygon fill="white" stroke="#666666" points="497.5,-74 438.5,-74 438.5,-55 497.5,-55 497.5,-74"/>
<text text-anchor="middle" x="468" y="-62" font-family="Helvetica,sans-Serif" font-size="10.00">def_err.h</text>
</a>
</g>
</g>
<!-- Node2&#45;&gt;Node11 -->
<g id="edge10_Node000002_Node000011" class="edge">
<title>Node2&#45;&gt;Node11</title>
<g id="a_edge10_Node000002_Node000011"><a xlink:title=" ">
<path fill="none" stroke="#63b8ff" d="M390.31,-170.47C404.12,-151.82 437.2,-107.11 455.43,-82.49"/>
<polygon fill="#63b8ff" stroke="#63b8ff" points="458.48,-84.25 461.61,-74.13 452.85,-80.09 458.48,-84.25"/>
</a>
</g>
</g>
<!-- Node12 -->
<g id="Node000012" class="node">
<title>Node12</title>
<g id="a_Node000012"><a xlink:title=" ">
<polygon fill="#e0e0e0" stroke="#999999" points="198,-74 86,-74 86,-55 198,-55 198,-74"/>
<text text-anchor="middle" x="142" y="-62" font-family="Helvetica,sans-Serif" font-size="10.00">board/mcu_config.h</text>
</a>
</g>
</g>
<!-- Node2&#45;&gt;Node12 -->
<g id="edge11_Node000002_Node000012" class="edge">
<title>Node2&#45;&gt;Node12</title>
<g id="a_edge11_Node000002_Node000012"><a xlink:title=" ">
<path fill="none" stroke="#63b8ff" d="M326.36,-171.87C288.32,-165.19 238.57,-152.54 200,-129 180.76,-117.26 164.05,-97.29 153.57,-82.87"/>
<polygon fill="#63b8ff" stroke="#63b8ff" points="156.21,-80.55 147.62,-74.35 150.47,-84.55 156.21,-80.55"/>
</a>
</g>
</g>
<!-- Node13 -->
<g id="Node000013" class="node">
<title>Node13</title>
<g id="a_Node000013"><a xlink:href="conf__os_8h.html" target="_top" xlink:title=" ">
<polygon fill="white" stroke="#666666" points="97.5,-129 2.5,-129 2.5,-110 97.5,-110 97.5,-129"/>
<text text-anchor="middle" x="50" y="-117" font-family="Helvetica,sans-Serif" font-size="10.00">config/conf_os.h</text>
</a>
</g>
</g>
<!-- Node2&#45;&gt;Node13 -->
<g id="edge12_Node000002_Node000013" class="edge">
<title>Node2&#45;&gt;Node13</title>
<g id="a_edge12_Node000002_Node000013"><a xlink:title=" ">
<path fill="none" stroke="#63b8ff" d="M335.43,-170.49C274.98,-159.91 171.87,-141.85 107.53,-130.58"/>
<polygon fill="#63b8ff" stroke="#63b8ff" points="108,-127.11 97.54,-128.83 106.79,-134 108,-127.11"/>
</a>
</g>
</g>
<!-- Node2&#45;&gt;Node15 -->
<g id="edge14_Node000002_Node000015" class="edge">
<title>Node2&#45;&gt;Node15</title>
<g id="a_edge14_Node000002_Node000015"><a xlink:title=" ">
<path fill="none" stroke="#63b8ff" d="M366.99,-170.49C347.58,-160.79 315.61,-144.81 293.06,-133.53"/>
<polygon fill="#63b8ff" stroke="#63b8ff" points="294.54,-130.36 284.03,-129.02 291.41,-136.62 294.54,-130.36"/>
</a>
</g>
</g>
<!-- Node16 -->
<g id="Node000016" class="node">
<title>Node16</title>
<g id="a_Node000016"><a xlink:title=" ">
<polygon fill="#e0e0e0" stroke="#999999" points="1117,-74 1045,-74 1045,-55 1117,-55 1117,-74"/>
<text text-anchor="middle" x="1081" y="-62" font-family="Helvetica,sans-Serif" font-size="10.00">FreeRTOS.h</text>
</a>
</g>
</g>
<!-- Node2&#45;&gt;Node16 -->
<g id="edge21_Node000002_Node000016" class="edge">
<title>Node2&#45;&gt;Node16</title>
<g id="a_edge21_Node000002_Node000016"><a xlink:title=" ">
<path fill="none" stroke="#63b8ff" d="M422.16,-170.44C431.56,-168.49 441.62,-166.55 451,-165 582.2,-143.38 616.62,-149.47 748,-129 850.95,-112.96 970.76,-88.74 1034.88,-75.32"/>
<polygon fill="#63b8ff" stroke="#63b8ff" points="1035.61,-78.74 1044.68,-73.26 1034.17,-71.89 1035.61,-78.74"/>
</a>
</g>
</g>
<!-- Node17 -->
<g id="Node000017" class="node">
<title>Node17</title>
<g id="a_Node000017"><a xlink:title=" ">
<polygon fill="#e0e0e0" stroke="#999999" points="339.5,-74 292.5,-74 292.5,-55 339.5,-55 339.5,-74"/>
<text text-anchor="middle" x="316" y="-62" font-family="Helvetica,sans-Serif" font-size="10.00">task.h</text>
</a>
</g>
</g>
<!-- Node2&#45;&gt;Node17 -->
<g id="edge23_Node000002_Node000017" class="edge">
<title>Node2&#45;&gt;Node17</title>
<g id="a_edge23_Node000002_Node000017"><a xlink:title=" ">
<path fill="none" stroke="#63b8ff" d="M378.89,-170.47C367.76,-151.9 341.17,-107.51 326.37,-82.82"/>
<polygon fill="#63b8ff" stroke="#63b8ff" points="329.31,-80.91 321.17,-74.13 323.31,-84.51 329.31,-80.91"/>
</a>
</g>
</g>
<!-- Node19 -->
<g id="Node000019" class="node">
<title>Node19</title>
<g id="a_Node000019"><a xlink:title=" ">
<polygon fill="#e0e0e0" stroke="#999999" points="572,-74 516,-74 516,-55 572,-55 572,-74"/>
<text text-anchor="middle" x="544" y="-62" font-family="Helvetica,sans-Serif" font-size="10.00">queue.h</text>
</a>
</g>
</g>
<!-- Node2&#45;&gt;Node19 -->
<g id="edge22_Node000002_Node000019" class="edge">
<title>Node2&#45;&gt;Node19</title>
<g id="a_edge22_Node000002_Node000019"><a xlink:title=" ">
<path fill="none" stroke="#63b8ff" d="M396.03,-170.47C423.25,-151.16 489.82,-103.93 523.61,-79.96"/>
<polygon fill="#63b8ff" stroke="#63b8ff" points="525.7,-82.77 531.83,-74.13 521.65,-77.06 525.7,-82.77"/>
</a>
</g>
</g>
<!-- Node4 -->
<g id="Node000004" class="node">
<title>Node4</title>
<g id="a_Node000004"><a xlink:title=" ">
<polygon fill="#e0e0e0" stroke="#999999" points="205.5,-19 152.5,-19 152.5,0 205.5,0 205.5,-19"/>
<text text-anchor="middle" x="179" y="-7" font-family="Helvetica,sans-Serif" font-size="10.00">stdlib.h</text>
</a>
</g>
</g>
<!-- Node3&#45;&gt;Node4 -->
<g id="edge3_Node000003_Node000004" class="edge">
<title>Node3&#45;&gt;Node4</title>
<g id="a_edge3_Node000003_Node000004"><a xlink:title=" ">
<path fill="none" stroke="#63b8ff" d="M357.56,-55.57C319.56,-45.98 255.74,-29.87 215.57,-19.73"/>
<polygon fill="#63b8ff" stroke="#63b8ff" points="216.21,-16.28 205.65,-17.23 214.49,-23.07 216.21,-16.28"/>
</a>
</g>
</g>
<!-- Node5 -->
<g id="Node000005" class="node">
<title>Node5</title>
<g id="a_Node000005"><a xlink:title=" ">
<polygon fill="#e0e0e0" stroke="#999999" points="274.5,-19 223.5,-19 223.5,0 274.5,0 274.5,-19"/>
<text text-anchor="middle" x="249" y="-7" font-family="Helvetica,sans-Serif" font-size="10.00">errno.h</text>
</a>
</g>
</g>
<!-- Node3&#45;&gt;Node5 -->
<g id="edge4_Node000003_Node000005" class="edge">
<title>Node3&#45;&gt;Node5</title>
<g id="a_edge4_Node000003_Node000005"><a xlink:title=" ">
<path fill="none" stroke="#63b8ff" d="M366.51,-54.98C343.48,-46.27 307.46,-32.63 281.37,-22.75"/>
<polygon fill="#63b8ff" stroke="#63b8ff" points="282.49,-19.44 271.9,-19.17 280.02,-25.98 282.49,-19.44"/>
</a>
</g>
</g>
<!-- Node6 -->
<g id="Node000006" class="node">
<title>Node6</title>
<g id="a_Node000006"><a xlink:title=" ">
<polygon fill="#e0e0e0" stroke="#999999" points="343,-19 293,-19 293,0 343,0 343,-19"/>
<text text-anchor="middle" x="318" y="-7" font-family="Helvetica,sans-Serif" font-size="10.00">stdio.h</text>
</a>
</g>
</g>
<!-- Node3&#45;&gt;Node6 -->
<g id="edge5_Node000003_Node000006" class="edge">
<title>Node3&#45;&gt;Node6</title>
<g id="a_edge5_Node000003_Node000006"><a xlink:title=" ">
<path fill="none" stroke="#63b8ff" d="M377.59,-54.98C366.89,-47 350.66,-34.88 337.84,-25.31"/>
<polygon fill="#63b8ff" stroke="#63b8ff" points="339.72,-22.35 329.61,-19.17 335.53,-27.96 339.72,-22.35"/>
</a>
</g>
</g>
<!-- Node7 -->
<g id="Node000007" class="node">
<title>Node7</title>
<g id="a_Node000007"><a xlink:title=" ">
<polygon fill="#e0e0e0" stroke="#999999" points="416.5,-19 361.5,-19 361.5,0 416.5,0 416.5,-19"/>
<text text-anchor="middle" x="389" y="-7" font-family="Helvetica,sans-Serif" font-size="10.00">signal.h</text>
</a>
</g>
</g>
<!-- Node3&#45;&gt;Node7 -->
<g id="edge6_Node000003_Node000007" class="edge">
<title>Node3&#45;&gt;Node7</title>
<g id="a_edge6_Node000003_Node000007"><a xlink:title=" ">
<path fill="none" stroke="#63b8ff" d="M389,-54.75C389,-47.8 389,-37.85 389,-29.13"/>
<polygon fill="#63b8ff" stroke="#63b8ff" points="392.5,-29.09 389,-19.09 385.5,-29.09 392.5,-29.09"/>
</a>
</g>
</g>
<!-- Node8 -->
<g id="Node000008" class="node">
<title>Node8</title>
<g id="a_Node000008"><a xlink:title=" ">
<polygon fill="#e0e0e0" stroke="#999999" points="483,-19 435,-19 435,0 483,0 483,-19"/>
<text text-anchor="middle" x="459" y="-7" font-family="Helvetica,sans-Serif" font-size="10.00">time.h</text>
</a>
</g>
</g>
<!-- Node3&#45;&gt;Node8 -->
<g id="edge7_Node000003_Node000008" class="edge">
<title>Node3&#45;&gt;Node8</title>
<g id="a_edge7_Node000003_Node000008"><a xlink:title=" ">
<path fill="none" stroke="#63b8ff" d="M400.25,-54.98C410.8,-47 426.8,-34.88 439.44,-25.31"/>
<polygon fill="#63b8ff" stroke="#63b8ff" points="441.69,-28 447.55,-19.17 437.46,-22.42 441.69,-28"/>
</a>
</g>
</g>
<!-- Node9 -->
<g id="Node000009" class="node">
<title>Node9</title>
<g id="a_Node000009"><a xlink:title=" ">
<polygon fill="#e0e0e0" stroke="#999999" points="554.5,-19 501.5,-19 501.5,0 554.5,0 554.5,-19"/>
<text text-anchor="middle" x="528" y="-7" font-family="Helvetica,sans-Serif" font-size="10.00">stdint.h</text>
</a>
</g>
</g>
<!-- Node3&#45;&gt;Node9 -->
<g id="edge8_Node000003_Node000009" class="edge">
<title>Node3&#45;&gt;Node9</title>
<g id="a_edge8_Node000003_Node000009"><a xlink:title=" ">
<path fill="none" stroke="#63b8ff" d="M411.33,-54.98C434.2,-46.27 469.96,-32.63 495.86,-22.75"/>
<polygon fill="#63b8ff" stroke="#63b8ff" points="497.16,-26 505.26,-19.17 494.67,-19.46 497.16,-26"/>
</a>
</g>
</g>
<!-- Node10 -->
<g id="Node000010" class="node">
<title>Node10</title>
<g id="a_Node000010"><a xlink:title=" ">
<polygon fill="#e0e0e0" stroke="#999999" points="637.5,-19 572.5,-19 572.5,0 637.5,0 637.5,-19"/>
<text text-anchor="middle" x="605" y="-7" font-family="Helvetica,sans-Serif" font-size="10.00">inttypes.h</text>
</a>
</g>
</g>
<!-- Node3&#45;&gt;Node10 -->
<g id="edge9_Node000003_Node000010" class="edge">
<title>Node3&#45;&gt;Node10</title>
<g id="a_edge9_Node000003_Node000010"><a xlink:title=" ">
<path fill="none" stroke="#63b8ff" d="M420.41,-55.79C457.92,-46.59 520.82,-31.16 562.61,-20.9"/>
<polygon fill="#63b8ff" stroke="#63b8ff" points="563.62,-24.26 572.49,-18.48 561.95,-17.46 563.62,-24.26"/>
</a>
</g>
</g>
<!-- Node14 -->
<g id="Node000014" class="node">
<title>Node14</title>
<g id="a_Node000014"><a xlink:href="autoconf_8h.html" target="_top" xlink:title=" ">
<polygon fill="white" stroke="#666666" points="68,-74 0,-74 0,-55 68,-55 68,-74"/>
<text text-anchor="middle" x="34" y="-62" font-family="Helvetica,sans-Serif" font-size="10.00">autoconf.h</text>
</a>
</g>
</g>
<!-- Node13&#45;&gt;Node14 -->
<g id="edge13_Node000013_Node000014" class="edge">
<title>Node13&#45;&gt;Node14</title>
<g id="a_edge13_Node000013_Node000014"><a xlink:title=" ">
<path fill="none" stroke="#63b8ff" d="M47.36,-109.75C45.24,-102.72 42.19,-92.62 39.54,-83.84"/>
<polygon fill="#63b8ff" stroke="#63b8ff" points="42.83,-82.65 36.59,-74.09 36.13,-84.67 42.83,-82.65"/>
</a>
</g>
</g>
<!-- Node15&#45;&gt;Node3 -->
<g id="edge15_Node000015_Node000003" class="edge">
<title>Node15&#45;&gt;Node3</title>
<g id="a_edge15_Node000015_Node000003"><a xlink:title=" ">
<path fill="none" stroke="#63b8ff" d="M286.6,-109.98C306.32,-101.42 336.95,-88.11 359.58,-78.28"/>
<polygon fill="#63b8ff" stroke="#63b8ff" points="361.26,-81.37 369.04,-74.17 358.48,-74.94 361.26,-81.37"/>
</a>
</g>
</g>
<!-- Node15&#45;&gt;Node11 -->
<g id="edge16_Node000015_Node000011" class="edge">
<title>Node15&#45;&gt;Node11</title>
<g id="a_edge16_Node000015_Node000011"><a xlink:title=" ">
<path fill="none" stroke="#63b8ff" d="M299.29,-109.98C334.39,-100.73 390.5,-85.94 428.27,-75.98"/>
<polygon fill="#63b8ff" stroke="#63b8ff" points="429.63,-79.24 438.41,-73.3 427.84,-72.47 429.63,-79.24"/>
</a>
</g>
</g>
<!-- Node15&#45;&gt;Node12 -->
<g id="edge17_Node000015_Node000012" class="edge">
<title>Node15&#45;&gt;Node12</title>
<g id="a_edge17_Node000015_Node000012"><a xlink:title=" ">
<path fill="none" stroke="#63b8ff" d="M246.92,-109.98C226.63,-101.38 195.04,-87.99 171.83,-78.15"/>
<polygon fill="#63b8ff" stroke="#63b8ff" points="173.02,-74.85 162.45,-74.17 170.29,-81.3 173.02,-74.85"/>
</a>
</g>
</g>
<!-- Node15&#45;&gt;Node16 -->
<g id="edge18_Node000015_Node000016" class="edge">
<title>Node15&#45;&gt;Node16</title>
<g id="a_edge18_Node000015_Node000016"><a xlink:title=" ">
<path fill="none" stroke="#63b8ff" d="M325.08,-116.11C476.14,-109.75 879.77,-91.73 1034.45,-73.99"/>
<polygon fill="#63b8ff" stroke="#63b8ff" points="1035.2,-77.43 1044.71,-72.77 1034.37,-70.48 1035.2,-77.43"/>
</a>
</g>
</g>
<!-- Node15&#45;&gt;Node17 -->
<g id="edge19_Node000015_Node000017" class="edge">
<title>Node15&#45;&gt;Node17</title>
<g id="a_edge19_Node000015_Node000017"><a xlink:title=" ">
<path fill="none" stroke="#63b8ff" d="M275.09,-109.75C282.16,-102.11 292.59,-90.82 301.15,-81.56"/>
<polygon fill="#63b8ff" stroke="#63b8ff" points="303.84,-83.81 308.06,-74.09 298.7,-79.06 303.84,-83.81"/>
</a>
</g>
</g>
<!-- Node18 -->
<g id="Node000018" class="node">
<title>Node18</title>
<g id="a_Node000018"><a xlink:title=" ">
<polygon fill="#e0e0e0" stroke="#999999" points="274,-74 216,-74 216,-55 274,-55 274,-74"/>
<text text-anchor="middle" x="245" y="-62" font-family="Helvetica,sans-Serif" font-size="10.00">device.h</text>
</a>
</g>
</g>
<!-- Node15&#45;&gt;Node18 -->
<g id="edge20_Node000015_Node000018" class="edge">
<title>Node15&#45;&gt;Node18</title>
<g id="a_edge20_Node000015_Node000018"><a xlink:title=" ">
<path fill="none" stroke="#63b8ff" d="M263.37,-109.75C260.42,-102.65 256.17,-92.4 252.49,-83.56"/>
<polygon fill="#63b8ff" stroke="#63b8ff" points="255.63,-81.98 248.57,-74.09 249.17,-84.67 255.63,-81.98"/>
</a>
</g>
</g>
<!-- Node20&#45;&gt;Node3 -->
<g id="edge26_Node000020_Node000003" class="edge">
<title>Node20&#45;&gt;Node3</title>
<g id="a_edge26_Node000020_Node000003"><a xlink:title=" ">
<path fill="none" stroke="#63b8ff" d="M613.74,-170.47C571.52,-150.75 466.95,-101.91 416.76,-78.46"/>
<polygon fill="#63b8ff" stroke="#63b8ff" points="418.02,-75.19 407.48,-74.13 415.06,-81.53 418.02,-75.19"/>
</a>
</g>
</g>
<!-- Node20&#45;&gt;Node11 -->
<g id="edge27_Node000020_Node000011" class="edge">
<title>Node20&#45;&gt;Node11</title>
<g id="a_edge27_Node000020_Node000011"><a xlink:title=" ">
<path fill="none" stroke="#63b8ff" d="M631.16,-170.49C629.28,-156.03 623.42,-126.6 606,-110 591.73,-96.41 543.31,-82.8 507.84,-74.28"/>
<polygon fill="#63b8ff" stroke="#63b8ff" points="508.3,-70.79 497.76,-71.91 506.69,-77.6 508.3,-70.79"/>
</a>
</g>
</g>
<!-- Node20&#45;&gt;Node16 -->
<g id="edge28_Node000020_Node000016" class="edge">
<title>Node20&#45;&gt;Node16</title>
<g id="a_edge28_Node000020_Node000016"><a xlink:title=" ">
<path fill="none" stroke="#63b8ff" d="M667.07,-174.21C718.63,-166.77 817.69,-150.98 900,-129 953.97,-114.59 1014.92,-91.8 1050.53,-77.8"/>
<polygon fill="#63b8ff" stroke="#63b8ff" points="1051.87,-81.04 1059.88,-74.1 1049.29,-74.53 1051.87,-81.04"/>
</a>
</g>
</g>
<!-- Node21 -->
<g id="Node000021" class="node">
<title>Node21</title>
<g id="a_Node000021"><a xlink:href="def__attributes_8h.html" target="_top" xlink:title=" ">
<polygon fill="white" stroke="#666666" points="1229,-74 1135,-74 1135,-55 1229,-55 1229,-74"/>
<text text-anchor="middle" x="1182" y="-62" font-family="Helvetica,sans-Serif" font-size="10.00">def_attributes.h</text>
</a>
</g>
</g>
<!-- Node20&#45;&gt;Node21 -->
<g id="edge25_Node000020_Node000021" class="edge">
<title>Node20&#45;&gt;Node21</title>
<g id="a_edge25_Node000020_Node000021"><a xlink:title=" ">
<path fill="none" stroke="#63b8ff" d="M667.31,-174.53C725.36,-166.93 844.47,-150.2 944,-129 1015.31,-113.81 1097.2,-90.69 1143.95,-76.94"/>
<polygon fill="#63b8ff" stroke="#63b8ff" points="1145.05,-80.26 1153.65,-74.07 1143.07,-73.55 1145.05,-80.26"/>
</a>
</g>
</g>
<!-- Node22 -->
<g id="Node000022" class="node">
<title>Node22</title>
<g id="a_Node000022"><a xlink:href="list_8h.html" target="_top" xlink:title="All linked list operation functions definitions and macros.">
<polygon fill="white" stroke="#666666" points="596.5,-129 533.5,-129 533.5,-110 596.5,-110 596.5,-129"/>
<text text-anchor="middle" x="565" y="-117" font-family="Helvetica,sans-Serif" font-size="10.00">mm/list.h</text>
</a>
</g>
</g>
<!-- Node20&#45;&gt;Node22 -->
<g id="edge29_Node000020_Node000022" class="edge">
<title>Node20&#45;&gt;Node22</title>
<g id="a_edge29_Node000020_Node000022"><a xlink:title=" ">
<path fill="none" stroke="#63b8ff" d="M622.11,-170.37C611.72,-161.3 595.16,-146.84 582.55,-135.82"/>
<polygon fill="#63b8ff" stroke="#63b8ff" points="584.76,-133.11 574.93,-129.17 580.16,-138.38 584.76,-133.11"/>
</a>
</g>
</g>
<!-- Node23 -->
<g id="Node000023" class="node">
<title>Node23</title>
<g id="a_Node000023"><a xlink:href="os_2kernel__mem_8h.html" target="_top" xlink:title=" ">
<polygon fill="white" stroke="#666666" points="739,-129 653,-129 653,-110 739,-110 739,-129"/>
<text text-anchor="middle" x="696" y="-117" font-family="Helvetica,sans-Serif" font-size="10.00">kernel_mem.h</text>
</a>
</g>
</g>
<!-- Node20&#45;&gt;Node23 -->
<g id="edge31_Node000020_Node000023" class="edge">
<title>Node20&#45;&gt;Node23</title>
<g id="a_edge31_Node000020_Node000023"><a xlink:title=" ">
<path fill="none" stroke="#63b8ff" d="M641.44,-170.37C651.27,-161.38 666.89,-147.11 678.89,-136.14"/>
<polygon fill="#63b8ff" stroke="#63b8ff" points="681.5,-138.5 686.52,-129.17 676.78,-133.33 681.5,-138.5"/>
</a>
</g>
</g>
<!-- Node22&#45;&gt;Node3 -->
<g id="edge30_Node000022_Node000003" class="edge">
<title>Node22&#45;&gt;Node3</title>
<g id="a_edge30_Node000022_Node000003"><a xlink:title=" ">
<path fill="none" stroke="#63b8ff" d="M536.72,-109.98C507.05,-101.05 460.21,-86.94 427.25,-77.02"/>
<polygon fill="#63b8ff" stroke="#63b8ff" points="428.08,-73.61 417.5,-74.08 426.07,-80.32 428.08,-73.61"/>
</a>
</g>
</g>
<!-- Node23&#45;&gt;Node3 -->
<g id="edge32_Node000023_Node000003" class="edge">
<title>Node23&#45;&gt;Node3</title>
<g id="a_edge32_Node000023_Node000003"><a xlink:title=" ">
<path fill="none" stroke="#63b8ff" d="M652.6,-111.77C601.88,-103.78 515.16,-89.77 430.37,-74"/>
<polygon fill="#63b8ff" stroke="#63b8ff" points="430.79,-70.52 420.31,-72.12 429.5,-77.4 430.79,-70.52"/>
</a>
</g>
</g>
<!-- Node23&#45;&gt;Node11 -->
<g id="edge33_Node000023_Node000011" class="edge">
<title>Node23&#45;&gt;Node11</title>
<g id="a_edge33_Node000023_Node000011"><a xlink:title=" ">
<path fill="none" stroke="#63b8ff" d="M659.37,-109.98C617.76,-100.31 550.13,-84.59 507.41,-74.66"/>
<polygon fill="#63b8ff" stroke="#63b8ff" points="508.17,-71.25 497.64,-72.39 506.59,-78.06 508.17,-71.25"/>
</a>
</g>
</g>
<!-- Node23&#45;&gt;Node16 -->
<g id="edge35_Node000023_Node000016" class="edge">
<title>Node23&#45;&gt;Node16</title>
<g id="a_edge35_Node000023_Node000016"><a xlink:title=" ">
<path fill="none" stroke="#63b8ff" d="M739.05,-113.66C801.8,-106.42 922.27,-91.88 1034.54,-74.16"/>
<polygon fill="#63b8ff" stroke="#63b8ff" points="1035.36,-77.57 1044.68,-72.54 1034.26,-70.66 1035.36,-77.57"/>
</a>
</g>
</g>
<!-- Node23&#45;&gt;Node17 -->
<g id="edge38_Node000023_Node000017" class="edge">
<title>Node23&#45;&gt;Node17</title>
<g id="a_edge38_Node000023_Node000017"><a xlink:title=" ">
<path fill="none" stroke="#63b8ff" d="M652.83,-113.65C576.98,-105.01 421.79,-86.83 349.72,-73.86"/>
<polygon fill="#63b8ff" stroke="#63b8ff" points="350.19,-70.38 339.71,-71.98 348.9,-77.26 350.19,-70.38"/>
</a>
</g>
</g>
<!-- Node23&#45;&gt;Node19 -->
<g id="edge37_Node000023_Node000019" class="edge">
<title>Node23&#45;&gt;Node19</title>
<g id="a_edge37_Node000023_Node000019"><a xlink:title=" ">
<path fill="none" stroke="#63b8ff" d="M671.58,-109.98C646.28,-101.16 606.55,-87.31 578.14,-77.41"/>
<polygon fill="#63b8ff" stroke="#63b8ff" points="579.21,-74.07 568.61,-74.08 576.9,-80.68 579.21,-74.07"/>
</a>
</g>
</g>
<!-- Node23&#45;&gt;Node21 -->
<g id="edge34_Node000023_Node000021" class="edge">
<title>Node23&#45;&gt;Node21</title>
<g id="a_edge34_Node000023_Node000021"><a xlink:title=" ">
<path fill="none" stroke="#63b8ff" d="M739.11,-114.72C814.9,-107.93 977.23,-92.72 1124.82,-74.09"/>
<polygon fill="#63b8ff" stroke="#63b8ff" points="1125.49,-77.54 1134.97,-72.8 1124.61,-70.59 1125.49,-77.54"/>
</a>
</g>
</g>
<!-- Node24 -->
<g id="Node000024" class="node">
<title>Node24</title>
<g id="a_Node000024"><a xlink:title=" ">
<polygon fill="#e0e0e0" stroke="#999999" points="649.5,-74 590.5,-74 590.5,-55 649.5,-55 649.5,-74"/>
<text text-anchor="middle" x="620" y="-62" font-family="Helvetica,sans-Serif" font-size="10.00">atomic.h</text>
</a>
</g>
</g>
<!-- Node23&#45;&gt;Node24 -->
<g id="edge36_Node000023_Node000024" class="edge">
<title>Node23&#45;&gt;Node24</title>
<g id="a_edge36_Node000023_Node000024"><a xlink:title=" ">
<path fill="none" stroke="#63b8ff" d="M683.79,-109.98C672.22,-101.92 654.62,-89.65 640.84,-80.03"/>
<polygon fill="#63b8ff" stroke="#63b8ff" points="642.64,-77.02 632.43,-74.17 638.63,-82.76 642.64,-77.02"/>
</a>
</g>
</g>
<!-- Node25 -->
<g id="Node000025" class="node">
<title>Node25</title>
<g id="a_Node000025"><a xlink:title=" ">
<polygon fill="#e0e0e0" stroke="#999999" points="724.5,-74 667.5,-74 667.5,-55 724.5,-55 724.5,-74"/>
<text text-anchor="middle" x="696" y="-62" font-family="Helvetica,sans-Serif" font-size="10.00">timers.h</text>
</a>
</g>
</g>
<!-- Node23&#45;&gt;Node25 -->
<g id="edge39_Node000023_Node000025" class="edge">
<title>Node23&#45;&gt;Node25</title>
<g id="a_edge39_Node000023_Node000025"><a xlink:title=" ">
<path fill="none" stroke="#63b8ff" d="M696,-109.75C696,-102.8 696,-92.85 696,-84.13"/>
<polygon fill="#63b8ff" stroke="#63b8ff" points="699.5,-84.09 696,-74.09 692.5,-84.09 699.5,-84.09"/>
</a>
</g>
</g>
<!-- Node26 -->
<g id="Node000026" class="node">
<title>Node26</title>
<g id="a_Node000026"><a xlink:title=" ">
<polygon fill="#e0e0e0" stroke="#999999" points="805,-74 743,-74 743,-55 805,-55 805,-74"/>
<text text-anchor="middle" x="774" y="-62" font-family="Helvetica,sans-Serif" font-size="10.00">semphr.h</text>
</a>
</g>
</g>
<!-- Node23&#45;&gt;Node26 -->
<g id="edge40_Node000023_Node000026" class="edge">
<title>Node23&#45;&gt;Node26</title>
<g id="a_edge40_Node000023_Node000026"><a xlink:title=" ">
<path fill="none" stroke="#63b8ff" d="M708.53,-109.98C720.4,-101.92 738.46,-89.65 752.61,-80.03"/>
<polygon fill="#63b8ff" stroke="#63b8ff" points="754.94,-82.69 761.24,-74.17 751,-76.9 754.94,-82.69"/>
</a>
</g>
</g>
<!-- Node27 -->
<g id="Node000027" class="node">
<title>Node27</title>
<g id="a_Node000027"><a xlink:title=" ">
<polygon fill="#e0e0e0" stroke="#999999" points="915,-74 823,-74 823,-55 915,-55 915,-74"/>
<text text-anchor="middle" x="869" y="-62" font-family="Helvetica,sans-Serif" font-size="10.00">event_groups.h</text>
</a>
</g>
</g>
<!-- Node23&#45;&gt;Node27 -->
<g id="edge41_Node000023_Node000027" class="edge">
<title>Node23&#45;&gt;Node27</title>
<g id="a_edge41_Node000023_Node000027"><a xlink:title=" ">
<path fill="none" stroke="#63b8ff" d="M723.8,-109.98C752.97,-101.05 799,-86.94 831.4,-77.02"/>
<polygon fill="#63b8ff" stroke="#63b8ff" points="832.45,-80.36 840.99,-74.08 830.4,-73.66 832.45,-80.36"/>
</a>
</g>
</g>
<!-- Node28 -->
<g id="Node000028" class="node">
<title>Node28</title>
<g id="a_Node000028"><a xlink:title=" ">
<polygon fill="#e0e0e0" stroke="#999999" points="1026.5,-74 933.5,-74 933.5,-55 1026.5,-55 1026.5,-74"/>
<text text-anchor="middle" x="980" y="-62" font-family="Helvetica,sans-Serif" font-size="10.00">stream_buffer.h</text>
</a>
</g>
</g>
<!-- Node23&#45;&gt;Node28 -->
<g id="edge42_Node000023_Node000028" class="edge">
<title>Node23&#45;&gt;Node28</title>
<g id="a_edge42_Node000023_Node000028"><a xlink:title=" ">
<path fill="none" stroke="#63b8ff" d="M739.13,-110.45C788.55,-101.23 869.69,-86.09 923.96,-75.96"/>
<polygon fill="#63b8ff" stroke="#63b8ff" points="924.91,-79.34 934.1,-74.07 923.63,-72.46 924.91,-79.34"/>
</a>
</g>
</g>
<!-- Node30&#45;&gt;Node16 -->
<g id="edge47_Node000030_Node000016" class="edge">
<title>Node30&#45;&gt;Node16</title>
<g id="a_edge47_Node000030_Node000016"><a xlink:title=" ">
<path fill="none" stroke="#63b8ff" d="M1053.25,-170.47C1058.1,-152.15 1069.59,-108.68 1076.16,-83.81"/>
<polygon fill="#63b8ff" stroke="#63b8ff" points="1079.55,-84.69 1078.72,-74.13 1072.78,-82.9 1079.55,-84.69"/>
</a>
</g>
</g>
<!-- Node31 -->
<g id="Node000031" class="node">
<title>Node31</title>
<g id="a_Node000031"><a xlink:title=" ">
<polygon fill="#e0e0e0" stroke="#999999" points="1231,-129 1117,-129 1117,-110 1231,-110 1231,-129"/>
<text text-anchor="middle" x="1174" y="-117" font-family="Helvetica,sans-Serif" font-size="10.00">board/irq_hw_conf.h</text>
</a>
</g>
</g>
<!-- Node30&#45;&gt;Node31 -->
<g id="edge46_Node000030_Node000031" class="edge">
<title>Node30&#45;&gt;Node31</title>
<g id="a_edge46_Node000030_Node000031"><a xlink:title=" ">
<path fill="none" stroke="#63b8ff" d="M1068.89,-170.49C1089.38,-160.75 1123.19,-144.66 1146.92,-133.38"/>
<polygon fill="#63b8ff" stroke="#63b8ff" points="1148.57,-136.47 1156.09,-129.02 1145.56,-130.15 1148.57,-136.47"/>
</a>
</g>
</g>
<!-- Node32&#45;&gt;Node12 -->
<g id="edge49_Node000032_Node000012" class="edge">
<title>Node32&#45;&gt;Node12</title>
<g id="a_edge49_Node000032_Node000012"><a xlink:title=" ">
<path fill="none" stroke="#63b8ff" d="M193.87,-164.96C185.39,-155.38 174.58,-142.08 167,-129 158.65,-114.58 151.93,-96.84 147.57,-83.78"/>
<polygon fill="#63b8ff" stroke="#63b8ff" points="150.85,-82.55 144.48,-74.09 144.18,-84.68 150.85,-82.55"/>
</a>
</g>
</g>
<!-- Node32&#45;&gt;Node15 -->
<g id="edge50_Node000032_Node000015" class="edge">
<title>Node32&#45;&gt;Node15</title>
<g id="a_edge50_Node000032_Node000015"><a xlink:title=" ">
<path fill="none" stroke="#63b8ff" d="M221.52,-164.84C230.32,-156.26 241.57,-145.3 250.67,-136.42"/>
<polygon fill="#63b8ff" stroke="#63b8ff" points="253.29,-138.75 258.01,-129.27 248.41,-133.74 253.29,-138.75"/>
</a>
</g>
</g>
</g>
</svg>
