<?xml version="1.0" encoding="UTF-8" standalone="no"?>
<!DOCTYPE svg PUBLIC "-//W3C//DTD SVG 1.1//EN"
 "http://www.w3.org/Graphics/SVG/1.1/DTD/svg11.dtd">
<!-- Generated by graphviz version 2.43.0 (0)
 -->
<!-- Title: iic_mgmt.h Pages: 1 -->
<svg width="846pt" height="192pt"
 viewBox="0.00 0.00 845.50 192.00" xmlns="http://www.w3.org/2000/svg" xmlns:xlink="http://www.w3.org/1999/xlink">
<g id="graph0" class="graph" transform="scale(1 1) rotate(0) translate(4 188)">
<title>iic_mgmt.h</title>
<!-- Node1 -->
<g id="Node000001" class="node">
<title>Node1</title>
<g id="a_Node000001"><a xlink:title=" ">
<polygon fill="#999999" stroke="#666666" points="594,-184 523,-184 523,-165 594,-165 594,-184"/>
<text text-anchor="middle" x="558.5" y="-172" font-family="Helvetica,sans-Serif" font-size="10.00">iic_mgmt.h</text>
</a>
</g>
</g>
<!-- Node2 -->
<g id="Node000002" class="node">
<title>Node2</title>
<g id="a_Node000002"><a xlink:href="def__std_8h.html" target="_top" xlink:title=" ">
<polygon fill="white" stroke="#666666" points="267.5,-74 205.5,-74 205.5,-55 267.5,-55 267.5,-74"/>
<text text-anchor="middle" x="236.5" y="-62" font-family="Helvetica,sans-Serif" font-size="10.00">def_std.h</text>
</a>
</g>
</g>
<!-- Node1&#45;&gt;Node2 -->
<g id="edge1_Node000001_Node000002" class="edge">
<title>Node1&#45;&gt;Node2</title>
<g id="a_edge1_Node000001_Node000002"><a xlink:title=" ">
<path fill="none" stroke="#63b8ff" d="M522.82,-165.3C488.94,-157.19 436.76,-143.88 392.5,-129 346.98,-113.7 295.66,-91.9 264.72,-78.23"/>
<polygon fill="#63b8ff" stroke="#63b8ff" points="265.98,-74.96 255.42,-74.1 263.14,-81.36 265.98,-74.96"/>
</a>
</g>
</g>
<!-- Node10 -->
<g id="Node000010" class="node">
<title>Node10</title>
<g id="a_Node000010"><a xlink:href="def__err_8h.html" target="_top" xlink:title=" ">
<polygon fill="white" stroke="#666666" points="345,-74 286,-74 286,-55 345,-55 345,-74"/>
<text text-anchor="middle" x="315.5" y="-62" font-family="Helvetica,sans-Serif" font-size="10.00">def_err.h</text>
</a>
</g>
</g>
<!-- Node1&#45;&gt;Node10 -->
<g id="edge9_Node000001_Node000010" class="edge">
<title>Node1&#45;&gt;Node10</title>
<g id="a_edge9_Node000001_Node000010"><a xlink:title=" ">
<path fill="none" stroke="#63b8ff" d="M529.99,-164.99C503.9,-156.85 464.47,-143.68 431.5,-129 397.95,-114.06 361.04,-93 338.06,-79.3"/>
<polygon fill="#63b8ff" stroke="#63b8ff" points="339.78,-76.25 329.41,-74.09 336.17,-82.24 339.78,-76.25"/>
</a>
</g>
</g>
<!-- Node11 -->
<g id="Node000011" class="node">
<title>Node11</title>
<g id="a_Node000011"><a xlink:title=" ">
<polygon fill="#e0e0e0" stroke="#999999" points="475.5,-74 363.5,-74 363.5,-55 475.5,-55 475.5,-74"/>
<text text-anchor="middle" x="419.5" y="-62" font-family="Helvetica,sans-Serif" font-size="10.00">board/mcu_config.h</text>
</a>
</g>
</g>
<!-- Node1&#45;&gt;Node11 -->
<g id="edge10_Node000001_Node000011" class="edge">
<title>Node1&#45;&gt;Node11</title>
<g id="a_edge10_Node000001_Node000011"><a xlink:title=" ">
<path fill="none" stroke="#63b8ff" d="M522.77,-166.31C499.18,-159.97 468.97,-148.58 448.5,-129 435.79,-116.83 428.17,-98.04 423.95,-84.06"/>
<polygon fill="#63b8ff" stroke="#63b8ff" points="427.25,-82.83 421.27,-74.08 420.49,-84.65 427.25,-82.83"/>
</a>
</g>
</g>
<!-- Node12 -->
<g id="Node000012" class="node">
<title>Node12</title>
<g id="a_Node000012"><a xlink:href="conf__os_8h.html" target="_top" xlink:title=" ">
<polygon fill="white" stroke="#666666" points="763,-129 668,-129 668,-110 763,-110 763,-129"/>
<text text-anchor="middle" x="715.5" y="-117" font-family="Helvetica,sans-Serif" font-size="10.00">config/conf_os.h</text>
</a>
</g>
</g>
<!-- Node1&#45;&gt;Node12 -->
<g id="edge11_Node000001_Node000012" class="edge">
<title>Node1&#45;&gt;Node12</title>
<g id="a_edge11_Node000001_Node000012"><a xlink:title=" ">
<path fill="none" stroke="#63b8ff" d="M583.72,-164.98C609.86,-156.16 650.9,-142.31 680.23,-132.41"/>
<polygon fill="#63b8ff" stroke="#63b8ff" points="681.72,-135.6 690.08,-129.08 679.48,-128.96 681.72,-135.6"/>
</a>
</g>
</g>
<!-- Node14 -->
<g id="Node000014" class="node">
<title>Node14</title>
<g id="a_Node000014"><a xlink:href="drv__handle_8h.html" target="_top" xlink:title=" ">
<polygon fill="white" stroke="#666666" points="573.5,-129 457.5,-129 457.5,-110 573.5,-110 573.5,-129"/>
<text text-anchor="middle" x="515.5" y="-117" font-family="Helvetica,sans-Serif" font-size="10.00">drivers/drv_handle.h</text>
</a>
</g>
</g>
<!-- Node1&#45;&gt;Node14 -->
<g id="edge13_Node000001_Node000014" class="edge">
<title>Node1&#45;&gt;Node14</title>
<g id="a_edge13_Node000001_Node000014"><a xlink:title=" ">
<path fill="none" stroke="#63b8ff" d="M551.4,-164.75C545.33,-157.26 536.41,-146.28 528.99,-137.13"/>
<polygon fill="#63b8ff" stroke="#63b8ff" points="531.49,-134.65 522.47,-129.09 526.05,-139.06 531.49,-134.65"/>
</a>
</g>
</g>
<!-- Node15 -->
<g id="Node000015" class="node">
<title>Node15</title>
<g id="a_Node000015"><a xlink:title=" ">
<polygon fill="#e0e0e0" stroke="#999999" points="641.5,-74 569.5,-74 569.5,-55 641.5,-55 641.5,-74"/>
<text text-anchor="middle" x="605.5" y="-62" font-family="Helvetica,sans-Serif" font-size="10.00">FreeRTOS.h</text>
</a>
</g>
</g>
<!-- Node1&#45;&gt;Node15 -->
<g id="edge20_Node000001_Node000015" class="edge">
<title>Node1&#45;&gt;Node15</title>
<g id="a_edge20_Node000001_Node000015"><a xlink:title=" ">
<path fill="none" stroke="#63b8ff" d="M563.67,-164.83C568.82,-156 576.76,-141.82 582.5,-129 589.16,-114.12 595.38,-96.67 599.66,-83.83"/>
<polygon fill="#63b8ff" stroke="#63b8ff" points="603,-84.88 602.77,-74.29 596.34,-82.71 603,-84.88"/>
</a>
</g>
</g>
<!-- Node16 -->
<g id="Node000016" class="node">
<title>Node16</title>
<g id="a_Node000016"><a xlink:title=" ">
<polygon fill="#e0e0e0" stroke="#999999" points="707,-74 660,-74 660,-55 707,-55 707,-74"/>
<text text-anchor="middle" x="683.5" y="-62" font-family="Helvetica,sans-Serif" font-size="10.00">task.h</text>
</a>
</g>
</g>
<!-- Node1&#45;&gt;Node16 -->
<g id="edge22_Node000001_Node000016" class="edge">
<title>Node1&#45;&gt;Node16</title>
<g id="a_edge22_Node000001_Node000016"><a xlink:title=" ">
<path fill="none" stroke="#63b8ff" d="M568.73,-164.66C589.99,-146.3 639.16,-103.81 665.71,-80.87"/>
<polygon fill="#63b8ff" stroke="#63b8ff" points="668.2,-83.34 673.48,-74.16 663.62,-78.05 668.2,-83.34"/>
</a>
</g>
</g>
<!-- Node18 -->
<g id="Node000018" class="node">
<title>Node18</title>
<g id="a_Node000018"><a xlink:title=" ">
<polygon fill="#e0e0e0" stroke="#999999" points="837.5,-129 781.5,-129 781.5,-110 837.5,-110 837.5,-129"/>
<text text-anchor="middle" x="809.5" y="-117" font-family="Helvetica,sans-Serif" font-size="10.00">queue.h</text>
</a>
</g>
</g>
<!-- Node1&#45;&gt;Node18 -->
<g id="edge21_Node000001_Node000018" class="edge">
<title>Node1&#45;&gt;Node18</title>
<g id="a_edge21_Node000001_Node000018"><a xlink:title=" ">
<path fill="none" stroke="#63b8ff" d="M594.14,-166.32C634.66,-158.11 703.06,-144.1 771.19,-129.25"/>
<polygon fill="#63b8ff" stroke="#63b8ff" points="772.21,-132.61 781.23,-127.06 770.72,-125.77 772.21,-132.61"/>
</a>
</g>
</g>
<!-- Node3 -->
<g id="Node000003" class="node">
<title>Node3</title>
<g id="a_Node000003"><a xlink:title=" ">
<polygon fill="#e0e0e0" stroke="#999999" points="53,-19 0,-19 0,0 53,0 53,-19"/>
<text text-anchor="middle" x="26.5" y="-7" font-family="Helvetica,sans-Serif" font-size="10.00">stdlib.h</text>
</a>
</g>
</g>
<!-- Node2&#45;&gt;Node3 -->
<g id="edge2_Node000002_Node000003" class="edge">
<title>Node2&#45;&gt;Node3</title>
<g id="a_edge2_Node000002_Node000003"><a xlink:title=" ">
<path fill="none" stroke="#63b8ff" d="M205.06,-55.57C167.06,-45.98 103.24,-29.87 63.07,-19.73"/>
<polygon fill="#63b8ff" stroke="#63b8ff" points="63.71,-16.28 53.15,-17.23 61.99,-23.07 63.71,-16.28"/>
</a>
</g>
</g>
<!-- Node4 -->
<g id="Node000004" class="node">
<title>Node4</title>
<g id="a_Node000004"><a xlink:title=" ">
<polygon fill="#e0e0e0" stroke="#999999" points="122,-19 71,-19 71,0 122,0 122,-19"/>
<text text-anchor="middle" x="96.5" y="-7" font-family="Helvetica,sans-Serif" font-size="10.00">errno.h</text>
</a>
</g>
</g>
<!-- Node2&#45;&gt;Node4 -->
<g id="edge3_Node000002_Node000004" class="edge">
<title>Node2&#45;&gt;Node4</title>
<g id="a_edge3_Node000002_Node000004"><a xlink:title=" ">
<path fill="none" stroke="#63b8ff" d="M214.01,-54.98C190.98,-46.27 154.96,-32.63 128.87,-22.75"/>
<polygon fill="#63b8ff" stroke="#63b8ff" points="129.99,-19.44 119.4,-19.17 127.52,-25.98 129.99,-19.44"/>
</a>
</g>
</g>
<!-- Node5 -->
<g id="Node000005" class="node">
<title>Node5</title>
<g id="a_Node000005"><a xlink:title=" ">
<polygon fill="#e0e0e0" stroke="#999999" points="190.5,-19 140.5,-19 140.5,0 190.5,0 190.5,-19"/>
<text text-anchor="middle" x="165.5" y="-7" font-family="Helvetica,sans-Serif" font-size="10.00">stdio.h</text>
</a>
</g>
</g>
<!-- Node2&#45;&gt;Node5 -->
<g id="edge4_Node000002_Node000005" class="edge">
<title>Node2&#45;&gt;Node5</title>
<g id="a_edge4_Node000002_Node000005"><a xlink:title=" ">
<path fill="none" stroke="#63b8ff" d="M225.09,-54.98C214.39,-47 198.16,-34.88 185.34,-25.31"/>
<polygon fill="#63b8ff" stroke="#63b8ff" points="187.22,-22.35 177.11,-19.17 183.03,-27.96 187.22,-22.35"/>
</a>
</g>
</g>
<!-- Node6 -->
<g id="Node000006" class="node">
<title>Node6</title>
<g id="a_Node000006"><a xlink:title=" ">
<polygon fill="#e0e0e0" stroke="#999999" points="264,-19 209,-19 209,0 264,0 264,-19"/>
<text text-anchor="middle" x="236.5" y="-7" font-family="Helvetica,sans-Serif" font-size="10.00">signal.h</text>
</a>
</g>
</g>
<!-- Node2&#45;&gt;Node6 -->
<g id="edge5_Node000002_Node000006" class="edge">
<title>Node2&#45;&gt;Node6</title>
<g id="a_edge5_Node000002_Node000006"><a xlink:title=" ">
<path fill="none" stroke="#63b8ff" d="M236.5,-54.75C236.5,-47.8 236.5,-37.85 236.5,-29.13"/>
<polygon fill="#63b8ff" stroke="#63b8ff" points="240,-29.09 236.5,-19.09 233,-29.09 240,-29.09"/>
</a>
</g>
</g>
<!-- Node7 -->
<g id="Node000007" class="node">
<title>Node7</title>
<g id="a_Node000007"><a xlink:title=" ">
<polygon fill="#e0e0e0" stroke="#999999" points="330.5,-19 282.5,-19 282.5,0 330.5,0 330.5,-19"/>
<text text-anchor="middle" x="306.5" y="-7" font-family="Helvetica,sans-Serif" font-size="10.00">time.h</text>
</a>
</g>
</g>
<!-- Node2&#45;&gt;Node7 -->
<g id="edge6_Node000002_Node000007" class="edge">
<title>Node2&#45;&gt;Node7</title>
<g id="a_edge6_Node000002_Node000007"><a xlink:title=" ">
<path fill="none" stroke="#63b8ff" d="M247.75,-54.98C258.3,-47 274.3,-34.88 286.94,-25.31"/>
<polygon fill="#63b8ff" stroke="#63b8ff" points="289.19,-28 295.05,-19.17 284.96,-22.42 289.19,-28"/>
</a>
</g>
</g>
<!-- Node8 -->
<g id="Node000008" class="node">
<title>Node8</title>
<g id="a_Node000008"><a xlink:title=" ">
<polygon fill="#e0e0e0" stroke="#999999" points="402,-19 349,-19 349,0 402,0 402,-19"/>
<text text-anchor="middle" x="375.5" y="-7" font-family="Helvetica,sans-Serif" font-size="10.00">stdint.h</text>
</a>
</g>
</g>
<!-- Node2&#45;&gt;Node8 -->
<g id="edge7_Node000002_Node000008" class="edge">
<title>Node2&#45;&gt;Node8</title>
<g id="a_edge7_Node000002_Node000008"><a xlink:title=" ">
<path fill="none" stroke="#63b8ff" d="M258.83,-54.98C281.7,-46.27 317.46,-32.63 343.36,-22.75"/>
<polygon fill="#63b8ff" stroke="#63b8ff" points="344.66,-26 352.76,-19.17 342.17,-19.46 344.66,-26"/>
</a>
</g>
</g>
<!-- Node9 -->
<g id="Node000009" class="node">
<title>Node9</title>
<g id="a_Node000009"><a xlink:title=" ">
<polygon fill="#e0e0e0" stroke="#999999" points="485,-19 420,-19 420,0 485,0 485,-19"/>
<text text-anchor="middle" x="452.5" y="-7" font-family="Helvetica,sans-Serif" font-size="10.00">inttypes.h</text>
</a>
</g>
</g>
<!-- Node2&#45;&gt;Node9 -->
<g id="edge8_Node000002_Node000009" class="edge">
<title>Node2&#45;&gt;Node9</title>
<g id="a_edge8_Node000002_Node000009"><a xlink:title=" ">
<path fill="none" stroke="#63b8ff" d="M267.91,-55.79C305.42,-46.59 368.32,-31.16 410.11,-20.9"/>
<polygon fill="#63b8ff" stroke="#63b8ff" points="411.12,-24.26 419.99,-18.48 409.45,-17.46 411.12,-24.26"/>
</a>
</g>
</g>
<!-- Node13 -->
<g id="Node000013" class="node">
<title>Node13</title>
<g id="a_Node000013"><a xlink:href="autoconf_8h.html" target="_top" xlink:title=" ">
<polygon fill="white" stroke="#666666" points="793.5,-74 725.5,-74 725.5,-55 793.5,-55 793.5,-74"/>
<text text-anchor="middle" x="759.5" y="-62" font-family="Helvetica,sans-Serif" font-size="10.00">autoconf.h</text>
</a>
</g>
</g>
<!-- Node12&#45;&gt;Node13 -->
<g id="edge12_Node000012_Node000013" class="edge">
<title>Node12&#45;&gt;Node13</title>
<g id="a_edge12_Node000012_Node000013"><a xlink:title=" ">
<path fill="none" stroke="#63b8ff" d="M722.77,-109.75C729.04,-102.18 738.29,-91.05 745.93,-81.84"/>
<polygon fill="#63b8ff" stroke="#63b8ff" points="748.67,-84.02 752.37,-74.09 743.29,-79.55 748.67,-84.02"/>
</a>
</g>
</g>
<!-- Node14&#45;&gt;Node2 -->
<g id="edge14_Node000014_Node000002" class="edge">
<title>Node14&#45;&gt;Node2</title>
<g id="a_edge14_Node000014_Node000002"><a xlink:title=" ">
<path fill="none" stroke="#63b8ff" d="M467.82,-109.99C421.7,-101.67 349.57,-88.45 278.02,-74.26"/>
<polygon fill="#63b8ff" stroke="#63b8ff" points="278.42,-70.78 267.93,-72.26 277.05,-77.64 278.42,-70.78"/>
</a>
</g>
</g>
<!-- Node14&#45;&gt;Node10 -->
<g id="edge15_Node000014_Node000010" class="edge">
<title>Node14&#45;&gt;Node10</title>
<g id="a_edge15_Node000014_Node000010"><a xlink:title=" ">
<path fill="none" stroke="#63b8ff" d="M483.37,-109.98C448.55,-100.76 392.94,-86.02 355.36,-76.06"/>
<polygon fill="#63b8ff" stroke="#63b8ff" points="355.83,-72.57 345.27,-73.39 354.04,-79.33 355.83,-72.57"/>
</a>
</g>
</g>
<!-- Node14&#45;&gt;Node11 -->
<g id="edge16_Node000014_Node000011" class="edge">
<title>Node14&#45;&gt;Node11</title>
<g id="a_edge16_Node000014_Node000011"><a xlink:title=" ">
<path fill="none" stroke="#63b8ff" d="M500.08,-109.98C485.05,-101.69 461.96,-88.94 444.34,-79.22"/>
<polygon fill="#63b8ff" stroke="#63b8ff" points="445.65,-75.94 435.2,-74.17 442.27,-82.07 445.65,-75.94"/>
</a>
</g>
</g>
<!-- Node14&#45;&gt;Node15 -->
<g id="edge17_Node000014_Node000015" class="edge">
<title>Node14&#45;&gt;Node15</title>
<g id="a_edge17_Node000014_Node000015"><a xlink:title=" ">
<path fill="none" stroke="#63b8ff" d="M529.96,-109.98C543.92,-101.77 565.29,-89.18 581.75,-79.49"/>
<polygon fill="#63b8ff" stroke="#63b8ff" points="583.94,-82.26 590.78,-74.17 580.38,-76.23 583.94,-82.26"/>
</a>
</g>
</g>
<!-- Node14&#45;&gt;Node16 -->
<g id="edge18_Node000014_Node000016" class="edge">
<title>Node14&#45;&gt;Node16</title>
<g id="a_edge18_Node000014_Node000016"><a xlink:title=" ">
<path fill="none" stroke="#63b8ff" d="M542.49,-109.98C571.79,-100.74 618.59,-85.98 650.16,-76.02"/>
<polygon fill="#63b8ff" stroke="#63b8ff" points="651.35,-79.31 659.83,-72.97 649.24,-72.64 651.35,-79.31"/>
</a>
</g>
</g>
<!-- Node17 -->
<g id="Node000017" class="node">
<title>Node17</title>
<g id="a_Node000017"><a xlink:title=" ">
<polygon fill="#e0e0e0" stroke="#999999" points="551.5,-74 493.5,-74 493.5,-55 551.5,-55 551.5,-74"/>
<text text-anchor="middle" x="522.5" y="-62" font-family="Helvetica,sans-Serif" font-size="10.00">device.h</text>
</a>
</g>
</g>
<!-- Node14&#45;&gt;Node17 -->
<g id="edge19_Node000014_Node000017" class="edge">
<title>Node14&#45;&gt;Node17</title>
<g id="a_edge19_Node000014_Node000017"><a xlink:title=" ">
<path fill="none" stroke="#63b8ff" d="M516.66,-109.75C517.57,-102.8 518.89,-92.85 520.04,-84.13"/>
<polygon fill="#63b8ff" stroke="#63b8ff" points="523.53,-84.46 521.37,-74.09 516.59,-83.54 523.53,-84.46"/>
</a>
</g>
</g>
</g>
</svg>
