<?xml version="1.0" encoding="UTF-8" standalone="no"?>
<!DOCTYPE svg PUBLIC "-//W3C//DTD SVG 1.1//EN"
 "http://www.w3.org/Graphics/SVG/1.1/DTD/svg11.dtd">
<!-- Generated by graphviz version 2.43.0 (0)
 -->
<!-- Title: init.h Pages: 1 -->
<svg width="1209pt" height="302pt"
 viewBox="0.00 0.00 1208.50 302.00" xmlns="http://www.w3.org/2000/svg" xmlns:xlink="http://www.w3.org/1999/xlink">
<g id="graph0" class="graph" transform="scale(1 1) rotate(0) translate(4 298)">
<title>init.h</title>
<!-- Node1 -->
<g id="Node000001" class="node">
<title>Node1</title>
<g id="a_Node000001"><a xlink:title=" ">
<polygon fill="#999999" stroke="#666666" points="787,-294 746,-294 746,-275 787,-275 787,-294"/>
<text text-anchor="middle" x="766.5" y="-282" font-family="Helvetica,sans-Serif" font-size="10.00">init.h</text>
</a>
</g>
</g>
<!-- Node2 -->
<g id="Node000002" class="node">
<title>Node2</title>
<g id="a_Node000002"><a xlink:href="def__hw_8h.html" target="_top" xlink:title=" ">
<polygon fill="white" stroke="#666666" points="241.5,-129 181.5,-129 181.5,-110 241.5,-110 241.5,-129"/>
<text text-anchor="middle" x="211.5" y="-117" font-family="Helvetica,sans-Serif" font-size="10.00">def_hw.h</text>
</a>
</g>
</g>
<!-- Node1&#45;&gt;Node2 -->
<g id="edge1_Node000001_Node000002" class="edge">
<title>Node1&#45;&gt;Node2</title>
<g id="a_edge1_Node000001_Node000002"><a xlink:title=" ">
<path fill="none" stroke="#63b8ff" d="M745.63,-279.53C685.48,-267.83 506.87,-231.33 363.5,-184 318.85,-169.26 268.86,-147.26 238.8,-133.41"/>
<polygon fill="#63b8ff" stroke="#63b8ff" points="239.95,-130.08 229.41,-129.04 237,-136.43 239.95,-130.08"/>
</a>
</g>
</g>
<!-- Node3 -->
<g id="Node000003" class="node">
<title>Node3</title>
<g id="a_Node000003"><a xlink:title=" ">
<polygon fill="#e0e0e0" stroke="#999999" points="1080,-239 977,-239 977,-220 1080,-220 1080,-239"/>
<text text-anchor="middle" x="1028.5" y="-227" font-family="Helvetica,sans-Serif" font-size="10.00">drivers/drv_uart.h</text>
</a>
</g>
</g>
<!-- Node1&#45;&gt;Node3 -->
<g id="edge2_Node000001_Node000003" class="edge">
<title>Node1&#45;&gt;Node3</title>
<g id="a_edge2_Node000001_Node000003"><a xlink:title=" ">
<path fill="none" stroke="#63b8ff" d="M787.06,-279.34C827.46,-271.17 918.3,-252.79 976.32,-241.06"/>
<polygon fill="#63b8ff" stroke="#63b8ff" points="977.29,-244.43 986.4,-239.02 975.9,-237.57 977.29,-244.43"/>
</a>
</g>
</g>
<!-- Node4 -->
<g id="Node000004" class="node">
<title>Node4</title>
<g id="a_Node000004"><a xlink:href="mqueue_8h.html" target="_top" xlink:title=" ">
<polygon fill="white" stroke="#666666" points="719,-184 636,-184 636,-165 719,-165 719,-184"/>
<text text-anchor="middle" x="677.5" y="-172" font-family="Helvetica,sans-Serif" font-size="10.00">ipc/mqueue.h</text>
</a>
</g>
</g>
<!-- Node1&#45;&gt;Node4 -->
<g id="edge3_Node000001_Node000004" class="edge">
<title>Node1&#45;&gt;Node4</title>
<g id="a_edge3_Node000001_Node000004"><a xlink:title=" ">
<path fill="none" stroke="#63b8ff" d="M759.22,-274.66C744.34,-256.61 710.28,-215.28 691.16,-192.08"/>
<polygon fill="#63b8ff" stroke="#63b8ff" points="693.7,-189.65 684.64,-184.16 688.29,-194.1 693.7,-189.65"/>
</a>
</g>
</g>
<!-- Node31 -->
<g id="Node000031" class="node">
<title>Node31</title>
<g id="a_Node000031"><a xlink:href="kernel__services_8h.html" target="_top" xlink:title=" ">
<polygon fill="white" stroke="#666666" points="958.5,-239 842.5,-239 842.5,-220 958.5,-220 958.5,-239"/>
<text text-anchor="middle" x="900.5" y="-227" font-family="Helvetica,sans-Serif" font-size="10.00">os/kernel_services.h</text>
</a>
</g>
</g>
<!-- Node1&#45;&gt;Node31 -->
<g id="edge36_Node000001_Node000031" class="edge">
<title>Node1&#45;&gt;Node31</title>
<g id="a_edge36_Node000001_Node000031"><a xlink:title=" ">
<path fill="none" stroke="#63b8ff" d="M787.14,-275.33C809.05,-266.67 843.92,-252.88 869.21,-242.88"/>
<polygon fill="#63b8ff" stroke="#63b8ff" points="870.71,-246.05 878.72,-239.11 868.13,-239.54 870.71,-246.05"/>
</a>
</g>
</g>
<!-- Node4&#45;&gt;Node2 -->
<g id="edge16_Node000004_Node000002" class="edge">
<title>Node4&#45;&gt;Node2</title>
<g id="a_edge16_Node000004_Node000002"><a xlink:title=" ">
<path fill="none" stroke="#63b8ff" d="M635.78,-170.69C560.85,-165.32 398.39,-152.15 251.75,-129.03"/>
<polygon fill="#63b8ff" stroke="#63b8ff" points="252.1,-125.54 241.67,-127.42 250.99,-132.45 252.1,-125.54"/>
</a>
</g>
</g>
<!-- Node5 -->
<g id="Node000005" class="node">
<title>Node5</title>
<g id="a_Node000005"><a xlink:href="def__std_8h.html" target="_top" xlink:title=" ">
<polygon fill="white" stroke="#666666" points="239.5,-74 177.5,-74 177.5,-55 239.5,-55 239.5,-74"/>
<text text-anchor="middle" x="208.5" y="-62" font-family="Helvetica,sans-Serif" font-size="10.00">def_std.h</text>
</a>
</g>
</g>
<!-- Node4&#45;&gt;Node5 -->
<g id="edge4_Node000004_Node000005" class="edge">
<title>Node4&#45;&gt;Node5</title>
<g id="a_edge4_Node000004_Node000005"><a xlink:title=" ">
<path fill="none" stroke="#63b8ff" d="M635.95,-168.91C586.99,-162.81 503.57,-150.26 434.5,-129 414.53,-122.85 411.28,-116.72 391.5,-110 365.52,-101.18 294.97,-84.8 249.44,-74.56"/>
<polygon fill="#63b8ff" stroke="#63b8ff" points="250.09,-71.12 239.57,-72.35 248.56,-77.96 250.09,-71.12"/>
</a>
</g>
</g>
<!-- Node13 -->
<g id="Node000013" class="node">
<title>Node13</title>
<g id="a_Node000013"><a xlink:href="def__compiler_8h.html" target="_top" xlink:title=" ">
<polygon fill="white" stroke="#666666" points="772,-129 683,-129 683,-110 772,-110 772,-129"/>
<text text-anchor="middle" x="727.5" y="-117" font-family="Helvetica,sans-Serif" font-size="10.00">def_compiler.h</text>
</a>
</g>
</g>
<!-- Node4&#45;&gt;Node13 -->
<g id="edge12_Node000004_Node000013" class="edge">
<title>Node4&#45;&gt;Node13</title>
<g id="a_edge12_Node000004_Node000013"><a xlink:title=" ">
<path fill="none" stroke="#63b8ff" d="M685.76,-164.75C692.96,-157.11 703.61,-145.82 712.35,-136.56"/>
<polygon fill="#63b8ff" stroke="#63b8ff" points="715.08,-138.76 719.4,-129.09 709.99,-133.96 715.08,-138.76"/>
</a>
</g>
</g>
<!-- Node14 -->
<g id="Node000014" class="node">
<title>Node14</title>
<g id="a_Node000014"><a xlink:href="list_8h.html" target="_top" xlink:title="All linked list operation functions definitions and macros.">
<polygon fill="white" stroke="#666666" points="507,-129 444,-129 444,-110 507,-110 507,-129"/>
<text text-anchor="middle" x="475.5" y="-117" font-family="Helvetica,sans-Serif" font-size="10.00">mm/list.h</text>
</a>
</g>
</g>
<!-- Node4&#45;&gt;Node14 -->
<g id="edge13_Node000004_Node000014" class="edge">
<title>Node4&#45;&gt;Node14</title>
<g id="a_edge13_Node000004_Node000014"><a xlink:title=" ">
<path fill="none" stroke="#63b8ff" d="M645.05,-164.98C610.24,-155.85 554.86,-141.32 516.93,-131.37"/>
<polygon fill="#63b8ff" stroke="#63b8ff" points="517.77,-127.97 507.21,-128.82 515.99,-134.74 517.77,-127.97"/>
</a>
</g>
</g>
<!-- Node15 -->
<g id="Node000015" class="node">
<title>Node15</title>
<g id="a_Node000015"><a xlink:href="def__env__macros_8h.html" target="_top" xlink:title=" ">
<polygon fill="white" stroke="#666666" points="895.5,-129 789.5,-129 789.5,-110 895.5,-110 895.5,-129"/>
<text text-anchor="middle" x="842.5" y="-117" font-family="Helvetica,sans-Serif" font-size="10.00">def_env_macros.h</text>
</a>
</g>
</g>
<!-- Node4&#45;&gt;Node15 -->
<g id="edge15_Node000004_Node000015" class="edge">
<title>Node4&#45;&gt;Node15</title>
<g id="a_edge15_Node000004_Node000015"><a xlink:title=" ">
<path fill="none" stroke="#63b8ff" d="M704.01,-164.98C731.71,-156.09 775.36,-142.07 806.24,-132.15"/>
<polygon fill="#63b8ff" stroke="#63b8ff" points="807.33,-135.47 815.78,-129.08 805.19,-128.81 807.33,-135.47"/>
</a>
</g>
</g>
<!-- Node16 -->
<g id="Node000016" class="node">
<title>Node16</title>
<g id="a_Node000016"><a xlink:href="conf__os_8h.html" target="_top" xlink:title=" ">
<polygon fill="white" stroke="#666666" points="1129,-129 1066,-129 1066,-110 1129,-110 1129,-129"/>
<text text-anchor="middle" x="1097.5" y="-117" font-family="Helvetica,sans-Serif" font-size="10.00">conf_os.h</text>
</a>
</g>
</g>
<!-- Node4&#45;&gt;Node16 -->
<g id="edge17_Node000004_Node000016" class="edge">
<title>Node4&#45;&gt;Node16</title>
<g id="a_edge17_Node000004_Node000016"><a xlink:title=" ">
<path fill="none" stroke="#63b8ff" d="M719.31,-168.22C799.73,-158.08 975.13,-135.94 1055.61,-125.79"/>
<polygon fill="#63b8ff" stroke="#63b8ff" points="1056.38,-129.22 1065.86,-124.49 1055.5,-122.27 1056.38,-129.22"/>
</a>
</g>
</g>
<!-- Node18 -->
<g id="Node000018" class="node">
<title>Node18</title>
<g id="a_Node000018"><a xlink:href="ipc_2ringbuffer_8h.html" target="_top" xlink:title=" ">
<polygon fill="white" stroke="#666666" points="349,-129 260,-129 260,-110 349,-110 349,-129"/>
<text text-anchor="middle" x="304.5" y="-117" font-family="Helvetica,sans-Serif" font-size="10.00">ipc/ringbuffer.h</text>
</a>
</g>
</g>
<!-- Node4&#45;&gt;Node18 -->
<g id="edge19_Node000004_Node000018" class="edge">
<title>Node4&#45;&gt;Node18</title>
<g id="a_edge19_Node000004_Node000018"><a xlink:title=" ">
<path fill="none" stroke="#63b8ff" d="M635.8,-167.57C568.17,-157.96 434.56,-138.98 359.33,-128.29"/>
<polygon fill="#63b8ff" stroke="#63b8ff" points="359.5,-124.78 349.11,-126.84 358.52,-131.71 359.5,-124.78"/>
</a>
</g>
</g>
<!-- Node20 -->
<g id="Node000020" class="node">
<title>Node20</title>
<g id="a_Node000020"><a xlink:href="os_2kernel__mem_8h.html" target="_top" xlink:title=" ">
<polygon fill="white" stroke="#666666" points="626,-129 525,-129 525,-110 626,-110 626,-129"/>
<text text-anchor="middle" x="575.5" y="-117" font-family="Helvetica,sans-Serif" font-size="10.00">os/kernel_mem.h</text>
</a>
</g>
</g>
<!-- Node4&#45;&gt;Node20 -->
<g id="edge22_Node000004_Node000020" class="edge">
<title>Node4&#45;&gt;Node20</title>
<g id="a_edge22_Node000004_Node000020"><a xlink:title=" ">
<path fill="none" stroke="#63b8ff" d="M661.11,-164.98C644.93,-156.57 619.93,-143.59 601.12,-133.81"/>
<polygon fill="#63b8ff" stroke="#63b8ff" points="602.67,-130.68 592.19,-129.17 599.45,-136.89 602.67,-130.68"/>
</a>
</g>
</g>
<!-- Node23 -->
<g id="Node000023" class="node">
<title>Node23</title>
<g id="a_Node000023"><a xlink:title=" ">
<polygon fill="#e0e0e0" stroke="#999999" points="1036.5,-74 964.5,-74 964.5,-55 1036.5,-55 1036.5,-74"/>
<text text-anchor="middle" x="1000.5" y="-62" font-family="Helvetica,sans-Serif" font-size="10.00">FreeRTOS.h</text>
</a>
</g>
</g>
<!-- Node4&#45;&gt;Node23 -->
<g id="edge34_Node000004_Node000023" class="edge">
<title>Node4&#45;&gt;Node23</title>
<g id="a_edge34_Node000004_Node000023"><a xlink:title=" ">
<path fill="none" stroke="#63b8ff" d="M719.07,-170.24C765.68,-165.49 842.81,-154.28 904.5,-129 934.03,-116.9 964.08,-95.18 982.5,-80.56"/>
<polygon fill="#63b8ff" stroke="#63b8ff" points="984.77,-83.22 990.34,-74.21 980.36,-77.79 984.77,-83.22"/>
</a>
</g>
</g>
<!-- Node25 -->
<g id="Node000025" class="node">
<title>Node25</title>
<g id="a_Node000025"><a xlink:title=" ">
<polygon fill="#e0e0e0" stroke="#999999" points="880.5,-74 824.5,-74 824.5,-55 880.5,-55 880.5,-74"/>
<text text-anchor="middle" x="852.5" y="-62" font-family="Helvetica,sans-Serif" font-size="10.00">queue.h</text>
</a>
</g>
</g>
<!-- Node4&#45;&gt;Node25 -->
<g id="edge35_Node000004_Node000025" class="edge">
<title>Node4&#45;&gt;Node25</title>
<g id="a_edge35_Node000004_Node000025"><a xlink:title=" ">
<path fill="none" stroke="#63b8ff" d="M673.59,-164.62C668.36,-151.25 661.12,-125.84 673.5,-110 675.71,-107.18 762.4,-86.53 814.31,-74.38"/>
<polygon fill="#63b8ff" stroke="#63b8ff" points="815.25,-77.75 824.2,-72.07 813.66,-70.94 815.25,-77.75"/>
</a>
</g>
</g>
<!-- Node6 -->
<g id="Node000006" class="node">
<title>Node6</title>
<g id="a_Node000006"><a xlink:title=" ">
<polygon fill="#e0e0e0" stroke="#999999" points="274,-19 221,-19 221,0 274,0 274,-19"/>
<text text-anchor="middle" x="247.5" y="-7" font-family="Helvetica,sans-Serif" font-size="10.00">stdlib.h</text>
</a>
</g>
</g>
<!-- Node5&#45;&gt;Node6 -->
<g id="edge5_Node000005_Node000006" class="edge">
<title>Node5&#45;&gt;Node6</title>
<g id="a_edge5_Node000005_Node000006"><a xlink:title=" ">
<path fill="none" stroke="#63b8ff" d="M214.94,-54.75C220.39,-47.34 228.36,-36.5 235.06,-27.41"/>
<polygon fill="#63b8ff" stroke="#63b8ff" points="238.07,-29.22 241.18,-19.09 232.43,-25.07 238.07,-29.22"/>
</a>
</g>
</g>
<!-- Node7 -->
<g id="Node000007" class="node">
<title>Node7</title>
<g id="a_Node000007"><a xlink:title=" ">
<polygon fill="#e0e0e0" stroke="#999999" points="343,-19 292,-19 292,0 343,0 343,-19"/>
<text text-anchor="middle" x="317.5" y="-7" font-family="Helvetica,sans-Serif" font-size="10.00">errno.h</text>
</a>
</g>
</g>
<!-- Node5&#45;&gt;Node7 -->
<g id="edge6_Node000005_Node000007" class="edge">
<title>Node5&#45;&gt;Node7</title>
<g id="a_edge6_Node000005_Node000007"><a xlink:title=" ">
<path fill="none" stroke="#63b8ff" d="M226.01,-54.98C243.47,-46.5 270.51,-33.35 290.67,-23.54"/>
<polygon fill="#63b8ff" stroke="#63b8ff" points="292.21,-26.69 299.67,-19.17 289.14,-20.4 292.21,-26.69"/>
</a>
</g>
</g>
<!-- Node8 -->
<g id="Node000008" class="node">
<title>Node8</title>
<g id="a_Node000008"><a xlink:title=" ">
<polygon fill="#e0e0e0" stroke="#999999" points="411.5,-19 361.5,-19 361.5,0 411.5,0 411.5,-19"/>
<text text-anchor="middle" x="386.5" y="-7" font-family="Helvetica,sans-Serif" font-size="10.00">stdio.h</text>
</a>
</g>
</g>
<!-- Node5&#45;&gt;Node8 -->
<g id="edge7_Node000005_Node000008" class="edge">
<title>Node5&#45;&gt;Node8</title>
<g id="a_edge7_Node000005_Node000008"><a xlink:title=" ">
<path fill="none" stroke="#63b8ff" d="M237.1,-54.98C268.27,-45.7 318.16,-30.85 351.61,-20.89"/>
<polygon fill="#63b8ff" stroke="#63b8ff" points="352.84,-24.17 361.42,-17.97 350.84,-17.47 352.84,-24.17"/>
</a>
</g>
</g>
<!-- Node9 -->
<g id="Node000009" class="node">
<title>Node9</title>
<g id="a_Node000009"><a xlink:title=" ">
<polygon fill="#e0e0e0" stroke="#999999" points="485,-19 430,-19 430,0 485,0 485,-19"/>
<text text-anchor="middle" x="457.5" y="-7" font-family="Helvetica,sans-Serif" font-size="10.00">signal.h</text>
</a>
</g>
</g>
<!-- Node5&#45;&gt;Node9 -->
<g id="edge8_Node000005_Node000009" class="edge">
<title>Node5&#45;&gt;Node9</title>
<g id="a_edge8_Node000005_Node000009"><a xlink:title=" ">
<path fill="none" stroke="#63b8ff" d="M239.51,-56.9C242.55,-56.26 245.58,-55.62 248.5,-55 321.79,-39.54 342.54,-36.02 419.45,-19.2"/>
<polygon fill="#63b8ff" stroke="#63b8ff" points="420.61,-22.52 429.63,-16.96 419.12,-15.69 420.61,-22.52"/>
</a>
</g>
</g>
<!-- Node10 -->
<g id="Node000010" class="node">
<title>Node10</title>
<g id="a_Node000010"><a xlink:title=" ">
<polygon fill="#e0e0e0" stroke="#999999" points="119.5,-19 71.5,-19 71.5,0 119.5,0 119.5,-19"/>
<text text-anchor="middle" x="95.5" y="-7" font-family="Helvetica,sans-Serif" font-size="10.00">time.h</text>
</a>
</g>
</g>
<!-- Node5&#45;&gt;Node10 -->
<g id="edge9_Node000005_Node000010" class="edge">
<title>Node5&#45;&gt;Node10</title>
<g id="a_edge9_Node000005_Node000010"><a xlink:title=" ">
<path fill="none" stroke="#63b8ff" d="M190.34,-54.98C172.25,-46.5 144.22,-33.35 123.31,-23.54"/>
<polygon fill="#63b8ff" stroke="#63b8ff" points="124.53,-20.25 113.99,-19.17 121.55,-26.59 124.53,-20.25"/>
</a>
</g>
</g>
<!-- Node11 -->
<g id="Node000011" class="node">
<title>Node11</title>
<g id="a_Node000011"><a xlink:title=" ">
<polygon fill="#e0e0e0" stroke="#999999" points="53,-19 0,-19 0,0 53,0 53,-19"/>
<text text-anchor="middle" x="26.5" y="-7" font-family="Helvetica,sans-Serif" font-size="10.00">stdint.h</text>
</a>
</g>
</g>
<!-- Node5&#45;&gt;Node11 -->
<g id="edge10_Node000005_Node000011" class="edge">
<title>Node5&#45;&gt;Node11</title>
<g id="a_edge10_Node000005_Node000011"><a xlink:title=" ">
<path fill="none" stroke="#63b8ff" d="M179.26,-54.98C147.52,-45.74 96.82,-30.98 62.62,-21.02"/>
<polygon fill="#63b8ff" stroke="#63b8ff" points="63.59,-17.65 53.01,-18.22 61.63,-24.38 63.59,-17.65"/>
</a>
</g>
</g>
<!-- Node12 -->
<g id="Node000012" class="node">
<title>Node12</title>
<g id="a_Node000012"><a xlink:title=" ">
<polygon fill="#e0e0e0" stroke="#999999" points="203,-19 138,-19 138,0 203,0 203,-19"/>
<text text-anchor="middle" x="170.5" y="-7" font-family="Helvetica,sans-Serif" font-size="10.00">inttypes.h</text>
</a>
</g>
</g>
<!-- Node5&#45;&gt;Node12 -->
<g id="edge11_Node000005_Node000012" class="edge">
<title>Node5&#45;&gt;Node12</title>
<g id="a_edge11_Node000005_Node000012"><a xlink:title=" ">
<path fill="none" stroke="#63b8ff" d="M202.23,-54.75C196.91,-47.34 189.14,-36.5 182.62,-27.41"/>
<polygon fill="#63b8ff" stroke="#63b8ff" points="185.33,-25.18 176.66,-19.09 179.64,-29.26 185.33,-25.18"/>
</a>
</g>
</g>
<!-- Node14&#45;&gt;Node5 -->
<g id="edge14_Node000014_Node000005" class="edge">
<title>Node14&#45;&gt;Node5</title>
<g id="a_edge14_Node000014_Node000005"><a xlink:title=" ">
<path fill="none" stroke="#63b8ff" d="M443.89,-112.47C401.89,-104.41 325.11,-89.57 250.03,-74.29"/>
<polygon fill="#63b8ff" stroke="#63b8ff" points="250.43,-70.8 239.93,-72.23 249.03,-77.66 250.43,-70.8"/>
</a>
</g>
</g>
<!-- Node17 -->
<g id="Node000017" class="node">
<title>Node17</title>
<g id="a_Node000017"><a xlink:href="autoconf_8h.html" target="_top" xlink:title=" ">
<polygon fill="white" stroke="#666666" points="1200.5,-74 1132.5,-74 1132.5,-55 1200.5,-55 1200.5,-74"/>
<text text-anchor="middle" x="1166.5" y="-62" font-family="Helvetica,sans-Serif" font-size="10.00">autoconf.h</text>
</a>
</g>
</g>
<!-- Node16&#45;&gt;Node17 -->
<g id="edge18_Node000016_Node000017" class="edge">
<title>Node16&#45;&gt;Node17</title>
<g id="a_edge18_Node000016_Node000017"><a xlink:title=" ">
<path fill="none" stroke="#63b8ff" d="M1108.59,-109.98C1118.99,-102 1134.76,-89.88 1147.22,-80.31"/>
<polygon fill="#63b8ff" stroke="#63b8ff" points="1149.41,-83.04 1155.21,-74.17 1145.15,-77.49 1149.41,-83.04"/>
</a>
</g>
</g>
<!-- Node18&#45;&gt;Node11 -->
<g id="edge20_Node000018_Node000011" class="edge">
<title>Node18&#45;&gt;Node11</title>
<g id="a_edge20_Node000018_Node000011"><a xlink:title=" ">
<path fill="none" stroke="#63b8ff" d="M274.06,-109.94C246.19,-101.78 204,-88.59 168.5,-74 151.04,-66.82 147.63,-62.94 130.5,-55 105.89,-43.59 77.56,-31.54 56.69,-22.86"/>
<polygon fill="#63b8ff" stroke="#63b8ff" points="57.96,-19.6 47.38,-19.01 55.28,-26.07 57.96,-19.6"/>
</a>
</g>
</g>
<!-- Node19 -->
<g id="Node000019" class="node">
<title>Node19</title>
<g id="a_Node000019"><a xlink:title=" ">
<polygon fill="#e0e0e0" stroke="#999999" points="121.5,-74 65.5,-74 65.5,-55 121.5,-55 121.5,-74"/>
<text text-anchor="middle" x="93.5" y="-62" font-family="Helvetica,sans-Serif" font-size="10.00">stddef.h</text>
</a>
</g>
</g>
<!-- Node18&#45;&gt;Node19 -->
<g id="edge21_Node000018_Node000019" class="edge">
<title>Node18&#45;&gt;Node19</title>
<g id="a_edge21_Node000018_Node000019"><a xlink:title=" ">
<path fill="none" stroke="#63b8ff" d="M270.6,-109.98C232.56,-100.43 170.99,-84.97 131.39,-75.02"/>
<polygon fill="#63b8ff" stroke="#63b8ff" points="132.13,-71.59 121.58,-72.55 130.42,-78.38 132.13,-71.59"/>
</a>
</g>
</g>
<!-- Node20&#45;&gt;Node5 -->
<g id="edge23_Node000020_Node000005" class="edge">
<title>Node20&#45;&gt;Node5</title>
<g id="a_edge23_Node000020_Node000005"><a xlink:title=" ">
<path fill="none" stroke="#63b8ff" d="M524.76,-111.29C521.63,-110.85 518.52,-110.42 515.5,-110 400.13,-94.05 368.21,-94.43 250.07,-74.16"/>
<polygon fill="#63b8ff" stroke="#63b8ff" points="250.35,-70.66 239.9,-72.41 249.16,-77.56 250.35,-70.66"/>
</a>
</g>
</g>
<!-- Node21 -->
<g id="Node000021" class="node">
<title>Node21</title>
<g id="a_Node000021"><a xlink:href="def__err_8h.html" target="_top" xlink:title=" ">
<polygon fill="white" stroke="#666666" points="1114,-74 1055,-74 1055,-55 1114,-55 1114,-74"/>
<text text-anchor="middle" x="1084.5" y="-62" font-family="Helvetica,sans-Serif" font-size="10.00">def_err.h</text>
</a>
</g>
</g>
<!-- Node20&#45;&gt;Node21 -->
<g id="edge24_Node000020_Node000021" class="edge">
<title>Node20&#45;&gt;Node21</title>
<g id="a_edge24_Node000020_Node000021"><a xlink:title=" ">
<path fill="none" stroke="#63b8ff" d="M626.05,-114.06C732.76,-104.64 976.23,-82.89 1044.69,-73.81"/>
<polygon fill="#63b8ff" stroke="#63b8ff" points="1045.36,-77.25 1054.76,-72.37 1044.36,-70.32 1045.36,-77.25"/>
</a>
</g>
</g>
<!-- Node22 -->
<g id="Node000022" class="node">
<title>Node22</title>
<g id="a_Node000022"><a xlink:href="def__attributes_8h.html" target="_top" xlink:title=" ">
<polygon fill="white" stroke="#666666" points="806.5,-74 712.5,-74 712.5,-55 806.5,-55 806.5,-74"/>
<text text-anchor="middle" x="759.5" y="-62" font-family="Helvetica,sans-Serif" font-size="10.00">def_attributes.h</text>
</a>
</g>
</g>
<!-- Node20&#45;&gt;Node22 -->
<g id="edge25_Node000020_Node000022" class="edge">
<title>Node20&#45;&gt;Node22</title>
<g id="a_edge25_Node000020_Node000022"><a xlink:title=" ">
<path fill="none" stroke="#63b8ff" d="M605.06,-109.98C636.22,-101.01 685.47,-86.82 719.96,-76.89"/>
<polygon fill="#63b8ff" stroke="#63b8ff" points="721.07,-80.21 729.71,-74.08 719.13,-73.49 721.07,-80.21"/>
</a>
</g>
</g>
<!-- Node20&#45;&gt;Node23 -->
<g id="edge26_Node000020_Node000023" class="edge">
<title>Node20&#45;&gt;Node23</title>
<g id="a_edge26_Node000020_Node000023"><a xlink:title=" ">
<path fill="none" stroke="#63b8ff" d="M626.22,-113.62C699.05,-106.36 837.4,-91.67 954.5,-74 954.6,-73.98 954.7,-73.97 954.8,-73.95"/>
<polygon fill="#63b8ff" stroke="#63b8ff" points="955.06,-77.46 964.38,-72.41 953.95,-70.55 955.06,-77.46"/>
</a>
</g>
</g>
<!-- Node24 -->
<g id="Node000024" class="node">
<title>Node24</title>
<g id="a_Node000024"><a xlink:title=" ">
<polygon fill="#e0e0e0" stroke="#999999" points="317,-74 258,-74 258,-55 317,-55 317,-74"/>
<text text-anchor="middle" x="287.5" y="-62" font-family="Helvetica,sans-Serif" font-size="10.00">atomic.h</text>
</a>
</g>
</g>
<!-- Node20&#45;&gt;Node24 -->
<g id="edge27_Node000020_Node000024" class="edge">
<title>Node20&#45;&gt;Node24</title>
<g id="a_edge27_Node000020_Node000024"><a xlink:title=" ">
<path fill="none" stroke="#63b8ff" d="M524.62,-110.12C476.19,-101.99 401.03,-88.97 327.27,-74.29"/>
<polygon fill="#63b8ff" stroke="#63b8ff" points="327.84,-70.84 317.34,-72.31 326.46,-77.7 327.84,-70.84"/>
</a>
</g>
</g>
<!-- Node20&#45;&gt;Node25 -->
<g id="edge28_Node000020_Node000025" class="edge">
<title>Node20&#45;&gt;Node25</title>
<g id="a_edge28_Node000020_Node000025"><a xlink:title=" ">
<path fill="none" stroke="#63b8ff" d="M624.8,-109.99C671.22,-101.84 742.93,-88.87 814.2,-74.2"/>
<polygon fill="#63b8ff" stroke="#63b8ff" points="815.16,-77.58 824.25,-72.12 813.74,-70.72 815.16,-77.58"/>
</a>
</g>
</g>
<!-- Node26 -->
<g id="Node000026" class="node">
<title>Node26</title>
<g id="a_Node000026"><a xlink:title=" ">
<polygon fill="#e0e0e0" stroke="#999999" points="946,-74 899,-74 899,-55 946,-55 946,-74"/>
<text text-anchor="middle" x="922.5" y="-62" font-family="Helvetica,sans-Serif" font-size="10.00">task.h</text>
</a>
</g>
</g>
<!-- Node20&#45;&gt;Node26 -->
<g id="edge29_Node000020_Node000026" class="edge">
<title>Node20&#45;&gt;Node26</title>
<g id="a_edge29_Node000020_Node000026"><a xlink:title=" ">
<path fill="none" stroke="#63b8ff" d="M626.1,-113.09C686.39,-106.25 790.33,-93.22 888.95,-73.9"/>
<polygon fill="#63b8ff" stroke="#63b8ff" points="889.65,-77.33 898.78,-71.95 888.29,-70.46 889.65,-77.33"/>
</a>
</g>
</g>
<!-- Node27 -->
<g id="Node000027" class="node">
<title>Node27</title>
<g id="a_Node000027"><a xlink:title=" ">
<polygon fill="#e0e0e0" stroke="#999999" points="392,-74 335,-74 335,-55 392,-55 392,-74"/>
<text text-anchor="middle" x="363.5" y="-62" font-family="Helvetica,sans-Serif" font-size="10.00">timers.h</text>
</a>
</g>
</g>
<!-- Node20&#45;&gt;Node27 -->
<g id="edge30_Node000020_Node000027" class="edge">
<title>Node20&#45;&gt;Node27</title>
<g id="a_edge30_Node000020_Node000027"><a xlink:title=" ">
<path fill="none" stroke="#63b8ff" d="M541.44,-109.98C503.32,-100.46 441.71,-85.05 401.91,-75.1"/>
<polygon fill="#63b8ff" stroke="#63b8ff" points="402.59,-71.66 392.04,-72.63 400.89,-78.46 402.59,-71.66"/>
</a>
</g>
</g>
<!-- Node28 -->
<g id="Node000028" class="node">
<title>Node28</title>
<g id="a_Node000028"><a xlink:title=" ">
<polygon fill="#e0e0e0" stroke="#999999" points="472.5,-74 410.5,-74 410.5,-55 472.5,-55 472.5,-74"/>
<text text-anchor="middle" x="441.5" y="-62" font-family="Helvetica,sans-Serif" font-size="10.00">semphr.h</text>
</a>
</g>
</g>
<!-- Node20&#45;&gt;Node28 -->
<g id="edge31_Node000020_Node000028" class="edge">
<title>Node20&#45;&gt;Node28</title>
<g id="a_edge31_Node000020_Node000028"><a xlink:title=" ">
<path fill="none" stroke="#63b8ff" d="M553.97,-109.98C532.03,-101.3 497.76,-87.75 472.81,-77.88"/>
<polygon fill="#63b8ff" stroke="#63b8ff" points="474.01,-74.59 463.42,-74.17 471.43,-81.1 474.01,-74.59"/>
</a>
</g>
</g>
<!-- Node29 -->
<g id="Node000029" class="node">
<title>Node29</title>
<g id="a_Node000029"><a xlink:title=" ">
<polygon fill="#e0e0e0" stroke="#999999" points="582.5,-74 490.5,-74 490.5,-55 582.5,-55 582.5,-74"/>
<text text-anchor="middle" x="536.5" y="-62" font-family="Helvetica,sans-Serif" font-size="10.00">event_groups.h</text>
</a>
</g>
</g>
<!-- Node20&#45;&gt;Node29 -->
<g id="edge32_Node000020_Node000029" class="edge">
<title>Node20&#45;&gt;Node29</title>
<g id="a_edge32_Node000020_Node000029"><a xlink:title=" ">
<path fill="none" stroke="#63b8ff" d="M569.06,-109.75C563.61,-102.34 555.64,-91.5 548.94,-82.41"/>
<polygon fill="#63b8ff" stroke="#63b8ff" points="551.57,-80.07 542.82,-74.09 545.93,-84.22 551.57,-80.07"/>
</a>
</g>
</g>
<!-- Node30 -->
<g id="Node000030" class="node">
<title>Node30</title>
<g id="a_Node000030"><a xlink:title=" ">
<polygon fill="#e0e0e0" stroke="#999999" points="694,-74 601,-74 601,-55 694,-55 694,-74"/>
<text text-anchor="middle" x="647.5" y="-62" font-family="Helvetica,sans-Serif" font-size="10.00">stream_buffer.h</text>
</a>
</g>
</g>
<!-- Node20&#45;&gt;Node30 -->
<g id="edge33_Node000020_Node000030" class="edge">
<title>Node20&#45;&gt;Node30</title>
<g id="a_edge33_Node000020_Node000030"><a xlink:title=" ">
<path fill="none" stroke="#63b8ff" d="M587.07,-109.98C597.92,-102 614.38,-89.88 627.38,-80.31"/>
<polygon fill="#63b8ff" stroke="#63b8ff" points="629.74,-82.92 635.72,-74.17 625.59,-77.28 629.74,-82.92"/>
</a>
</g>
</g>
<!-- Node31&#45;&gt;Node4 -->
<g id="edge40_Node000031_Node000004" class="edge">
<title>Node31&#45;&gt;Node4</title>
<g id="a_edge40_Node000031_Node000004"><a xlink:title=" ">
<path fill="none" stroke="#63b8ff" d="M864.67,-219.98C826.34,-210.87 765.42,-196.4 723.55,-186.45"/>
<polygon fill="#63b8ff" stroke="#63b8ff" points="724.15,-182.99 713.61,-184.08 722.53,-189.8 724.15,-182.99"/>
</a>
</g>
</g>
<!-- Node31&#45;&gt;Node5 -->
<g id="edge37_Node000031_Node000005" class="edge">
<title>Node31&#45;&gt;Node5</title>
<g id="a_edge37_Node000031_Node000005"><a xlink:title=" ">
<path fill="none" stroke="#63b8ff" d="M842.3,-220.24C786.69,-212.06 700.6,-198.67 626.5,-184 521.28,-163.17 491.52,-167.76 391.5,-129 375.36,-122.74 373.44,-116.74 357.5,-110 322.09,-95.03 279.97,-82.95 249.56,-75.17"/>
<polygon fill="#63b8ff" stroke="#63b8ff" points="250.28,-71.74 239.72,-72.7 248.57,-78.53 250.28,-71.74"/>
</a>
</g>
</g>
<!-- Node31&#45;&gt;Node16 -->
<g id="edge39_Node000031_Node000016" class="edge">
<title>Node31&#45;&gt;Node16</title>
<g id="a_edge39_Node000031_Node000016"><a xlink:title=" ">
<path fill="none" stroke="#63b8ff" d="M958.56,-220.58C988.41,-214.34 1024.16,-203.32 1051.5,-184 1068.12,-172.25 1081.02,-152.57 1088.87,-138.23"/>
<polygon fill="#63b8ff" stroke="#63b8ff" points="1092,-139.8 1093.48,-129.31 1085.78,-136.58 1092,-139.8"/>
</a>
</g>
</g>
<!-- Node31&#45;&gt;Node21 -->
<g id="edge38_Node000031_Node000021" class="edge">
<title>Node31&#45;&gt;Node21</title>
<g id="a_edge38_Node000031_Node000021"><a xlink:title=" ">
<path fill="none" stroke="#63b8ff" d="M910.13,-219.97C939.56,-193.9 1028.56,-115.06 1066.77,-81.21"/>
<polygon fill="#63b8ff" stroke="#63b8ff" points="1069.35,-83.6 1074.52,-74.34 1064.71,-78.36 1069.35,-83.6"/>
</a>
</g>
</g>
<!-- Node31&#45;&gt;Node23 -->
<g id="edge41_Node000031_Node000023" class="edge">
<title>Node31&#45;&gt;Node23</title>
<g id="a_edge41_Node000031_Node000023"><a xlink:title=" ">
<path fill="none" stroke="#63b8ff" d="M905.88,-219.74C921.75,-193.87 968.61,-117.48 989.84,-82.88"/>
<polygon fill="#63b8ff" stroke="#63b8ff" points="992.85,-84.66 995.1,-74.31 986.88,-81 992.85,-84.66"/>
</a>
</g>
</g>
<!-- Node31&#45;&gt;Node26 -->
<g id="edge42_Node000031_Node000026" class="edge">
<title>Node31&#45;&gt;Node26</title>
<g id="a_edge42_Node000031_Node000026"><a xlink:title=" ">
<path fill="none" stroke="#63b8ff" d="M901.68,-219.74C905.13,-194.2 915.22,-119.43 919.97,-84.23"/>
<polygon fill="#63b8ff" stroke="#63b8ff" points="923.44,-84.69 921.31,-74.31 916.51,-83.75 923.44,-84.69"/>
</a>
</g>
</g>
</g>
</svg>
