<?xml version="1.0" encoding="UTF-8" standalone="no"?>
<!DOCTYPE svg PUBLIC "-//W3C//DTD SVG 1.1//EN"
 "http://www.w3.org/Graphics/SVG/1.1/DTD/svg11.dtd">
<!-- Generated by graphviz version 2.43.0 (0)
 -->
<!-- Title: ringbuffer_putchar Pages: 1 -->
<!--zoomable 167 -->

<svg id="main" version="1.1" xmlns="http://www.w3.org/2000/svg" xmlns:xlink="http://www.w3.org/1999/xlink" xml:space="preserve" onload="init(evt)">
<style type="text/css"><![CDATA[
.node, .edge {opacity: 0.7;}
.node.selected, .edge.selected {opacity: 1;}
.edge:hover path { stroke: red; }
.edge:hover polygon { stroke: red; fill: red; }
]]></style>

<defs>
  <circle id="rim" cx="0" cy="0" r="7"/>
  <circle id="rim2" cx="0" cy="0" r="3.5"/>
  <g id="zoomPlus">
    <use xlink:href="#rim" fill="#404040"><set attributeName="fill" to="#808080" begin="zoomplus.mouseover" end="zoomplus.mouseout"/></use>
    <path d="M-4,0h8M0,-4v8" fill="none" stroke="white" stroke-width="1.5" pointer-events="none"/>
  </g>
  <g id="zoomMin">
    <use xlink:href="#rim" fill="#404040"><set attributeName="fill" to="#808080" begin="zoomminus.mouseover" end="zoomminus.mouseout"/></use>
    <path d="M-4,0h8" fill="none" stroke="white" stroke-width="1.5" pointer-events="none"/>
  </g>
  <g id="arrowUp" transform="translate(30 24)">
    <use xlink:href="#rim"/>
    <path pointer-events="none" fill="none" stroke="white" stroke-width="1.5" d="M0,-3.0v7 M-2.5,-0.5L0,-3.0L2.5,-0.5"/>
  </g>
  <g id="arrowRight" transform="rotate(90) translate(36 -43)">
    <use xlink:href="#rim"/>
    <path pointer-events="none" fill="none" stroke="white" stroke-width="1.5" d="M0,-3.0v7 M-2.5,-0.5L0,-3.0L2.5,-0.5"/>
  </g>
  <g id="arrowDown" transform="rotate(180) translate(-30 -48)">
    <use xlink:href="#rim"/>
    <path pointer-events="none" fill="none" stroke="white" stroke-width="1.5" d="M0,-3.0v7 M-2.5,-0.5L0,-3.0L2.5,-0.5"/>
  </g>
  <g id="arrowLeft" transform="rotate(270) translate(-36 17)">
    <use xlink:href="#rim"/>
    <path pointer-events="none" fill="none" stroke="white" stroke-width="1.5" d="M0,-3.0v7 M-2.5,-0.5L0,-3.0L2.5,-0.5"/>
  </g>
  <g id="resetDef">
    <use xlink:href="#rim2" fill="#404040"><set attributeName="fill" to="#808080" begin="reset.mouseover" end="reset.mouseout"/></use>
  </g>
</defs>
<script type="application/ecmascript">
var viewWidth = 830;
var viewHeight = 167;
var sectionId = 'dynsection-15';
</script>
<script type="application/ecmascript" xlink:href="svg.min.js"/>
<svg id="graph" class="graph">
<g id="viewport">
<title>ringbuffer_putchar</title>
<!-- Node1 -->
<g id="Node000001" class="node">
<title>Node1</title>
<g id="a_Node000001"><a xlink:title=" ">
<polygon fill="#999999" stroke="#666666" points="822,-56 716,-56 716,-37 822,-37 822,-56"/>
<text text-anchor="middle" x="769" y="-44" font-family="Helvetica,sans-Serif" font-size="10.00">ringbuffer_putchar</text>
</a>
</g>
</g>
<!-- Node2 -->
<g id="Node000002" class="node">
<title>Node2</title>
<g id="a_Node000002"><a xlink:href="os__shell__management_8c.html#a674105c8790acda9c7e4ea9a74cf1aec" target="_top" xlink:title=" ">
<polygon fill="white" stroke="#666666" points="680,-112 605,-112 605,-93 680,-93 680,-112"/>
<text text-anchor="middle" x="642.5" y="-100" font-family="Helvetica,sans-Serif" font-size="10.00">_shell_write</text>
</a>
</g>
</g>
<!-- Node1&#45;&gt;Node2 -->
<g id="edge1_Node000001_Node000002" class="edge">
<title>Node1&#45;&gt;Node2</title>
<g id="a_edge1_Node000001_Node000002"><a xlink:title=" ">
<path fill="none" stroke="#63b8ff" d="M737.42,-60.25C714.81,-70.42 684.6,-84.01 664.62,-93"/>
<polygon fill="#63b8ff" stroke="#63b8ff" points="738.91,-63.42 746.6,-56.13 736.04,-57.04 738.91,-63.42"/>
</a>
</g>
</g>
<!-- Node9 -->
<g id="Node000009" class="node">
<title>Node9</title>
<g id="a_Node000009"><a xlink:href="uart__mgmt_8c.html#a92576ac01ea62a4da3a4bb9c598d8e7b" target="_top" xlink:title=" ">
<polygon fill="white" stroke="#666666" points="679,-56 606,-56 606,-37 679,-37 679,-56"/>
<text text-anchor="middle" x="642.5" y="-44" font-family="Helvetica,sans-Serif" font-size="10.00">_uart_rx_cb</text>
</a>
</g>
</g>
<!-- Node1&#45;&gt;Node9 -->
<g id="edge8_Node000001_Node000009" class="edge">
<title>Node1&#45;&gt;Node9</title>
<g id="a_edge8_Node000001_Node000009"><a xlink:title=" ">
<path fill="none" stroke="#63b8ff" d="M705.67,-46.5C696.56,-46.5 687.45,-46.5 679.12,-46.5"/>
<polygon fill="#63b8ff" stroke="#63b8ff" points="705.92,-50 715.92,-46.5 705.92,-43 705.92,-50"/>
</a>
</g>
</g>
<!-- Node12 -->
<g id="Node000012" class="node">
<title>Node12</title>
<g id="a_Node000012"><a xlink:href="syscalls_8c.html#ae9112526a914a06994511bdf3095b0a9" target="_top" xlink:title=" ">
<polygon fill="white" stroke="#666666" points="665,-19 620,-19 620,0 665,0 665,-19"/>
<text text-anchor="middle" x="642.5" y="-7" font-family="Helvetica,sans-Serif" font-size="10.00">printk</text>
</a>
</g>
</g>
<!-- Node1&#45;&gt;Node12 -->
<g id="edge12_Node000001_Node000012" class="edge">
<title>Node1&#45;&gt;Node12</title>
<g id="a_edge12_Node000001_Node000012"><a xlink:title=" ">
<path fill="none" stroke="#63b8ff" d="M726.22,-34.08C705.79,-28.01 682.06,-20.96 665.26,-15.97"/>
<polygon fill="#63b8ff" stroke="#63b8ff" points="725.36,-37.48 735.94,-36.97 727.35,-30.77 725.36,-37.48"/>
</a>
</g>
</g>
<!-- Node3 -->
<g id="Node000003" class="node">
<title>Node3</title>
<g id="a_Node000003"><a xlink:href="os__shell__management_8c.html#a038e91f0ffdf433bba8536c74ef958d9" target="_top" xlink:title=" ">
<polygon fill="white" stroke="#666666" points="561,-159 466,-159 466,-140 561,-140 561,-159"/>
<text text-anchor="middle" x="513.5" y="-147" font-family="Helvetica,sans-Serif" font-size="10.00">_cmd_reboot_fn</text>
</a>
</g>
</g>
<!-- Node2&#45;&gt;Node3 -->
<g id="edge2_Node000002_Node000003" class="edge">
<title>Node2&#45;&gt;Node3</title>
<g id="a_edge2_Node000002_Node000003"><a xlink:title=" ">
<path fill="none" stroke="#63b8ff" d="M606.34,-115.51C585.52,-123.22 559.59,-132.81 540.6,-139.84"/>
<polygon fill="#63b8ff" stroke="#63b8ff" points="607.64,-118.76 615.8,-112.01 605.21,-112.2 607.64,-118.76"/>
</a>
</g>
</g>
<!-- Node4 -->
<g id="Node000004" class="node">
<title>Node4</title>
<g id="a_Node000004"><a xlink:href="os__shell__management_8c.html#a5b7eb0bbbac6bbc8febc3cf4a41932f5" target="_top" xlink:title=" ">
<polygon fill="white" stroke="#666666" points="422,-84 334,-84 334,-65 422,-65 422,-84"/>
<text text-anchor="middle" x="378" y="-72" font-family="Helvetica,sans-Serif" font-size="10.00">_os_shell_task</text>
</a>
</g>
</g>
<!-- Node2&#45;&gt;Node4 -->
<g id="edge3_Node000002_Node000004" class="edge">
<title>Node2&#45;&gt;Node4</title>
<g id="a_edge3_Node000002_Node000004"><a xlink:title=" ">
<path fill="none" stroke="#63b8ff" d="M594.72,-102.13C557.51,-101.32 504.21,-98.98 458,-92.5 443.79,-90.51 428.36,-87.25 414.94,-84.04"/>
<polygon fill="#63b8ff" stroke="#63b8ff" points="594.7,-105.63 604.77,-102.32 594.84,-98.63 594.7,-105.63"/>
</a>
</g>
</g>
<!-- Node8 -->
<g id="Node000008" class="node">
<title>Node8</title>
<g id="a_Node000008"><a xlink:href="os__shell__management_8c.html#a4dcab531b1b38b06384ff4035db371da" target="_top" xlink:title=" ">
<polygon fill="white" stroke="#666666" points="569,-83 458,-83 458,-64 569,-64 569,-83"/>
<text text-anchor="middle" x="513.5" y="-71" font-family="Helvetica,sans-Serif" font-size="10.00">_shell_process_line</text>
</a>
</g>
</g>
<!-- Node2&#45;&gt;Node8 -->
<g id="edge6_Node000002_Node000008" class="edge">
<title>Node2&#45;&gt;Node8</title>
<g id="a_edge6_Node000002_Node000008"><a xlink:title=" ">
<path fill="none" stroke="#63b8ff" d="M594.93,-91.87C582.35,-88.99 568.82,-85.9 556.52,-83.09"/>
<polygon fill="#63b8ff" stroke="#63b8ff" points="594.24,-95.3 604.77,-94.11 595.8,-88.47 594.24,-95.3"/>
</a>
</g>
</g>
<!-- Node5 -->
<g id="Node000005" class="node">
<title>Node5</title>
<g id="a_Node000005"><a xlink:href="os__shell__management_8c.html#a8fae79f71d15477bc1251891e977e46e" target="_top" xlink:title="Create and start the OS shell management task.">
<polygon fill="white" stroke="#666666" points="298,-83 179,-83 179,-64 298,-64 298,-83"/>
<text text-anchor="middle" x="238.5" y="-71" font-family="Helvetica,sans-Serif" font-size="10.00">os_shell_mgmt_start</text>
</a>
</g>
</g>
<!-- Node4&#45;&gt;Node5 -->
<g id="edge4_Node000004_Node000005" class="edge">
<title>Node4&#45;&gt;Node5</title>
<g id="a_edge4_Node000004_Node000005"><a xlink:title=" ">
<path fill="none" stroke="#63b8ff" d="M323.8,-74.11C315.38,-74.05 306.63,-73.99 298.1,-73.93"/>
<polygon fill="#63b8ff" stroke="#63b8ff" points="323.85,-77.61 333.87,-74.19 323.9,-70.61 323.85,-77.61"/>
</a>
</g>
</g>
<!-- Node6 -->
<g id="Node000006" class="node">
<title>Node6</title>
<g id="a_Node000006"><a xlink:href="kernel__service__core_8c.html#a77b96ca30dab7f5f8e84daae1ed8f183" target="_top" xlink:title=" ">
<polygon fill="#fff0f0" stroke="red" points="143,-64 0,-64 0,-45 143,-45 143,-64"/>
<text text-anchor="middle" x="71.5" y="-52" font-family="Helvetica,sans-Serif" font-size="10.00">os_kernel_thread_register</text>
</a>
</g>
</g>
<!-- Node5&#45;&gt;Node6 -->
<g id="edge5_Node000005_Node000006" class="edge">
<title>Node5&#45;&gt;Node6</title>
<g id="a_edge5_Node000005_Node000006"><a xlink:title=" ">
<path fill="none" stroke="#63b8ff" d="M168.67,-65.57C160.22,-64.6 151.57,-63.61 143.09,-62.63"/>
<polygon fill="#63b8ff" stroke="#63b8ff" points="168.53,-69.08 178.86,-66.75 169.33,-62.13 168.53,-69.08"/>
</a>
</g>
</g>
<!-- Node8&#45;&gt;Node4 -->
<g id="edge7_Node000008_Node000004" class="edge">
<title>Node8&#45;&gt;Node4</title>
<g id="a_edge7_Node000008_Node000004"><a xlink:title=" ">
<path fill="none" stroke="#63b8ff" d="M447.76,-73.98C439.15,-74.05 430.5,-74.11 422.37,-74.18"/>
<polygon fill="#63b8ff" stroke="#63b8ff" points="447.84,-77.48 457.82,-73.91 447.79,-70.48 447.84,-77.48"/>
</a>
</g>
</g>
<!-- Node10 -->
<g id="Node000010" class="node">
<title>Node10</title>
<g id="a_Node000010"><a xlink:href="uart__mgmt_8c.html#af8eff33b840c2e11d5bd889fd97c705a" target="_top" xlink:title=" ">
<polygon fill="white" stroke="#666666" points="567,-46 460,-46 460,-27 567,-27 567,-46"/>
<text text-anchor="middle" x="513.5" y="-34" font-family="Helvetica,sans-Serif" font-size="10.00">uart_mgmt_thread</text>
</a>
</g>
</g>
<!-- Node9&#45;&gt;Node10 -->
<g id="edge9_Node000009_Node000010" class="edge">
<title>Node9&#45;&gt;Node10</title>
<g id="a_edge9_Node000009_Node000010"><a xlink:title=" ">
<path fill="none" stroke="#63b8ff" d="M595.59,-42.89C586.31,-42.15 576.49,-41.38 567.01,-40.63"/>
<polygon fill="#63b8ff" stroke="#63b8ff" points="595.54,-46.39 605.79,-43.69 596.09,-39.41 595.54,-46.39"/>
</a>
</g>
</g>
<!-- Node11 -->
<g id="Node000011" class="node">
<title>Node11</title>
<g id="a_Node000011"><a xlink:href="uart__mgmt_8c.html#a8e8f570b41df4e77ed5acfbeaef25423" target="_top" xlink:title="Create and start the UART management thread.">
<polygon fill="white" stroke="#666666" points="287.5,-46 189.5,-46 189.5,-27 287.5,-27 287.5,-46"/>
<text text-anchor="middle" x="238.5" y="-34" font-family="Helvetica,sans-Serif" font-size="10.00">uart_mgmt_start</text>
</a>
</g>
</g>
<!-- Node10&#45;&gt;Node11 -->
<g id="edge10_Node000010_Node000011" class="edge">
<title>Node10&#45;&gt;Node11</title>
<g id="a_edge10_Node000010_Node000011"><a xlink:title=" ">
<path fill="none" stroke="#63b8ff" d="M449.65,-36.5C400.41,-36.5 332.93,-36.5 287.85,-36.5"/>
<polygon fill="#63b8ff" stroke="#63b8ff" points="449.86,-40 459.86,-36.5 449.86,-33 449.86,-40"/>
</a>
</g>
</g>
<!-- Node11&#45;&gt;Node6 -->
<g id="edge11_Node000011_Node000006" class="edge">
<title>Node11&#45;&gt;Node6</title>
<g id="a_edge11_Node000011_Node000006"><a xlink:title=" ">
<path fill="none" stroke="#63b8ff" d="M179.27,-42.85C167.58,-44.13 155.17,-45.48 143.11,-46.8"/>
<polygon fill="#63b8ff" stroke="#63b8ff" points="179.77,-46.32 189.33,-41.75 179.01,-39.36 179.77,-46.32"/>
</a>
</g>
</g>
</g>
</svg>

<g id="navigator" transform="translate(0 0)" fill="#404254">
  <rect fill="#f2f5e9" fill-opacity="0.5" stroke="#606060" stroke-width=".5" x="0" y="0" width="60" height="60"/>
  <use id="zoomplus" xlink:href="#zoomPlus" x="17" y="9" onmousedown="handleZoom(evt,'in')"/>
  <use id="zoomminus" xlink:href="#zoomMin" x="42" y="9" onmousedown="handleZoom(evt,'out')"/>
  <use id="reset" xlink:href="#resetDef" x="30" y="36" onmousedown="handleReset()"/>
   <use id="arrowup" xlink:href="#arrowUp" x="0" y="0" onmousedown="handlePan(0,-1)"/>
  <use id="arrowright" xlink:href="#arrowRight" x="0" y="0" onmousedown="handlePan(1,0)"/>
  <use id="arrowdown" xlink:href="#arrowDown" x="0" y="0" onmousedown="handlePan(0,1)"/>
  <use id="arrowleft" xlink:href="#arrowLeft" x="0" y="0" onmousedown="handlePan(-1,0)"/>
</g>
<svg viewBox="0 0 15 15" width="100%" height="30px" preserveAspectRatio="xMaxYMin meet">
 <g id="arrow_out" transform="scale(0.3 0.3)">
  <a xlink:href="ipc_2ringbuffer_8h_ab0175d641c6489e01eb1f11eb161307a_icgraph_org.svg" target="_base">
   <rect id="button" ry="5" rx="5" y="6" x="6" height="38" width="38"
        fill="#f2f5e9" fill-opacity="0.5" stroke="#606060" stroke-width="1.0"/>
   <path id="arrow"
     d="M 11.500037,31.436501 C 11.940474,20.09759 22.043105,11.32322 32.158766,21.979434 L 37.068811,17.246167 C 37.068811,17.246167 37.088388,32 37.088388,32 L 22.160133,31.978069 C 22.160133,31.978069 26.997745,27.140456 26.997745,27.140456 C 18.528582,18.264221 13.291696,25.230495 11.500037,31.436501 z"
     style="fill:#404040;"/>
  </a>
 </g>
</svg>

<style type='text/css'>
<![CDATA[
[data-mouse-over-selected='false'] { opacity: 0.7; }
[data-mouse-over-selected='true']  { opacity: 1.0; }
]]>
</style>
<script type="application/ecmascript"><![CDATA[
document.addEventListener('DOMContentLoaded', (event) => {
  highlightEdges();
  highlightAdjacentNodes();
});
]]></script>
</svg>
