<?xml version="1.0" encoding="UTF-8" standalone="no"?>
<!DOCTYPE svg PUBLIC "-//W3C//DTD SVG 1.1//EN"
 "http://www.w3.org/Graphics/SVG/1.1/DTD/svg11.dtd">
<!-- Generated by graphviz version 2.43.0 (0)
 -->
<!-- Title: ringbuffer.h Pages: 1 -->
<!--zoomable 203 -->

<svg id="main" version="1.1" xmlns="http://www.w3.org/2000/svg" xmlns:xlink="http://www.w3.org/1999/xlink" xml:space="preserve" onload="init(evt)">
<style type="text/css"><![CDATA[
.node, .edge {opacity: 0.7;}
.node.selected, .edge.selected {opacity: 1;}
.edge:hover path { stroke: red; }
.edge:hover polygon { stroke: red; fill: red; }
]]></style>

<defs>
  <circle id="rim" cx="0" cy="0" r="7"/>
  <circle id="rim2" cx="0" cy="0" r="3.5"/>
  <g id="zoomPlus">
    <use xlink:href="#rim" fill="#404040"><set attributeName="fill" to="#808080" begin="zoomplus.mouseover" end="zoomplus.mouseout"/></use>
    <path d="M-4,0h8M0,-4v8" fill="none" stroke="white" stroke-width="1.5" pointer-events="none"/>
  </g>
  <g id="zoomMin">
    <use xlink:href="#rim" fill="#404040"><set attributeName="fill" to="#808080" begin="zoomminus.mouseover" end="zoomminus.mouseout"/></use>
    <path d="M-4,0h8" fill="none" stroke="white" stroke-width="1.5" pointer-events="none"/>
  </g>
  <g id="arrowUp" transform="translate(30 24)">
    <use xlink:href="#rim"/>
    <path pointer-events="none" fill="none" stroke="white" stroke-width="1.5" d="M0,-3.0v7 M-2.5,-0.5L0,-3.0L2.5,-0.5"/>
  </g>
  <g id="arrowRight" transform="rotate(90) translate(36 -43)">
    <use xlink:href="#rim"/>
    <path pointer-events="none" fill="none" stroke="white" stroke-width="1.5" d="M0,-3.0v7 M-2.5,-0.5L0,-3.0L2.5,-0.5"/>
  </g>
  <g id="arrowDown" transform="rotate(180) translate(-30 -48)">
    <use xlink:href="#rim"/>
    <path pointer-events="none" fill="none" stroke="white" stroke-width="1.5" d="M0,-3.0v7 M-2.5,-0.5L0,-3.0L2.5,-0.5"/>
  </g>
  <g id="arrowLeft" transform="rotate(270) translate(-36 17)">
    <use xlink:href="#rim"/>
    <path pointer-events="none" fill="none" stroke="white" stroke-width="1.5" d="M0,-3.0v7 M-2.5,-0.5L0,-3.0L2.5,-0.5"/>
  </g>
  <g id="resetDef">
    <use xlink:href="#rim2" fill="#404040"><set attributeName="fill" to="#808080" begin="reset.mouseover" end="reset.mouseout"/></use>
  </g>
</defs>
<script type="application/ecmascript">
var viewWidth = 908;
var viewHeight = 203;
var sectionId = 'dynsection-1';
</script>
<script type="application/ecmascript" xlink:href="svg.min.js"/>
<svg id="graph" class="graph">
<g id="viewport">
<title>ringbuffer.h</title>
<!-- Node1 -->
<g id="Node000001" class="node">
<title>Node1</title>
<g id="a_Node000001"><a xlink:title=" ">
<polygon fill="#999999" stroke="#666666" points="624.63,-195 552.63,-195 552.63,-176 624.63,-176 624.63,-195"/>
<text text-anchor="middle" x="588.63" y="-183" font-family="Helvetica,sans-Serif" font-size="10.00">ringbuffer.h</text>
</a>
</g>
</g>
<!-- Node2 -->
<g id="Node000002" class="node">
<title>Node2</title>
<g id="a_Node000002"><a xlink:href="drv__iic_8h.html" target="_top" xlink:title=" ">
<polygon fill="white" stroke="#666666" points="439.63,-85 381.63,-85 381.63,-66 439.63,-66 439.63,-85"/>
<text text-anchor="middle" x="410.63" y="-73" font-family="Helvetica,sans-Serif" font-size="10.00">drv_iic.h</text>
</a>
</g>
</g>
<!-- Node1&#45;&gt;Node2 -->
<g id="edge1_Node000001_Node000002" class="edge">
<title>Node1&#45;&gt;Node2</title>
<g id="a_edge1_Node000001_Node000002"><a xlink:title=" ">
<path fill="none" stroke="#63b8ff" d="M553.46,-172.27C532.94,-164.43 506.97,-153.24 485.63,-140 459.25,-123.63 432.47,-98.44 419.2,-85.25"/>
<polygon fill="#63b8ff" stroke="#63b8ff" points="552.46,-175.64 563.05,-175.85 554.91,-169.08 552.46,-175.64"/>
</a>
</g>
</g>
<!-- Node3 -->
<g id="Node000003" class="node">
<title>Node3</title>
<g id="a_Node000003"><a xlink:href="drv__uart_8c.html" target="_top" xlink:title=" ">
<polygon fill="white" stroke="#666666" points="720.13,-140 655.13,-140 655.13,-121 720.13,-121 720.13,-140"/>
<text text-anchor="middle" x="687.63" y="-128" font-family="Helvetica,sans-Serif" font-size="10.00">drv_uart.c</text>
</a>
</g>
</g>
<!-- Node1&#45;&gt;Node3 -->
<g id="edge2_Node000001_Node000003" class="edge">
<title>Node1&#45;&gt;Node3</title>
<g id="a_edge2_Node000001_Node000003"><a xlink:title=" ">
<path fill="none" stroke="#63b8ff" d="M613.41,-171.23C631.57,-161.51 655.7,-148.6 671.44,-140.17"/>
<polygon fill="#63b8ff" stroke="#63b8ff" points="611.7,-168.18 604.54,-175.98 615.01,-174.35 611.7,-168.18"/>
</a>
</g>
</g>
<!-- Node4 -->
<g id="Node000004" class="node">
<title>Node4</title>
<g id="a_Node000004"><a xlink:href="drv__uart_8h.html" target="_top" xlink:title=" ">
<polygon fill="white" stroke="#666666" points="802.63,-85 736.63,-85 736.63,-66 802.63,-66 802.63,-85"/>
<text text-anchor="middle" x="769.63" y="-73" font-family="Helvetica,sans-Serif" font-size="10.00">drv_uart.h</text>
</a>
</g>
</g>
<!-- Node1&#45;&gt;Node4 -->
<g id="edge3_Node000001_Node000004" class="edge">
<title>Node1&#45;&gt;Node4</title>
<g id="a_edge3_Node000001_Node000004"><a xlink:title=" ">
<path fill="none" stroke="#63b8ff" d="M591.15,-165.61C594,-151.44 600.03,-132.57 612.63,-121 621.84,-112.54 692.98,-94.6 736.28,-84.26"/>
<polygon fill="#63b8ff" stroke="#63b8ff" points="587.65,-165.3 589.47,-175.74 594.56,-166.44 587.65,-165.3"/>
</a>
</g>
</g>
<!-- Node5 -->
<g id="Node000005" class="node">
<title>Node5</title>
<g id="a_Node000005"><a xlink:href="kernel__syscall_8h.html" target="_top" xlink:title=" ">
<polygon fill="white" stroke="#666666" points="261.13,-140 166.13,-140 166.13,-121 261.13,-121 261.13,-140"/>
<text text-anchor="middle" x="213.63" y="-128" font-family="Helvetica,sans-Serif" font-size="10.00">kernel_syscall.h</text>
</a>
</g>
</g>
<!-- Node1&#45;&gt;Node5 -->
<g id="edge4_Node000001_Node000005" class="edge">
<title>Node1&#45;&gt;Node5</title>
<g id="a_edge4_Node000001_Node000005"><a xlink:title=" ">
<path fill="none" stroke="#63b8ff" d="M542.26,-177.95C470.62,-167.82 333.77,-148.48 261.34,-138.24"/>
<polygon fill="#63b8ff" stroke="#63b8ff" points="541.94,-181.44 552.34,-179.37 542.92,-174.5 541.94,-181.44"/>
</a>
</g>
</g>
<!-- Node7 -->
<g id="Node000007" class="node">
<title>Node7</title>
<g id="a_Node000007"><a xlink:href="os__shell__management_8c.html" target="_top" xlink:title=" ">
<polygon fill="white" stroke="#666666" points="281.13,-85 146.13,-85 146.13,-66 281.13,-66 281.13,-85"/>
<text text-anchor="middle" x="213.63" y="-73" font-family="Helvetica,sans-Serif" font-size="10.00">os_shell_management.c</text>
</a>
</g>
</g>
<!-- Node1&#45;&gt;Node7 -->
<g id="edge23_Node000001_Node000007" class="edge">
<title>Node1&#45;&gt;Node7</title>
<g id="a_edge23_Node000001_Node000007"><a xlink:title=" ">
<path fill="none" stroke="#63b8ff" d="M548.82,-173.03C473.21,-151.26 310.39,-104.36 243.38,-85.07"/>
<polygon fill="#63b8ff" stroke="#63b8ff" points="548.32,-176.53 558.89,-175.94 550.25,-169.8 548.32,-176.53"/>
</a>
</g>
</g>
<!-- Node10 -->
<g id="Node000010" class="node">
<title>Node10</title>
<g id="a_Node000010"><a xlink:href="mqueue_8h.html" target="_top" xlink:title=" ">
<polygon fill="white" stroke="#666666" points="560.13,-140 495.13,-140 495.13,-121 560.13,-121 560.13,-140"/>
<text text-anchor="middle" x="527.63" y="-128" font-family="Helvetica,sans-Serif" font-size="10.00">mqueue.h</text>
</a>
</g>
</g>
<!-- Node1&#45;&gt;Node10 -->
<g id="edge9_Node000001_Node000010" class="edge">
<title>Node1&#45;&gt;Node10</title>
<g id="a_edge9_Node000001_Node000010"><a xlink:title=" ">
<path fill="none" stroke="#63b8ff" d="M571.17,-169.32C560.29,-159.87 546.69,-148.06 537.61,-140.17"/>
<polygon fill="#63b8ff" stroke="#63b8ff" points="568.99,-172.07 578.83,-175.98 573.58,-166.78 568.99,-172.07"/>
</a>
</g>
</g>
<!-- Node16 -->
<g id="Node000016" class="node">
<title>Node16</title>
<g id="a_Node000016"><a xlink:href="uart__mgmt_8c.html" target="_top" xlink:title=" ">
<polygon fill="white" stroke="#666666" points="900.13,-85 821.13,-85 821.13,-66 900.13,-66 900.13,-85"/>
<text text-anchor="middle" x="860.63" y="-73" font-family="Helvetica,sans-Serif" font-size="10.00">uart_mgmt.c</text>
</a>
</g>
</g>
<!-- Node1&#45;&gt;Node16 -->
<g id="edge26_Node000001_Node000016" class="edge">
<title>Node1&#45;&gt;Node16</title>
<g id="a_edge26_Node000001_Node000016"><a xlink:title=" ">
<path fill="none" stroke="#63b8ff" d="M599.43,-167.3C609.55,-152.66 626.04,-132.26 645.63,-121 653.23,-116.63 760.98,-95.55 820.98,-84.04"/>
<polygon fill="#63b8ff" stroke="#63b8ff" points="596.32,-165.66 593.73,-175.93 602.16,-169.52 596.32,-165.66"/>
</a>
</g>
</g>
<!-- Node17 -->
<g id="Node000017" class="node">
<title>Node17</title>
<g id="a_Node000017"><a xlink:href="ringbuffer_8c.html" target="_top" xlink:title=" ">
<polygon fill="white" stroke="#666666" points="809.13,-140 738.13,-140 738.13,-121 809.13,-121 809.13,-140"/>
<text text-anchor="middle" x="773.63" y="-128" font-family="Helvetica,sans-Serif" font-size="10.00">ringbuffer.c</text>
</a>
</g>
</g>
<!-- Node1&#45;&gt;Node17 -->
<g id="edge24_Node000001_Node000017" class="edge">
<title>Node1&#45;&gt;Node17</title>
<g id="a_edge24_Node000001_Node000017"><a xlink:title=" ">
<path fill="none" stroke="#63b8ff" d="M628.13,-173.18C662.73,-163.27 712.26,-149.08 743.68,-140.08"/>
<polygon fill="#63b8ff" stroke="#63b8ff" points="627.01,-169.87 618.36,-175.98 628.93,-176.6 627.01,-169.87"/>
</a>
</g>
</g>
<!-- Node18 -->
<g id="Node000018" class="node">
<title>Node18</title>
<g id="a_Node000018"><a xlink:href="lib_2ringbuffer_8h.html" target="_top" xlink:title=" ">
<polygon fill="white" stroke="#666666" points="899.63,-140 827.63,-140 827.63,-121 899.63,-121 899.63,-140"/>
<text text-anchor="middle" x="863.63" y="-128" font-family="Helvetica,sans-Serif" font-size="10.00">ringbuffer.h</text>
</a>
</g>
</g>
<!-- Node1&#45;&gt;Node18 -->
<g id="edge25_Node000001_Node000018" class="edge">
<title>Node1&#45;&gt;Node18</title>
<g id="a_edge25_Node000001_Node000018"><a xlink:title=" ">
<path fill="none" stroke="#63b8ff" d="M634.9,-175.58C689.12,-165.13 777.81,-148.04 827.32,-138.5"/>
<polygon fill="#63b8ff" stroke="#63b8ff" points="634.02,-172.19 624.87,-177.52 635.35,-179.06 634.02,-172.19"/>
</a>
</g>
</g>
<!-- Node6 -->
<g id="Node000006" class="node">
<title>Node6</title>
<g id="a_Node000006"><a xlink:href="main_8c.html" target="_top" xlink:title=" ">
<polygon fill="white" stroke="#666666" points="398.63,-24.5 348.63,-24.5 348.63,-5.5 398.63,-5.5 398.63,-24.5"/>
<text text-anchor="middle" x="373.63" y="-12.5" font-family="Helvetica,sans-Serif" font-size="10.00">main.c</text>
</a>
</g>
</g>
<!-- Node5&#45;&gt;Node6 -->
<g id="edge5_Node000005_Node000006" class="edge">
<title>Node5&#45;&gt;Node6</title>
<g id="a_edge5_Node000005_Node000006"><a xlink:title=" ">
<path fill="none" stroke="#63b8ff" d="M155.83,-129.25C81.36,-126.98 -33.67,-115.66 9.63,-66 53.97,-15.16 273.5,-14.2 348.48,-15.4"/>
<polygon fill="#63b8ff" stroke="#63b8ff" points="155.96,-132.76 166.05,-129.52 156.14,-125.76 155.96,-132.76"/>
</a>
</g>
</g>
<!-- Node5&#45;&gt;Node7 -->
<g id="edge6_Node000005_Node000007" class="edge">
<title>Node5&#45;&gt;Node7</title>
<g id="a_edge6_Node000005_Node000007"><a xlink:title=" ">
<path fill="none" stroke="#63b8ff" d="M213.63,-110.66C213.63,-101.93 213.63,-91.99 213.63,-85.09"/>
<polygon fill="#63b8ff" stroke="#63b8ff" points="210.13,-110.75 213.63,-120.75 217.13,-110.75 210.13,-110.75"/>
</a>
</g>
</g>
<!-- Node8 -->
<g id="Node000008" class="node">
<title>Node8</title>
<g id="a_Node000008"><a xlink:href="shell__task__mgmt_8c.html" target="_top" xlink:title=" ">
<polygon fill="white" stroke="#666666" points="128.13,-85 19.13,-85 19.13,-66 128.13,-66 128.13,-85"/>
<text text-anchor="middle" x="73.63" y="-73" font-family="Helvetica,sans-Serif" font-size="10.00">shell_task_mgmt.c</text>
</a>
</g>
</g>
<!-- Node5&#45;&gt;Node8 -->
<g id="edge7_Node000005_Node000008" class="edge">
<title>Node5&#45;&gt;Node8</title>
<g id="a_edge7_Node000005_Node000008"><a xlink:title=" ">
<path fill="none" stroke="#63b8ff" d="M181.73,-117.42C155.75,-107.59 119.72,-93.95 96.54,-85.17"/>
<polygon fill="#63b8ff" stroke="#63b8ff" points="180.55,-120.72 191.14,-120.98 183.03,-114.17 180.55,-120.72"/>
</a>
</g>
</g>
<!-- Node9 -->
<g id="Node000009" class="node">
<title>Node9</title>
<g id="a_Node000009"><a xlink:href="syscalls_8c.html" target="_top" xlink:title=" ">
<polygon fill="white" stroke="#666666" points="363.63,-85 299.63,-85 299.63,-66 363.63,-66 363.63,-85"/>
<text text-anchor="middle" x="331.63" y="-73" font-family="Helvetica,sans-Serif" font-size="10.00">syscalls.c</text>
</a>
</g>
</g>
<!-- Node5&#45;&gt;Node9 -->
<g id="edge8_Node000005_Node000009" class="edge">
<title>Node5&#45;&gt;Node9</title>
<g id="a_edge8_Node000005_Node000009"><a xlink:title=" ">
<path fill="none" stroke="#63b8ff" d="M241.99,-116.77C263.75,-106.99 293.22,-93.75 312.33,-85.17"/>
<polygon fill="#63b8ff" stroke="#63b8ff" points="240.28,-113.69 232.59,-120.98 243.15,-120.08 240.28,-113.69"/>
</a>
</g>
</g>
<!-- Node10&#45;&gt;Node2 -->
<g id="edge10_Node000010_Node000002" class="edge">
<title>Node10&#45;&gt;Node2</title>
<g id="a_edge10_Node000010_Node000002"><a xlink:title=" ">
<path fill="none" stroke="#63b8ff" d="M499.52,-116.77C477.94,-106.99 448.72,-93.75 429.77,-85.17"/>
<polygon fill="#63b8ff" stroke="#63b8ff" points="498.28,-120.05 508.84,-120.98 501.17,-113.67 498.28,-120.05"/>
</a>
</g>
</g>
<!-- Node10&#45;&gt;Node4 -->
<g id="edge11_Node000010_Node000004" class="edge">
<title>Node10&#45;&gt;Node4</title>
<g id="a_edge11_Node000010_Node000004"><a xlink:title=" ">
<path fill="none" stroke="#63b8ff" d="M570.22,-120.17C617.59,-109.8 693.12,-93.26 736.35,-83.79"/>
<polygon fill="#63b8ff" stroke="#63b8ff" points="569.29,-116.79 560.27,-122.35 570.79,-123.63 569.29,-116.79"/>
</a>
</g>
</g>
<!-- Node10&#45;&gt;Node6 -->
<g id="edge18_Node000010_Node000006" class="edge">
<title>Node10&#45;&gt;Node6</title>
<g id="a_edge18_Node000010_Node000006"><a xlink:title=" ">
<path fill="none" stroke="#63b8ff" d="M509.75,-114.37C493.97,-101.2 470.19,-81.8 448.63,-66 427.81,-50.74 402.67,-34.38 387.43,-24.68"/>
<polygon fill="#63b8ff" stroke="#63b8ff" points="507.72,-117.24 517.63,-120.98 512.22,-111.87 507.72,-117.24"/>
</a>
</g>
</g>
<!-- Node10&#45;&gt;Node7 -->
<g id="edge20_Node000010_Node000007" class="edge">
<title>Node10&#45;&gt;Node7</title>
<g id="a_edge20_Node000010_Node000007"><a xlink:title=" ">
<path fill="none" stroke="#63b8ff" d="M484.71,-122.26C427.17,-112.54 325.2,-95.33 264.06,-85.01"/>
<polygon fill="#63b8ff" stroke="#63b8ff" points="484.48,-125.76 494.92,-123.98 485.64,-118.86 484.48,-125.76"/>
</a>
</g>
</g>
<!-- Node10&#45;&gt;Node9 -->
<g id="edge21_Node000010_Node000009" class="edge">
<title>Node10&#45;&gt;Node9</title>
<g id="a_edge21_Node000010_Node000009"><a xlink:title=" ">
<path fill="none" stroke="#63b8ff" d="M486.26,-118.31C449.58,-108.39 396.8,-94.12 363.37,-85.08"/>
<polygon fill="#63b8ff" stroke="#63b8ff" points="485.58,-121.75 496.14,-120.98 487.4,-115 485.58,-121.75"/>
</a>
</g>
</g>
<!-- Node11 -->
<g id="Node000011" class="node">
<title>Node11</title>
<g id="a_Node000011"><a xlink:href="init_8h.html" target="_top" xlink:title=" ">
<polygon fill="white" stroke="#666666" points="729.13,-24.5 688.13,-24.5 688.13,-5.5 729.13,-5.5 729.13,-24.5"/>
<text text-anchor="middle" x="708.63" y="-12.5" font-family="Helvetica,sans-Serif" font-size="10.00">init.h</text>
</a>
</g>
</g>
<!-- Node10&#45;&gt;Node11 -->
<g id="edge12_Node000010_Node000011" class="edge">
<title>Node10&#45;&gt;Node11</title>
<g id="a_edge12_Node000010_Node000011"><a xlink:title=" ">
<path fill="none" stroke="#63b8ff" d="M570.26,-122.68C612.39,-115.11 672.91,-101.71 689.63,-85 706.16,-68.49 708.66,-39.02 708.82,-24.52"/>
<polygon fill="#63b8ff" stroke="#63b8ff" points="569.49,-119.26 560.25,-124.43 570.7,-126.16 569.49,-119.26"/>
</a>
</g>
</g>
<!-- Node12 -->
<g id="Node000012" class="node">
<title>Node12</title>
<g id="a_Node000012"><a xlink:href="kernel__services_8h.html" target="_top" xlink:title=" ">
<polygon fill="white" stroke="#666666" points="597.13,-85 496.13,-85 496.13,-66 597.13,-66 597.13,-85"/>
<text text-anchor="middle" x="546.63" y="-73" font-family="Helvetica,sans-Serif" font-size="10.00">kernel_services.h</text>
</a>
</g>
</g>
<!-- Node10&#45;&gt;Node12 -->
<g id="edge13_Node000010_Node000012" class="edge">
<title>Node10&#45;&gt;Node12</title>
<g id="a_edge13_Node000010_Node000012"><a xlink:title=" ">
<path fill="none" stroke="#63b8ff" d="M534.18,-111.24C537.36,-102.37 541.03,-92.14 543.55,-85.09"/>
<polygon fill="#63b8ff" stroke="#63b8ff" points="530.85,-110.15 530.77,-120.75 537.44,-112.52 530.85,-110.15"/>
</a>
</g>
</g>
<!-- Node15 -->
<g id="Node000015" class="node">
<title>Node15</title>
<g id="a_Node000015"><a xlink:href="mqueue_8c.html" target="_top" xlink:title=" ">
<polygon fill="white" stroke="#666666" points="680.13,-85 615.13,-85 615.13,-66 680.13,-66 680.13,-85"/>
<text text-anchor="middle" x="647.63" y="-73" font-family="Helvetica,sans-Serif" font-size="10.00">mqueue.c</text>
</a>
</g>
</g>
<!-- Node10&#45;&gt;Node15 -->
<g id="edge19_Node000010_Node000015" class="edge">
<title>Node10&#45;&gt;Node15</title>
<g id="a_edge19_Node000010_Node000015"><a xlink:title=" ">
<path fill="none" stroke="#63b8ff" d="M556.17,-116.9C578.33,-107.11 608.48,-93.79 628,-85.17"/>
<polygon fill="#63b8ff" stroke="#63b8ff" points="554.65,-113.74 546.91,-120.98 557.48,-120.15 554.65,-113.74"/>
</a>
</g>
</g>
<!-- Node10&#45;&gt;Node16 -->
<g id="edge22_Node000010_Node000016" class="edge">
<title>Node10&#45;&gt;Node16</title>
<g id="a_edge22_Node000010_Node000016"><a xlink:title=" ">
<path fill="none" stroke="#63b8ff" d="M570.65,-122.98C626.32,-114.5 726.28,-99.09 811.63,-85 814.7,-84.49 817.87,-83.96 821.06,-83.42"/>
<polygon fill="#63b8ff" stroke="#63b8ff" points="569.82,-119.57 560.46,-124.53 570.87,-126.49 569.82,-119.57"/>
</a>
</g>
</g>
<!-- Node12&#45;&gt;Node6 -->
<g id="edge17_Node000012_Node000006" class="edge">
<title>Node12&#45;&gt;Node6</title>
<g id="a_edge17_Node000012_Node000006"><a xlink:title=" ">
<path fill="none" stroke="#63b8ff" d="M507.83,-63C479.8,-54.46 441.13,-42.23 407.63,-30 403.08,-28.34 398.23,-26.43 393.66,-24.56"/>
<polygon fill="#63b8ff" stroke="#63b8ff" points="507.07,-66.42 517.65,-65.97 509.09,-59.72 507.07,-66.42"/>
</a>
</g>
</g>
<!-- Node12&#45;&gt;Node11 -->
<g id="edge14_Node000012_Node000011" class="edge">
<title>Node12&#45;&gt;Node11</title>
<g id="a_edge14_Node000012_Node000011"><a xlink:title=" ">
<path fill="none" stroke="#63b8ff" d="M584.72,-62.9C611.31,-54.5 647.48,-42.48 678.63,-30 682.69,-28.38 686.98,-26.48 691.01,-24.62"/>
<polygon fill="#63b8ff" stroke="#63b8ff" points="583.53,-59.61 575.03,-65.93 585.62,-66.29 583.53,-59.61"/>
</a>
</g>
</g>
<!-- Node13 -->
<g id="Node000013" class="node">
<title>Node13</title>
<g id="a_Node000013"><a xlink:href="kernel__service__core_8c.html" target="_top" xlink:title=" ">
<polygon fill="white" stroke="#666666" points="538.63,-24.5 416.63,-24.5 416.63,-5.5 538.63,-5.5 538.63,-24.5"/>
<text text-anchor="middle" x="477.63" y="-12.5" font-family="Helvetica,sans-Serif" font-size="10.00">kernel_service_core.c</text>
</a>
</g>
</g>
<!-- Node12&#45;&gt;Node13 -->
<g id="edge15_Node000012_Node000013" class="edge">
<title>Node12&#45;&gt;Node13</title>
<g id="a_edge15_Node000012_Node000013"><a xlink:title=" ">
<path fill="none" stroke="#63b8ff" d="M528.62,-59.22C515.63,-48.21 498.57,-33.75 487.86,-24.67"/>
<polygon fill="#63b8ff" stroke="#63b8ff" points="526.56,-62.07 536.45,-65.87 531.09,-56.73 526.56,-62.07"/>
</a>
</g>
</g>
<!-- Node14 -->
<g id="Node000014" class="node">
<title>Node14</title>
<g id="a_Node000014"><a xlink:href="kernel__service__task__manager_8c.html" target="_top" xlink:title=" ">
<polygon fill="white" stroke="#666666" points="670.13,-30 557.13,-30 557.13,0 670.13,0 670.13,-30"/>
<text text-anchor="start" x="565.13" y="-18" font-family="Helvetica,sans-Serif" font-size="10.00">kernel_service_task</text>
<text text-anchor="middle" x="613.63" y="-7" font-family="Helvetica,sans-Serif" font-size="10.00">_manager.c</text>
</a>
</g>
</g>
<!-- Node12&#45;&gt;Node14 -->
<g id="edge16_Node000012_Node000014" class="edge">
<title>Node12&#45;&gt;Node14</title>
<g id="a_edge16_Node000012_Node000014"><a xlink:title=" ">
<path fill="none" stroke="#63b8ff" d="M564.12,-59.23C574.43,-50.23 587.39,-38.91 597.47,-30.11"/>
<polygon fill="#63b8ff" stroke="#63b8ff" points="561.75,-56.65 556.52,-65.87 566.35,-61.93 561.75,-56.65"/>
</a>
</g>
</g>
</g>
</svg>

<g id="navigator" transform="translate(0 0)" fill="#404254">
  <rect fill="#f2f5e9" fill-opacity="0.5" stroke="#606060" stroke-width=".5" x="0" y="0" width="60" height="60"/>
  <use id="zoomplus" xlink:href="#zoomPlus" x="17" y="9" onmousedown="handleZoom(evt,'in')"/>
  <use id="zoomminus" xlink:href="#zoomMin" x="42" y="9" onmousedown="handleZoom(evt,'out')"/>
  <use id="reset" xlink:href="#resetDef" x="30" y="36" onmousedown="handleReset()"/>
   <use id="arrowup" xlink:href="#arrowUp" x="0" y="0" onmousedown="handlePan(0,-1)"/>
  <use id="arrowright" xlink:href="#arrowRight" x="0" y="0" onmousedown="handlePan(1,0)"/>
  <use id="arrowdown" xlink:href="#arrowDown" x="0" y="0" onmousedown="handlePan(0,1)"/>
  <use id="arrowleft" xlink:href="#arrowLeft" x="0" y="0" onmousedown="handlePan(-1,0)"/>
</g>
<svg viewBox="0 0 15 15" width="100%" height="30px" preserveAspectRatio="xMaxYMin meet">
 <g id="arrow_out" transform="scale(0.3 0.3)">
  <a xlink:href="ipc_2ringbuffer_8h__dep__incl_org.svg" target="_base">
   <rect id="button" ry="5" rx="5" y="6" x="6" height="38" width="38"
        fill="#f2f5e9" fill-opacity="0.5" stroke="#606060" stroke-width="1.0"/>
   <path id="arrow"
     d="M 11.500037,31.436501 C 11.940474,20.09759 22.043105,11.32322 32.158766,21.979434 L 37.068811,17.246167 C 37.068811,17.246167 37.088388,32 37.088388,32 L 22.160133,31.978069 C 22.160133,31.978069 26.997745,27.140456 26.997745,27.140456 C 18.528582,18.264221 13.291696,25.230495 11.500037,31.436501 z"
     style="fill:#404040;"/>
  </a>
 </g>
</svg>

<style type='text/css'>
<![CDATA[
[data-mouse-over-selected='false'] { opacity: 0.7; }
[data-mouse-over-selected='true']  { opacity: 1.0; }
]]>
</style>
<script type="application/ecmascript"><![CDATA[
document.addEventListener('DOMContentLoaded', (event) => {
  highlightEdges();
  highlightAdjacentNodes();
});
]]></script>
</svg>
