<?xml version="1.0" encoding="UTF-8" standalone="no"?>
<!DOCTYPE svg PUBLIC "-//W3C//DTD SVG 1.1//EN"
 "http://www.w3.org/Graphics/SVG/1.1/DTD/svg11.dtd">
<!-- Generated by graphviz version 2.43.0 (0)
 -->
<!-- Title: irq_desc_init_all Pages: 1 -->
<svg width="389pt" height="101pt"
 viewBox="0.00 0.00 389.00 101.00" xmlns="http://www.w3.org/2000/svg" xmlns:xlink="http://www.w3.org/1999/xlink">
<g id="graph0" class="graph" transform="scale(1 1) rotate(0) translate(4 97)">
<title>irq_desc_init_all</title>
<!-- Node1 -->
<g id="Node000001" class="node">
<title>Node1</title>
<g id="a_Node000001"><a xlink:title=" ">
<polygon fill="#999999" stroke="#666666" points="95,-56 0,-56 0,-37 95,-37 95,-56"/>
<text text-anchor="middle" x="47.5" y="-44" font-family="Helvetica,sans-Serif" font-size="10.00">irq_desc_init_all</text>
</a>
</g>
</g>
<!-- Node2 -->
<g id="Node000002" class="node">
<title>Node2</title>
<g id="a_Node000002"><a xlink:href="irq__desc_8c.html#ac1748bc5c4216f92e873bac7f428d453" target="_top" xlink:title=" ">
<polygon fill="white" stroke="#666666" points="240.5,-93 134.5,-93 134.5,-74 240.5,-74 240.5,-93"/>
<text text-anchor="middle" x="187.5" y="-81" font-family="Helvetica,sans-Serif" font-size="10.00">handle_simple_irq</text>
</a>
</g>
</g>
<!-- Node1&#45;&gt;Node2 -->
<g id="edge1_Node000001_Node000002" class="edge">
<title>Node1&#45;&gt;Node2</title>
<g id="a_edge1_Node000001_Node000002"><a xlink:title=" ">
<path fill="none" stroke="#63b8ff" d="M84.04,-56.03C101.37,-60.67 122.41,-66.32 140.91,-71.28"/>
<polygon fill="#63b8ff" stroke="#63b8ff" points="140.04,-74.67 150.6,-73.88 141.85,-67.9 140.04,-74.67"/>
</a>
</g>
</g>
<!-- Node4 -->
<g id="Node000004" class="node">
<title>Node4</title>
<g id="a_Node000004"><a xlink:href="irq__table_8h.html#a5207cca716d5bc437666eecd1e8bd47c" target="_top" xlink:title="Return the human&#45;readable name for an IRQ ID.">
<polygon fill="white" stroke="#666666" points="244,-56 131,-56 131,-37 244,-37 244,-56"/>
<text text-anchor="middle" x="187.5" y="-44" font-family="Helvetica,sans-Serif" font-size="10.00">irq_table_get_name</text>
</a>
</g>
</g>
<!-- Node1&#45;&gt;Node4 -->
<g id="edge3_Node000001_Node000004" class="edge">
<title>Node1&#45;&gt;Node4</title>
<g id="a_edge3_Node000001_Node000004"><a xlink:title=" ">
<path fill="none" stroke="#63b8ff" d="M95.22,-46.5C103.43,-46.5 112.1,-46.5 120.71,-46.5"/>
<polygon fill="#63b8ff" stroke="#63b8ff" points="120.76,-50 130.76,-46.5 120.76,-43 120.76,-50"/>
</a>
</g>
</g>
<!-- Node5 -->
<g id="Node000005" class="node">
<title>Node5</title>
<g id="a_Node000005"><a xlink:href="group__list__api.html#ga9e661d1dcd51bd4eb3951488574058b0" target="_top" xlink:title="Initialize a list node [ Doubly circular].">
<polygon fill="white" stroke="#666666" points="214,-19 161,-19 161,0 214,0 214,-19"/>
<text text-anchor="middle" x="187.5" y="-7" font-family="Helvetica,sans-Serif" font-size="10.00">list_init</text>
</a>
</g>
</g>
<!-- Node1&#45;&gt;Node5 -->
<g id="edge4_Node000001_Node000005" class="edge">
<title>Node1&#45;&gt;Node5</title>
<g id="a_edge4_Node000001_Node000005"><a xlink:title=" ">
<path fill="none" stroke="#63b8ff" d="M84.04,-36.97C104.53,-31.48 130.23,-24.59 150.76,-19.08"/>
<polygon fill="#63b8ff" stroke="#63b8ff" points="151.92,-22.4 160.67,-16.43 150.1,-15.63 151.92,-22.4"/>
</a>
</g>
</g>
<!-- Node3 -->
<g id="Node000003" class="node">
<title>Node3</title>
<g id="a_Node000003"><a xlink:href="irq__desc_8c.html#aacb3ecddf683f871adc939f1de358e1d" target="_top" xlink:title=" ">
<polygon fill="white" stroke="#666666" points="381,-93 280,-93 280,-74 381,-74 381,-93"/>
<text text-anchor="middle" x="330.5" y="-81" font-family="Helvetica,sans-Serif" font-size="10.00">handle_irq_event</text>
</a>
</g>
</g>
<!-- Node2&#45;&gt;Node3 -->
<g id="edge2_Node000002_Node000003" class="edge">
<title>Node2&#45;&gt;Node3</title>
<g id="a_edge2_Node000002_Node000003"><a xlink:title=" ">
<path fill="none" stroke="#63b8ff" d="M240.6,-83.5C250.15,-83.5 260.18,-83.5 269.93,-83.5"/>
<polygon fill="#63b8ff" stroke="#63b8ff" points="269.95,-87 279.95,-83.5 269.95,-80 269.95,-87"/>
</a>
</g>
</g>
</g>
</svg>
