<?xml version="1.0" encoding="UTF-8" standalone="no"?>
<!DOCTYPE svg PUBLIC "-//W3C//DTD SVG 1.1//EN"
 "http://www.w3.org/Graphics/SVG/1.1/DTD/svg11.dtd">
<!-- Generated by graphviz version 2.43.0 (0)
 -->
<!-- Title: irq_to_desc Pages: 1 -->
<svg width="585pt" height="225pt"
 viewBox="0.00 0.00 585.00 225.00" xmlns="http://www.w3.org/2000/svg" xmlns:xlink="http://www.w3.org/1999/xlink">
<g id="graph0" class="graph" transform="scale(1 1) rotate(0) translate(4 221)">
<title>irq_to_desc</title>
<!-- Node1 -->
<g id="Node000001" class="node">
<title>Node1</title>
<g id="a_Node000001"><a xlink:title=" ">
<polygon fill="#999999" stroke="#666666" points="577,-86.5 505,-86.5 505,-67.5 577,-67.5 577,-86.5"/>
<text text-anchor="middle" x="541" y="-74.5" font-family="Helvetica,sans-Serif" font-size="10.00">irq_to_desc</text>
</a>
</g>
</g>
<!-- Node2 -->
<g id="Node000002" class="node">
<title>Node2</title>
<g id="a_Node000002"><a xlink:href="irq__desc_8c.html#aad293c8a451bcfc8824fba41ef042a7d" target="_top" xlink:title=" ">
<polygon fill="white" stroke="#666666" points="446.5,-179.5 384.5,-179.5 384.5,-160.5 446.5,-160.5 446.5,-179.5"/>
<text text-anchor="middle" x="415.5" y="-167.5" font-family="Helvetica,sans-Serif" font-size="10.00">__do_IRQ</text>
</a>
</g>
</g>
<!-- Node1&#45;&gt;Node2 -->
<g id="edge1_Node000001_Node000002" class="edge">
<title>Node1&#45;&gt;Node2</title>
<g id="a_edge1_Node000001_Node000002"><a xlink:title=" ">
<path fill="none" stroke="#63b8ff" d="M518.93,-92.87C493.24,-112.22 450.61,-144.31 429.37,-160.31"/>
<polygon fill="#63b8ff" stroke="#63b8ff" points="521.37,-95.41 527.25,-86.6 517.15,-89.82 521.37,-95.41"/>
</a>
</g>
</g>
<!-- Node5 -->
<g id="Node000005" class="node">
<title>Node5</title>
<g id="a_Node000005"><a xlink:href="irq__desc_8c.html#ad30e8177b86aac1c40b8181fc0927b3c" target="_top" xlink:title=" ">
<polygon fill="white" stroke="#666666" points="469,-105.5 362,-105.5 362,-86.5 469,-86.5 469,-105.5"/>
<text text-anchor="middle" x="415.5" y="-93.5" font-family="Helvetica,sans-Serif" font-size="10.00">__do_IRQ_from_isr</text>
</a>
</g>
</g>
<!-- Node1&#45;&gt;Node5 -->
<g id="edge4_Node000001_Node000005" class="edge">
<title>Node1&#45;&gt;Node5</title>
<g id="a_edge4_Node000001_Node000005"><a xlink:title=" ">
<path fill="none" stroke="#63b8ff" d="M494.98,-83.93C486.6,-85.22 477.77,-86.57 469.18,-87.9"/>
<polygon fill="#63b8ff" stroke="#63b8ff" points="495.59,-87.37 504.94,-82.39 494.52,-80.46 495.59,-87.37"/>
</a>
</g>
</g>
<!-- Node11 -->
<g id="Node000011" class="node">
<title>Node11</title>
<g id="a_Node000011"><a xlink:href="hal__timebase__stm32_8c.html#a5142615641d5f58eee704795cdf20e2a" target="_top" xlink:title=" ">
<polygon fill="white" stroke="#666666" points="314,-68 195,-68 195,-38 314,-38 314,-68"/>
<text text-anchor="start" x="203" y="-56" font-family="Helvetica,sans-Serif" font-size="10.00">hal_timebase_stm32</text>
<text text-anchor="middle" x="254.5" y="-45" font-family="Helvetica,sans-Serif" font-size="10.00">_irq_handler</text>
</a>
</g>
</g>
<!-- Node1&#45;&gt;Node11 -->
<g id="edge12_Node000001_Node000011" class="edge">
<title>Node1&#45;&gt;Node11</title>
<g id="a_edge12_Node000001_Node000011"><a xlink:title=" ">
<path fill="none" stroke="#63b8ff" d="M494.85,-73.19C445.92,-69.06 367.67,-62.46 314.05,-57.94"/>
<polygon fill="#63b8ff" stroke="#63b8ff" points="494.57,-76.68 504.83,-74.03 495.16,-69.7 494.57,-76.68"/>
</a>
</g>
</g>
<!-- Node13 -->
<g id="Node000013" class="node">
<title>Node13</title>
<g id="a_Node000013"><a xlink:href="irq__chip__nvic_8c.html#a0e1994c51b2fd88654d278be0cff692f" target="_top" xlink:title="Bind logical IRQ to NVIC hardware interrupt.">
<polygon fill="white" stroke="#666666" points="469,-30 362,-30 362,0 469,0 469,-30"/>
<text text-anchor="start" x="370" y="-18" font-family="Helvetica,sans-Serif" font-size="10.00">irq_chip_nvic_bind</text>
<text text-anchor="middle" x="415.5" y="-7" font-family="Helvetica,sans-Serif" font-size="10.00">_hwirq</text>
</a>
</g>
</g>
<!-- Node1&#45;&gt;Node13 -->
<g id="edge13_Node000001_Node000013" class="edge">
<title>Node1&#45;&gt;Node13</title>
<g id="a_edge13_Node000001_Node000013"><a xlink:title=" ">
<path fill="none" stroke="#63b8ff" d="M512.01,-62.95C492.6,-53.2 466.76,-40.23 446.85,-30.24"/>
<polygon fill="#63b8ff" stroke="#63b8ff" points="510.47,-66.09 520.97,-67.45 513.61,-59.83 510.47,-66.09"/>
</a>
</g>
</g>
<!-- Node3 -->
<g id="Node000003" class="node">
<title>Node3</title>
<g id="a_Node000003"><a xlink:href="drv__irq_8c.html#a0118728981239f7f0481abe840871140" target="_top" xlink:title="Dispatch an IRQ event from task context. Calls every callback registered for id.">
<polygon fill="white" stroke="#666666" points="303,-216.5 206,-216.5 206,-197.5 303,-197.5 303,-216.5"/>
<text text-anchor="middle" x="254.5" y="-204.5" font-family="Helvetica,sans-Serif" font-size="10.00">drv_irq_dispatch</text>
</a>
</g>
</g>
<!-- Node2&#45;&gt;Node3 -->
<g id="edge2_Node000002_Node000003" class="edge">
<title>Node2&#45;&gt;Node3</title>
<g id="a_edge2_Node000002_Node000003"><a xlink:title=" ">
<path fill="none" stroke="#63b8ff" d="M374.43,-179.32C350.61,-184.87 320.46,-191.88 296.48,-197.46"/>
<polygon fill="#63b8ff" stroke="#63b8ff" points="375.27,-182.72 384.22,-177.05 373.69,-175.9 375.27,-182.72"/>
</a>
</g>
</g>
<!-- Node4 -->
<g id="Node000004" class="node">
<title>Node4</title>
<g id="a_Node000004"><a xlink:href="irq__notify_8c.html#ab5903f76a907cfe45e9a1f5716cc8e11" target="_top" xlink:title="Dispatch notification to all registered callbacks (task context). pxHPT is passed as NULL — callbacks...">
<polygon fill="white" stroke="#666666" points="285.5,-179.5 223.5,-179.5 223.5,-160.5 285.5,-160.5 285.5,-179.5"/>
<text text-anchor="middle" x="254.5" y="-167.5" font-family="Helvetica,sans-Serif" font-size="10.00">irq_notify</text>
</a>
</g>
</g>
<!-- Node2&#45;&gt;Node4 -->
<g id="edge3_Node000002_Node000004" class="edge">
<title>Node2&#45;&gt;Node4</title>
<g id="a_edge3_Node000002_Node000004"><a xlink:title=" ">
<path fill="none" stroke="#63b8ff" d="M374.12,-170C346.59,-170 310.72,-170 285.67,-170"/>
<polygon fill="#63b8ff" stroke="#63b8ff" points="374.22,-173.5 384.22,-170 374.22,-166.5 374.22,-173.5"/>
</a>
</g>
</g>
<!-- Node6 -->
<g id="Node000006" class="node">
<title>Node6</title>
<g id="a_Node000006"><a xlink:href="drv__irq_8c.html#a104acd29a44e0545013a32f6585963e3" target="_top" xlink:title="Dispatch an IRQ event from ISR context. Each registered callback receives pxHPT so it can accumulate ...">
<polygon fill="white" stroke="#666666" points="326,-142.5 183,-142.5 183,-123.5 326,-123.5 326,-142.5"/>
<text text-anchor="middle" x="254.5" y="-130.5" font-family="Helvetica,sans-Serif" font-size="10.00">drv_irq_dispatch_from_isr</text>
</a>
</g>
</g>
<!-- Node5&#45;&gt;Node6 -->
<g id="edge5_Node000005_Node000006" class="edge">
<title>Node5&#45;&gt;Node6</title>
<g id="a_edge5_Node000005_Node000006"><a xlink:title=" ">
<path fill="none" stroke="#63b8ff" d="M363.55,-107.86C341.91,-112.89 317.02,-118.68 296.58,-123.44"/>
<polygon fill="#63b8ff" stroke="#63b8ff" points="364.61,-111.2 373.55,-105.53 363.02,-104.39 364.61,-111.2"/>
</a>
</g>
</g>
<!-- Node5&#45;&gt;Node11 -->
<g id="edge10_Node000005_Node000011" class="edge">
<title>Node5&#45;&gt;Node11</title>
<g id="a_edge10_Node000005_Node000011"><a xlink:title=" ">
<path fill="none" stroke="#63b8ff" d="M369.45,-83.82C351.27,-78.9 330.11,-73.18 310.99,-68.01"/>
<polygon fill="#63b8ff" stroke="#63b8ff" points="368.65,-87.22 379.21,-86.46 370.47,-80.47 368.65,-87.22"/>
</a>
</g>
</g>
<!-- Node12 -->
<g id="Node000012" class="node">
<title>Node12</title>
<g id="a_Node000012"><a xlink:href="irq__notify_8c.html#a7460231c5dcb390c511a5ce7310bd417" target="_top" xlink:title="Dispatch notification from ISR context. Each registered callback receives the same pxHPT pointer so t...">
<polygon fill="white" stroke="#666666" points="308.5,-105.5 200.5,-105.5 200.5,-86.5 308.5,-86.5 308.5,-105.5"/>
<text text-anchor="middle" x="254.5" y="-93.5" font-family="Helvetica,sans-Serif" font-size="10.00">irq_notify_from_isr</text>
</a>
</g>
</g>
<!-- Node5&#45;&gt;Node12 -->
<g id="edge11_Node000005_Node000012" class="edge">
<title>Node5&#45;&gt;Node12</title>
<g id="a_edge11_Node000005_Node000012"><a xlink:title=" ">
<path fill="none" stroke="#63b8ff" d="M351.79,-96C337.55,-96 322.56,-96 308.76,-96"/>
<polygon fill="#63b8ff" stroke="#63b8ff" points="352,-99.5 362,-96 352,-92.5 352,-99.5"/>
</a>
</g>
</g>
<!-- Node7 -->
<g id="Node000007" class="node">
<title>Node7</title>
<g id="a_Node000007"><a xlink:href="hal__iic__stm32_8c.html#a2cbe166e3c3ea0291b648d3e747a7dc5" target="_top" xlink:title="Called from I2Cx_ER_IRQHandler to dispatch HAL_I2C_ER_IRQHandler to whichever generic handle owns ins...">
<polygon fill="white" stroke="#666666" points="132,-217 15,-217 15,-187 132,-187 132,-217"/>
<text text-anchor="start" x="23" y="-205" font-family="Helvetica,sans-Serif" font-size="10.00">hal_iic_stm32_er_irq</text>
<text text-anchor="middle" x="73.5" y="-194" font-family="Helvetica,sans-Serif" font-size="10.00">_handler</text>
</a>
</g>
</g>
<!-- Node6&#45;&gt;Node7 -->
<g id="edge6_Node000006_Node000007" class="edge">
<title>Node6&#45;&gt;Node7</title>
<g id="a_edge6_Node000006_Node000007"><a xlink:title=" ">
<path fill="none" stroke="#63b8ff" d="M198.57,-145.69C193.21,-147.55 187.94,-149.65 183,-152 165.18,-160.48 164.57,-169.02 147,-178 140.51,-181.32 133.46,-184.32 126.39,-186.99"/>
<polygon fill="#63b8ff" stroke="#63b8ff" points="199.79,-148.97 208.25,-142.58 197.65,-142.31 199.79,-148.97"/>
</a>
</g>
</g>
<!-- Node8 -->
<g id="Node000008" class="node">
<title>Node8</title>
<g id="a_Node000008"><a xlink:href="hal__iic__stm32_8c.html#af651223af8184f72b0eedf902dcfb2cc" target="_top" xlink:title="Called from I2Cx_EV_IRQHandler to dispatch HAL_I2C_EV_IRQHandler to whichever generic handle owns ins...">
<polygon fill="white" stroke="#666666" points="133,-169 14,-169 14,-139 133,-139 133,-169"/>
<text text-anchor="start" x="22" y="-157" font-family="Helvetica,sans-Serif" font-size="10.00">hal_iic_stm32_ev_irq</text>
<text text-anchor="middle" x="73.5" y="-146" font-family="Helvetica,sans-Serif" font-size="10.00">_handler</text>
</a>
</g>
</g>
<!-- Node6&#45;&gt;Node8 -->
<g id="edge7_Node000006_Node000008" class="edge">
<title>Node6&#45;&gt;Node8</title>
<g id="a_edge7_Node000006_Node000008"><a xlink:title=" ">
<path fill="none" stroke="#63b8ff" d="M172.66,-142.48C159.37,-144.04 145.82,-145.63 133.2,-147.11"/>
<polygon fill="#63b8ff" stroke="#63b8ff" points="173.23,-145.94 182.75,-141.3 172.41,-138.99 173.23,-145.94"/>
</a>
</g>
</g>
<!-- Node9 -->
<g id="Node000009" class="node">
<title>Node9</title>
<g id="a_Node000009"><a xlink:href="hal__spi__stm32_8c.html#a502fc75767c7ebbec7885a7798f2b665" target="_top" xlink:title="Called from SPIx_IRQHandler to dispatch HAL_SPI_IRQHandler to whichever generic handle owns instance.">
<polygon fill="white" stroke="#666666" points="147,-120.5 0,-120.5 0,-101.5 147,-101.5 147,-120.5"/>
<text text-anchor="middle" x="73.5" y="-108.5" font-family="Helvetica,sans-Serif" font-size="10.00">hal_spi_stm32_irq_handler</text>
</a>
</g>
</g>
<!-- Node6&#45;&gt;Node9 -->
<g id="edge8_Node000006_Node000009" class="edge">
<title>Node6&#45;&gt;Node9</title>
<g id="a_edge8_Node000006_Node000009"><a xlink:title=" ">
<path fill="none" stroke="#63b8ff" d="M172.77,-123.08C164.21,-122.03 155.54,-120.96 147.08,-119.92"/>
<polygon fill="#63b8ff" stroke="#63b8ff" points="172.4,-126.56 182.75,-124.31 173.26,-119.61 172.4,-126.56"/>
</a>
</g>
</g>
<!-- Node10 -->
<g id="Node000010" class="node">
<title>Node10</title>
<g id="a_Node000010"><a xlink:href="hal__uart__stm32_8c.html#a6b69ed104eb5d662230497d7ac2881a6" target="_top" xlink:title="Called from the USARTx_IRQHandler to dispatch HAL_UART_IRQHandler to whichever generic handle owns in...">
<polygon fill="white" stroke="#666666" points="128.5,-83 18.5,-83 18.5,-53 128.5,-53 128.5,-83"/>
<text text-anchor="start" x="26.5" y="-71" font-family="Helvetica,sans-Serif" font-size="10.00">hal_uart_stm32_irq</text>
<text text-anchor="middle" x="73.5" y="-60" font-family="Helvetica,sans-Serif" font-size="10.00">_handler</text>
</a>
</g>
</g>
<!-- Node6&#45;&gt;Node10 -->
<g id="edge9_Node000006_Node000010" class="edge">
<title>Node6&#45;&gt;Node10</title>
<g id="a_edge9_Node000006_Node000010"><a xlink:title=" ">
<path fill="none" stroke="#63b8ff" d="M197.88,-120.48C192.78,-118.83 187.75,-117 183,-115 165.72,-107.71 163.96,-100.99 147,-93 139.41,-89.42 131.17,-86.1 123.05,-83.11"/>
<polygon fill="#63b8ff" stroke="#63b8ff" points="197.13,-123.91 207.71,-123.43 199.14,-117.2 197.13,-123.91"/>
</a>
</g>
</g>
</g>
</svg>
