<?xml version="1.0" encoding="UTF-8" standalone="no"?>
<!DOCTYPE svg PUBLIC "-//W3C//DTD SVG 1.1//EN"
 "http://www.w3.org/Graphics/SVG/1.1/DTD/svg11.dtd">
<!-- Generated by graphviz version 2.43.0 (0)
 -->
<!-- Title: irq_register Pages: 1 -->
<svg width="431pt" height="119pt"
 viewBox="0.00 0.00 431.00 119.00" xmlns="http://www.w3.org/2000/svg" xmlns:xlink="http://www.w3.org/1999/xlink">

<svg id="main" version="1.1" xmlns="http://www.w3.org/2000/svg" xmlns:xlink="http://www.w3.org/1999/xlink" xml:space="preserve" onload="init(evt)">
<style type="text/css"><![CDATA[
.node, .edge {opacity: 0.7;}
.node.selected, .edge.selected {opacity: 1;}
.edge:hover path { stroke: red; }
.edge:hover polygon { stroke: red; fill: red; }
]]></style>
<script type="application/ecmascript" xlink:href="svg.min.js"/>
<svg id="graph" class="graph">
<g id="graph0" class="graph" transform="scale(1 1) rotate(0) translate(4 115)">
<title>irq_register</title>
<!-- Node1 -->
<g id="Node000001" class="node">
<title>Node1</title>
<g id="a_Node000001"><a xlink:title="Register a callback for a generic IRQ ID. Call from task context before interrupts fire....">
<polygon fill="#999999" stroke="#666666" points="72,-74 0,-74 0,-55 72,-55 72,-74"/>
<text text-anchor="middle" x="36" y="-62" font-family="Helvetica,sans-Serif" font-size="10.00">irq_register</text>
</a>
</g>
</g>
<!-- Node2 -->
<g id="Node000002" class="node">
<title>Node2</title>
<g id="a_Node000002"><a xlink:href="irq__notify_8c.html#a854bc11942113795c21bf83e08b564ae" target="_top" xlink:title=" ">
<polygon fill="white" stroke="#666666" points="214,-111 110,-111 110,-92 214,-92 214,-111"/>
<text text-anchor="middle" x="162" y="-99" font-family="Helvetica,sans-Serif" font-size="10.00">_alloc_trampoline</text>
</a>
</g>
</g>
<!-- Node1&#45;&gt;Node2 -->
<g id="edge1_Node000001_Node000002" class="edge">
<title>Node1&#45;&gt;Node2</title>
<g id="a_edge1_Node000001_Node000002"><a xlink:title=" ">
<path fill="none" stroke="#63b8ff" d="M68.93,-74.03C84.15,-78.57 102.55,-84.06 118.88,-88.93"/>
<polygon fill="#63b8ff" stroke="#63b8ff" points="118.16,-92.37 128.74,-91.88 120.16,-85.66 118.16,-92.37"/>
</a>
</g>
</g>
<!-- Node3 -->
<g id="Node000003" class="node">
<title>Node3</title>
<g id="a_Node000003"><a xlink:href="irq__notify_8c.html#a7faff0a2928451eb3d1965fb159ea580" target="_top" xlink:title=" ">
<polygon fill="white" stroke="#666666" points="216,-74 108,-74 108,-55 216,-55 216,-74"/>
<text text-anchor="middle" x="162" y="-62" font-family="Helvetica,sans-Serif" font-size="10.00">_notify_trampoline</text>
</a>
</g>
</g>
<!-- Node1&#45;&gt;Node3 -->
<g id="edge2_Node000001_Node000003" class="edge">
<title>Node1&#45;&gt;Node3</title>
<g id="a_edge2_Node000001_Node000003"><a xlink:title=" ">
<path fill="none" stroke="#63b8ff" d="M72.2,-64.5C80.13,-64.5 88.78,-64.5 97.46,-64.5"/>
<polygon fill="#63b8ff" stroke="#63b8ff" points="97.64,-68 107.64,-64.5 97.64,-61 97.64,-68"/>
</a>
</g>
</g>
<!-- Node4 -->
<g id="Node000004" class="node">
<title>Node4</title>
<g id="a_Node000004"><a xlink:href="irq__desc_8c.html#ab32b689bb2b7d1960aa47f19d9d65e90" target="_top" xlink:title=" ">
<polygon fill="white" stroke="#666666" points="197.5,-37 126.5,-37 126.5,-18 197.5,-18 197.5,-37"/>
<text text-anchor="middle" x="162" y="-25" font-family="Helvetica,sans-Serif" font-size="10.00">request_irq</text>
</a>
</g>
</g>
<!-- Node1&#45;&gt;Node4 -->
<g id="edge3_Node000001_Node000004" class="edge">
<title>Node1&#45;&gt;Node4</title>
<g id="a_edge3_Node000001_Node000004"><a xlink:title=" ">
<path fill="none" stroke="#63b8ff" d="M68.93,-54.97C84.15,-50.43 102.55,-44.94 118.88,-40.07"/>
<polygon fill="#63b8ff" stroke="#63b8ff" points="120.16,-43.34 128.74,-37.12 118.16,-36.63 120.16,-43.34"/>
</a>
</g>
</g>
<!-- Node5 -->
<g id="Node000005" class="node">
<title>Node5</title>
<g id="a_Node000005"><a xlink:href="irq__desc_8c.html#a0041385040c05835d54aca9c83340f87" target="_top" xlink:title=" ">
<polygon fill="white" stroke="#666666" points="332,-56 252,-56 252,-37 332,-37 332,-56"/>
<text text-anchor="middle" x="292" y="-44" font-family="Helvetica,sans-Serif" font-size="10.00">_alloc_action</text>
</a>
</g>
</g>
<!-- Node4&#45;&gt;Node5 -->
<g id="edge4_Node000004_Node000005" class="edge">
<title>Node4&#45;&gt;Node5</title>
<g id="a_edge4_Node000004_Node000005"><a xlink:title=" ">
<path fill="none" stroke="#63b8ff" d="M197.64,-32.64C211.23,-34.66 227.09,-37.01 241.83,-39.2"/>
<polygon fill="#63b8ff" stroke="#63b8ff" points="241.41,-42.68 251.81,-40.68 242.44,-35.75 241.41,-42.68"/>
</a>
</g>
</g>
<!-- Node8 -->
<g id="Node000008" class="node">
<title>Node8</title>
<g id="a_Node000008"><a xlink:href="group__list__api.html#gafb58231c241f9acee99a56aaa1b98cec" target="_top" xlink:title="Add a new node at the tail of the list.">
<polygon fill="white" stroke="#666666" points="330,-19 254,-19 254,0 330,0 330,-19"/>
<text text-anchor="middle" x="292" y="-7" font-family="Helvetica,sans-Serif" font-size="10.00">list_add_tail</text>
</a>
</g>
</g>
<!-- Node4&#45;&gt;Node8 -->
<g id="edge7_Node000004_Node000008" class="edge">
<title>Node4&#45;&gt;Node8</title>
<g id="a_edge7_Node000004_Node000008"><a xlink:title=" ">
<path fill="none" stroke="#63b8ff" d="M197.64,-22.63C211.72,-20.65 228.21,-18.33 243.39,-16.2"/>
<polygon fill="#63b8ff" stroke="#63b8ff" points="244.22,-19.61 253.64,-14.75 243.25,-12.68 244.22,-19.61"/>
</a>
</g>
</g>
<!-- Node6 -->
<g id="Node000006" class="node">
<title>Node6</title>
<g id="a_Node000006"><a xlink:href="os_2kernel__mem_8h.html#a2b55f9d76c0a87c16c336ec837a80101" target="_top" xlink:title=" ">
<polygon fill="white" stroke="#666666" points="422,-93 369,-93 369,-74 422,-74 422,-93"/>
<text text-anchor="middle" x="395.5" y="-81" font-family="Helvetica,sans-Serif" font-size="10.00">kmaloc</text>
</a>
</g>
</g>
<!-- Node5&#45;&gt;Node6 -->
<g id="edge5_Node000005_Node000006" class="edge">
<title>Node5&#45;&gt;Node6</title>
<g id="a_edge5_Node000005_Node000006"><a xlink:title=" ">
<path fill="none" stroke="#63b8ff" d="M319.14,-56.03C331.31,-60.46 345.97,-65.81 359.11,-70.6"/>
<polygon fill="#63b8ff" stroke="#63b8ff" points="358.21,-74 368.8,-74.13 360.6,-67.42 358.21,-74"/>
</a>
</g>
</g>
<!-- Node7 -->
<g id="Node000007" class="node">
<title>Node7</title>
<g id="a_Node000007"><a xlink:href="group__list__api.html#ga9e661d1dcd51bd4eb3951488574058b0" target="_top" xlink:title="Initialize a list node [ Doubly circular].">
<polygon fill="white" stroke="#666666" points="422,-56 369,-56 369,-37 422,-37 422,-56"/>
<text text-anchor="middle" x="395.5" y="-44" font-family="Helvetica,sans-Serif" font-size="10.00">list_init</text>
</a>
</g>
</g>
<!-- Node5&#45;&gt;Node7 -->
<g id="edge6_Node000005_Node000007" class="edge">
<title>Node5&#45;&gt;Node7</title>
<g id="a_edge6_Node000005_Node000007"><a xlink:title=" ">
<path fill="none" stroke="#63b8ff" d="M332.24,-46.5C340.97,-46.5 350.17,-46.5 358.75,-46.5"/>
<polygon fill="#63b8ff" stroke="#63b8ff" points="358.82,-50 368.82,-46.5 358.82,-43 358.82,-50"/>
</a>
</g>
</g>
<!-- Node9 -->
<g id="Node000009" class="node">
<title>Node9</title>
<g id="a_Node000009"><a xlink:href="group__list__api.html#gab1766e25461b90b75aa3360245547452" target="_top" xlink:title="add a node in between two nodes.">
<polygon fill="white" stroke="#666666" points="423,-19 368,-19 368,0 423,0 423,-19"/>
<text text-anchor="middle" x="395.5" y="-7" font-family="Helvetica,sans-Serif" font-size="10.00">list_add</text>
</a>
</g>
</g>
<!-- Node8&#45;&gt;Node9 -->
<g id="edge8_Node000008_Node000009" class="edge">
<title>Node8&#45;&gt;Node9</title>
<g id="a_edge8_Node000008_Node000009"><a xlink:title=" ">
<path fill="none" stroke="#63b8ff" d="M330.22,-9.5C339.16,-9.5 348.72,-9.5 357.65,-9.5"/>
<polygon fill="#63b8ff" stroke="#63b8ff" points="357.77,-13 367.77,-9.5 357.77,-6 357.77,-13"/>
</a>
</g>
</g>
</g>
</svg>
</svg>

<style type='text/css'>
<![CDATA[
[data-mouse-over-selected='false'] { opacity: 0.7; }
[data-mouse-over-selected='true']  { opacity: 1.0; }
]]>
</style>
<script type="application/ecmascript"><![CDATA[
document.addEventListener('DOMContentLoaded', (event) => {
  highlightEdges();
  highlightAdjacentNodes();
});
]]></script>
</svg>
