<?xml version="1.0" encoding="UTF-8" standalone="no"?>
<!DOCTYPE svg PUBLIC "-//W3C//DTD SVG 1.1//EN"
 "http://www.w3.org/Graphics/SVG/1.1/DTD/svg11.dtd">
<!-- Generated by graphviz version 2.43.0 (0)
 -->
<!-- Title: handle_irq_event Pages: 1 -->
<svg width="382pt" height="101pt"
 viewBox="0.00 0.00 382.00 101.00" xmlns="http://www.w3.org/2000/svg" xmlns:xlink="http://www.w3.org/1999/xlink">

<svg id="main" version="1.1" xmlns="http://www.w3.org/2000/svg" xmlns:xlink="http://www.w3.org/1999/xlink" xml:space="preserve" onload="init(evt)">
<style type="text/css"><![CDATA[
.node, .edge {opacity: 0.7;}
.node.selected, .edge.selected {opacity: 1;}
.edge:hover path { stroke: red; }
.edge:hover polygon { stroke: red; fill: red; }
]]></style>
<script type="application/ecmascript" xlink:href="svg.min.js"/>
<svg id="graph" class="graph">
<g id="graph0" class="graph" transform="scale(1 1) rotate(0) translate(4 97)">
<title>handle_irq_event</title>
<!-- Node1 -->
<g id="Node000001" class="node">
<title>Node1</title>
<g id="a_Node000001"><a xlink:title=" ">
<polygon fill="#999999" stroke="#666666" points="374,-56 273,-56 273,-37 374,-37 374,-56"/>
<text text-anchor="middle" x="323.5" y="-44" font-family="Helvetica,sans-Serif" font-size="10.00">handle_irq_event</text>
</a>
</g>
</g>
<!-- Node2 -->
<g id="Node000002" class="node">
<title>Node2</title>
<g id="a_Node000002"><a xlink:href="irq__desc_8c.html#aca881548f66c3896ad5aa934857adbb2" target="_top" xlink:title=" ">
<polygon fill="white" stroke="#666666" points="232.5,-93 135.5,-93 135.5,-74 232.5,-74 232.5,-93"/>
<text text-anchor="middle" x="184" y="-81" font-family="Helvetica,sans-Serif" font-size="10.00">handle_edge_irq</text>
</a>
</g>
</g>
<!-- Node1&#45;&gt;Node2 -->
<g id="edge1_Node000001_Node000002" class="edge">
<title>Node1&#45;&gt;Node2</title>
<g id="a_edge1_Node000001_Node000002"><a xlink:title=" ">
<path fill="none" stroke="#63b8ff" d="M277.2,-58.69C258.87,-63.62 238.01,-69.24 220.77,-73.88"/>
<polygon fill="#63b8ff" stroke="#63b8ff" points="278.34,-62.01 287.09,-56.03 276.52,-55.25 278.34,-62.01"/>
</a>
</g>
</g>
<!-- Node3 -->
<g id="Node000003" class="node">
<title>Node3</title>
<g id="a_Node000003"><a xlink:href="irq__desc_8c.html#aed317c7eb5b04e2fd1bd9e2dfbc2acb4" target="_top" xlink:title=" ">
<polygon fill="white" stroke="#666666" points="232.5,-56 135.5,-56 135.5,-37 232.5,-37 232.5,-56"/>
<text text-anchor="middle" x="184" y="-44" font-family="Helvetica,sans-Serif" font-size="10.00">handle_level_irq</text>
</a>
</g>
</g>
<!-- Node1&#45;&gt;Node3 -->
<g id="edge2_Node000001_Node000003" class="edge">
<title>Node1&#45;&gt;Node3</title>
<g id="a_edge2_Node000001_Node000003"><a xlink:title=" ">
<path fill="none" stroke="#63b8ff" d="M262.58,-46.5C252.6,-46.5 242.36,-46.5 232.73,-46.5"/>
<polygon fill="#63b8ff" stroke="#63b8ff" points="262.86,-50 272.86,-46.5 262.86,-43 262.86,-50"/>
</a>
</g>
</g>
<!-- Node4 -->
<g id="Node000004" class="node">
<title>Node4</title>
<g id="a_Node000004"><a xlink:href="irq__desc_8c.html#ac1748bc5c4216f92e873bac7f428d453" target="_top" xlink:title=" ">
<polygon fill="white" stroke="#666666" points="237,-19 131,-19 131,0 237,0 237,-19"/>
<text text-anchor="middle" x="184" y="-7" font-family="Helvetica,sans-Serif" font-size="10.00">handle_simple_irq</text>
</a>
</g>
</g>
<!-- Node1&#45;&gt;Node4 -->
<g id="edge3_Node000001_Node000004" class="edge">
<title>Node1&#45;&gt;Node4</title>
<g id="a_edge3_Node000001_Node000004"><a xlink:title=" ">
<path fill="none" stroke="#63b8ff" d="M277.2,-34.31C258.87,-29.38 238.01,-23.76 220.77,-19.12"/>
<polygon fill="#63b8ff" stroke="#63b8ff" points="276.52,-37.75 287.09,-36.97 278.34,-30.99 276.52,-37.75"/>
</a>
</g>
</g>
<!-- Node5 -->
<g id="Node000005" class="node">
<title>Node5</title>
<g id="a_Node000005"><a xlink:href="irq__desc_8c.html#a6f6124af8d1d870a3f18c7df5151f638" target="_top" xlink:title=" ">
<polygon fill="white" stroke="#666666" points="95,-19 0,-19 0,0 95,0 95,-19"/>
<text text-anchor="middle" x="47.5" y="-7" font-family="Helvetica,sans-Serif" font-size="10.00">irq_desc_init_all</text>
</a>
</g>
</g>
<!-- Node4&#45;&gt;Node5 -->
<g id="edge4_Node000004_Node000005" class="edge">
<title>Node4&#45;&gt;Node5</title>
<g id="a_edge4_Node000004_Node000005"><a xlink:title=" ">
<path fill="none" stroke="#63b8ff" d="M120.9,-9.5C112.22,-9.5 103.42,-9.5 95.09,-9.5"/>
<polygon fill="#63b8ff" stroke="#63b8ff" points="121,-13 131,-9.5 121,-6 121,-13"/>
</a>
</g>
</g>
</g>
</svg>
</svg>

<style type='text/css'>
<![CDATA[
[data-mouse-over-selected='false'] { opacity: 0.7; }
[data-mouse-over-selected='true']  { opacity: 1.0; }
]]>
</style>
<script type="application/ecmascript"><![CDATA[
document.addEventListener('DOMContentLoaded', (event) => {
  highlightEdges();
  highlightAdjacentNodes();
});
]]></script>
</svg>
