<?xml version="1.0" encoding="UTF-8" standalone="no"?>
<!DOCTYPE svg PUBLIC "-//W3C//DTD SVG 1.1//EN"
 "http://www.w3.org/Graphics/SVG/1.1/DTD/svg11.dtd">
<!-- Generated by graphviz version 2.43.0 (0)
 -->
<!-- Title: __do_IRQ_from_isr Pages: 1 -->
<svg width="477pt" height="189pt"
 viewBox="0.00 0.00 477.00 188.50" xmlns="http://www.w3.org/2000/svg" xmlns:xlink="http://www.w3.org/1999/xlink">

<svg id="main" version="1.1" xmlns="http://www.w3.org/2000/svg" xmlns:xlink="http://www.w3.org/1999/xlink" xml:space="preserve" onload="init(evt)">
<style type="text/css"><![CDATA[
.node, .edge {opacity: 0.7;}
.node.selected, .edge.selected {opacity: 1;}
.edge:hover path { stroke: red; }
.edge:hover polygon { stroke: red; fill: red; }
]]></style>
<script type="application/ecmascript" xlink:href="svg.min.js"/>
<svg id="graph" class="graph">
<g id="graph0" class="graph" transform="scale(1 1) rotate(0) translate(4 184.5)">
<title>__do_IRQ_from_isr</title>
<!-- Node1 -->
<g id="Node000001" class="node">
<title>Node1</title>
<g id="a_Node000001"><a xlink:title=" ">
<polygon fill="#999999" stroke="#666666" points="469,-62 362,-62 362,-43 469,-43 469,-62"/>
<text text-anchor="middle" x="415.5" y="-50" font-family="Helvetica,sans-Serif" font-size="10.00">__do_IRQ_from_isr</text>
</a>
</g>
</g>
<!-- Node2 -->
<g id="Node000002" class="node">
<title>Node2</title>
<g id="a_Node000002"><a xlink:href="drv__irq_8c.html#a104acd29a44e0545013a32f6585963e3" target="_top" xlink:title="Dispatch an IRQ event from ISR context. Each registered callback receives pxHPT so it can accumulate ...">
<polygon fill="white" stroke="#666666" points="326,-105 183,-105 183,-86 326,-86 326,-105"/>
<text text-anchor="middle" x="254.5" y="-93" font-family="Helvetica,sans-Serif" font-size="10.00">drv_irq_dispatch_from_isr</text>
</a>
</g>
</g>
<!-- Node1&#45;&gt;Node2 -->
<g id="edge1_Node000001_Node000002" class="edge">
<title>Node1&#45;&gt;Node2</title>
<g id="a_edge1_Node000001_Node000002"><a xlink:title=" ">
<path fill="none" stroke="#63b8ff" d="M369.36,-64.76C355.46,-68.53 340.1,-72.69 326,-76.5 314.62,-79.58 302.2,-82.93 291.01,-85.94"/>
<polygon fill="#63b8ff" stroke="#63b8ff" points="370.46,-68.09 379.19,-62.09 368.62,-61.33 370.46,-68.09"/>
</a>
</g>
</g>
<!-- Node7 -->
<g id="Node000007" class="node">
<title>Node7</title>
<g id="a_Node000007"><a xlink:href="hal__timebase__stm32_8c.html#a5142615641d5f58eee704795cdf20e2a" target="_top" xlink:title=" ">
<polygon fill="white" stroke="#666666" points="314,-67.5 195,-67.5 195,-37.5 314,-37.5 314,-67.5"/>
<text text-anchor="start" x="203" y="-55.5" font-family="Helvetica,sans-Serif" font-size="10.00">hal_timebase_stm32</text>
<text text-anchor="middle" x="254.5" y="-44.5" font-family="Helvetica,sans-Serif" font-size="10.00">_irq_handler</text>
</a>
</g>
</g>
<!-- Node1&#45;&gt;Node7 -->
<g id="edge6_Node000001_Node000007" class="edge">
<title>Node1&#45;&gt;Node7</title>
<g id="a_edge6_Node000001_Node000007"><a xlink:title=" ">
<path fill="none" stroke="#63b8ff" d="M351.78,-52.5C339.42,-52.5 326.49,-52.5 314.27,-52.5"/>
<polygon fill="#63b8ff" stroke="#63b8ff" points="352,-56 362,-52.5 352,-49 352,-56"/>
</a>
</g>
</g>
<!-- Node8 -->
<g id="Node000008" class="node">
<title>Node8</title>
<g id="a_Node000008"><a xlink:href="irq__notify_8c.html#a7460231c5dcb390c511a5ce7310bd417" target="_top" xlink:title="Dispatch notification from ISR context. Each registered callback receives the same pxHPT pointer so t...">
<polygon fill="white" stroke="#666666" points="308.5,-19 200.5,-19 200.5,0 308.5,0 308.5,-19"/>
<text text-anchor="middle" x="254.5" y="-7" font-family="Helvetica,sans-Serif" font-size="10.00">irq_notify_from_isr</text>
</a>
</g>
</g>
<!-- Node1&#45;&gt;Node8 -->
<g id="edge7_Node000001_Node000008" class="edge">
<title>Node1&#45;&gt;Node8</title>
<g id="a_edge7_Node000001_Node000008"><a xlink:title=" ">
<path fill="none" stroke="#63b8ff" d="M369.36,-40.24C355.46,-36.47 340.1,-32.31 326,-28.5 314.62,-25.42 302.2,-22.07 291.01,-19.06"/>
<polygon fill="#63b8ff" stroke="#63b8ff" points="368.62,-43.67 379.19,-42.91 370.46,-36.91 368.62,-43.67"/>
</a>
</g>
</g>
<!-- Node3 -->
<g id="Node000003" class="node">
<title>Node3</title>
<g id="a_Node000003"><a xlink:href="hal__iic__stm32_8c.html#a2cbe166e3c3ea0291b648d3e747a7dc5" target="_top" xlink:title="Called from I2Cx_ER_IRQHandler to dispatch HAL_I2C_ER_IRQHandler to whichever generic handle owns ins...">
<polygon fill="white" stroke="#666666" points="132,-180.5 15,-180.5 15,-150.5 132,-150.5 132,-180.5"/>
<text text-anchor="start" x="23" y="-168.5" font-family="Helvetica,sans-Serif" font-size="10.00">hal_iic_stm32_er_irq</text>
<text text-anchor="middle" x="73.5" y="-157.5" font-family="Helvetica,sans-Serif" font-size="10.00">_handler</text>
</a>
</g>
</g>
<!-- Node2&#45;&gt;Node3 -->
<g id="edge2_Node000002_Node000003" class="edge">
<title>Node2&#45;&gt;Node3</title>
<g id="a_edge2_Node000002_Node000003"><a xlink:title=" ">
<path fill="none" stroke="#63b8ff" d="M223.77,-109.18C202.57,-118.72 173.28,-131.5 147,-141.5 138.95,-144.57 130.31,-147.62 121.9,-150.48"/>
<polygon fill="#63b8ff" stroke="#63b8ff" points="225.24,-112.35 232.91,-105.04 222.35,-105.98 225.24,-112.35"/>
</a>
</g>
</g>
<!-- Node4 -->
<g id="Node000004" class="node">
<title>Node4</title>
<g id="a_Node000004"><a xlink:href="hal__iic__stm32_8c.html#af651223af8184f72b0eedf902dcfb2cc" target="_top" xlink:title="Called from I2Cx_EV_IRQHandler to dispatch HAL_I2C_EV_IRQHandler to whichever generic handle owns ins...">
<polygon fill="white" stroke="#666666" points="133,-132.5 14,-132.5 14,-102.5 133,-102.5 133,-132.5"/>
<text text-anchor="start" x="22" y="-120.5" font-family="Helvetica,sans-Serif" font-size="10.00">hal_iic_stm32_ev_irq</text>
<text text-anchor="middle" x="73.5" y="-109.5" font-family="Helvetica,sans-Serif" font-size="10.00">_handler</text>
</a>
</g>
</g>
<!-- Node2&#45;&gt;Node4 -->
<g id="edge3_Node000002_Node000004" class="edge">
<title>Node2&#45;&gt;Node4</title>
<g id="a_edge3_Node000002_Node000004"><a xlink:title=" ">
<path fill="none" stroke="#63b8ff" d="M172.66,-105.44C159.37,-107.07 145.82,-108.73 133.2,-110.28"/>
<polygon fill="#63b8ff" stroke="#63b8ff" points="173.26,-108.89 182.75,-104.19 172.4,-101.94 173.26,-108.89"/>
</a>
</g>
</g>
<!-- Node5 -->
<g id="Node000005" class="node">
<title>Node5</title>
<g id="a_Node000005"><a xlink:href="hal__spi__stm32_8c.html#a502fc75767c7ebbec7885a7798f2b665" target="_top" xlink:title="Called from SPIx_IRQHandler to dispatch HAL_SPI_IRQHandler to whichever generic handle owns instance.">
<polygon fill="white" stroke="#666666" points="147,-84 0,-84 0,-65 147,-65 147,-84"/>
<text text-anchor="middle" x="73.5" y="-72" font-family="Helvetica,sans-Serif" font-size="10.00">hal_spi_stm32_irq_handler</text>
</a>
</g>
</g>
<!-- Node2&#45;&gt;Node5 -->
<g id="edge4_Node000002_Node000005" class="edge">
<title>Node2&#45;&gt;Node5</title>
<g id="a_edge4_Node000002_Node000005"><a xlink:title=" ">
<path fill="none" stroke="#63b8ff" d="M172.77,-86.03C164.21,-85.02 155.54,-84.01 147.08,-83.02"/>
<polygon fill="#63b8ff" stroke="#63b8ff" points="172.41,-89.51 182.75,-87.2 173.23,-82.56 172.41,-89.51"/>
</a>
</g>
</g>
<!-- Node6 -->
<g id="Node000006" class="node">
<title>Node6</title>
<g id="a_Node000006"><a xlink:href="hal__uart__stm32_8c.html#a6b69ed104eb5d662230497d7ac2881a6" target="_top" xlink:title="Called from the USARTx_IRQHandler to dispatch HAL_UART_IRQHandler to whichever generic handle owns in...">
<polygon fill="white" stroke="#666666" points="128.5,-46.5 18.5,-46.5 18.5,-16.5 128.5,-16.5 128.5,-46.5"/>
<text text-anchor="start" x="26.5" y="-34.5" font-family="Helvetica,sans-Serif" font-size="10.00">hal_uart_stm32_irq</text>
<text text-anchor="middle" x="73.5" y="-23.5" font-family="Helvetica,sans-Serif" font-size="10.00">_handler</text>
</a>
</g>
</g>
<!-- Node2&#45;&gt;Node6 -->
<g id="edge5_Node000002_Node000006" class="edge">
<title>Node2&#45;&gt;Node6</title>
<g id="a_edge5_Node000002_Node000006"><a xlink:title=" ">
<path fill="none" stroke="#63b8ff" d="M201.08,-83.04C194.91,-81.09 188.76,-78.9 183,-76.5 165.91,-69.36 163.88,-63.12 147,-55.5 139.87,-52.28 132.18,-49.27 124.56,-46.55"/>
<polygon fill="#63b8ff" stroke="#63b8ff" points="200.18,-86.43 210.76,-85.93 202.18,-79.72 200.18,-86.43"/>
</a>
</g>
</g>
</g>
</svg>
</svg>

<style type='text/css'>
<![CDATA[
[data-mouse-over-selected='false'] { opacity: 0.7; }
[data-mouse-over-selected='true']  { opacity: 1.0; }
]]>
</style>
<script type="application/ecmascript"><![CDATA[
document.addEventListener('DOMContentLoaded', (event) => {
  highlightEdges();
  highlightAdjacentNodes();
});
]]></script>
</svg>
