<?xml version="1.0" encoding="UTF-8" standalone="no"?>
<!DOCTYPE svg PUBLIC "-//W3C//DTD SVG 1.1//EN"
 "http://www.w3.org/Graphics/SVG/1.1/DTD/svg11.dtd">
<!-- Generated by graphviz version 2.43.0 (0)
 -->
<!-- Title: irq_notify Pages: 1 -->
<svg width="276pt" height="27pt"
 viewBox="0.00 0.00 276.00 27.00" xmlns="http://www.w3.org/2000/svg" xmlns:xlink="http://www.w3.org/1999/xlink">
<g id="graph0" class="graph" transform="scale(1 1) rotate(0) translate(4 23)">
<title>irq_notify</title>
<!-- Node1 -->
<g id="Node000001" class="node">
<title>Node1</title>
<g id="a_Node000001"><a xlink:title="Dispatch notification to all registered callbacks (task context). pxHPT is passed as NULL — callbacks...">
<polygon fill="#999999" stroke="#666666" points="62,-19 0,-19 0,0 62,0 62,-19"/>
<text text-anchor="middle" x="31" y="-7" font-family="Helvetica,sans-Serif" font-size="10.00">irq_notify</text>
</a>
</g>
</g>
<!-- Node2 -->
<g id="Node000002" class="node">
<title>Node2</title>
<g id="a_Node000002"><a xlink:href="irq__desc_8c.html#aad293c8a451bcfc8824fba41ef042a7d" target="_top" xlink:title=" ">
<polygon fill="white" stroke="#666666" points="160,-19 98,-19 98,0 160,0 160,-19"/>
<text text-anchor="middle" x="129" y="-7" font-family="Helvetica,sans-Serif" font-size="10.00">__do_IRQ</text>
</a>
</g>
</g>
<!-- Node1&#45;&gt;Node2 -->
<g id="edge1_Node000001_Node000002" class="edge">
<title>Node1&#45;&gt;Node2</title>
<g id="a_edge1_Node000001_Node000002"><a xlink:title=" ">
<path fill="none" stroke="#63b8ff" d="M62.11,-9.5C70.24,-9.5 79.17,-9.5 87.76,-9.5"/>
<polygon fill="#63b8ff" stroke="#63b8ff" points="88,-13 98,-9.5 88,-6 88,-13"/>
</a>
</g>
</g>
<!-- Node3 -->
<g id="Node000003" class="node">
<title>Node3</title>
<g id="a_Node000003"><a xlink:href="irq__desc_8c.html#aaef6f6dd8053daf49e96ef43997f43bd" target="_top" xlink:title=" ">
<polygon fill="white" stroke="#666666" points="268,-19 196,-19 196,0 268,0 268,-19"/>
<text text-anchor="middle" x="232" y="-7" font-family="Helvetica,sans-Serif" font-size="10.00">irq_to_desc</text>
</a>
</g>
</g>
<!-- Node2&#45;&gt;Node3 -->
<g id="edge2_Node000002_Node000003" class="edge">
<title>Node2&#45;&gt;Node3</title>
<g id="a_edge2_Node000002_Node000003"><a xlink:title=" ">
<path fill="none" stroke="#63b8ff" d="M160.03,-9.5C168.14,-9.5 177.09,-9.5 185.83,-9.5"/>
<polygon fill="#63b8ff" stroke="#63b8ff" points="185.93,-13 195.93,-9.5 185.93,-6 185.93,-13"/>
</a>
</g>
</g>
</g>
</svg>
