<?xml version="1.0" encoding="UTF-8" standalone="no"?>
<!DOCTYPE svg PUBLIC "-//W3C//DTD SVG 1.1//EN"
 "http://www.w3.org/Graphics/SVG/1.1/DTD/svg11.dtd">
<!-- Generated by graphviz version 2.43.0 (0)
 -->
<!-- Title: request_irq Pages: 1 -->
<svg width="286pt" height="101pt"
 viewBox="0.00 0.00 286.00 101.00" xmlns="http://www.w3.org/2000/svg" xmlns:xlink="http://www.w3.org/1999/xlink">

<svg id="main" version="1.1" xmlns="http://www.w3.org/2000/svg" xmlns:xlink="http://www.w3.org/1999/xlink" xml:space="preserve" onload="init(evt)">
<style type="text/css"><![CDATA[
.node, .edge {opacity: 0.7;}
.node.selected, .edge.selected {opacity: 1;}
.edge:hover path { stroke: red; }
.edge:hover polygon { stroke: red; fill: red; }
]]></style>
<script type="application/ecmascript" xlink:href="svg.min.js"/>
<svg id="graph" class="graph">
<g id="graph0" class="graph" transform="scale(1 1) rotate(0) translate(4 97)">
<title>request_irq</title>
<!-- Node1 -->
<g id="Node000001" class="node">
<title>Node1</title>
<g id="a_Node000001"><a xlink:title=" ">
<polygon fill="#999999" stroke="#666666" points="71,-37 0,-37 0,-18 71,-18 71,-37"/>
<text text-anchor="middle" x="35.5" y="-25" font-family="Helvetica,sans-Serif" font-size="10.00">request_irq</text>
</a>
</g>
</g>
<!-- Node2 -->
<g id="Node000002" class="node">
<title>Node2</title>
<g id="a_Node000002"><a xlink:href="irq__desc_8c.html#a0041385040c05835d54aca9c83340f87" target="_top" xlink:title=" ">
<polygon fill="white" stroke="#666666" points="187,-56 107,-56 107,-37 187,-37 187,-56"/>
<text text-anchor="middle" x="147" y="-44" font-family="Helvetica,sans-Serif" font-size="10.00">_alloc_action</text>
</a>
</g>
</g>
<!-- Node1&#45;&gt;Node2 -->
<g id="edge1_Node000001_Node000002" class="edge">
<title>Node1&#45;&gt;Node2</title>
<g id="a_edge1_Node000001_Node000002"><a xlink:title=" ">
<path fill="none" stroke="#63b8ff" d="M71.15,-33.51C79.25,-34.92 88.04,-36.44 96.65,-37.94"/>
<polygon fill="#63b8ff" stroke="#63b8ff" points="96.17,-41.41 106.62,-39.67 97.37,-34.51 96.17,-41.41"/>
</a>
</g>
</g>
<!-- Node5 -->
<g id="Node000005" class="node">
<title>Node5</title>
<g id="a_Node000005"><a xlink:href="group__list__api.html#gafb58231c241f9acee99a56aaa1b98cec" target="_top" xlink:title="Add a new node at the tail of the list.">
<polygon fill="white" stroke="#666666" points="185,-19 109,-19 109,0 185,0 185,-19"/>
<text text-anchor="middle" x="147" y="-7" font-family="Helvetica,sans-Serif" font-size="10.00">list_add_tail</text>
</a>
</g>
</g>
<!-- Node1&#45;&gt;Node5 -->
<g id="edge4_Node000001_Node000005" class="edge">
<title>Node1&#45;&gt;Node5</title>
<g id="a_edge4_Node000001_Node000005"><a xlink:title=" ">
<path fill="none" stroke="#63b8ff" d="M71.15,-21.8C79.98,-20.35 89.63,-18.77 98.97,-17.23"/>
<polygon fill="#63b8ff" stroke="#63b8ff" points="99.63,-20.67 108.93,-15.59 98.49,-13.76 99.63,-20.67"/>
</a>
</g>
</g>
<!-- Node3 -->
<g id="Node000003" class="node">
<title>Node3</title>
<g id="a_Node000003"><a xlink:href="os_2kernel__mem_8h.html#a2b55f9d76c0a87c16c336ec837a80101" target="_top" xlink:title=" ">
<polygon fill="white" stroke="#666666" points="277,-93 224,-93 224,-74 277,-74 277,-93"/>
<text text-anchor="middle" x="250.5" y="-81" font-family="Helvetica,sans-Serif" font-size="10.00">kmaloc</text>
</a>
</g>
</g>
<!-- Node2&#45;&gt;Node3 -->
<g id="edge2_Node000002_Node000003" class="edge">
<title>Node2&#45;&gt;Node3</title>
<g id="a_edge2_Node000002_Node000003"><a xlink:title=" ">
<path fill="none" stroke="#63b8ff" d="M174.14,-56.03C186.31,-60.46 200.97,-65.81 214.11,-70.6"/>
<polygon fill="#63b8ff" stroke="#63b8ff" points="213.21,-74 223.8,-74.13 215.6,-67.42 213.21,-74"/>
</a>
</g>
</g>
<!-- Node4 -->
<g id="Node000004" class="node">
<title>Node4</title>
<g id="a_Node000004"><a xlink:href="group__list__api.html#ga9e661d1dcd51bd4eb3951488574058b0" target="_top" xlink:title="Initialize a list node [ Doubly circular].">
<polygon fill="white" stroke="#666666" points="277,-56 224,-56 224,-37 277,-37 277,-56"/>
<text text-anchor="middle" x="250.5" y="-44" font-family="Helvetica,sans-Serif" font-size="10.00">list_init</text>
</a>
</g>
</g>
<!-- Node2&#45;&gt;Node4 -->
<g id="edge3_Node000002_Node000004" class="edge">
<title>Node2&#45;&gt;Node4</title>
<g id="a_edge3_Node000002_Node000004"><a xlink:title=" ">
<path fill="none" stroke="#63b8ff" d="M187.24,-46.5C195.97,-46.5 205.17,-46.5 213.75,-46.5"/>
<polygon fill="#63b8ff" stroke="#63b8ff" points="213.82,-50 223.82,-46.5 213.82,-43 213.82,-50"/>
</a>
</g>
</g>
<!-- Node6 -->
<g id="Node000006" class="node">
<title>Node6</title>
<g id="a_Node000006"><a xlink:href="group__list__api.html#gab1766e25461b90b75aa3360245547452" target="_top" xlink:title="add a node in between two nodes.">
<polygon fill="white" stroke="#666666" points="278,-19 223,-19 223,0 278,0 278,-19"/>
<text text-anchor="middle" x="250.5" y="-7" font-family="Helvetica,sans-Serif" font-size="10.00">list_add</text>
</a>
</g>
</g>
<!-- Node5&#45;&gt;Node6 -->
<g id="edge5_Node000005_Node000006" class="edge">
<title>Node5&#45;&gt;Node6</title>
<g id="a_edge5_Node000005_Node000006"><a xlink:title=" ">
<path fill="none" stroke="#63b8ff" d="M185.22,-9.5C194.16,-9.5 203.72,-9.5 212.65,-9.5"/>
<polygon fill="#63b8ff" stroke="#63b8ff" points="212.77,-13 222.77,-9.5 212.77,-6 212.77,-13"/>
</a>
</g>
</g>
</g>
</svg>
</svg>

<style type='text/css'>
<![CDATA[
[data-mouse-over-selected='false'] { opacity: 0.7; }
[data-mouse-over-selected='true']  { opacity: 1.0; }
]]>
</style>
<script type="application/ecmascript"><![CDATA[
document.addEventListener('DOMContentLoaded', (event) => {
  highlightEdges();
  highlightAdjacentNodes();
});
]]></script>
</svg>
