<?xml version="1.0" encoding="UTF-8" standalone="no"?>
<!DOCTYPE svg PUBLIC "-//W3C//DTD SVG 1.1//EN"
 "http://www.w3.org/Graphics/SVG/1.1/DTD/svg11.dtd">
<!-- Generated by graphviz version 2.43.0 (0)
 -->
<!-- Title: free_irq Pages: 1 -->
<svg width="253pt" height="64pt"
 viewBox="0.00 0.00 253.00 64.00" xmlns="http://www.w3.org/2000/svg" xmlns:xlink="http://www.w3.org/1999/xlink">
<g id="graph0" class="graph" transform="scale(1 1) rotate(0) translate(4 60)">
<title>free_irq</title>
<!-- Node1 -->
<g id="Node000001" class="node">
<title>Node1</title>
<g id="a_Node000001"><a xlink:title=" ">
<polygon fill="#999999" stroke="#666666" points="54,-37 0,-37 0,-18 54,-18 54,-37"/>
<text text-anchor="middle" x="27" y="-25" font-family="Helvetica,sans-Serif" font-size="10.00">free_irq</text>
</a>
</g>
</g>
<!-- Node2 -->
<g id="Node000002" class="node">
<title>Node2</title>
<g id="a_Node000002"><a xlink:href="irq__desc_8c.html#aa58e675170de727bc88cd6b735c022c2" target="_top" xlink:title=" ">
<polygon fill="white" stroke="#666666" points="167,-56 90,-56 90,-37 167,-37 167,-56"/>
<text text-anchor="middle" x="128.5" y="-44" font-family="Helvetica,sans-Serif" font-size="10.00">_free_action</text>
</a>
</g>
</g>
<!-- Node1&#45;&gt;Node2 -->
<g id="edge1_Node000001_Node000002" class="edge">
<title>Node1&#45;&gt;Node2</title>
<g id="a_edge1_Node000001_Node000002"><a xlink:title=" ">
<path fill="none" stroke="#63b8ff" d="M54.14,-32.49C62.09,-34.01 71.09,-35.73 79.99,-37.43"/>
<polygon fill="#63b8ff" stroke="#63b8ff" points="79.45,-40.89 89.93,-39.33 80.77,-34.01 79.45,-40.89"/>
</a>
</g>
</g>
<!-- Node4 -->
<g id="Node000004" class="node">
<title>Node4</title>
<g id="a_Node000004"><a xlink:href="group__list__api.html#ga42ec4f71d5c7199de9b75f81b3f4e8ed" target="_top" xlink:title="Delete a node from the list.">
<polygon fill="white" stroke="#666666" points="162.5,-19 94.5,-19 94.5,0 162.5,0 162.5,-19"/>
<text text-anchor="middle" x="128.5" y="-7" font-family="Helvetica,sans-Serif" font-size="10.00">list_delete</text>
</a>
</g>
</g>
<!-- Node1&#45;&gt;Node4 -->
<g id="edge3_Node000001_Node000004" class="edge">
<title>Node1&#45;&gt;Node4</title>
<g id="a_edge3_Node000001_Node000004"><a xlink:title=" ">
<path fill="none" stroke="#63b8ff" d="M54.14,-22.77C63.38,-21.1 74.04,-19.17 84.32,-17.31"/>
<polygon fill="#63b8ff" stroke="#63b8ff" points="85.18,-20.71 94.4,-15.49 83.93,-13.82 85.18,-20.71"/>
</a>
</g>
</g>
<!-- Node3 -->
<g id="Node000003" class="node">
<title>Node3</title>
<g id="a_Node000003"><a xlink:href="os_2kernel__mem_8h.html#ab750d6dec279a17969f64507edde0767" target="_top" xlink:title=" ">
<polygon fill="white" stroke="#666666" points="245,-56 203,-56 203,-37 245,-37 245,-56"/>
<text text-anchor="middle" x="224" y="-44" font-family="Helvetica,sans-Serif" font-size="10.00">kfree</text>
</a>
</g>
</g>
<!-- Node2&#45;&gt;Node3 -->
<g id="edge2_Node000002_Node000003" class="edge">
<title>Node2&#45;&gt;Node3</title>
<g id="a_edge2_Node000002_Node000003"><a xlink:title=" ">
<path fill="none" stroke="#63b8ff" d="M167.26,-46.5C175.72,-46.5 184.58,-46.5 192.69,-46.5"/>
<polygon fill="#63b8ff" stroke="#63b8ff" points="192.82,-50 202.82,-46.5 192.82,-43 192.82,-50"/>
</a>
</g>
</g>
</g>
</svg>
