<?xml version="1.0" encoding="UTF-8" standalone="no"?>
<!DOCTYPE svg PUBLIC "-//W3C//DTD SVG 1.1//EN"
 "http://www.w3.org/Graphics/SVG/1.1/DTD/svg11.dtd">
<!-- Generated by graphviz version 2.43.0 (0)
 -->
<!-- Title: irq_desc.h Pages: 1 -->
<svg width="489pt" height="137pt"
 viewBox="0.00 0.00 489.00 137.00" xmlns="http://www.w3.org/2000/svg" xmlns:xlink="http://www.w3.org/1999/xlink">
<g id="graph0" class="graph" transform="scale(1 1) rotate(0) translate(4 133)">
<title>irq_desc.h</title>
<!-- Node1 -->
<g id="Node000001" class="node">
<title>Node1</title>
<g id="a_Node000001"><a xlink:title=" ">
<polygon fill="#999999" stroke="#666666" points="299.5,-129 233.5,-129 233.5,-110 299.5,-110 299.5,-129"/>
<text text-anchor="middle" x="266.5" y="-117" font-family="Helvetica,sans-Serif" font-size="10.00">irq_desc.h</text>
</a>
</g>
</g>
<!-- Node2 -->
<g id="Node000002" class="node">
<title>Node2</title>
<g id="a_Node000002"><a xlink:href="drv__irq_8c.html" target="_top" xlink:title=" ">
<polygon fill="white" stroke="#666666" points="59,-74 0,-74 0,-55 59,-55 59,-74"/>
<text text-anchor="middle" x="29.5" y="-62" font-family="Helvetica,sans-Serif" font-size="10.00">drv_irq.c</text>
</a>
</g>
</g>
<!-- Node1&#45;&gt;Node2 -->
<g id="edge1_Node000001_Node000002" class="edge">
<title>Node1&#45;&gt;Node2</title>
<g id="a_edge1_Node000001_Node000002"><a xlink:title=" ">
<path fill="none" stroke="#63b8ff" d="M223.29,-108.84C175.7,-98.19 100.45,-81.37 59.12,-72.12"/>
<polygon fill="#63b8ff" stroke="#63b8ff" points="222.77,-112.31 233.3,-111.07 224.3,-105.48 222.77,-112.31"/>
</a>
</g>
</g>
<!-- Node3 -->
<g id="Node000003" class="node">
<title>Node3</title>
<g id="a_Node000003"><a xlink:href="hal__timebase__stm32_8c.html" target="_top" xlink:title=" ">
<polygon fill="white" stroke="#666666" points="204,-74 77,-74 77,-55 204,-55 204,-74"/>
<text text-anchor="middle" x="140.5" y="-62" font-family="Helvetica,sans-Serif" font-size="10.00">hal_timebase_stm32.c</text>
</a>
</g>
</g>
<!-- Node1&#45;&gt;Node3 -->
<g id="edge2_Node000001_Node000003" class="edge">
<title>Node1&#45;&gt;Node3</title>
<g id="a_edge2_Node000001_Node000003"><a xlink:title=" ">
<path fill="none" stroke="#63b8ff" d="M236.85,-106.03C213.55,-96.23 181.7,-82.83 161.11,-74.17"/>
<polygon fill="#63b8ff" stroke="#63b8ff" points="235.68,-109.33 246.26,-109.98 238.4,-102.88 235.68,-109.33"/>
</a>
</g>
</g>
<!-- Node4 -->
<g id="Node000004" class="node">
<title>Node4</title>
<g id="a_Node000004"><a xlink:href="irq__chip__nvic_8h.html" target="_top" xlink:title=" ">
<polygon fill="white" stroke="#666666" points="311,-74 222,-74 222,-55 311,-55 311,-74"/>
<text text-anchor="middle" x="266.5" y="-62" font-family="Helvetica,sans-Serif" font-size="10.00">irq_chip_nvic.h</text>
</a>
</g>
</g>
<!-- Node1&#45;&gt;Node4 -->
<g id="edge3_Node000001_Node000004" class="edge">
<title>Node1&#45;&gt;Node4</title>
<g id="a_edge3_Node000001_Node000004"><a xlink:title=" ">
<path fill="none" stroke="#63b8ff" d="M266.5,-99.66C266.5,-90.93 266.5,-80.99 266.5,-74.09"/>
<polygon fill="#63b8ff" stroke="#63b8ff" points="263,-99.75 266.5,-109.75 270,-99.75 263,-99.75"/>
</a>
</g>
</g>
<!-- Node6 -->
<g id="Node000006" class="node">
<title>Node6</title>
<g id="a_Node000006"><a xlink:href="irq__desc_8c.html" target="_top" xlink:title=" ">
<polygon fill="white" stroke="#666666" points="394,-74 329,-74 329,-55 394,-55 394,-74"/>
<text text-anchor="middle" x="361.5" y="-62" font-family="Helvetica,sans-Serif" font-size="10.00">irq_desc.c</text>
</a>
</g>
</g>
<!-- Node1&#45;&gt;Node6 -->
<g id="edge5_Node000001_Node000006" class="edge">
<title>Node1&#45;&gt;Node6</title>
<g id="a_edge5_Node000001_Node000006"><a xlink:title=" ">
<path fill="none" stroke="#63b8ff" d="M290.76,-104.97C308.13,-95.28 330.99,-82.52 345.96,-74.17"/>
<polygon fill="#63b8ff" stroke="#63b8ff" points="288.79,-102.06 281.76,-109.98 292.2,-108.17 288.79,-102.06"/>
</a>
</g>
</g>
<!-- Node7 -->
<g id="Node000007" class="node">
<title>Node7</title>
<g id="a_Node000007"><a xlink:href="irq__notify_8c.html" target="_top" xlink:title=" ">
<polygon fill="white" stroke="#666666" points="481,-74 412,-74 412,-55 481,-55 481,-74"/>
<text text-anchor="middle" x="446.5" y="-62" font-family="Helvetica,sans-Serif" font-size="10.00">irq_notify.c</text>
</a>
</g>
</g>
<!-- Node1&#45;&gt;Node7 -->
<g id="edge6_Node000001_Node000007" class="edge">
<title>Node1&#45;&gt;Node7</title>
<g id="a_edge6_Node000001_Node000007"><a xlink:title=" ">
<path fill="none" stroke="#63b8ff" d="M305.37,-107.06C339.01,-97.15 386.92,-83.04 417.35,-74.08"/>
<polygon fill="#63b8ff" stroke="#63b8ff" points="304.02,-103.8 295.42,-109.98 306,-110.52 304.02,-103.8"/>
</a>
</g>
</g>
<!-- Node5 -->
<g id="Node000005" class="node">
<title>Node5</title>
<g id="a_Node000005"><a xlink:href="irq__chip__nvic_8c.html" target="_top" xlink:title="NVIC&#45;backed irq_chip implementation for ARM Cortex&#45;M (STM32)">
<polygon fill="white" stroke="#666666" points="311,-19 222,-19 222,0 311,0 311,-19"/>
<text text-anchor="middle" x="266.5" y="-7" font-family="Helvetica,sans-Serif" font-size="10.00">irq_chip_nvic.c</text>
</a>
</g>
</g>
<!-- Node4&#45;&gt;Node5 -->
<g id="edge4_Node000004_Node000005" class="edge">
<title>Node4&#45;&gt;Node5</title>
<g id="a_edge4_Node000004_Node000005"><a xlink:title=" ">
<path fill="none" stroke="#63b8ff" d="M266.5,-44.66C266.5,-35.93 266.5,-25.99 266.5,-19.09"/>
<polygon fill="#63b8ff" stroke="#63b8ff" points="263,-44.75 266.5,-54.75 270,-44.75 263,-44.75"/>
</a>
</g>
</g>
</g>
</svg>
