<?xml version="1.0" encoding="UTF-8" standalone="no"?>
<!DOCTYPE svg PUBLIC "-//W3C//DTD SVG 1.1//EN"
 "http://www.w3.org/Graphics/SVG/1.1/DTD/svg11.dtd">
<!-- Generated by graphviz version 2.43.0 (0)
 -->
<!-- Title: thread_task_mgmt Pages: 1 -->
<svg width="397pt" height="101pt"
 viewBox="0.00 0.00 397.00 101.00" xmlns="http://www.w3.org/2000/svg" xmlns:xlink="http://www.w3.org/1999/xlink">

<svg id="main" version="1.1" xmlns="http://www.w3.org/2000/svg" xmlns:xlink="http://www.w3.org/1999/xlink" xml:space="preserve" onload="init(evt)">
<style type="text/css"><![CDATA[
.node, .edge {opacity: 0.7;}
.node.selected, .edge.selected {opacity: 1;}
.edge:hover path { stroke: red; }
.edge:hover polygon { stroke: red; fill: red; }
]]></style>
<script type="application/ecmascript" xlink:href="svg.min.js"/>
<svg id="graph" class="graph">
<g id="graph0" class="graph" transform="scale(1 1) rotate(0) translate(4 97)">
<title>thread_task_mgmt</title>
<!-- Node1 -->
<g id="Node000001" class="node">
<title>Node1</title>
<g id="a_Node000001"><a xlink:title=" ">
<polygon fill="#999999" stroke="#666666" points="109,-56 0,-56 0,-37 109,-37 109,-56"/>
<text text-anchor="middle" x="54.5" y="-44" font-family="Helvetica,sans-Serif" font-size="10.00">thread_task_mgmt</text>
</a>
</g>
</g>
<!-- Node2 -->
<g id="Node000002" class="node">
<title>Node2</title>
<g id="a_Node000002"><a xlink:href="kernel__service__task__manager_8c.html#a9bd1f7483701ba8f3f456b6988080b69" target="_top" xlink:title=" ">
<polygon fill="white" stroke="#666666" points="233,-93 159,-93 159,-74 233,-74 233,-93"/>
<text text-anchor="middle" x="196" y="-81" font-family="Helvetica,sans-Serif" font-size="10.00">_scan_heap</text>
</a>
</g>
</g>
<!-- Node1&#45;&gt;Node2 -->
<g id="edge1_Node000001_Node000002" class="edge">
<title>Node1&#45;&gt;Node2</title>
<g id="a_edge1_Node000001_Node000002"><a xlink:title=" ">
<path fill="none" stroke="#63b8ff" d="M91.42,-56.03C108.94,-60.67 130.22,-66.32 148.92,-71.28"/>
<polygon fill="#63b8ff" stroke="#63b8ff" points="148.15,-74.69 158.71,-73.88 149.94,-67.93 148.15,-74.69"/>
</a>
</g>
</g>
<!-- Node3 -->
<g id="Node000003" class="node">
<title>Node3</title>
<g id="a_Node000003"><a xlink:href="kernel__service__task__manager_8c.html#a342acfaa98bdf03d21e1d9fca4edf719" target="_top" xlink:title=" ">
<polygon fill="white" stroke="#666666" points="234,-19 158,-19 158,0 234,0 234,-19"/>
<text text-anchor="middle" x="196" y="-7" font-family="Helvetica,sans-Serif" font-size="10.00">_scan_tasks</text>
</a>
</g>
</g>
<!-- Node1&#45;&gt;Node3 -->
<g id="edge2_Node000001_Node000003" class="edge">
<title>Node1&#45;&gt;Node3</title>
<g id="a_edge2_Node000001_Node000003"><a xlink:title=" ">
<path fill="none" stroke="#63b8ff" d="M91.42,-36.97C108.94,-32.33 130.22,-26.68 148.92,-21.72"/>
<polygon fill="#63b8ff" stroke="#63b8ff" points="149.94,-25.07 158.71,-19.12 148.15,-18.31 149.94,-25.07"/>
</a>
</g>
</g>
<!-- Node6 -->
<g id="Node000006" class="node">
<title>Node6</title>
<g id="a_Node000006"><a xlink:href="kernel__service__task__manager_8c.html#a1dcbf35626b6f024228597f4fc47f8bb" target="_top" xlink:title=" ">
<polygon fill="white" stroke="#666666" points="247,-56 145,-56 145,-37 247,-37 247,-56"/>
<text text-anchor="middle" x="196" y="-44" font-family="Helvetica,sans-Serif" font-size="10.00">_scan_timer_task</text>
</a>
</g>
</g>
<!-- Node1&#45;&gt;Node6 -->
<g id="edge5_Node000001_Node000006" class="edge">
<title>Node1&#45;&gt;Node6</title>
<g id="a_edge5_Node000001_Node000006"><a xlink:title=" ">
<path fill="none" stroke="#63b8ff" d="M109.04,-46.5C117.34,-46.5 125.97,-46.5 134.41,-46.5"/>
<polygon fill="#63b8ff" stroke="#63b8ff" points="134.59,-50 144.59,-46.5 134.59,-43 134.59,-50"/>
</a>
</g>
</g>
<!-- Node4 -->
<g id="Node000004" class="node">
<title>Node4</title>
<g id="a_Node000004"><a xlink:href="kernel__service__task__manager_8c.html#a569d560c9e111abb09ece1cf3d7d7093" target="_top" xlink:title=" ">
<polygon fill="white" stroke="#666666" points="376,-56 296,-56 296,-37 376,-37 376,-56"/>
<text text-anchor="middle" x="336" y="-44" font-family="Helvetica,sans-Serif" font-size="10.00">_collect_task</text>
</a>
</g>
</g>
<!-- Node3&#45;&gt;Node4 -->
<g id="edge3_Node000003_Node000004" class="edge">
<title>Node3&#45;&gt;Node4</title>
<g id="a_edge3_Node000003_Node000004"><a xlink:title=" ">
<path fill="none" stroke="#63b8ff" d="M232.54,-19.03C249.87,-23.67 270.91,-29.32 289.41,-34.28"/>
<polygon fill="#63b8ff" stroke="#63b8ff" points="288.54,-37.67 299.1,-36.88 290.35,-30.9 288.54,-37.67"/>
</a>
</g>
</g>
<!-- Node5 -->
<g id="Node000005" class="node">
<title>Node5</title>
<g id="a_Node000005"><a xlink:href="group__Thread.html#gab8ab888134539788c5f8e6e307033e27" target="_top" xlink:title="Return the head sentinel of the intrusive thread list.">
<polygon fill="white" stroke="#666666" points="389,-19 283,-19 283,0 389,0 389,-19"/>
<text text-anchor="middle" x="336" y="-7" font-family="Helvetica,sans-Serif" font-size="10.00">os_thread_list_get</text>
</a>
</g>
</g>
<!-- Node3&#45;&gt;Node5 -->
<g id="edge4_Node000003_Node000005" class="edge">
<title>Node3&#45;&gt;Node5</title>
<g id="a_edge4_Node000003_Node000005"><a xlink:title=" ">
<path fill="none" stroke="#63b8ff" d="M234.34,-9.5C246.12,-9.5 259.47,-9.5 272.51,-9.5"/>
<polygon fill="#63b8ff" stroke="#63b8ff" points="272.86,-13 282.86,-9.5 272.86,-6 272.86,-13"/>
</a>
</g>
</g>
<!-- Node6&#45;&gt;Node4 -->
<g id="edge6_Node000006_Node000004" class="edge">
<title>Node6&#45;&gt;Node4</title>
<g id="a_edge6_Node000006_Node000004"><a xlink:title=" ">
<path fill="none" stroke="#63b8ff" d="M247.21,-46.5C259.73,-46.5 273.15,-46.5 285.63,-46.5"/>
<polygon fill="#63b8ff" stroke="#63b8ff" points="285.86,-50 295.86,-46.5 285.86,-43 285.86,-50"/>
</a>
</g>
</g>
</g>
</svg>
</svg>

<style type='text/css'>
<![CDATA[
[data-mouse-over-selected='false'] { opacity: 0.7; }
[data-mouse-over-selected='true']  { opacity: 1.0; }
]]>
</style>
<script type="application/ecmascript"><![CDATA[
document.addEventListener('DOMContentLoaded', (event) => {
  highlightEdges();
  highlightAdjacentNodes();
});
]]></script>
</svg>
