<?xml version="1.0" encoding="UTF-8" standalone="no"?>
<!DOCTYPE svg PUBLIC "-//W3C//DTD SVG 1.1//EN"
 "http://www.w3.org/Graphics/SVG/1.1/DTD/svg11.dtd">
<!-- Generated by graphviz version 2.43.0 (0)
 -->
<!-- Title: _collect_task Pages: 1 -->
<svg width="666pt" height="64pt"
 viewBox="0.00 0.00 666.00 64.00" xmlns="http://www.w3.org/2000/svg" xmlns:xlink="http://www.w3.org/1999/xlink">
<g id="graph0" class="graph" transform="scale(1 1) rotate(0) translate(4 60)">
<title>_collect_task</title>
<!-- Node1 -->
<g id="Node000001" class="node">
<title>Node1</title>
<g id="a_Node000001"><a xlink:title=" ">
<polygon fill="#999999" stroke="#666666" points="658,-37 578,-37 578,-18 658,-18 658,-37"/>
<text text-anchor="middle" x="618" y="-25" font-family="Helvetica,sans-Serif" font-size="10.00">_collect_task</text>
</a>
</g>
</g>
<!-- Node2 -->
<g id="Node000002" class="node">
<title>Node2</title>
<g id="a_Node000002"><a xlink:href="kernel__service__task__manager_8c.html#a342acfaa98bdf03d21e1d9fca4edf719" target="_top" xlink:title=" ">
<polygon fill="white" stroke="#666666" points="529,-56 453,-56 453,-37 529,-37 529,-56"/>
<text text-anchor="middle" x="491" y="-44" font-family="Helvetica,sans-Serif" font-size="10.00">_scan_tasks</text>
</a>
</g>
</g>
<!-- Node1&#45;&gt;Node2 -->
<g id="edge1_Node000001_Node000002" class="edge">
<title>Node1&#45;&gt;Node2</title>
<g id="a_edge1_Node000001_Node000002"><a xlink:title=" ">
<path fill="none" stroke="#63b8ff" d="M567.75,-34.99C554.97,-36.93 541.42,-38.99 529.36,-40.82"/>
<polygon fill="#63b8ff" stroke="#63b8ff" points="568.43,-38.42 577.79,-33.46 567.38,-31.5 568.43,-38.42"/>
</a>
</g>
</g>
<!-- Node6 -->
<g id="Node000006" class="node">
<title>Node6</title>
<g id="a_Node000006"><a xlink:href="kernel__service__task__manager_8c.html#a1dcbf35626b6f024228597f4fc47f8bb" target="_top" xlink:title=" ">
<polygon fill="white" stroke="#666666" points="542,-19 440,-19 440,0 542,0 542,-19"/>
<text text-anchor="middle" x="491" y="-7" font-family="Helvetica,sans-Serif" font-size="10.00">_scan_timer_task</text>
</a>
</g>
</g>
<!-- Node1&#45;&gt;Node6 -->
<g id="edge5_Node000001_Node000006" class="edge">
<title>Node1&#45;&gt;Node6</title>
<g id="a_edge5_Node000001_Node000006"><a xlink:title=" ">
<path fill="none" stroke="#63b8ff" d="M567.73,-20.4C559.3,-19.19 550.55,-17.93 542.1,-16.71"/>
<polygon fill="#63b8ff" stroke="#63b8ff" points="567.4,-23.89 577.79,-21.85 568.39,-16.96 567.4,-23.89"/>
</a>
</g>
</g>
<!-- Node3 -->
<g id="Node000003" class="node">
<title>Node3</title>
<g id="a_Node000003"><a xlink:href="kernel__service__task__manager_8c.html#a2f2b4590ebd8517da5b7479999cb13af" target="_top" xlink:title=" ">
<polygon fill="white" stroke="#666666" points="404,-37 295,-37 295,-18 404,-18 404,-37"/>
<text text-anchor="middle" x="349.5" y="-25" font-family="Helvetica,sans-Serif" font-size="10.00">thread_task_mgmt</text>
</a>
</g>
</g>
<!-- Node2&#45;&gt;Node3 -->
<g id="edge2_Node000002_Node000003" class="edge">
<title>Node2&#45;&gt;Node3</title>
<g id="a_edge2_Node000002_Node000003"><a xlink:title=" ">
<path fill="none" stroke="#63b8ff" d="M442.85,-40.08C430.44,-38.39 416.97,-36.55 404.24,-34.82"/>
<polygon fill="#63b8ff" stroke="#63b8ff" points="442.6,-43.58 452.98,-41.46 443.55,-36.64 442.6,-43.58"/>
</a>
</g>
</g>
<!-- Node4 -->
<g id="Node000004" class="node">
<title>Node4</title>
<g id="a_Node000004"><a xlink:href="kernel__service__core_8c.html#a77b96ca30dab7f5f8e84daae1ed8f183" target="_top" xlink:title=" ">
<polygon fill="white" stroke="#666666" points="259,-37 116,-37 116,-18 259,-18 259,-37"/>
<text text-anchor="middle" x="187.5" y="-25" font-family="Helvetica,sans-Serif" font-size="10.00">os_kernel_thread_register</text>
</a>
</g>
</g>
<!-- Node3&#45;&gt;Node4 -->
<g id="edge3_Node000003_Node000004" class="edge">
<title>Node3&#45;&gt;Node4</title>
<g id="a_edge3_Node000003_Node000004"><a xlink:title=" ">
<path fill="none" stroke="#63b8ff" d="M284.68,-27.5C276.28,-27.5 267.64,-27.5 259.13,-27.5"/>
<polygon fill="#63b8ff" stroke="#63b8ff" points="284.78,-31 294.78,-27.5 284.78,-24 284.78,-31"/>
</a>
</g>
</g>
<!-- Node5 -->
<g id="Node000005" class="node">
<title>Node5</title>
<g id="a_Node000005"><a xlink:href="main_8c.html#ab1eba6ea917a2135efde6edb0de4baef" target="_top" xlink:title=" ">
<polygon fill="white" stroke="#666666" points="80,-37 0,-37 0,-18 80,-18 80,-37"/>
<text text-anchor="middle" x="40" y="-25" font-family="Helvetica,sans-Serif" font-size="10.00">__attribute__</text>
</a>
</g>
</g>
<!-- Node4&#45;&gt;Node5 -->
<g id="edge4_Node000004_Node000005" class="edge">
<title>Node4&#45;&gt;Node5</title>
<g id="a_edge4_Node000004_Node000005"><a xlink:title=" ">
<path fill="none" stroke="#63b8ff" d="M105.79,-27.5C96.9,-27.5 88.16,-27.5 80.12,-27.5"/>
<polygon fill="#63b8ff" stroke="#63b8ff" points="105.88,-31 115.88,-27.5 105.88,-24 105.88,-31"/>
</a>
</g>
</g>
<!-- Node6&#45;&gt;Node3 -->
<g id="edge6_Node000006_Node000003" class="edge">
<title>Node6&#45;&gt;Node3</title>
<g id="a_edge6_Node000006_Node000003"><a xlink:title=" ">
<path fill="none" stroke="#63b8ff" d="M429.46,-17.31C421.02,-18.4 412.39,-19.51 404.09,-20.59"/>
<polygon fill="#63b8ff" stroke="#63b8ff" points="430.17,-20.75 439.64,-16 429.27,-13.81 430.17,-20.75"/>
</a>
</g>
</g>
</g>
</svg>
