<?xml version="1.0" encoding="UTF-8" standalone="no"?>
<!DOCTYPE svg PUBLIC "-//W3C//DTD SVG 1.1//EN"
 "http://www.w3.org/Graphics/SVG/1.1/DTD/svg11.dtd">
<!-- Generated by graphviz version 2.43.0 (0)
 -->
<!-- Title: __attribute__ Pages: 1 -->
<svg width="291pt" height="101pt"
 viewBox="0.00 0.00 291.00 101.00" xmlns="http://www.w3.org/2000/svg" xmlns:xlink="http://www.w3.org/1999/xlink">

<svg id="main" version="1.1" xmlns="http://www.w3.org/2000/svg" xmlns:xlink="http://www.w3.org/1999/xlink" xml:space="preserve" onload="init(evt)">
<style type="text/css"><![CDATA[
.node, .edge {opacity: 0.7;}
.node.selected, .edge.selected {opacity: 1;}
.edge:hover path { stroke: red; }
.edge:hover polygon { stroke: red; fill: red; }
]]></style>
<script type="application/ecmascript" xlink:href="svg.min.js"/>
<svg id="graph" class="graph">
<g id="graph0" class="graph" transform="scale(1 1) rotate(0) translate(4 97)">
<title>__attribute__</title>
<!-- Node1 -->
<g id="Node000001" class="node">
<title>Node1</title>
<g id="a_Node000001"><a xlink:title="A generic thread create api.">
<polygon fill="#999999" stroke="#666666" points="80,-56 0,-56 0,-37 80,-37 80,-56"/>
<text text-anchor="middle" x="40" y="-44" font-family="Helvetica,sans-Serif" font-size="10.00">__attribute__</text>
</a>
</g>
</g>
<!-- Node2 -->
<g id="Node000002" class="node">
<title>Node2</title>
<g id="a_Node000002"><a xlink:href="os_2kernel__mem_8h.html#ab750d6dec279a17969f64507edde0767" target="_top" xlink:title=" ">
<polygon fill="white" stroke="#666666" points="175,-93 133,-93 133,-74 175,-74 175,-93"/>
<text text-anchor="middle" x="154" y="-81" font-family="Helvetica,sans-Serif" font-size="10.00">kfree</text>
</a>
</g>
</g>
<!-- Node1&#45;&gt;Node2 -->
<g id="edge1_Node000001_Node000002" class="edge">
<title>Node1&#45;&gt;Node2</title>
<g id="a_edge1_Node000001_Node000002"><a xlink:title=" ">
<path fill="none" stroke="#63b8ff" d="M69.84,-56.03C86.16,-61.42 106.54,-68.15 123.03,-73.6"/>
<polygon fill="#63b8ff" stroke="#63b8ff" points="122.14,-76.99 132.73,-76.8 124.34,-70.34 122.14,-76.99"/>
</a>
</g>
</g>
<!-- Node3 -->
<g id="Node000003" class="node">
<title>Node3</title>
<g id="a_Node000003"><a xlink:href="os_2kernel__mem_8h.html#a2b55f9d76c0a87c16c336ec837a80101" target="_top" xlink:title=" ">
<polygon fill="white" stroke="#666666" points="180.5,-56 127.5,-56 127.5,-37 180.5,-37 180.5,-56"/>
<text text-anchor="middle" x="154" y="-44" font-family="Helvetica,sans-Serif" font-size="10.00">kmaloc</text>
</a>
</g>
</g>
<!-- Node1&#45;&gt;Node3 -->
<g id="edge2_Node000001_Node000003" class="edge">
<title>Node1&#45;&gt;Node3</title>
<g id="a_edge2_Node000001_Node000003"><a xlink:title=" ">
<path fill="none" stroke="#63b8ff" d="M80.17,-46.5C92.15,-46.5 105.26,-46.5 117.01,-46.5"/>
<polygon fill="#63b8ff" stroke="#63b8ff" points="117.36,-50 127.36,-46.5 117.36,-43 117.36,-50"/>
</a>
</g>
</g>
<!-- Node4 -->
<g id="Node000004" class="node">
<title>Node4</title>
<g id="a_Node000004"><a xlink:href="group__list__api.html#gafb58231c241f9acee99a56aaa1b98cec" target="_top" xlink:title="Add a new node at the tail of the list.">
<polygon fill="white" stroke="#666666" points="192,-19 116,-19 116,0 192,0 192,-19"/>
<text text-anchor="middle" x="154" y="-7" font-family="Helvetica,sans-Serif" font-size="10.00">list_add_tail</text>
</a>
</g>
</g>
<!-- Node1&#45;&gt;Node4 -->
<g id="edge3_Node000001_Node000004" class="edge">
<title>Node1&#45;&gt;Node4</title>
<g id="a_edge3_Node000001_Node000004"><a xlink:title=" ">
<path fill="none" stroke="#63b8ff" d="M69.84,-36.97C83.32,-32.52 99.58,-27.15 114.12,-22.34"/>
<polygon fill="#63b8ff" stroke="#63b8ff" points="115.47,-25.58 123.87,-19.12 113.27,-18.94 115.47,-25.58"/>
</a>
</g>
</g>
<!-- Node5 -->
<g id="Node000005" class="node">
<title>Node5</title>
<g id="a_Node000005"><a xlink:href="group__list__api.html#gab1766e25461b90b75aa3360245547452" target="_top" xlink:title="add a node in between two nodes.">
<polygon fill="white" stroke="#666666" points="283,-19 228,-19 228,0 283,0 283,-19"/>
<text text-anchor="middle" x="255.5" y="-7" font-family="Helvetica,sans-Serif" font-size="10.00">list_add</text>
</a>
</g>
</g>
<!-- Node4&#45;&gt;Node5 -->
<g id="edge4_Node000004_Node000005" class="edge">
<title>Node4&#45;&gt;Node5</title>
<g id="a_edge4_Node000004_Node000005"><a xlink:title=" ">
<path fill="none" stroke="#63b8ff" d="M192.05,-9.5C200.44,-9.5 209.35,-9.5 217.73,-9.5"/>
<polygon fill="#63b8ff" stroke="#63b8ff" points="217.98,-13 227.98,-9.5 217.98,-6 217.98,-13"/>
</a>
</g>
</g>
</g>
</svg>
</svg>

<style type='text/css'>
<![CDATA[
[data-mouse-over-selected='false'] { opacity: 0.7; }
[data-mouse-over-selected='true']  { opacity: 1.0; }
]]>
</style>
<script type="application/ecmascript"><![CDATA[
document.addEventListener('DOMContentLoaded', (event) => {
  highlightEdges();
  highlightAdjacentNodes();
});
]]></script>
</svg>
