<?xml version="1.0" encoding="UTF-8" standalone="no"?>
<!DOCTYPE svg PUBLIC "-//W3C//DTD SVG 1.1//EN"
 "http://www.w3.org/Graphics/SVG/1.1/DTD/svg11.dtd">
<!-- Generated by graphviz version 2.43.0 (0)
 -->
<!-- Title: kernel_services.h Pages: 1 -->
<svg width="390pt" height="93pt"
 viewBox="0.00 0.00 389.50 93.00" xmlns="http://www.w3.org/2000/svg" xmlns:xlink="http://www.w3.org/1999/xlink">
<g id="graph0" class="graph" transform="scale(1 1) rotate(0) translate(4 89)">
<title>kernel_services.h</title>
<!-- Node1 -->
<g id="Node000001" class="node">
<title>Node1</title>
<g id="a_Node000001"><a xlink:title=" ">
<polygon fill="#999999" stroke="#666666" points="239,-85 138,-85 138,-66 239,-66 239,-85"/>
<text text-anchor="middle" x="188.5" y="-73" font-family="Helvetica,sans-Serif" font-size="10.00">kernel_services.h</text>
</a>
</g>
</g>
<!-- Node2 -->
<g id="Node000002" class="node">
<title>Node2</title>
<g id="a_Node000002"><a xlink:href="init_8h.html" target="_top" xlink:title=" ">
<polygon fill="white" stroke="#666666" points="41,-24.5 0,-24.5 0,-5.5 41,-5.5 41,-24.5"/>
<text text-anchor="middle" x="20.5" y="-12.5" font-family="Helvetica,sans-Serif" font-size="10.00">init.h</text>
</a>
</g>
</g>
<!-- Node1&#45;&gt;Node2 -->
<g id="edge1_Node000001_Node000002" class="edge">
<title>Node1&#45;&gt;Node2</title>
<g id="a_edge1_Node000001_Node000002"><a xlink:title=" ">
<path fill="none" stroke="#63b8ff" d="M148.48,-63.04C120.68,-54.72 82.95,-42.75 50.5,-30 46.33,-28.36 41.91,-26.42 37.79,-24.52"/>
<polygon fill="#63b8ff" stroke="#63b8ff" points="147.66,-66.44 158.24,-65.93 149.64,-59.73 147.66,-66.44"/>
</a>
</g>
</g>
<!-- Node3 -->
<g id="Node000003" class="node">
<title>Node3</title>
<g id="a_Node000003"><a xlink:href="kernel__service__core_8c.html" target="_top" xlink:title=" ">
<polygon fill="white" stroke="#666666" points="181.5,-24.5 59.5,-24.5 59.5,-5.5 181.5,-5.5 181.5,-24.5"/>
<text text-anchor="middle" x="120.5" y="-12.5" font-family="Helvetica,sans-Serif" font-size="10.00">kernel_service_core.c</text>
</a>
</g>
</g>
<!-- Node1&#45;&gt;Node3 -->
<g id="edge2_Node000001_Node000003" class="edge">
<title>Node1&#45;&gt;Node3</title>
<g id="a_edge2_Node000001_Node000003"><a xlink:title=" ">
<path fill="none" stroke="#63b8ff" d="M170.74,-59.22C157.95,-48.21 141.14,-33.75 130.57,-24.67"/>
<polygon fill="#63b8ff" stroke="#63b8ff" points="168.6,-62 178.47,-65.87 173.17,-56.69 168.6,-62"/>
</a>
</g>
</g>
<!-- Node4 -->
<g id="Node000004" class="node">
<title>Node4</title>
<g id="a_Node000004"><a xlink:href="kernel__service__task__manager_8c.html" target="_top" xlink:title=" ">
<polygon fill="white" stroke="#666666" points="313,-30 200,-30 200,0 313,0 313,-30"/>
<text text-anchor="start" x="208" y="-18" font-family="Helvetica,sans-Serif" font-size="10.00">kernel_service_task</text>
<text text-anchor="middle" x="256.5" y="-7" font-family="Helvetica,sans-Serif" font-size="10.00">_manager.c</text>
</a>
</g>
</g>
<!-- Node1&#45;&gt;Node4 -->
<g id="edge3_Node000001_Node000004" class="edge">
<title>Node1&#45;&gt;Node4</title>
<g id="a_edge3_Node000001_Node000004"><a xlink:title=" ">
<path fill="none" stroke="#63b8ff" d="M206.24,-59.23C216.71,-50.23 229.87,-38.91 240.09,-30.11"/>
<polygon fill="#63b8ff" stroke="#63b8ff" points="203.83,-56.69 198.53,-65.87 208.4,-62 203.83,-56.69"/>
</a>
</g>
</g>
<!-- Node5 -->
<g id="Node000005" class="node">
<title>Node5</title>
<g id="a_Node000005"><a xlink:href="main_8c.html" target="_top" xlink:title=" ">
<polygon fill="white" stroke="#666666" points="381.5,-24.5 331.5,-24.5 331.5,-5.5 381.5,-5.5 381.5,-24.5"/>
<text text-anchor="middle" x="356.5" y="-12.5" font-family="Helvetica,sans-Serif" font-size="10.00">main.c</text>
</a>
</g>
</g>
<!-- Node1&#45;&gt;Node5 -->
<g id="edge4_Node000001_Node000005" class="edge">
<title>Node1&#45;&gt;Node5</title>
<g id="a_edge4_Node000001_Node000005"><a xlink:title=" ">
<path fill="none" stroke="#63b8ff" d="M225.97,-62.83C252.98,-54.23 290.2,-42 322.5,-30 327.05,-28.31 331.89,-26.39 336.46,-24.53"/>
<polygon fill="#63b8ff" stroke="#63b8ff" points="224.63,-59.58 216.16,-65.94 226.75,-66.26 224.63,-59.58"/>
</a>
</g>
</g>
</g>
</svg>
