<?xml version="1.0" encoding="UTF-8" standalone="no"?>
<!DOCTYPE svg PUBLIC "-//W3C//DTD SVG 1.1//EN"
 "http://www.w3.org/Graphics/SVG/1.1/DTD/svg11.dtd">
<!-- Generated by graphviz version 2.43.0 (0)
 -->
<!-- Title: task_mgr_get_health Pages: 1 -->
<svg width="252pt" height="64pt"
 viewBox="0.00 0.00 252.00 64.00" xmlns="http://www.w3.org/2000/svg" xmlns:xlink="http://www.w3.org/1999/xlink">
<g id="graph0" class="graph" transform="scale(1 1) rotate(0) translate(4 60)">
<title>task_mgr_get_health</title>
<!-- Node1 -->
<g id="Node000001" class="node">
<title>Node1</title>
<g id="a_Node000001"><a xlink:title=" ">
<polygon fill="#999999" stroke="#666666" points="244,-37 125,-37 125,-18 244,-18 244,-37"/>
<text text-anchor="middle" x="184.5" y="-25" font-family="Helvetica,sans-Serif" font-size="10.00">task_mgr_get_health</text>
</a>
</g>
</g>
<!-- Node2 -->
<g id="Node000002" class="node">
<title>Node2</title>
<g id="a_Node000002"><a xlink:href="shell__task__mgmt_8c.html#a0fa49da0576233ed988e8f375f118577" target="_top" xlink:title=" ">
<polygon fill="white" stroke="#666666" points="88,-56 1,-56 1,-37 88,-37 88,-56"/>
<text text-anchor="middle" x="44.5" y="-44" font-family="Helvetica,sans-Serif" font-size="10.00">_cmd_heap_fn</text>
</a>
</g>
</g>
<!-- Node1&#45;&gt;Node2 -->
<g id="edge1_Node000001_Node000002" class="edge">
<title>Node1&#45;&gt;Node2</title>
<g id="a_edge1_Node000001_Node000002"><a xlink:title=" ">
<path fill="none" stroke="#63b8ff" d="M114.78,-36.96C105.72,-38.21 96.66,-39.46 88.21,-40.62"/>
<polygon fill="#63b8ff" stroke="#63b8ff" points="115.55,-40.39 124.98,-35.56 114.59,-33.45 115.55,-40.39"/>
</a>
</g>
</g>
<!-- Node3 -->
<g id="Node000003" class="node">
<title>Node3</title>
<g id="a_Node000003"><a xlink:href="shell__task__mgmt_8c.html#adc996bc16a4ef0e80455df71d5051ef8" target="_top" xlink:title=" ">
<polygon fill="white" stroke="#666666" points="89,-19 0,-19 0,0 89,0 89,-19"/>
<text text-anchor="middle" x="44.5" y="-7" font-family="Helvetica,sans-Serif" font-size="10.00">_cmd_tasks_fn</text>
</a>
</g>
</g>
<!-- Node1&#45;&gt;Node3 -->
<g id="edge2_Node000001_Node000003" class="edge">
<title>Node1&#45;&gt;Node3</title>
<g id="a_edge2_Node000001_Node000003"><a xlink:title=" ">
<path fill="none" stroke="#63b8ff" d="M115.03,-18.57C106.18,-17.41 97.33,-16.26 89.04,-15.18"/>
<polygon fill="#63b8ff" stroke="#63b8ff" points="114.61,-22.04 124.98,-19.87 115.51,-15.1 114.61,-22.04"/>
</a>
</g>
</g>
</g>
</svg>
