<?xml version="1.0" encoding="UTF-8" standalone="no"?>
<!DOCTYPE svg PUBLIC "-//W3C//DTD SVG 1.1//EN"
 "http://www.w3.org/Graphics/SVG/1.1/DTD/svg11.dtd">
<!-- Generated by graphviz version 2.43.0 (0)
 -->
<!-- Title: kernel_service_core.c Pages: 1 -->
<svg width="1890pt" height="302pt"
 viewBox="0.00 0.00 1890.00 302.00" xmlns="http://www.w3.org/2000/svg" xmlns:xlink="http://www.w3.org/1999/xlink">
<g id="graph0" class="graph" transform="scale(1 1) rotate(0) translate(4 298)">
<title>kernel_service_core.c</title>
<!-- Node1 -->
<g id="Node000001" class="node">
<title>Node1</title>
<g id="a_Node000001"><a xlink:title=" ">
<polygon fill="#999999" stroke="#666666" points="1383,-294 1261,-294 1261,-275 1383,-275 1383,-294"/>
<text text-anchor="middle" x="1322" y="-282" font-family="Helvetica,sans-Serif" font-size="10.00">kernel_service_core.c</text>
</a>
</g>
</g>
<!-- Node2 -->
<g id="Node000002" class="node">
<title>Node2</title>
<g id="a_Node000002"><a xlink:href="kernel__services_8h.html" target="_top" xlink:title=" ">
<polygon fill="white" stroke="#666666" points="1337,-239 1221,-239 1221,-220 1337,-220 1337,-239"/>
<text text-anchor="middle" x="1279" y="-227" font-family="Helvetica,sans-Serif" font-size="10.00">os/kernel_services.h</text>
</a>
</g>
</g>
<!-- Node1&#45;&gt;Node2 -->
<g id="edge1_Node000001_Node000002" class="edge">
<title>Node1&#45;&gt;Node2</title>
<g id="a_edge1_Node000001_Node000002"><a xlink:title=" ">
<path fill="none" stroke="#63b8ff" d="M1314.9,-274.75C1308.83,-267.26 1299.91,-256.28 1292.49,-247.13"/>
<polygon fill="#63b8ff" stroke="#63b8ff" points="1294.99,-244.65 1285.97,-239.09 1289.55,-249.06 1294.99,-244.65"/>
</a>
</g>
</g>
<!-- Node31 -->
<g id="Node000031" class="node">
<title>Node31</title>
<g id="a_Node000031"><a xlink:href="kernel_8h.html" target="_top" xlink:title=" ">
<polygon fill="white" stroke="#666666" points="538,-184 468,-184 468,-165 538,-165 538,-184"/>
<text text-anchor="middle" x="503" y="-172" font-family="Helvetica,sans-Serif" font-size="10.00">os/kernel.h</text>
</a>
</g>
</g>
<!-- Node1&#45;&gt;Node31 -->
<g id="edge40_Node000001_Node000031" class="edge">
<title>Node1&#45;&gt;Node31</title>
<g id="a_edge40_Node000001_Node000031"><a xlink:title=" ">
<path fill="none" stroke="#63b8ff" d="M1260.99,-276.52C1130.59,-261.42 815.22,-223.82 552,-184 550.73,-183.81 549.44,-183.61 548.14,-183.4"/>
<polygon fill="#63b8ff" stroke="#63b8ff" points="548.47,-179.91 538.03,-181.77 547.34,-186.82 548.47,-179.91"/>
</a>
</g>
</g>
<!-- Node32 -->
<g id="Node000032" class="node">
<title>Node32</title>
<g id="a_Node000032"><a xlink:href="gpio__mgmt_8h.html" target="_top" xlink:title=" ">
<polygon fill="white" stroke="#666666" points="1432.5,-184 1307.5,-184 1307.5,-165 1432.5,-165 1432.5,-184"/>
<text text-anchor="middle" x="1370" y="-172" font-family="Helvetica,sans-Serif" font-size="10.00">services/gpio_mgmt.h</text>
</a>
</g>
</g>
<!-- Node1&#45;&gt;Node32 -->
<g id="edge47_Node000001_Node000032" class="edge">
<title>Node1&#45;&gt;Node32</title>
<g id="a_edge47_Node000001_Node000032"><a xlink:title=" ">
<path fill="none" stroke="#63b8ff" d="M1327.13,-274.81C1332.25,-265.97 1340.17,-251.78 1346,-239 1352.8,-224.09 1359.3,-206.64 1363.81,-193.81"/>
<polygon fill="#63b8ff" stroke="#63b8ff" points="1367.15,-194.87 1367.1,-184.28 1360.53,-192.59 1367.15,-194.87"/>
</a>
</g>
</g>
<!-- Node36 -->
<g id="Node000036" class="node">
<title>Node36</title>
<g id="a_Node000036"><a xlink:href="uart__mgmt_8h.html" target="_top" xlink:title=" ">
<polygon fill="white" stroke="#666666" points="1620.5,-184 1497.5,-184 1497.5,-165 1620.5,-165 1620.5,-184"/>
<text text-anchor="middle" x="1559" y="-172" font-family="Helvetica,sans-Serif" font-size="10.00">services/uart_mgmt.h</text>
</a>
</g>
</g>
<!-- Node1&#45;&gt;Node36 -->
<g id="edge61_Node000001_Node000036" class="edge">
<title>Node1&#45;&gt;Node36</title>
<g id="a_edge61_Node000001_Node000036"><a xlink:title=" ">
<path fill="none" stroke="#63b8ff" d="M1340.99,-274.84C1382.61,-255.88 1482.02,-210.58 1530.9,-188.31"/>
<polygon fill="#63b8ff" stroke="#63b8ff" points="1532.6,-191.38 1540.24,-184.05 1529.69,-185.01 1532.6,-191.38"/>
</a>
</g>
</g>
<!-- Node3 -->
<g id="Node000003" class="node">
<title>Node3</title>
<g id="a_Node000003"><a xlink:href="def__std_8h.html" target="_top" xlink:title=" ">
<polygon fill="white" stroke="#666666" points="817,-74 755,-74 755,-55 817,-55 817,-74"/>
<text text-anchor="middle" x="786" y="-62" font-family="Helvetica,sans-Serif" font-size="10.00">def_std.h</text>
</a>
</g>
</g>
<!-- Node2&#45;&gt;Node3 -->
<g id="edge2_Node000002_Node000003" class="edge">
<title>Node2&#45;&gt;Node3</title>
<g id="a_edge2_Node000002_Node000003"><a xlink:title=" ">
<path fill="none" stroke="#63b8ff" d="M1220.78,-224.69C1059.12,-213.51 613.86,-178.47 572,-129 566.54,-122.55 566.67,-116.55 572,-110 593.32,-83.8 688.48,-72.52 744.47,-68.08"/>
<polygon fill="#63b8ff" stroke="#63b8ff" points="745.07,-71.54 754.77,-67.3 744.54,-64.56 745.07,-71.54"/>
</a>
</g>
</g>
<!-- Node11 -->
<g id="Node000011" class="node">
<title>Node11</title>
<g id="a_Node000011"><a xlink:href="def__err_8h.html" target="_top" xlink:title=" ">
<polygon fill="white" stroke="#666666" points="1368.5,-74 1309.5,-74 1309.5,-55 1368.5,-55 1368.5,-74"/>
<text text-anchor="middle" x="1339" y="-62" font-family="Helvetica,sans-Serif" font-size="10.00">def_err.h</text>
</a>
</g>
</g>
<!-- Node2&#45;&gt;Node11 -->
<g id="edge10_Node000002_Node000011" class="edge">
<title>Node2&#45;&gt;Node11</title>
<g id="a_edge10_Node000002_Node000011"><a xlink:title=" ">
<path fill="none" stroke="#63b8ff" d="M1281.51,-219.8C1285.11,-207.5 1292.07,-184.37 1299,-165 1309.32,-136.17 1322.88,-103.32 1331.27,-83.52"/>
<polygon fill="#63b8ff" stroke="#63b8ff" points="1334.54,-84.77 1335.24,-74.2 1328.1,-82.03 1334.54,-84.77"/>
</a>
</g>
</g>
<!-- Node12 -->
<g id="Node000012" class="node">
<title>Node12</title>
<g id="a_Node000012"><a xlink:href="conf__os_8h.html" target="_top" xlink:title=" ">
<polygon fill="white" stroke="#666666" points="1454.5,-129 1391.5,-129 1391.5,-110 1454.5,-110 1454.5,-129"/>
<text text-anchor="middle" x="1423" y="-117" font-family="Helvetica,sans-Serif" font-size="10.00">conf_os.h</text>
</a>
</g>
</g>
<!-- Node2&#45;&gt;Node12 -->
<g id="edge11_Node000002_Node000012" class="edge">
<title>Node2&#45;&gt;Node12</title>
<g id="a_edge11_Node000002_Node000012"><a xlink:title=" ">
<path fill="none" stroke="#63b8ff" d="M1337.08,-220.19C1378.51,-212.93 1429.09,-200.9 1442,-184 1452.33,-170.48 1444.38,-151.39 1435.83,-137.68"/>
<polygon fill="#63b8ff" stroke="#63b8ff" points="1438.56,-135.46 1430.03,-129.18 1432.78,-139.41 1438.56,-135.46"/>
</a>
</g>
</g>
<!-- Node14 -->
<g id="Node000014" class="node">
<title>Node14</title>
<g id="a_Node000014"><a xlink:href="mqueue_8h.html" target="_top" xlink:title=" ">
<polygon fill="white" stroke="#666666" points="992.5,-184 909.5,-184 909.5,-165 992.5,-165 992.5,-184"/>
<text text-anchor="middle" x="951" y="-172" font-family="Helvetica,sans-Serif" font-size="10.00">ipc/mqueue.h</text>
</a>
</g>
</g>
<!-- Node2&#45;&gt;Node14 -->
<g id="edge13_Node000002_Node000014" class="edge">
<title>Node2&#45;&gt;Node14</title>
<g id="a_edge13_Node000002_Node000014"><a xlink:title=" ">
<path fill="none" stroke="#63b8ff" d="M1226.3,-219.98C1164.85,-210.05 1063.91,-193.74 1002.83,-183.87"/>
<polygon fill="#63b8ff" stroke="#63b8ff" points="1003.07,-180.37 992.64,-182.23 1001.96,-187.28 1003.07,-180.37"/>
</a>
</g>
</g>
<!-- Node23 -->
<g id="Node000023" class="node">
<title>Node23</title>
<g id="a_Node000023"><a xlink:title=" ">
<polygon fill="#e0e0e0" stroke="#999999" points="1209,-74 1137,-74 1137,-55 1209,-55 1209,-74"/>
<text text-anchor="middle" x="1173" y="-62" font-family="Helvetica,sans-Serif" font-size="10.00">FreeRTOS.h</text>
</a>
</g>
</g>
<!-- Node2&#45;&gt;Node23 -->
<g id="edge38_Node000002_Node000023" class="edge">
<title>Node2&#45;&gt;Node23</title>
<g id="a_edge38_Node000002_Node000023"><a xlink:title=" ">
<path fill="none" stroke="#63b8ff" d="M1273.3,-219.74C1256.48,-193.87 1206.8,-117.48 1184.3,-82.88"/>
<polygon fill="#63b8ff" stroke="#63b8ff" points="1187.11,-80.78 1178.73,-74.31 1181.24,-84.6 1187.11,-80.78"/>
</a>
</g>
</g>
<!-- Node26 -->
<g id="Node000026" class="node">
<title>Node26</title>
<g id="a_Node000026"><a xlink:title=" ">
<polygon fill="#e0e0e0" stroke="#999999" points="1751.5,-74 1704.5,-74 1704.5,-55 1751.5,-55 1751.5,-74"/>
<text text-anchor="middle" x="1728" y="-62" font-family="Helvetica,sans-Serif" font-size="10.00">task.h</text>
</a>
</g>
</g>
<!-- Node2&#45;&gt;Node26 -->
<g id="edge39_Node000002_Node000026" class="edge">
<title>Node2&#45;&gt;Node26</title>
<g id="a_edge39_Node000002_Node000026"><a xlink:title=" ">
<path fill="none" stroke="#63b8ff" d="M1337.01,-225.73C1407.33,-221.33 1528.96,-210.36 1630,-184 1693.09,-167.54 1729.55,-183.06 1766,-129 1776.85,-112.91 1761.67,-93.7 1747.4,-80.66"/>
<polygon fill="#63b8ff" stroke="#63b8ff" points="1749.61,-77.94 1739.73,-74.1 1745.06,-83.26 1749.61,-77.94"/>
</a>
</g>
</g>
<!-- Node4 -->
<g id="Node000004" class="node">
<title>Node4</title>
<g id="a_Node000004"><a xlink:title=" ">
<polygon fill="#e0e0e0" stroke="#999999" points="1034.5,-19 981.5,-19 981.5,0 1034.5,0 1034.5,-19"/>
<text text-anchor="middle" x="1008" y="-7" font-family="Helvetica,sans-Serif" font-size="10.00">stdlib.h</text>
</a>
</g>
</g>
<!-- Node3&#45;&gt;Node4 -->
<g id="edge3_Node000003_Node000004" class="edge">
<title>Node3&#45;&gt;Node4</title>
<g id="a_edge3_Node000003_Node000004"><a xlink:title=" ">
<path fill="none" stroke="#63b8ff" d="M817.34,-56.02C857.94,-46.32 928.62,-29.45 971.57,-19.2"/>
<polygon fill="#63b8ff" stroke="#63b8ff" points="972.43,-22.59 981.34,-16.86 970.8,-15.78 972.43,-22.59"/>
</a>
</g>
</g>
<!-- Node5 -->
<g id="Node000005" class="node">
<title>Node5</title>
<g id="a_Node000005"><a xlink:title=" ">
<polygon fill="#e0e0e0" stroke="#999999" points="671.5,-19 620.5,-19 620.5,0 671.5,0 671.5,-19"/>
<text text-anchor="middle" x="646" y="-7" font-family="Helvetica,sans-Serif" font-size="10.00">errno.h</text>
</a>
</g>
</g>
<!-- Node3&#45;&gt;Node5 -->
<g id="edge4_Node000003_Node000005" class="edge">
<title>Node3&#45;&gt;Node5</title>
<g id="a_edge4_Node000003_Node000005"><a xlink:title=" ">
<path fill="none" stroke="#63b8ff" d="M763.51,-54.98C740.48,-46.27 704.46,-32.63 678.37,-22.75"/>
<polygon fill="#63b8ff" stroke="#63b8ff" points="679.49,-19.44 668.9,-19.17 677.02,-25.98 679.49,-19.44"/>
</a>
</g>
</g>
<!-- Node6 -->
<g id="Node000006" class="node">
<title>Node6</title>
<g id="a_Node000006"><a xlink:title=" ">
<polygon fill="#e0e0e0" stroke="#999999" points="740,-19 690,-19 690,0 740,0 740,-19"/>
<text text-anchor="middle" x="715" y="-7" font-family="Helvetica,sans-Serif" font-size="10.00">stdio.h</text>
</a>
</g>
</g>
<!-- Node3&#45;&gt;Node6 -->
<g id="edge5_Node000003_Node000006" class="edge">
<title>Node3&#45;&gt;Node6</title>
<g id="a_edge5_Node000003_Node000006"><a xlink:title=" ">
<path fill="none" stroke="#63b8ff" d="M774.59,-54.98C763.89,-47 747.66,-34.88 734.84,-25.31"/>
<polygon fill="#63b8ff" stroke="#63b8ff" points="736.72,-22.35 726.61,-19.17 732.53,-27.96 736.72,-22.35"/>
</a>
</g>
</g>
<!-- Node7 -->
<g id="Node000007" class="node">
<title>Node7</title>
<g id="a_Node000007"><a xlink:title=" ">
<polygon fill="#e0e0e0" stroke="#999999" points="813.5,-19 758.5,-19 758.5,0 813.5,0 813.5,-19"/>
<text text-anchor="middle" x="786" y="-7" font-family="Helvetica,sans-Serif" font-size="10.00">signal.h</text>
</a>
</g>
</g>
<!-- Node3&#45;&gt;Node7 -->
<g id="edge6_Node000003_Node000007" class="edge">
<title>Node3&#45;&gt;Node7</title>
<g id="a_edge6_Node000003_Node000007"><a xlink:title=" ">
<path fill="none" stroke="#63b8ff" d="M786,-54.75C786,-47.8 786,-37.85 786,-29.13"/>
<polygon fill="#63b8ff" stroke="#63b8ff" points="789.5,-29.09 786,-19.09 782.5,-29.09 789.5,-29.09"/>
</a>
</g>
</g>
<!-- Node8 -->
<g id="Node000008" class="node">
<title>Node8</title>
<g id="a_Node000008"><a xlink:title=" ">
<polygon fill="#e0e0e0" stroke="#999999" points="880,-19 832,-19 832,0 880,0 880,-19"/>
<text text-anchor="middle" x="856" y="-7" font-family="Helvetica,sans-Serif" font-size="10.00">time.h</text>
</a>
</g>
</g>
<!-- Node3&#45;&gt;Node8 -->
<g id="edge7_Node000003_Node000008" class="edge">
<title>Node3&#45;&gt;Node8</title>
<g id="a_edge7_Node000003_Node000008"><a xlink:title=" ">
<path fill="none" stroke="#63b8ff" d="M797.25,-54.98C807.8,-47 823.8,-34.88 836.44,-25.31"/>
<polygon fill="#63b8ff" stroke="#63b8ff" points="838.69,-28 844.55,-19.17 834.46,-22.42 838.69,-28"/>
</a>
</g>
</g>
<!-- Node9 -->
<g id="Node000009" class="node">
<title>Node9</title>
<g id="a_Node000009"><a xlink:title=" ">
<polygon fill="#e0e0e0" stroke="#999999" points="602.5,-19 549.5,-19 549.5,0 602.5,0 602.5,-19"/>
<text text-anchor="middle" x="576" y="-7" font-family="Helvetica,sans-Serif" font-size="10.00">stdint.h</text>
</a>
</g>
</g>
<!-- Node3&#45;&gt;Node9 -->
<g id="edge8_Node000003_Node000009" class="edge">
<title>Node3&#45;&gt;Node9</title>
<g id="a_edge8_Node000003_Node000009"><a xlink:title=" ">
<path fill="none" stroke="#63b8ff" d="M754.56,-55.57C716.56,-45.98 652.74,-29.87 612.57,-19.73"/>
<polygon fill="#63b8ff" stroke="#63b8ff" points="613.21,-16.28 602.65,-17.23 611.49,-23.07 613.21,-16.28"/>
</a>
</g>
</g>
<!-- Node10 -->
<g id="Node000010" class="node">
<title>Node10</title>
<g id="a_Node000010"><a xlink:title=" ">
<polygon fill="#e0e0e0" stroke="#999999" points="963.5,-19 898.5,-19 898.5,0 963.5,0 963.5,-19"/>
<text text-anchor="middle" x="931" y="-7" font-family="Helvetica,sans-Serif" font-size="10.00">inttypes.h</text>
</a>
</g>
</g>
<!-- Node3&#45;&gt;Node10 -->
<g id="edge9_Node000003_Node000010" class="edge">
<title>Node3&#45;&gt;Node10</title>
<g id="a_edge9_Node000003_Node000010"><a xlink:title=" ">
<path fill="none" stroke="#63b8ff" d="M809.3,-54.98C833.25,-46.23 870.78,-32.51 897.83,-22.62"/>
<polygon fill="#63b8ff" stroke="#63b8ff" points="899.09,-25.89 907.28,-19.17 896.69,-19.32 899.09,-25.89"/>
</a>
</g>
</g>
<!-- Node13 -->
<g id="Node000013" class="node">
<title>Node13</title>
<g id="a_Node000013"><a xlink:href="autoconf_8h.html" target="_top" xlink:title=" ">
<polygon fill="white" stroke="#666666" points="1457,-74 1389,-74 1389,-55 1457,-55 1457,-74"/>
<text text-anchor="middle" x="1423" y="-62" font-family="Helvetica,sans-Serif" font-size="10.00">autoconf.h</text>
</a>
</g>
</g>
<!-- Node12&#45;&gt;Node13 -->
<g id="edge12_Node000012_Node000013" class="edge">
<title>Node12&#45;&gt;Node13</title>
<g id="a_edge12_Node000012_Node000013"><a xlink:title=" ">
<path fill="none" stroke="#63b8ff" d="M1423,-109.75C1423,-102.8 1423,-92.85 1423,-84.13"/>
<polygon fill="#63b8ff" stroke="#63b8ff" points="1426.5,-84.09 1423,-74.09 1419.5,-84.09 1426.5,-84.09"/>
</a>
</g>
</g>
<!-- Node14&#45;&gt;Node3 -->
<g id="edge14_Node000014_Node000003" class="edge">
<title>Node14&#45;&gt;Node3</title>
<g id="a_edge14_Node000014_Node000003"><a xlink:title=" ">
<path fill="none" stroke="#63b8ff" d="M950.88,-164.82C950.22,-151.25 946.93,-125.01 932,-110 904.34,-82.2 859.87,-71.67 827.27,-67.73"/>
<polygon fill="#63b8ff" stroke="#63b8ff" points="827.45,-64.23 817.14,-66.67 826.72,-71.2 827.45,-64.23"/>
</a>
</g>
</g>
<!-- Node14&#45;&gt;Node12 -->
<g id="edge20_Node000014_Node000012" class="edge">
<title>Node14&#45;&gt;Node12</title>
<g id="a_edge20_Node000014_Node000012"><a xlink:title=" ">
<path fill="none" stroke="#63b8ff" d="M992.89,-168.8C1082.52,-158.73 1292.01,-135.21 1381.39,-125.17"/>
<polygon fill="#63b8ff" stroke="#63b8ff" points="1381.88,-128.64 1391.43,-124.05 1381.1,-121.68 1381.88,-128.64"/>
</a>
</g>
</g>
<!-- Node15 -->
<g id="Node000015" class="node">
<title>Node15</title>
<g id="a_Node000015"><a xlink:href="def__compiler_8h.html" target="_top" xlink:title=" ">
<polygon fill="white" stroke="#666666" points="1068.5,-129 979.5,-129 979.5,-110 1068.5,-110 1068.5,-129"/>
<text text-anchor="middle" x="1024" y="-117" font-family="Helvetica,sans-Serif" font-size="10.00">def_compiler.h</text>
</a>
</g>
</g>
<!-- Node14&#45;&gt;Node15 -->
<g id="edge15_Node000014_Node000015" class="edge">
<title>Node14&#45;&gt;Node15</title>
<g id="a_edge15_Node000014_Node000015"><a xlink:title=" ">
<path fill="none" stroke="#63b8ff" d="M962.73,-164.98C973.73,-157 990.42,-144.88 1003.6,-135.31"/>
<polygon fill="#63b8ff" stroke="#63b8ff" points="1006.02,-137.88 1012.06,-129.17 1001.91,-132.21 1006.02,-137.88"/>
</a>
</g>
</g>
<!-- Node16 -->
<g id="Node000016" class="node">
<title>Node16</title>
<g id="a_Node000016"><a xlink:href="list_8h.html" target="_top" xlink:title="All linked list operation functions definitions and macros.">
<polygon fill="white" stroke="#666666" points="644.5,-129 581.5,-129 581.5,-110 644.5,-110 644.5,-129"/>
<text text-anchor="middle" x="613" y="-117" font-family="Helvetica,sans-Serif" font-size="10.00">mm/list.h</text>
</a>
</g>
</g>
<!-- Node14&#45;&gt;Node16 -->
<g id="edge16_Node000014_Node000016" class="edge">
<title>Node14&#45;&gt;Node16</title>
<g id="a_edge16_Node000014_Node000016"><a xlink:title=" ">
<path fill="none" stroke="#63b8ff" d="M909.22,-166.95C844.17,-156.75 719.43,-137.19 654.53,-127.01"/>
<polygon fill="#63b8ff" stroke="#63b8ff" points="655.07,-123.55 644.65,-125.46 653.99,-130.47 655.07,-123.55"/>
</a>
</g>
</g>
<!-- Node17 -->
<g id="Node000017" class="node">
<title>Node17</title>
<g id="a_Node000017"><a xlink:href="def__env__macros_8h.html" target="_top" xlink:title=" ">
<polygon fill="white" stroke="#666666" points="845,-129 739,-129 739,-110 845,-110 845,-129"/>
<text text-anchor="middle" x="792" y="-117" font-family="Helvetica,sans-Serif" font-size="10.00">def_env_macros.h</text>
</a>
</g>
</g>
<!-- Node14&#45;&gt;Node17 -->
<g id="edge18_Node000014_Node000017" class="edge">
<title>Node14&#45;&gt;Node17</title>
<g id="a_edge18_Node000014_Node000017"><a xlink:title=" ">
<path fill="none" stroke="#63b8ff" d="M925.45,-164.98C898.88,-156.13 857.06,-142.19 827.33,-132.28"/>
<polygon fill="#63b8ff" stroke="#63b8ff" points="828.34,-128.92 817.75,-129.08 826.13,-135.56 828.34,-128.92"/>
</a>
</g>
</g>
<!-- Node18 -->
<g id="Node000018" class="node">
<title>Node18</title>
<g id="a_Node000018"><a xlink:href="def__hw_8h.html" target="_top" xlink:title=" ">
<polygon fill="white" stroke="#666666" points="923,-129 863,-129 863,-110 923,-110 923,-129"/>
<text text-anchor="middle" x="893" y="-117" font-family="Helvetica,sans-Serif" font-size="10.00">def_hw.h</text>
</a>
</g>
</g>
<!-- Node14&#45;&gt;Node18 -->
<g id="edge19_Node000014_Node000018" class="edge">
<title>Node14&#45;&gt;Node18</title>
<g id="a_edge19_Node000014_Node000018"><a xlink:title=" ">
<path fill="none" stroke="#63b8ff" d="M941.68,-164.98C933.19,-157.23 920.44,-145.58 910.12,-136.14"/>
<polygon fill="#63b8ff" stroke="#63b8ff" points="912.23,-133.33 902.49,-129.17 907.51,-138.5 912.23,-133.33"/>
</a>
</g>
</g>
<!-- Node19 -->
<g id="Node000019" class="node">
<title>Node19</title>
<g id="a_Node000019"><a xlink:href="ipc_2ringbuffer_8h.html" target="_top" xlink:title=" ">
<polygon fill="white" stroke="#666666" points="486.5,-129 397.5,-129 397.5,-110 486.5,-110 486.5,-129"/>
<text text-anchor="middle" x="442" y="-117" font-family="Helvetica,sans-Serif" font-size="10.00">ipc/ringbuffer.h</text>
</a>
</g>
</g>
<!-- Node14&#45;&gt;Node19 -->
<g id="edge21_Node000014_Node000019" class="edge">
<title>Node14&#45;&gt;Node19</title>
<g id="a_edge21_Node000014_Node000019"><a xlink:title=" ">
<path fill="none" stroke="#63b8ff" d="M909.35,-169.16C817.87,-159.64 599.44,-136.89 496.91,-126.22"/>
<polygon fill="#63b8ff" stroke="#63b8ff" points="497.08,-122.72 486.77,-125.16 496.35,-129.68 497.08,-122.72"/>
</a>
</g>
</g>
<!-- Node21 -->
<g id="Node000021" class="node">
<title>Node21</title>
<g id="a_Node000021"><a xlink:href="os_2kernel__mem_8h.html" target="_top" xlink:title=" ">
<polygon fill="white" stroke="#666666" points="379.5,-129 278.5,-129 278.5,-110 379.5,-110 379.5,-129"/>
<text text-anchor="middle" x="329" y="-117" font-family="Helvetica,sans-Serif" font-size="10.00">os/kernel_mem.h</text>
</a>
</g>
</g>
<!-- Node14&#45;&gt;Node21 -->
<g id="edge24_Node000014_Node000021" class="edge">
<title>Node14&#45;&gt;Node21</title>
<g id="a_edge24_Node000014_Node000021"><a xlink:title=" ">
<path fill="none" stroke="#63b8ff" d="M909.24,-171.12C817.27,-165.68 590.11,-151.16 389.63,-129.12"/>
<polygon fill="#63b8ff" stroke="#63b8ff" points="389.83,-125.62 379.5,-127.99 389.06,-132.57 389.83,-125.62"/>
</a>
</g>
</g>
<!-- Node14&#45;&gt;Node23 -->
<g id="edge36_Node000014_Node000023" class="edge">
<title>Node14&#45;&gt;Node23</title>
<g id="a_edge36_Node000014_Node000023"><a xlink:title=" ">
<path fill="none" stroke="#63b8ff" d="M981.64,-164.98C1007.69,-157.21 1045.74,-144.56 1077,-129 1105.26,-114.93 1135.2,-94.04 1153.98,-80.11"/>
<polygon fill="#63b8ff" stroke="#63b8ff" points="1156.13,-82.88 1162.02,-74.07 1151.92,-77.28 1156.13,-82.88"/>
</a>
</g>
</g>
<!-- Node25 -->
<g id="Node000025" class="node">
<title>Node25</title>
<g id="a_Node000025"><a xlink:title=" ">
<polygon fill="#e0e0e0" stroke="#999999" points="1286,-74 1230,-74 1230,-55 1286,-55 1286,-74"/>
<text text-anchor="middle" x="1258" y="-62" font-family="Helvetica,sans-Serif" font-size="10.00">queue.h</text>
</a>
</g>
</g>
<!-- Node14&#45;&gt;Node25 -->
<g id="edge37_Node000014_Node000025" class="edge">
<title>Node14&#45;&gt;Node25</title>
<g id="a_edge37_Node000014_Node000025"><a xlink:title=" ">
<path fill="none" stroke="#63b8ff" d="M985.69,-164.99C1017.76,-156.81 1066.58,-143.57 1108,-129 1151.62,-113.65 1200.71,-92 1230.49,-78.37"/>
<polygon fill="#63b8ff" stroke="#63b8ff" points="1232.2,-81.43 1239.82,-74.07 1229.27,-75.08 1232.2,-81.43"/>
</a>
</g>
</g>
<!-- Node16&#45;&gt;Node3 -->
<g id="edge17_Node000016_Node000003" class="edge">
<title>Node16&#45;&gt;Node3</title>
<g id="a_edge17_Node000016_Node000003"><a xlink:title=" ">
<path fill="none" stroke="#63b8ff" d="M640.8,-109.98C669.97,-101.05 716,-86.94 748.4,-77.02"/>
<polygon fill="#63b8ff" stroke="#63b8ff" points="749.45,-80.36 757.99,-74.08 747.4,-73.66 749.45,-80.36"/>
</a>
</g>
</g>
<!-- Node19&#45;&gt;Node9 -->
<g id="edge22_Node000019_Node000009" class="edge">
<title>Node19&#45;&gt;Node9</title>
<g id="a_edge22_Node000019_Node000009"><a xlink:title=" ">
<path fill="none" stroke="#63b8ff" d="M486.68,-111.05C510.54,-104.9 538.69,-93.81 557,-74 568.23,-61.85 572.84,-43.33 574.72,-29.41"/>
<polygon fill="#63b8ff" stroke="#63b8ff" points="578.24,-29.35 575.75,-19.05 571.28,-28.66 578.24,-29.35"/>
</a>
</g>
</g>
<!-- Node20 -->
<g id="Node000020" class="node">
<title>Node20</title>
<g id="a_Node000020"><a xlink:title=" ">
<polygon fill="#e0e0e0" stroke="#999999" points="660,-74 604,-74 604,-55 660,-55 660,-74"/>
<text text-anchor="middle" x="632" y="-62" font-family="Helvetica,sans-Serif" font-size="10.00">stddef.h</text>
</a>
</g>
</g>
<!-- Node19&#45;&gt;Node20 -->
<g id="edge23_Node000019_Node000020" class="edge">
<title>Node19&#45;&gt;Node20</title>
<g id="a_edge23_Node000019_Node000020"><a xlink:title=" ">
<path fill="none" stroke="#63b8ff" d="M472.53,-109.98C505.47,-100.8 557.98,-86.15 593.68,-76.19"/>
<polygon fill="#63b8ff" stroke="#63b8ff" points="595.03,-79.45 603.72,-73.39 593.15,-72.7 595.03,-79.45"/>
</a>
</g>
</g>
<!-- Node21&#45;&gt;Node3 -->
<g id="edge25_Node000021_Node000003" class="edge">
<title>Node21&#45;&gt;Node3</title>
<g id="a_edge25_Node000021_Node000003"><a xlink:title=" ">
<path fill="none" stroke="#63b8ff" d="M379.52,-111.11C382.39,-110.73 385.23,-110.35 388,-110 518.15,-93.35 672.7,-77.07 744.95,-69.66"/>
<polygon fill="#63b8ff" stroke="#63b8ff" points="745.4,-73.13 755,-68.63 744.69,-66.16 745.4,-73.13"/>
</a>
</g>
</g>
<!-- Node21&#45;&gt;Node11 -->
<g id="edge26_Node000021_Node000011" class="edge">
<title>Node21&#45;&gt;Node11</title>
<g id="a_edge26_Node000021_Node000011"><a xlink:title=" ">
<path fill="none" stroke="#63b8ff" d="M379.81,-110.84C382.58,-110.53 385.32,-110.25 388,-110 789.75,-73.19 894.25,-120.39 1295,-74 1296.3,-73.85 1297.63,-73.68 1298.96,-73.5"/>
<polygon fill="#63b8ff" stroke="#63b8ff" points="1299.94,-76.89 1309.27,-71.87 1298.85,-69.97 1299.94,-76.89"/>
</a>
</g>
</g>
<!-- Node22 -->
<g id="Node000022" class="node">
<title>Node22</title>
<g id="a_Node000022"><a xlink:href="def__attributes_8h.html" target="_top" xlink:title=" ">
<polygon fill="white" stroke="#666666" points="94,-74 0,-74 0,-55 94,-55 94,-74"/>
<text text-anchor="middle" x="47" y="-62" font-family="Helvetica,sans-Serif" font-size="10.00">def_attributes.h</text>
</a>
</g>
</g>
<!-- Node21&#45;&gt;Node22 -->
<g id="edge27_Node000021_Node000022" class="edge">
<title>Node21&#45;&gt;Node22</title>
<g id="a_edge27_Node000021_Node000022"><a xlink:title=" ">
<path fill="none" stroke="#63b8ff" d="M283.69,-109.98C234.4,-100.72 155.57,-85.9 102.57,-75.94"/>
<polygon fill="#63b8ff" stroke="#63b8ff" points="103.14,-72.49 92.66,-74.08 101.84,-79.37 103.14,-72.49"/>
</a>
</g>
</g>
<!-- Node21&#45;&gt;Node23 -->
<g id="edge28_Node000021_Node000023" class="edge">
<title>Node21&#45;&gt;Node23</title>
<g id="a_edge28_Node000021_Node000023"><a xlink:title=" ">
<path fill="none" stroke="#63b8ff" d="M379.81,-110.89C382.58,-110.57 385.32,-110.27 388,-110 667.79,-81.97 1005.59,-70.24 1126.87,-66.72"/>
<polygon fill="#63b8ff" stroke="#63b8ff" points="1127.02,-70.22 1136.92,-66.44 1126.83,-63.22 1127.02,-70.22"/>
</a>
</g>
</g>
<!-- Node24 -->
<g id="Node000024" class="node">
<title>Node24</title>
<g id="a_Node000024"><a xlink:title=" ">
<polygon fill="#e0e0e0" stroke="#999999" points="282.5,-74 223.5,-74 223.5,-55 282.5,-55 282.5,-74"/>
<text text-anchor="middle" x="253" y="-62" font-family="Helvetica,sans-Serif" font-size="10.00">atomic.h</text>
</a>
</g>
</g>
<!-- Node21&#45;&gt;Node24 -->
<g id="edge29_Node000021_Node000024" class="edge">
<title>Node21&#45;&gt;Node24</title>
<g id="a_edge29_Node000021_Node000024"><a xlink:title=" ">
<path fill="none" stroke="#63b8ff" d="M316.79,-109.98C305.22,-101.92 287.62,-89.65 273.84,-80.03"/>
<polygon fill="#63b8ff" stroke="#63b8ff" points="275.64,-77.02 265.43,-74.17 271.63,-82.76 275.64,-77.02"/>
</a>
</g>
</g>
<!-- Node21&#45;&gt;Node25 -->
<g id="edge30_Node000021_Node000025" class="edge">
<title>Node21&#45;&gt;Node25</title>
<g id="a_edge30_Node000021_Node000025"><a xlink:title=" ">
<path fill="none" stroke="#63b8ff" d="M379.81,-110.85C382.58,-110.54 385.32,-110.25 388,-110 755.63,-75.63 851.71,-120.53 1218,-74 1218.59,-73.92 1219.19,-73.84 1219.79,-73.76"/>
<polygon fill="#63b8ff" stroke="#63b8ff" points="1220.4,-77.21 1229.69,-72.12 1219.25,-70.3 1220.4,-77.21"/>
</a>
</g>
</g>
<!-- Node21&#45;&gt;Node26 -->
<g id="edge31_Node000021_Node000026" class="edge">
<title>Node21&#45;&gt;Node26</title>
<g id="a_edge31_Node000021_Node000026"><a xlink:title=" ">
<path fill="none" stroke="#63b8ff" d="M379.81,-110.8C382.57,-110.5 385.32,-110.23 388,-110 963.6,-60.78 1117.76,-153.88 1694.1,-73.71"/>
<polygon fill="#63b8ff" stroke="#63b8ff" points="1694.92,-77.13 1704.34,-72.27 1693.95,-70.2 1694.92,-77.13"/>
</a>
</g>
</g>
<!-- Node27 -->
<g id="Node000027" class="node">
<title>Node27</title>
<g id="a_Node000027"><a xlink:title=" ">
<polygon fill="#e0e0e0" stroke="#999999" points="357.5,-74 300.5,-74 300.5,-55 357.5,-55 357.5,-74"/>
<text text-anchor="middle" x="329" y="-62" font-family="Helvetica,sans-Serif" font-size="10.00">timers.h</text>
</a>
</g>
</g>
<!-- Node21&#45;&gt;Node27 -->
<g id="edge32_Node000021_Node000027" class="edge">
<title>Node21&#45;&gt;Node27</title>
<g id="a_edge32_Node000021_Node000027"><a xlink:title=" ">
<path fill="none" stroke="#63b8ff" d="M329,-109.75C329,-102.8 329,-92.85 329,-84.13"/>
<polygon fill="#63b8ff" stroke="#63b8ff" points="332.5,-84.09 329,-74.09 325.5,-84.09 332.5,-84.09"/>
</a>
</g>
</g>
<!-- Node28 -->
<g id="Node000028" class="node">
<title>Node28</title>
<g id="a_Node000028"><a xlink:title=" ">
<polygon fill="#e0e0e0" stroke="#999999" points="438,-74 376,-74 376,-55 438,-55 438,-74"/>
<text text-anchor="middle" x="407" y="-62" font-family="Helvetica,sans-Serif" font-size="10.00">semphr.h</text>
</a>
</g>
</g>
<!-- Node21&#45;&gt;Node28 -->
<g id="edge33_Node000021_Node000028" class="edge">
<title>Node21&#45;&gt;Node28</title>
<g id="a_edge33_Node000021_Node000028"><a xlink:title=" ">
<path fill="none" stroke="#63b8ff" d="M341.53,-109.98C353.4,-101.92 371.46,-89.65 385.61,-80.03"/>
<polygon fill="#63b8ff" stroke="#63b8ff" points="387.94,-82.69 394.24,-74.17 384,-76.9 387.94,-82.69"/>
</a>
</g>
</g>
<!-- Node29 -->
<g id="Node000029" class="node">
<title>Node29</title>
<g id="a_Node000029"><a xlink:title=" ">
<polygon fill="#e0e0e0" stroke="#999999" points="548,-74 456,-74 456,-55 548,-55 548,-74"/>
<text text-anchor="middle" x="502" y="-62" font-family="Helvetica,sans-Serif" font-size="10.00">event_groups.h</text>
</a>
</g>
</g>
<!-- Node21&#45;&gt;Node29 -->
<g id="edge34_Node000021_Node000029" class="edge">
<title>Node21&#45;&gt;Node29</title>
<g id="a_edge34_Node000021_Node000029"><a xlink:title=" ">
<path fill="none" stroke="#63b8ff" d="M356.8,-109.98C385.97,-101.05 432,-86.94 464.4,-77.02"/>
<polygon fill="#63b8ff" stroke="#63b8ff" points="465.45,-80.36 473.99,-74.08 463.4,-73.66 465.45,-80.36"/>
</a>
</g>
</g>
<!-- Node30 -->
<g id="Node000030" class="node">
<title>Node30</title>
<g id="a_Node000030"><a xlink:title=" ">
<polygon fill="#e0e0e0" stroke="#999999" points="205.5,-74 112.5,-74 112.5,-55 205.5,-55 205.5,-74"/>
<text text-anchor="middle" x="159" y="-62" font-family="Helvetica,sans-Serif" font-size="10.00">stream_buffer.h</text>
</a>
</g>
</g>
<!-- Node21&#45;&gt;Node30 -->
<g id="edge35_Node000021_Node000030" class="edge">
<title>Node21&#45;&gt;Node30</title>
<g id="a_edge35_Node000021_Node000030"><a xlink:title=" ">
<path fill="none" stroke="#63b8ff" d="M301.69,-109.98C273.15,-101.09 228.17,-87.07 196.36,-77.15"/>
<polygon fill="#63b8ff" stroke="#63b8ff" points="197.12,-73.72 186.53,-74.08 195.03,-80.4 197.12,-73.72"/>
</a>
</g>
</g>
<!-- Node31&#45;&gt;Node3 -->
<g id="edge42_Node000031_Node000003" class="edge">
<title>Node31&#45;&gt;Node3</title>
<g id="a_edge42_Node000031_Node000003"><a xlink:title=" ">
<path fill="none" stroke="#63b8ff" d="M505.29,-164.91C509.48,-150.98 519.77,-123.63 539,-110 571.43,-87.01 683.09,-74.19 744.58,-68.72"/>
<polygon fill="#63b8ff" stroke="#63b8ff" points="745.06,-72.19 754.72,-67.84 744.45,-65.21 745.06,-72.19"/>
</a>
</g>
</g>
<!-- Node31&#45;&gt;Node11 -->
<g id="edge43_Node000031_Node000011" class="edge">
<title>Node31&#45;&gt;Node11</title>
<g id="a_edge43_Node000031_Node000011"><a xlink:title=" ">
<path fill="none" stroke="#63b8ff" d="M538.22,-167.25C576.07,-160.03 637.72,-146.82 689,-129 707.97,-122.41 710.53,-114.95 730,-110 973.87,-48.04 1045.41,-105.93 1295,-74 1296.3,-73.83 1297.62,-73.65 1298.96,-73.46"/>
<polygon fill="#63b8ff" stroke="#63b8ff" points="1299.96,-76.84 1309.26,-71.78 1298.83,-69.93 1299.96,-76.84"/>
</a>
</g>
</g>
<!-- Node31&#45;&gt;Node16 -->
<g id="edge45_Node000031_Node000016" class="edge">
<title>Node31&#45;&gt;Node16</title>
<g id="a_edge45_Node000031_Node000016"><a xlink:title=" ">
<path fill="none" stroke="#63b8ff" d="M520.67,-164.98C538.29,-156.5 565.58,-143.35 585.93,-133.54"/>
<polygon fill="#63b8ff" stroke="#63b8ff" points="587.52,-136.66 595.01,-129.17 584.48,-130.36 587.52,-136.66"/>
</a>
</g>
</g>
<!-- Node31&#45;&gt;Node21 -->
<g id="edge46_Node000031_Node000021" class="edge">
<title>Node31&#45;&gt;Node21</title>
<g id="a_edge46_Node000031_Node000021"><a xlink:title=" ">
<path fill="none" stroke="#63b8ff" d="M475.04,-164.98C445.7,-156.05 399.4,-141.94 366.81,-132.02"/>
<polygon fill="#63b8ff" stroke="#63b8ff" points="367.76,-128.65 357.18,-129.08 365.72,-135.34 367.76,-128.65"/>
</a>
</g>
</g>
<!-- Node31&#45;&gt;Node22 -->
<g id="edge41_Node000031_Node000022" class="edge">
<title>Node31&#45;&gt;Node22</title>
<g id="a_edge41_Node000031_Node000022"><a xlink:title=" ">
<path fill="none" stroke="#63b8ff" d="M467.9,-167.85C421.95,-160.21 339.01,-145.63 269,-129 202.97,-113.31 127.17,-90.6 83.41,-77.02"/>
<polygon fill="#63b8ff" stroke="#63b8ff" points="84.38,-73.65 73.79,-74.02 82.29,-80.33 84.38,-73.65"/>
</a>
</g>
</g>
<!-- Node31&#45;&gt;Node23 -->
<g id="edge44_Node000031_Node000023" class="edge">
<title>Node31&#45;&gt;Node23</title>
<g id="a_edge44_Node000031_Node000023"><a xlink:title=" ">
<path fill="none" stroke="#63b8ff" d="M535.84,-164.97C566.48,-156.73 613.29,-143.4 653,-129 673.02,-121.74 676.36,-115.28 697,-110 850.8,-70.66 1040.5,-65.26 1126.59,-65.05"/>
<polygon fill="#63b8ff" stroke="#63b8ff" points="1126.82,-68.55 1136.82,-65.05 1126.82,-61.55 1126.82,-68.55"/>
</a>
</g>
</g>
<!-- Node32&#45;&gt;Node3 -->
<g id="edge48_Node000032_Node000003" class="edge">
<title>Node32&#45;&gt;Node3</title>
<g id="a_edge48_Node000032_Node000003"><a xlink:title=" ">
<path fill="none" stroke="#63b8ff" d="M1334.06,-164.96C1278.95,-152.04 1170.15,-127.2 1077,-110 988.29,-93.62 883.56,-78.67 827.08,-70.97"/>
<polygon fill="#63b8ff" stroke="#63b8ff" points="827.49,-67.49 817.11,-69.62 826.55,-74.43 827.49,-67.49"/>
</a>
</g>
</g>
<!-- Node32&#45;&gt;Node11 -->
<g id="edge49_Node000032_Node000011" class="edge">
<title>Node32&#45;&gt;Node11</title>
<g id="a_edge49_Node000032_Node000011"><a xlink:title=" ">
<path fill="none" stroke="#63b8ff" d="M1367.46,-164.66C1362.42,-147.09 1351.04,-107.45 1344.3,-83.95"/>
<polygon fill="#63b8ff" stroke="#63b8ff" points="1347.61,-82.8 1341.49,-74.16 1340.88,-84.74 1347.61,-82.8"/>
</a>
</g>
</g>
<!-- Node32&#45;&gt;Node12 -->
<g id="edge51_Node000032_Node000012" class="edge">
<title>Node32&#45;&gt;Node12</title>
<g id="a_edge51_Node000032_Node000012"><a xlink:title=" ">
<path fill="none" stroke="#63b8ff" d="M1378.75,-164.75C1386.47,-157.03 1397.9,-145.6 1407.22,-136.28"/>
<polygon fill="#63b8ff" stroke="#63b8ff" points="1409.81,-138.64 1414.41,-129.09 1404.86,-133.69 1409.81,-138.64"/>
</a>
</g>
</g>
<!-- Node32&#45;&gt;Node23 -->
<g id="edge59_Node000032_Node000023" class="edge">
<title>Node32&#45;&gt;Node23</title>
<g id="a_edge59_Node000032_Node000023"><a xlink:title=" ">
<path fill="none" stroke="#63b8ff" d="M1354.21,-164.84C1319.91,-146.04 1238.36,-101.33 1197.39,-78.87"/>
<polygon fill="#63b8ff" stroke="#63b8ff" points="1199.04,-75.79 1188.59,-74.05 1195.68,-81.92 1199.04,-75.79"/>
</a>
</g>
</g>
<!-- Node32&#45;&gt;Node25 -->
<g id="edge60_Node000032_Node000025" class="edge">
<title>Node32&#45;&gt;Node25</title>
<g id="a_edge60_Node000032_Node000025"><a xlink:title=" ">
<path fill="none" stroke="#63b8ff" d="M1360.83,-164.66C1341.87,-146.38 1298.11,-104.18 1274.25,-81.17"/>
<polygon fill="#63b8ff" stroke="#63b8ff" points="1276.61,-78.58 1266.98,-74.16 1271.75,-83.62 1276.61,-78.58"/>
</a>
</g>
</g>
<!-- Node33 -->
<g id="Node000033" class="node">
<title>Node33</title>
<g id="a_Node000033"><a xlink:title=" ">
<polygon fill="#e0e0e0" stroke="#999999" points="1882,-74 1770,-74 1770,-55 1882,-55 1882,-74"/>
<text text-anchor="middle" x="1826" y="-62" font-family="Helvetica,sans-Serif" font-size="10.00">board/mcu_config.h</text>
</a>
</g>
</g>
<!-- Node32&#45;&gt;Node33 -->
<g id="edge50_Node000032_Node000033" class="edge">
<title>Node32&#45;&gt;Node33</title>
<g id="a_edge50_Node000032_Node000033"><a xlink:title=" ">
<path fill="none" stroke="#63b8ff" d="M1432.52,-168.15C1532.87,-159.26 1721.55,-141.24 1750,-129 1774.79,-118.34 1797.75,-96.88 1811.8,-81.88"/>
<polygon fill="#63b8ff" stroke="#63b8ff" points="1814.53,-84.07 1818.65,-74.31 1809.34,-79.38 1814.53,-84.07"/>
</a>
</g>
</g>
<!-- Node34 -->
<g id="Node000034" class="node">
<title>Node34</title>
<g id="a_Node000034"><a xlink:href="drv__handle_8h.html" target="_top" xlink:title=" ">
<polygon fill="white" stroke="#666666" points="1741,-129 1625,-129 1625,-110 1741,-110 1741,-129"/>
<text text-anchor="middle" x="1683" y="-117" font-family="Helvetica,sans-Serif" font-size="10.00">drivers/drv_handle.h</text>
</a>
</g>
</g>
<!-- Node32&#45;&gt;Node34 -->
<g id="edge52_Node000032_Node000034" class="edge">
<title>Node32&#45;&gt;Node34</title>
<g id="a_edge52_Node000032_Node000034"><a xlink:title=" ">
<path fill="none" stroke="#63b8ff" d="M1420.29,-164.98C1475.42,-155.65 1563.85,-140.67 1622.68,-130.71"/>
<polygon fill="#63b8ff" stroke="#63b8ff" points="1623.3,-134.16 1632.58,-129.04 1622.13,-127.26 1623.3,-134.16"/>
</a>
</g>
</g>
<!-- Node34&#45;&gt;Node3 -->
<g id="edge53_Node000034_Node000003" class="edge">
<title>Node34&#45;&gt;Node3</title>
<g id="a_edge53_Node000034_Node000003"><a xlink:title=" ">
<path fill="none" stroke="#63b8ff" d="M1624.84,-115.06C1456.67,-105.13 972.66,-76.53 827.58,-67.96"/>
<polygon fill="#63b8ff" stroke="#63b8ff" points="827.53,-64.45 817.34,-67.35 827.11,-71.44 827.53,-64.45"/>
</a>
</g>
</g>
<!-- Node34&#45;&gt;Node11 -->
<g id="edge54_Node000034_Node000011" class="edge">
<title>Node34&#45;&gt;Node11</title>
<g id="a_edge54_Node000034_Node000011"><a xlink:title=" ">
<path fill="none" stroke="#63b8ff" d="M1624.75,-110.98C1563.62,-102.84 1464.82,-89.01 1380,-74 1379.53,-73.92 1379.07,-73.83 1378.6,-73.75"/>
<polygon fill="#63b8ff" stroke="#63b8ff" points="1379,-70.26 1368.52,-71.84 1377.69,-77.14 1379,-70.26"/>
</a>
</g>
</g>
<!-- Node34&#45;&gt;Node23 -->
<g id="edge56_Node000034_Node000023" class="edge">
<title>Node34&#45;&gt;Node23</title>
<g id="a_edge56_Node000034_Node000023"><a xlink:title=" ">
<path fill="none" stroke="#63b8ff" d="M1624.85,-114.39C1537.1,-107.84 1365.71,-93.75 1221,-74 1220.4,-73.92 1219.79,-73.83 1219.18,-73.75"/>
<polygon fill="#63b8ff" stroke="#63b8ff" points="1219.53,-70.26 1209.12,-72.21 1218.48,-77.18 1219.53,-70.26"/>
</a>
</g>
</g>
<!-- Node34&#45;&gt;Node26 -->
<g id="edge57_Node000034_Node000026" class="edge">
<title>Node34&#45;&gt;Node26</title>
<g id="a_edge57_Node000034_Node000026"><a xlink:title=" ">
<path fill="none" stroke="#63b8ff" d="M1690.43,-109.75C1696.85,-102.18 1706.31,-91.05 1714.12,-81.84"/>
<polygon fill="#63b8ff" stroke="#63b8ff" points="1716.9,-83.98 1720.71,-74.09 1711.57,-79.45 1716.9,-83.98"/>
</a>
</g>
</g>
<!-- Node34&#45;&gt;Node33 -->
<g id="edge55_Node000034_Node000033" class="edge">
<title>Node34&#45;&gt;Node33</title>
<g id="a_edge55_Node000034_Node000033"><a xlink:title=" ">
<path fill="none" stroke="#63b8ff" d="M1705.98,-109.98C1729.5,-101.27 1766.29,-87.63 1792.94,-77.75"/>
<polygon fill="#63b8ff" stroke="#63b8ff" points="1794.45,-80.93 1802.61,-74.17 1792.01,-74.36 1794.45,-80.93"/>
</a>
</g>
</g>
<!-- Node35 -->
<g id="Node000035" class="node">
<title>Node35</title>
<g id="a_Node000035"><a xlink:title=" ">
<polygon fill="#e0e0e0" stroke="#999999" points="1686,-74 1628,-74 1628,-55 1686,-55 1686,-74"/>
<text text-anchor="middle" x="1657" y="-62" font-family="Helvetica,sans-Serif" font-size="10.00">device.h</text>
</a>
</g>
</g>
<!-- Node34&#45;&gt;Node35 -->
<g id="edge58_Node000034_Node000035" class="edge">
<title>Node34&#45;&gt;Node35</title>
<g id="a_edge58_Node000034_Node000035"><a xlink:title=" ">
<path fill="none" stroke="#63b8ff" d="M1678.71,-109.75C1675.19,-102.57 1670.09,-92.18 1665.72,-83.27"/>
<polygon fill="#63b8ff" stroke="#63b8ff" points="1668.76,-81.53 1661.21,-74.09 1662.48,-84.61 1668.76,-81.53"/>
</a>
</g>
</g>
<!-- Node36&#45;&gt;Node3 -->
<g id="edge62_Node000036_Node000003" class="edge">
<title>Node36&#45;&gt;Node3</title>
<g id="a_edge62_Node000036_Node000003"><a xlink:title=" ">
<path fill="none" stroke="#63b8ff" d="M1546.95,-164.93C1523.48,-148.33 1473.16,-113.11 1464,-110 1403.85,-89.57 964.97,-72.02 827.23,-66.96"/>
<polygon fill="#63b8ff" stroke="#63b8ff" points="827.21,-63.46 817.09,-66.59 826.96,-70.45 827.21,-63.46"/>
</a>
</g>
</g>
<!-- Node36&#45;&gt;Node11 -->
<g id="edge63_Node000036_Node000011" class="edge">
<title>Node36&#45;&gt;Node11</title>
<g id="a_edge63_Node000036_Node000011"><a xlink:title=" ">
<path fill="none" stroke="#63b8ff" d="M1565.12,-164.61C1573.51,-151.23 1586.13,-125.8 1573,-110 1545.12,-76.44 1422.81,-82.43 1380,-74 1379.54,-73.91 1379.07,-73.82 1378.6,-73.72"/>
<polygon fill="#63b8ff" stroke="#63b8ff" points="1379.04,-70.24 1368.55,-71.7 1377.66,-77.1 1379.04,-70.24"/>
</a>
</g>
</g>
<!-- Node36&#45;&gt;Node12 -->
<g id="edge65_Node000036_Node000012" class="edge">
<title>Node36&#45;&gt;Node12</title>
<g id="a_edge65_Node000036_Node000012"><a xlink:title=" ">
<path fill="none" stroke="#63b8ff" d="M1537.15,-164.98C1514.88,-156.3 1480.1,-142.75 1454.78,-132.88"/>
<polygon fill="#63b8ff" stroke="#63b8ff" points="1455.84,-129.54 1445.25,-129.17 1453.29,-136.06 1455.84,-129.54"/>
</a>
</g>
</g>
<!-- Node36&#45;&gt;Node23 -->
<g id="edge67_Node000036_Node000023" class="edge">
<title>Node36&#45;&gt;Node23</title>
<g id="a_edge67_Node000036_Node000023"><a xlink:title=" ">
<path fill="none" stroke="#63b8ff" d="M1553.38,-164.73C1543.75,-150.53 1522.63,-122.81 1497,-110 1386.35,-54.69 1343.27,-92.79 1221,-74 1220.4,-73.91 1219.79,-73.81 1219.18,-73.72"/>
<polygon fill="#63b8ff" stroke="#63b8ff" points="1219.57,-70.24 1209.14,-72.08 1218.45,-77.14 1219.57,-70.24"/>
</a>
</g>
</g>
<!-- Node36&#45;&gt;Node25 -->
<g id="edge68_Node000036_Node000025" class="edge">
<title>Node36&#45;&gt;Node25</title>
<g id="a_edge68_Node000036_Node000025"><a xlink:title=" ">
<path fill="none" stroke="#63b8ff" d="M1558.42,-164.95C1556.98,-151.07 1552.03,-123.8 1535,-110 1494.13,-76.88 1352.82,-83.1 1301,-74 1299.5,-73.74 1297.97,-73.46 1296.43,-73.18"/>
<polygon fill="#63b8ff" stroke="#63b8ff" points="1296.66,-69.66 1286.19,-71.25 1295.37,-76.54 1296.66,-69.66"/>
</a>
</g>
</g>
<!-- Node36&#45;&gt;Node26 -->
<g id="edge69_Node000036_Node000026" class="edge">
<title>Node36&#45;&gt;Node26</title>
<g id="a_edge69_Node000036_Node000026"><a xlink:title=" ">
<path fill="none" stroke="#63b8ff" d="M1620.97,-167.34C1670.44,-161 1734.02,-149.13 1750,-129 1760.83,-115.36 1751.55,-96.03 1741.92,-82.29"/>
<polygon fill="#63b8ff" stroke="#63b8ff" points="1744.6,-80.02 1735.76,-74.18 1739.03,-84.26 1744.6,-80.02"/>
</a>
</g>
</g>
<!-- Node36&#45;&gt;Node33 -->
<g id="edge64_Node000036_Node000033" class="edge">
<title>Node36&#45;&gt;Node33</title>
<g id="a_edge64_Node000036_Node000033"><a xlink:title=" ">
<path fill="none" stroke="#63b8ff" d="M1620.71,-171.51C1689.57,-167.89 1794.77,-157.69 1821,-129 1831.83,-117.15 1831.99,-98.32 1830.09,-84.23"/>
<polygon fill="#63b8ff" stroke="#63b8ff" points="1833.5,-83.41 1828.29,-74.18 1826.61,-84.64 1833.5,-83.41"/>
</a>
</g>
</g>
<!-- Node36&#45;&gt;Node34 -->
<g id="edge66_Node000036_Node000034" class="edge">
<title>Node36&#45;&gt;Node34</title>
<g id="a_edge66_Node000036_Node000034"><a xlink:title=" ">
<path fill="none" stroke="#63b8ff" d="M1578.92,-164.98C1599.05,-156.38 1630.38,-142.99 1653.41,-133.15"/>
<polygon fill="#63b8ff" stroke="#63b8ff" points="1654.9,-136.32 1662.71,-129.17 1652.14,-129.88 1654.9,-136.32"/>
</a>
</g>
</g>
</g>
</svg>
