<?xml version="1.0" encoding="UTF-8" standalone="no"?>
<!DOCTYPE svg PUBLIC "-//W3C//DTD SVG 1.1//EN"
 "http://www.w3.org/Graphics/SVG/1.1/DTD/svg11.dtd">
<!-- Generated by graphviz version 2.43.0 (0)
 -->
<!-- Title: os_kernel_thread_register Pages: 1 -->
<svg width="1077pt" height="864pt"
 viewBox="0.00 0.00 1077.00 864.00" xmlns="http://www.w3.org/2000/svg" xmlns:xlink="http://www.w3.org/1999/xlink">
<g id="graph0" class="graph" transform="scale(1 1) rotate(0) translate(4 860)">
<title>os_kernel_thread_register</title>
<!-- Node1 -->
<g id="Node000001" class="node">
<title>Node1</title>
<g id="a_Node000001"><a xlink:title=" ">
<polygon fill="#999999" stroke="#666666" points="143,-533 0,-533 0,-514 143,-514 143,-533"/>
<text text-anchor="middle" x="71.5" y="-521" font-family="Helvetica,sans-Serif" font-size="10.00">os_kernel_thread_register</text>
</a>
</g>
</g>
<!-- Node2 -->
<g id="Node000002" class="node">
<title>Node2</title>
<g id="a_Node000002"><a xlink:href="gpio__mgmt_8c.html#a7beb78991c70b9fc3165c93ce5b7ff6b" target="_top" xlink:title=" ">
<polygon fill="white" stroke="#666666" points="288.5,-646 188.5,-646 188.5,-627 288.5,-627 288.5,-646"/>
<text text-anchor="middle" x="238.5" y="-634" font-family="Helvetica,sans-Serif" font-size="10.00">gpio_mgmt_start</text>
</a>
</g>
</g>
<!-- Node1&#45;&gt;Node2 -->
<g id="edge1_Node000001_Node000002" class="edge">
<title>Node1&#45;&gt;Node2</title>
<g id="a_edge1_Node000001_Node000002"><a xlink:title=" ">
<path fill="none" stroke="#63b8ff" d="M81.99,-533.2C99.7,-550.89 139.59,-588.73 179,-612.5 185.46,-616.4 192.67,-619.93 199.76,-623.02"/>
<polygon fill="#63b8ff" stroke="#63b8ff" points="198.7,-626.37 209.28,-626.94 201.37,-619.89 198.7,-626.37"/>
</a>
</g>
</g>
<!-- Node9 -->
<g id="Node000009" class="node">
<title>Node9</title>
<g id="a_Node000009"><a xlink:href="group__Thread.html#ga21ff81ef0bcb5564ba8ee6c5a0da2acc" target="_top" xlink:title=" ">
<polygon fill="white" stroke="#666666" points="439,-589 338,-589 338,-570 439,-570 439,-589"/>
<text text-anchor="middle" x="388.5" y="-577" font-family="Helvetica,sans-Serif" font-size="10.00">os_thread_create</text>
</a>
</g>
</g>
<!-- Node1&#45;&gt;Node9 -->
<g id="edge26_Node000001_Node000009" class="edge">
<title>Node1&#45;&gt;Node9</title>
<g id="a_edge26_Node000001_Node000009"><a xlink:title=" ">
<path fill="none" stroke="#63b8ff" d="M85.76,-533.22C105.09,-546.73 142.7,-570.54 179,-579.5 228.02,-591.6 285.53,-590.52 327.72,-587.02"/>
<polygon fill="#63b8ff" stroke="#63b8ff" points="328.18,-590.49 337.83,-586.11 327.55,-583.52 328.18,-590.49"/>
</a>
</g>
</g>
<!-- Node10 -->
<g id="Node000010" class="node">
<title>Node10</title>
<g id="a_Node000010"><a xlink:href="iic__mgmt_8h.html#a431d300c76a908145b6f0732a5b63710" target="_top" xlink:title=" ">
<polygon fill="white" stroke="#666666" points="283.5,-570 193.5,-570 193.5,-551 283.5,-551 283.5,-570"/>
<text text-anchor="middle" x="238.5" y="-558" font-family="Helvetica,sans-Serif" font-size="10.00">iic_mgmt_start</text>
</a>
</g>
</g>
<!-- Node1&#45;&gt;Node10 -->
<g id="edge9_Node000001_Node000010" class="edge">
<title>Node1&#45;&gt;Node10</title>
<g id="a_edge9_Node000001_Node000010"><a xlink:title=" ">
<path fill="none" stroke="#63b8ff" d="M114.99,-533.03C136.37,-537.82 162.47,-543.68 185.08,-548.75"/>
<polygon fill="#63b8ff" stroke="#63b8ff" points="184.34,-552.17 194.87,-550.94 185.87,-545.34 184.34,-552.17"/>
</a>
</g>
</g>
<!-- Node11 -->
<g id="Node000011" class="node">
<title>Node11</title>
<g id="a_Node000011"><a xlink:href="os__shell__management_8c.html#a8fae79f71d15477bc1251891e977e46e" target="_top" xlink:title="Create and start the OS shell management task.">
<polygon fill="white" stroke="#666666" points="298,-533 179,-533 179,-514 298,-514 298,-533"/>
<text text-anchor="middle" x="238.5" y="-521" font-family="Helvetica,sans-Serif" font-size="10.00">os_shell_mgmt_start</text>
</a>
</g>
</g>
<!-- Node1&#45;&gt;Node11 -->
<g id="edge10_Node000001_Node000011" class="edge">
<title>Node1&#45;&gt;Node11</title>
<g id="a_edge10_Node000001_Node000011"><a xlink:title=" ">
<path fill="none" stroke="#63b8ff" d="M143.43,-523.5C151.82,-523.5 160.36,-523.5 168.71,-523.5"/>
<polygon fill="#63b8ff" stroke="#63b8ff" points="168.78,-527 178.78,-523.5 168.78,-520 168.78,-527"/>
</a>
</g>
</g>
<!-- Node24 -->
<g id="Node000024" class="node">
<title>Node24</title>
<g id="a_Node000024"><a xlink:href="spi__mgmt_8h.html#a0b08c74b645c9de08ab9f24dca88cd53" target="_top" xlink:title=" ">
<polygon fill="white" stroke="#666666" points="285,-496 192,-496 192,-477 285,-477 285,-496"/>
<text text-anchor="middle" x="238.5" y="-484" font-family="Helvetica,sans-Serif" font-size="10.00">spi_mgmt_start</text>
</a>
</g>
</g>
<!-- Node1&#45;&gt;Node24 -->
<g id="edge27_Node000001_Node000024" class="edge">
<title>Node1&#45;&gt;Node24</title>
<g id="a_edge27_Node000001_Node000024"><a xlink:title=" ">
<path fill="none" stroke="#63b8ff" d="M114.99,-513.97C136.37,-509.18 162.47,-503.32 185.08,-498.25"/>
<polygon fill="#63b8ff" stroke="#63b8ff" points="185.87,-501.66 194.87,-496.06 184.34,-494.83 185.87,-501.66"/>
</a>
</g>
</g>
<!-- Node25 -->
<g id="Node000025" class="node">
<title>Node25</title>
<g id="a_Node000025"><a xlink:href="kernel__service__task__manager_8c.html#a2f2b4590ebd8517da5b7479999cb13af" target="_top" xlink:title=" ">
<polygon fill="white" stroke="#666666" points="293,-75 184,-75 184,-56 293,-56 293,-75"/>
<text text-anchor="middle" x="238.5" y="-63" font-family="Helvetica,sans-Serif" font-size="10.00">thread_task_mgmt</text>
</a>
</g>
</g>
<!-- Node1&#45;&gt;Node25 -->
<g id="edge28_Node000001_Node000025" class="edge">
<title>Node1&#45;&gt;Node25</title>
<g id="a_edge28_Node000001_Node000025"><a xlink:title=" ">
<path fill="none" stroke="#63b8ff" d="M75.95,-513.93C96.45,-457.01 202.49,-162.68 230.64,-84.55"/>
<polygon fill="#63b8ff" stroke="#63b8ff" points="233.98,-85.61 234.07,-75.01 227.39,-83.24 233.98,-85.61"/>
</a>
</g>
</g>
<!-- Node31 -->
<g id="Node000031" class="node">
<title>Node31</title>
<g id="a_Node000031"><a xlink:href="uart__mgmt_8c.html#a8e8f570b41df4e77ed5acfbeaef25423" target="_top" xlink:title="Create and start the UART management thread.">
<polygon fill="white" stroke="#666666" points="287.5,-459 189.5,-459 189.5,-440 287.5,-440 287.5,-459"/>
<text text-anchor="middle" x="238.5" y="-447" font-family="Helvetica,sans-Serif" font-size="10.00">uart_mgmt_start</text>
</a>
</g>
</g>
<!-- Node1&#45;&gt;Node31 -->
<g id="edge35_Node000001_Node000031" class="edge">
<title>Node1&#45;&gt;Node31</title>
<g id="a_edge35_Node000001_Node000031"><a xlink:title=" ">
<path fill="none" stroke="#63b8ff" d="M89.07,-513.87C109.67,-502.14 146.16,-482.21 179,-468.5 184.17,-466.34 189.69,-464.27 195.18,-462.34"/>
<polygon fill="#63b8ff" stroke="#63b8ff" points="196.62,-465.55 204.97,-459.03 194.38,-458.91 196.62,-465.55"/>
</a>
</g>
</g>
<!-- Node3 -->
<g id="Node000003" class="node">
<title>Node3</title>
<g id="a_Node000003"><a xlink:href="gpio__mgmt_8c.html#a2f7aa8d4452bd40df6190f1027d25c20" target="_top" xlink:title=" ">
<polygon fill="white" stroke="#666666" points="443,-751 334,-751 334,-732 443,-732 443,-751"/>
<text text-anchor="middle" x="388.5" y="-739" font-family="Helvetica,sans-Serif" font-size="10.00">gpio_mgmt_thread</text>
</a>
</g>
</g>
<!-- Node2&#45;&gt;Node3 -->
<g id="edge2_Node000002_Node000003" class="edge">
<title>Node2&#45;&gt;Node3</title>
<g id="a_edge2_Node000002_Node000003"><a xlink:title=" ">
<path fill="none" stroke="#63b8ff" d="M252.9,-646C278.41,-664.11 334.22,-703.7 365.36,-725.8"/>
<polygon fill="#63b8ff" stroke="#63b8ff" points="363.63,-728.86 373.81,-731.79 367.68,-723.15 363.63,-728.86"/>
</a>
</g>
</g>
<!-- Node2&#45;&gt;Node9 -->
<g id="edge8_Node000002_Node000009" class="edge">
<title>Node2&#45;&gt;Node9</title>
<g id="a_edge8_Node000002_Node000009"><a xlink:title=" ">
<path fill="none" stroke="#63b8ff" d="M264.27,-626.96C288.6,-617.59 325.93,-603.21 353.13,-592.74"/>
<polygon fill="#63b8ff" stroke="#63b8ff" points="354.57,-595.93 362.65,-589.07 352.06,-589.4 354.57,-595.93"/>
</a>
</g>
</g>
<!-- Node4 -->
<g id="Node000004" class="node">
<title>Node4</title>
<g id="a_Node000004"><a xlink:href="drv__gpio_8c.html#a0c96221e67620454c2c8f08c9a785524" target="_top" xlink:title=" ">
<polygon fill="white" stroke="#666666" points="625.5,-770 507.5,-770 507.5,-751 625.5,-751 625.5,-770"/>
<text text-anchor="middle" x="566.5" y="-758" font-family="Helvetica,sans-Serif" font-size="10.00">drv_gpio_get_handle</text>
</a>
</g>
</g>
<!-- Node3&#45;&gt;Node4 -->
<g id="edge3_Node000003_Node000004" class="edge">
<title>Node3&#45;&gt;Node4</title>
<g id="a_edge3_Node000003_Node000004"><a xlink:title=" ">
<path fill="none" stroke="#63b8ff" d="M443.26,-747.3C460.33,-749.15 479.43,-751.21 497.37,-753.14"/>
<polygon fill="#63b8ff" stroke="#63b8ff" points="497.16,-756.64 507.48,-754.24 497.91,-749.68 497.16,-756.64"/>
</a>
</g>
</g>
<!-- Node5 -->
<g id="Node000005" class="node">
<title>Node5</title>
<g id="a_Node000005"><a xlink:href="drv__gpio_8c.html#a72d83c6bed1bb43b771c47d2de6417d3" target="_top" xlink:title=" ">
<polygon fill="white" stroke="#666666" points="617,-733 516,-733 516,-714 617,-714 617,-733"/>
<text text-anchor="middle" x="566.5" y="-721" font-family="Helvetica,sans-Serif" font-size="10.00">drv_gpio_register</text>
</a>
</g>
</g>
<!-- Node3&#45;&gt;Node5 -->
<g id="edge4_Node000003_Node000005" class="edge">
<title>Node3&#45;&gt;Node5</title>
<g id="a_edge4_Node000003_Node000005"><a xlink:title=" ">
<path fill="none" stroke="#63b8ff" d="M443.26,-736C463.07,-733.98 485.61,-731.67 505.9,-729.6"/>
<polygon fill="#63b8ff" stroke="#63b8ff" points="506.37,-733.07 515.97,-728.57 505.66,-726.1 506.37,-733.07"/>
</a>
</g>
</g>
<!-- Node6 -->
<g id="Node000006" class="node">
<title>Node6</title>
<g id="a_Node000006"><a xlink:href="hal__gpio__stm32_8c.html#abcec079fb8a1cf67b382f5378299a8ef" target="_top" xlink:title="Return pointer to the STM32 GPIO HAL ops table.">
<polygon fill="white" stroke="#666666" points="635,-856 498,-856 498,-837 635,-837 635,-856"/>
<text text-anchor="middle" x="566.5" y="-844" font-family="Helvetica,sans-Serif" font-size="10.00">hal_gpio_stm32_get_ops</text>
</a>
</g>
</g>
<!-- Node3&#45;&gt;Node6 -->
<g id="edge5_Node000003_Node000006" class="edge">
<title>Node3&#45;&gt;Node6</title>
<g id="a_edge5_Node000003_Node000006"><a xlink:title=" ">
<path fill="none" stroke="#63b8ff" d="M396.64,-751.28C410.41,-769.37 442.51,-808 479,-827.5 483.46,-829.88 488.21,-831.97 493.09,-833.79"/>
<polygon fill="#63b8ff" stroke="#63b8ff" points="492.01,-837.12 502.6,-836.99 494.23,-830.49 492.01,-837.12"/>
</a>
</g>
</g>
<!-- Node7 -->
<g id="Node000007" class="node">
<title>Node7</title>
<g id="a_Node000007"><a xlink:href="hal__gpio__stm32_8c.html#ad2d190ad23771d78c159360bc6f14264" target="_top" xlink:title="Populate the hardware context in a generic GPIO handle.">
<polygon fill="white" stroke="#666666" points="623.5,-818.5 509.5,-818.5 509.5,-788.5 623.5,-788.5 623.5,-818.5"/>
<text text-anchor="start" x="517.5" y="-806.5" font-family="Helvetica,sans-Serif" font-size="10.00">hal_gpio_stm32_set</text>
<text text-anchor="middle" x="566.5" y="-795.5" font-family="Helvetica,sans-Serif" font-size="10.00">_config</text>
</a>
</g>
</g>
<!-- Node3&#45;&gt;Node7 -->
<g id="edge6_Node000003_Node000007" class="edge">
<title>Node3&#45;&gt;Node7</title>
<g id="a_edge6_Node000003_Node000007"><a xlink:title=" ">
<path fill="none" stroke="#63b8ff" d="M409.82,-751.03C427.77,-759.23 454.78,-771.04 479,-779.5 485.52,-781.78 492.38,-783.99 499.27,-786.08"/>
<polygon fill="#63b8ff" stroke="#63b8ff" points="498.75,-789.58 509.33,-789.07 500.74,-782.87 498.75,-789.58"/>
</a>
</g>
</g>
<!-- Node8 -->
<g id="Node000008" class="node">
<title>Node8</title>
<g id="a_Node000008"><a xlink:href="group__Thread.html#gaf16424e47477714927313ecec2821eec" target="_top" xlink:title=" ">
<polygon fill="white" stroke="#666666" points="615,-469 518,-469 518,-450 615,-450 615,-469"/>
<text text-anchor="middle" x="566.5" y="-457" font-family="Helvetica,sans-Serif" font-size="10.00">os_thread_delay</text>
</a>
</g>
</g>
<!-- Node3&#45;&gt;Node8 -->
<g id="edge7_Node000003_Node000008" class="edge">
<title>Node3&#45;&gt;Node8</title>
<g id="a_edge7_Node000003_Node000008"><a xlink:title=" ">
<path fill="none" stroke="#63b8ff" d="M393.36,-731.87C402.48,-708.94 425.92,-649.25 443,-598.5 460.77,-545.73 438.17,-516.36 479,-478.5 487.03,-471.06 497.28,-466.28 507.9,-463.27"/>
<polygon fill="#63b8ff" stroke="#63b8ff" points="508.77,-466.66 517.7,-460.97 507.17,-459.85 508.77,-466.66"/>
</a>
</g>
</g>
<!-- Node11&#45;&gt;Node9 -->
<g id="edge25_Node000011_Node000009" class="edge">
<title>Node11&#45;&gt;Node9</title>
<g id="a_edge25_Node000011_Node000009"><a xlink:title=" ">
<path fill="none" stroke="#63b8ff" d="M270.32,-533.01C279.29,-535.92 289.08,-539.21 298,-542.5 317.52,-549.69 339.07,-558.57 356.14,-565.83"/>
<polygon fill="#63b8ff" stroke="#63b8ff" points="355.05,-569.17 365.62,-569.89 357.81,-562.74 355.05,-569.17"/>
</a>
</g>
</g>
<!-- Node12 -->
<g id="Node000012" class="node">
<title>Node12</title>
<g id="a_Node000012"><a xlink:href="os__shell__management_8c.html#a5b7eb0bbbac6bbc8febc3cf4a41932f5" target="_top" xlink:title=" ">
<polygon fill="white" stroke="#666666" points="432.5,-543 344.5,-543 344.5,-524 432.5,-524 432.5,-543"/>
<text text-anchor="middle" x="388.5" y="-531" font-family="Helvetica,sans-Serif" font-size="10.00">_os_shell_task</text>
</a>
</g>
</g>
<!-- Node11&#45;&gt;Node12 -->
<g id="edge11_Node000011_Node000012" class="edge">
<title>Node11&#45;&gt;Node12</title>
<g id="a_edge11_Node000011_Node000012"><a xlink:title=" ">
<path fill="none" stroke="#63b8ff" d="M298.42,-527.48C310.26,-528.28 322.65,-529.12 334.29,-529.9"/>
<polygon fill="#63b8ff" stroke="#63b8ff" points="334.08,-533.4 344.29,-530.58 334.55,-526.41 334.08,-533.4"/>
</a>
</g>
</g>
<!-- Node12&#45;&gt;Node8 -->
<g id="edge20_Node000012_Node000008" class="edge">
<title>Node12&#45;&gt;Node8</title>
<g id="a_edge20_Node000012_Node000008"><a xlink:title=" ">
<path fill="none" stroke="#63b8ff" d="M402.11,-523.84C418.8,-511.52 449.57,-490.38 479,-478.5 488.2,-474.79 498.25,-471.74 508.14,-469.26"/>
<polygon fill="#63b8ff" stroke="#63b8ff" points="509.01,-472.65 517.95,-466.96 507.41,-465.83 509.01,-472.65"/>
</a>
</g>
</g>
<!-- Node13 -->
<g id="Node000013" class="node">
<title>Node13</title>
<g id="a_Node000013"><a xlink:href="os__shell__management_8c.html#a63ab3e9917ce5b451d7db14187564113" target="_top" xlink:title=" ">
<polygon fill="white" stroke="#666666" points="608,-506 525,-506 525,-487 608,-487 608,-506"/>
<text text-anchor="middle" x="566.5" y="-494" font-family="Helvetica,sans-Serif" font-size="10.00">_print_banner</text>
</a>
</g>
</g>
<!-- Node12&#45;&gt;Node13 -->
<g id="edge12_Node000012_Node000013" class="edge">
<title>Node12&#45;&gt;Node13</title>
<g id="a_edge12_Node000012_Node000013"><a xlink:title=" ">
<path fill="none" stroke="#63b8ff" d="M432.55,-524.45C457.35,-519.24 488.65,-512.65 514.66,-507.19"/>
<polygon fill="#63b8ff" stroke="#63b8ff" points="515.64,-510.56 524.7,-505.08 514.2,-503.71 515.64,-510.56"/>
</a>
</g>
</g>
<!-- Node14 -->
<g id="Node000014" class="node">
<title>Node14</title>
<g id="a_Node000014"><a xlink:href="os__shell__management_8c.html#a4dcab531b1b38b06384ff4035db371da" target="_top" xlink:title=" ">
<polygon fill="white" stroke="#666666" points="622,-432 511,-432 511,-413 622,-413 622,-432"/>
<text text-anchor="middle" x="566.5" y="-420" font-family="Helvetica,sans-Serif" font-size="10.00">_shell_process_line</text>
</a>
</g>
</g>
<!-- Node12&#45;&gt;Node14 -->
<g id="edge13_Node000012_Node000014" class="edge">
<title>Node12&#45;&gt;Node14</title>
<g id="a_edge13_Node000012_Node000014"><a xlink:title=" ">
<path fill="none" stroke="#63b8ff" d="M395.86,-523.92C408.97,-504.95 441.03,-462.63 479,-441.5 485.8,-437.72 493.3,-434.69 500.94,-432.26"/>
<polygon fill="#63b8ff" stroke="#63b8ff" points="502.01,-435.59 510.67,-429.5 500.09,-428.86 502.01,-435.59"/>
</a>
</g>
</g>
<!-- Node15 -->
<g id="Node000015" class="node">
<title>Node15</title>
<g id="a_Node000015"><a xlink:href="os__shell__management_8c.html#a674105c8790acda9c7e4ea9a74cf1aec" target="_top" xlink:title=" ">
<polygon fill="#fff0f0" stroke="red" points="781.5,-506 706.5,-506 706.5,-487 781.5,-487 781.5,-506"/>
<text text-anchor="middle" x="744" y="-494" font-family="Helvetica,sans-Serif" font-size="10.00">_shell_write</text>
</a>
</g>
</g>
<!-- Node12&#45;&gt;Node15 -->
<g id="edge18_Node000012_Node000015" class="edge">
<title>Node12&#45;&gt;Node15</title>
<g id="a_edge18_Node000012_Node000015"><a xlink:title=" ">
<path fill="none" stroke="#63b8ff" d="M422.43,-543.06C473.22,-556.21 573.27,-575.78 654,-552.5 680.74,-544.79 707.19,-526.41 724.21,-512.79"/>
<polygon fill="#63b8ff" stroke="#63b8ff" points="726.73,-515.26 732.21,-506.19 722.27,-509.86 726.73,-515.26"/>
</a>
</g>
</g>
<!-- Node17 -->
<g id="Node000017" class="node">
<title>Node17</title>
<g id="a_Node000017"><a xlink:href="mqueue_8c.html#ae54fde83faac5a815d0afa0be0ceb447" target="_top" xlink:title=" ">
<polygon fill="white" stroke="#666666" points="969,-524 834,-524 834,-505 969,-505 969,-524"/>
<text text-anchor="middle" x="901.5" y="-512" font-family="Helvetica,sans-Serif" font-size="10.00">ipc_mqueue_get_handle</text>
</a>
</g>
</g>
<!-- Node12&#45;&gt;Node17 -->
<g id="edge19_Node000012_Node000017" class="edge">
<title>Node12&#45;&gt;Node17</title>
<g id="a_edge19_Node000012_Node000017"><a xlink:title=" ">
<path fill="none" stroke="#63b8ff" d="M414.94,-543.02C424.57,-547.54 435.1,-553.69 443,-561.5 467.03,-585.27 449.99,-611.15 479,-628.5 545.76,-668.41 578.04,-645.21 654,-628.5 741.52,-609.24 834.95,-555.75 877.28,-529.46"/>
<polygon fill="#63b8ff" stroke="#63b8ff" points="879.14,-532.43 885.75,-524.14 875.42,-526.5 879.14,-532.43"/>
</a>
</g>
</g>
<!-- Node21 -->
<g id="Node000021" class="node">
<title>Node21</title>
<g id="a_Node000021"><a xlink:href="syscalls_8c.html#a1c0b4afcbe4d9f5c21ef438f3bcf3e4c" target="_top" xlink:title=" ">
<polygon fill="white" stroke="#666666" points="609.5,-619 523.5,-619 523.5,-600 609.5,-600 609.5,-619"/>
<text text-anchor="middle" x="566.5" y="-607" font-family="Helvetica,sans-Serif" font-size="10.00">printk_disable</text>
</a>
</g>
</g>
<!-- Node12&#45;&gt;Node21 -->
<g id="edge21_Node000012_Node000021" class="edge">
<title>Node12&#45;&gt;Node21</title>
<g id="a_edge21_Node000012_Node000021"><a xlink:title=" ">
<path fill="none" stroke="#63b8ff" d="M409.09,-543.12C419.33,-548.31 432,-554.98 443,-561.5 459.54,-571.31 461.52,-577.5 479,-585.5 489.74,-590.42 501.7,-594.53 513.22,-597.88"/>
<polygon fill="#63b8ff" stroke="#63b8ff" points="512.62,-601.34 523.19,-600.62 514.48,-594.59 512.62,-601.34"/>
</a>
</g>
</g>
<!-- Node22 -->
<g id="Node000022" class="node">
<title>Node22</title>
<g id="a_Node000022"><a xlink:href="ringbuffer_8c.html#a3ad0c7d81e438887de4a1e02f25d4796" target="_top" xlink:title=" ">
<polygon fill="white" stroke="#666666" points="954.5,-637 848.5,-637 848.5,-618 954.5,-618 954.5,-637"/>
<text text-anchor="middle" x="901.5" y="-625" font-family="Helvetica,sans-Serif" font-size="10.00">ringbuffer_getchar</text>
</a>
</g>
</g>
<!-- Node12&#45;&gt;Node22 -->
<g id="edge22_Node000012_Node000022" class="edge">
<title>Node12&#45;&gt;Node22</title>
<g id="a_edge22_Node000012_Node000022"><a xlink:title=" ">
<path fill="none" stroke="#63b8ff" d="M416.54,-543.06C425.92,-547.48 435.86,-553.54 443,-561.5 472.31,-594.2 442.73,-628.75 479,-653.5 602.15,-737.55 795.64,-671.65 869.99,-641"/>
<polygon fill="#63b8ff" stroke="#63b8ff" points="871.41,-644.21 879.27,-637.1 868.7,-637.75 871.41,-644.21"/>
</a>
</g>
</g>
<!-- Node23 -->
<g id="Node000023" class="node">
<title>Node23</title>
<g id="a_Node000023"><a xlink:href="shell__task__mgmt_8c.html#a969e317f3c6f3236be6c00aff01d1ac2" target="_top" xlink:title=" ">
<polygon fill="white" stroke="#666666" points="654,-543 479,-543 479,-524 654,-524 654,-543"/>
<text text-anchor="middle" x="566.5" y="-531" font-family="Helvetica,sans-Serif" font-size="10.00">shell_task_mgmt_register_cmds</text>
</a>
</g>
</g>
<!-- Node12&#45;&gt;Node23 -->
<g id="edge24_Node000012_Node000023" class="edge">
<title>Node12&#45;&gt;Node23</title>
<g id="a_edge24_Node000012_Node000023"><a xlink:title=" ">
<path fill="none" stroke="#63b8ff" d="M432.55,-533.5C443.64,-533.5 456.02,-533.5 468.64,-533.5"/>
<polygon fill="#63b8ff" stroke="#63b8ff" points="468.8,-537 478.8,-533.5 468.8,-530 468.8,-537"/>
</a>
</g>
</g>
<!-- Node14&#45;&gt;Node15 -->
<g id="edge14_Node000014_Node000015" class="edge">
<title>Node14&#45;&gt;Node15</title>
<g id="a_edge14_Node000014_Node000015"><a xlink:title=" ">
<path fill="none" stroke="#63b8ff" d="M622.34,-431.62C633.04,-434.21 644.02,-437.46 654,-441.5 678.94,-451.6 704.83,-468.44 722.21,-480.82"/>
<polygon fill="#63b8ff" stroke="#63b8ff" points="720.33,-483.78 730.47,-486.84 724.45,-478.12 720.33,-483.78"/>
</a>
</g>
</g>
<!-- Node15&#45;&gt;Node17 -->
<g id="edge15_Node000015_Node000017" class="edge">
<title>Node15&#45;&gt;Node17</title>
<g id="a_edge15_Node000015_Node000017"><a xlink:title=" ">
<path fill="none" stroke="#63b8ff" d="M781.85,-500.77C794.48,-502.23 809.11,-503.92 823.7,-505.61"/>
<polygon fill="#63b8ff" stroke="#63b8ff" points="823.43,-509.1 833.77,-506.78 824.24,-502.15 823.43,-509.1"/>
</a>
</g>
</g>
<!-- Node18 -->
<g id="Node000018" class="node">
<title>Node18</title>
<g id="a_Node000018"><a xlink:href="ringbuffer_8c.html#ab0175d641c6489e01eb1f11eb161307a" target="_top" xlink:title=" ">
<polygon fill="white" stroke="#666666" points="954.5,-487 848.5,-487 848.5,-468 954.5,-468 954.5,-487"/>
<text text-anchor="middle" x="901.5" y="-475" font-family="Helvetica,sans-Serif" font-size="10.00">ringbuffer_putchar</text>
</a>
</g>
</g>
<!-- Node15&#45;&gt;Node18 -->
<g id="edge16_Node000015_Node000018" class="edge">
<title>Node15&#45;&gt;Node18</title>
<g id="a_edge16_Node000015_Node000018"><a xlink:title=" ">
<path fill="none" stroke="#63b8ff" d="M781.85,-492C798.68,-489.94 819.07,-487.45 838.17,-485.12"/>
<polygon fill="#63b8ff" stroke="#63b8ff" points="838.82,-488.56 848.32,-483.88 837.97,-481.61 838.82,-488.56"/>
</a>
</g>
</g>
<!-- Node19 -->
<g id="Node000019" class="node">
<title>Node19</title>
<g id="a_Node000019"><a xlink:href="ringbuffer_8c.html#abc6b533f80fb18ade4151b188f827c23" target="_top" xlink:title=" ">
<polygon fill="#fff0f0" stroke="red" points="1069,-524 1005,-524 1005,-505 1069,-505 1069,-524"/>
<text text-anchor="middle" x="1037" y="-512" font-family="Helvetica,sans-Serif" font-size="10.00">_data_len</text>
</a>
</g>
</g>
<!-- Node18&#45;&gt;Node19 -->
<g id="edge17_Node000018_Node000019" class="edge">
<title>Node18&#45;&gt;Node19</title>
<g id="a_edge17_Node000018_Node000019"><a xlink:title=" ">
<path fill="none" stroke="#63b8ff" d="M936.88,-487.03C954.69,-491.97 976.56,-498.03 995.22,-503.2"/>
<polygon fill="#63b8ff" stroke="#63b8ff" points="994.36,-506.59 1004.93,-505.89 996.23,-499.85 994.36,-506.59"/>
</a>
</g>
</g>
<!-- Node22&#45;&gt;Node19 -->
<g id="edge23_Node000022_Node000019" class="edge">
<title>Node22&#45;&gt;Node19</title>
<g id="a_edge23_Node000022_Node000019"><a xlink:title=" ">
<path fill="none" stroke="#63b8ff" d="M913.88,-617.87C936.74,-598.52 988.45,-554.75 1016.69,-530.84"/>
<polygon fill="#63b8ff" stroke="#63b8ff" points="1019.28,-533.24 1024.65,-524.11 1014.75,-527.9 1019.28,-533.24"/>
</a>
</g>
</g>
<!-- Node26 -->
<g id="Node000026" class="node">
<title>Node26</title>
<g id="a_Node000026"><a xlink:href="kernel__service__task__manager_8c.html#a9bd1f7483701ba8f3f456b6988080b69" target="_top" xlink:title=" ">
<polygon fill="white" stroke="#666666" points="425.5,-56 351.5,-56 351.5,-37 425.5,-37 425.5,-56"/>
<text text-anchor="middle" x="388.5" y="-44" font-family="Helvetica,sans-Serif" font-size="10.00">_scan_heap</text>
</a>
</g>
</g>
<!-- Node25&#45;&gt;Node26 -->
<g id="edge29_Node000025_Node000026" class="edge">
<title>Node25&#45;&gt;Node26</title>
<g id="a_edge29_Node000025_Node000026"><a xlink:title=" ">
<path fill="none" stroke="#63b8ff" d="M293.35,-58.59C309.06,-56.57 326.09,-54.38 341.29,-52.43"/>
<polygon fill="#63b8ff" stroke="#63b8ff" points="342,-55.87 351.48,-51.12 341.11,-48.93 342,-55.87"/>
</a>
</g>
</g>
<!-- Node27 -->
<g id="Node000027" class="node">
<title>Node27</title>
<g id="a_Node000027"><a xlink:href="kernel__service__task__manager_8c.html#a342acfaa98bdf03d21e1d9fca4edf719" target="_top" xlink:title=" ">
<polygon fill="white" stroke="#666666" points="426.5,-93 350.5,-93 350.5,-74 426.5,-74 426.5,-93"/>
<text text-anchor="middle" x="388.5" y="-81" font-family="Helvetica,sans-Serif" font-size="10.00">_scan_tasks</text>
</a>
</g>
</g>
<!-- Node25&#45;&gt;Node27 -->
<g id="edge30_Node000025_Node000027" class="edge">
<title>Node25&#45;&gt;Node27</title>
<g id="a_edge30_Node000025_Node000027"><a xlink:title=" ">
<path fill="none" stroke="#63b8ff" d="M293.35,-72.05C308.66,-73.91 325.22,-75.93 340.11,-77.74"/>
<polygon fill="#63b8ff" stroke="#63b8ff" points="339.78,-81.22 350.13,-78.95 340.62,-74.27 339.78,-81.22"/>
</a>
</g>
</g>
<!-- Node30 -->
<g id="Node000030" class="node">
<title>Node30</title>
<g id="a_Node000030"><a xlink:href="kernel__service__task__manager_8c.html#a1dcbf35626b6f024228597f4fc47f8bb" target="_top" xlink:title=" ">
<polygon fill="white" stroke="#666666" points="439.5,-19 337.5,-19 337.5,0 439.5,0 439.5,-19"/>
<text text-anchor="middle" x="388.5" y="-7" font-family="Helvetica,sans-Serif" font-size="10.00">_scan_timer_task</text>
</a>
</g>
</g>
<!-- Node25&#45;&gt;Node30 -->
<g id="edge33_Node000025_Node000030" class="edge">
<title>Node25&#45;&gt;Node30</title>
<g id="a_edge33_Node000025_Node000030"><a xlink:title=" ">
<path fill="none" stroke="#63b8ff" d="M262.27,-55.91C281.32,-48 309.28,-36.62 334,-27.5 338.64,-25.79 343.53,-24.05 348.39,-22.37"/>
<polygon fill="#63b8ff" stroke="#63b8ff" points="349.91,-25.55 358.24,-19.01 347.64,-18.92 349.91,-25.55"/>
</a>
</g>
</g>
<!-- Node28 -->
<g id="Node000028" class="node">
<title>Node28</title>
<g id="a_Node000028"><a xlink:href="kernel__service__task__manager_8c.html#a569d560c9e111abb09ece1cf3d7d7093" target="_top" xlink:title=" ">
<polygon fill="white" stroke="#666666" points="606.5,-37 526.5,-37 526.5,-18 606.5,-18 606.5,-37"/>
<text text-anchor="middle" x="566.5" y="-25" font-family="Helvetica,sans-Serif" font-size="10.00">_collect_task</text>
</a>
</g>
</g>
<!-- Node27&#45;&gt;Node28 -->
<g id="edge31_Node000027_Node000028" class="edge">
<title>Node27&#45;&gt;Node28</title>
<g id="a_edge31_Node000027_Node000028"><a xlink:title=" ">
<path fill="none" stroke="#63b8ff" d="M419.76,-73.87C449.15,-64.52 493.93,-50.27 526.09,-40.04"/>
<polygon fill="#63b8ff" stroke="#63b8ff" points="527.17,-43.37 535.64,-37 525.05,-36.7 527.17,-43.37"/>
</a>
</g>
</g>
<!-- Node29 -->
<g id="Node000029" class="node">
<title>Node29</title>
<g id="a_Node000029"><a xlink:href="group__Thread.html#gab8ab888134539788c5f8e6e307033e27" target="_top" xlink:title="Return the head sentinel of the intrusive thread list.">
<polygon fill="white" stroke="#666666" points="619.5,-83 513.5,-83 513.5,-64 619.5,-64 619.5,-83"/>
<text text-anchor="middle" x="566.5" y="-71" font-family="Helvetica,sans-Serif" font-size="10.00">os_thread_list_get</text>
</a>
</g>
</g>
<!-- Node27&#45;&gt;Node29 -->
<g id="edge32_Node000027_Node000029" class="edge">
<title>Node27&#45;&gt;Node29</title>
<g id="a_edge32_Node000027_Node000029"><a xlink:title=" ">
<path fill="none" stroke="#63b8ff" d="M426.83,-81.38C448.91,-80.12 477.45,-78.5 502.89,-77.06"/>
<polygon fill="#63b8ff" stroke="#63b8ff" points="503.42,-80.53 513.21,-76.47 503.03,-73.54 503.42,-80.53"/>
</a>
</g>
</g>
<!-- Node30&#45;&gt;Node28 -->
<g id="edge34_Node000030_Node000028" class="edge">
<title>Node30&#45;&gt;Node28</title>
<g id="a_edge34_Node000030_Node000028"><a xlink:title=" ">
<path fill="none" stroke="#63b8ff" d="M439.93,-14.66C463.83,-17.1 492.26,-20.01 516.03,-22.44"/>
<polygon fill="#63b8ff" stroke="#63b8ff" points="515.94,-25.95 526.24,-23.49 516.65,-18.99 515.94,-25.95"/>
</a>
</g>
</g>
<!-- Node31&#45;&gt;Node9 -->
<g id="edge36_Node000031_Node000009" class="edge">
<title>Node31&#45;&gt;Node9</title>
<g id="a_edge36_Node000031_Node000009"><a xlink:title=" ">
<path fill="none" stroke="#63b8ff" d="M283.34,-459.06C288.68,-461.52 293.74,-464.61 298,-468.5 328,-495.89 306.19,-522.9 334,-552.5 338.74,-557.54 344.63,-561.79 350.75,-565.31"/>
<polygon fill="#63b8ff" stroke="#63b8ff" points="349.28,-568.49 359.77,-569.96 352.49,-562.27 349.28,-568.49"/>
</a>
</g>
</g>
<!-- Node32 -->
<g id="Node000032" class="node">
<title>Node32</title>
<g id="a_Node000032"><a xlink:href="uart__mgmt_8c.html#af8eff33b840c2e11d5bd889fd97c705a" target="_top" xlink:title=" ">
<polygon fill="white" stroke="#666666" points="442,-301 335,-301 335,-282 442,-282 442,-301"/>
<text text-anchor="middle" x="388.5" y="-289" font-family="Helvetica,sans-Serif" font-size="10.00">uart_mgmt_thread</text>
</a>
</g>
</g>
<!-- Node31&#45;&gt;Node32 -->
<g id="edge37_Node000031_Node000032" class="edge">
<title>Node31&#45;&gt;Node32</title>
<g id="a_edge37_Node000031_Node000032"><a xlink:title=" ">
<path fill="none" stroke="#63b8ff" d="M248.76,-439.62C273.26,-413.46 340.05,-342.16 371.15,-308.95"/>
<polygon fill="#63b8ff" stroke="#63b8ff" points="373.96,-311.07 378.25,-301.38 368.85,-306.29 373.96,-311.07"/>
</a>
</g>
</g>
<!-- Node32&#45;&gt;Node8 -->
<g id="edge50_Node000032_Node000008" class="edge">
<title>Node32&#45;&gt;Node8</title>
<g id="a_edge50_Node000032_Node000008"><a xlink:title=" ">
<path fill="none" stroke="#63b8ff" d="M392.22,-301.09C400.39,-328.02 427.38,-404.73 479,-441.5 487.52,-447.57 497.64,-451.68 507.9,-454.45"/>
<polygon fill="#63b8ff" stroke="#63b8ff" points="507.21,-457.88 517.74,-456.71 508.78,-451.06 507.21,-457.88"/>
</a>
</g>
</g>
<!-- Node32&#45;&gt;Node17 -->
<g id="edge45_Node000032_Node000017" class="edge">
<title>Node32&#45;&gt;Node17</title>
<g id="a_edge45_Node000032_Node000017"><a xlink:title=" ">
<path fill="none" stroke="#63b8ff" d="M398.12,-301.12C412.99,-317.08 445.14,-348.93 479,-365.5 550.58,-400.52 579.03,-377.48 654,-404.5 664.57,-408.31 823.52,-492.46 834,-496.5 839.16,-498.49 844.63,-500.35 850.12,-502.06"/>
<polygon fill="#63b8ff" stroke="#63b8ff" points="849.4,-505.5 859.98,-504.98 851.38,-498.78 849.4,-505.5"/>
</a>
</g>
</g>
<!-- Node33 -->
<g id="Node000033" class="node">
<title>Node33</title>
<g id="a_Node000033"><a xlink:href="uart__mgmt_8c.html#aa5881408b26352c2632b318a6d8c6915" target="_top" xlink:title=" ">
<polygon fill="white" stroke="#666666" points="605,-120 528,-120 528,-101 605,-101 605,-120"/>
<text text-anchor="middle" x="566.5" y="-108" font-family="Helvetica,sans-Serif" font-size="10.00">_uart_err_cb</text>
</a>
</g>
</g>
<!-- Node32&#45;&gt;Node33 -->
<g id="edge38_Node000032_Node000033" class="edge">
<title>Node32&#45;&gt;Node33</title>
<g id="a_edge38_Node000032_Node000033"><a xlink:title=" ">
<path fill="none" stroke="#63b8ff" d="M392.21,-281.64C400.35,-253.94 427.26,-174.79 479,-134.5 490.18,-125.79 504.33,-120.24 517.93,-116.71"/>
<polygon fill="#63b8ff" stroke="#63b8ff" points="518.72,-120.12 527.69,-114.47 517.16,-113.29 518.72,-120.12"/>
</a>
</g>
</g>
<!-- Node34 -->
<g id="Node000034" class="node">
<title>Node34</title>
<g id="a_Node000034"><a xlink:href="uart__mgmt_8c.html#a92576ac01ea62a4da3a4bb9c598d8e7b" target="_top" xlink:title=" ">
<polygon fill="white" stroke="#666666" points="780.5,-158 707.5,-158 707.5,-139 780.5,-139 780.5,-158"/>
<text text-anchor="middle" x="744" y="-146" font-family="Helvetica,sans-Serif" font-size="10.00">_uart_rx_cb</text>
</a>
</g>
</g>
<!-- Node32&#45;&gt;Node34 -->
<g id="edge39_Node000032_Node000034" class="edge">
<title>Node32&#45;&gt;Node34</title>
<g id="a_edge39_Node000032_Node000034"><a xlink:title=" ">
<path fill="none" stroke="#63b8ff" d="M393.11,-281.94C402.77,-257.88 431.72,-194.87 479,-168.5 547.45,-130.33 641.84,-134.13 697.24,-140.93"/>
<polygon fill="#63b8ff" stroke="#63b8ff" points="697.08,-144.44 707.45,-142.27 697.99,-137.5 697.08,-144.44"/>
</a>
</g>
</g>
<!-- Node35 -->
<g id="Node000035" class="node">
<title>Node35</title>
<g id="a_Node000035"><a xlink:href="drv__handle_8h.html#a495e6d69f743d8627525469689a28304" target="_top" xlink:title=" ">
<polygon fill="white" stroke="#666666" points="624.5,-356 508.5,-356 508.5,-337 624.5,-337 624.5,-356"/>
<text text-anchor="middle" x="566.5" y="-344" font-family="Helvetica,sans-Serif" font-size="10.00">drv_uart_get_handle</text>
</a>
</g>
</g>
<!-- Node32&#45;&gt;Node35 -->
<g id="edge41_Node000032_Node000035" class="edge">
<title>Node32&#45;&gt;Node35</title>
<g id="a_edge41_Node000032_Node000035"><a xlink:title=" ">
<path fill="none" stroke="#63b8ff" d="M409.72,-301.14C427.6,-309.35 454.57,-320.98 479,-328.5 486.32,-330.75 494.07,-332.81 501.81,-334.67"/>
<polygon fill="#63b8ff" stroke="#63b8ff" points="501.05,-338.08 511.58,-336.9 502.61,-331.26 501.05,-338.08"/>
</a>
</g>
</g>
<!-- Node36 -->
<g id="Node000036" class="node">
<title>Node36</title>
<g id="a_Node000036"><a xlink:href="drv__handle_8h.html#add994b9515165b84c4e7a8c035f58b71" target="_top" xlink:title=" ">
<polygon fill="white" stroke="#666666" points="616.5,-319 516.5,-319 516.5,-300 616.5,-300 616.5,-319"/>
<text text-anchor="middle" x="566.5" y="-307" font-family="Helvetica,sans-Serif" font-size="10.00">drv_uart_register</text>
</a>
</g>
</g>
<!-- Node32&#45;&gt;Node36 -->
<g id="edge42_Node000032_Node000036" class="edge">
<title>Node32&#45;&gt;Node36</title>
<g id="a_edge42_Node000032_Node000036"><a xlink:title=" ">
<path fill="none" stroke="#63b8ff" d="M442.31,-296.9C462.49,-298.97 485.64,-301.33 506.38,-303.45"/>
<polygon fill="#63b8ff" stroke="#63b8ff" points="506.04,-306.94 516.34,-304.47 506.75,-299.97 506.04,-306.94"/>
</a>
</g>
</g>
<!-- Node37 -->
<g id="Node000037" class="node">
<title>Node37</title>
<g id="a_Node000037"><a xlink:href="hal__uart__stm32_8c.html#aed568a227a5f7162049e5db390ba48ef" target="_top" xlink:title="Return a pointer to the STM32 UART HAL ops table.">
<polygon fill="white" stroke="#666666" points="634.5,-282 498.5,-282 498.5,-263 634.5,-263 634.5,-282"/>
<text text-anchor="middle" x="566.5" y="-270" font-family="Helvetica,sans-Serif" font-size="10.00">hal_uart_stm32_get_ops</text>
</a>
</g>
</g>
<!-- Node32&#45;&gt;Node37 -->
<g id="edge43_Node000032_Node000037" class="edge">
<title>Node32&#45;&gt;Node37</title>
<g id="a_edge43_Node000032_Node000037"><a xlink:title=" ">
<path fill="none" stroke="#63b8ff" d="M442.31,-285.8C456.76,-284.24 472.73,-282.52 488.24,-280.84"/>
<polygon fill="#63b8ff" stroke="#63b8ff" points="488.79,-284.3 498.35,-279.75 488.04,-277.34 488.79,-284.3"/>
</a>
</g>
</g>
<!-- Node38 -->
<g id="Node000038" class="node">
<title>Node38</title>
<g id="a_Node000038"><a xlink:href="hal__uart__stm32_8c.html#a829bbb9cf490043dd73c590943e80d4d" target="_top" xlink:title="Configure the STM32 peripheral parameters directly in the hw context before calling drv_uart_register...">
<polygon fill="white" stroke="#666666" points="623,-244.5 510,-244.5 510,-214.5 623,-214.5 623,-244.5"/>
<text text-anchor="start" x="518" y="-232.5" font-family="Helvetica,sans-Serif" font-size="10.00">hal_uart_stm32_set</text>
<text text-anchor="middle" x="566.5" y="-221.5" font-family="Helvetica,sans-Serif" font-size="10.00">_config</text>
</a>
</g>
</g>
<!-- Node32&#45;&gt;Node38 -->
<g id="edge44_Node000032_Node000038" class="edge">
<title>Node32&#45;&gt;Node38</title>
<g id="a_edge44_Node000032_Node000038"><a xlink:title=" ">
<path fill="none" stroke="#63b8ff" d="M410.94,-281.85C428.91,-273.95 455.35,-262.78 479,-254.5 485.8,-252.12 492.95,-249.79 500.11,-247.56"/>
<polygon fill="#63b8ff" stroke="#63b8ff" points="501.29,-250.86 509.84,-244.6 499.25,-244.17 501.29,-250.86"/>
</a>
</g>
</g>
<!-- Node39 -->
<g id="Node000039" class="node">
<title>Node39</title>
<g id="a_Node000039"><a xlink:href="irq__notify_8c.html#a88ce0c4278f16ca232b715dff43ec969" target="_top" xlink:title="Register a callback for a generic IRQ ID. Call from task context before interrupts fire....">
<polygon fill="white" stroke="#666666" points="602.5,-196 530.5,-196 530.5,-177 602.5,-177 602.5,-196"/>
<text text-anchor="middle" x="566.5" y="-184" font-family="Helvetica,sans-Serif" font-size="10.00">irq_register</text>
</a>
</g>
</g>
<!-- Node32&#45;&gt;Node39 -->
<g id="edge46_Node000032_Node000039" class="edge">
<title>Node32&#45;&gt;Node39</title>
<g id="a_edge46_Node000032_Node000039"><a xlink:title=" ">
<path fill="none" stroke="#63b8ff" d="M396.64,-281.72C410.41,-263.63 442.51,-225 479,-205.5 491.66,-198.73 506.58,-194.38 520.44,-191.57"/>
<polygon fill="#63b8ff" stroke="#63b8ff" points="521.08,-195.01 530.3,-189.79 519.84,-188.12 521.08,-195.01"/>
</a>
</g>
</g>
<!-- Node34&#45;&gt;Node18 -->
<g id="edge40_Node000034_Node000018" class="edge">
<title>Node34&#45;&gt;Node18</title>
<g id="a_edge40_Node000034_Node000018"><a xlink:title=" ">
<path fill="none" stroke="#63b8ff" d="M780.71,-156.26C787.09,-158.96 793.22,-162.6 798,-167.5 880.23,-251.8 896.5,-403.44 899.71,-457.6"/>
<polygon fill="#63b8ff" stroke="#63b8ff" points="896.23,-458.07 900.23,-467.89 903.22,-457.72 896.23,-458.07"/>
</a>
</g>
</g>
<!-- Node40 -->
<g id="Node000040" class="node">
<title>Node40</title>
<g id="a_Node000040"><a xlink:href="irq__notify_8c.html#a854bc11942113795c21bf83e08b564ae" target="_top" xlink:title=" ">
<polygon fill="white" stroke="#666666" points="796,-195 692,-195 692,-176 796,-176 796,-195"/>
<text text-anchor="middle" x="744" y="-183" font-family="Helvetica,sans-Serif" font-size="10.00">_alloc_trampoline</text>
</a>
</g>
</g>
<!-- Node39&#45;&gt;Node40 -->
<g id="edge47_Node000039_Node000040" class="edge">
<title>Node39&#45;&gt;Node40</title>
<g id="a_edge47_Node000039_Node000040"><a xlink:title=" ">
<path fill="none" stroke="#63b8ff" d="M602.59,-186.3C625.11,-186.17 654.97,-186 681.36,-185.85"/>
<polygon fill="#63b8ff" stroke="#63b8ff" points="681.69,-189.35 691.67,-185.79 681.65,-182.35 681.69,-189.35"/>
</a>
</g>
</g>
<!-- Node41 -->
<g id="Node000041" class="node">
<title>Node41</title>
<g id="a_Node000041"><a xlink:href="irq__notify_8c.html#a7faff0a2928451eb3d1965fb159ea580" target="_top" xlink:title=" ">
<polygon fill="white" stroke="#666666" points="798,-269 690,-269 690,-250 798,-250 798,-269"/>
<text text-anchor="middle" x="744" y="-257" font-family="Helvetica,sans-Serif" font-size="10.00">_notify_trampoline</text>
</a>
</g>
</g>
<!-- Node39&#45;&gt;Node41 -->
<g id="edge48_Node000039_Node000041" class="edge">
<title>Node39&#45;&gt;Node41</title>
<g id="a_edge48_Node000039_Node000041"><a xlink:title=" ">
<path fill="none" stroke="#63b8ff" d="M602.78,-189.65C619.13,-192.23 638.35,-196.94 654,-205.5 673.85,-216.36 670.79,-229.55 690,-241.5 692.6,-243.12 695.36,-244.61 698.2,-245.98"/>
<polygon fill="#63b8ff" stroke="#63b8ff" points="696.9,-249.23 707.47,-249.96 699.67,-242.8 696.9,-249.23"/>
</a>
</g>
</g>
<!-- Node42 -->
<g id="Node000042" class="node">
<title>Node42</title>
<g id="a_Node000042"><a xlink:href="irq__desc_8c.html#ab32b689bb2b7d1960aa47f19d9d65e90" target="_top" xlink:title=" ">
<polygon fill="#fff0f0" stroke="red" points="779.5,-232 708.5,-232 708.5,-213 779.5,-213 779.5,-232"/>
<text text-anchor="middle" x="744" y="-220" font-family="Helvetica,sans-Serif" font-size="10.00">request_irq</text>
</a>
</g>
</g>
<!-- Node39&#45;&gt;Node42 -->
<g id="edge49_Node000039_Node000042" class="edge">
<title>Node39&#45;&gt;Node42</title>
<g id="a_edge49_Node000039_Node000042"><a xlink:title=" ">
<path fill="none" stroke="#63b8ff" d="M602.59,-193.7C630.06,-199.33 668.46,-207.21 698.16,-213.3"/>
<polygon fill="#63b8ff" stroke="#63b8ff" points="697.77,-216.79 708.27,-215.38 699.17,-209.94 697.77,-216.79"/>
</a>
</g>
</g>
</g>
</svg>
