<?xml version="1.0" encoding="UTF-8" standalone="no"?>
<!DOCTYPE svg PUBLIC "-//W3C//DTD SVG 1.1//EN"
 "http://www.w3.org/Graphics/SVG/1.1/DTD/svg11.dtd">
<!-- Generated by graphviz version 2.43.0 (0)
 -->
<!-- Title: kernel_service_task_manager.c Pages: 1 -->
<!--zoomable 313 -->

<svg id="main" version="1.1" xmlns="http://www.w3.org/2000/svg" xmlns:xlink="http://www.w3.org/1999/xlink" xml:space="preserve" onload="init(evt)">
<style type="text/css"><![CDATA[
.node, .edge {opacity: 0.7;}
.node.selected, .edge.selected {opacity: 1;}
.edge:hover path { stroke: red; }
.edge:hover polygon { stroke: red; fill: red; }
]]></style>

<defs>
  <circle id="rim" cx="0" cy="0" r="7"/>
  <circle id="rim2" cx="0" cy="0" r="3.5"/>
  <g id="zoomPlus">
    <use xlink:href="#rim" fill="#404040"><set attributeName="fill" to="#808080" begin="zoomplus.mouseover" end="zoomplus.mouseout"/></use>
    <path d="M-4,0h8M0,-4v8" fill="none" stroke="white" stroke-width="1.5" pointer-events="none"/>
  </g>
  <g id="zoomMin">
    <use xlink:href="#rim" fill="#404040"><set attributeName="fill" to="#808080" begin="zoomminus.mouseover" end="zoomminus.mouseout"/></use>
    <path d="M-4,0h8" fill="none" stroke="white" stroke-width="1.5" pointer-events="none"/>
  </g>
  <g id="arrowUp" transform="translate(30 24)">
    <use xlink:href="#rim"/>
    <path pointer-events="none" fill="none" stroke="white" stroke-width="1.5" d="M0,-3.0v7 M-2.5,-0.5L0,-3.0L2.5,-0.5"/>
  </g>
  <g id="arrowRight" transform="rotate(90) translate(36 -43)">
    <use xlink:href="#rim"/>
    <path pointer-events="none" fill="none" stroke="white" stroke-width="1.5" d="M0,-3.0v7 M-2.5,-0.5L0,-3.0L2.5,-0.5"/>
  </g>
  <g id="arrowDown" transform="rotate(180) translate(-30 -48)">
    <use xlink:href="#rim"/>
    <path pointer-events="none" fill="none" stroke="white" stroke-width="1.5" d="M0,-3.0v7 M-2.5,-0.5L0,-3.0L2.5,-0.5"/>
  </g>
  <g id="arrowLeft" transform="rotate(270) translate(-36 17)">
    <use xlink:href="#rim"/>
    <path pointer-events="none" fill="none" stroke="white" stroke-width="1.5" d="M0,-3.0v7 M-2.5,-0.5L0,-3.0L2.5,-0.5"/>
  </g>
  <g id="resetDef">
    <use xlink:href="#rim2" fill="#404040"><set attributeName="fill" to="#808080" begin="reset.mouseover" end="reset.mouseout"/></use>
  </g>
</defs>
<script type="application/ecmascript">
var viewWidth = 1474;
var viewHeight = 313;
var sectionId = 'dynsection-0';
</script>
<script type="application/ecmascript" xlink:href="svg.min.js"/>
<svg id="graph" class="graph">
<g id="viewport">
<title>kernel_service_task_manager.c</title>
<!-- Node1 -->
<g id="Node000001" class="node">
<title>Node1</title>
<g id="a_Node000001"><a xlink:title=" ">
<polygon fill="#999999" stroke="#666666" points="554,-305 441,-305 441,-275 554,-275 554,-305"/>
<text text-anchor="start" x="449" y="-293" font-family="Helvetica,sans-Serif" font-size="10.00">kernel_service_task</text>
<text text-anchor="middle" x="497.5" y="-282" font-family="Helvetica,sans-Serif" font-size="10.00">_manager.c</text>
</a>
</g>
</g>
<!-- Node2 -->
<g id="Node000002" class="node">
<title>Node2</title>
<g id="a_Node000002"><a xlink:href="kernel__services_8h.html" target="_top" xlink:title=" ">
<polygon fill="white" stroke="#666666" points="727.5,-239 611.5,-239 611.5,-220 727.5,-220 727.5,-239"/>
<text text-anchor="middle" x="669.5" y="-227" font-family="Helvetica,sans-Serif" font-size="10.00">os/kernel_services.h</text>
</a>
</g>
</g>
<!-- Node1&#45;&gt;Node2 -->
<g id="edge1_Node000001_Node000002" class="edge">
<title>Node1&#45;&gt;Node2</title>
<g id="a_edge1_Node000001_Node000002"><a xlink:title=" ">
<path fill="none" stroke="#63b8ff" d="M538.7,-274.99C568,-265.02 606.92,-251.78 634.67,-242.35"/>
<polygon fill="#63b8ff" stroke="#63b8ff" points="636.01,-245.59 644.35,-239.05 633.76,-238.96 636.01,-245.59"/>
</a>
</g>
</g>
<!-- Node23 -->
<g id="Node000023" class="node">
<title>Node23</title>
<g id="a_Node000023"><a xlink:title=" ">
<polygon fill="#e0e0e0" stroke="#999999" points="418.5,-74 346.5,-74 346.5,-55 418.5,-55 418.5,-74"/>
<text text-anchor="middle" x="382.5" y="-62" font-family="Helvetica,sans-Serif" font-size="10.00">FreeRTOS.h</text>
</a>
</g>
</g>
<!-- Node1&#45;&gt;Node23 -->
<g id="edge52_Node000001_Node000023" class="edge">
<title>Node1&#45;&gt;Node23</title>
<g id="a_edge52_Node000001_Node000023"><a xlink:title=" ">
<path fill="none" stroke="#63b8ff" d="M474.01,-274.91C436.16,-250.66 363.04,-197.01 334.5,-129 326.65,-110.29 343.59,-92.16 359.47,-80.09"/>
<polygon fill="#63b8ff" stroke="#63b8ff" points="361.87,-82.68 368.02,-74.05 357.83,-76.96 361.87,-82.68"/>
</a>
</g>
</g>
<!-- Node26 -->
<g id="Node000026" class="node">
<title>Node26</title>
<g id="a_Node000026"><a xlink:title=" ">
<polygon fill="#e0e0e0" stroke="#999999" points="47,-74 0,-74 0,-55 47,-55 47,-74"/>
<text text-anchor="middle" x="23.5" y="-62" font-family="Helvetica,sans-Serif" font-size="10.00">task.h</text>
</a>
</g>
</g>
<!-- Node1&#45;&gt;Node26 -->
<g id="edge53_Node000001_Node000026" class="edge">
<title>Node1&#45;&gt;Node26</title>
<g id="a_edge53_Node000001_Node000026"><a xlink:title=" ">
<path fill="none" stroke="#63b8ff" d="M440.91,-283.1C385.86,-276.28 300.39,-262.81 229.5,-239 125.87,-204.19 66.97,-221.99 9.5,-129 0.99,-115.23 6.41,-96.95 12.82,-83.54"/>
<polygon fill="#63b8ff" stroke="#63b8ff" points="16.08,-84.87 17.71,-74.4 9.91,-81.57 16.08,-84.87"/>
</a>
</g>
</g>
<!-- Node27 -->
<g id="Node000027" class="node">
<title>Node27</title>
<g id="a_Node000027"><a xlink:title=" ">
<polygon fill="#e0e0e0" stroke="#999999" points="1466,-74 1409,-74 1409,-55 1466,-55 1466,-74"/>
<text text-anchor="middle" x="1437.5" y="-62" font-family="Helvetica,sans-Serif" font-size="10.00">timers.h</text>
</a>
</g>
</g>
<!-- Node1&#45;&gt;Node27 -->
<g id="edge54_Node000001_Node000027" class="edge">
<title>Node1&#45;&gt;Node27</title>
<g id="a_edge54_Node000001_Node000027"><a xlink:title=" ">
<path fill="none" stroke="#63b8ff" d="M554.01,-283.04C664.15,-270.63 914.74,-238.56 1119.5,-184 1187.71,-165.82 1202.35,-153.64 1268.5,-129 1316.22,-111.23 1371.43,-90.44 1405.41,-77.62"/>
<polygon fill="#63b8ff" stroke="#63b8ff" points="1406.71,-80.87 1414.83,-74.07 1404.24,-74.32 1406.71,-80.87"/>
</a>
</g>
</g>
<!-- Node31 -->
<g id="Node000031" class="node">
<title>Node31</title>
<g id="a_Node000031"><a xlink:href="kernel__task__mgr_8h.html" target="_top" xlink:title=" ">
<polygon fill="white" stroke="#666666" points="150.5,-129 30.5,-129 30.5,-110 150.5,-110 150.5,-129"/>
<text text-anchor="middle" x="90.5" y="-117" font-family="Helvetica,sans-Serif" font-size="10.00">os/kernel_task_mgr.h</text>
</a>
</g>
</g>
<!-- Node1&#45;&gt;Node31 -->
<g id="edge40_Node000001_Node000031" class="edge">
<title>Node1&#45;&gt;Node31</title>
<g id="a_edge40_Node000001_Node000031"><a xlink:title=" ">
<path fill="none" stroke="#63b8ff" d="M440.77,-282.14C394.22,-275.16 327.28,-262.03 272.5,-239 207.37,-211.62 140.07,-160.84 108.68,-135.58"/>
<polygon fill="#63b8ff" stroke="#63b8ff" points="110.77,-132.77 100.81,-129.17 106.35,-138.2 110.77,-132.77"/>
</a>
</g>
</g>
<!-- Node32 -->
<g id="Node000032" class="node">
<title>Node32</title>
<g id="a_Node000032"><a xlink:href="kernel_8h.html" target="_top" xlink:title=" ">
<polygon fill="white" stroke="#666666" points="1060.5,-184 990.5,-184 990.5,-165 1060.5,-165 1060.5,-184"/>
<text text-anchor="middle" x="1025.5" y="-172" font-family="Helvetica,sans-Serif" font-size="10.00">os/kernel.h</text>
</a>
</g>
</g>
<!-- Node1&#45;&gt;Node32 -->
<g id="edge45_Node000001_Node000032" class="edge">
<title>Node1&#45;&gt;Node32</title>
<g id="a_edge45_Node000001_Node000032"><a xlink:title=" ">
<path fill="none" stroke="#63b8ff" d="M554.03,-277.34C602.48,-267.31 674.12,-252.38 736.5,-239 822.8,-220.49 923.43,-198.23 980.29,-185.58"/>
<polygon fill="#63b8ff" stroke="#63b8ff" points="981.38,-188.92 990.38,-183.34 979.86,-182.09 981.38,-188.92"/>
</a>
</g>
</g>
<!-- Node3 -->
<g id="Node000003" class="node">
<title>Node3</title>
<g id="a_Node000003"><a xlink:href="def__std_8h.html" target="_top" xlink:title=" ">
<polygon fill="white" stroke="#666666" points="822.5,-74 760.5,-74 760.5,-55 822.5,-55 822.5,-74"/>
<text text-anchor="middle" x="791.5" y="-62" font-family="Helvetica,sans-Serif" font-size="10.00">def_std.h</text>
</a>
</g>
</g>
<!-- Node2&#45;&gt;Node3 -->
<g id="edge2_Node000002_Node000003" class="edge">
<title>Node2&#45;&gt;Node3</title>
<g id="a_edge2_Node000002_Node000003"><a xlink:title=" ">
<path fill="none" stroke="#63b8ff" d="M706.65,-219.96C749.61,-207.86 818.28,-181.14 848.5,-129 859.71,-109.66 837.9,-91.06 818.11,-79.04"/>
<polygon fill="#63b8ff" stroke="#63b8ff" points="819.7,-75.92 809.28,-74.01 816.23,-82 819.7,-75.92"/>
</a>
</g>
</g>
<!-- Node11 -->
<g id="Node000011" class="node">
<title>Node11</title>
<g id="a_Node000011"><a xlink:href="def__err_8h.html" target="_top" xlink:title=" ">
<polygon fill="white" stroke="#666666" points="1391,-74 1332,-74 1332,-55 1391,-55 1391,-74"/>
<text text-anchor="middle" x="1361.5" y="-62" font-family="Helvetica,sans-Serif" font-size="10.00">def_err.h</text>
</a>
</g>
</g>
<!-- Node2&#45;&gt;Node11 -->
<g id="edge10_Node000002_Node000011" class="edge">
<title>Node2&#45;&gt;Node11</title>
<g id="a_edge10_Node000002_Node000011"><a xlink:title=" ">
<path fill="none" stroke="#63b8ff" d="M727.75,-225.87C806.19,-221.46 949.73,-210.31 1069.5,-184 1145,-167.41 1163.08,-158.58 1234.5,-129 1271.25,-113.78 1312.14,-92.51 1337.34,-78.87"/>
<polygon fill="#63b8ff" stroke="#63b8ff" points="1339.09,-81.91 1346.19,-74.05 1335.73,-75.76 1339.09,-81.91"/>
</a>
</g>
</g>
<!-- Node12 -->
<g id="Node000012" class="node">
<title>Node12</title>
<g id="a_Node000012"><a xlink:href="conf__os_8h.html" target="_top" xlink:title=" ">
<polygon fill="white" stroke="#666666" points="839,-129 776,-129 776,-110 839,-110 839,-129"/>
<text text-anchor="middle" x="807.5" y="-117" font-family="Helvetica,sans-Serif" font-size="10.00">conf_os.h</text>
</a>
</g>
</g>
<!-- Node2&#45;&gt;Node12 -->
<g id="edge11_Node000002_Node000012" class="edge">
<title>Node2&#45;&gt;Node12</title>
<g id="a_edge11_Node000002_Node000012"><a xlink:title=" ">
<path fill="none" stroke="#63b8ff" d="M680.79,-219.66C704.36,-201.22 759.01,-158.45 788.24,-135.57"/>
<polygon fill="#63b8ff" stroke="#63b8ff" points="790.72,-138.08 796.44,-129.16 786.4,-132.57 790.72,-138.08"/>
</a>
</g>
</g>
<!-- Node14 -->
<g id="Node000014" class="node">
<title>Node14</title>
<g id="a_Node000014"><a xlink:href="mqueue_8h.html" target="_top" xlink:title=" ">
<polygon fill="white" stroke="#666666" points="711,-184 628,-184 628,-165 711,-165 711,-184"/>
<text text-anchor="middle" x="669.5" y="-172" font-family="Helvetica,sans-Serif" font-size="10.00">ipc/mqueue.h</text>
</a>
</g>
</g>
<!-- Node2&#45;&gt;Node14 -->
<g id="edge13_Node000002_Node000014" class="edge">
<title>Node2&#45;&gt;Node14</title>
<g id="a_edge13_Node000002_Node000014"><a xlink:title=" ">
<path fill="none" stroke="#63b8ff" d="M669.5,-219.75C669.5,-212.8 669.5,-202.85 669.5,-194.13"/>
<polygon fill="#63b8ff" stroke="#63b8ff" points="673,-194.09 669.5,-184.09 666,-194.09 673,-194.09"/>
</a>
</g>
</g>
<!-- Node2&#45;&gt;Node23 -->
<g id="edge38_Node000002_Node000023" class="edge">
<title>Node2&#45;&gt;Node23</title>
<g id="a_edge38_Node000002_Node000023"><a xlink:title=" ">
<path fill="none" stroke="#63b8ff" d="M616.04,-220C532.23,-205.45 376.11,-173.05 343.5,-129 331.81,-113.21 347.72,-93.8 362.59,-80.63"/>
<polygon fill="#63b8ff" stroke="#63b8ff" points="365.1,-83.1 370.57,-74.02 360.63,-77.71 365.1,-83.1"/>
</a>
</g>
</g>
<!-- Node2&#45;&gt;Node26 -->
<g id="edge39_Node000002_Node000026" class="edge">
<title>Node2&#45;&gt;Node26</title>
<g id="a_edge39_Node000002_Node000026"><a xlink:title=" ">
<path fill="none" stroke="#63b8ff" d="M611.38,-228.77C466.85,-228.07 97.43,-217.48 21.5,-129 10.97,-116.73 13.16,-97.68 16.95,-83.65"/>
<polygon fill="#63b8ff" stroke="#63b8ff" points="20.29,-84.68 19.98,-74.09 13.62,-82.56 20.29,-84.68"/>
</a>
</g>
</g>
<!-- Node4 -->
<g id="Node000004" class="node">
<title>Node4</title>
<g id="a_Node000004"><a xlink:title=" ">
<polygon fill="#e0e0e0" stroke="#999999" points="1005,-19 952,-19 952,0 1005,0 1005,-19"/>
<text text-anchor="middle" x="978.5" y="-7" font-family="Helvetica,sans-Serif" font-size="10.00">stdlib.h</text>
</a>
</g>
</g>
<!-- Node3&#45;&gt;Node4 -->
<g id="edge3_Node000003_Node000004" class="edge">
<title>Node3&#45;&gt;Node4</title>
<g id="a_edge3_Node000003_Node000004"><a xlink:title=" ">
<path fill="none" stroke="#63b8ff" d="M821.54,-54.98C854.34,-45.69 906.85,-30.81 942,-20.85"/>
<polygon fill="#63b8ff" stroke="#63b8ff" points="943.19,-24.14 951.86,-18.05 941.29,-17.41 943.19,-24.14"/>
</a>
</g>
</g>
<!-- Node5 -->
<g id="Node000005" class="node">
<title>Node5</title>
<g id="a_Node000005"><a xlink:title=" ">
<polygon fill="#e0e0e0" stroke="#999999" points="642,-19 591,-19 591,0 642,0 642,-19"/>
<text text-anchor="middle" x="616.5" y="-7" font-family="Helvetica,sans-Serif" font-size="10.00">errno.h</text>
</a>
</g>
</g>
<!-- Node3&#45;&gt;Node5 -->
<g id="edge4_Node000003_Node000005" class="edge">
<title>Node3&#45;&gt;Node5</title>
<g id="a_edge4_Node000003_Node000005"><a xlink:title=" ">
<path fill="none" stroke="#63b8ff" d="M763.38,-54.98C733.09,-45.81 684.81,-31.19 651.94,-21.23"/>
<polygon fill="#63b8ff" stroke="#63b8ff" points="652.85,-17.85 642.27,-18.3 650.82,-24.55 652.85,-17.85"/>
</a>
</g>
</g>
<!-- Node6 -->
<g id="Node000006" class="node">
<title>Node6</title>
<g id="a_Node000006"><a xlink:title=" ">
<polygon fill="#e0e0e0" stroke="#999999" points="710.5,-19 660.5,-19 660.5,0 710.5,0 710.5,-19"/>
<text text-anchor="middle" x="685.5" y="-7" font-family="Helvetica,sans-Serif" font-size="10.00">stdio.h</text>
</a>
</g>
</g>
<!-- Node3&#45;&gt;Node6 -->
<g id="edge5_Node000003_Node000006" class="edge">
<title>Node3&#45;&gt;Node6</title>
<g id="a_edge5_Node000003_Node000006"><a xlink:title=" ">
<path fill="none" stroke="#63b8ff" d="M774.47,-54.98C757.57,-46.54 731.44,-33.47 711.86,-23.68"/>
<polygon fill="#63b8ff" stroke="#63b8ff" points="713.35,-20.51 702.84,-19.17 710.22,-26.77 713.35,-20.51"/>
</a>
</g>
</g>
<!-- Node7 -->
<g id="Node000007" class="node">
<title>Node7</title>
<g id="a_Node000007"><a xlink:title=" ">
<polygon fill="#e0e0e0" stroke="#999999" points="784,-19 729,-19 729,0 784,0 784,-19"/>
<text text-anchor="middle" x="756.5" y="-7" font-family="Helvetica,sans-Serif" font-size="10.00">signal.h</text>
</a>
</g>
</g>
<!-- Node3&#45;&gt;Node7 -->
<g id="edge6_Node000003_Node000007" class="edge">
<title>Node3&#45;&gt;Node7</title>
<g id="a_edge6_Node000003_Node000007"><a xlink:title=" ">
<path fill="none" stroke="#63b8ff" d="M785.72,-54.75C780.88,-47.42 773.82,-36.73 767.86,-27.7"/>
<polygon fill="#63b8ff" stroke="#63b8ff" points="770.6,-25.5 762.17,-19.09 764.76,-29.36 770.6,-25.5"/>
</a>
</g>
</g>
<!-- Node8 -->
<g id="Node000008" class="node">
<title>Node8</title>
<g id="a_Node000008"><a xlink:title=" ">
<polygon fill="#e0e0e0" stroke="#999999" points="850.5,-19 802.5,-19 802.5,0 850.5,0 850.5,-19"/>
<text text-anchor="middle" x="826.5" y="-7" font-family="Helvetica,sans-Serif" font-size="10.00">time.h</text>
</a>
</g>
</g>
<!-- Node3&#45;&gt;Node8 -->
<g id="edge7_Node000003_Node000008" class="edge">
<title>Node3&#45;&gt;Node8</title>
<g id="a_edge7_Node000003_Node000008"><a xlink:title=" ">
<path fill="none" stroke="#63b8ff" d="M797.28,-54.75C802.12,-47.42 809.18,-36.73 815.14,-27.7"/>
<polygon fill="#63b8ff" stroke="#63b8ff" points="818.24,-29.36 820.83,-19.09 812.4,-25.5 818.24,-29.36"/>
</a>
</g>
</g>
<!-- Node9 -->
<g id="Node000009" class="node">
<title>Node9</title>
<g id="a_Node000009"><a xlink:title=" ">
<polygon fill="#e0e0e0" stroke="#999999" points="240,-19 187,-19 187,0 240,0 240,-19"/>
<text text-anchor="middle" x="213.5" y="-7" font-family="Helvetica,sans-Serif" font-size="10.00">stdint.h</text>
</a>
</g>
</g>
<!-- Node3&#45;&gt;Node9 -->
<g id="edge8_Node000003_Node000009" class="edge">
<title>Node3&#45;&gt;Node9</title>
<g id="a_edge8_Node000003_Node000009"><a xlink:title=" ">
<path fill="none" stroke="#63b8ff" d="M760.13,-56.44C757.22,-55.9 754.31,-55.41 751.5,-55 564.35,-27.49 337.89,-15.7 250.43,-11.94"/>
<polygon fill="#63b8ff" stroke="#63b8ff" points="250.36,-8.43 240.23,-11.51 250.07,-15.43 250.36,-8.43"/>
</a>
</g>
</g>
<!-- Node10 -->
<g id="Node000010" class="node">
<title>Node10</title>
<g id="a_Node000010"><a xlink:title=" ">
<polygon fill="#e0e0e0" stroke="#999999" points="934,-19 869,-19 869,0 934,0 934,-19"/>
<text text-anchor="middle" x="901.5" y="-7" font-family="Helvetica,sans-Serif" font-size="10.00">inttypes.h</text>
</a>
</g>
</g>
<!-- Node3&#45;&gt;Node10 -->
<g id="edge9_Node000003_Node000010" class="edge">
<title>Node3&#45;&gt;Node10</title>
<g id="a_edge9_Node000003_Node000010"><a xlink:title=" ">
<path fill="none" stroke="#63b8ff" d="M809.17,-54.98C826.79,-46.5 854.08,-33.35 874.43,-23.54"/>
<polygon fill="#63b8ff" stroke="#63b8ff" points="876.02,-26.66 883.51,-19.17 872.98,-20.36 876.02,-26.66"/>
</a>
</g>
</g>
<!-- Node13 -->
<g id="Node000013" class="node">
<title>Node13</title>
<g id="a_Node000013"><a xlink:href="autoconf_8h.html" target="_top" xlink:title=" ">
<polygon fill="white" stroke="#666666" points="742.5,-74 674.5,-74 674.5,-55 742.5,-55 742.5,-74"/>
<text text-anchor="middle" x="708.5" y="-62" font-family="Helvetica,sans-Serif" font-size="10.00">autoconf.h</text>
</a>
</g>
</g>
<!-- Node12&#45;&gt;Node13 -->
<g id="edge12_Node000012_Node000013" class="edge">
<title>Node12&#45;&gt;Node13</title>
<g id="a_edge12_Node000012_Node000013"><a xlink:title=" ">
<path fill="none" stroke="#63b8ff" d="M791.59,-109.98C775.95,-101.61 751.84,-88.7 733.62,-78.95"/>
<polygon fill="#63b8ff" stroke="#63b8ff" points="735.16,-75.8 724.7,-74.17 731.86,-81.98 735.16,-75.8"/>
</a>
</g>
</g>
<!-- Node14&#45;&gt;Node3 -->
<g id="edge14_Node000014_Node000003" class="edge">
<title>Node14&#45;&gt;Node3</title>
<g id="a_edge14_Node000014_Node000003"><a xlink:title=" ">
<path fill="none" stroke="#63b8ff" d="M679.48,-164.66C700.23,-146.3 748.22,-103.81 774.14,-80.87"/>
<polygon fill="#63b8ff" stroke="#63b8ff" points="776.55,-83.41 781.72,-74.16 771.91,-78.17 776.55,-83.41"/>
</a>
</g>
</g>
<!-- Node14&#45;&gt;Node12 -->
<g id="edge20_Node000014_Node000012" class="edge">
<title>Node14&#45;&gt;Node12</title>
<g id="a_edge20_Node000014_Node000012"><a xlink:title=" ">
<path fill="none" stroke="#63b8ff" d="M691.67,-164.98C714.27,-156.3 749.56,-142.75 775.25,-132.88"/>
<polygon fill="#63b8ff" stroke="#63b8ff" points="776.84,-136.02 784.92,-129.17 774.33,-129.49 776.84,-136.02"/>
</a>
</g>
</g>
<!-- Node15 -->
<g id="Node000015" class="node">
<title>Node15</title>
<g id="a_Node000015"><a xlink:href="def__compiler_8h.html" target="_top" xlink:title=" ">
<polygon fill="white" stroke="#666666" points="558,-129 469,-129 469,-110 558,-110 558,-129"/>
<text text-anchor="middle" x="513.5" y="-117" font-family="Helvetica,sans-Serif" font-size="10.00">def_compiler.h</text>
</a>
</g>
</g>
<!-- Node14&#45;&gt;Node15 -->
<g id="edge15_Node000014_Node000015" class="edge">
<title>Node14&#45;&gt;Node15</title>
<g id="a_edge15_Node000014_Node000015"><a xlink:title=" ">
<path fill="none" stroke="#63b8ff" d="M644.44,-164.98C618.47,-156.16 577.69,-142.31 548.54,-132.41"/>
<polygon fill="#63b8ff" stroke="#63b8ff" points="549.35,-128.99 538.76,-129.08 547.1,-135.61 549.35,-128.99"/>
</a>
</g>
</g>
<!-- Node16 -->
<g id="Node000016" class="node">
<title>Node16</title>
<g id="a_Node000016"><a xlink:href="list_8h.html" target="_top" xlink:title="All linked list operation functions definitions and macros.">
<polygon fill="white" stroke="#666666" points="997,-129 934,-129 934,-110 997,-110 997,-129"/>
<text text-anchor="middle" x="965.5" y="-117" font-family="Helvetica,sans-Serif" font-size="10.00">mm/list.h</text>
</a>
</g>
</g>
<!-- Node14&#45;&gt;Node16 -->
<g id="edge16_Node000014_Node000016" class="edge">
<title>Node14&#45;&gt;Node16</title>
<g id="a_edge16_Node000014_Node000016"><a xlink:title=" ">
<path fill="none" stroke="#63b8ff" d="M711.28,-166.02C767.69,-155.92 867.61,-138.03 923.92,-127.95"/>
<polygon fill="#63b8ff" stroke="#63b8ff" points="924.68,-131.37 933.9,-126.16 923.44,-124.48 924.68,-131.37"/>
</a>
</g>
</g>
<!-- Node17 -->
<g id="Node000017" class="node">
<title>Node17</title>
<g id="a_Node000017"><a xlink:href="def__env__macros_8h.html" target="_top" xlink:title=" ">
<polygon fill="white" stroke="#666666" points="681.5,-129 575.5,-129 575.5,-110 681.5,-110 681.5,-129"/>
<text text-anchor="middle" x="628.5" y="-117" font-family="Helvetica,sans-Serif" font-size="10.00">def_env_macros.h</text>
</a>
</g>
</g>
<!-- Node14&#45;&gt;Node17 -->
<g id="edge18_Node000014_Node000017" class="edge">
<title>Node14&#45;&gt;Node17</title>
<g id="a_edge18_Node000014_Node000017"><a xlink:title=" ">
<path fill="none" stroke="#63b8ff" d="M662.73,-164.75C656.94,-157.26 648.44,-146.28 641.36,-137.13"/>
<polygon fill="#63b8ff" stroke="#63b8ff" points="644.03,-134.86 635.14,-129.09 638.49,-139.14 644.03,-134.86"/>
</a>
</g>
</g>
<!-- Node18 -->
<g id="Node000018" class="node">
<title>Node18</title>
<g id="a_Node000018"><a xlink:href="def__hw_8h.html" target="_top" xlink:title=" ">
<polygon fill="white" stroke="#666666" points="412.5,-129 352.5,-129 352.5,-110 412.5,-110 412.5,-129"/>
<text text-anchor="middle" x="382.5" y="-117" font-family="Helvetica,sans-Serif" font-size="10.00">def_hw.h</text>
</a>
</g>
</g>
<!-- Node14&#45;&gt;Node18 -->
<g id="edge19_Node000014_Node000018" class="edge">
<title>Node14&#45;&gt;Node18</title>
<g id="a_edge19_Node000014_Node000018"><a xlink:title=" ">
<path fill="none" stroke="#63b8ff" d="M627.77,-165.98C579.34,-157.23 497.1,-142.28 426.5,-129 425.25,-128.77 423.99,-128.53 422.71,-128.28"/>
<polygon fill="#63b8ff" stroke="#63b8ff" points="423.27,-124.83 412.79,-126.39 421.96,-131.7 423.27,-124.83"/>
</a>
</g>
</g>
<!-- Node19 -->
<g id="Node000019" class="node">
<title>Node19</title>
<g id="a_Node000019"><a xlink:href="ipc_2ringbuffer_8h.html" target="_top" xlink:title=" ">
<polygon fill="white" stroke="#666666" points="258,-129 169,-129 169,-110 258,-110 258,-129"/>
<text text-anchor="middle" x="213.5" y="-117" font-family="Helvetica,sans-Serif" font-size="10.00">ipc/ringbuffer.h</text>
</a>
</g>
</g>
<!-- Node14&#45;&gt;Node19 -->
<g id="edge21_Node000014_Node000019" class="edge">
<title>Node14&#45;&gt;Node19</title>
<g id="a_edge21_Node000014_Node000019"><a xlink:title=" ">
<path fill="none" stroke="#63b8ff" d="M627.82,-168.66C545.18,-159.05 360.55,-137.59 268.24,-126.86"/>
<polygon fill="#63b8ff" stroke="#63b8ff" points="268.59,-123.38 258.26,-125.7 267.79,-130.33 268.59,-123.38"/>
</a>
</g>
</g>
<!-- Node21 -->
<g id="Node000021" class="node">
<title>Node21</title>
<g id="a_Node000021"><a xlink:href="os_2kernel__mem_8h.html" target="_top" xlink:title=" ">
<polygon fill="white" stroke="#666666" points="1155,-129 1054,-129 1054,-110 1155,-110 1155,-129"/>
<text text-anchor="middle" x="1104.5" y="-117" font-family="Helvetica,sans-Serif" font-size="10.00">os/kernel_mem.h</text>
</a>
</g>
</g>
<!-- Node14&#45;&gt;Node21 -->
<g id="edge24_Node000014_Node000021" class="edge">
<title>Node14&#45;&gt;Node21</title>
<g id="a_edge24_Node000014_Node000021"><a xlink:title=" ">
<path fill="none" stroke="#63b8ff" d="M711.21,-168.42C788.51,-159 954.28,-138.8 1043.94,-127.88"/>
<polygon fill="#63b8ff" stroke="#63b8ff" points="1044.45,-131.34 1053.96,-126.66 1043.61,-124.39 1044.45,-131.34"/>
</a>
</g>
</g>
<!-- Node14&#45;&gt;Node23 -->
<g id="edge36_Node000014_Node000023" class="edge">
<title>Node14&#45;&gt;Node23</title>
<g id="a_edge36_Node000014_Node000023"><a xlink:title=" ">
<path fill="none" stroke="#63b8ff" d="M627.99,-170.45C584.43,-165.95 514.87,-155.03 460.5,-129 435.78,-117.17 412.06,-95.98 397.4,-81.35"/>
<polygon fill="#63b8ff" stroke="#63b8ff" points="399.72,-78.72 390.24,-74 394.71,-83.61 399.72,-78.72"/>
</a>
</g>
</g>
<!-- Node25 -->
<g id="Node000025" class="node">
<title>Node25</title>
<g id="a_Node000025"><a xlink:title=" ">
<polygon fill="#e0e0e0" stroke="#999999" points="656.5,-74 600.5,-74 600.5,-55 656.5,-55 656.5,-74"/>
<text text-anchor="middle" x="628.5" y="-62" font-family="Helvetica,sans-Serif" font-size="10.00">queue.h</text>
</a>
</g>
</g>
<!-- Node14&#45;&gt;Node25 -->
<g id="edge37_Node000014_Node000025" class="edge">
<title>Node14&#45;&gt;Node25</title>
<g id="a_edge37_Node000014_Node000025"><a xlink:title=" ">
<path fill="none" stroke="#63b8ff" d="M676.48,-164.95C685.78,-152.43 700.04,-128.6 690.5,-110 683.54,-96.44 670.31,-86.07 657.85,-78.78"/>
<polygon fill="#63b8ff" stroke="#63b8ff" points="659.48,-75.68 649.02,-74 656.15,-81.84 659.48,-75.68"/>
</a>
</g>
</g>
<!-- Node16&#45;&gt;Node3 -->
<g id="edge17_Node000016_Node000003" class="edge">
<title>Node16&#45;&gt;Node3</title>
<g id="a_edge17_Node000016_Node000003"><a xlink:title=" ">
<path fill="none" stroke="#63b8ff" d="M937.54,-109.98C908.2,-101.05 861.9,-86.94 829.31,-77.02"/>
<polygon fill="#63b8ff" stroke="#63b8ff" points="830.26,-73.65 819.68,-74.08 828.22,-80.34 830.26,-73.65"/>
</a>
</g>
</g>
<!-- Node19&#45;&gt;Node9 -->
<g id="edge22_Node000019_Node000009" class="edge">
<title>Node19&#45;&gt;Node9</title>
<g id="a_edge22_Node000019_Node000009"><a xlink:title=" ">
<path fill="none" stroke="#63b8ff" d="M213.5,-109.66C213.5,-92.17 213.5,-52.8 213.5,-29.27"/>
<polygon fill="#63b8ff" stroke="#63b8ff" points="217,-29.16 213.5,-19.16 210,-29.16 217,-29.16"/>
</a>
</g>
</g>
<!-- Node20 -->
<g id="Node000020" class="node">
<title>Node20</title>
<g id="a_Node000020"><a xlink:title=" ">
<polygon fill="#e0e0e0" stroke="#999999" points="180.5,-74 124.5,-74 124.5,-55 180.5,-55 180.5,-74"/>
<text text-anchor="middle" x="152.5" y="-62" font-family="Helvetica,sans-Serif" font-size="10.00">stddef.h</text>
</a>
</g>
</g>
<!-- Node19&#45;&gt;Node20 -->
<g id="edge23_Node000019_Node000020" class="edge">
<title>Node19&#45;&gt;Node20</title>
<g id="a_edge23_Node000019_Node000020"><a xlink:title=" ">
<path fill="none" stroke="#63b8ff" d="M203.7,-109.98C194.68,-102.15 181.09,-90.34 170.18,-80.86"/>
<polygon fill="#63b8ff" stroke="#63b8ff" points="172.32,-78.09 162.48,-74.17 167.73,-83.37 172.32,-78.09"/>
</a>
</g>
</g>
<!-- Node21&#45;&gt;Node3 -->
<g id="edge25_Node000021_Node000003" class="edge">
<title>Node21&#45;&gt;Node3</title>
<g id="a_edge25_Node000021_Node000003"><a xlink:title=" ">
<path fill="none" stroke="#63b8ff" d="M1053.76,-110.85C1001.12,-102.78 916.2,-89.33 832.72,-73.97"/>
<polygon fill="#63b8ff" stroke="#63b8ff" points="833.28,-70.51 822.81,-72.13 832.01,-77.4 833.28,-70.51"/>
</a>
</g>
</g>
<!-- Node21&#45;&gt;Node11 -->
<g id="edge26_Node000021_Node000011" class="edge">
<title>Node21&#45;&gt;Node11</title>
<g id="a_edge26_Node000021_Node000011"><a xlink:title=" ">
<path fill="none" stroke="#63b8ff" d="M1147.14,-109.97C1189.05,-101.55 1255.1,-88.17 1321.85,-74.12"/>
<polygon fill="#63b8ff" stroke="#63b8ff" points="1322.64,-77.53 1331.7,-72.04 1321.19,-70.68 1322.64,-77.53"/>
</a>
</g>
</g>
<!-- Node22 -->
<g id="Node000022" class="node">
<title>Node22</title>
<g id="a_Node000022"><a xlink:href="def__attributes_8h.html" target="_top" xlink:title=" ">
<polygon fill="white" stroke="#666666" points="1313.5,-74 1219.5,-74 1219.5,-55 1313.5,-55 1313.5,-74"/>
<text text-anchor="middle" x="1266.5" y="-62" font-family="Helvetica,sans-Serif" font-size="10.00">def_attributes.h</text>
</a>
</g>
</g>
<!-- Node21&#45;&gt;Node22 -->
<g id="edge27_Node000021_Node000022" class="edge">
<title>Node21&#45;&gt;Node22</title>
<g id="a_edge27_Node000021_Node000022"><a xlink:title=" ">
<path fill="none" stroke="#63b8ff" d="M1130.53,-109.98C1157.61,-101.13 1200.21,-87.19 1230.51,-77.28"/>
<polygon fill="#63b8ff" stroke="#63b8ff" points="1231.85,-80.52 1240.27,-74.08 1229.68,-73.87 1231.85,-80.52"/>
</a>
</g>
</g>
<!-- Node21&#45;&gt;Node23 -->
<g id="edge28_Node000021_Node000023" class="edge">
<title>Node21&#45;&gt;Node23</title>
<g id="a_edge28_Node000021_Node000023"><a xlink:title=" ">
<path fill="none" stroke="#63b8ff" d="M1053.9,-113.96C1038.67,-112.64 1021.91,-111.22 1006.5,-110 790.61,-92.94 532.45,-75.46 428.86,-68.56"/>
<polygon fill="#63b8ff" stroke="#63b8ff" points="428.95,-65.06 418.74,-67.89 428.48,-72.05 428.95,-65.06"/>
</a>
</g>
</g>
<!-- Node24 -->
<g id="Node000024" class="node">
<title>Node24</title>
<g id="a_Node000024"><a xlink:title=" ">
<polygon fill="#e0e0e0" stroke="#999999" points="1011,-74 952,-74 952,-55 1011,-55 1011,-74"/>
<text text-anchor="middle" x="981.5" y="-62" font-family="Helvetica,sans-Serif" font-size="10.00">atomic.h</text>
</a>
</g>
</g>
<!-- Node21&#45;&gt;Node24 -->
<g id="edge29_Node000021_Node000024" class="edge">
<title>Node21&#45;&gt;Node24</title>
<g id="a_edge29_Node000021_Node000024"><a xlink:title=" ">
<path fill="none" stroke="#63b8ff" d="M1084.74,-109.98C1064.77,-101.38 1033.7,-87.99 1010.85,-78.15"/>
<polygon fill="#63b8ff" stroke="#63b8ff" points="1012.19,-74.91 1001.62,-74.17 1009.42,-81.34 1012.19,-74.91"/>
</a>
</g>
</g>
<!-- Node21&#45;&gt;Node25 -->
<g id="edge30_Node000021_Node000025" class="edge">
<title>Node21&#45;&gt;Node25</title>
<g id="a_edge30_Node000021_Node000025"><a xlink:title=" ">
<path fill="none" stroke="#63b8ff" d="M1053.77,-114.16C958.55,-105.89 755.36,-87.6 666.69,-73.96"/>
<polygon fill="#63b8ff" stroke="#63b8ff" points="667.14,-70.49 656.71,-72.36 666.03,-77.4 667.14,-70.49"/>
</a>
</g>
</g>
<!-- Node21&#45;&gt;Node26 -->
<g id="edge31_Node000021_Node000026" class="edge">
<title>Node21&#45;&gt;Node26</title>
<g id="a_edge31_Node000021_Node000026"><a xlink:title=" ">
<path fill="none" stroke="#63b8ff" d="M1053.92,-113.66C1038.69,-112.33 1021.92,-110.98 1006.5,-110 610.97,-84.87 510.95,-100.24 115.5,-74 96.28,-72.72 74.85,-70.78 57.51,-69.07"/>
<polygon fill="#63b8ff" stroke="#63b8ff" points="57.6,-65.56 47.3,-68.04 56.9,-72.52 57.6,-65.56"/>
</a>
</g>
</g>
<!-- Node21&#45;&gt;Node27 -->
<g id="edge32_Node000021_Node000027" class="edge">
<title>Node21&#45;&gt;Node27</title>
<g id="a_edge32_Node000021_Node000027"><a xlink:title=" ">
<path fill="none" stroke="#63b8ff" d="M1155.24,-112.07C1212.28,-104.58 1307.84,-91.23 1398.93,-74.18"/>
<polygon fill="#63b8ff" stroke="#63b8ff" points="1399.69,-77.6 1408.86,-72.31 1398.39,-70.72 1399.69,-77.6"/>
</a>
</g>
</g>
<!-- Node28 -->
<g id="Node000028" class="node">
<title>Node28</title>
<g id="a_Node000028"><a xlink:title=" ">
<polygon fill="#e0e0e0" stroke="#999999" points="1091.5,-74 1029.5,-74 1029.5,-55 1091.5,-55 1091.5,-74"/>
<text text-anchor="middle" x="1060.5" y="-62" font-family="Helvetica,sans-Serif" font-size="10.00">semphr.h</text>
</a>
</g>
</g>
<!-- Node21&#45;&gt;Node28 -->
<g id="edge33_Node000021_Node000028" class="edge">
<title>Node21&#45;&gt;Node28</title>
<g id="a_edge33_Node000021_Node000028"><a xlink:title=" ">
<path fill="none" stroke="#63b8ff" d="M1097.23,-109.75C1090.96,-102.18 1081.71,-91.05 1074.07,-81.84"/>
<polygon fill="#63b8ff" stroke="#63b8ff" points="1076.71,-79.55 1067.63,-74.09 1071.33,-84.02 1076.71,-79.55"/>
</a>
</g>
</g>
<!-- Node29 -->
<g id="Node000029" class="node">
<title>Node29</title>
<g id="a_Node000029"><a xlink:title=" ">
<polygon fill="#e0e0e0" stroke="#999999" points="1201.5,-74 1109.5,-74 1109.5,-55 1201.5,-55 1201.5,-74"/>
<text text-anchor="middle" x="1155.5" y="-62" font-family="Helvetica,sans-Serif" font-size="10.00">event_groups.h</text>
</a>
</g>
</g>
<!-- Node21&#45;&gt;Node29 -->
<g id="edge34_Node000021_Node000029" class="edge">
<title>Node21&#45;&gt;Node29</title>
<g id="a_edge34_Node000021_Node000029"><a xlink:title=" ">
<path fill="none" stroke="#63b8ff" d="M1112.92,-109.75C1120.27,-102.11 1131.13,-90.82 1140.04,-81.56"/>
<polygon fill="#63b8ff" stroke="#63b8ff" points="1142.82,-83.72 1147.24,-74.09 1137.78,-78.87 1142.82,-83.72"/>
</a>
</g>
</g>
<!-- Node30 -->
<g id="Node000030" class="node">
<title>Node30</title>
<g id="a_Node000030"><a xlink:title=" ">
<polygon fill="#e0e0e0" stroke="#999999" points="934,-74 841,-74 841,-55 934,-55 934,-74"/>
<text text-anchor="middle" x="887.5" y="-62" font-family="Helvetica,sans-Serif" font-size="10.00">stream_buffer.h</text>
</a>
</g>
</g>
<!-- Node21&#45;&gt;Node30 -->
<g id="edge35_Node000021_Node000030" class="edge">
<title>Node21&#45;&gt;Node30</title>
<g id="a_edge35_Node000021_Node000030"><a xlink:title=" ">
<path fill="none" stroke="#63b8ff" d="M1069.64,-109.98C1032.41,-100.89 973.3,-86.46 932.57,-76.51"/>
<polygon fill="#63b8ff" stroke="#63b8ff" points="933.18,-73.05 922.64,-74.08 931.52,-79.85 933.18,-73.05"/>
</a>
</g>
</g>
<!-- Node31&#45;&gt;Node9 -->
<g id="edge41_Node000031_Node000009" class="edge">
<title>Node31&#45;&gt;Node9</title>
<g id="a_edge41_Node000031_Node000009"><a xlink:title=" ">
<path fill="none" stroke="#63b8ff" d="M91.84,-109.57C94.28,-96.13 100.65,-70.63 115.5,-55 132.09,-37.54 156.82,-26.38 177.29,-19.6"/>
<polygon fill="#63b8ff" stroke="#63b8ff" points="178.42,-22.92 186.94,-16.62 176.35,-16.23 178.42,-22.92"/>
</a>
</g>
</g>
<!-- Node31&#45;&gt;Node20 -->
<g id="edge42_Node000031_Node000020" class="edge">
<title>Node31&#45;&gt;Node20</title>
<g id="a_edge42_Node000031_Node000020"><a xlink:title=" ">
<path fill="none" stroke="#63b8ff" d="M100.46,-109.98C109.63,-102.15 123.44,-90.34 134.53,-80.86"/>
<polygon fill="#63b8ff" stroke="#63b8ff" points="137.03,-83.33 142.36,-74.17 132.48,-78.01 137.03,-83.33"/>
</a>
</g>
</g>
<!-- Node31&#45;&gt;Node23 -->
<g id="edge43_Node000031_Node000023" class="edge">
<title>Node31&#45;&gt;Node23</title>
<g id="a_edge43_Node000031_Node000023"><a xlink:title=" ">
<path fill="none" stroke="#63b8ff" d="M137.41,-109.98C192.09,-100.06 281.87,-83.77 336.25,-73.89"/>
<polygon fill="#63b8ff" stroke="#63b8ff" points="337.09,-77.3 346.31,-72.07 335.84,-70.41 337.09,-77.3"/>
</a>
</g>
</g>
<!-- Node31&#45;&gt;Node26 -->
<g id="edge44_Node000031_Node000026" class="edge">
<title>Node31&#45;&gt;Node26</title>
<g id="a_edge44_Node000031_Node000026"><a xlink:title=" ">
<path fill="none" stroke="#63b8ff" d="M79.74,-109.98C69.73,-102.07 54.61,-90.11 42.57,-80.58"/>
<polygon fill="#63b8ff" stroke="#63b8ff" points="44.47,-77.63 34.46,-74.17 40.13,-83.12 44.47,-77.63"/>
</a>
</g>
</g>
<!-- Node32&#45;&gt;Node3 -->
<g id="edge47_Node000032_Node000003" class="edge">
<title>Node32&#45;&gt;Node3</title>
<g id="a_edge47_Node000032_Node000003"><a xlink:title=" ">
<path fill="none" stroke="#63b8ff" d="M1025.54,-164.65C1025.09,-150.85 1022.11,-124.31 1006.5,-110 950.56,-58.72 912.86,-87.54 832.82,-73.88"/>
<polygon fill="#63b8ff" stroke="#63b8ff" points="833.31,-70.42 822.84,-72 832.02,-77.29 833.31,-70.42"/>
</a>
</g>
</g>
<!-- Node32&#45;&gt;Node11 -->
<g id="edge48_Node000032_Node000011" class="edge">
<title>Node32&#45;&gt;Node11</title>
<g id="a_edge48_Node000032_Node000011"><a xlink:title=" ">
<path fill="none" stroke="#63b8ff" d="M1060.66,-165.49C1095.26,-157.32 1149.46,-143.78 1195.5,-129 1243.96,-113.44 1298.88,-91.57 1331.82,-77.98"/>
<polygon fill="#63b8ff" stroke="#63b8ff" points="1333.42,-81.11 1341.31,-74.05 1330.73,-74.65 1333.42,-81.11"/>
</a>
</g>
</g>
<!-- Node32&#45;&gt;Node16 -->
<g id="edge50_Node000032_Node000016" class="edge">
<title>Node32&#45;&gt;Node16</title>
<g id="a_edge50_Node000032_Node000016"><a xlink:title=" ">
<path fill="none" stroke="#63b8ff" d="M1015.86,-164.98C1006.99,-157.15 993.63,-145.34 982.89,-135.86"/>
<polygon fill="#63b8ff" stroke="#63b8ff" points="985.13,-133.17 975.32,-129.17 980.49,-138.41 985.13,-133.17"/>
</a>
</g>
</g>
<!-- Node32&#45;&gt;Node21 -->
<g id="edge51_Node000032_Node000021" class="edge">
<title>Node32&#45;&gt;Node21</title>
<g id="a_edge51_Node000032_Node000021"><a xlink:title=" ">
<path fill="none" stroke="#63b8ff" d="M1038.19,-164.98C1050.33,-156.84 1068.86,-144.41 1083.25,-134.76"/>
<polygon fill="#63b8ff" stroke="#63b8ff" points="1085.22,-137.65 1091.58,-129.17 1081.32,-131.84 1085.22,-137.65"/>
</a>
</g>
</g>
<!-- Node32&#45;&gt;Node22 -->
<g id="edge46_Node000032_Node000022" class="edge">
<title>Node32&#45;&gt;Node22</title>
<g id="a_edge46_Node000032_Node000022"><a xlink:title=" ">
<path fill="none" stroke="#63b8ff" d="M1060.09,-164.98C1088.77,-157.33 1130.24,-144.85 1164.5,-129 1194.54,-115.1 1226.54,-94.03 1246.51,-80.02"/>
<polygon fill="#63b8ff" stroke="#63b8ff" points="1248.68,-82.78 1254.8,-74.14 1244.62,-77.08 1248.68,-82.78"/>
</a>
</g>
</g>
<!-- Node32&#45;&gt;Node23 -->
<g id="edge49_Node000032_Node000023" class="edge">
<title>Node32&#45;&gt;Node23</title>
<g id="a_edge49_Node000032_Node000023"><a xlink:title=" ">
<path fill="none" stroke="#63b8ff" d="M1006.59,-164.94C974.7,-150.91 907.92,-123.28 848.5,-110 697.36,-76.23 513.04,-68.08 428.66,-66.12"/>
<polygon fill="#63b8ff" stroke="#63b8ff" points="428.71,-62.62 418.64,-65.9 428.56,-69.62 428.71,-62.62"/>
</a>
</g>
</g>
</g>
</svg>

<g id="navigator" transform="translate(0 0)" fill="#404254">
  <rect fill="#f2f5e9" fill-opacity="0.5" stroke="#606060" stroke-width=".5" x="0" y="0" width="60" height="60"/>
  <use id="zoomplus" xlink:href="#zoomPlus" x="17" y="9" onmousedown="handleZoom(evt,'in')"/>
  <use id="zoomminus" xlink:href="#zoomMin" x="42" y="9" onmousedown="handleZoom(evt,'out')"/>
  <use id="reset" xlink:href="#resetDef" x="30" y="36" onmousedown="handleReset()"/>
   <use id="arrowup" xlink:href="#arrowUp" x="0" y="0" onmousedown="handlePan(0,-1)"/>
  <use id="arrowright" xlink:href="#arrowRight" x="0" y="0" onmousedown="handlePan(1,0)"/>
  <use id="arrowdown" xlink:href="#arrowDown" x="0" y="0" onmousedown="handlePan(0,1)"/>
  <use id="arrowleft" xlink:href="#arrowLeft" x="0" y="0" onmousedown="handlePan(-1,0)"/>
</g>
<svg viewBox="0 0 15 15" width="100%" height="30px" preserveAspectRatio="xMaxYMin meet">
 <g id="arrow_out" transform="scale(0.3 0.3)">
  <a xlink:href="kernel__service__task__manager_8c__incl_org.svg" target="_base">
   <rect id="button" ry="5" rx="5" y="6" x="6" height="38" width="38"
        fill="#f2f5e9" fill-opacity="0.5" stroke="#606060" stroke-width="1.0"/>
   <path id="arrow"
     d="M 11.500037,31.436501 C 11.940474,20.09759 22.043105,11.32322 32.158766,21.979434 L 37.068811,17.246167 C 37.068811,17.246167 37.088388,32 37.088388,32 L 22.160133,31.978069 C 22.160133,31.978069 26.997745,27.140456 26.997745,27.140456 C 18.528582,18.264221 13.291696,25.230495 11.500037,31.436501 z"
     style="fill:#404040;"/>
  </a>
 </g>
</svg>

<style type='text/css'>
<![CDATA[
[data-mouse-over-selected='false'] { opacity: 0.7; }
[data-mouse-over-selected='true']  { opacity: 1.0; }
]]>
</style>
<script type="application/ecmascript"><![CDATA[
document.addEventListener('DOMContentLoaded', (event) => {
  highlightEdges();
  highlightAdjacentNodes();
});
]]></script>
</svg>
