<?xml version="1.0" encoding="UTF-8" standalone="no"?>
<!DOCTYPE svg PUBLIC "-//W3C//DTD SVG 1.1//EN"
 "http://www.w3.org/Graphics/SVG/1.1/DTD/svg11.dtd">
<!-- Generated by graphviz version 2.43.0 (0)
 -->
<!-- Title: kernel.h Pages: 1 -->
<svg width="1058pt" height="93pt"
 viewBox="0.00 0.00 1057.50 93.00" xmlns="http://www.w3.org/2000/svg" xmlns:xlink="http://www.w3.org/1999/xlink">
<g id="graph0" class="graph" transform="scale(1 1) rotate(0) translate(4 89)">
<title>kernel.h</title>
<!-- Node1 -->
<g id="Node000001" class="node">
<title>Node1</title>
<g id="a_Node000001"><a xlink:title=" ">
<polygon fill="#999999" stroke="#666666" points="578,-85 522,-85 522,-66 578,-66 578,-85"/>
<text text-anchor="middle" x="550" y="-73" font-family="Helvetica,sans-Serif" font-size="10.00">kernel.h</text>
</a>
</g>
</g>
<!-- Node2 -->
<g id="Node000002" class="node">
<title>Node2</title>
<g id="a_Node000002"><a xlink:href="gpio__mgmt_8c.html" target="_top" xlink:title=" ">
<polygon fill="white" stroke="#666666" points="80,-24.5 0,-24.5 0,-5.5 80,-5.5 80,-24.5"/>
<text text-anchor="middle" x="40" y="-12.5" font-family="Helvetica,sans-Serif" font-size="10.00">gpio_mgmt.c</text>
</a>
</g>
</g>
<!-- Node1&#45;&gt;Node2 -->
<g id="edge1_Node000001_Node000002" class="edge">
<title>Node1&#45;&gt;Node2</title>
<g id="a_edge1_Node000001_Node000002"><a xlink:title=" ">
<path fill="none" stroke="#63b8ff" d="M511.94,-73.17C432.64,-69.88 244.18,-59.4 89,-30 81.61,-28.6 73.73,-26.59 66.49,-24.52"/>
<polygon fill="#63b8ff" stroke="#63b8ff" points="511.82,-76.67 521.95,-73.57 512.1,-69.67 511.82,-76.67"/>
</a>
</g>
</g>
<!-- Node3 -->
<g id="Node000003" class="node">
<title>Node3</title>
<g id="a_Node000003"><a xlink:href="iic__mgmt_8c.html" target="_top" xlink:title=" ">
<polygon fill="white" stroke="#666666" points="169.5,-24.5 98.5,-24.5 98.5,-5.5 169.5,-5.5 169.5,-24.5"/>
<text text-anchor="middle" x="134" y="-12.5" font-family="Helvetica,sans-Serif" font-size="10.00">iic_mgmt.c</text>
</a>
</g>
</g>
<!-- Node1&#45;&gt;Node3 -->
<g id="edge2_Node000001_Node000003" class="edge">
<title>Node1&#45;&gt;Node3</title>
<g id="a_edge2_Node000001_Node000003"><a xlink:title=" ">
<path fill="none" stroke="#63b8ff" d="M511.59,-72.21C443.82,-67.65 298.83,-55.6 179,-30 172.28,-28.56 165.12,-26.56 158.54,-24.52"/>
<polygon fill="#63b8ff" stroke="#63b8ff" points="511.58,-75.71 521.79,-72.88 512.04,-68.73 511.58,-75.71"/>
</a>
</g>
</g>
<!-- Node4 -->
<g id="Node000004" class="node">
<title>Node4</title>
<g id="a_Node000004"><a xlink:href="kernel__service__core_8c.html" target="_top" xlink:title=" ">
<polygon fill="white" stroke="#666666" points="310,-24.5 188,-24.5 188,-5.5 310,-5.5 310,-24.5"/>
<text text-anchor="middle" x="249" y="-12.5" font-family="Helvetica,sans-Serif" font-size="10.00">kernel_service_core.c</text>
</a>
</g>
</g>
<!-- Node1&#45;&gt;Node4 -->
<g id="edge3_Node000001_Node000004" class="edge">
<title>Node1&#45;&gt;Node4</title>
<g id="a_edge3_Node000001_Node000004"><a xlink:title=" ">
<path fill="none" stroke="#63b8ff" d="M511.82,-67.23C466,-58.49 386.85,-43.32 319,-30 310.12,-28.26 300.62,-26.37 291.56,-24.56"/>
<polygon fill="#63b8ff" stroke="#63b8ff" points="511.42,-70.72 521.9,-69.15 512.73,-63.84 511.42,-70.72"/>
</a>
</g>
</g>
<!-- Node5 -->
<g id="Node000005" class="node">
<title>Node5</title>
<g id="a_Node000005"><a xlink:href="kernel__service__task__manager_8c.html" target="_top" xlink:title=" ">
<polygon fill="white" stroke="#666666" points="441.5,-30 328.5,-30 328.5,0 441.5,0 441.5,-30"/>
<text text-anchor="start" x="336.5" y="-18" font-family="Helvetica,sans-Serif" font-size="10.00">kernel_service_task</text>
<text text-anchor="middle" x="385" y="-7" font-family="Helvetica,sans-Serif" font-size="10.00">_manager.c</text>
</a>
</g>
</g>
<!-- Node1&#45;&gt;Node5 -->
<g id="edge4_Node000001_Node000005" class="edge">
<title>Node1&#45;&gt;Node5</title>
<g id="a_edge4_Node000001_Node000005"><a xlink:title=" ">
<path fill="none" stroke="#63b8ff" d="M516.39,-62.58C489.82,-53.16 452.69,-40 424.67,-30.06"/>
<polygon fill="#63b8ff" stroke="#63b8ff" points="515.41,-65.95 526.01,-65.99 517.75,-59.35 515.41,-65.95"/>
</a>
</g>
</g>
<!-- Node6 -->
<g id="Node000006" class="node">
<title>Node6</title>
<g id="a_Node000006"><a xlink:href="kernel__thread_8c.html" target="_top" xlink:title="All kernel thread operation api definition.">
<polygon fill="white" stroke="#666666" points="552,-24.5 460,-24.5 460,-5.5 552,-5.5 552,-24.5"/>
<text text-anchor="middle" x="506" y="-12.5" font-family="Helvetica,sans-Serif" font-size="10.00">kernel_thread.c</text>
</a>
</g>
</g>
<!-- Node1&#45;&gt;Node6 -->
<g id="edge5_Node000001_Node000006" class="edge">
<title>Node1&#45;&gt;Node6</title>
<g id="a_edge5_Node000001_Node000006"><a xlink:title=" ">
<path fill="none" stroke="#63b8ff" d="M537.31,-57.63C529.2,-46.85 519.03,-33.32 512.52,-24.67"/>
<polygon fill="#63b8ff" stroke="#63b8ff" points="534.7,-59.98 543.51,-65.87 540.29,-55.77 534.7,-59.98"/>
</a>
</g>
</g>
<!-- Node7 -->
<g id="Node000007" class="node">
<title>Node7</title>
<g id="a_Node000007"><a xlink:href="main_8c.html" target="_top" xlink:title=" ">
<polygon fill="white" stroke="#666666" points="620,-24.5 570,-24.5 570,-5.5 620,-5.5 620,-24.5"/>
<text text-anchor="middle" x="595" y="-12.5" font-family="Helvetica,sans-Serif" font-size="10.00">main.c</text>
</a>
</g>
</g>
<!-- Node1&#45;&gt;Node7 -->
<g id="edge6_Node000001_Node000007" class="edge">
<title>Node1&#45;&gt;Node7</title>
<g id="a_edge6_Node000001_Node000007"><a xlink:title=" ">
<path fill="none" stroke="#63b8ff" d="M562.98,-57.63C571.27,-46.85 581.68,-33.32 588.33,-24.67"/>
<polygon fill="#63b8ff" stroke="#63b8ff" points="559.96,-55.81 556.64,-65.87 565.51,-60.08 559.96,-55.81"/>
</a>
</g>
</g>
<!-- Node8 -->
<g id="Node000008" class="node">
<title>Node8</title>
<g id="a_Node000008"><a xlink:href="os__shell__management_8c.html" target="_top" xlink:title=" ">
<polygon fill="white" stroke="#666666" points="773.5,-24.5 638.5,-24.5 638.5,-5.5 773.5,-5.5 773.5,-24.5"/>
<text text-anchor="middle" x="706" y="-12.5" font-family="Helvetica,sans-Serif" font-size="10.00">os_shell_management.c</text>
</a>
</g>
</g>
<!-- Node1&#45;&gt;Node8 -->
<g id="edge7_Node000001_Node000008" class="edge">
<title>Node1&#45;&gt;Node8</title>
<g id="a_edge7_Node000001_Node000008"><a xlink:title=" ">
<path fill="none" stroke="#63b8ff" d="M582.33,-62.38C612.48,-51.07 656.7,-34.49 683.29,-24.52"/>
<polygon fill="#63b8ff" stroke="#63b8ff" points="580.82,-59.21 572.68,-65.99 583.28,-65.76 580.82,-59.21"/>
</a>
</g>
</g>
<!-- Node9 -->
<g id="Node000009" class="node">
<title>Node9</title>
<g id="a_Node000009"><a xlink:href="spi__mgmt_8c.html" target="_top" xlink:title=" ">
<polygon fill="white" stroke="#666666" points="866,-24.5 792,-24.5 792,-5.5 866,-5.5 866,-24.5"/>
<text text-anchor="middle" x="829" y="-12.5" font-family="Helvetica,sans-Serif" font-size="10.00">spi_mgmt.c</text>
</a>
</g>
</g>
<!-- Node1&#45;&gt;Node9 -->
<g id="edge8_Node000001_Node000009" class="edge">
<title>Node1&#45;&gt;Node9</title>
<g id="a_edge8_Node000001_Node000009"><a xlink:title=" ">
<path fill="none" stroke="#63b8ff" d="M588.1,-68.51C634.46,-60.92 714.98,-46.8 783,-30 789.32,-28.44 796.06,-26.53 802.38,-24.63"/>
<polygon fill="#63b8ff" stroke="#63b8ff" points="587.5,-65.06 578.18,-70.12 588.62,-71.97 587.5,-65.06"/>
</a>
</g>
</g>
<!-- Node10 -->
<g id="Node000010" class="node">
<title>Node10</title>
<g id="a_Node000010"><a xlink:href="uart__app_8c.html" target="_top" xlink:title=" ">
<polygon fill="white" stroke="#666666" points="952,-24.5 884,-24.5 884,-5.5 952,-5.5 952,-24.5"/>
<text text-anchor="middle" x="918" y="-12.5" font-family="Helvetica,sans-Serif" font-size="10.00">uart_app.c</text>
</a>
</g>
</g>
<!-- Node1&#45;&gt;Node10 -->
<g id="edge9_Node000001_Node000010" class="edge">
<title>Node1&#45;&gt;Node10</title>
<g id="a_edge9_Node000001_Node000010"><a xlink:title=" ">
<path fill="none" stroke="#63b8ff" d="M588.47,-71.47C649.71,-66.16 772.89,-53.42 875,-30 881.27,-28.56 887.94,-26.61 894.11,-24.62"/>
<polygon fill="#63b8ff" stroke="#63b8ff" points="587.8,-68.02 578.13,-72.35 588.39,-74.99 587.8,-68.02"/>
</a>
</g>
</g>
<!-- Node11 -->
<g id="Node000011" class="node">
<title>Node11</title>
<g id="a_Node000011"><a xlink:href="uart__mgmt_8c.html" target="_top" xlink:title=" ">
<polygon fill="white" stroke="#666666" points="1049.5,-24.5 970.5,-24.5 970.5,-5.5 1049.5,-5.5 1049.5,-24.5"/>
<text text-anchor="middle" x="1010" y="-12.5" font-family="Helvetica,sans-Serif" font-size="10.00">uart_mgmt.c</text>
</a>
</g>
</g>
<!-- Node1&#45;&gt;Node11 -->
<g id="edge10_Node000001_Node000011" class="edge">
<title>Node1&#45;&gt;Node11</title>
<g id="a_edge10_Node000001_Node000011"><a xlink:title=" ">
<path fill="none" stroke="#63b8ff" d="M588.25,-72.54C661.29,-68.32 825.39,-56.51 961,-30 968.29,-28.57 976.08,-26.58 983.24,-24.54"/>
<polygon fill="#63b8ff" stroke="#63b8ff" points="587.94,-69.05 578.15,-73.11 588.34,-76.04 587.94,-69.05"/>
</a>
</g>
</g>
</g>
</svg>
