<?xml version="1.0" encoding="UTF-8" standalone="no"?>
<!DOCTYPE svg PUBLIC "-//W3C//DTD SVG 1.1//EN"
 "http://www.w3.org/Graphics/SVG/1.1/DTD/svg11.dtd">
<!-- Generated by graphviz version 2.43.0 (0)
 -->
<!-- Title: list.h Pages: 1 -->
<svg width="2060pt" height="203pt"
 viewBox="0.00 0.00 2060.00 203.00" xmlns="http://www.w3.org/2000/svg" xmlns:xlink="http://www.w3.org/1999/xlink">
<g id="graph0" class="graph" transform="scale(1 1) rotate(0) translate(4 199)">
<title>list.h</title>
<!-- Node1 -->
<g id="Node000001" class="node">
<title>Node1</title>
<g id="a_Node000001"><a xlink:title="All linked list operation functions definitions and macros.">
<polygon fill="#999999" stroke="#666666" points="1072.5,-195 1031.5,-195 1031.5,-176 1072.5,-176 1072.5,-195"/>
<text text-anchor="middle" x="1052" y="-183" font-family="Helvetica,sans-Serif" font-size="10.00">list.h</text>
</a>
</g>
</g>
<!-- Node2 -->
<g id="Node000002" class="node">
<title>Node2</title>
<g id="a_Node000002"><a xlink:href="drv__dma_8h.html" target="_top" xlink:title=" ">
<polygon fill="white" stroke="#666666" points="172,-140 104,-140 104,-121 172,-121 172,-140"/>
<text text-anchor="middle" x="138" y="-128" font-family="Helvetica,sans-Serif" font-size="10.00">drv_dma.h</text>
</a>
</g>
</g>
<!-- Node1&#45;&gt;Node2 -->
<g id="edge1_Node000001_Node000002" class="edge">
<title>Node1&#45;&gt;Node2</title>
<g id="a_edge1_Node000001_Node000002"><a xlink:title=" ">
<path fill="none" stroke="#63b8ff" d="M1020.84,-182.69C881.69,-174.62 317.62,-141.92 172.29,-133.49"/>
<polygon fill="#63b8ff" stroke="#63b8ff" points="1021.01,-186.21 1031.19,-183.29 1021.41,-179.22 1021.01,-186.21"/>
</a>
</g>
</g>
<!-- Node6 -->
<g id="Node000006" class="node">
<title>Node6</title>
<g id="a_Node000006"><a xlink:href="irq__desc_8h.html" target="_top" xlink:title=" ">
<polygon fill="white" stroke="#666666" points="507,-140 441,-140 441,-121 507,-121 507,-140"/>
<text text-anchor="middle" x="474" y="-128" font-family="Helvetica,sans-Serif" font-size="10.00">irq_desc.h</text>
</a>
</g>
</g>
<!-- Node1&#45;&gt;Node6 -->
<g id="edge5_Node000001_Node000006" class="edge">
<title>Node1&#45;&gt;Node6</title>
<g id="a_edge5_Node000001_Node000006"><a xlink:title=" ">
<path fill="none" stroke="#63b8ff" d="M1021.46,-181.7C922.31,-172.61 609.92,-143.96 507.14,-134.54"/>
<polygon fill="#63b8ff" stroke="#63b8ff" points="1021.15,-185.19 1031.43,-182.61 1021.79,-178.22 1021.15,-185.19"/>
</a>
</g>
</g>
<!-- Node13 -->
<g id="Node000013" class="node">
<title>Node13</title>
<g id="a_Node000013"><a xlink:href="kernel_8h.html" target="_top" xlink:title=" ">
<polygon fill="white" stroke="#666666" points="1080,-140 1024,-140 1024,-121 1080,-121 1080,-140"/>
<text text-anchor="middle" x="1052" y="-128" font-family="Helvetica,sans-Serif" font-size="10.00">kernel.h</text>
</a>
</g>
</g>
<!-- Node1&#45;&gt;Node13 -->
<g id="edge12_Node000001_Node000013" class="edge">
<title>Node1&#45;&gt;Node13</title>
<g id="a_edge12_Node000001_Node000013"><a xlink:title=" ">
<path fill="none" stroke="#63b8ff" d="M1052,-165.66C1052,-156.93 1052,-146.99 1052,-140.09"/>
<polygon fill="#63b8ff" stroke="#63b8ff" points="1048.5,-165.75 1052,-175.75 1055.5,-165.75 1048.5,-165.75"/>
</a>
</g>
</g>
<!-- Node24 -->
<g id="Node000024" class="node">
<title>Node24</title>
<g id="a_Node000024"><a xlink:href="list_8c.html" target="_top" xlink:title="all link list operation definitions">
<polygon fill="white" stroke="#666666" points="1788,-140 1748,-140 1748,-121 1788,-121 1788,-140"/>
<text text-anchor="middle" x="1768" y="-128" font-family="Helvetica,sans-Serif" font-size="10.00">list.c</text>
</a>
</g>
</g>
<!-- Node1&#45;&gt;Node24 -->
<g id="edge23_Node000001_Node000024" class="edge">
<title>Node1&#45;&gt;Node24</title>
<g id="a_edge23_Node000001_Node000024"><a xlink:title=" ">
<path fill="none" stroke="#63b8ff" d="M1082.73,-184.91C1179.85,-185.69 1488.57,-184.25 1739,-140 1741.89,-139.49 1744.91,-138.79 1747.85,-138.02"/>
<polygon fill="#63b8ff" stroke="#63b8ff" points="1082.74,-181.41 1072.71,-184.81 1082.68,-188.41 1082.74,-181.41"/>
</a>
</g>
</g>
<!-- Node25 -->
<g id="Node000025" class="node">
<title>Node25</title>
<g id="a_Node000025"><a xlink:href="mqueue_8h.html" target="_top" xlink:title=" ">
<polygon fill="white" stroke="#666666" points="1729.5,-140 1664.5,-140 1664.5,-121 1729.5,-121 1729.5,-140"/>
<text text-anchor="middle" x="1697" y="-128" font-family="Helvetica,sans-Serif" font-size="10.00">mqueue.h</text>
</a>
</g>
</g>
<!-- Node1&#45;&gt;Node25 -->
<g id="edge24_Node000001_Node000025" class="edge">
<title>Node1&#45;&gt;Node25</title>
<g id="a_edge24_Node000001_Node000025"><a xlink:title=" ">
<path fill="none" stroke="#63b8ff" d="M1082.99,-181.95C1191.48,-173.04 1553.6,-143.28 1664.46,-134.17"/>
<polygon fill="#63b8ff" stroke="#63b8ff" points="1082.41,-178.49 1072.73,-182.8 1082.98,-185.47 1082.41,-178.49"/>
</a>
</g>
</g>
<!-- Node3 -->
<g id="Node000003" class="node">
<title>Node3</title>
<g id="a_Node000003"><a xlink:href="drv__dma_8c.html" target="_top" xlink:title=" ">
<polygon fill="white" stroke="#666666" points="68,-85 0,-85 0,-66 68,-66 68,-85"/>
<text text-anchor="middle" x="34" y="-73" font-family="Helvetica,sans-Serif" font-size="10.00">drv_dma.c</text>
</a>
</g>
</g>
<!-- Node2&#45;&gt;Node3 -->
<g id="edge2_Node000002_Node000003" class="edge">
<title>Node2&#45;&gt;Node3</title>
<g id="a_edge2_Node000002_Node000003"><a xlink:title=" ">
<path fill="none" stroke="#63b8ff" d="M112.23,-116.37C93.13,-106.63 67.63,-93.64 51.01,-85.17"/>
<polygon fill="#63b8ff" stroke="#63b8ff" points="110.79,-119.56 121.29,-120.98 113.97,-113.33 110.79,-119.56"/>
</a>
</g>
</g>
<!-- Node4 -->
<g id="Node000004" class="node">
<title>Node4</title>
<g id="a_Node000004"><a xlink:href="hal__dma__stm32_8h.html" target="_top" xlink:title=" ">
<polygon fill="white" stroke="#666666" points="190,-85 86,-85 86,-66 190,-66 190,-85"/>
<text text-anchor="middle" x="138" y="-73" font-family="Helvetica,sans-Serif" font-size="10.00">hal_dma_stm32.h</text>
</a>
</g>
</g>
<!-- Node2&#45;&gt;Node4 -->
<g id="edge3_Node000002_Node000004" class="edge">
<title>Node2&#45;&gt;Node4</title>
<g id="a_edge3_Node000002_Node000004"><a xlink:title=" ">
<path fill="none" stroke="#63b8ff" d="M138,-110.66C138,-101.93 138,-91.99 138,-85.09"/>
<polygon fill="#63b8ff" stroke="#63b8ff" points="134.5,-110.75 138,-120.75 141.5,-110.75 134.5,-110.75"/>
</a>
</g>
</g>
<!-- Node5 -->
<g id="Node000005" class="node">
<title>Node5</title>
<g id="a_Node000005"><a xlink:href="hal__dma__stm32_8c.html" target="_top" xlink:title=" ">
<polygon fill="white" stroke="#666666" points="189.5,-24.5 86.5,-24.5 86.5,-5.5 189.5,-5.5 189.5,-24.5"/>
<text text-anchor="middle" x="138" y="-12.5" font-family="Helvetica,sans-Serif" font-size="10.00">hal_dma_stm32.c</text>
</a>
</g>
</g>
<!-- Node4&#45;&gt;Node5 -->
<g id="edge4_Node000004_Node000005" class="edge">
<title>Node4&#45;&gt;Node5</title>
<g id="a_edge4_Node000004_Node000005"><a xlink:title=" ">
<path fill="none" stroke="#63b8ff" d="M138,-55.66C138,-45.24 138,-32.8 138,-24.67"/>
<polygon fill="#63b8ff" stroke="#63b8ff" points="134.5,-55.87 138,-65.87 141.5,-55.87 134.5,-55.87"/>
</a>
</g>
</g>
<!-- Node7 -->
<g id="Node000007" class="node">
<title>Node7</title>
<g id="a_Node000007"><a xlink:href="drv__irq_8c.html" target="_top" xlink:title=" ">
<polygon fill="white" stroke="#666666" points="544.5,-85 485.5,-85 485.5,-66 544.5,-66 544.5,-85"/>
<text text-anchor="middle" x="515" y="-73" font-family="Helvetica,sans-Serif" font-size="10.00">drv_irq.c</text>
</a>
</g>
</g>
<!-- Node6&#45;&gt;Node7 -->
<g id="edge6_Node000006_Node000007" class="edge">
<title>Node6&#45;&gt;Node7</title>
<g id="a_edge6_Node000006_Node000007"><a xlink:title=" ">
<path fill="none" stroke="#63b8ff" d="M487.02,-112.67C494.12,-103.5 502.6,-92.52 508.36,-85.09"/>
<polygon fill="#63b8ff" stroke="#63b8ff" points="484.12,-110.7 480.77,-120.75 489.66,-114.98 484.12,-110.7"/>
</a>
</g>
</g>
<!-- Node8 -->
<g id="Node000008" class="node">
<title>Node8</title>
<g id="a_Node000008"><a xlink:href="hal__timebase__stm32_8c.html" target="_top" xlink:title=" ">
<polygon fill="white" stroke="#666666" points="689.5,-85 562.5,-85 562.5,-66 689.5,-66 689.5,-85"/>
<text text-anchor="middle" x="626" y="-73" font-family="Helvetica,sans-Serif" font-size="10.00">hal_timebase_stm32.c</text>
</a>
</g>
</g>
<!-- Node6&#45;&gt;Node8 -->
<g id="edge7_Node000006_Node000008" class="edge">
<title>Node6&#45;&gt;Node8</title>
<g id="a_edge7_Node000006_Node000008"><a xlink:title=" ">
<path fill="none" stroke="#63b8ff" d="M507.93,-117.67C536.27,-107.79 576.02,-93.93 601.39,-85.08"/>
<polygon fill="#63b8ff" stroke="#63b8ff" points="506.71,-114.39 498.42,-120.98 509.02,-121 506.71,-114.39"/>
</a>
</g>
</g>
<!-- Node9 -->
<g id="Node000009" class="node">
<title>Node9</title>
<g id="a_Node000009"><a xlink:href="irq__chip__nvic_8h.html" target="_top" xlink:title=" ">
<polygon fill="white" stroke="#666666" points="297.5,-85 208.5,-85 208.5,-66 297.5,-66 297.5,-85"/>
<text text-anchor="middle" x="253" y="-73" font-family="Helvetica,sans-Serif" font-size="10.00">irq_chip_nvic.h</text>
</a>
</g>
</g>
<!-- Node6&#45;&gt;Node9 -->
<g id="edge8_Node000006_Node000009" class="edge">
<title>Node6&#45;&gt;Node9</title>
<g id="a_edge8_Node000006_Node000009"><a xlink:title=" ">
<path fill="none" stroke="#63b8ff" d="M431.09,-119.21C389.55,-109.25 327.34,-94.33 288.51,-85.02"/>
<polygon fill="#63b8ff" stroke="#63b8ff" points="430.37,-122.64 440.91,-121.57 432.01,-115.83 430.37,-122.64"/>
</a>
</g>
</g>
<!-- Node11 -->
<g id="Node000011" class="node">
<title>Node11</title>
<g id="a_Node000011"><a xlink:href="irq__desc_8c.html" target="_top" xlink:title=" ">
<polygon fill="white" stroke="#666666" points="380.5,-85 315.5,-85 315.5,-66 380.5,-66 380.5,-85"/>
<text text-anchor="middle" x="348" y="-73" font-family="Helvetica,sans-Serif" font-size="10.00">irq_desc.c</text>
</a>
</g>
</g>
<!-- Node6&#45;&gt;Node11 -->
<g id="edge10_Node000006_Node000011" class="edge">
<title>Node6&#45;&gt;Node11</title>
<g id="a_edge10_Node000006_Node000011"><a xlink:title=" ">
<path fill="none" stroke="#63b8ff" d="M444.35,-117.03C421.05,-107.23 389.2,-93.83 368.61,-85.17"/>
<polygon fill="#63b8ff" stroke="#63b8ff" points="443.18,-120.33 453.76,-120.98 445.9,-113.88 443.18,-120.33"/>
</a>
</g>
</g>
<!-- Node12 -->
<g id="Node000012" class="node">
<title>Node12</title>
<g id="a_Node000012"><a xlink:href="irq__notify_8c.html" target="_top" xlink:title=" ">
<polygon fill="white" stroke="#666666" points="467.5,-85 398.5,-85 398.5,-66 467.5,-66 467.5,-85"/>
<text text-anchor="middle" x="433" y="-73" font-family="Helvetica,sans-Serif" font-size="10.00">irq_notify.c</text>
</a>
</g>
</g>
<!-- Node6&#45;&gt;Node12 -->
<g id="edge11_Node000006_Node000012" class="edge">
<title>Node6&#45;&gt;Node12</title>
<g id="a_edge11_Node000006_Node000012"><a xlink:title=" ">
<path fill="none" stroke="#63b8ff" d="M460.98,-112.67C453.88,-103.5 445.4,-92.52 439.64,-85.09"/>
<polygon fill="#63b8ff" stroke="#63b8ff" points="458.34,-114.98 467.23,-120.75 463.88,-110.7 458.34,-114.98"/>
</a>
</g>
</g>
<!-- Node10 -->
<g id="Node000010" class="node">
<title>Node10</title>
<g id="a_Node000010"><a xlink:href="irq__chip__nvic_8c.html" target="_top" xlink:title="NVIC&#45;backed irq_chip implementation for ARM Cortex&#45;M (STM32)">
<polygon fill="white" stroke="#666666" points="297.5,-24.5 208.5,-24.5 208.5,-5.5 297.5,-5.5 297.5,-24.5"/>
<text text-anchor="middle" x="253" y="-12.5" font-family="Helvetica,sans-Serif" font-size="10.00">irq_chip_nvic.c</text>
</a>
</g>
</g>
<!-- Node9&#45;&gt;Node10 -->
<g id="edge9_Node000009_Node000010" class="edge">
<title>Node9&#45;&gt;Node10</title>
<g id="a_edge9_Node000009_Node000010"><a xlink:title=" ">
<path fill="none" stroke="#63b8ff" d="M253,-55.66C253,-45.24 253,-32.8 253,-24.67"/>
<polygon fill="#63b8ff" stroke="#63b8ff" points="249.5,-55.87 253,-65.87 256.5,-55.87 249.5,-55.87"/>
</a>
</g>
</g>
<!-- Node14 -->
<g id="Node000014" class="node">
<title>Node14</title>
<g id="a_Node000014"><a xlink:href="gpio__mgmt_8c.html" target="_top" xlink:title=" ">
<polygon fill="white" stroke="#666666" points="1040,-85 960,-85 960,-66 1040,-66 1040,-85"/>
<text text-anchor="middle" x="1000" y="-73" font-family="Helvetica,sans-Serif" font-size="10.00">gpio_mgmt.c</text>
</a>
</g>
</g>
<!-- Node13&#45;&gt;Node14 -->
<g id="edge13_Node000013_Node000014" class="edge">
<title>Node13&#45;&gt;Node14</title>
<g id="a_edge13_Node000013_Node000014"><a xlink:title=" ">
<path fill="none" stroke="#63b8ff" d="M1036.32,-113.52C1027.16,-104.18 1015.95,-92.75 1008.43,-85.09"/>
<polygon fill="#63b8ff" stroke="#63b8ff" points="1033.91,-116.06 1043.41,-120.75 1038.91,-111.16 1033.91,-116.06"/>
</a>
</g>
</g>
<!-- Node15 -->
<g id="Node000015" class="node">
<title>Node15</title>
<g id="a_Node000015"><a xlink:href="iic__mgmt_8c.html" target="_top" xlink:title=" ">
<polygon fill="white" stroke="#666666" points="865.5,-85 794.5,-85 794.5,-66 865.5,-66 865.5,-85"/>
<text text-anchor="middle" x="830" y="-73" font-family="Helvetica,sans-Serif" font-size="10.00">iic_mgmt.c</text>
</a>
</g>
</g>
<!-- Node13&#45;&gt;Node15 -->
<g id="edge14_Node000013_Node000015" class="edge">
<title>Node13&#45;&gt;Node15</title>
<g id="a_edge14_Node000013_Node000015"><a xlink:title=" ">
<path fill="none" stroke="#63b8ff" d="M1014.13,-120.46C972.53,-110.53 906.24,-94.7 865.58,-84.99"/>
<polygon fill="#63b8ff" stroke="#63b8ff" points="1013.34,-123.87 1023.88,-122.79 1014.97,-117.06 1013.34,-123.87"/>
</a>
</g>
</g>
<!-- Node16 -->
<g id="Node000016" class="node">
<title>Node16</title>
<g id="a_Node000016"><a xlink:href="kernel__service__core_8c.html" target="_top" xlink:title=" ">
<polygon fill="white" stroke="#666666" points="1072,-24.5 950,-24.5 950,-5.5 1072,-5.5 1072,-24.5"/>
<text text-anchor="middle" x="1011" y="-12.5" font-family="Helvetica,sans-Serif" font-size="10.00">kernel_service_core.c</text>
</a>
</g>
</g>
<!-- Node13&#45;&gt;Node16 -->
<g id="edge15_Node000013_Node000016" class="edge">
<title>Node13&#45;&gt;Node16</title>
<g id="a_edge15_Node000013_Node000016"><a xlink:title=" ">
<path fill="none" stroke="#63b8ff" d="M1013.76,-128.33C982.35,-125.1 939.65,-115 918,-85 897.88,-57.12 946.14,-35.7 980.4,-24.55"/>
<polygon fill="#63b8ff" stroke="#63b8ff" points="1013.67,-131.83 1023.93,-129.18 1014.25,-124.86 1013.67,-131.83"/>
</a>
</g>
</g>
<!-- Node17 -->
<g id="Node000017" class="node">
<title>Node17</title>
<g id="a_Node000017"><a xlink:href="kernel__service__task__manager_8c.html" target="_top" xlink:title=" ">
<polygon fill="white" stroke="#666666" points="1321.5,-30 1208.5,-30 1208.5,0 1321.5,0 1321.5,-30"/>
<text text-anchor="start" x="1216.5" y="-18" font-family="Helvetica,sans-Serif" font-size="10.00">kernel_service_task</text>
<text text-anchor="middle" x="1265" y="-7" font-family="Helvetica,sans-Serif" font-size="10.00">_manager.c</text>
</a>
</g>
</g>
<!-- Node13&#45;&gt;Node17 -->
<g id="edge16_Node000013_Node000017" class="edge">
<title>Node13&#45;&gt;Node17</title>
<g id="a_edge16_Node000013_Node000017"><a xlink:title=" ">
<path fill="none" stroke="#63b8ff" d="M1013.75,-120.82C976.65,-110.65 928.94,-91.85 951,-66 967.48,-46.68 1122.48,-29.31 1208.37,-21.06"/>
<polygon fill="#63b8ff" stroke="#63b8ff" points="1013.31,-124.32 1023.87,-123.45 1015.07,-117.54 1013.31,-124.32"/>
</a>
</g>
</g>
<!-- Node18 -->
<g id="Node000018" class="node">
<title>Node18</title>
<g id="a_Node000018"><a xlink:href="kernel__thread_8c.html" target="_top" xlink:title="All kernel thread operation api definition.">
<polygon fill="white" stroke="#666666" points="1150,-85 1058,-85 1058,-66 1150,-66 1150,-85"/>
<text text-anchor="middle" x="1104" y="-73" font-family="Helvetica,sans-Serif" font-size="10.00">kernel_thread.c</text>
</a>
</g>
</g>
<!-- Node13&#45;&gt;Node18 -->
<g id="edge17_Node000013_Node000018" class="edge">
<title>Node13&#45;&gt;Node18</title>
<g id="a_edge17_Node000013_Node000018"><a xlink:title=" ">
<path fill="none" stroke="#63b8ff" d="M1067.68,-113.52C1076.84,-104.18 1088.05,-92.75 1095.57,-85.09"/>
<polygon fill="#63b8ff" stroke="#63b8ff" points="1065.09,-111.16 1060.59,-120.75 1070.09,-116.06 1065.09,-111.16"/>
</a>
</g>
</g>
<!-- Node19 -->
<g id="Node000019" class="node">
<title>Node19</title>
<g id="a_Node000019"><a xlink:href="main_8c.html" target="_top" xlink:title=" ">
<polygon fill="white" stroke="#666666" points="1624,-24.5 1574,-24.5 1574,-5.5 1624,-5.5 1624,-24.5"/>
<text text-anchor="middle" x="1599" y="-12.5" font-family="Helvetica,sans-Serif" font-size="10.00">main.c</text>
</a>
</g>
</g>
<!-- Node13&#45;&gt;Node19 -->
<g id="edge18_Node000013_Node000019" class="edge">
<title>Node13&#45;&gt;Node19</title>
<g id="a_edge18_Node000013_Node000019"><a xlink:title=" ">
<path fill="none" stroke="#63b8ff" d="M1090.31,-123.79C1130.96,-117.07 1196.69,-104.32 1251,-85 1268.79,-78.67 1271.03,-71.79 1289,-66 1391.48,-32.97 1520.34,-21.15 1573.89,-17.47"/>
<polygon fill="#63b8ff" stroke="#63b8ff" points="1089.6,-120.35 1080.29,-125.4 1090.72,-127.26 1089.6,-120.35"/>
</a>
</g>
</g>
<!-- Node20 -->
<g id="Node000020" class="node">
<title>Node20</title>
<g id="a_Node000020"><a xlink:href="os__shell__management_8c.html" target="_top" xlink:title=" ">
<polygon fill="white" stroke="#666666" points="1530.5,-85 1395.5,-85 1395.5,-66 1530.5,-66 1530.5,-85"/>
<text text-anchor="middle" x="1463" y="-73" font-family="Helvetica,sans-Serif" font-size="10.00">os_shell_management.c</text>
</a>
</g>
</g>
<!-- Node13&#45;&gt;Node20 -->
<g id="edge19_Node000013_Node000020" class="edge">
<title>Node13&#45;&gt;Node20</title>
<g id="a_edge19_Node000013_Node000020"><a xlink:title=" ">
<path fill="none" stroke="#63b8ff" d="M1090.4,-124.55C1160.51,-115.51 1309.99,-96.23 1396.81,-85.04"/>
<polygon fill="#63b8ff" stroke="#63b8ff" points="1089.72,-121.11 1080.25,-125.86 1090.62,-128.05 1089.72,-121.11"/>
</a>
</g>
</g>
<!-- Node21 -->
<g id="Node000021" class="node">
<title>Node21</title>
<g id="a_Node000021"><a xlink:href="spi__mgmt_8c.html" target="_top" xlink:title=" ">
<polygon fill="white" stroke="#666666" points="1242,-85 1168,-85 1168,-66 1242,-66 1242,-85"/>
<text text-anchor="middle" x="1205" y="-73" font-family="Helvetica,sans-Serif" font-size="10.00">spi_mgmt.c</text>
</a>
</g>
</g>
<!-- Node13&#45;&gt;Node21 -->
<g id="edge20_Node000013_Node000021" class="edge">
<title>Node13&#45;&gt;Node21</title>
<g id="a_edge20_Node000013_Node000021"><a xlink:title=" ">
<path fill="none" stroke="#63b8ff" d="M1086.15,-117.67C1114.68,-107.79 1154.69,-93.93 1180.23,-85.08"/>
<polygon fill="#63b8ff" stroke="#63b8ff" points="1084.89,-114.4 1076.58,-120.98 1087.18,-121.02 1084.89,-114.4"/>
</a>
</g>
</g>
<!-- Node22 -->
<g id="Node000022" class="node">
<title>Node22</title>
<g id="a_Node000022"><a xlink:href="uart__app_8c.html" target="_top" xlink:title=" ">
<polygon fill="white" stroke="#666666" points="776,-85 708,-85 708,-66 776,-66 776,-85"/>
<text text-anchor="middle" x="742" y="-73" font-family="Helvetica,sans-Serif" font-size="10.00">uart_app.c</text>
</a>
</g>
</g>
<!-- Node13&#45;&gt;Node22 -->
<g id="edge21_Node000013_Node000022" class="edge">
<title>Node13&#45;&gt;Node22</title>
<g id="a_edge21_Node000013_Node000022"><a xlink:title=" ">
<path fill="none" stroke="#63b8ff" d="M1013.81,-123.5C961.93,-115.27 866.32,-99.81 785,-85 782.16,-84.48 779.21,-83.93 776.25,-83.37"/>
<polygon fill="#63b8ff" stroke="#63b8ff" points="1013.47,-126.99 1023.89,-125.1 1014.56,-120.08 1013.47,-126.99"/>
</a>
</g>
</g>
<!-- Node23 -->
<g id="Node000023" class="node">
<title>Node23</title>
<g id="a_Node000023"><a xlink:href="uart__mgmt_8c.html" target="_top" xlink:title=" ">
<polygon fill="white" stroke="#666666" points="1377.5,-85 1298.5,-85 1298.5,-66 1377.5,-66 1377.5,-85"/>
<text text-anchor="middle" x="1338" y="-73" font-family="Helvetica,sans-Serif" font-size="10.00">uart_mgmt.c</text>
</a>
</g>
</g>
<!-- Node13&#45;&gt;Node23 -->
<g id="edge22_Node000013_Node000023" class="edge">
<title>Node13&#45;&gt;Node23</title>
<g id="a_edge22_Node000013_Node000023"><a xlink:title=" ">
<path fill="none" stroke="#63b8ff" d="M1090.1,-122.44C1144.28,-112.4 1243.11,-94.08 1298.21,-83.87"/>
<polygon fill="#63b8ff" stroke="#63b8ff" points="1089.4,-119.01 1080.21,-124.27 1090.68,-125.89 1089.4,-119.01"/>
</a>
</g>
</g>
<!-- Node25&#45;&gt;Node19 -->
<g id="edge33_Node000025_Node000019" class="edge">
<title>Node25&#45;&gt;Node19</title>
<g id="a_edge33_Node000025_Node000019"><a xlink:title=" ">
<path fill="none" stroke="#63b8ff" d="M1739.59,-119.49C1770.88,-111.17 1809.52,-98.54 1819,-85 1823.84,-78.08 1824.27,-72.6 1819,-66 1794.81,-35.69 1676.43,-22.36 1624.04,-17.87"/>
<polygon fill="#63b8ff" stroke="#63b8ff" points="1738.54,-116.14 1729.73,-122.03 1740.29,-122.92 1738.54,-116.14"/>
</a>
</g>
</g>
<!-- Node25&#45;&gt;Node20 -->
<g id="edge35_Node000025_Node000020" class="edge">
<title>Node25&#45;&gt;Node20</title>
<g id="a_edge35_Node000025_Node000020"><a xlink:title=" ">
<path fill="none" stroke="#63b8ff" d="M1654.67,-119.91C1610.77,-109.97 1542.77,-94.57 1500.68,-85.03"/>
<polygon fill="#63b8ff" stroke="#63b8ff" points="1653.94,-123.34 1664.46,-122.13 1655.48,-116.51 1653.94,-123.34"/>
</a>
</g>
</g>
<!-- Node25&#45;&gt;Node23 -->
<g id="edge37_Node000025_Node000023" class="edge">
<title>Node25&#45;&gt;Node23</title>
<g id="a_edge37_Node000025_Node000023"><a xlink:title=" ">
<path fill="none" stroke="#63b8ff" d="M1654.17,-123.75C1594.3,-115.63 1482.24,-100.09 1387,-85 1383.93,-84.51 1380.75,-84 1377.56,-83.47"/>
<polygon fill="#63b8ff" stroke="#63b8ff" points="1653.99,-127.26 1664.37,-125.14 1654.93,-120.33 1653.99,-127.26"/>
</a>
</g>
</g>
<!-- Node26 -->
<g id="Node000026" class="node">
<title>Node26</title>
<g id="a_Node000026"><a xlink:href="drv__iic_8h.html" target="_top" xlink:title=" ">
<polygon fill="white" stroke="#666666" points="1726,-85 1668,-85 1668,-66 1726,-66 1726,-85"/>
<text text-anchor="middle" x="1697" y="-73" font-family="Helvetica,sans-Serif" font-size="10.00">drv_iic.h</text>
</a>
</g>
</g>
<!-- Node25&#45;&gt;Node26 -->
<g id="edge25_Node000025_Node000026" class="edge">
<title>Node25&#45;&gt;Node26</title>
<g id="a_edge25_Node000025_Node000026"><a xlink:title=" ">
<path fill="none" stroke="#63b8ff" d="M1697,-110.66C1697,-101.93 1697,-91.99 1697,-85.09"/>
<polygon fill="#63b8ff" stroke="#63b8ff" points="1693.5,-110.75 1697,-120.75 1700.5,-110.75 1693.5,-110.75"/>
</a>
</g>
</g>
<!-- Node27 -->
<g id="Node000027" class="node">
<title>Node27</title>
<g id="a_Node000027"><a xlink:href="drv__uart_8h.html" target="_top" xlink:title=" ">
<polygon fill="white" stroke="#666666" points="1810,-85 1744,-85 1744,-66 1810,-66 1810,-85"/>
<text text-anchor="middle" x="1777" y="-73" font-family="Helvetica,sans-Serif" font-size="10.00">drv_uart.h</text>
</a>
</g>
</g>
<!-- Node25&#45;&gt;Node27 -->
<g id="edge26_Node000025_Node000027" class="edge">
<title>Node25&#45;&gt;Node27</title>
<g id="a_edge26_Node000025_Node000027"><a xlink:title=" ">
<path fill="none" stroke="#63b8ff" d="M1718.25,-115.42C1732.76,-105.81 1751.54,-93.37 1763.91,-85.17"/>
<polygon fill="#63b8ff" stroke="#63b8ff" points="1716.26,-112.54 1709.85,-120.98 1720.12,-118.38 1716.26,-112.54"/>
</a>
</g>
</g>
<!-- Node28 -->
<g id="Node000028" class="node">
<title>Node28</title>
<g id="a_Node000028"><a xlink:href="init_8h.html" target="_top" xlink:title=" ">
<polygon fill="white" stroke="#666666" points="1789.5,-24.5 1748.5,-24.5 1748.5,-5.5 1789.5,-5.5 1789.5,-24.5"/>
<text text-anchor="middle" x="1769" y="-12.5" font-family="Helvetica,sans-Serif" font-size="10.00">init.h</text>
</a>
</g>
</g>
<!-- Node25&#45;&gt;Node28 -->
<g id="edge27_Node000025_Node000028" class="edge">
<title>Node25&#45;&gt;Node28</title>
<g id="a_edge27_Node000025_Node000028"><a xlink:title=" ">
<path fill="none" stroke="#63b8ff" d="M1739.46,-120.07C1782.92,-109.98 1845.07,-94.21 1852,-85 1872.75,-57.46 1820.79,-33.86 1789.93,-22.77"/>
<polygon fill="#63b8ff" stroke="#63b8ff" points="1738.64,-116.66 1729.68,-122.31 1740.21,-123.48 1738.64,-116.66"/>
</a>
</g>
</g>
<!-- Node29 -->
<g id="Node000029" class="node">
<title>Node29</title>
<g id="a_Node000029"><a xlink:href="kernel__services_8h.html" target="_top" xlink:title=" ">
<polygon fill="white" stroke="#666666" points="1649.5,-85 1548.5,-85 1548.5,-66 1649.5,-66 1649.5,-85"/>
<text text-anchor="middle" x="1599" y="-73" font-family="Helvetica,sans-Serif" font-size="10.00">kernel_services.h</text>
</a>
</g>
</g>
<!-- Node25&#45;&gt;Node29 -->
<g id="edge28_Node000025_Node000029" class="edge">
<title>Node25&#45;&gt;Node29</title>
<g id="a_edge28_Node000025_Node000029"><a xlink:title=" ">
<path fill="none" stroke="#63b8ff" d="M1671.97,-115.97C1654.06,-106.28 1630.47,-93.52 1615.03,-85.17"/>
<polygon fill="#63b8ff" stroke="#63b8ff" points="1670.79,-119.31 1681.25,-120.98 1674.12,-113.15 1670.79,-119.31"/>
</a>
</g>
</g>
<!-- Node30 -->
<g id="Node000030" class="node">
<title>Node30</title>
<g id="a_Node000030"><a xlink:href="mqueue_8c.html" target="_top" xlink:title=" ">
<polygon fill="white" stroke="#666666" points="1969.5,-85 1904.5,-85 1904.5,-66 1969.5,-66 1969.5,-85"/>
<text text-anchor="middle" x="1937" y="-73" font-family="Helvetica,sans-Serif" font-size="10.00">mqueue.c</text>
</a>
</g>
</g>
<!-- Node25&#45;&gt;Node30 -->
<g id="edge34_Node000025_Node000030" class="edge">
<title>Node25&#45;&gt;Node30</title>
<g id="a_edge34_Node000025_Node000030"><a xlink:title=" ">
<path fill="none" stroke="#63b8ff" d="M1739.52,-120.11C1786.69,-109.69 1861.74,-93.12 1904.45,-83.69"/>
<polygon fill="#63b8ff" stroke="#63b8ff" points="1738.63,-116.72 1729.62,-122.3 1740.14,-123.56 1738.63,-116.72"/>
</a>
</g>
</g>
<!-- Node31 -->
<g id="Node000031" class="node">
<title>Node31</title>
<g id="a_Node000031"><a xlink:href="syscalls_8c.html" target="_top" xlink:title=" ">
<polygon fill="white" stroke="#666666" points="2052,-85 1988,-85 1988,-66 2052,-66 2052,-85"/>
<text text-anchor="middle" x="2020" y="-73" font-family="Helvetica,sans-Serif" font-size="10.00">syscalls.c</text>
</a>
</g>
</g>
<!-- Node25&#45;&gt;Node31 -->
<g id="edge36_Node000025_Node000031" class="edge">
<title>Node25&#45;&gt;Node31</title>
<g id="a_edge36_Node000025_Node000031"><a xlink:title=" ">
<path fill="none" stroke="#63b8ff" d="M1739.47,-121.01C1846.91,-102.38 1875.93,-103.4 1979,-85 1981.86,-84.49 1984.83,-83.93 1987.8,-83.35"/>
<polygon fill="#63b8ff" stroke="#63b8ff" points="1738.77,-117.57 1729.53,-122.75 1739.98,-124.47 1738.77,-117.57"/>
</a>
</g>
</g>
<!-- Node29&#45;&gt;Node16 -->
<g id="edge30_Node000029_Node000016" class="edge">
<title>Node29&#45;&gt;Node16</title>
<g id="a_edge30_Node000029_Node000016"><a xlink:title=" ">
<path fill="none" stroke="#63b8ff" d="M1538.33,-65.85C1363.41,-45.2 1168.95,-28.62 1072.2,-20.81"/>
<polygon fill="#63b8ff" stroke="#63b8ff" points="1538.15,-69.35 1548.49,-67.06 1538.97,-62.4 1538.15,-69.35"/>
</a>
</g>
</g>
<!-- Node29&#45;&gt;Node17 -->
<g id="edge31_Node000029_Node000017" class="edge">
<title>Node29&#45;&gt;Node17</title>
<g id="a_edge31_Node000029_Node000017"><a xlink:title=" ">
<path fill="none" stroke="#63b8ff" d="M1540.48,-64.25C1478.9,-53.47 1382.63,-36.6 1321.73,-25.94"/>
<polygon fill="#63b8ff" stroke="#63b8ff" points="1539.98,-67.72 1550.43,-65.99 1541.19,-60.82 1539.98,-67.72"/>
</a>
</g>
</g>
<!-- Node29&#45;&gt;Node19 -->
<g id="edge32_Node000029_Node000019" class="edge">
<title>Node29&#45;&gt;Node19</title>
<g id="a_edge32_Node000029_Node000019"><a xlink:title=" ">
<path fill="none" stroke="#63b8ff" d="M1599,-55.66C1599,-45.24 1599,-32.8 1599,-24.67"/>
<polygon fill="#63b8ff" stroke="#63b8ff" points="1595.5,-55.87 1599,-65.87 1602.5,-55.87 1595.5,-55.87"/>
</a>
</g>
</g>
<!-- Node29&#45;&gt;Node28 -->
<g id="edge29_Node000029_Node000028" class="edge">
<title>Node29&#45;&gt;Node28</title>
<g id="a_edge29_Node000029_Node000028"><a xlink:title=" ">
<path fill="none" stroke="#63b8ff" d="M1633.37,-62.67C1667.8,-50.82 1719.68,-32.97 1748.26,-23.14"/>
<polygon fill="#63b8ff" stroke="#63b8ff" points="1632.04,-59.43 1623.72,-65.99 1634.31,-66.05 1632.04,-59.43"/>
</a>
</g>
</g>
</g>
</svg>
