<?xml version="1.0" encoding="UTF-8" standalone="no"?>
<!DOCTYPE svg PUBLIC "-//W3C//DTD SVG 1.1//EN"
 "http://www.w3.org/Graphics/SVG/1.1/DTD/svg11.dtd">
<!-- Generated by graphviz version 2.43.0 (0)
 -->
<!-- Title: __attribute__ Pages: 1 -->
<svg width="1079pt" height="1059pt"
 viewBox="0.00 0.00 1079.00 1059.00" xmlns="http://www.w3.org/2000/svg" xmlns:xlink="http://www.w3.org/1999/xlink">
<g id="graph0" class="graph" transform="scale(1 1) rotate(0) translate(4 1055)">
<title>__attribute__</title>
<!-- Node1 -->
<g id="Node000001" class="node">
<title>Node1</title>
<g id="a_Node000001"><a xlink:title=" ">
<polygon fill="#999999" stroke="#666666" points="80,-938 0,-938 0,-919 80,-919 80,-938"/>
<text text-anchor="middle" x="40" y="-926" font-family="Helvetica,sans-Serif" font-size="10.00">__attribute__</text>
</a>
</g>
</g>
<!-- Node2 -->
<g id="Node000002" class="node">
<title>Node2</title>
<g id="a_Node000002"><a xlink:href="drv__cpu_8c.html#a99fd9d10ee6f0b14006cec1e5654b49e" target="_top" xlink:title=" ">
<polygon fill="white" stroke="#666666" points="262,-1012 116,-1012 116,-993 262,-993 262,-1012"/>
<text text-anchor="middle" x="189" y="-1000" font-family="Helvetica,sans-Serif" font-size="10.00">drv_cpu_interrupt_prio_set</text>
</a>
</g>
</g>
<!-- Node1&#45;&gt;Node2 -->
<g id="edge1_Node000001_Node000002" class="edge">
<title>Node1&#45;&gt;Node2</title>
<g id="a_edge1_Node000001_Node000002"><a xlink:title=" ">
<path fill="none" stroke="#63b8ff" d="M51.29,-938.32C64.99,-950.86 90.46,-972.38 116,-984.5 120.1,-986.45 124.45,-988.2 128.88,-989.78"/>
<polygon fill="#63b8ff" stroke="#63b8ff" points="128.08,-993.2 138.68,-992.95 130.24,-986.54 128.08,-993.2"/>
</a>
</g>
</g>
<!-- Node3 -->
<g id="Node000003" class="node">
<title>Node3</title>
<g id="a_Node000003"><a xlink:href="drv__rcc_8c.html#af3054c6c88fc3ec074b229ef07cd5f99" target="_top" xlink:title=" ">
<polygon fill="white" stroke="#666666" points="241,-975 137,-975 137,-956 241,-956 241,-975"/>
<text text-anchor="middle" x="189" y="-963" font-family="Helvetica,sans-Serif" font-size="10.00">drv_rcc_clock_init</text>
</a>
</g>
</g>
<!-- Node1&#45;&gt;Node3 -->
<g id="edge2_Node000001_Node000003" class="edge">
<title>Node1&#45;&gt;Node3</title>
<g id="a_edge2_Node000001_Node000003"><a xlink:title=" ">
<path fill="none" stroke="#63b8ff" d="M78.76,-938.09C90.68,-941.11 103.89,-944.45 116,-947.5 123.73,-949.45 131.93,-951.5 139.92,-953.5"/>
<polygon fill="#63b8ff" stroke="#63b8ff" points="139.33,-956.96 149.88,-955.99 141.03,-950.17 139.33,-956.96"/>
</a>
</g>
</g>
<!-- Node5 -->
<g id="Node000005" class="node">
<title>Node5</title>
<g id="a_Node000005"><a xlink:href="main_8c.html#aa675774b79cc01e2a386c7caf4fbdf03" target="_top" xlink:title=" ">
<polygon fill="white" stroke="#666666" points="235,-938 143,-938 143,-919 235,-919 235,-938"/>
<text text-anchor="middle" x="189" y="-926" font-family="Helvetica,sans-Serif" font-size="10.00">ipc_queues_init</text>
</a>
</g>
</g>
<!-- Node1&#45;&gt;Node5 -->
<g id="edge4_Node000001_Node000005" class="edge">
<title>Node1&#45;&gt;Node5</title>
<g id="a_edge4_Node000001_Node000005"><a xlink:title=" ">
<path fill="none" stroke="#63b8ff" d="M80.01,-928.5C96.15,-928.5 115.16,-928.5 132.69,-928.5"/>
<polygon fill="#63b8ff" stroke="#63b8ff" points="132.82,-932 142.82,-928.5 132.82,-925 132.82,-932"/>
</a>
</g>
</g>
<!-- Node15 -->
<g id="Node000015" class="node">
<title>Node15</title>
<g id="a_Node000015"><a xlink:href="kernel__service__core_8c.html#a77b96ca30dab7f5f8e84daae1ed8f183" target="_top" xlink:title=" ">
<polygon fill="white" stroke="#666666" points="260.5,-255 117.5,-255 117.5,-236 260.5,-236 260.5,-255"/>
<text text-anchor="middle" x="189" y="-243" font-family="Helvetica,sans-Serif" font-size="10.00">os_kernel_thread_register</text>
</a>
</g>
</g>
<!-- Node1&#45;&gt;Node15 -->
<g id="edge16_Node000001_Node000015" class="edge">
<title>Node1&#45;&gt;Node15</title>
<g id="a_edge16_Node000001_Node000015"><a xlink:title=" ">
<path fill="none" stroke="#63b8ff" d="M43.08,-918.84C58.99,-844.92 161.47,-368.76 183.74,-265.31"/>
<polygon fill="#63b8ff" stroke="#63b8ff" points="187.21,-265.8 185.89,-255.29 180.37,-264.33 187.21,-265.8"/>
</a>
</g>
</g>
<!-- Node58 -->
<g id="Node000058" class="node">
<title>Node58</title>
<g id="a_Node000058"><a xlink:href="syscalls_8c.html#ad0d112dcb5a30420dc7dabca65489281" target="_top" xlink:title=" ">
<polygon fill="white" stroke="#666666" points="895.5,-763 829.5,-763 829.5,-744 895.5,-744 895.5,-763"/>
<text text-anchor="middle" x="862.5" y="-751" font-family="Helvetica,sans-Serif" font-size="10.00">printk_init</text>
</a>
</g>
</g>
<!-- Node1&#45;&gt;Node58 -->
<g id="edge60_Node000001_Node000058" class="edge">
<title>Node1&#45;&gt;Node58</title>
<g id="a_edge60_Node000001_Node000058"><a xlink:title=" ">
<path fill="none" stroke="#63b8ff" d="M64.9,-918.87C117.9,-898.42 249.69,-852.5 364.5,-852.5 364.5,-852.5 364.5,-852.5 524.5,-852.5 642.36,-852.5 683.04,-885.1 789,-833.5 816.68,-820.02 838.69,-790.91 850.9,-771.77"/>
<polygon fill="#63b8ff" stroke="#63b8ff" points="854.01,-773.4 856.24,-763.05 848.04,-769.75 854.01,-773.4"/>
</a>
</g>
</g>
<!-- Node4 -->
<g id="Node000004" class="node">
<title>Node4</title>
<g id="a_Node000004"><a xlink:href="hal__rcc__stm32_8c.html#a6b3dd7413eeae3f2dc2c0d2641b36d2a" target="_top" xlink:title="Register RCC HAL backend.">
<polygon fill="white" stroke="#666666" points="433,-1012 298,-1012 298,-993 433,-993 433,-1012"/>
<text text-anchor="middle" x="365.5" y="-1000" font-family="Helvetica,sans-Serif" font-size="10.00">_hal_rcc_stm32_register</text>
</a>
</g>
</g>
<!-- Node3&#45;&gt;Node4 -->
<g id="edge3_Node000003_Node000004" class="edge">
<title>Node3&#45;&gt;Node4</title>
<g id="a_edge3_Node000003_Node000004"><a xlink:title=" ">
<path fill="none" stroke="#63b8ff" d="M234.94,-975.03C257.65,-979.84 285.4,-985.73 309.39,-990.81"/>
<polygon fill="#63b8ff" stroke="#63b8ff" points="308.9,-994.29 319.41,-992.94 310.35,-987.44 308.9,-994.29"/>
</a>
</g>
</g>
<!-- Node6 -->
<g id="Node000006" class="node">
<title>Node6</title>
<g id="a_Node000006"><a xlink:href="mqueue_8c.html#a873322f98cefc36f436c51802b74c9b4" target="_top" xlink:title=" ">
<polygon fill="white" stroke="#666666" points="414,-975 317,-975 317,-956 414,-956 414,-975"/>
<text text-anchor="middle" x="365.5" y="-963" font-family="Helvetica,sans-Serif" font-size="10.00">ipc_mqueue_init</text>
</a>
</g>
</g>
<!-- Node5&#45;&gt;Node6 -->
<g id="edge5_Node000005_Node000006" class="edge">
<title>Node5&#45;&gt;Node6</title>
<g id="a_edge5_Node000005_Node000006"><a xlink:title=" ">
<path fill="none" stroke="#63b8ff" d="M234.94,-938.03C257.65,-942.84 285.4,-948.73 309.39,-953.81"/>
<polygon fill="#63b8ff" stroke="#63b8ff" points="308.9,-957.29 319.41,-955.94 310.35,-950.44 308.9,-957.29"/>
</a>
</g>
</g>
<!-- Node8 -->
<g id="Node000008" class="node">
<title>Node8</title>
<g id="a_Node000008"><a xlink:href="mqueue_8c.html#a24352a9ab122f2913f5c92467d5bc676" target="_top" xlink:title=" ">
<polygon fill="white" stroke="#666666" points="425,-938 306,-938 306,-919 425,-919 425,-938"/>
<text text-anchor="middle" x="365.5" y="-926" font-family="Helvetica,sans-Serif" font-size="10.00">ipc_mqueue_register</text>
</a>
</g>
</g>
<!-- Node5&#45;&gt;Node8 -->
<g id="edge7_Node000005_Node000008" class="edge">
<title>Node5&#45;&gt;Node8</title>
<g id="a_edge7_Node000005_Node000008"><a xlink:title=" ">
<path fill="none" stroke="#63b8ff" d="M235.39,-928.5C253.79,-928.5 275.45,-928.5 295.71,-928.5"/>
<polygon fill="#63b8ff" stroke="#63b8ff" points="295.84,-932 305.84,-928.5 295.84,-925 295.84,-932"/>
</a>
</g>
</g>
<!-- Node7 -->
<g id="Node000007" class="node">
<title>Node7</title>
<g id="a_Node000007"><a xlink:href="group__list__api.html#ga9e661d1dcd51bd4eb3951488574058b0" target="_top" xlink:title="Initialize a list node [ Doubly circular].">
<polygon fill="white" stroke="#666666" points="550,-1051 497,-1051 497,-1032 550,-1032 550,-1051"/>
<text text-anchor="middle" x="523.5" y="-1039" font-family="Helvetica,sans-Serif" font-size="10.00">list_init</text>
</a>
</g>
</g>
<!-- Node6&#45;&gt;Node7 -->
<g id="edge6_Node000006_Node000007" class="edge">
<title>Node6&#45;&gt;Node7</title>
<g id="a_edge6_Node000006_Node000007"><a xlink:title=" ">
<path fill="none" stroke="#63b8ff" d="M412.62,-975.09C419.72,-977.57 426.76,-980.66 433,-984.5 453.09,-996.87 449.2,-1010.67 469,-1023.5 474.51,-1027.07 480.79,-1030 487.07,-1032.39"/>
<polygon fill="#63b8ff" stroke="#63b8ff" points="486.22,-1035.79 496.82,-1035.7 488.48,-1029.17 486.22,-1035.79"/>
</a>
</g>
</g>
<!-- Node9 -->
<g id="Node000009" class="node">
<title>Node9</title>
<g id="a_Node000009"><a xlink:href="os_2kernel__mem_8h.html#ab750d6dec279a17969f64507edde0767" target="_top" xlink:title=" ">
<polygon fill="white" stroke="#666666" points="722.5,-976 680.5,-976 680.5,-957 722.5,-957 722.5,-976"/>
<text text-anchor="middle" x="701.5" y="-964" font-family="Helvetica,sans-Serif" font-size="10.00">kfree</text>
</a>
</g>
</g>
<!-- Node8&#45;&gt;Node9 -->
<g id="edge8_Node000008_Node000009" class="edge">
<title>Node8&#45;&gt;Node9</title>
<g id="a_edge8_Node000008_Node000009"><a xlink:title=" ">
<path fill="none" stroke="#63b8ff" d="M412.26,-938.01C429.93,-941.41 450.34,-945.01 469,-947.5 540.82,-957.08 625.87,-962.57 670.2,-965"/>
<polygon fill="#63b8ff" stroke="#63b8ff" points="670.13,-968.5 680.3,-965.53 670.5,-961.51 670.13,-968.5"/>
</a>
</g>
</g>
<!-- Node10 -->
<g id="Node000010" class="node">
<title>Node10</title>
<g id="a_Node000010"><a xlink:href="os_2kernel__mem_8h.html#a2b55f9d76c0a87c16c336ec837a80101" target="_top" xlink:title=" ">
<polygon fill="white" stroke="#666666" points="728,-901 675,-901 675,-882 728,-882 728,-901"/>
<text text-anchor="middle" x="701.5" y="-889" font-family="Helvetica,sans-Serif" font-size="10.00">kmaloc</text>
</a>
</g>
</g>
<!-- Node8&#45;&gt;Node10 -->
<g id="edge9_Node000008_Node000010" class="edge">
<title>Node8&#45;&gt;Node10</title>
<g id="a_edge9_Node000008_Node000010"><a xlink:title=" ">
<path fill="none" stroke="#63b8ff" d="M415.37,-918.97C432.3,-915.92 451.44,-912.76 469,-910.5 537.87,-901.65 618.83,-896.11 664.46,-893.43"/>
<polygon fill="#63b8ff" stroke="#63b8ff" points="664.94,-896.91 674.73,-892.84 664.54,-889.92 664.94,-896.91"/>
</a>
</g>
</g>
<!-- Node11 -->
<g id="Node000011" class="node">
<title>Node11</title>
<g id="a_Node000011"><a xlink:href="group__list__api.html#gafb58231c241f9acee99a56aaa1b98cec" target="_top" xlink:title="Add a new node at the tail of the list.">
<polygon fill="white" stroke="#666666" points="561.5,-1014 485.5,-1014 485.5,-995 561.5,-995 561.5,-1014"/>
<text text-anchor="middle" x="523.5" y="-1002" font-family="Helvetica,sans-Serif" font-size="10.00">list_add_tail</text>
</a>
</g>
</g>
<!-- Node8&#45;&gt;Node11 -->
<g id="edge10_Node000008_Node000011" class="edge">
<title>Node8&#45;&gt;Node11</title>
<g id="a_edge10_Node000008_Node000011"><a xlink:title=" ">
<path fill="none" stroke="#63b8ff" d="M410.94,-938.08C418.55,-940.59 426.19,-943.69 433,-947.5 451.94,-958.1 450.87,-968.57 469,-980.5 474.77,-984.3 481.24,-987.77 487.64,-990.82"/>
<polygon fill="#63b8ff" stroke="#63b8ff" points="486.3,-994.05 496.86,-994.97 489.18,-987.67 486.3,-994.05"/>
</a>
</g>
</g>
<!-- Node13 -->
<g id="Node000013" class="node">
<title>Node13</title>
<g id="a_Node000013"><a xlink:href="ringbuffer_8c.html#a85a94391518dcb013756001945f97cd1" target="_top" xlink:title=" ">
<polygon fill="white" stroke="#666666" points="573.5,-938 473.5,-938 473.5,-919 573.5,-919 573.5,-938"/>
<text text-anchor="middle" x="523.5" y="-926" font-family="Helvetica,sans-Serif" font-size="10.00">ringbuffer_create</text>
</a>
</g>
</g>
<!-- Node8&#45;&gt;Node13 -->
<g id="edge12_Node000008_Node000013" class="edge">
<title>Node8&#45;&gt;Node13</title>
<g id="a_edge12_Node000008_Node000013"><a xlink:title=" ">
<path fill="none" stroke="#63b8ff" d="M425.03,-928.5C437.46,-928.5 450.59,-928.5 463.05,-928.5"/>
<polygon fill="#63b8ff" stroke="#63b8ff" points="463.33,-932 473.33,-928.5 463.33,-925 463.33,-932"/>
</a>
</g>
</g>
<!-- Node12 -->
<g id="Node000012" class="node">
<title>Node12</title>
<g id="a_Node000012"><a xlink:href="group__list__api.html#gab1766e25461b90b75aa3360245547452" target="_top" xlink:title="add a node in between two nodes.">
<polygon fill="white" stroke="#666666" points="729,-1014 674,-1014 674,-995 729,-995 729,-1014"/>
<text text-anchor="middle" x="701.5" y="-1002" font-family="Helvetica,sans-Serif" font-size="10.00">list_add</text>
</a>
</g>
</g>
<!-- Node11&#45;&gt;Node12 -->
<g id="edge11_Node000011_Node000012" class="edge">
<title>Node11&#45;&gt;Node12</title>
<g id="a_edge11_Node000011_Node000012"><a xlink:title=" ">
<path fill="none" stroke="#63b8ff" d="M561.83,-1004.5C591.88,-1004.5 633.9,-1004.5 663.8,-1004.5"/>
<polygon fill="#63b8ff" stroke="#63b8ff" points="663.82,-1008 673.82,-1004.5 663.82,-1001 663.82,-1008"/>
</a>
</g>
</g>
<!-- Node13&#45;&gt;Node9 -->
<g id="edge13_Node000013_Node000009" class="edge">
<title>Node13&#45;&gt;Node9</title>
<g id="a_edge13_Node000013_Node000009"><a xlink:title=" ">
<path fill="none" stroke="#63b8ff" d="M568.91,-938.09C600.7,-944.95 642.63,-954.01 670.53,-960.03"/>
<polygon fill="#63b8ff" stroke="#63b8ff" points="669.97,-963.49 680.48,-962.18 671.45,-956.65 669.97,-963.49"/>
</a>
</g>
</g>
<!-- Node13&#45;&gt;Node10 -->
<g id="edge14_Node000013_Node000010" class="edge">
<title>Node13&#45;&gt;Node10</title>
<g id="a_edge14_Node000013_Node000010"><a xlink:title=" ">
<path fill="none" stroke="#63b8ff" d="M569.82,-918.97C599.45,-912.74 637.58,-904.73 665,-898.96"/>
<polygon fill="#63b8ff" stroke="#63b8ff" points="665.88,-902.36 674.94,-896.87 664.44,-895.5 665.88,-902.36"/>
</a>
</g>
</g>
<!-- Node14 -->
<g id="Node000014" class="node">
<title>Node14</title>
<g id="a_Node000014"><a xlink:href="ringbuffer_8c.html#a8752f9288f9de94cc6f1a454b38c289d" target="_top" xlink:title=" ">
<polygon fill="white" stroke="#666666" points="744,-938 659,-938 659,-919 744,-919 744,-938"/>
<text text-anchor="middle" x="701.5" y="-926" font-family="Helvetica,sans-Serif" font-size="10.00">ringbuffer_init</text>
</a>
</g>
</g>
<!-- Node13&#45;&gt;Node14 -->
<g id="edge15_Node000013_Node000014" class="edge">
<title>Node13&#45;&gt;Node14</title>
<g id="a_edge15_Node000013_Node000014"><a xlink:title=" ">
<path fill="none" stroke="#63b8ff" d="M573.53,-928.5C596.92,-928.5 624.91,-928.5 648.65,-928.5"/>
<polygon fill="#63b8ff" stroke="#63b8ff" points="648.89,-932 658.89,-928.5 648.89,-925 648.89,-932"/>
</a>
</g>
</g>
<!-- Node16 -->
<g id="Node000016" class="node">
<title>Node16</title>
<g id="a_Node000016"><a xlink:href="gpio__mgmt_8c.html#a7beb78991c70b9fc3165c93ce5b7ff6b" target="_top" xlink:title=" ">
<polygon fill="white" stroke="#666666" points="415.5,-312 315.5,-312 315.5,-293 415.5,-293 415.5,-312"/>
<text text-anchor="middle" x="365.5" y="-300" font-family="Helvetica,sans-Serif" font-size="10.00">gpio_mgmt_start</text>
</a>
</g>
</g>
<!-- Node15&#45;&gt;Node16 -->
<g id="edge17_Node000015_Node000016" class="edge">
<title>Node15&#45;&gt;Node16</title>
<g id="a_edge17_Node000015_Node000016"><a xlink:title=" ">
<path fill="none" stroke="#63b8ff" d="M219.21,-255.04C248.4,-264.58 293.46,-279.29 325.65,-289.81"/>
<polygon fill="#63b8ff" stroke="#63b8ff" points="324.6,-293.15 335.2,-292.93 326.78,-286.5 324.6,-293.15"/>
</a>
</g>
</g>
<!-- Node23 -->
<g id="Node000023" class="node">
<title>Node23</title>
<g id="a_Node000023"><a xlink:href="group__Thread.html#ga21ff81ef0bcb5564ba8ee6c5a0da2acc" target="_top" xlink:title=" ">
<polygon fill="white" stroke="#666666" points="574,-293 473,-293 473,-274 574,-274 574,-293"/>
<text text-anchor="middle" x="523.5" y="-281" font-family="Helvetica,sans-Serif" font-size="10.00">os_thread_create</text>
</a>
</g>
</g>
<!-- Node15&#45;&gt;Node23 -->
<g id="edge39_Node000015_Node000023" class="edge">
<title>Node15&#45;&gt;Node23</title>
<g id="a_edge39_Node000015_Node000023"><a xlink:title=" ">
<path fill="none" stroke="#63b8ff" d="M260.51,-253.56C320.54,-260.42 405.83,-270.17 462.61,-276.65"/>
<polygon fill="#63b8ff" stroke="#63b8ff" points="462.53,-280.17 472.86,-277.83 463.32,-273.21 462.53,-280.17"/>
</a>
</g>
</g>
<!-- Node24 -->
<g id="Node000024" class="node">
<title>Node24</title>
<g id="a_Node000024"><a xlink:href="iic__mgmt_8h.html#a431d300c76a908145b6f0732a5b63710" target="_top" xlink:title=" ">
<polygon fill="white" stroke="#666666" points="410.5,-134 320.5,-134 320.5,-115 410.5,-115 410.5,-134"/>
<text text-anchor="middle" x="365.5" y="-122" font-family="Helvetica,sans-Serif" font-size="10.00">iic_mgmt_start</text>
</a>
</g>
</g>
<!-- Node15&#45;&gt;Node24 -->
<g id="edge25_Node000015_Node000024" class="edge">
<title>Node15&#45;&gt;Node24</title>
<g id="a_edge25_Node000015_Node000024"><a xlink:title=" ">
<path fill="none" stroke="#63b8ff" d="M197.53,-235.75C213.69,-215.49 253.85,-168.64 298,-143.5 301.98,-141.23 306.25,-139.22 310.64,-137.44"/>
<polygon fill="#63b8ff" stroke="#63b8ff" points="312.17,-140.6 320.36,-133.88 309.77,-134.03 312.17,-140.6"/>
</a>
</g>
</g>
<!-- Node25 -->
<g id="Node000025" class="node">
<title>Node25</title>
<g id="a_Node000025"><a xlink:href="os__shell__management_8c.html#a8fae79f71d15477bc1251891e977e46e" target="_top" xlink:title="Create and start the OS shell management task.">
<polygon fill="white" stroke="#666666" points="425,-236 306,-236 306,-217 425,-217 425,-236"/>
<text text-anchor="middle" x="365.5" y="-224" font-family="Helvetica,sans-Serif" font-size="10.00">os_shell_mgmt_start</text>
</a>
</g>
</g>
<!-- Node15&#45;&gt;Node25 -->
<g id="edge26_Node000015_Node000025" class="edge">
<title>Node15&#45;&gt;Node25</title>
<g id="a_edge26_Node000015_Node000025"><a xlink:title=" ">
<path fill="none" stroke="#63b8ff" d="M260.72,-237.8C272.34,-236.53 284.37,-235.23 295.93,-233.97"/>
<polygon fill="#63b8ff" stroke="#63b8ff" points="296.39,-237.44 305.95,-232.87 295.63,-230.48 296.39,-237.44"/>
</a>
</g>
</g>
<!-- Node38 -->
<g id="Node000038" class="node">
<title>Node38</title>
<g id="a_Node000038"><a xlink:href="spi__mgmt_8h.html#a0b08c74b645c9de08ab9f24dca88cd53" target="_top" xlink:title=" ">
<polygon fill="white" stroke="#666666" points="412,-97 319,-97 319,-78 412,-78 412,-97"/>
<text text-anchor="middle" x="365.5" y="-85" font-family="Helvetica,sans-Serif" font-size="10.00">spi_mgmt_start</text>
</a>
</g>
</g>
<!-- Node15&#45;&gt;Node38 -->
<g id="edge40_Node000015_Node000038" class="edge">
<title>Node15&#45;&gt;Node38</title>
<g id="a_edge40_Node000015_Node000038"><a xlink:title=" ">
<path fill="none" stroke="#63b8ff" d="M194.78,-235.7C207.69,-210.27 245.84,-141.75 298,-106.5 301.53,-104.12 305.35,-102.03 309.32,-100.2"/>
<polygon fill="#63b8ff" stroke="#63b8ff" points="310.82,-103.37 318.79,-96.39 308.2,-96.88 310.82,-103.37"/>
</a>
</g>
</g>
<!-- Node39 -->
<g id="Node000039" class="node">
<title>Node39</title>
<g id="a_Node000039"><a xlink:href="kernel__service__task__manager_8c.html#a2f2b4590ebd8517da5b7479999cb13af" target="_top" xlink:title=" ">
<polygon fill="white" stroke="#666666" points="420,-171 311,-171 311,-152 420,-152 420,-171"/>
<text text-anchor="middle" x="365.5" y="-159" font-family="Helvetica,sans-Serif" font-size="10.00">thread_task_mgmt</text>
</a>
</g>
</g>
<!-- Node15&#45;&gt;Node39 -->
<g id="edge41_Node000015_Node000039" class="edge">
<title>Node15&#45;&gt;Node39</title>
<g id="a_edge41_Node000015_Node000039"><a xlink:title=" ">
<path fill="none" stroke="#63b8ff" d="M210.02,-235.86C240.79,-221.05 299.86,-192.62 335.37,-175.52"/>
<polygon fill="#63b8ff" stroke="#63b8ff" points="337.22,-178.51 344.72,-171.02 334.19,-172.21 337.22,-178.51"/>
</a>
</g>
</g>
<!-- Node45 -->
<g id="Node000045" class="node">
<title>Node45</title>
<g id="a_Node000045"><a xlink:href="uart__mgmt_8c.html#a8e8f570b41df4e77ed5acfbeaef25423" target="_top" xlink:title="Create and start the UART management thread.">
<polygon fill="white" stroke="#666666" points="414.5,-349 316.5,-349 316.5,-330 414.5,-330 414.5,-349"/>
<text text-anchor="middle" x="365.5" y="-337" font-family="Helvetica,sans-Serif" font-size="10.00">uart_mgmt_start</text>
</a>
</g>
</g>
<!-- Node15&#45;&gt;Node45 -->
<g id="edge48_Node000015_Node000045" class="edge">
<title>Node15&#45;&gt;Node45</title>
<g id="a_edge48_Node000015_Node000045"><a xlink:title=" ">
<path fill="none" stroke="#63b8ff" d="M200.85,-255.12C219.45,-271.13 259.19,-303.29 298,-321.5 302.07,-323.41 306.38,-325.15 310.76,-326.72"/>
<polygon fill="#63b8ff" stroke="#63b8ff" points="309.84,-330.1 320.44,-329.91 312.04,-323.45 309.84,-330.1"/>
</a>
</g>
</g>
<!-- Node17 -->
<g id="Node000017" class="node">
<title>Node17</title>
<g id="a_Node000017"><a xlink:href="gpio__mgmt_8c.html#a2f7aa8d4452bd40df6190f1027d25c20" target="_top" xlink:title=" ">
<polygon fill="white" stroke="#666666" points="578,-414 469,-414 469,-395 578,-395 578,-414"/>
<text text-anchor="middle" x="523.5" y="-402" font-family="Helvetica,sans-Serif" font-size="10.00">gpio_mgmt_thread</text>
</a>
</g>
</g>
<!-- Node16&#45;&gt;Node17 -->
<g id="edge18_Node000016_Node000017" class="edge">
<title>Node16&#45;&gt;Node17</title>
<g id="a_edge18_Node000016_Node000017"><a xlink:title=" ">
<path fill="none" stroke="#63b8ff" d="M410.96,-312.05C418.57,-314.56 426.2,-317.67 433,-321.5 463.42,-338.64 491.76,-368.1 508.09,-386.92"/>
<polygon fill="#63b8ff" stroke="#63b8ff" points="505.58,-389.37 514.72,-394.73 510.92,-384.84 505.58,-389.37"/>
</a>
</g>
</g>
<!-- Node16&#45;&gt;Node23 -->
<g id="edge24_Node000016_Node000023" class="edge">
<title>Node16&#45;&gt;Node23</title>
<g id="a_edge24_Node000016_Node000023"><a xlink:title=" ">
<path fill="none" stroke="#63b8ff" d="M415.86,-296.49C430.8,-294.67 447.36,-292.65 462.9,-290.76"/>
<polygon fill="#63b8ff" stroke="#63b8ff" points="463.42,-294.22 472.93,-289.54 462.58,-287.27 463.42,-294.22"/>
</a>
</g>
</g>
<!-- Node18 -->
<g id="Node000018" class="node">
<title>Node18</title>
<g id="a_Node000018"><a xlink:href="drv__gpio_8c.html#a0c96221e67620454c2c8f08c9a785524" target="_top" xlink:title=" ">
<polygon fill="white" stroke="#666666" points="760.5,-392 642.5,-392 642.5,-373 760.5,-373 760.5,-392"/>
<text text-anchor="middle" x="701.5" y="-380" font-family="Helvetica,sans-Serif" font-size="10.00">drv_gpio_get_handle</text>
</a>
</g>
</g>
<!-- Node17&#45;&gt;Node18 -->
<g id="edge19_Node000017_Node000018" class="edge">
<title>Node17&#45;&gt;Node18</title>
<g id="a_edge19_Node000017_Node000018"><a xlink:title=" ">
<path fill="none" stroke="#63b8ff" d="M578.26,-397.78C595.33,-395.65 614.43,-393.26 632.37,-391.02"/>
<polygon fill="#63b8ff" stroke="#63b8ff" points="632.99,-394.47 642.48,-389.75 632.12,-387.52 632.99,-394.47"/>
</a>
</g>
</g>
<!-- Node19 -->
<g id="Node000019" class="node">
<title>Node19</title>
<g id="a_Node000019"><a xlink:href="drv__gpio_8c.html#a72d83c6bed1bb43b771c47d2de6417d3" target="_top" xlink:title=" ">
<polygon fill="white" stroke="#666666" points="752,-355 651,-355 651,-336 752,-336 752,-355"/>
<text text-anchor="middle" x="701.5" y="-343" font-family="Helvetica,sans-Serif" font-size="10.00">drv_gpio_register</text>
</a>
</g>
</g>
<!-- Node17&#45;&gt;Node19 -->
<g id="edge20_Node000017_Node000019" class="edge">
<title>Node17&#45;&gt;Node19</title>
<g id="a_edge20_Node000017_Node000019"><a xlink:title=" ">
<path fill="none" stroke="#63b8ff" d="M542.92,-394.93C560.71,-386.01 588.62,-372.86 614,-364.5 622.58,-361.67 631.78,-359.14 640.86,-356.92"/>
<polygon fill="#63b8ff" stroke="#63b8ff" points="641.69,-360.32 650.63,-354.64 640.09,-353.51 641.69,-360.32"/>
</a>
</g>
</g>
<!-- Node20 -->
<g id="Node000020" class="node">
<title>Node20</title>
<g id="a_Node000020"><a xlink:href="hal__gpio__stm32_8c.html#abcec079fb8a1cf67b382f5378299a8ef" target="_top" xlink:title="Return pointer to the STM32 GPIO HAL ops table.">
<polygon fill="white" stroke="#666666" points="770,-515 633,-515 633,-496 770,-496 770,-515"/>
<text text-anchor="middle" x="701.5" y="-503" font-family="Helvetica,sans-Serif" font-size="10.00">hal_gpio_stm32_get_ops</text>
</a>
</g>
</g>
<!-- Node17&#45;&gt;Node20 -->
<g id="edge21_Node000017_Node000020" class="edge">
<title>Node17&#45;&gt;Node20</title>
<g id="a_edge21_Node000017_Node000020"><a xlink:title=" ">
<path fill="none" stroke="#63b8ff" d="M531.92,-414.25C545.91,-431.87 578.03,-468.94 614,-487.5 617.76,-489.44 621.71,-491.17 625.77,-492.71"/>
<polygon fill="#63b8ff" stroke="#63b8ff" points="624.8,-496.08 635.39,-495.99 627.05,-489.45 624.8,-496.08"/>
</a>
</g>
</g>
<!-- Node21 -->
<g id="Node000021" class="node">
<title>Node21</title>
<g id="a_Node000021"><a xlink:href="hal__gpio__stm32_8c.html#ad2d190ad23771d78c159360bc6f14264" target="_top" xlink:title="Populate the hardware context in a generic GPIO handle.">
<polygon fill="white" stroke="#666666" points="758.5,-440.5 644.5,-440.5 644.5,-410.5 758.5,-410.5 758.5,-440.5"/>
<text text-anchor="start" x="652.5" y="-428.5" font-family="Helvetica,sans-Serif" font-size="10.00">hal_gpio_stm32_set</text>
<text text-anchor="middle" x="701.5" y="-417.5" font-family="Helvetica,sans-Serif" font-size="10.00">_config</text>
</a>
</g>
</g>
<!-- Node17&#45;&gt;Node21 -->
<g id="edge22_Node000017_Node000021" class="edge">
<title>Node17&#45;&gt;Node21</title>
<g id="a_edge22_Node000017_Node000021"><a xlink:title=" ">
<path fill="none" stroke="#63b8ff" d="M578.26,-410.91C595.92,-413.02 615.75,-415.39 634.23,-417.59"/>
<polygon fill="#63b8ff" stroke="#63b8ff" points="633.98,-421.09 644.32,-418.8 634.81,-414.14 633.98,-421.09"/>
</a>
</g>
</g>
<!-- Node22 -->
<g id="Node000022" class="node">
<title>Node22</title>
<g id="a_Node000022"><a xlink:href="group__Thread.html#gaf16424e47477714927313ecec2821eec" target="_top" xlink:title=" ">
<polygon fill="white" stroke="#666666" points="750,-478 653,-478 653,-459 750,-459 750,-478"/>
<text text-anchor="middle" x="701.5" y="-466" font-family="Helvetica,sans-Serif" font-size="10.00">os_thread_delay</text>
</a>
</g>
</g>
<!-- Node17&#45;&gt;Node22 -->
<g id="edge23_Node000017_Node000022" class="edge">
<title>Node17&#45;&gt;Node22</title>
<g id="a_edge23_Node000017_Node000022"><a xlink:title=" ">
<path fill="none" stroke="#63b8ff" d="M540.45,-414.06C557.95,-424.18 587.12,-439.96 614,-449.5 623.14,-452.74 633.03,-455.54 642.74,-457.92"/>
<polygon fill="#63b8ff" stroke="#63b8ff" points="642.23,-461.39 652.76,-460.24 643.81,-454.57 642.23,-461.39"/>
</a>
</g>
</g>
<!-- Node25&#45;&gt;Node23 -->
<g id="edge38_Node000025_Node000023" class="edge">
<title>Node25&#45;&gt;Node23</title>
<g id="a_edge38_Node000025_Node000023"><a xlink:title=" ">
<path fill="none" stroke="#63b8ff" d="M393.05,-236.03C405.23,-240.42 419.85,-245.7 433,-250.5 450.78,-256.99 470.52,-264.26 486.93,-270.32"/>
<polygon fill="#63b8ff" stroke="#63b8ff" points="486.07,-273.74 496.67,-273.92 488.5,-267.17 486.07,-273.74"/>
</a>
</g>
</g>
<!-- Node26 -->
<g id="Node000026" class="node">
<title>Node26</title>
<g id="a_Node000026"><a xlink:href="os__shell__management_8c.html#a5b7eb0bbbac6bbc8febc3cf4a41932f5" target="_top" xlink:title=" ">
<polygon fill="white" stroke="#666666" points="567.5,-236 479.5,-236 479.5,-217 567.5,-217 567.5,-236"/>
<text text-anchor="middle" x="523.5" y="-224" font-family="Helvetica,sans-Serif" font-size="10.00">_os_shell_task</text>
</a>
</g>
</g>
<!-- Node25&#45;&gt;Node26 -->
<g id="edge27_Node000025_Node000026" class="edge">
<title>Node25&#45;&gt;Node26</title>
<g id="a_edge27_Node000025_Node000026"><a xlink:title=" ">
<path fill="none" stroke="#63b8ff" d="M425.03,-226.5C439.5,-226.5 454.93,-226.5 469.14,-226.5"/>
<polygon fill="#63b8ff" stroke="#63b8ff" points="469.24,-230 479.24,-226.5 469.24,-223 469.24,-230"/>
</a>
</g>
</g>
<!-- Node26&#45;&gt;Node22 -->
<g id="edge34_Node000026_Node000022" class="edge">
<title>Node26&#45;&gt;Node22</title>
<g id="a_edge34_Node000026_Node000022"><a xlink:title=" ">
<path fill="none" stroke="#63b8ff" d="M544.26,-236.08C555.88,-242.73 569.85,-252.7 578,-265.5 622.76,-335.79 555.76,-389.9 614,-449.5 621.73,-457.41 631.96,-462.38 642.66,-465.43"/>
<polygon fill="#63b8ff" stroke="#63b8ff" points="642.03,-468.88 652.56,-467.72 643.61,-462.06 642.03,-468.88"/>
</a>
</g>
</g>
<!-- Node27 -->
<g id="Node000027" class="node">
<title>Node27</title>
<g id="a_Node000027"><a xlink:href="os__shell__management_8c.html#a63ab3e9917ce5b451d7db14187564113" target="_top" xlink:title=" ">
<polygon fill="white" stroke="#666666" points="743,-281 660,-281 660,-262 743,-262 743,-281"/>
<text text-anchor="middle" x="701.5" y="-269" font-family="Helvetica,sans-Serif" font-size="10.00">_print_banner</text>
</a>
</g>
</g>
<!-- Node26&#45;&gt;Node27 -->
<g id="edge28_Node000026_Node000027" class="edge">
<title>Node26&#45;&gt;Node27</title>
<g id="a_edge28_Node000026_Node000027"><a xlink:title=" ">
<path fill="none" stroke="#63b8ff" d="M561.83,-236.04C588.54,-242.87 624.71,-252.12 653.42,-259.46"/>
<polygon fill="#63b8ff" stroke="#63b8ff" points="652.67,-262.88 663.23,-261.97 654.41,-256.1 652.67,-262.88"/>
</a>
</g>
</g>
<!-- Node28 -->
<g id="Node000028" class="node">
<title>Node28</title>
<g id="a_Node000028"><a xlink:href="os__shell__management_8c.html#a4dcab531b1b38b06384ff4035db371da" target="_top" xlink:title=" ">
<polygon fill="white" stroke="#666666" points="757,-167 646,-167 646,-148 757,-148 757,-167"/>
<text text-anchor="middle" x="701.5" y="-155" font-family="Helvetica,sans-Serif" font-size="10.00">_shell_process_line</text>
</a>
</g>
</g>
<!-- Node26&#45;&gt;Node28 -->
<g id="edge29_Node000026_Node000028" class="edge">
<title>Node26&#45;&gt;Node28</title>
<g id="a_edge29_Node000026_Node000028"><a xlink:title=" ">
<path fill="none" stroke="#63b8ff" d="M541.21,-216.86C558.86,-206.97 587.71,-191.64 614,-181.5 625.47,-177.07 638.09,-173.09 650.06,-169.71"/>
<polygon fill="#63b8ff" stroke="#63b8ff" points="651.2,-173.03 659.92,-167.01 649.35,-166.28 651.2,-173.03"/>
</a>
</g>
</g>
<!-- Node29 -->
<g id="Node000029" class="node">
<title>Node29</title>
<g id="a_Node000029"><a xlink:href="os__shell__management_8c.html#a674105c8790acda9c7e4ea9a74cf1aec" target="_top" xlink:title=" ">
<polygon fill="#fff0f0" stroke="red" points="900,-205 825,-205 825,-186 900,-186 900,-205"/>
<text text-anchor="middle" x="862.5" y="-193" font-family="Helvetica,sans-Serif" font-size="10.00">_shell_write</text>
</a>
</g>
</g>
<!-- Node26&#45;&gt;Node29 -->
<g id="edge32_Node000026_Node000029" class="edge">
<title>Node26&#45;&gt;Node29</title>
<g id="a_edge32_Node000026_Node000029"><a xlink:title=" ">
<path fill="none" stroke="#63b8ff" d="M567.52,-222.54C631.02,-216.7 749.37,-205.81 814.87,-199.79"/>
<polygon fill="#63b8ff" stroke="#63b8ff" points="815.28,-203.27 824.92,-198.87 814.64,-196.3 815.28,-203.27"/>
</a>
</g>
</g>
<!-- Node31 -->
<g id="Node000031" class="node">
<title>Node31</title>
<g id="a_Node000031"><a xlink:href="mqueue_8c.html#ae54fde83faac5a815d0afa0be0ceb447" target="_top" xlink:title=" ">
<polygon fill="white" stroke="#666666" points="1071,-435 936,-435 936,-416 1071,-416 1071,-435"/>
<text text-anchor="middle" x="1003.5" y="-423" font-family="Helvetica,sans-Serif" font-size="10.00">ipc_mqueue_get_handle</text>
</a>
</g>
</g>
<!-- Node26&#45;&gt;Node31 -->
<g id="edge33_Node000026_Node000031" class="edge">
<title>Node26&#45;&gt;Node31</title>
<g id="a_edge33_Node000026_Node000031"><a xlink:title=" ">
<path fill="none" stroke="#63b8ff" d="M567.53,-223.57C621.41,-221.51 715.57,-223.32 789,-253.5 875.81,-289.18 955.56,-371.95 987.62,-408.09"/>
<polygon fill="#63b8ff" stroke="#63b8ff" points="985.17,-410.61 994.39,-415.83 990.44,-406 985.17,-410.61"/>
</a>
</g>
</g>
<!-- Node35 -->
<g id="Node000035" class="node">
<title>Node35</title>
<g id="a_Node000035"><a xlink:href="syscalls_8c.html#a1c0b4afcbe4d9f5c21ef438f3bcf3e4c" target="_top" xlink:title=" ">
<polygon fill="white" stroke="#666666" points="744.5,-130 658.5,-130 658.5,-111 744.5,-111 744.5,-130"/>
<text text-anchor="middle" x="701.5" y="-118" font-family="Helvetica,sans-Serif" font-size="10.00">printk_disable</text>
</a>
</g>
</g>
<!-- Node26&#45;&gt;Node35 -->
<g id="edge35_Node000026_Node000035" class="edge">
<title>Node26&#45;&gt;Node35</title>
<g id="a_edge35_Node000026_Node000035"><a xlink:title=" ">
<path fill="none" stroke="#63b8ff" d="M533.29,-216.69C551.9,-196.15 595.11,-149.67 614,-139.5 624.58,-133.81 636.75,-129.82 648.57,-127.03"/>
<polygon fill="#63b8ff" stroke="#63b8ff" points="649.31,-130.45 658.37,-124.95 647.86,-123.6 649.31,-130.45"/>
</a>
</g>
</g>
<!-- Node36 -->
<g id="Node000036" class="node">
<title>Node36</title>
<g id="a_Node000036"><a xlink:href="ringbuffer_8c.html#a3ad0c7d81e438887de4a1e02f25d4796" target="_top" xlink:title=" ">
<polygon fill="#fff0f0" stroke="red" points="754.5,-93 648.5,-93 648.5,-74 754.5,-74 754.5,-93"/>
<text text-anchor="middle" x="701.5" y="-81" font-family="Helvetica,sans-Serif" font-size="10.00">ringbuffer_getchar</text>
</a>
</g>
</g>
<!-- Node26&#45;&gt;Node36 -->
<g id="edge36_Node000026_Node000036" class="edge">
<title>Node26&#45;&gt;Node36</title>
<g id="a_edge36_Node000026_Node000036"><a xlink:title=" ">
<path fill="none" stroke="#63b8ff" d="M534.29,-216.87C545.59,-205.46 564.37,-185.58 578,-166.5 596.97,-139.94 587.77,-121.92 614,-102.5 621.18,-97.18 629.56,-93.3 638.23,-90.47"/>
<polygon fill="#63b8ff" stroke="#63b8ff" points="639.39,-93.78 648.08,-87.71 637.51,-87.04 639.39,-93.78"/>
</a>
</g>
</g>
<!-- Node37 -->
<g id="Node000037" class="node">
<title>Node37</title>
<g id="a_Node000037"><a xlink:href="shell__task__mgmt_8c.html#a969e317f3c6f3236be6c00aff01d1ac2" target="_top" xlink:title=" ">
<polygon fill="white" stroke="#666666" points="789,-318 614,-318 614,-299 789,-299 789,-318"/>
<text text-anchor="middle" x="701.5" y="-306" font-family="Helvetica,sans-Serif" font-size="10.00">shell_task_mgmt_register_cmds</text>
</a>
</g>
</g>
<!-- Node26&#45;&gt;Node37 -->
<g id="edge37_Node000026_Node000037" class="edge">
<title>Node26&#45;&gt;Node37</title>
<g id="a_edge37_Node000026_Node000037"><a xlink:title=" ">
<path fill="none" stroke="#63b8ff" d="M537.7,-236.16C561.56,-253.58 609.8,-288.66 614,-290.5 618.71,-292.56 623.67,-294.39 628.73,-296.02"/>
<polygon fill="#63b8ff" stroke="#63b8ff" points="627.97,-299.45 638.55,-298.9 629.94,-292.73 627.97,-299.45"/>
</a>
</g>
</g>
<!-- Node28&#45;&gt;Node29 -->
<g id="edge30_Node000028_Node000029" class="edge">
<title>Node28&#45;&gt;Node29</title>
<g id="a_edge30_Node000028_Node000029"><a xlink:title=" ">
<path fill="none" stroke="#63b8ff" d="M742.62,-167.09C764.66,-172.36 792.1,-178.91 815.06,-184.4"/>
<polygon fill="#63b8ff" stroke="#63b8ff" points="814.39,-187.84 824.93,-186.76 816.02,-181.03 814.39,-187.84"/>
</a>
</g>
</g>
<!-- Node29&#45;&gt;Node31 -->
<g id="edge31_Node000029_Node000031" class="edge">
<title>Node29&#45;&gt;Node31</title>
<g id="a_edge31_Node000029_Node000031"><a xlink:title=" ">
<path fill="none" stroke="#63b8ff" d="M882.04,-205.05C888.3,-208.92 894.97,-213.83 900,-219.5 951.84,-277.97 984.3,-367.36 996.73,-406.28"/>
<polygon fill="#63b8ff" stroke="#63b8ff" points="993.4,-407.34 999.71,-415.85 1000.08,-405.26 993.4,-407.34"/>
</a>
</g>
</g>
<!-- Node40 -->
<g id="Node000040" class="node">
<title>Node40</title>
<g id="a_Node000040"><a xlink:href="kernel__service__task__manager_8c.html#a9bd1f7483701ba8f3f456b6988080b69" target="_top" xlink:title=" ">
<polygon fill="white" stroke="#666666" points="560.5,-120 486.5,-120 486.5,-101 560.5,-101 560.5,-120"/>
<text text-anchor="middle" x="523.5" y="-108" font-family="Helvetica,sans-Serif" font-size="10.00">_scan_heap</text>
</a>
</g>
</g>
<!-- Node39&#45;&gt;Node40 -->
<g id="edge42_Node000039_Node000040" class="edge">
<title>Node39&#45;&gt;Node40</title>
<g id="a_edge42_Node000039_Node000040"><a xlink:title=" ">
<path fill="none" stroke="#63b8ff" d="M404.69,-151.91C414.01,-149.37 423.91,-146.49 433,-143.5 449.31,-138.14 452.91,-135.48 469,-129.5 474.31,-127.52 479.94,-125.48 485.47,-123.49"/>
<polygon fill="#63b8ff" stroke="#63b8ff" points="486.98,-126.67 495.23,-120.01 484.63,-120.07 486.98,-126.67"/>
</a>
</g>
</g>
<!-- Node41 -->
<g id="Node000041" class="node">
<title>Node41</title>
<g id="a_Node000041"><a xlink:href="kernel__service__task__manager_8c.html#a342acfaa98bdf03d21e1d9fca4edf719" target="_top" xlink:title=" ">
<polygon fill="white" stroke="#666666" points="561.5,-157 485.5,-157 485.5,-138 561.5,-138 561.5,-157"/>
<text text-anchor="middle" x="523.5" y="-145" font-family="Helvetica,sans-Serif" font-size="10.00">_scan_tasks</text>
</a>
</g>
</g>
<!-- Node39&#45;&gt;Node41 -->
<g id="edge43_Node000039_Node000041" class="edge">
<title>Node39&#45;&gt;Node41</title>
<g id="a_edge43_Node000039_Node000041"><a xlink:title=" ">
<path fill="none" stroke="#63b8ff" d="M420.19,-156.68C438,-155.08 457.68,-153.32 474.99,-151.76"/>
<polygon fill="#63b8ff" stroke="#63b8ff" points="475.78,-155.21 485.43,-150.83 475.15,-148.24 475.78,-155.21"/>
</a>
</g>
</g>
<!-- Node44 -->
<g id="Node000044" class="node">
<title>Node44</title>
<g id="a_Node000044"><a xlink:href="kernel__service__task__manager_8c.html#a1dcbf35626b6f024228597f4fc47f8bb" target="_top" xlink:title=" ">
<polygon fill="white" stroke="#666666" points="574.5,-27 472.5,-27 472.5,-8 574.5,-8 574.5,-27"/>
<text text-anchor="middle" x="523.5" y="-15" font-family="Helvetica,sans-Serif" font-size="10.00">_scan_timer_task</text>
</a>
</g>
</g>
<!-- Node39&#45;&gt;Node44 -->
<g id="edge46_Node000039_Node000044" class="edge">
<title>Node39&#45;&gt;Node44</title>
<g id="a_edge46_Node000039_Node000044"><a xlink:title=" ">
<path fill="none" stroke="#63b8ff" d="M416.86,-151.95C422.58,-149.7 428.1,-146.93 433,-143.5 455.74,-127.6 452.94,-115.13 469,-92.5 482.8,-73.06 498.67,-50.83 509.52,-35.65"/>
<polygon fill="#63b8ff" stroke="#63b8ff" points="512.59,-37.37 515.56,-27.2 506.9,-33.3 512.59,-37.37"/>
</a>
</g>
</g>
<!-- Node42 -->
<g id="Node000042" class="node">
<title>Node42</title>
<g id="a_Node000042"><a xlink:href="kernel__service__task__manager_8c.html#a569d560c9e111abb09ece1cf3d7d7093" target="_top" xlink:title=" ">
<polygon fill="white" stroke="#666666" points="741.5,-19 661.5,-19 661.5,0 741.5,0 741.5,-19"/>
<text text-anchor="middle" x="701.5" y="-7" font-family="Helvetica,sans-Serif" font-size="10.00">_collect_task</text>
</a>
</g>
</g>
<!-- Node41&#45;&gt;Node42 -->
<g id="edge44_Node000041_Node000042" class="edge">
<title>Node41&#45;&gt;Node42</title>
<g id="a_edge44_Node000041_Node000042"><a xlink:title=" ">
<path fill="none" stroke="#63b8ff" d="M561.55,-139.97C567.61,-137.43 573.39,-134.04 578,-129.5 612.24,-95.76 577.8,-59.14 614,-27.5 624.31,-18.49 637.94,-13.57 651.33,-10.99"/>
<polygon fill="#63b8ff" stroke="#63b8ff" points="652.1,-14.42 661.46,-9.45 651.05,-7.5 652.1,-14.42"/>
</a>
</g>
</g>
<!-- Node43 -->
<g id="Node000043" class="node">
<title>Node43</title>
<g id="a_Node000043"><a xlink:href="group__Thread.html#gab8ab888134539788c5f8e6e307033e27" target="_top" xlink:title="Return the head sentinel of the intrusive thread list.">
<polygon fill="white" stroke="#666666" points="754.5,-56 648.5,-56 648.5,-37 754.5,-37 754.5,-56"/>
<text text-anchor="middle" x="701.5" y="-44" font-family="Helvetica,sans-Serif" font-size="10.00">os_thread_list_get</text>
</a>
</g>
</g>
<!-- Node41&#45;&gt;Node43 -->
<g id="edge45_Node000041_Node000043" class="edge">
<title>Node41&#45;&gt;Node43</title>
<g id="a_edge45_Node000041_Node000043"><a xlink:title=" ">
<path fill="none" stroke="#63b8ff" d="M561.77,-138.95C567.59,-136.53 573.24,-133.44 578,-129.5 603.14,-108.69 587.77,-84.92 614,-65.5 621.18,-60.18 629.56,-56.3 638.23,-53.47"/>
<polygon fill="#63b8ff" stroke="#63b8ff" points="639.39,-56.78 648.08,-50.71 637.51,-50.04 639.39,-56.78"/>
</a>
</g>
</g>
<!-- Node44&#45;&gt;Node42 -->
<g id="edge47_Node000044_Node000042" class="edge">
<title>Node44&#45;&gt;Node42</title>
<g id="a_edge47_Node000044_Node000042"><a xlink:title=" ">
<path fill="none" stroke="#63b8ff" d="M574.93,-15.21C598.83,-14.12 627.26,-12.83 651.03,-11.75"/>
<polygon fill="#63b8ff" stroke="#63b8ff" points="651.41,-15.23 661.24,-11.28 651.09,-8.24 651.41,-15.23"/>
</a>
</g>
</g>
<!-- Node45&#45;&gt;Node23 -->
<g id="edge49_Node000045_Node000023" class="edge">
<title>Node45&#45;&gt;Node23</title>
<g id="a_edge49_Node000045_Node000023"><a xlink:title=" ">
<path fill="none" stroke="#63b8ff" d="M405.45,-329.92C414.57,-327.41 424.18,-324.55 433,-321.5 453.27,-314.49 475.47,-305.08 492.69,-297.37"/>
<polygon fill="#63b8ff" stroke="#63b8ff" points="494.53,-300.38 502.19,-293.07 491.64,-294 494.53,-300.38"/>
</a>
</g>
</g>
<!-- Node46 -->
<g id="Node000046" class="node">
<title>Node46</title>
<g id="a_Node000046"><a xlink:href="uart__mgmt_8c.html#af8eff33b840c2e11d5bd889fd97c705a" target="_top" xlink:title=" ">
<polygon fill="white" stroke="#666666" points="577,-648 470,-648 470,-629 577,-629 577,-648"/>
<text text-anchor="middle" x="523.5" y="-636" font-family="Helvetica,sans-Serif" font-size="10.00">uart_mgmt_thread</text>
</a>
</g>
</g>
<!-- Node45&#45;&gt;Node46 -->
<g id="edge50_Node000045_Node000046" class="edge">
<title>Node45&#45;&gt;Node46</title>
<g id="a_edge50_Node000045_Node000046"><a xlink:title=" ">
<path fill="none" stroke="#63b8ff" d="M371.51,-349.11C393.65,-391.54 482.87,-562.55 512.72,-619.76"/>
<polygon fill="#63b8ff" stroke="#63b8ff" points="509.7,-621.53 517.43,-628.78 515.9,-618.29 509.7,-621.53"/>
</a>
</g>
</g>
<!-- Node46&#45;&gt;Node22 -->
<g id="edge59_Node000046_Node000022" class="edge">
<title>Node46&#45;&gt;Node22</title>
<g id="a_edge59_Node000046_Node000022"><a xlink:title=" ">
<path fill="none" stroke="#63b8ff" d="M527.22,-628.87C535.39,-601.85 562.39,-524.82 614,-487.5 622.5,-481.36 632.61,-477.14 642.87,-474.25"/>
<polygon fill="#63b8ff" stroke="#63b8ff" points="643.8,-477.63 652.7,-471.88 642.16,-470.82 643.8,-477.63"/>
</a>
</g>
</g>
<!-- Node46&#45;&gt;Node31 -->
<g id="edge57_Node000046_Node000031" class="edge">
<title>Node46&#45;&gt;Node31</title>
<g id="a_edge57_Node000046_Node000031"><a xlink:title=" ">
<path fill="none" stroke="#63b8ff" d="M577.15,-633.84C643.13,-627.43 752.03,-614.81 789,-598.5 875.07,-560.52 955.22,-478.41 987.5,-442.68"/>
<polygon fill="#63b8ff" stroke="#63b8ff" points="990.28,-444.82 994.32,-435.03 985.05,-440.17 990.28,-444.82"/>
</a>
</g>
</g>
<!-- Node47 -->
<g id="Node000047" class="node">
<title>Node47</title>
<g id="a_Node000047"><a xlink:href="uart__mgmt_8c.html#aa5881408b26352c2632b318a6d8c6915" target="_top" xlink:title=" ">
<polygon fill="white" stroke="#666666" points="740,-552 663,-552 663,-533 740,-533 740,-552"/>
<text text-anchor="middle" x="701.5" y="-540" font-family="Helvetica,sans-Serif" font-size="10.00">_uart_err_cb</text>
</a>
</g>
</g>
<!-- Node46&#45;&gt;Node47 -->
<g id="edge51_Node000046_Node000047" class="edge">
<title>Node46&#45;&gt;Node47</title>
<g id="a_edge51_Node000046_Node000047"><a xlink:title=" ">
<path fill="none" stroke="#63b8ff" d="M532.56,-629C547.08,-612.53 579.34,-578.81 614,-561.5 626.06,-555.48 640,-551.35 653.12,-548.53"/>
<polygon fill="#63b8ff" stroke="#63b8ff" points="653.8,-551.96 662.95,-546.61 652.47,-545.09 653.8,-551.96"/>
</a>
</g>
</g>
<!-- Node48 -->
<g id="Node000048" class="node">
<title>Node48</title>
<g id="a_Node000048"><a xlink:href="uart__mgmt_8c.html#a92576ac01ea62a4da3a4bb9c598d8e7b" target="_top" xlink:title=" ">
<polygon fill="#fff0f0" stroke="red" points="738,-824 665,-824 665,-805 738,-805 738,-824"/>
<text text-anchor="middle" x="701.5" y="-812" font-family="Helvetica,sans-Serif" font-size="10.00">_uart_rx_cb</text>
</a>
</g>
</g>
<!-- Node46&#45;&gt;Node48 -->
<g id="edge52_Node000046_Node000048" class="edge">
<title>Node46&#45;&gt;Node48</title>
<g id="a_edge52_Node000046_Node000048"><a xlink:title=" ">
<path fill="none" stroke="#63b8ff" d="M526.95,-648.19C534.55,-676.16 560.52,-757.48 614,-796.5 625.77,-805.08 640.7,-809.78 654.84,-812.28"/>
<polygon fill="#63b8ff" stroke="#63b8ff" points="654.54,-815.78 664.94,-813.75 655.54,-808.85 654.54,-815.78"/>
</a>
</g>
</g>
<!-- Node49 -->
<g id="Node000049" class="node">
<title>Node49</title>
<g id="a_Node000049"><a xlink:href="drv__handle_8h.html#a495e6d69f743d8627525469689a28304" target="_top" xlink:title=" ">
<polygon fill="white" stroke="#666666" points="759.5,-787 643.5,-787 643.5,-768 759.5,-768 759.5,-787"/>
<text text-anchor="middle" x="701.5" y="-775" font-family="Helvetica,sans-Serif" font-size="10.00">drv_uart_get_handle</text>
</a>
</g>
</g>
<!-- Node46&#45;&gt;Node49 -->
<g id="edge53_Node000046_Node000049" class="edge">
<title>Node46&#45;&gt;Node49</title>
<g id="a_edge53_Node000046_Node000049"><a xlink:title=" ">
<path fill="none" stroke="#63b8ff" d="M528.68,-648.23C539.23,-671.57 569.33,-730.9 614,-759.5 620.04,-763.37 626.76,-766.42 633.7,-768.83"/>
<polygon fill="#63b8ff" stroke="#63b8ff" points="632.69,-772.18 643.28,-771.74 634.73,-765.48 632.69,-772.18"/>
</a>
</g>
</g>
<!-- Node50 -->
<g id="Node000050" class="node">
<title>Node50</title>
<g id="a_Node000050"><a xlink:href="drv__handle_8h.html#add994b9515165b84c4e7a8c035f58b71" target="_top" xlink:title=" ">
<polygon fill="white" stroke="#666666" points="751.5,-750 651.5,-750 651.5,-731 751.5,-731 751.5,-750"/>
<text text-anchor="middle" x="701.5" y="-738" font-family="Helvetica,sans-Serif" font-size="10.00">drv_uart_register</text>
</a>
</g>
</g>
<!-- Node46&#45;&gt;Node50 -->
<g id="edge54_Node000046_Node000050" class="edge">
<title>Node46&#45;&gt;Node50</title>
<g id="a_edge54_Node000046_Node000050"><a xlink:title=" ">
<path fill="none" stroke="#63b8ff" d="M531.68,-648.09C545.51,-665.81 577.7,-703.63 614,-722.5 622.48,-726.91 631.97,-730.24 641.46,-732.76"/>
<polygon fill="#63b8ff" stroke="#63b8ff" points="640.77,-736.19 651.31,-735.09 642.39,-729.38 640.77,-736.19"/>
</a>
</g>
</g>
<!-- Node51 -->
<g id="Node000051" class="node">
<title>Node51</title>
<g id="a_Node000051"><a xlink:href="hal__uart__stm32_8c.html#aed568a227a5f7162049e5db390ba48ef" target="_top" xlink:title="Return a pointer to the STM32 UART HAL ops table.">
<polygon fill="white" stroke="#666666" points="769.5,-713 633.5,-713 633.5,-694 769.5,-694 769.5,-713"/>
<text text-anchor="middle" x="701.5" y="-701" font-family="Helvetica,sans-Serif" font-size="10.00">hal_uart_stm32_get_ops</text>
</a>
</g>
</g>
<!-- Node46&#45;&gt;Node51 -->
<g id="edge55_Node000046_Node000051" class="edge">
<title>Node46&#45;&gt;Node51</title>
<g id="a_edge55_Node000046_Node000051"><a xlink:title=" ">
<path fill="none" stroke="#63b8ff" d="M540.11,-648.1C557.54,-658.45 586.88,-674.74 614,-684.5 621.32,-687.14 629.13,-689.47 636.95,-691.52"/>
<polygon fill="#63b8ff" stroke="#63b8ff" points="636.27,-694.96 646.82,-693.97 637.96,-688.17 636.27,-694.96"/>
</a>
</g>
</g>
<!-- Node52 -->
<g id="Node000052" class="node">
<title>Node52</title>
<g id="a_Node000052"><a xlink:href="hal__uart__stm32_8c.html#a829bbb9cf490043dd73c590943e80d4d" target="_top" xlink:title="Configure the STM32 peripheral parameters directly in the hw context before calling drv_uart_register...">
<polygon fill="white" stroke="#666666" points="758,-675.5 645,-675.5 645,-645.5 758,-645.5 758,-675.5"/>
<text text-anchor="start" x="653" y="-663.5" font-family="Helvetica,sans-Serif" font-size="10.00">hal_uart_stm32_set</text>
<text text-anchor="middle" x="701.5" y="-652.5" font-family="Helvetica,sans-Serif" font-size="10.00">_config</text>
</a>
</g>
</g>
<!-- Node46&#45;&gt;Node52 -->
<g id="edge56_Node000046_Node000052" class="edge">
<title>Node46&#45;&gt;Node52</title>
<g id="a_edge56_Node000046_Node000052"><a xlink:title=" ">
<path fill="none" stroke="#63b8ff" d="M577.31,-645.1C595.42,-647.36 615.91,-649.93 634.9,-652.3"/>
<polygon fill="#63b8ff" stroke="#63b8ff" points="634.62,-655.79 644.98,-653.56 635.49,-648.85 634.62,-655.79"/>
</a>
</g>
</g>
<!-- Node53 -->
<g id="Node000053" class="node">
<title>Node53</title>
<g id="a_Node000053"><a xlink:href="irq__notify_8c.html#a88ce0c4278f16ca232b715dff43ec969" target="_top" xlink:title="Register a callback for a generic IRQ ID. Call from task context before interrupts fire....">
<polygon fill="#fff0f0" stroke="red" points="737.5,-589 665.5,-589 665.5,-570 737.5,-570 737.5,-589"/>
<text text-anchor="middle" x="701.5" y="-577" font-family="Helvetica,sans-Serif" font-size="10.00">irq_register</text>
</a>
</g>
</g>
<!-- Node46&#45;&gt;Node53 -->
<g id="edge58_Node000046_Node000053" class="edge">
<title>Node46&#45;&gt;Node53</title>
<g id="a_edge58_Node000046_Node000053"><a xlink:title=" ">
<path fill="none" stroke="#63b8ff" d="M547.07,-628.93C565.03,-621.5 590.89,-611.2 614,-603.5 627.31,-599.06 641.96,-594.78 655.36,-591.09"/>
<polygon fill="#63b8ff" stroke="#63b8ff" points="656.59,-594.38 665.32,-588.39 654.75,-587.63 656.59,-594.38"/>
</a>
</g>
</g>
<!-- Node58&#45;&gt;Node31 -->
<g id="edge61_Node000058_Node000031" class="edge">
<title>Node58&#45;&gt;Node31</title>
<g id="a_edge61_Node000058_Node000031"><a xlink:title=" ">
<path fill="none" stroke="#63b8ff" d="M867.66,-743.68C887,-698.04 968.31,-506.17 994.41,-444.6"/>
<polygon fill="#63b8ff" stroke="#63b8ff" points="997.68,-445.85 998.36,-435.28 991.23,-443.12 997.68,-445.85"/>
</a>
</g>
</g>
</g>
</svg>
