<?xml version="1.0" encoding="UTF-8" standalone="no"?>
<!DOCTYPE svg PUBLIC "-//W3C//DTD SVG 1.1//EN"
 "http://www.w3.org/Graphics/SVG/1.1/DTD/svg11.dtd">
<!-- Generated by graphviz version 2.43.0 (0)
 -->
<!-- Title: ipc_queues_init Pages: 1 -->
<svg width="512pt" height="177pt"
 viewBox="0.00 0.00 512.00 177.00" xmlns="http://www.w3.org/2000/svg" xmlns:xlink="http://www.w3.org/1999/xlink">
<g id="graph0" class="graph" transform="scale(1 1) rotate(0) translate(4 173)">
<title>ipc_queues_init</title>
<!-- Node1 -->
<g id="Node000001" class="node">
<title>Node1</title>
<g id="a_Node000001"><a xlink:title=" ">
<polygon fill="#999999" stroke="#666666" points="92,-112 0,-112 0,-93 92,-93 92,-112"/>
<text text-anchor="middle" x="46" y="-100" font-family="Helvetica,sans-Serif" font-size="10.00">ipc_queues_init</text>
</a>
</g>
</g>
<!-- Node2 -->
<g id="Node000002" class="node">
<title>Node2</title>
<g id="a_Node000002"><a xlink:href="mqueue_8c.html#a873322f98cefc36f436c51802b74c9b4" target="_top" xlink:title=" ">
<polygon fill="white" stroke="#666666" points="236,-150 139,-150 139,-131 236,-131 236,-150"/>
<text text-anchor="middle" x="187.5" y="-138" font-family="Helvetica,sans-Serif" font-size="10.00">ipc_mqueue_init</text>
</a>
</g>
</g>
<!-- Node1&#45;&gt;Node2 -->
<g id="edge1_Node000001_Node000002" class="edge">
<title>Node1&#45;&gt;Node2</title>
<g id="a_edge1_Node000001_Node000002"><a xlink:title=" ">
<path fill="none" stroke="#63b8ff" d="M82.2,-112.09C100.21,-116.99 122.33,-123.02 141.56,-128.26"/>
<polygon fill="#63b8ff" stroke="#63b8ff" points="140.74,-131.66 151.31,-130.91 142.58,-124.91 140.74,-131.66"/>
</a>
</g>
</g>
<!-- Node4 -->
<g id="Node000004" class="node">
<title>Node4</title>
<g id="a_Node000004"><a xlink:href="mqueue_8c.html#a24352a9ab122f2913f5c92467d5bc676" target="_top" xlink:title=" ">
<polygon fill="white" stroke="#666666" points="247,-94 128,-94 128,-75 247,-75 247,-94"/>
<text text-anchor="middle" x="187.5" y="-82" font-family="Helvetica,sans-Serif" font-size="10.00">ipc_mqueue_register</text>
</a>
</g>
</g>
<!-- Node1&#45;&gt;Node4 -->
<g id="edge3_Node000001_Node000004" class="edge">
<title>Node1&#45;&gt;Node4</title>
<g id="a_edge3_Node000001_Node000004"><a xlink:title=" ">
<path fill="none" stroke="#63b8ff" d="M92.29,-96.66C100.47,-95.6 109.16,-94.48 117.83,-93.36"/>
<polygon fill="#63b8ff" stroke="#63b8ff" points="118.49,-96.8 127.96,-92.05 117.6,-89.86 118.49,-96.8"/>
</a>
</g>
</g>
<!-- Node3 -->
<g id="Node000003" class="node">
<title>Node3</title>
<g id="a_Node000003"><a xlink:href="group__list__api.html#ga9e661d1dcd51bd4eb3951488574058b0" target="_top" xlink:title="Initialize a list node [ Doubly circular].">
<polygon fill="white" stroke="#666666" points="359.5,-169 306.5,-169 306.5,-150 359.5,-150 359.5,-169"/>
<text text-anchor="middle" x="333" y="-157" font-family="Helvetica,sans-Serif" font-size="10.00">list_init</text>
</a>
</g>
</g>
<!-- Node2&#45;&gt;Node3 -->
<g id="edge2_Node000002_Node000003" class="edge">
<title>Node2&#45;&gt;Node3</title>
<g id="a_edge2_Node000002_Node000003"><a xlink:title=" ">
<path fill="none" stroke="#63b8ff" d="M236.28,-146.83C255.78,-149.41 277.93,-152.34 296.02,-154.74"/>
<polygon fill="#63b8ff" stroke="#63b8ff" points="295.77,-158.23 306.15,-156.08 296.69,-151.29 295.77,-158.23"/>
</a>
</g>
</g>
<!-- Node5 -->
<g id="Node000005" class="node">
<title>Node5</title>
<g id="a_Node000005"><a xlink:href="os_2kernel__mem_8h.html#ab750d6dec279a17969f64507edde0767" target="_top" xlink:title=" ">
<polygon fill="white" stroke="#666666" points="482.5,-94 440.5,-94 440.5,-75 482.5,-75 482.5,-94"/>
<text text-anchor="middle" x="461.5" y="-82" font-family="Helvetica,sans-Serif" font-size="10.00">kfree</text>
</a>
</g>
</g>
<!-- Node4&#45;&gt;Node5 -->
<g id="edge4_Node000004_Node000005" class="edge">
<title>Node4&#45;&gt;Node5</title>
<g id="a_edge4_Node000004_Node000005"><a xlink:title=" ">
<path fill="none" stroke="#63b8ff" d="M247.19,-84.5C303.45,-84.5 386.16,-84.5 430.23,-84.5"/>
<polygon fill="#63b8ff" stroke="#63b8ff" points="430.31,-88 440.31,-84.5 430.31,-81 430.31,-88"/>
</a>
</g>
</g>
<!-- Node6 -->
<g id="Node000006" class="node">
<title>Node6</title>
<g id="a_Node000006"><a xlink:href="os_2kernel__mem_8h.html#a2b55f9d76c0a87c16c336ec837a80101" target="_top" xlink:title=" ">
<polygon fill="white" stroke="#666666" points="488,-19 435,-19 435,0 488,0 488,-19"/>
<text text-anchor="middle" x="461.5" y="-7" font-family="Helvetica,sans-Serif" font-size="10.00">kmaloc</text>
</a>
</g>
</g>
<!-- Node4&#45;&gt;Node6 -->
<g id="edge5_Node000004_Node000006" class="edge">
<title>Node4&#45;&gt;Node6</title>
<g id="a_edge5_Node000004_Node000006"><a xlink:title=" ">
<path fill="none" stroke="#63b8ff" d="M200.79,-74.83C218.05,-61.84 250.97,-39.14 283,-28.5 330.25,-12.8 388.09,-9.32 424.63,-8.91"/>
<polygon fill="#63b8ff" stroke="#63b8ff" points="424.81,-12.41 434.8,-8.87 424.78,-5.41 424.81,-12.41"/>
</a>
</g>
</g>
<!-- Node7 -->
<g id="Node000007" class="node">
<title>Node7</title>
<g id="a_Node000007"><a xlink:href="group__list__api.html#gafb58231c241f9acee99a56aaa1b98cec" target="_top" xlink:title="Add a new node at the tail of the list.">
<polygon fill="white" stroke="#666666" points="371,-132 295,-132 295,-113 371,-113 371,-132"/>
<text text-anchor="middle" x="333" y="-120" font-family="Helvetica,sans-Serif" font-size="10.00">list_add_tail</text>
</a>
</g>
</g>
<!-- Node4&#45;&gt;Node7 -->
<g id="edge6_Node000004_Node000007" class="edge">
<title>Node4&#45;&gt;Node7</title>
<g id="a_edge6_Node000004_Node000007"><a xlink:title=" ">
<path fill="none" stroke="#63b8ff" d="M224.71,-94.09C243.32,-99.02 266.2,-105.07 286.04,-110.33"/>
<polygon fill="#63b8ff" stroke="#63b8ff" points="285.24,-113.74 295.8,-112.91 287.03,-106.97 285.24,-113.74"/>
</a>
</g>
</g>
<!-- Node9 -->
<g id="Node000009" class="node">
<title>Node9</title>
<g id="a_Node000009"><a xlink:href="ringbuffer_8c.html#a85a94391518dcb013756001945f97cd1" target="_top" xlink:title=" ">
<polygon fill="white" stroke="#666666" points="383,-56 283,-56 283,-37 383,-37 383,-56"/>
<text text-anchor="middle" x="333" y="-44" font-family="Helvetica,sans-Serif" font-size="10.00">ringbuffer_create</text>
</a>
</g>
</g>
<!-- Node4&#45;&gt;Node9 -->
<g id="edge8_Node000004_Node000009" class="edge">
<title>Node4&#45;&gt;Node9</title>
<g id="a_edge8_Node000004_Node000009"><a xlink:title=" ">
<path fill="none" stroke="#63b8ff" d="M224.71,-74.91C243.32,-69.98 266.2,-63.93 286.04,-58.67"/>
<polygon fill="#63b8ff" stroke="#63b8ff" points="287.03,-62.03 295.8,-56.09 285.24,-55.26 287.03,-62.03"/>
</a>
</g>
</g>
<!-- Node8 -->
<g id="Node000008" class="node">
<title>Node8</title>
<g id="a_Node000008"><a xlink:href="group__list__api.html#gab1766e25461b90b75aa3360245547452" target="_top" xlink:title="add a node in between two nodes.">
<polygon fill="white" stroke="#666666" points="489,-132 434,-132 434,-113 489,-113 489,-132"/>
<text text-anchor="middle" x="461.5" y="-120" font-family="Helvetica,sans-Serif" font-size="10.00">list_add</text>
</a>
</g>
</g>
<!-- Node7&#45;&gt;Node8 -->
<g id="edge7_Node000007_Node000008" class="edge">
<title>Node7&#45;&gt;Node8</title>
<g id="a_edge7_Node000007_Node000008"><a xlink:title=" ">
<path fill="none" stroke="#63b8ff" d="M371.27,-122.5C387.77,-122.5 407.13,-122.5 423.59,-122.5"/>
<polygon fill="#63b8ff" stroke="#63b8ff" points="423.92,-126 433.92,-122.5 423.92,-119 423.92,-126"/>
</a>
</g>
</g>
<!-- Node9&#45;&gt;Node5 -->
<g id="edge9_Node000009_Node000005" class="edge">
<title>Node9&#45;&gt;Node5</title>
<g id="a_edge9_Node000009_Node000005"><a xlink:title=" ">
<path fill="none" stroke="#63b8ff" d="M365.92,-56.09C385.87,-62.08 411.37,-69.74 430.87,-75.6"/>
<polygon fill="#63b8ff" stroke="#63b8ff" points="429.87,-78.95 440.46,-78.48 431.89,-72.25 429.87,-78.95"/>
</a>
</g>
</g>
<!-- Node9&#45;&gt;Node6 -->
<g id="edge10_Node000009_Node000006" class="edge">
<title>Node9&#45;&gt;Node6</title>
<g id="a_edge10_Node000009_Node000006"><a xlink:title=" ">
<path fill="none" stroke="#63b8ff" d="M366.58,-36.97C384.49,-31.73 406.73,-25.23 425.08,-19.86"/>
<polygon fill="#63b8ff" stroke="#63b8ff" points="426.2,-23.18 434.81,-17.01 424.23,-16.46 426.2,-23.18"/>
</a>
</g>
</g>
<!-- Node10 -->
<g id="Node000010" class="node">
<title>Node10</title>
<g id="a_Node000010"><a xlink:href="ringbuffer_8c.html#a8752f9288f9de94cc6f1a454b38c289d" target="_top" xlink:title=" ">
<polygon fill="white" stroke="#666666" points="504,-56 419,-56 419,-37 504,-37 504,-56"/>
<text text-anchor="middle" x="461.5" y="-44" font-family="Helvetica,sans-Serif" font-size="10.00">ringbuffer_init</text>
</a>
</g>
</g>
<!-- Node9&#45;&gt;Node10 -->
<g id="edge11_Node000009_Node000010" class="edge">
<title>Node9&#45;&gt;Node10</title>
<g id="a_edge11_Node000009_Node000010"><a xlink:title=" ">
<path fill="none" stroke="#63b8ff" d="M383.27,-46.5C391.65,-46.5 400.38,-46.5 408.83,-46.5"/>
<polygon fill="#63b8ff" stroke="#63b8ff" points="408.95,-50 418.95,-46.5 408.95,-43 408.95,-50"/>
</a>
</g>
</g>
</g>
</svg>
