<?xml version="1.0" encoding="UTF-8" standalone="no"?>
<!DOCTYPE svg PUBLIC "-//W3C//DTD SVG 1.1//EN"
 "http://www.w3.org/Graphics/SVG/1.1/DTD/svg11.dtd">
<!-- Generated by graphviz version 2.43.0 (0)
 -->
<!-- Title: main.c Pages: 1 -->
<svg width="1718pt" height="302pt"
 viewBox="0.00 0.00 1718.00 302.00" xmlns="http://www.w3.org/2000/svg" xmlns:xlink="http://www.w3.org/1999/xlink">
<g id="graph0" class="graph" transform="scale(1 1) rotate(0) translate(4 298)">
<title>main.c</title>
<!-- Node1 -->
<g id="Node000001" class="node">
<title>Node1</title>
<g id="a_Node000001"><a xlink:title=" ">
<polygon fill="#999999" stroke="#666666" points="748,-294 698,-294 698,-275 748,-275 748,-294"/>
<text text-anchor="middle" x="723" y="-282" font-family="Helvetica,sans-Serif" font-size="10.00">main.c</text>
</a>
</g>
</g>
<!-- Node2 -->
<g id="Node000002" class="node">
<title>Node2</title>
<g id="a_Node000002"><a xlink:title=" ">
<polygon fill="#e0e0e0" stroke="#999999" points="58,-74 0,-74 0,-55 58,-55 58,-74"/>
<text text-anchor="middle" x="29" y="-62" font-family="Helvetica,sans-Serif" font-size="10.00">device.h</text>
</a>
</g>
</g>
<!-- Node1&#45;&gt;Node2 -->
<g id="edge1_Node000001_Node000002" class="edge">
<title>Node1&#45;&gt;Node2</title>
<g id="a_edge1_Node000001_Node000002"><a xlink:title=" ">
<path fill="none" stroke="#63b8ff" d="M697.85,-283.88C601.58,-284.96 257.07,-285.43 160,-239 93.06,-206.98 51.68,-121.82 36.08,-84.02"/>
<polygon fill="#63b8ff" stroke="#63b8ff" points="39.16,-82.3 32.21,-74.31 32.66,-84.89 39.16,-82.3"/>
</a>
</g>
</g>
<!-- Node3 -->
<g id="Node000003" class="node">
<title>Node3</title>
<g id="a_Node000003"><a xlink:title=" ">
<polygon fill="#e0e0e0" stroke="#999999" points="193,-74 81,-74 81,-55 193,-55 193,-74"/>
<text text-anchor="middle" x="137" y="-62" font-family="Helvetica,sans-Serif" font-size="10.00">board/mcu_config.h</text>
</a>
</g>
</g>
<!-- Node1&#45;&gt;Node3 -->
<g id="edge2_Node000001_Node000003" class="edge">
<title>Node1&#45;&gt;Node3</title>
<g id="a_edge2_Node000001_Node000003"><a xlink:title=" ">
<path fill="none" stroke="#63b8ff" d="M697.71,-282.42C610.49,-278.49 322.74,-263.91 234,-239 180.61,-224.02 153.84,-229.41 122,-184 103.06,-156.98 108.78,-142.2 116,-110 118.08,-100.74 122.3,-91.14 126.43,-83.23"/>
<polygon fill="#63b8ff" stroke="#63b8ff" points="129.6,-84.72 131.42,-74.28 123.49,-81.31 129.6,-84.72"/>
</a>
</g>
</g>
<!-- Node4 -->
<g id="Node000004" class="node">
<title>Node4</title>
<g id="a_Node000004"><a xlink:href="mqueue_8h.html" target="_top" xlink:title=" ">
<polygon fill="white" stroke="#666666" points="1194.5,-184 1111.5,-184 1111.5,-165 1194.5,-165 1194.5,-184"/>
<text text-anchor="middle" x="1153" y="-172" font-family="Helvetica,sans-Serif" font-size="10.00">ipc/mqueue.h</text>
</a>
</g>
</g>
<!-- Node1&#45;&gt;Node4 -->
<g id="edge3_Node000001_Node000004" class="edge">
<title>Node1&#45;&gt;Node4</title>
<g id="a_edge3_Node000001_Node000004"><a xlink:title=" ">
<path fill="none" stroke="#63b8ff" d="M748.24,-277.63C779.11,-270.12 832.72,-256.04 877,-239 894.99,-232.08 897.69,-226.06 916,-220 978.15,-199.44 1052.81,-187.39 1101.5,-181.13"/>
<polygon fill="#63b8ff" stroke="#63b8ff" points="1101.99,-184.6 1111.48,-179.88 1101.12,-177.65 1101.99,-184.6"/>
</a>
</g>
</g>
<!-- Node32 -->
<g id="Node000032" class="node">
<title>Node32</title>
<g id="a_Node000032"><a xlink:href="global__var_8h.html" target="_top" xlink:title=" ">
<polygon fill="white" stroke="#666666" points="593.5,-184 500.5,-184 500.5,-165 593.5,-165 593.5,-184"/>
<text text-anchor="middle" x="547" y="-172" font-family="Helvetica,sans-Serif" font-size="10.00">ipc/global_var.h</text>
</a>
</g>
</g>
<!-- Node1&#45;&gt;Node32 -->
<g id="edge36_Node000001_Node000032" class="edge">
<title>Node1&#45;&gt;Node32</title>
<g id="a_edge36_Node000001_Node000032"><a xlink:title=" ">
<path fill="none" stroke="#63b8ff" d="M708.89,-274.84C678.51,-256.2 606.67,-212.11 569.76,-189.46"/>
<polygon fill="#63b8ff" stroke="#63b8ff" points="571.53,-186.44 561.17,-184.2 567.87,-192.41 571.53,-186.44"/>
</a>
</g>
</g>
<!-- Node33 -->
<g id="Node000033" class="node">
<title>Node33</title>
<g id="a_Node000033"><a xlink:href="kernel_8h.html" target="_top" xlink:title=" ">
<polygon fill="white" stroke="#666666" points="758,-184 688,-184 688,-165 758,-165 758,-184"/>
<text text-anchor="middle" x="723" y="-172" font-family="Helvetica,sans-Serif" font-size="10.00">os/kernel.h</text>
</a>
</g>
</g>
<!-- Node1&#45;&gt;Node33 -->
<g id="edge40_Node000001_Node000033" class="edge">
<title>Node1&#45;&gt;Node33</title>
<g id="a_edge40_Node000001_Node000033"><a xlink:title=" ">
<path fill="none" stroke="#63b8ff" d="M723,-274.66C723,-257.17 723,-217.8 723,-194.27"/>
<polygon fill="#63b8ff" stroke="#63b8ff" points="726.5,-194.16 723,-184.16 719.5,-194.16 726.5,-194.16"/>
</a>
</g>
</g>
<!-- Node34 -->
<g id="Node000034" class="node">
<title>Node34</title>
<g id="a_Node000034"><a xlink:href="kernel__syscall_8h.html" target="_top" xlink:title=" ">
<polygon fill="white" stroke="#666666" points="1033.5,-239 924.5,-239 924.5,-220 1033.5,-220 1033.5,-239"/>
<text text-anchor="middle" x="979" y="-227" font-family="Helvetica,sans-Serif" font-size="10.00">os/kernel_syscall.h</text>
</a>
</g>
</g>
<!-- Node1&#45;&gt;Node34 -->
<g id="edge47_Node000001_Node000034" class="edge">
<title>Node1&#45;&gt;Node34</title>
<g id="a_edge47_Node000001_Node000034"><a xlink:title=" ">
<path fill="none" stroke="#63b8ff" d="M748.01,-278.32C789.47,-269.74 873.23,-252.4 927.68,-241.13"/>
<polygon fill="#63b8ff" stroke="#63b8ff" points="928.4,-244.55 937.48,-239.1 926.98,-237.7 928.4,-244.55"/>
</a>
</g>
</g>
<!-- Node38 -->
<g id="Node000038" class="node">
<title>Node38</title>
<g id="a_Node000038"><a xlink:href="kernel__services_8h.html" target="_top" xlink:title=" ">
<polygon fill="white" stroke="#666666" points="868,-239 752,-239 752,-220 868,-220 868,-239"/>
<text text-anchor="middle" x="810" y="-227" font-family="Helvetica,sans-Serif" font-size="10.00">os/kernel_services.h</text>
</a>
</g>
</g>
<!-- Node1&#45;&gt;Node38 -->
<g id="edge64_Node000001_Node000038" class="edge">
<title>Node1&#45;&gt;Node38</title>
<g id="a_edge64_Node000001_Node000038"><a xlink:title=" ">
<path fill="none" stroke="#63b8ff" d="M736.98,-274.98C750.47,-266.77 771.13,-254.18 787.04,-244.49"/>
<polygon fill="#63b8ff" stroke="#63b8ff" points="789.05,-247.36 795.77,-239.17 785.41,-241.38 789.05,-247.36"/>
</a>
</g>
</g>
<!-- Node39 -->
<g id="Node000039" class="node">
<title>Node39</title>
<g id="a_Node000039"><a xlink:href="drv__cpu_8h.html" target="_top" xlink:title=" ">
<polygon fill="white" stroke="#666666" points="252.5,-184 131.5,-184 131.5,-165 252.5,-165 252.5,-184"/>
<text text-anchor="middle" x="192" y="-172" font-family="Helvetica,sans-Serif" font-size="10.00">drivers/cpu/drv_cpu.h</text>
</a>
</g>
</g>
<!-- Node1&#45;&gt;Node39 -->
<g id="edge71_Node000001_Node000039" class="edge">
<title>Node1&#45;&gt;Node39</title>
<g id="a_edge71_Node000001_Node000039"><a xlink:title=" ">
<path fill="none" stroke="#63b8ff" d="M697.72,-283C613.86,-281.05 345.76,-272.29 267,-239 242.34,-228.58 219.73,-207.07 205.92,-191.98"/>
<polygon fill="#63b8ff" stroke="#63b8ff" points="208.44,-189.55 199.2,-184.38 203.2,-194.19 208.44,-189.55"/>
</a>
</g>
</g>
<!-- Node40 -->
<g id="Node000040" class="node">
<title>Node40</title>
<g id="a_Node000040"><a xlink:href="drv__rcc_8h.html" target="_top" xlink:title=" ">
<polygon fill="white" stroke="#666666" points="301,-129 203,-129 203,-110 301,-110 301,-129"/>
<text text-anchor="middle" x="252" y="-117" font-family="Helvetica,sans-Serif" font-size="10.00">drivers/drv_rcc.h</text>
</a>
</g>
</g>
<!-- Node1&#45;&gt;Node40 -->
<g id="edge74_Node000001_Node000040" class="edge">
<title>Node1&#45;&gt;Node40</title>
<g id="a_edge74_Node000001_Node000040"><a xlink:title=" ">
<path fill="none" stroke="#63b8ff" d="M697.59,-281.07C632.76,-274.04 457.16,-249.84 328,-184 304.22,-171.88 281.33,-151.1 267,-136.63"/>
<polygon fill="#63b8ff" stroke="#63b8ff" points="269.42,-134.11 259.96,-129.33 264.38,-138.96 269.42,-134.11"/>
</a>
</g>
</g>
<!-- Node41 -->
<g id="Node000041" class="node">
<title>Node41</title>
<g id="a_Node000041"><a xlink:title=" ">
<polygon fill="#e0e0e0" stroke="#999999" points="1170.5,-239 1051.5,-239 1051.5,-220 1170.5,-220 1170.5,-239"/>
<text text-anchor="middle" x="1111" y="-227" font-family="Helvetica,sans-Serif" font-size="10.00">board/board_config.h</text>
</a>
</g>
</g>
<!-- Node1&#45;&gt;Node41 -->
<g id="edge77_Node000001_Node000041" class="edge">
<title>Node1&#45;&gt;Node41</title>
<g id="a_edge77_Node000001_Node000041"><a xlink:title=" ">
<path fill="none" stroke="#63b8ff" d="M748.16,-280.06C806.63,-272.08 953.4,-252.03 1041.32,-240.02"/>
<polygon fill="#63b8ff" stroke="#63b8ff" points="1042.04,-243.45 1051.47,-238.63 1041.09,-236.52 1042.04,-243.45"/>
</a>
</g>
</g>
<!-- Node42 -->
<g id="Node000042" class="node">
<title>Node42</title>
<g id="a_Node000042"><a xlink:title=" ">
<polygon fill="#e0e0e0" stroke="#999999" points="1353,-239 1189,-239 1189,-220 1353,-220 1353,-239"/>
<text text-anchor="middle" x="1271" y="-227" font-family="Helvetica,sans-Serif" font-size="10.00">board/irq_hw_init_generated.h</text>
</a>
</g>
</g>
<!-- Node1&#45;&gt;Node42 -->
<g id="edge78_Node000001_Node000042" class="edge">
<title>Node1&#45;&gt;Node42</title>
<g id="a_edge78_Node000001_Node000042"><a xlink:title=" ">
<path fill="none" stroke="#63b8ff" d="M748.33,-281.05C823.8,-273.75 1049.88,-251.89 1178.62,-239.43"/>
<polygon fill="#63b8ff" stroke="#63b8ff" points="1179.25,-242.89 1188.86,-238.44 1178.57,-235.92 1179.25,-242.89"/>
</a>
</g>
</g>
<!-- Node5 -->
<g id="Node000005" class="node">
<title>Node5</title>
<g id="a_Node000005"><a xlink:href="def__std_8h.html" target="_top" xlink:title=" ">
<polygon fill="white" stroke="#666666" points="570,-74 508,-74 508,-55 570,-55 570,-74"/>
<text text-anchor="middle" x="539" y="-62" font-family="Helvetica,sans-Serif" font-size="10.00">def_std.h</text>
</a>
</g>
</g>
<!-- Node4&#45;&gt;Node5 -->
<g id="edge4_Node000004_Node000005" class="edge">
<title>Node4&#45;&gt;Node5</title>
<g id="a_edge4_Node000004_Node000005"><a xlink:title=" ">
<path fill="none" stroke="#63b8ff" d="M1111.41,-168.13C1055.89,-160.7 954.62,-146.24 869,-129 834.44,-122.04 826.51,-117.18 792,-110 701.54,-91.19 675.62,-91.65 580.38,-74"/>
<polygon fill="#63b8ff" stroke="#63b8ff" points="580.79,-70.51 570.32,-72.11 579.5,-77.39 580.79,-70.51"/>
</a>
</g>
</g>
<!-- Node13 -->
<g id="Node000013" class="node">
<title>Node13</title>
<g id="a_Node000013"><a xlink:href="def__compiler_8h.html" target="_top" xlink:title=" ">
<polygon fill="white" stroke="#666666" points="1238.5,-129 1149.5,-129 1149.5,-110 1238.5,-110 1238.5,-129"/>
<text text-anchor="middle" x="1194" y="-117" font-family="Helvetica,sans-Serif" font-size="10.00">def_compiler.h</text>
</a>
</g>
</g>
<!-- Node4&#45;&gt;Node13 -->
<g id="edge12_Node000004_Node000013" class="edge">
<title>Node4&#45;&gt;Node13</title>
<g id="a_edge12_Node000004_Node000013"><a xlink:title=" ">
<path fill="none" stroke="#63b8ff" d="M1159.77,-164.75C1165.56,-157.26 1174.06,-146.28 1181.14,-137.13"/>
<polygon fill="#63b8ff" stroke="#63b8ff" points="1184.01,-139.14 1187.36,-129.09 1178.47,-134.86 1184.01,-139.14"/>
</a>
</g>
</g>
<!-- Node14 -->
<g id="Node000014" class="node">
<title>Node14</title>
<g id="a_Node000014"><a xlink:href="list_8h.html" target="_top" xlink:title="All linked list operation functions definitions and macros.">
<polygon fill="white" stroke="#666666" points="782.5,-129 719.5,-129 719.5,-110 782.5,-110 782.5,-129"/>
<text text-anchor="middle" x="751" y="-117" font-family="Helvetica,sans-Serif" font-size="10.00">mm/list.h</text>
</a>
</g>
</g>
<!-- Node4&#45;&gt;Node14 -->
<g id="edge13_Node000004_Node000014" class="edge">
<title>Node4&#45;&gt;Node14</title>
<g id="a_edge13_Node000004_Node000014"><a xlink:title=" ">
<path fill="none" stroke="#63b8ff" d="M1111.49,-168.03C1034.47,-157.87 870.25,-136.22 792.92,-126.03"/>
<polygon fill="#63b8ff" stroke="#63b8ff" points="792.97,-122.5 782.6,-124.67 792.06,-129.44 792.97,-122.5"/>
</a>
</g>
</g>
<!-- Node15 -->
<g id="Node000015" class="node">
<title>Node15</title>
<g id="a_Node000015"><a xlink:href="def__env__macros_8h.html" target="_top" xlink:title=" ">
<polygon fill="white" stroke="#666666" points="1401,-129 1295,-129 1295,-110 1401,-110 1401,-129"/>
<text text-anchor="middle" x="1348" y="-117" font-family="Helvetica,sans-Serif" font-size="10.00">def_env_macros.h</text>
</a>
</g>
</g>
<!-- Node4&#45;&gt;Node15 -->
<g id="edge15_Node000004_Node000015" class="edge">
<title>Node4&#45;&gt;Node15</title>
<g id="a_edge15_Node000004_Node000015"><a xlink:title=" ">
<path fill="none" stroke="#63b8ff" d="M1184.33,-164.98C1217.49,-155.97 1270,-141.7 1306.56,-131.76"/>
<polygon fill="#63b8ff" stroke="#63b8ff" points="1307.69,-135.08 1316.42,-129.08 1305.86,-128.33 1307.69,-135.08"/>
</a>
</g>
</g>
<!-- Node16 -->
<g id="Node000016" class="node">
<title>Node16</title>
<g id="a_Node000016"><a xlink:href="def__hw_8h.html" target="_top" xlink:title=" ">
<polygon fill="white" stroke="#666666" points="1479,-129 1419,-129 1419,-110 1479,-110 1479,-129"/>
<text text-anchor="middle" x="1449" y="-117" font-family="Helvetica,sans-Serif" font-size="10.00">def_hw.h</text>
</a>
</g>
</g>
<!-- Node4&#45;&gt;Node16 -->
<g id="edge16_Node000004_Node000016" class="edge">
<title>Node4&#45;&gt;Node16</title>
<g id="a_edge16_Node000004_Node000016"><a xlink:title=" ">
<path fill="none" stroke="#63b8ff" d="M1194.95,-166.81C1243.92,-158.87 1327.59,-144.91 1408.89,-129.15"/>
<polygon fill="#63b8ff" stroke="#63b8ff" points="1409.65,-132.57 1418.79,-127.22 1408.31,-125.7 1409.65,-132.57"/>
</a>
</g>
</g>
<!-- Node17 -->
<g id="Node000017" class="node">
<title>Node17</title>
<g id="a_Node000017"><a xlink:href="conf__os_8h.html" target="_top" xlink:title=" ">
<polygon fill="white" stroke="#666666" points="1560.5,-129 1497.5,-129 1497.5,-110 1560.5,-110 1560.5,-129"/>
<text text-anchor="middle" x="1529" y="-117" font-family="Helvetica,sans-Serif" font-size="10.00">conf_os.h</text>
</a>
</g>
</g>
<!-- Node4&#45;&gt;Node17 -->
<g id="edge17_Node000004_Node000017" class="edge">
<title>Node4&#45;&gt;Node17</title>
<g id="a_edge17_Node000004_Node000017"><a xlink:title=" ">
<path fill="none" stroke="#63b8ff" d="M1194.57,-167.08C1199.44,-166.37 1204.33,-165.66 1209,-165 1329.67,-148.06 1363.02,-149.61 1487.35,-128.99"/>
<polygon fill="#63b8ff" stroke="#63b8ff" points="1487.98,-132.43 1497.26,-127.33 1486.82,-125.53 1487.98,-132.43"/>
</a>
</g>
</g>
<!-- Node19 -->
<g id="Node000019" class="node">
<title>Node19</title>
<g id="a_Node000019"><a xlink:href="ipc_2ringbuffer_8h.html" target="_top" xlink:title=" ">
<polygon fill="white" stroke="#666666" points="1706.5,-129 1617.5,-129 1617.5,-110 1706.5,-110 1706.5,-129"/>
<text text-anchor="middle" x="1662" y="-117" font-family="Helvetica,sans-Serif" font-size="10.00">ipc/ringbuffer.h</text>
</a>
</g>
</g>
<!-- Node4&#45;&gt;Node19 -->
<g id="edge19_Node000004_Node000019" class="edge">
<title>Node4&#45;&gt;Node19</title>
<g id="a_edge19_Node000004_Node000019"><a xlink:title=" ">
<path fill="none" stroke="#63b8ff" d="M1194.65,-169.16C1286.13,-159.64 1504.56,-136.89 1607.09,-126.22"/>
<polygon fill="#63b8ff" stroke="#63b8ff" points="1607.65,-129.68 1617.23,-125.16 1606.92,-122.72 1607.65,-129.68"/>
</a>
</g>
</g>
<!-- Node21 -->
<g id="Node000021" class="node">
<title>Node21</title>
<g id="a_Node000021"><a xlink:href="os_2kernel__mem_8h.html" target="_top" xlink:title=" ">
<polygon fill="white" stroke="#666666" points="978.5,-129 877.5,-129 877.5,-110 978.5,-110 978.5,-129"/>
<text text-anchor="middle" x="928" y="-117" font-family="Helvetica,sans-Serif" font-size="10.00">os/kernel_mem.h</text>
</a>
</g>
</g>
<!-- Node4&#45;&gt;Node21 -->
<g id="edge22_Node000004_Node000021" class="edge">
<title>Node4&#45;&gt;Node21</title>
<g id="a_edge22_Node000004_Node000021"><a xlink:title=" ">
<path fill="none" stroke="#63b8ff" d="M1116.85,-164.98C1078.09,-155.86 1016.45,-141.33 974.2,-131.38"/>
<polygon fill="#63b8ff" stroke="#63b8ff" points="974.97,-127.97 964.43,-129.08 973.36,-134.78 974.97,-127.97"/>
</a>
</g>
</g>
<!-- Node24 -->
<g id="Node000024" class="node">
<title>Node24</title>
<g id="a_Node000024"><a xlink:title=" ">
<polygon fill="#e0e0e0" stroke="#999999" points="1215,-74 1143,-74 1143,-55 1215,-55 1215,-74"/>
<text text-anchor="middle" x="1179" y="-62" font-family="Helvetica,sans-Serif" font-size="10.00">FreeRTOS.h</text>
</a>
</g>
</g>
<!-- Node4&#45;&gt;Node24 -->
<g id="edge34_Node000004_Node000024" class="edge">
<title>Node4&#45;&gt;Node24</title>
<g id="a_edge34_Node000004_Node000024"><a xlink:title=" ">
<path fill="none" stroke="#63b8ff" d="M1148.41,-164.63C1142.59,-152.12 1134.09,-128.74 1141,-110 1145.06,-98.99 1153.19,-88.86 1160.9,-81.05"/>
<polygon fill="#63b8ff" stroke="#63b8ff" points="1163.42,-83.48 1168.29,-74.07 1158.61,-78.39 1163.42,-83.48"/>
</a>
</g>
</g>
<!-- Node26 -->
<g id="Node000026" class="node">
<title>Node26</title>
<g id="a_Node000026"><a xlink:title=" ">
<polygon fill="#e0e0e0" stroke="#999999" points="1292,-74 1236,-74 1236,-55 1292,-55 1292,-74"/>
<text text-anchor="middle" x="1264" y="-62" font-family="Helvetica,sans-Serif" font-size="10.00">queue.h</text>
</a>
</g>
</g>
<!-- Node4&#45;&gt;Node26 -->
<g id="edge35_Node000004_Node000026" class="edge">
<title>Node4&#45;&gt;Node26</title>
<g id="a_edge35_Node000004_Node000026"><a xlink:title=" ">
<path fill="none" stroke="#63b8ff" d="M1188.9,-164.89C1209.04,-158.28 1233.05,-147.12 1248,-129 1258.29,-116.53 1262.08,-98.32 1263.42,-84.6"/>
<polygon fill="#63b8ff" stroke="#63b8ff" points="1266.93,-84.55 1264.06,-74.35 1259.95,-84.11 1266.93,-84.55"/>
</a>
</g>
</g>
<!-- Node6 -->
<g id="Node000006" class="node">
<title>Node6</title>
<g id="a_Node000006"><a xlink:title=" ">
<polygon fill="#e0e0e0" stroke="#999999" points="717.5,-19 664.5,-19 664.5,0 717.5,0 717.5,-19"/>
<text text-anchor="middle" x="691" y="-7" font-family="Helvetica,sans-Serif" font-size="10.00">stdlib.h</text>
</a>
</g>
</g>
<!-- Node5&#45;&gt;Node6 -->
<g id="edge5_Node000005_Node000006" class="edge">
<title>Node5&#45;&gt;Node6</title>
<g id="a_edge5_Node000005_Node000006"><a xlink:title=" ">
<path fill="none" stroke="#63b8ff" d="M563.42,-54.98C588.72,-46.16 628.45,-32.31 656.86,-22.41"/>
<polygon fill="#63b8ff" stroke="#63b8ff" points="658.1,-25.68 666.39,-19.08 655.79,-19.07 658.1,-25.68"/>
</a>
</g>
</g>
<!-- Node7 -->
<g id="Node000007" class="node">
<title>Node7</title>
<g id="a_Node000007"><a xlink:title=" ">
<polygon fill="#e0e0e0" stroke="#999999" points="786.5,-19 735.5,-19 735.5,0 786.5,0 786.5,-19"/>
<text text-anchor="middle" x="761" y="-7" font-family="Helvetica,sans-Serif" font-size="10.00">errno.h</text>
</a>
</g>
</g>
<!-- Node5&#45;&gt;Node7 -->
<g id="edge6_Node000005_Node000007" class="edge">
<title>Node5&#45;&gt;Node7</title>
<g id="a_edge6_Node000005_Node000007"><a xlink:title=" ">
<path fill="none" stroke="#63b8ff" d="M570.3,-56.22C605.66,-47.96 665.22,-33.98 725.35,-19.38"/>
<polygon fill="#63b8ff" stroke="#63b8ff" points="726.5,-22.7 735.39,-16.94 724.84,-15.9 726.5,-22.7"/>
</a>
</g>
</g>
<!-- Node8 -->
<g id="Node000008" class="node">
<title>Node8</title>
<g id="a_Node000008"><a xlink:title=" ">
<polygon fill="#e0e0e0" stroke="#999999" points="423,-19 373,-19 373,0 423,0 423,-19"/>
<text text-anchor="middle" x="398" y="-7" font-family="Helvetica,sans-Serif" font-size="10.00">stdio.h</text>
</a>
</g>
</g>
<!-- Node5&#45;&gt;Node8 -->
<g id="edge7_Node000005_Node000008" class="edge">
<title>Node5&#45;&gt;Node8</title>
<g id="a_edge7_Node000005_Node000008"><a xlink:title=" ">
<path fill="none" stroke="#63b8ff" d="M516.35,-54.98C493.15,-46.27 456.88,-32.63 430.6,-22.75"/>
<polygon fill="#63b8ff" stroke="#63b8ff" points="431.66,-19.41 421.07,-19.17 429.2,-25.97 431.66,-19.41"/>
</a>
</g>
</g>
<!-- Node9 -->
<g id="Node000009" class="node">
<title>Node9</title>
<g id="a_Node000009"><a xlink:title=" ">
<polygon fill="#e0e0e0" stroke="#999999" points="496.5,-19 441.5,-19 441.5,0 496.5,0 496.5,-19"/>
<text text-anchor="middle" x="469" y="-7" font-family="Helvetica,sans-Serif" font-size="10.00">signal.h</text>
</a>
</g>
</g>
<!-- Node5&#45;&gt;Node9 -->
<g id="edge8_Node000005_Node000009" class="edge">
<title>Node5&#45;&gt;Node9</title>
<g id="a_edge8_Node000005_Node000009"><a xlink:title=" ">
<path fill="none" stroke="#63b8ff" d="M527.75,-54.98C517.2,-47 501.2,-34.88 488.56,-25.31"/>
<polygon fill="#63b8ff" stroke="#63b8ff" points="490.54,-22.42 480.45,-19.17 486.31,-28 490.54,-22.42"/>
</a>
</g>
</g>
<!-- Node10 -->
<g id="Node000010" class="node">
<title>Node10</title>
<g id="a_Node000010"><a xlink:title=" ">
<polygon fill="#e0e0e0" stroke="#999999" points="563,-19 515,-19 515,0 563,0 563,-19"/>
<text text-anchor="middle" x="539" y="-7" font-family="Helvetica,sans-Serif" font-size="10.00">time.h</text>
</a>
</g>
</g>
<!-- Node5&#45;&gt;Node10 -->
<g id="edge9_Node000005_Node000010" class="edge">
<title>Node5&#45;&gt;Node10</title>
<g id="a_edge9_Node000005_Node000010"><a xlink:title=" ">
<path fill="none" stroke="#63b8ff" d="M539,-54.75C539,-47.8 539,-37.85 539,-29.13"/>
<polygon fill="#63b8ff" stroke="#63b8ff" points="542.5,-29.09 539,-19.09 535.5,-29.09 542.5,-29.09"/>
</a>
</g>
</g>
<!-- Node11 -->
<g id="Node000011" class="node">
<title>Node11</title>
<g id="a_Node000011"><a xlink:title=" ">
<polygon fill="#e0e0e0" stroke="#999999" points="354.5,-19 301.5,-19 301.5,0 354.5,0 354.5,-19"/>
<text text-anchor="middle" x="328" y="-7" font-family="Helvetica,sans-Serif" font-size="10.00">stdint.h</text>
</a>
</g>
</g>
<!-- Node5&#45;&gt;Node11 -->
<g id="edge10_Node000005_Node000011" class="edge">
<title>Node5&#45;&gt;Node11</title>
<g id="a_edge10_Node000005_Node000011"><a xlink:title=" ">
<path fill="none" stroke="#63b8ff" d="M507.87,-55.68C469.61,-46.07 404.81,-29.79 364.32,-19.62"/>
<polygon fill="#63b8ff" stroke="#63b8ff" points="365.13,-16.22 354.58,-17.18 363.43,-23.01 365.13,-16.22"/>
</a>
</g>
</g>
<!-- Node12 -->
<g id="Node000012" class="node">
<title>Node12</title>
<g id="a_Node000012"><a xlink:title=" ">
<polygon fill="#e0e0e0" stroke="#999999" points="646.5,-19 581.5,-19 581.5,0 646.5,0 646.5,-19"/>
<text text-anchor="middle" x="614" y="-7" font-family="Helvetica,sans-Serif" font-size="10.00">inttypes.h</text>
</a>
</g>
</g>
<!-- Node5&#45;&gt;Node12 -->
<g id="edge11_Node000005_Node000012" class="edge">
<title>Node5&#45;&gt;Node12</title>
<g id="a_edge11_Node000005_Node000012"><a xlink:title=" ">
<path fill="none" stroke="#63b8ff" d="M551.05,-54.98C562.46,-46.92 579.83,-34.65 593.43,-25.03"/>
<polygon fill="#63b8ff" stroke="#63b8ff" points="595.58,-27.8 601.73,-19.17 591.54,-22.08 595.58,-27.8"/>
</a>
</g>
</g>
<!-- Node14&#45;&gt;Node5 -->
<g id="edge14_Node000014_Node000005" class="edge">
<title>Node14&#45;&gt;Node5</title>
<g id="a_edge14_Node000014_Node000005"><a xlink:title=" ">
<path fill="none" stroke="#63b8ff" d="M719.26,-110.57C682.2,-101.3 620.81,-85.95 580.13,-75.78"/>
<polygon fill="#63b8ff" stroke="#63b8ff" points="580.81,-72.35 570.26,-73.32 579.12,-79.14 580.81,-72.35"/>
</a>
</g>
</g>
<!-- Node18 -->
<g id="Node000018" class="node">
<title>Node18</title>
<g id="a_Node000018"><a xlink:href="autoconf_8h.html" target="_top" xlink:title=" ">
<polygon fill="white" stroke="#666666" points="1520,-74 1452,-74 1452,-55 1520,-55 1520,-74"/>
<text text-anchor="middle" x="1486" y="-62" font-family="Helvetica,sans-Serif" font-size="10.00">autoconf.h</text>
</a>
</g>
</g>
<!-- Node17&#45;&gt;Node18 -->
<g id="edge18_Node000017_Node000018" class="edge">
<title>Node17&#45;&gt;Node18</title>
<g id="a_edge18_Node000017_Node000018"><a xlink:title=" ">
<path fill="none" stroke="#63b8ff" d="M1521.9,-109.75C1515.83,-102.26 1506.91,-91.28 1499.49,-82.13"/>
<polygon fill="#63b8ff" stroke="#63b8ff" points="1501.99,-79.65 1492.97,-74.09 1496.55,-84.06 1501.99,-79.65"/>
</a>
</g>
</g>
<!-- Node19&#45;&gt;Node11 -->
<g id="edge20_Node000019_Node000011" class="edge">
<title>Node19&#45;&gt;Node11</title>
<g id="a_edge20_Node000019_Node000011"><a xlink:title=" ">
<path fill="none" stroke="#63b8ff" d="M1657.66,-109.93C1649.82,-95.49 1631.77,-66.75 1607,-55 1484.73,3.01 540.88,-35.32 364.67,-18.55"/>
<polygon fill="#63b8ff" stroke="#63b8ff" points="364.95,-15.06 354.62,-17.42 364.17,-22.02 364.95,-15.06"/>
</a>
</g>
</g>
<!-- Node20 -->
<g id="Node000020" class="node">
<title>Node20</title>
<g id="a_Node000020"><a xlink:title=" ">
<polygon fill="#e0e0e0" stroke="#999999" points="1710,-74 1654,-74 1654,-55 1710,-55 1710,-74"/>
<text text-anchor="middle" x="1682" y="-62" font-family="Helvetica,sans-Serif" font-size="10.00">stddef.h</text>
</a>
</g>
</g>
<!-- Node19&#45;&gt;Node20 -->
<g id="edge21_Node000019_Node000020" class="edge">
<title>Node19&#45;&gt;Node20</title>
<g id="a_edge21_Node000019_Node000020"><a xlink:title=" ">
<path fill="none" stroke="#63b8ff" d="M1665.3,-109.75C1667.98,-102.65 1671.85,-92.4 1675.19,-83.56"/>
<polygon fill="#63b8ff" stroke="#63b8ff" points="1678.5,-84.68 1678.76,-74.09 1671.95,-82.21 1678.5,-84.68"/>
</a>
</g>
</g>
<!-- Node21&#45;&gt;Node5 -->
<g id="edge23_Node000021_Node000005" class="edge">
<title>Node21&#45;&gt;Node5</title>
<g id="a_edge23_Node000021_Node000005"><a xlink:title=" ">
<path fill="none" stroke="#63b8ff" d="M877.26,-111.85C872.44,-111.22 867.63,-110.6 863,-110 740.44,-94.19 706.75,-94.84 580.36,-73.93"/>
<polygon fill="#63b8ff" stroke="#63b8ff" points="580.73,-70.44 570.29,-72.25 579.58,-77.35 580.73,-70.44"/>
</a>
</g>
</g>
<!-- Node22 -->
<g id="Node000022" class="node">
<title>Node22</title>
<g id="a_Node000022"><a xlink:href="def__err_8h.html" target="_top" xlink:title=" ">
<polygon fill="white" stroke="#666666" points="444.5,-74 385.5,-74 385.5,-55 444.5,-55 444.5,-74"/>
<text text-anchor="middle" x="415" y="-62" font-family="Helvetica,sans-Serif" font-size="10.00">def_err.h</text>
</a>
</g>
</g>
<!-- Node21&#45;&gt;Node22 -->
<g id="edge24_Node000021_Node000022" class="edge">
<title>Node21&#45;&gt;Node22</title>
<g id="a_edge24_Node000021_Node000022"><a xlink:title=" ">
<path fill="none" stroke="#63b8ff" d="M877.41,-113.27C775.42,-102.74 547.04,-79.14 454.79,-69.61"/>
<polygon fill="#63b8ff" stroke="#63b8ff" points="455.05,-66.12 444.74,-68.57 454.33,-73.08 455.05,-66.12"/>
</a>
</g>
</g>
<!-- Node23 -->
<g id="Node000023" class="node">
<title>Node23</title>
<g id="a_Node000023"><a xlink:href="def__attributes_8h.html" target="_top" xlink:title=" ">
<polygon fill="white" stroke="#666666" points="748,-74 654,-74 654,-55 748,-55 748,-74"/>
<text text-anchor="middle" x="701" y="-62" font-family="Helvetica,sans-Serif" font-size="10.00">def_attributes.h</text>
</a>
</g>
</g>
<!-- Node21&#45;&gt;Node23 -->
<g id="edge25_Node000021_Node000023" class="edge">
<title>Node21&#45;&gt;Node23</title>
<g id="a_edge25_Node000021_Node000023"><a xlink:title=" ">
<path fill="none" stroke="#63b8ff" d="M891.53,-109.98C852.43,-100.86 790.23,-86.33 747.61,-76.38"/>
<polygon fill="#63b8ff" stroke="#63b8ff" points="748.29,-72.95 737.76,-74.08 746.7,-79.76 748.29,-72.95"/>
</a>
</g>
</g>
<!-- Node21&#45;&gt;Node24 -->
<g id="edge26_Node000021_Node000024" class="edge">
<title>Node21&#45;&gt;Node24</title>
<g id="a_edge26_Node000021_Node000024"><a xlink:title=" ">
<path fill="none" stroke="#63b8ff" d="M968.33,-109.98C1013.26,-100.5 1085.76,-85.19 1132.9,-75.23"/>
<polygon fill="#63b8ff" stroke="#63b8ff" points="1133.78,-78.62 1142.85,-73.13 1132.34,-71.78 1133.78,-78.62"/>
</a>
</g>
</g>
<!-- Node25 -->
<g id="Node000025" class="node">
<title>Node25</title>
<g id="a_Node000025"><a xlink:title=" ">
<polygon fill="#e0e0e0" stroke="#999999" points="1597.5,-74 1538.5,-74 1538.5,-55 1597.5,-55 1597.5,-74"/>
<text text-anchor="middle" x="1568" y="-62" font-family="Helvetica,sans-Serif" font-size="10.00">atomic.h</text>
</a>
</g>
</g>
<!-- Node21&#45;&gt;Node25 -->
<g id="edge27_Node000021_Node000025" class="edge">
<title>Node21&#45;&gt;Node25</title>
<g id="a_edge27_Node000021_Node000025"><a xlink:title=" ">
<path fill="none" stroke="#63b8ff" d="M978.79,-115.66C1100.14,-108.74 1405.32,-90.44 1528.01,-73.87"/>
<polygon fill="#63b8ff" stroke="#63b8ff" points="1528.85,-77.29 1538.27,-72.43 1527.88,-70.36 1528.85,-77.29"/>
</a>
</g>
</g>
<!-- Node21&#45;&gt;Node26 -->
<g id="edge28_Node000021_Node000026" class="edge">
<title>Node21&#45;&gt;Node26</title>
<g id="a_edge28_Node000021_Node000026"><a xlink:title=" ">
<path fill="none" stroke="#63b8ff" d="M978.69,-111.82C1037.76,-103.83 1138.22,-89.55 1224,-74 1224.59,-73.89 1225.18,-73.78 1225.78,-73.67"/>
<polygon fill="#63b8ff" stroke="#63b8ff" points="1226.49,-77.1 1235.63,-71.75 1225.15,-70.23 1226.49,-77.1"/>
</a>
</g>
</g>
<!-- Node27 -->
<g id="Node000027" class="node">
<title>Node27</title>
<g id="a_Node000027"><a xlink:title=" ">
<polygon fill="#e0e0e0" stroke="#999999" points="635.5,-74 588.5,-74 588.5,-55 635.5,-55 635.5,-74"/>
<text text-anchor="middle" x="612" y="-62" font-family="Helvetica,sans-Serif" font-size="10.00">task.h</text>
</a>
</g>
</g>
<!-- Node21&#45;&gt;Node27 -->
<g id="edge29_Node000021_Node000027" class="edge">
<title>Node21&#45;&gt;Node27</title>
<g id="a_edge29_Node000021_Node000027"><a xlink:title=" ">
<path fill="none" stroke="#63b8ff" d="M877.27,-111.12C812.28,-101.57 702.22,-85.05 645.65,-73.92"/>
<polygon fill="#63b8ff" stroke="#63b8ff" points="646.23,-70.46 635.73,-71.9 644.83,-77.32 646.23,-70.46"/>
</a>
</g>
</g>
<!-- Node28 -->
<g id="Node000028" class="node">
<title>Node28</title>
<g id="a_Node000028"><a xlink:title=" ">
<polygon fill="#e0e0e0" stroke="#999999" points="934.5,-74 877.5,-74 877.5,-55 934.5,-55 934.5,-74"/>
<text text-anchor="middle" x="906" y="-62" font-family="Helvetica,sans-Serif" font-size="10.00">timers.h</text>
</a>
</g>
</g>
<!-- Node21&#45;&gt;Node28 -->
<g id="edge30_Node000021_Node000028" class="edge">
<title>Node21&#45;&gt;Node28</title>
<g id="a_edge30_Node000021_Node000028"><a xlink:title=" ">
<path fill="none" stroke="#63b8ff" d="M924.37,-109.75C921.42,-102.65 917.17,-92.4 913.49,-83.56"/>
<polygon fill="#63b8ff" stroke="#63b8ff" points="916.63,-81.98 909.57,-74.09 910.17,-84.67 916.63,-81.98"/>
</a>
</g>
</g>
<!-- Node29 -->
<g id="Node000029" class="node">
<title>Node29</title>
<g id="a_Node000029"><a xlink:title=" ">
<polygon fill="#e0e0e0" stroke="#999999" points="1015,-74 953,-74 953,-55 1015,-55 1015,-74"/>
<text text-anchor="middle" x="984" y="-62" font-family="Helvetica,sans-Serif" font-size="10.00">semphr.h</text>
</a>
</g>
</g>
<!-- Node21&#45;&gt;Node29 -->
<g id="edge31_Node000021_Node000029" class="edge">
<title>Node21&#45;&gt;Node29</title>
<g id="a_edge31_Node000021_Node000029"><a xlink:title=" ">
<path fill="none" stroke="#63b8ff" d="M937,-109.98C945.19,-102.23 957.51,-90.58 967.47,-81.14"/>
<polygon fill="#63b8ff" stroke="#63b8ff" points="969.98,-83.59 974.84,-74.17 965.17,-78.5 969.98,-83.59"/>
</a>
</g>
</g>
<!-- Node30 -->
<g id="Node000030" class="node">
<title>Node30</title>
<g id="a_Node000030"><a xlink:title=" ">
<polygon fill="#e0e0e0" stroke="#999999" points="1125,-74 1033,-74 1033,-55 1125,-55 1125,-74"/>
<text text-anchor="middle" x="1079" y="-62" font-family="Helvetica,sans-Serif" font-size="10.00">event_groups.h</text>
</a>
</g>
</g>
<!-- Node21&#45;&gt;Node30 -->
<g id="edge32_Node000021_Node000030" class="edge">
<title>Node21&#45;&gt;Node30</title>
<g id="a_edge32_Node000021_Node000030"><a xlink:title=" ">
<path fill="none" stroke="#63b8ff" d="M952.26,-109.98C977.32,-101.19 1016.63,-87.39 1044.83,-77.49"/>
<polygon fill="#63b8ff" stroke="#63b8ff" points="1046.02,-80.78 1054.3,-74.17 1043.7,-74.18 1046.02,-80.78"/>
</a>
</g>
</g>
<!-- Node31 -->
<g id="Node000031" class="node">
<title>Node31</title>
<g id="a_Node000031"><a xlink:title=" ">
<polygon fill="#e0e0e0" stroke="#999999" points="859.5,-74 766.5,-74 766.5,-55 859.5,-55 859.5,-74"/>
<text text-anchor="middle" x="813" y="-62" font-family="Helvetica,sans-Serif" font-size="10.00">stream_buffer.h</text>
</a>
</g>
</g>
<!-- Node21&#45;&gt;Node31 -->
<g id="edge33_Node000021_Node000031" class="edge">
<title>Node21&#45;&gt;Node31</title>
<g id="a_edge33_Node000021_Node000031"><a xlink:title=" ">
<path fill="none" stroke="#63b8ff" d="M909.52,-109.98C891.02,-101.46 862.32,-88.23 841.02,-78.41"/>
<polygon fill="#63b8ff" stroke="#63b8ff" points="842.36,-75.18 831.81,-74.17 839.43,-81.53 842.36,-75.18"/>
</a>
</g>
</g>
<!-- Node32&#45;&gt;Node3 -->
<g id="edge39_Node000032_Node000003" class="edge">
<title>Node32&#45;&gt;Node3</title>
<g id="a_edge39_Node000032_Node000003"><a xlink:title=" ">
<path fill="none" stroke="#63b8ff" d="M500.21,-166.16C497.43,-165.76 494.68,-165.37 492,-165 359.84,-146.81 312.35,-190.58 194,-129 173.95,-118.57 157.55,-98.01 147.57,-83.11"/>
<polygon fill="#63b8ff" stroke="#63b8ff" points="150.29,-80.86 141.97,-74.29 144.38,-84.61 150.29,-80.86"/>
</a>
</g>
</g>
<!-- Node32&#45;&gt;Node5 -->
<g id="edge37_Node000032_Node000005" class="edge">
<title>Node32&#45;&gt;Node5</title>
<g id="a_edge37_Node000032_Node000005"><a xlink:title=" ">
<path fill="none" stroke="#63b8ff" d="M546.35,-164.66C545.05,-147.17 542.13,-107.8 540.39,-84.27"/>
<polygon fill="#63b8ff" stroke="#63b8ff" points="543.87,-83.87 539.64,-74.16 536.89,-84.39 543.87,-83.87"/>
</a>
</g>
</g>
<!-- Node32&#45;&gt;Node17 -->
<g id="edge38_Node000032_Node000017" class="edge">
<title>Node32&#45;&gt;Node17</title>
<g id="a_edge38_Node000032_Node000017"><a xlink:title=" ">
<path fill="none" stroke="#63b8ff" d="M593.72,-170.26C618.97,-168.57 650.68,-166.54 679,-165 1035.05,-145.62 1129.13,-173.15 1487.17,-128.86"/>
<polygon fill="#63b8ff" stroke="#63b8ff" points="1487.81,-132.31 1497.3,-127.59 1486.94,-125.36 1487.81,-132.31"/>
</a>
</g>
</g>
<!-- Node33&#45;&gt;Node5 -->
<g id="edge42_Node000033_Node000005" class="edge">
<title>Node33&#45;&gt;Node5</title>
<g id="a_edge42_Node000033_Node000005"><a xlink:title=" ">
<path fill="none" stroke="#63b8ff" d="M711.46,-164.96C694.05,-152.24 659.82,-127.92 629,-110 609.04,-98.39 585.64,-86.88 567.7,-78.48"/>
<polygon fill="#63b8ff" stroke="#63b8ff" points="568.9,-75.18 558.35,-74.15 565.96,-81.53 568.9,-75.18"/>
</a>
</g>
</g>
<!-- Node33&#45;&gt;Node14 -->
<g id="edge45_Node000033_Node000014" class="edge">
<title>Node33&#45;&gt;Node14</title>
<g id="a_edge45_Node000033_Node000014"><a xlink:title=" ">
<path fill="none" stroke="#63b8ff" d="M727.62,-164.75C731.46,-157.49 737.02,-146.95 741.76,-137.98"/>
<polygon fill="#63b8ff" stroke="#63b8ff" points="744.89,-139.57 746.46,-129.09 738.7,-136.3 744.89,-139.57"/>
</a>
</g>
</g>
<!-- Node33&#45;&gt;Node21 -->
<g id="edge46_Node000033_Node000021" class="edge">
<title>Node33&#45;&gt;Node21</title>
<g id="a_edge46_Node000033_Node000021"><a xlink:title=" ">
<path fill="none" stroke="#63b8ff" d="M755.94,-164.98C790.95,-155.93 846.47,-141.58 884.93,-131.64"/>
<polygon fill="#63b8ff" stroke="#63b8ff" points="886,-134.97 894.81,-129.08 884.25,-128.2 886,-134.97"/>
</a>
</g>
</g>
<!-- Node33&#45;&gt;Node22 -->
<g id="edge43_Node000033_Node000022" class="edge">
<title>Node33&#45;&gt;Node22</title>
<g id="a_edge43_Node000033_Node000022"><a xlink:title=" ">
<path fill="none" stroke="#63b8ff" d="M698.57,-164.94C643.99,-145.79 511.99,-99.51 449.24,-77.51"/>
<polygon fill="#63b8ff" stroke="#63b8ff" points="450.02,-74.07 439.43,-74.07 447.71,-80.68 450.02,-74.07"/>
</a>
</g>
</g>
<!-- Node33&#45;&gt;Node23 -->
<g id="edge41_Node000033_Node000023" class="edge">
<title>Node33&#45;&gt;Node23</title>
<g id="a_edge41_Node000033_Node000023"><a xlink:title=" ">
<path fill="none" stroke="#63b8ff" d="M720.33,-164.7C717.69,-155.77 713.67,-141.52 711,-129 707.83,-114.12 705.2,-97.09 703.44,-84.41"/>
<polygon fill="#63b8ff" stroke="#63b8ff" points="706.86,-83.63 702.07,-74.18 699.93,-84.56 706.86,-83.63"/>
</a>
</g>
</g>
<!-- Node33&#45;&gt;Node24 -->
<g id="edge44_Node000033_Node000024" class="edge">
<title>Node33&#45;&gt;Node24</title>
<g id="a_edge44_Node000033_Node000024"><a xlink:title=" ">
<path fill="none" stroke="#63b8ff" d="M758.36,-170.39C809.78,-165.25 907.79,-153.04 988,-129 1008.01,-123 1011.4,-117.24 1031,-110 1066.16,-97 1107.02,-84.94 1136.89,-76.66"/>
<polygon fill="#63b8ff" stroke="#63b8ff" points="1137.86,-80.02 1146.57,-74 1136,-73.27 1137.86,-80.02"/>
</a>
</g>
</g>
<!-- Node34&#45;&gt;Node5 -->
<g id="edge48_Node000034_Node000005" class="edge">
<title>Node34&#45;&gt;Node5</title>
<g id="a_edge48_Node000034_Node000005"><a xlink:title=" ">
<path fill="none" stroke="#63b8ff" d="M924.31,-224C850.06,-217.28 721.7,-203.32 679,-184 671.85,-180.76 592.65,-112.2 556.64,-80.88"/>
<polygon fill="#63b8ff" stroke="#63b8ff" points="558.71,-78.04 548.87,-74.11 554.11,-83.32 558.71,-78.04"/>
</a>
</g>
</g>
<!-- Node34&#45;&gt;Node17 -->
<g id="edge49_Node000034_Node000017" class="edge">
<title>Node34&#45;&gt;Node17</title>
<g id="a_edge49_Node000034_Node000017"><a xlink:title=" ">
<path fill="none" stroke="#63b8ff" d="M1033.81,-221.22C1036.92,-220.8 1040,-220.4 1043,-220 1164.33,-203.94 1196.32,-209.56 1316,-184 1380.49,-170.23 1453.81,-146.54 1495.42,-132.32"/>
<polygon fill="#63b8ff" stroke="#63b8ff" points="1496.73,-135.57 1505.05,-129 1494.45,-128.95 1496.73,-135.57"/>
</a>
</g>
</g>
<!-- Node34&#45;&gt;Node19 -->
<g id="edge50_Node000034_Node000019" class="edge">
<title>Node34&#45;&gt;Node19</title>
<g id="a_edge50_Node000034_Node000019"><a xlink:title=" ">
<path fill="none" stroke="#63b8ff" d="M1033.78,-220.98C1036.9,-220.62 1039.99,-220.3 1043,-220 1167.1,-207.78 1490.34,-237.47 1603,-184 1623.94,-174.06 1641.04,-153.09 1651.34,-137.97"/>
<polygon fill="#63b8ff" stroke="#63b8ff" points="1654.36,-139.75 1656.85,-129.45 1648.48,-135.95 1654.36,-139.75"/>
</a>
</g>
</g>
<!-- Node34&#45;&gt;Node24 -->
<g id="edge61_Node000034_Node000024" class="edge">
<title>Node34&#45;&gt;Node24</title>
<g id="a_edge61_Node000034_Node000024"><a xlink:title=" ">
<path fill="none" stroke="#63b8ff" d="M997.65,-219.93C1014.45,-211.8 1039.42,-198.68 1059,-184 1059.72,-183.46 1129.93,-114.03 1162.61,-81.71"/>
<polygon fill="#63b8ff" stroke="#63b8ff" points="1165.4,-83.88 1170.05,-74.36 1160.48,-78.9 1165.4,-83.88"/>
</a>
</g>
</g>
<!-- Node34&#45;&gt;Node25 -->
<g id="edge62_Node000034_Node000025" class="edge">
<title>Node34&#45;&gt;Node25</title>
<g id="a_edge62_Node000034_Node000025"><a xlink:title=" ">
<path fill="none" stroke="#63b8ff" d="M1033.8,-221.15C1036.91,-220.75 1040,-220.37 1043,-220 1160.97,-205.57 1497.67,-223.3 1570,-129 1579.64,-116.43 1577.84,-97.98 1574.39,-84.2"/>
<polygon fill="#63b8ff" stroke="#63b8ff" points="1577.67,-82.95 1571.47,-74.36 1570.96,-84.94 1577.67,-82.95"/>
</a>
</g>
</g>
<!-- Node34&#45;&gt;Node32 -->
<g id="edge60_Node000034_Node000032" class="edge">
<title>Node34&#45;&gt;Node32</title>
<g id="a_edge60_Node000034_Node000032"><a xlink:title=" ">
<path fill="none" stroke="#63b8ff" d="M924.29,-221.79C842.01,-211.69 687.2,-192.7 603.74,-182.46"/>
<polygon fill="#63b8ff" stroke="#63b8ff" points="604.04,-178.97 593.69,-181.23 603.18,-185.92 604.04,-178.97"/>
</a>
</g>
</g>
<!-- Node35 -->
<g id="Node000035" class="node">
<title>Node35</title>
<g id="a_Node000035"><a xlink:href="drv__time_8h.html" target="_top" xlink:title=" ">
<polygon fill="white" stroke="#666666" points="482.5,-184 347.5,-184 347.5,-165 482.5,-165 482.5,-184"/>
<text text-anchor="middle" x="415" y="-172" font-family="Helvetica,sans-Serif" font-size="10.00">drivers/timer/drv_time.h</text>
</a>
</g>
</g>
<!-- Node34&#45;&gt;Node35 -->
<g id="edge51_Node000034_Node000035" class="edge">
<title>Node34&#45;&gt;Node35</title>
<g id="a_edge51_Node000034_Node000035"><a xlink:title=" ">
<path fill="none" stroke="#63b8ff" d="M924.19,-223.83C835.86,-216.23 656.26,-200.47 492.84,-184.07"/>
<polygon fill="#63b8ff" stroke="#63b8ff" points="492.9,-180.55 482.6,-183.03 492.2,-187.52 492.9,-180.55"/>
</a>
</g>
</g>
<!-- Node37 -->
<g id="Node000037" class="node">
<title>Node37</title>
<g id="a_Node000037"><a xlink:title=" ">
<polygon fill="#e0e0e0" stroke="#999999" points="1307,-184 1251,-184 1251,-165 1307,-165 1307,-184"/>
<text text-anchor="middle" x="1279" y="-172" font-family="Helvetica,sans-Serif" font-size="10.00">stdarg.h</text>
</a>
</g>
</g>
<!-- Node34&#45;&gt;Node37 -->
<g id="edge63_Node000034_Node000037" class="edge">
<title>Node34&#45;&gt;Node37</title>
<g id="a_edge63_Node000034_Node000037"><a xlink:title=" ">
<path fill="none" stroke="#63b8ff" d="M1030.97,-219.99C1083.13,-211.34 1165.74,-197.35 1237,-184 1238.1,-183.79 1239.21,-183.58 1240.33,-183.37"/>
<polygon fill="#63b8ff" stroke="#63b8ff" points="1241.41,-186.72 1250.56,-181.37 1240.07,-179.85 1241.41,-186.72"/>
</a>
</g>
</g>
<!-- Node35&#45;&gt;Node3 -->
<g id="edge59_Node000035_Node000003" class="edge">
<title>Node35&#45;&gt;Node3</title>
<g id="a_edge59_Node000035_Node000003"><a xlink:title=" ">
<path fill="none" stroke="#63b8ff" d="M347.49,-169.16C282.07,-163.66 188.76,-151.98 161,-129 147.68,-117.97 141.74,-98.72 139.1,-84.29"/>
<polygon fill="#63b8ff" stroke="#63b8ff" points="142.51,-83.41 137.61,-74.01 135.58,-84.41 142.51,-83.41"/>
</a>
</g>
</g>
<!-- Node36 -->
<g id="Node000036" class="node">
<title>Node36</title>
<g id="a_Node000036"><a xlink:href="drv__handle_8h.html" target="_top" xlink:title=" ">
<polygon fill="white" stroke="#666666" points="473,-129 357,-129 357,-110 473,-110 473,-129"/>
<text text-anchor="middle" x="415" y="-117" font-family="Helvetica,sans-Serif" font-size="10.00">drivers/drv_handle.h</text>
</a>
</g>
</g>
<!-- Node35&#45;&gt;Node36 -->
<g id="edge52_Node000035_Node000036" class="edge">
<title>Node35&#45;&gt;Node36</title>
<g id="a_edge52_Node000035_Node000036"><a xlink:title=" ">
<path fill="none" stroke="#63b8ff" d="M415,-164.75C415,-157.8 415,-147.85 415,-139.13"/>
<polygon fill="#63b8ff" stroke="#63b8ff" points="418.5,-139.09 415,-129.09 411.5,-139.09 418.5,-139.09"/>
</a>
</g>
</g>
<!-- Node36&#45;&gt;Node2 -->
<g id="edge58_Node000036_Node000002" class="edge">
<title>Node36&#45;&gt;Node2</title>
<g id="a_edge58_Node000036_Node000002"><a xlink:title=" ">
<path fill="none" stroke="#63b8ff" d="M356.87,-112.15C288.51,-104.4 171.71,-90.3 72,-74 70.73,-73.79 69.45,-73.58 68.15,-73.35"/>
<polygon fill="#63b8ff" stroke="#63b8ff" points="68.56,-69.87 58.1,-71.52 67.31,-76.76 68.56,-69.87"/>
</a>
</g>
</g>
<!-- Node36&#45;&gt;Node3 -->
<g id="edge55_Node000036_Node000003" class="edge">
<title>Node36&#45;&gt;Node3</title>
<g id="a_edge55_Node000036_Node000003"><a xlink:title=" ">
<path fill="none" stroke="#63b8ff" d="M370.33,-109.98C321.84,-100.74 244.35,-85.97 192.11,-76.01"/>
<polygon fill="#63b8ff" stroke="#63b8ff" points="192.49,-72.52 182.02,-74.08 191.18,-79.39 192.49,-72.52"/>
</a>
</g>
</g>
<!-- Node36&#45;&gt;Node5 -->
<g id="edge53_Node000036_Node000005" class="edge">
<title>Node36&#45;&gt;Node5</title>
<g id="a_edge53_Node000036_Node000005"><a xlink:title=" ">
<path fill="none" stroke="#63b8ff" d="M434.92,-109.98C455.05,-101.38 486.38,-87.99 509.41,-78.15"/>
<polygon fill="#63b8ff" stroke="#63b8ff" points="510.9,-81.32 518.71,-74.17 508.14,-74.88 510.9,-81.32"/>
</a>
</g>
</g>
<!-- Node36&#45;&gt;Node22 -->
<g id="edge54_Node000036_Node000022" class="edge">
<title>Node36&#45;&gt;Node22</title>
<g id="a_edge54_Node000036_Node000022"><a xlink:title=" ">
<path fill="none" stroke="#63b8ff" d="M415,-109.75C415,-102.8 415,-92.85 415,-84.13"/>
<polygon fill="#63b8ff" stroke="#63b8ff" points="418.5,-84.09 415,-74.09 411.5,-84.09 418.5,-84.09"/>
</a>
</g>
</g>
<!-- Node36&#45;&gt;Node24 -->
<g id="edge56_Node000036_Node000024" class="edge">
<title>Node36&#45;&gt;Node24</title>
<g id="a_edge56_Node000036_Node000024"><a xlink:title=" ">
<path fill="none" stroke="#63b8ff" d="M473.01,-117.36C593.92,-114.46 881.8,-104.79 1132.68,-74"/>
<polygon fill="#63b8ff" stroke="#63b8ff" points="1133.22,-77.46 1142.71,-72.76 1132.36,-70.52 1133.22,-77.46"/>
</a>
</g>
</g>
<!-- Node36&#45;&gt;Node27 -->
<g id="edge57_Node000036_Node000027" class="edge">
<title>Node36&#45;&gt;Node27</title>
<g id="a_edge57_Node000036_Node000027"><a xlink:title=" ">
<path fill="none" stroke="#63b8ff" d="M446.65,-109.98C482.84,-100.25 541.82,-84.38 578.69,-74.46"/>
<polygon fill="#63b8ff" stroke="#63b8ff" points="579.72,-77.81 588.46,-71.83 577.9,-71.05 579.72,-77.81"/>
</a>
</g>
</g>
<!-- Node38&#45;&gt;Node4 -->
<g id="edge68_Node000038_Node000004" class="edge">
<title>Node38&#45;&gt;Node4</title>
<g id="a_edge68_Node000038_Node000004"><a xlink:title=" ">
<path fill="none" stroke="#63b8ff" d="M865.11,-219.98C930.14,-209.94 1037.43,-193.36 1101.05,-183.53"/>
<polygon fill="#63b8ff" stroke="#63b8ff" points="1101.91,-186.94 1111.26,-181.95 1100.84,-180.02 1101.91,-186.94"/>
</a>
</g>
</g>
<!-- Node38&#45;&gt;Node5 -->
<g id="edge65_Node000038_Node000005" class="edge">
<title>Node38&#45;&gt;Node5</title>
<g id="a_edge65_Node000038_Node000005"><a xlink:title=" ">
<path fill="none" stroke="#63b8ff" d="M751.75,-221C718.86,-214.8 678.05,-203.68 646,-184 602.87,-157.52 566.84,-108.54 549.71,-82.62"/>
<polygon fill="#63b8ff" stroke="#63b8ff" points="552.64,-80.7 544.28,-74.2 546.76,-84.5 552.64,-80.7"/>
</a>
</g>
</g>
<!-- Node38&#45;&gt;Node17 -->
<g id="edge67_Node000038_Node000017" class="edge">
<title>Node38&#45;&gt;Node17</title>
<g id="a_edge67_Node000038_Node000017"><a xlink:title=" ">
<path fill="none" stroke="#63b8ff" d="M868.01,-223.08C969.74,-213.41 1172.57,-193.31 1204,-184 1222.1,-178.64 1223.99,-170.66 1242,-165 1344.33,-132.84 1377.26,-147.31 1487.09,-129.02"/>
<polygon fill="#63b8ff" stroke="#63b8ff" points="1487.99,-132.42 1497.25,-127.28 1486.8,-125.52 1487.99,-132.42"/>
</a>
</g>
</g>
<!-- Node38&#45;&gt;Node22 -->
<g id="edge66_Node000038_Node000022" class="edge">
<title>Node38&#45;&gt;Node22</title>
<g id="a_edge66_Node000038_Node000022"><a xlink:title=" ">
<path fill="none" stroke="#63b8ff" d="M751.73,-227.29C631.81,-224.19 366.29,-213.99 339,-184 327.93,-171.83 328.88,-139.6 348,-110 356.8,-96.37 371.41,-85.95 384.75,-78.63"/>
<polygon fill="#63b8ff" stroke="#63b8ff" points="386.38,-81.72 393.69,-74.05 383.2,-75.49 386.38,-81.72"/>
</a>
</g>
</g>
<!-- Node38&#45;&gt;Node24 -->
<g id="edge69_Node000038_Node000024" class="edge">
<title>Node38&#45;&gt;Node24</title>
<g id="a_edge69_Node000038_Node000024"><a xlink:title=" ">
<path fill="none" stroke="#63b8ff" d="M829.32,-219.97C890.08,-193.13 1077.53,-110.32 1149.99,-78.31"/>
<polygon fill="#63b8ff" stroke="#63b8ff" points="1151.69,-81.39 1159.43,-74.15 1148.87,-74.99 1151.69,-81.39"/>
</a>
</g>
</g>
<!-- Node38&#45;&gt;Node27 -->
<g id="edge70_Node000038_Node000027" class="edge">
<title>Node38&#45;&gt;Node27</title>
<g id="a_edge70_Node000038_Node000027"><a xlink:title=" ">
<path fill="none" stroke="#63b8ff" d="M811.62,-219.7C815.07,-197.98 820.65,-141.33 792,-110 748.65,-62.59 713.52,-87.85 645.59,-73.9"/>
<polygon fill="#63b8ff" stroke="#63b8ff" points="646.31,-70.48 635.78,-71.66 644.75,-77.3 646.31,-70.48"/>
</a>
</g>
</g>
<!-- Node39&#45;&gt;Node3 -->
<g id="edge73_Node000039_Node000003" class="edge">
<title>Node39&#45;&gt;Node3</title>
<g id="a_edge73_Node000039_Node000003"><a xlink:title=" ">
<path fill="none" stroke="#63b8ff" d="M167.53,-164.86C151.73,-157.85 132.41,-146.27 123,-129 115.25,-114.78 120.58,-96.56 126.77,-83.29"/>
<polygon fill="#63b8ff" stroke="#63b8ff" points="129.96,-84.74 131.46,-74.25 123.74,-81.51 129.96,-84.74"/>
</a>
</g>
</g>
<!-- Node39&#45;&gt;Node36 -->
<g id="edge72_Node000039_Node000036" class="edge">
<title>Node39&#45;&gt;Node36</title>
<g id="a_edge72_Node000039_Node000036"><a xlink:title=" ">
<path fill="none" stroke="#63b8ff" d="M227.83,-164.98C266.16,-155.87 327.08,-141.4 368.95,-131.45"/>
<polygon fill="#63b8ff" stroke="#63b8ff" points="369.97,-134.8 378.89,-129.08 368.35,-127.99 369.97,-134.8"/>
</a>
</g>
</g>
<!-- Node40&#45;&gt;Node11 -->
<g id="edge75_Node000040_Node000011" class="edge">
<title>Node40&#45;&gt;Node11</title>
<g id="a_edge75_Node000040_Node000011"><a xlink:title=" ">
<path fill="none" stroke="#63b8ff" d="M258.22,-109.66C270.86,-91.69 299.75,-50.64 316.12,-27.38"/>
<polygon fill="#63b8ff" stroke="#63b8ff" points="319.01,-29.35 321.91,-19.16 313.29,-25.32 319.01,-29.35"/>
</a>
</g>
</g>
<!-- Node40&#45;&gt;Node22 -->
<g id="edge76_Node000040_Node000022" class="edge">
<title>Node40&#45;&gt;Node22</title>
<g id="a_edge76_Node000040_Node000022"><a xlink:title=" ">
<path fill="none" stroke="#63b8ff" d="M278.19,-109.98C305.44,-101.13 348.3,-87.19 378.78,-77.28"/>
<polygon fill="#63b8ff" stroke="#63b8ff" points="380.18,-80.5 388.61,-74.08 378.01,-73.85 380.18,-80.5"/>
</a>
</g>
</g>
</g>
</svg>
