<?xml version="1.0" encoding="UTF-8" standalone="no"?>
<!DOCTYPE svg PUBLIC "-//W3C//DTD SVG 1.1//EN"
 "http://www.w3.org/Graphics/SVG/1.1/DTD/svg11.dtd">
<!-- Generated by graphviz version 2.43.0 (0)
 -->
<!-- Title: ipc_mqueue_unregister Pages: 1 -->
<svg width="359pt" height="78pt"
 viewBox="0.00 0.00 359.00 77.52" xmlns="http://www.w3.org/2000/svg" xmlns:xlink="http://www.w3.org/1999/xlink">
<g id="graph0" class="graph" transform="scale(1 1) rotate(0) translate(4 73.52)">
<title>ipc_mqueue_unregister</title>
<!-- Node1 -->
<g id="Node000001" class="node">
<title>Node1</title>
<g id="a_Node000001"><a xlink:title=" ">
<polygon fill="#999999" stroke="#666666" points="131,-56 0,-56 0,-37 131,-37 131,-56"/>
<text text-anchor="middle" x="65.5" y="-44" font-family="Helvetica,sans-Serif" font-size="10.00">ipc_mqueue_unregister</text>
</a>
</g>
</g>
<!-- Node2 -->
<g id="Node000002" class="node">
<title>Node2</title>
<g id="a_Node000002"><a xlink:href="os_2kernel__mem_8h.html#ab750d6dec279a17969f64507edde0767" target="_top" xlink:title=" ">
<polygon fill="white" stroke="#666666" points="351,-56 309,-56 309,-37 351,-37 351,-56"/>
<text text-anchor="middle" x="330" y="-44" font-family="Helvetica,sans-Serif" font-size="10.00">kfree</text>
</a>
</g>
</g>
<!-- Node1&#45;&gt;Node2 -->
<g id="edge1_Node000001_Node000002" class="edge">
<title>Node1&#45;&gt;Node2</title>
<g id="a_edge1_Node000001_Node000002"><a xlink:title=" ">
<path fill="none" stroke="#63b8ff" d="M105.92,-56.06C147.63,-64.8 215.28,-75.03 273,-65.5 281.81,-64.05 291.1,-61.39 299.52,-58.51"/>
<polygon fill="#63b8ff" stroke="#63b8ff" points="300.73,-61.8 308.93,-55.09 298.34,-55.22 300.73,-61.8"/>
</a>
</g>
</g>
<!-- Node3 -->
<g id="Node000003" class="node">
<title>Node3</title>
<g id="a_Node000003"><a xlink:href="group__list__api.html#ga42ec4f71d5c7199de9b75f81b3f4e8ed" target="_top" xlink:title="Delete a node from the list.">
<polygon fill="white" stroke="#666666" points="254,-56 186,-56 186,-37 254,-37 254,-56"/>
<text text-anchor="middle" x="220" y="-44" font-family="Helvetica,sans-Serif" font-size="10.00">list_delete</text>
</a>
</g>
</g>
<!-- Node1&#45;&gt;Node3 -->
<g id="edge2_Node000001_Node000003" class="edge">
<title>Node1&#45;&gt;Node3</title>
<g id="a_edge2_Node000001_Node000003"><a xlink:title=" ">
<path fill="none" stroke="#63b8ff" d="M131.17,-46.5C146.18,-46.5 161.8,-46.5 175.64,-46.5"/>
<polygon fill="#63b8ff" stroke="#63b8ff" points="175.83,-50 185.83,-46.5 175.83,-43 175.83,-50"/>
</a>
</g>
</g>
<!-- Node4 -->
<g id="Node000004" class="node">
<title>Node4</title>
<g id="a_Node000004"><a xlink:href="ringbuffer_8c.html#a27581e7a4c0aaa05f77b6e6dd86b3177" target="_top" xlink:title=" ">
<polygon fill="white" stroke="#666666" points="273,-19 167,-19 167,0 273,0 273,-19"/>
<text text-anchor="middle" x="220" y="-7" font-family="Helvetica,sans-Serif" font-size="10.00">ringbuffer_destroy</text>
</a>
</g>
</g>
<!-- Node1&#45;&gt;Node4 -->
<g id="edge3_Node000001_Node000004" class="edge">
<title>Node1&#45;&gt;Node4</title>
<g id="a_edge3_Node000001_Node000004"><a xlink:title=" ">
<path fill="none" stroke="#63b8ff" d="M105.77,-36.97C125.26,-32.24 149.01,-26.48 169.71,-21.46"/>
<polygon fill="#63b8ff" stroke="#63b8ff" points="170.7,-24.82 179.6,-19.06 169.05,-18.02 170.7,-24.82"/>
</a>
</g>
</g>
<!-- Node4&#45;&gt;Node2 -->
<g id="edge4_Node000004_Node000002" class="edge">
<title>Node4&#45;&gt;Node2</title>
<g id="a_edge4_Node000004_Node000002"><a xlink:title=" ">
<path fill="none" stroke="#63b8ff" d="M248.81,-19.03C264.19,-24.3 283.31,-30.85 299.03,-36.23"/>
<polygon fill="#63b8ff" stroke="#63b8ff" points="298.19,-39.64 308.79,-39.57 300.46,-33.02 298.19,-39.64"/>
</a>
</g>
</g>
</g>
</svg>
