<?xml version="1.0" encoding="UTF-8" standalone="no"?>
<!DOCTYPE svg PUBLIC "-//W3C//DTD SVG 1.1//EN"
 "http://www.w3.org/Graphics/SVG/1.1/DTD/svg11.dtd">
<!-- Generated by graphviz version 2.43.0 (0)
 -->
<!-- Title: ipc_mqueue_register Pages: 1 -->
<svg width="384pt" height="140pt"
 viewBox="0.00 0.00 384.00 140.00" xmlns="http://www.w3.org/2000/svg" xmlns:xlink="http://www.w3.org/1999/xlink">

<svg id="main" version="1.1" xmlns="http://www.w3.org/2000/svg" xmlns:xlink="http://www.w3.org/1999/xlink" xml:space="preserve" onload="init(evt)">
<style type="text/css"><![CDATA[
.node, .edge {opacity: 0.7;}
.node.selected, .edge.selected {opacity: 1;}
.edge:hover path { stroke: red; }
.edge:hover polygon { stroke: red; fill: red; }
]]></style>
<script type="application/ecmascript" xlink:href="svg.min.js"/>
<svg id="graph" class="graph">
<g id="graph0" class="graph" transform="scale(1 1) rotate(0) translate(4 136)">
<title>ipc_mqueue_register</title>
<!-- Node1 -->
<g id="Node000001" class="node">
<title>Node1</title>
<g id="a_Node000001"><a xlink:title=" ">
<polygon fill="#999999" stroke="#666666" points="119,-76 0,-76 0,-57 119,-57 119,-76"/>
<text text-anchor="middle" x="59.5" y="-64" font-family="Helvetica,sans-Serif" font-size="10.00">ipc_mqueue_register</text>
</a>
</g>
</g>
<!-- Node2 -->
<g id="Node000002" class="node">
<title>Node2</title>
<g id="a_Node000002"><a xlink:href="os_2kernel__mem_8h.html#ab750d6dec279a17969f64507edde0767" target="_top" xlink:title=" ">
<polygon fill="white" stroke="#666666" points="354.5,-132 312.5,-132 312.5,-113 354.5,-113 354.5,-132"/>
<text text-anchor="middle" x="333.5" y="-120" font-family="Helvetica,sans-Serif" font-size="10.00">kfree</text>
</a>
</g>
</g>
<!-- Node1&#45;&gt;Node2 -->
<g id="edge1_Node000001_Node000002" class="edge">
<title>Node1&#45;&gt;Node2</title>
<g id="a_edge1_Node000001_Node000002"><a xlink:title=" ">
<path fill="none" stroke="#63b8ff" d="M79.52,-76C98.23,-84.91 127.87,-97.81 155,-104.5 205.69,-117 266.58,-120.84 302.27,-122.01"/>
<polygon fill="#63b8ff" stroke="#63b8ff" points="302.4,-125.51 312.49,-122.29 302.59,-118.52 302.4,-125.51"/>
</a>
</g>
</g>
<!-- Node3 -->
<g id="Node000003" class="node">
<title>Node3</title>
<g id="a_Node000003"><a xlink:href="os_2kernel__mem_8h.html#a2b55f9d76c0a87c16c336ec837a80101" target="_top" xlink:title=" ">
<polygon fill="white" stroke="#666666" points="360,-57 307,-57 307,-38 360,-38 360,-57"/>
<text text-anchor="middle" x="333.5" y="-45" font-family="Helvetica,sans-Serif" font-size="10.00">kmaloc</text>
</a>
</g>
</g>
<!-- Node1&#45;&gt;Node3 -->
<g id="edge2_Node000001_Node000003" class="edge">
<title>Node1&#45;&gt;Node3</title>
<g id="a_edge2_Node000001_Node000003"><a xlink:title=" ">
<path fill="none" stroke="#63b8ff" d="M119.19,-62.4C173.11,-58.63 251.33,-53.17 296.54,-50.01"/>
<polygon fill="#63b8ff" stroke="#63b8ff" points="297.02,-53.49 306.75,-49.3 296.53,-46.5 297.02,-53.49"/>
</a>
</g>
</g>
<!-- Node4 -->
<g id="Node000004" class="node">
<title>Node4</title>
<g id="a_Node000004"><a xlink:href="group__list__api.html#gafb58231c241f9acee99a56aaa1b98cec" target="_top" xlink:title="Add a new node at the tail of the list.">
<polygon fill="white" stroke="#666666" points="243,-19 167,-19 167,0 243,0 243,-19"/>
<text text-anchor="middle" x="205" y="-7" font-family="Helvetica,sans-Serif" font-size="10.00">list_add_tail</text>
</a>
</g>
</g>
<!-- Node1&#45;&gt;Node4 -->
<g id="edge3_Node000001_Node000004" class="edge">
<title>Node1&#45;&gt;Node4</title>
<g id="a_edge3_Node000001_Node000004"><a xlink:title=" ">
<path fill="none" stroke="#63b8ff" d="M84.52,-56.96C108.01,-47.63 143.99,-33.34 170.33,-22.88"/>
<polygon fill="#63b8ff" stroke="#63b8ff" points="171.9,-26.02 179.9,-19.07 169.32,-19.51 171.9,-26.02"/>
</a>
</g>
</g>
<!-- Node6 -->
<g id="Node000006" class="node">
<title>Node6</title>
<g id="a_Node000006"><a xlink:href="ringbuffer_8c.html#a85a94391518dcb013756001945f97cd1" target="_top" xlink:title=" ">
<polygon fill="white" stroke="#666666" points="255,-95 155,-95 155,-76 255,-76 255,-95"/>
<text text-anchor="middle" x="205" y="-83" font-family="Helvetica,sans-Serif" font-size="10.00">ringbuffer_create</text>
</a>
</g>
</g>
<!-- Node1&#45;&gt;Node6 -->
<g id="edge5_Node000001_Node000006" class="edge">
<title>Node1&#45;&gt;Node6</title>
<g id="a_edge5_Node000001_Node000006"><a xlink:title=" ">
<path fill="none" stroke="#63b8ff" d="M119.28,-74.28C127.65,-75.39 136.25,-76.53 144.63,-77.64"/>
<polygon fill="#63b8ff" stroke="#63b8ff" points="144.32,-81.13 154.7,-78.97 145.24,-74.19 144.32,-81.13"/>
</a>
</g>
</g>
<!-- Node5 -->
<g id="Node000005" class="node">
<title>Node5</title>
<g id="a_Node000005"><a xlink:href="group__list__api.html#gab1766e25461b90b75aa3360245547452" target="_top" xlink:title="add a node in between two nodes.">
<polygon fill="white" stroke="#666666" points="361,-19 306,-19 306,0 361,0 361,-19"/>
<text text-anchor="middle" x="333.5" y="-7" font-family="Helvetica,sans-Serif" font-size="10.00">list_add</text>
</a>
</g>
</g>
<!-- Node4&#45;&gt;Node5 -->
<g id="edge4_Node000004_Node000005" class="edge">
<title>Node4&#45;&gt;Node5</title>
<g id="a_edge4_Node000004_Node000005"><a xlink:title=" ">
<path fill="none" stroke="#63b8ff" d="M243.27,-9.5C259.77,-9.5 279.13,-9.5 295.59,-9.5"/>
<polygon fill="#63b8ff" stroke="#63b8ff" points="295.92,-13 305.92,-9.5 295.92,-6 295.92,-13"/>
</a>
</g>
</g>
<!-- Node6&#45;&gt;Node2 -->
<g id="edge6_Node000006_Node000002" class="edge">
<title>Node6&#45;&gt;Node2</title>
<g id="a_edge6_Node000006_Node000002"><a xlink:title=" ">
<path fill="none" stroke="#63b8ff" d="M238.58,-95.03C258.31,-100.8 283.3,-108.11 302.54,-113.74"/>
<polygon fill="#63b8ff" stroke="#63b8ff" points="301.71,-117.14 312.29,-116.59 303.68,-110.42 301.71,-117.14"/>
</a>
</g>
</g>
<!-- Node6&#45;&gt;Node3 -->
<g id="edge7_Node000006_Node000003" class="edge">
<title>Node6&#45;&gt;Node3</title>
<g id="a_edge7_Node000006_Node000003"><a xlink:title=" ">
<path fill="none" stroke="#63b8ff" d="M237.92,-75.91C256.04,-70.47 278.74,-63.65 297.36,-58.05"/>
<polygon fill="#63b8ff" stroke="#63b8ff" points="298.39,-61.4 306.96,-55.17 296.37,-54.7 298.39,-61.4"/>
</a>
</g>
</g>
<!-- Node7 -->
<g id="Node000007" class="node">
<title>Node7</title>
<g id="a_Node000007"><a xlink:href="ringbuffer_8c.html#a8752f9288f9de94cc6f1a454b38c289d" target="_top" xlink:title=" ">
<polygon fill="white" stroke="#666666" points="376,-95 291,-95 291,-76 376,-76 376,-95"/>
<text text-anchor="middle" x="333.5" y="-83" font-family="Helvetica,sans-Serif" font-size="10.00">ringbuffer_init</text>
</a>
</g>
</g>
<!-- Node6&#45;&gt;Node7 -->
<g id="edge8_Node000006_Node000007" class="edge">
<title>Node6&#45;&gt;Node7</title>
<g id="a_edge8_Node000006_Node000007"><a xlink:title=" ">
<path fill="none" stroke="#63b8ff" d="M255.27,-85.5C263.65,-85.5 272.38,-85.5 280.83,-85.5"/>
<polygon fill="#63b8ff" stroke="#63b8ff" points="280.95,-89 290.95,-85.5 280.95,-82 280.95,-89"/>
</a>
</g>
</g>
</g>
</svg>
</svg>

<style type='text/css'>
<![CDATA[
[data-mouse-over-selected='false'] { opacity: 0.7; }
[data-mouse-over-selected='true']  { opacity: 1.0; }
]]>
</style>
<script type="application/ecmascript"><![CDATA[
document.addEventListener('DOMContentLoaded', (event) => {
  highlightEdges();
  highlightAdjacentNodes();
});
]]></script>
</svg>
