<?xml version="1.0" encoding="UTF-8" standalone="no"?>
<!DOCTYPE svg PUBLIC "-//W3C//DTD SVG 1.1//EN"
 "http://www.w3.org/Graphics/SVG/1.1/DTD/svg11.dtd">
<!-- Generated by graphviz version 2.43.0 (0)
 -->
<!-- Title: mqueue.h Pages: 1 -->
<svg width="1395pt" height="192pt"
 viewBox="0.00 0.00 1394.50 192.00" xmlns="http://www.w3.org/2000/svg" xmlns:xlink="http://www.w3.org/1999/xlink">
<g id="graph0" class="graph" transform="scale(1 1) rotate(0) translate(4 188)">
<title>mqueue.h</title>
<!-- Node1 -->
<g id="Node000001" class="node">
<title>Node1</title>
<g id="a_Node000001"><a xlink:title=" ">
<polygon fill="#999999" stroke="#666666" points="778,-184 713,-184 713,-165 778,-165 778,-184"/>
<text text-anchor="middle" x="745.5" y="-172" font-family="Helvetica,sans-Serif" font-size="10.00">mqueue.h</text>
</a>
</g>
</g>
<!-- Node2 -->
<g id="Node000002" class="node">
<title>Node2</title>
<g id="a_Node000002"><a xlink:href="def__std_8h.html" target="_top" xlink:title=" ">
<polygon fill="white" stroke="#666666" points="315.5,-74 253.5,-74 253.5,-55 315.5,-55 315.5,-74"/>
<text text-anchor="middle" x="284.5" y="-62" font-family="Helvetica,sans-Serif" font-size="10.00">def_std.h</text>
</a>
</g>
</g>
<!-- Node1&#45;&gt;Node2 -->
<g id="edge1_Node000001_Node000002" class="edge">
<title>Node1&#45;&gt;Node2</title>
<g id="a_edge1_Node000001_Node000002"><a xlink:title=" ">
<path fill="none" stroke="#63b8ff" d="M712.93,-172.29C616.12,-168.4 334.95,-154.96 303.5,-129 290.48,-118.25 286.14,-98.95 284.81,-84.44"/>
<polygon fill="#63b8ff" stroke="#63b8ff" points="288.29,-83.9 284.28,-74.09 281.3,-84.26 288.29,-83.9"/>
</a>
</g>
</g>
<!-- Node10 -->
<g id="Node000010" class="node">
<title>Node10</title>
<g id="a_Node000010"><a xlink:href="def__compiler_8h.html" target="_top" xlink:title=" ">
<polygon fill="white" stroke="#666666" points="903,-129 814,-129 814,-110 903,-110 903,-129"/>
<text text-anchor="middle" x="858.5" y="-117" font-family="Helvetica,sans-Serif" font-size="10.00">def_compiler.h</text>
</a>
</g>
</g>
<!-- Node1&#45;&gt;Node10 -->
<g id="edge9_Node000001_Node000010" class="edge">
<title>Node1&#45;&gt;Node10</title>
<g id="a_edge9_Node000001_Node000010"><a xlink:title=" ">
<path fill="none" stroke="#63b8ff" d="M763.66,-164.98C781.75,-156.5 809.78,-143.35 830.69,-133.54"/>
<polygon fill="#63b8ff" stroke="#63b8ff" points="832.45,-136.59 840.01,-129.17 829.47,-130.25 832.45,-136.59"/>
</a>
</g>
</g>
<!-- Node11 -->
<g id="Node000011" class="node">
<title>Node11</title>
<g id="a_Node000011"><a xlink:href="list_8h.html" target="_top" xlink:title="All linked list operation functions definitions and macros.">
<polygon fill="white" stroke="#666666" points="376,-129 313,-129 313,-110 376,-110 376,-129"/>
<text text-anchor="middle" x="344.5" y="-117" font-family="Helvetica,sans-Serif" font-size="10.00">mm/list.h</text>
</a>
</g>
</g>
<!-- Node1&#45;&gt;Node11 -->
<g id="edge10_Node000001_Node000011" class="edge">
<title>Node1&#45;&gt;Node11</title>
<g id="a_edge10_Node000001_Node000011"><a xlink:title=" ">
<path fill="none" stroke="#63b8ff" d="M712.51,-170.4C650.52,-164.37 512.25,-149.93 386.51,-129.22"/>
<polygon fill="#63b8ff" stroke="#63b8ff" points="386.77,-125.71 376.33,-127.52 385.62,-132.62 386.77,-125.71"/>
</a>
</g>
</g>
<!-- Node12 -->
<g id="Node000012" class="node">
<title>Node12</title>
<g id="a_Node000012"><a xlink:href="def__env__macros_8h.html" target="_top" xlink:title=" ">
<polygon fill="white" stroke="#666666" points="1026.5,-129 920.5,-129 920.5,-110 1026.5,-110 1026.5,-129"/>
<text text-anchor="middle" x="973.5" y="-117" font-family="Helvetica,sans-Serif" font-size="10.00">def_env_macros.h</text>
</a>
</g>
</g>
<!-- Node1&#45;&gt;Node12 -->
<g id="edge12_Node000001_Node000012" class="edge">
<title>Node1&#45;&gt;Node12</title>
<g id="a_edge12_Node000001_Node000012"><a xlink:title=" ">
<path fill="none" stroke="#63b8ff" d="M778.17,-165.91C817.12,-156.85 882.51,-141.65 926.8,-131.36"/>
<polygon fill="#63b8ff" stroke="#63b8ff" points="927.79,-134.72 936.74,-129.05 926.21,-127.9 927.79,-134.72"/>
</a>
</g>
</g>
<!-- Node13 -->
<g id="Node000013" class="node">
<title>Node13</title>
<g id="a_Node000013"><a xlink:href="def__hw_8h.html" target="_top" xlink:title=" ">
<polygon fill="white" stroke="#666666" points="1104.5,-129 1044.5,-129 1044.5,-110 1104.5,-110 1104.5,-129"/>
<text text-anchor="middle" x="1074.5" y="-117" font-family="Helvetica,sans-Serif" font-size="10.00">def_hw.h</text>
</a>
</g>
</g>
<!-- Node1&#45;&gt;Node13 -->
<g id="edge13_Node000001_Node000013" class="edge">
<title>Node1&#45;&gt;Node13</title>
<g id="a_edge13_Node000001_Node000013"><a xlink:title=" ">
<path fill="none" stroke="#63b8ff" d="M778.23,-169.16C830.33,-162.09 935.53,-147.23 1034.45,-129.1"/>
<polygon fill="#63b8ff" stroke="#63b8ff" points="1035.11,-132.54 1044.3,-127.28 1033.83,-125.65 1035.11,-132.54"/>
</a>
</g>
</g>
<!-- Node14 -->
<g id="Node000014" class="node">
<title>Node14</title>
<g id="a_Node000014"><a xlink:href="conf__os_8h.html" target="_top" xlink:title=" ">
<polygon fill="white" stroke="#666666" points="1285,-129 1222,-129 1222,-110 1285,-110 1285,-129"/>
<text text-anchor="middle" x="1253.5" y="-117" font-family="Helvetica,sans-Serif" font-size="10.00">conf_os.h</text>
</a>
</g>
</g>
<!-- Node1&#45;&gt;Node14 -->
<g id="edge14_Node000001_Node000014" class="edge">
<title>Node1&#45;&gt;Node14</title>
<g id="a_edge14_Node000001_Node000014"><a xlink:title=" ">
<path fill="none" stroke="#63b8ff" d="M778.05,-170.1C866.79,-160.85 1112.9,-135.17 1211.68,-124.86"/>
<polygon fill="#63b8ff" stroke="#63b8ff" points="1212.29,-128.32 1221.87,-123.8 1211.56,-121.36 1212.29,-128.32"/>
</a>
</g>
</g>
<!-- Node16 -->
<g id="Node000016" class="node">
<title>Node16</title>
<g id="a_Node000016"><a xlink:href="ipc_2ringbuffer_8h.html" target="_top" xlink:title=" ">
<polygon fill="white" stroke="#666666" points="483,-129 394,-129 394,-110 483,-110 483,-129"/>
<text text-anchor="middle" x="438.5" y="-117" font-family="Helvetica,sans-Serif" font-size="10.00">ipc/ringbuffer.h</text>
</a>
</g>
</g>
<!-- Node1&#45;&gt;Node16 -->
<g id="edge16_Node000001_Node000016" class="edge">
<title>Node1&#45;&gt;Node16</title>
<g id="a_edge16_Node000001_Node000016"><a xlink:title=" ">
<path fill="none" stroke="#63b8ff" d="M712.94,-167.88C660.5,-158.83 556.77,-140.92 492.94,-129.9"/>
<polygon fill="#63b8ff" stroke="#63b8ff" points="493.5,-126.44 483.05,-128.19 492.31,-133.34 493.5,-126.44"/>
</a>
</g>
</g>
<!-- Node18 -->
<g id="Node000018" class="node">
<title>Node18</title>
<g id="a_Node000018"><a xlink:href="os_2kernel__mem_8h.html" target="_top" xlink:title=" ">
<polygon fill="white" stroke="#666666" points="757,-129 656,-129 656,-110 757,-110 757,-129"/>
<text text-anchor="middle" x="706.5" y="-117" font-family="Helvetica,sans-Serif" font-size="10.00">os/kernel_mem.h</text>
</a>
</g>
</g>
<!-- Node1&#45;&gt;Node18 -->
<g id="edge19_Node000001_Node000018" class="edge">
<title>Node1&#45;&gt;Node18</title>
<g id="a_edge19_Node000001_Node000018"><a xlink:title=" ">
<path fill="none" stroke="#63b8ff" d="M739.06,-164.75C733.61,-157.34 725.64,-146.5 718.94,-137.41"/>
<polygon fill="#63b8ff" stroke="#63b8ff" points="721.57,-135.07 712.82,-129.09 715.93,-139.22 721.57,-135.07"/>
</a>
</g>
</g>
<!-- Node21 -->
<g id="Node000021" class="node">
<title>Node21</title>
<g id="a_Node000021"><a xlink:title=" ">
<polygon fill="#e0e0e0" stroke="#999999" points="517.5,-74 445.5,-74 445.5,-55 517.5,-55 517.5,-74"/>
<text text-anchor="middle" x="481.5" y="-62" font-family="Helvetica,sans-Serif" font-size="10.00">FreeRTOS.h</text>
</a>
</g>
</g>
<!-- Node1&#45;&gt;Node21 -->
<g id="edge31_Node000001_Node000021" class="edge">
<title>Node1&#45;&gt;Node21</title>
<g id="a_edge31_Node000001_Node000021"><a xlink:title=" ">
<path fill="none" stroke="#63b8ff" d="M724.34,-164.84C677.69,-145.76 565.86,-100.01 511.79,-77.89"/>
<polygon fill="#63b8ff" stroke="#63b8ff" points="512.97,-74.59 502.39,-74.05 510.32,-81.07 512.97,-74.59"/>
</a>
</g>
</g>
<!-- Node23 -->
<g id="Node000023" class="node">
<title>Node23</title>
<g id="a_Node000023"><a xlink:title=" ">
<polygon fill="#e0e0e0" stroke="#999999" points="1300.5,-74 1244.5,-74 1244.5,-55 1300.5,-55 1300.5,-74"/>
<text text-anchor="middle" x="1272.5" y="-62" font-family="Helvetica,sans-Serif" font-size="10.00">queue.h</text>
</a>
</g>
</g>
<!-- Node1&#45;&gt;Node23 -->
<g id="edge32_Node000001_Node000023" class="edge">
<title>Node1&#45;&gt;Node23</title>
<g id="a_edge32_Node000001_Node000023"><a xlink:title=" ">
<path fill="none" stroke="#63b8ff" d="M750.68,-164.6C759.59,-150.22 779.33,-122.24 804.5,-110 888.23,-69.27 1125.09,-87.56 1234.15,-73.84"/>
<polygon fill="#63b8ff" stroke="#63b8ff" points="1234.88,-77.28 1244.3,-72.41 1233.91,-70.34 1234.88,-77.28"/>
</a>
</g>
</g>
<!-- Node3 -->
<g id="Node000003" class="node">
<title>Node3</title>
<g id="a_Node000003"><a xlink:title=" ">
<polygon fill="#e0e0e0" stroke="#999999" points="276,-19 223,-19 223,0 276,0 276,-19"/>
<text text-anchor="middle" x="249.5" y="-7" font-family="Helvetica,sans-Serif" font-size="10.00">stdlib.h</text>
</a>
</g>
</g>
<!-- Node2&#45;&gt;Node3 -->
<g id="edge2_Node000002_Node000003" class="edge">
<title>Node2&#45;&gt;Node3</title>
<g id="a_edge2_Node000002_Node000003"><a xlink:title=" ">
<path fill="none" stroke="#63b8ff" d="M278.72,-54.75C273.88,-47.42 266.82,-36.73 260.86,-27.7"/>
<polygon fill="#63b8ff" stroke="#63b8ff" points="263.6,-25.5 255.17,-19.09 257.76,-29.36 263.6,-25.5"/>
</a>
</g>
</g>
<!-- Node4 -->
<g id="Node000004" class="node">
<title>Node4</title>
<g id="a_Node000004"><a xlink:title=" ">
<polygon fill="#e0e0e0" stroke="#999999" points="345,-19 294,-19 294,0 345,0 345,-19"/>
<text text-anchor="middle" x="319.5" y="-7" font-family="Helvetica,sans-Serif" font-size="10.00">errno.h</text>
</a>
</g>
</g>
<!-- Node2&#45;&gt;Node4 -->
<g id="edge3_Node000002_Node000004" class="edge">
<title>Node2&#45;&gt;Node4</title>
<g id="a_edge3_Node000002_Node000004"><a xlink:title=" ">
<path fill="none" stroke="#63b8ff" d="M290.28,-54.75C295.12,-47.42 302.18,-36.73 308.14,-27.7"/>
<polygon fill="#63b8ff" stroke="#63b8ff" points="311.24,-29.36 313.83,-19.09 305.4,-25.5 311.24,-29.36"/>
</a>
</g>
</g>
<!-- Node5 -->
<g id="Node000005" class="node">
<title>Node5</title>
<g id="a_Node000005"><a xlink:title=" ">
<polygon fill="#e0e0e0" stroke="#999999" points="413.5,-19 363.5,-19 363.5,0 413.5,0 413.5,-19"/>
<text text-anchor="middle" x="388.5" y="-7" font-family="Helvetica,sans-Serif" font-size="10.00">stdio.h</text>
</a>
</g>
</g>
<!-- Node2&#45;&gt;Node5 -->
<g id="edge4_Node000002_Node000005" class="edge">
<title>Node2&#45;&gt;Node5</title>
<g id="a_edge4_Node000002_Node000005"><a xlink:title=" ">
<path fill="none" stroke="#63b8ff" d="M301.21,-54.98C317.71,-46.57 343.2,-33.59 362.38,-23.81"/>
<polygon fill="#63b8ff" stroke="#63b8ff" points="364.17,-26.83 371.49,-19.17 360.99,-20.59 364.17,-26.83"/>
</a>
</g>
</g>
<!-- Node6 -->
<g id="Node000006" class="node">
<title>Node6</title>
<g id="a_Node000006"><a xlink:title=" ">
<polygon fill="#e0e0e0" stroke="#999999" points="55,-19 0,-19 0,0 55,0 55,-19"/>
<text text-anchor="middle" x="27.5" y="-7" font-family="Helvetica,sans-Serif" font-size="10.00">signal.h</text>
</a>
</g>
</g>
<!-- Node2&#45;&gt;Node6 -->
<g id="edge5_Node000002_Node000006" class="edge">
<title>Node2&#45;&gt;Node6</title>
<g id="a_edge5_Node000002_Node000006"><a xlink:title=" ">
<path fill="none" stroke="#63b8ff" d="M253.48,-57.49C212.66,-49.53 138.46,-34.85 65.22,-19.11"/>
<polygon fill="#63b8ff" stroke="#63b8ff" points="65.88,-15.67 55.36,-16.98 64.4,-22.51 65.88,-15.67"/>
</a>
</g>
</g>
<!-- Node7 -->
<g id="Node000007" class="node">
<title>Node7</title>
<g id="a_Node000007"><a xlink:title=" ">
<polygon fill="#e0e0e0" stroke="#999999" points="121.5,-19 73.5,-19 73.5,0 121.5,0 121.5,-19"/>
<text text-anchor="middle" x="97.5" y="-7" font-family="Helvetica,sans-Serif" font-size="10.00">time.h</text>
</a>
</g>
</g>
<!-- Node2&#45;&gt;Node7 -->
<g id="edge6_Node000002_Node000007" class="edge">
<title>Node2&#45;&gt;Node7</title>
<g id="a_edge6_Node000002_Node000007"><a xlink:title=" ">
<path fill="none" stroke="#63b8ff" d="M254.46,-54.98C220.81,-45.45 166.42,-30.03 131.32,-20.09"/>
<polygon fill="#63b8ff" stroke="#63b8ff" points="132.1,-16.67 121.53,-17.31 130.19,-23.4 132.1,-16.67"/>
</a>
</g>
</g>
<!-- Node8 -->
<g id="Node000008" class="node">
<title>Node8</title>
<g id="a_Node000008"><a xlink:title=" ">
<polygon fill="#e0e0e0" stroke="#999999" points="485,-19 432,-19 432,0 485,0 485,-19"/>
<text text-anchor="middle" x="458.5" y="-7" font-family="Helvetica,sans-Serif" font-size="10.00">stdint.h</text>
</a>
</g>
</g>
<!-- Node2&#45;&gt;Node8 -->
<g id="edge7_Node000002_Node000008" class="edge">
<title>Node2&#45;&gt;Node8</title>
<g id="a_edge7_Node000002_Node000008"><a xlink:title=" ">
<path fill="none" stroke="#63b8ff" d="M312.46,-54.98C342.23,-45.92 389.47,-31.53 422.13,-21.58"/>
<polygon fill="#63b8ff" stroke="#63b8ff" points="423.21,-24.91 431.76,-18.65 421.17,-18.21 423.21,-24.91"/>
</a>
</g>
</g>
<!-- Node9 -->
<g id="Node000009" class="node">
<title>Node9</title>
<g id="a_Node000009"><a xlink:title=" ">
<polygon fill="#e0e0e0" stroke="#999999" points="205,-19 140,-19 140,0 205,0 205,-19"/>
<text text-anchor="middle" x="172.5" y="-7" font-family="Helvetica,sans-Serif" font-size="10.00">inttypes.h</text>
</a>
</g>
</g>
<!-- Node2&#45;&gt;Node9 -->
<g id="edge8_Node000002_Node000009" class="edge">
<title>Node2&#45;&gt;Node9</title>
<g id="a_edge8_Node000002_Node000009"><a xlink:title=" ">
<path fill="none" stroke="#63b8ff" d="M266.51,-54.98C248.57,-46.5 220.78,-33.35 200.07,-23.54"/>
<polygon fill="#63b8ff" stroke="#63b8ff" points="201.36,-20.28 190.82,-19.17 198.36,-26.61 201.36,-20.28"/>
</a>
</g>
</g>
<!-- Node11&#45;&gt;Node2 -->
<g id="edge11_Node000011_Node000002" class="edge">
<title>Node11&#45;&gt;Node2</title>
<g id="a_edge11_Node000011_Node000002"><a xlink:title=" ">
<path fill="none" stroke="#63b8ff" d="M334.86,-109.98C325.99,-102.15 312.63,-90.34 301.89,-80.86"/>
<polygon fill="#63b8ff" stroke="#63b8ff" points="304.13,-78.17 294.32,-74.17 299.49,-83.41 304.13,-78.17"/>
</a>
</g>
</g>
<!-- Node15 -->
<g id="Node000015" class="node">
<title>Node15</title>
<g id="a_Node000015"><a xlink:href="autoconf_8h.html" target="_top" xlink:title=" ">
<polygon fill="white" stroke="#666666" points="1386.5,-74 1318.5,-74 1318.5,-55 1386.5,-55 1386.5,-74"/>
<text text-anchor="middle" x="1352.5" y="-62" font-family="Helvetica,sans-Serif" font-size="10.00">autoconf.h</text>
</a>
</g>
</g>
<!-- Node14&#45;&gt;Node15 -->
<g id="edge15_Node000014_Node000015" class="edge">
<title>Node14&#45;&gt;Node15</title>
<g id="a_edge15_Node000014_Node000015"><a xlink:title=" ">
<path fill="none" stroke="#63b8ff" d="M1269.41,-109.98C1285.05,-101.61 1309.16,-88.7 1327.38,-78.95"/>
<polygon fill="#63b8ff" stroke="#63b8ff" points="1329.14,-81.98 1336.3,-74.17 1325.84,-75.8 1329.14,-81.98"/>
</a>
</g>
</g>
<!-- Node16&#45;&gt;Node8 -->
<g id="edge17_Node000016_Node000008" class="edge">
<title>Node16&#45;&gt;Node8</title>
<g id="a_edge17_Node000016_Node000008"><a xlink:title=" ">
<path fill="none" stroke="#63b8ff" d="M412.71,-109.97C384.99,-99.32 346.86,-79.49 362.5,-55 369.54,-43.98 398.44,-31.45 422.72,-22.5"/>
<polygon fill="#63b8ff" stroke="#63b8ff" points="424.19,-25.69 432.41,-19.02 421.82,-19.11 424.19,-25.69"/>
</a>
</g>
</g>
<!-- Node17 -->
<g id="Node000017" class="node">
<title>Node17</title>
<g id="a_Node000017"><a xlink:title=" ">
<polygon fill="#e0e0e0" stroke="#999999" points="427.5,-74 371.5,-74 371.5,-55 427.5,-55 427.5,-74"/>
<text text-anchor="middle" x="399.5" y="-62" font-family="Helvetica,sans-Serif" font-size="10.00">stddef.h</text>
</a>
</g>
</g>
<!-- Node16&#45;&gt;Node17 -->
<g id="edge18_Node000016_Node000017" class="edge">
<title>Node16&#45;&gt;Node17</title>
<g id="a_edge18_Node000016_Node000017"><a xlink:title=" ">
<path fill="none" stroke="#63b8ff" d="M432.06,-109.75C426.61,-102.34 418.64,-91.5 411.94,-82.41"/>
<polygon fill="#63b8ff" stroke="#63b8ff" points="414.57,-80.07 405.82,-74.09 408.93,-84.22 414.57,-80.07"/>
</a>
</g>
</g>
<!-- Node18&#45;&gt;Node2 -->
<g id="edge20_Node000018_Node000002" class="edge">
<title>Node18&#45;&gt;Node2</title>
<g id="a_edge20_Node000018_Node000002"><a xlink:title=" ">
<path fill="none" stroke="#63b8ff" d="M655.6,-112.11C571.12,-101.5 403.57,-80.45 325.87,-70.7"/>
<polygon fill="#63b8ff" stroke="#63b8ff" points="325.87,-67.17 315.52,-69.4 325,-74.11 325.87,-67.17"/>
</a>
</g>
</g>
<!-- Node19 -->
<g id="Node000019" class="node">
<title>Node19</title>
<g id="a_Node000019"><a xlink:href="def__err_8h.html" target="_top" xlink:title=" ">
<polygon fill="white" stroke="#666666" points="1114,-74 1055,-74 1055,-55 1114,-55 1114,-74"/>
<text text-anchor="middle" x="1084.5" y="-62" font-family="Helvetica,sans-Serif" font-size="10.00">def_err.h</text>
</a>
</g>
</g>
<!-- Node18&#45;&gt;Node19 -->
<g id="edge21_Node000018_Node000019" class="edge">
<title>Node18&#45;&gt;Node19</title>
<g id="a_edge21_Node000018_Node000019"><a xlink:title=" ">
<path fill="none" stroke="#63b8ff" d="M757.24,-111.87C840.92,-100.93 1002.27,-79.83 1044.62,-73.92"/>
<polygon fill="#63b8ff" stroke="#63b8ff" points="1045.3,-77.35 1054.68,-72.44 1044.28,-70.43 1045.3,-77.35"/>
</a>
</g>
</g>
<!-- Node20 -->
<g id="Node000020" class="node">
<title>Node20</title>
<g id="a_Node000020"><a xlink:href="def__attributes_8h.html" target="_top" xlink:title=" ">
<polygon fill="white" stroke="#666666" points="1226.5,-74 1132.5,-74 1132.5,-55 1226.5,-55 1226.5,-74"/>
<text text-anchor="middle" x="1179.5" y="-62" font-family="Helvetica,sans-Serif" font-size="10.00">def_attributes.h</text>
</a>
</g>
</g>
<!-- Node18&#45;&gt;Node20 -->
<g id="edge22_Node000018_Node000020" class="edge">
<title>Node18&#45;&gt;Node20</title>
<g id="a_edge22_Node000018_Node000020"><a xlink:title=" ">
<path fill="none" stroke="#63b8ff" d="M757.23,-111.73C762.05,-111.12 766.87,-110.54 771.5,-110 924.5,-92.18 965.81,-93.73 1122.48,-74.07"/>
<polygon fill="#63b8ff" stroke="#63b8ff" points="1122.99,-77.53 1132.47,-72.81 1122.11,-70.59 1122.99,-77.53"/>
</a>
</g>
</g>
<!-- Node18&#45;&gt;Node21 -->
<g id="edge23_Node000018_Node000021" class="edge">
<title>Node18&#45;&gt;Node21</title>
<g id="a_edge23_Node000018_Node000021"><a xlink:title=" ">
<path fill="none" stroke="#63b8ff" d="M670.35,-109.98C631.48,-100.83 569.58,-86.25 527.32,-76.29"/>
<polygon fill="#63b8ff" stroke="#63b8ff" points="528.1,-72.88 517.56,-73.99 526.49,-79.69 528.1,-72.88"/>
</a>
</g>
</g>
<!-- Node22 -->
<g id="Node000022" class="node">
<title>Node22</title>
<g id="a_Node000022"><a xlink:title=" ">
<polygon fill="#e0e0e0" stroke="#999999" points="595,-74 536,-74 536,-55 595,-55 595,-74"/>
<text text-anchor="middle" x="565.5" y="-62" font-family="Helvetica,sans-Serif" font-size="10.00">atomic.h</text>
</a>
</g>
</g>
<!-- Node18&#45;&gt;Node22 -->
<g id="edge24_Node000018_Node000022" class="edge">
<title>Node18&#45;&gt;Node22</title>
<g id="a_edge24_Node000018_Node000022"><a xlink:title=" ">
<path fill="none" stroke="#63b8ff" d="M683.85,-109.98C660.65,-101.27 624.38,-87.63 598.1,-77.75"/>
<polygon fill="#63b8ff" stroke="#63b8ff" points="599.16,-74.41 588.57,-74.17 596.7,-80.97 599.16,-74.41"/>
</a>
</g>
</g>
<!-- Node18&#45;&gt;Node23 -->
<g id="edge25_Node000018_Node000023" class="edge">
<title>Node18&#45;&gt;Node23</title>
<g id="a_edge25_Node000018_Node000023"><a xlink:title=" ">
<path fill="none" stroke="#63b8ff" d="M757.21,-111.61C762.04,-111.03 766.86,-110.48 771.5,-110 973.92,-88.93 1029.26,-104.71 1234.11,-73.98"/>
<polygon fill="#63b8ff" stroke="#63b8ff" points="1234.94,-77.39 1244.3,-72.43 1233.89,-70.47 1234.94,-77.39"/>
</a>
</g>
</g>
<!-- Node24 -->
<g id="Node000024" class="node">
<title>Node24</title>
<g id="a_Node000024"><a xlink:title=" ">
<polygon fill="#e0e0e0" stroke="#999999" points="660,-74 613,-74 613,-55 660,-55 660,-74"/>
<text text-anchor="middle" x="636.5" y="-62" font-family="Helvetica,sans-Serif" font-size="10.00">task.h</text>
</a>
</g>
</g>
<!-- Node18&#45;&gt;Node24 -->
<g id="edge26_Node000018_Node000024" class="edge">
<title>Node18&#45;&gt;Node24</title>
<g id="a_edge26_Node000018_Node000024"><a xlink:title=" ">
<path fill="none" stroke="#63b8ff" d="M695.25,-109.98C684.7,-102 668.7,-89.88 656.06,-80.31"/>
<polygon fill="#63b8ff" stroke="#63b8ff" points="658.04,-77.42 647.95,-74.17 653.81,-83 658.04,-77.42"/>
</a>
</g>
</g>
<!-- Node25 -->
<g id="Node000025" class="node">
<title>Node25</title>
<g id="a_Node000025"><a xlink:title=" ">
<polygon fill="#e0e0e0" stroke="#999999" points="735,-74 678,-74 678,-55 735,-55 735,-74"/>
<text text-anchor="middle" x="706.5" y="-62" font-family="Helvetica,sans-Serif" font-size="10.00">timers.h</text>
</a>
</g>
</g>
<!-- Node18&#45;&gt;Node25 -->
<g id="edge27_Node000018_Node000025" class="edge">
<title>Node18&#45;&gt;Node25</title>
<g id="a_edge27_Node000018_Node000025"><a xlink:title=" ">
<path fill="none" stroke="#63b8ff" d="M706.5,-109.75C706.5,-102.8 706.5,-92.85 706.5,-84.13"/>
<polygon fill="#63b8ff" stroke="#63b8ff" points="710,-84.09 706.5,-74.09 703,-84.09 710,-84.09"/>
</a>
</g>
</g>
<!-- Node26 -->
<g id="Node000026" class="node">
<title>Node26</title>
<g id="a_Node000026"><a xlink:title=" ">
<polygon fill="#e0e0e0" stroke="#999999" points="815.5,-74 753.5,-74 753.5,-55 815.5,-55 815.5,-74"/>
<text text-anchor="middle" x="784.5" y="-62" font-family="Helvetica,sans-Serif" font-size="10.00">semphr.h</text>
</a>
</g>
</g>
<!-- Node18&#45;&gt;Node26 -->
<g id="edge28_Node000018_Node000026" class="edge">
<title>Node18&#45;&gt;Node26</title>
<g id="a_edge28_Node000018_Node000026"><a xlink:title=" ">
<path fill="none" stroke="#63b8ff" d="M719.03,-109.98C730.9,-101.92 748.96,-89.65 763.11,-80.03"/>
<polygon fill="#63b8ff" stroke="#63b8ff" points="765.44,-82.69 771.74,-74.17 761.5,-76.9 765.44,-82.69"/>
</a>
</g>
</g>
<!-- Node27 -->
<g id="Node000027" class="node">
<title>Node27</title>
<g id="a_Node000027"><a xlink:title=" ">
<polygon fill="#e0e0e0" stroke="#999999" points="925.5,-74 833.5,-74 833.5,-55 925.5,-55 925.5,-74"/>
<text text-anchor="middle" x="879.5" y="-62" font-family="Helvetica,sans-Serif" font-size="10.00">event_groups.h</text>
</a>
</g>
</g>
<!-- Node18&#45;&gt;Node27 -->
<g id="edge29_Node000018_Node000027" class="edge">
<title>Node18&#45;&gt;Node27</title>
<g id="a_edge29_Node000018_Node000027"><a xlink:title=" ">
<path fill="none" stroke="#63b8ff" d="M734.3,-109.98C763.47,-101.05 809.5,-86.94 841.9,-77.02"/>
<polygon fill="#63b8ff" stroke="#63b8ff" points="842.95,-80.36 851.49,-74.08 840.9,-73.66 842.95,-80.36"/>
</a>
</g>
</g>
<!-- Node28 -->
<g id="Node000028" class="node">
<title>Node28</title>
<g id="a_Node000028"><a xlink:title=" ">
<polygon fill="#e0e0e0" stroke="#999999" points="1037,-74 944,-74 944,-55 1037,-55 1037,-74"/>
<text text-anchor="middle" x="990.5" y="-62" font-family="Helvetica,sans-Serif" font-size="10.00">stream_buffer.h</text>
</a>
</g>
</g>
<!-- Node18&#45;&gt;Node28 -->
<g id="edge30_Node000018_Node000028" class="edge">
<title>Node18&#45;&gt;Node28</title>
<g id="a_edge30_Node000018_Node000028"><a xlink:title=" ">
<path fill="none" stroke="#63b8ff" d="M752.13,-109.98C801.77,-100.72 881.16,-85.9 934.53,-75.94"/>
<polygon fill="#63b8ff" stroke="#63b8ff" points="935.32,-79.36 944.51,-74.08 934.04,-72.48 935.32,-79.36"/>
</a>
</g>
</g>
</g>
</svg>
