<?xml version="1.0" encoding="UTF-8" standalone="no"?>
<!DOCTYPE svg PUBLIC "-//W3C//DTD SVG 1.1//EN"
 "http://www.w3.org/Graphics/SVG/1.1/DTD/svg11.dtd">
<!-- Generated by graphviz version 2.43.0 (0)
 -->
<!-- Title: ipc_mqueue_get_handle Pages: 1 -->
<!--zoomable 241 -->

<svg id="main" version="1.1" xmlns="http://www.w3.org/2000/svg" xmlns:xlink="http://www.w3.org/1999/xlink" xml:space="preserve" onload="init(evt)">
<style type="text/css"><![CDATA[
.node, .edge {opacity: 0.7;}
.node.selected, .edge.selected {opacity: 1;}
.edge:hover path { stroke: red; }
.edge:hover polygon { stroke: red; fill: red; }
]]></style>

<defs>
  <circle id="rim" cx="0" cy="0" r="7"/>
  <circle id="rim2" cx="0" cy="0" r="3.5"/>
  <g id="zoomPlus">
    <use xlink:href="#rim" fill="#404040"><set attributeName="fill" to="#808080" begin="zoomplus.mouseover" end="zoomplus.mouseout"/></use>
    <path d="M-4,0h8M0,-4v8" fill="none" stroke="white" stroke-width="1.5" pointer-events="none"/>
  </g>
  <g id="zoomMin">
    <use xlink:href="#rim" fill="#404040"><set attributeName="fill" to="#808080" begin="zoomminus.mouseover" end="zoomminus.mouseout"/></use>
    <path d="M-4,0h8" fill="none" stroke="white" stroke-width="1.5" pointer-events="none"/>
  </g>
  <g id="arrowUp" transform="translate(30 24)">
    <use xlink:href="#rim"/>
    <path pointer-events="none" fill="none" stroke="white" stroke-width="1.5" d="M0,-3.0v7 M-2.5,-0.5L0,-3.0L2.5,-0.5"/>
  </g>
  <g id="arrowRight" transform="rotate(90) translate(36 -43)">
    <use xlink:href="#rim"/>
    <path pointer-events="none" fill="none" stroke="white" stroke-width="1.5" d="M0,-3.0v7 M-2.5,-0.5L0,-3.0L2.5,-0.5"/>
  </g>
  <g id="arrowDown" transform="rotate(180) translate(-30 -48)">
    <use xlink:href="#rim"/>
    <path pointer-events="none" fill="none" stroke="white" stroke-width="1.5" d="M0,-3.0v7 M-2.5,-0.5L0,-3.0L2.5,-0.5"/>
  </g>
  <g id="arrowLeft" transform="rotate(270) translate(-36 17)">
    <use xlink:href="#rim"/>
    <path pointer-events="none" fill="none" stroke="white" stroke-width="1.5" d="M0,-3.0v7 M-2.5,-0.5L0,-3.0L2.5,-0.5"/>
  </g>
  <g id="resetDef">
    <use xlink:href="#rim2" fill="#404040"><set attributeName="fill" to="#808080" begin="reset.mouseover" end="reset.mouseout"/></use>
  </g>
</defs>
<script type="application/ecmascript">
var viewWidth = 1038;
var viewHeight = 241;
var sectionId = 'dynsection-2';
</script>
<script type="application/ecmascript" xlink:href="svg.min.js"/>
<svg id="graph" class="graph">
<g id="viewport">
<title>ipc_mqueue_get_handle</title>
<!-- Node1 -->
<g id="Node000001" class="node">
<title>Node1</title>
<g id="a_Node000001"><a xlink:title=" ">
<polygon fill="#999999" stroke="#666666" points="1030,-107.77 895,-107.77 895,-88.77 1030,-88.77 1030,-107.77"/>
<text text-anchor="middle" x="962.5" y="-95.77" font-family="Helvetica,sans-Serif" font-size="10.00">ipc_mqueue_get_handle</text>
</a>
</g>
</g>
<!-- Node2 -->
<g id="Node000002" class="node">
<title>Node2</title>
<g id="a_Node000002"><a xlink:href="os__shell__management_8c.html#a5b7eb0bbbac6bbc8febc3cf4a41932f5" target="_top" xlink:title=" ">
<polygon fill="white" stroke="#666666" points="538,-145.77 450,-145.77 450,-126.77 538,-126.77 538,-145.77"/>
<text text-anchor="middle" x="494" y="-133.77" font-family="Helvetica,sans-Serif" font-size="10.00">_os_shell_task</text>
</a>
</g>
</g>
<!-- Node1&#45;&gt;Node2 -->
<g id="edge1_Node000001_Node000002" class="edge">
<title>Node1&#45;&gt;Node2</title>
<g id="a_edge1_Node000001_Node000002"><a xlink:title=" ">
<path fill="none" stroke="#63b8ff" d="M884.38,-98.35C805.91,-99.34 680.96,-103.44 574,-118.27 559.79,-120.24 544.36,-123.5 530.94,-126.71"/>
<polygon fill="#63b8ff" stroke="#63b8ff" points="884.7,-101.84 894.66,-98.23 884.62,-94.84 884.7,-101.84"/>
</a>
</g>
</g>
<!-- Node6 -->
<g id="Node000006" class="node">
<title>Node6</title>
<g id="a_Node000006"><a xlink:href="os__shell__management_8c.html#a674105c8790acda9c7e4ea9a74cf1aec" target="_top" xlink:title=" ">
<polygon fill="white" stroke="#666666" points="834,-164.77 759,-164.77 759,-145.77 834,-145.77 834,-164.77"/>
<text text-anchor="middle" x="796.5" y="-152.77" font-family="Helvetica,sans-Serif" font-size="10.00">_shell_write</text>
</a>
</g>
</g>
<!-- Node1&#45;&gt;Node6 -->
<g id="edge5_Node000001_Node000006" class="edge">
<title>Node1&#45;&gt;Node6</title>
<g id="a_edge5_Node000001_Node000006"><a xlink:title=" ">
<path fill="none" stroke="#63b8ff" d="M924.3,-111.2C894.13,-121.69 852.27,-136.23 825.04,-145.7"/>
<polygon fill="#63b8ff" stroke="#63b8ff" points="925.75,-114.4 934.05,-107.81 923.46,-107.79 925.75,-114.4"/>
</a>
</g>
</g>
<!-- Node9 -->
<g id="Node000009" class="node">
<title>Node9</title>
<g id="a_Node000009"><a xlink:href="syscalls_8c.html#ad0d112dcb5a30420dc7dabca65489281" target="_top" xlink:title=" ">
<polygon fill="white" stroke="#666666" points="527,-23.77 461,-23.77 461,-4.77 527,-4.77 527,-23.77"/>
<text text-anchor="middle" x="494" y="-11.77" font-family="Helvetica,sans-Serif" font-size="10.00">printk_init</text>
</a>
</g>
</g>
<!-- Node1&#45;&gt;Node9 -->
<g id="edge10_Node000001_Node000009" class="edge">
<title>Node1&#45;&gt;Node9</title>
<g id="a_edge10_Node000001_Node000009"><a xlink:title=" ">
<path fill="none" stroke="#63b8ff" d="M938.3,-83.24C918.07,-70.72 887.57,-53.22 859,-42.27 739.67,3.45 701.53,3.77 574,-4.27 558.55,-5.24 541.49,-7.28 527.2,-9.26"/>
<polygon fill="#63b8ff" stroke="#63b8ff" points="936.5,-86.24 946.83,-88.6 940.23,-80.31 936.5,-86.24"/>
</a>
</g>
</g>
<!-- Node10 -->
<g id="Node000010" class="node">
<title>Node10</title>
<g id="a_Node000010"><a xlink:href="uart__mgmt_8c.html#aa83680295a6822a437bc349e63451236" target="_top" xlink:title="Read one byte from the UART RX ring buffer.">
<polygon fill="white" stroke="#666666" points="859,-69.77 734,-69.77 734,-50.77 859,-50.77 859,-69.77"/>
<text text-anchor="middle" x="796.5" y="-57.77" font-family="Helvetica,sans-Serif" font-size="10.00">uart_mgmt_read_byte</text>
</a>
</g>
</g>
<!-- Node1&#45;&gt;Node10 -->
<g id="edge12_Node000001_Node000010" class="edge">
<title>Node1&#45;&gt;Node10</title>
<g id="a_edge12_Node000001_Node000010"><a xlink:title=" ">
<path fill="none" stroke="#63b8ff" d="M910.16,-86.37C887.11,-81.03 860.28,-74.82 838.59,-69.79"/>
<polygon fill="#63b8ff" stroke="#63b8ff" points="909.58,-89.83 920.12,-88.68 911.16,-83.01 909.58,-89.83"/>
</a>
</g>
</g>
<!-- Node13 -->
<g id="Node000013" class="node">
<title>Node13</title>
<g id="a_Node000013"><a xlink:href="uart__mgmt_8c.html#af8eff33b840c2e11d5bd889fd97c705a" target="_top" xlink:title=" ">
<polygon fill="white" stroke="#666666" points="850,-230.77 743,-230.77 743,-211.77 850,-211.77 850,-230.77"/>
<text text-anchor="middle" x="796.5" y="-218.77" font-family="Helvetica,sans-Serif" font-size="10.00">uart_mgmt_thread</text>
</a>
</g>
</g>
<!-- Node1&#45;&gt;Node13 -->
<g id="edge15_Node000001_Node000013" class="edge">
<title>Node1&#45;&gt;Node13</title>
<g id="a_edge15_Node000001_Node000013"><a xlink:title=" ">
<path fill="none" stroke="#63b8ff" d="M940.2,-114.24C905.64,-140.16 838.4,-190.6 810.31,-211.66"/>
<polygon fill="#63b8ff" stroke="#63b8ff" points="942.73,-116.72 948.63,-107.92 938.53,-111.12 942.73,-116.72"/>
</a>
</g>
</g>
<!-- Node3 -->
<g id="Node000003" class="node">
<title>Node3</title>
<g id="a_Node000003"><a xlink:href="os__shell__management_8c.html#a8fae79f71d15477bc1251891e977e46e" target="_top" xlink:title="Create and start the OS shell management task.">
<polygon fill="white" stroke="#666666" points="414,-145.77 295,-145.77 295,-126.77 414,-126.77 414,-145.77"/>
<text text-anchor="middle" x="354.5" y="-133.77" font-family="Helvetica,sans-Serif" font-size="10.00">os_shell_mgmt_start</text>
</a>
</g>
</g>
<!-- Node2&#45;&gt;Node3 -->
<g id="edge2_Node000002_Node000003" class="edge">
<title>Node2&#45;&gt;Node3</title>
<g id="a_edge2_Node000002_Node000003"><a xlink:title=" ">
<path fill="none" stroke="#63b8ff" d="M439.8,-136.27C431.38,-136.27 422.63,-136.27 414.1,-136.27"/>
<polygon fill="#63b8ff" stroke="#63b8ff" points="439.87,-139.77 449.87,-136.27 439.87,-132.77 439.87,-139.77"/>
</a>
</g>
</g>
<!-- Node4 -->
<g id="Node000004" class="node">
<title>Node4</title>
<g id="a_Node000004"><a xlink:href="kernel__service__core_8c.html#a77b96ca30dab7f5f8e84daae1ed8f183" target="_top" xlink:title=" ">
<polygon fill="white" stroke="#666666" points="259,-145.77 116,-145.77 116,-126.77 259,-126.77 259,-145.77"/>
<text text-anchor="middle" x="187.5" y="-133.77" font-family="Helvetica,sans-Serif" font-size="10.00">os_kernel_thread_register</text>
</a>
</g>
</g>
<!-- Node3&#45;&gt;Node4 -->
<g id="edge3_Node000003_Node000004" class="edge">
<title>Node3&#45;&gt;Node4</title>
<g id="a_edge3_Node000003_Node000004"><a xlink:title=" ">
<path fill="none" stroke="#63b8ff" d="M284.67,-136.27C276.22,-136.27 267.57,-136.27 259.09,-136.27"/>
<polygon fill="#63b8ff" stroke="#63b8ff" points="284.86,-139.77 294.86,-136.27 284.86,-132.77 284.86,-139.77"/>
</a>
</g>
</g>
<!-- Node5 -->
<g id="Node000005" class="node">
<title>Node5</title>
<g id="a_Node000005"><a xlink:href="main_8c.html#ab1eba6ea917a2135efde6edb0de4baef" target="_top" xlink:title=" ">
<polygon fill="white" stroke="#666666" points="80,-98.77 0,-98.77 0,-79.77 80,-79.77 80,-98.77"/>
<text text-anchor="middle" x="40" y="-86.77" font-family="Helvetica,sans-Serif" font-size="10.00">__attribute__</text>
</a>
</g>
</g>
<!-- Node4&#45;&gt;Node5 -->
<g id="edge4_Node000004_Node000005" class="edge">
<title>Node4&#45;&gt;Node5</title>
<g id="a_edge4_Node000004_Node000005"><a xlink:title=" ">
<path fill="none" stroke="#63b8ff" d="M147.48,-123.66C123.33,-115.86 92.82,-106.01 70.65,-98.85"/>
<polygon fill="#63b8ff" stroke="#63b8ff" points="146.46,-127.02 157.06,-126.76 148.62,-120.35 146.46,-127.02"/>
</a>
</g>
</g>
<!-- Node6&#45;&gt;Node2 -->
<g id="edge7_Node000006_Node000002" class="edge">
<title>Node6&#45;&gt;Node2</title>
<g id="a_edge7_Node000006_Node000002"><a xlink:title=" ">
<path fill="none" stroke="#63b8ff" d="M748.86,-158.45C703.9,-160.76 634.05,-162.39 574,-155.27 558.31,-153.41 541.23,-149.54 526.98,-145.78"/>
<polygon fill="#63b8ff" stroke="#63b8ff" points="749.1,-161.94 758.89,-157.9 748.72,-154.95 749.1,-161.94"/>
</a>
</g>
</g>
<!-- Node7 -->
<g id="Node000007" class="node">
<title>Node7</title>
<g id="a_Node000007"><a xlink:href="os__shell__management_8c.html#a038e91f0ffdf433bba8536c74ef958d9" target="_top" xlink:title=" ">
<polygon fill="white" stroke="#666666" points="683.5,-221.77 588.5,-221.77 588.5,-202.77 683.5,-202.77 683.5,-221.77"/>
<text text-anchor="middle" x="636" y="-209.77" font-family="Helvetica,sans-Serif" font-size="10.00">_cmd_reboot_fn</text>
</a>
</g>
</g>
<!-- Node6&#45;&gt;Node7 -->
<g id="edge6_Node000006_Node000007" class="edge">
<title>Node6&#45;&gt;Node7</title>
<g id="a_edge6_Node000006_Node000007"><a xlink:title=" ">
<path fill="none" stroke="#63b8ff" d="M759.55,-168.2C730.39,-178.69 689.93,-193.23 663.62,-202.7"/>
<polygon fill="#63b8ff" stroke="#63b8ff" points="760.75,-171.49 768.97,-164.81 758.38,-164.9 760.75,-171.49"/>
</a>
</g>
</g>
<!-- Node8 -->
<g id="Node000008" class="node">
<title>Node8</title>
<g id="a_Node000008"><a xlink:href="os__shell__management_8c.html#a4dcab531b1b38b06384ff4035db371da" target="_top" xlink:title=" ">
<polygon fill="white" stroke="#666666" points="691.5,-145.77 580.5,-145.77 580.5,-126.77 691.5,-126.77 691.5,-145.77"/>
<text text-anchor="middle" x="636" y="-133.77" font-family="Helvetica,sans-Serif" font-size="10.00">_shell_process_line</text>
</a>
</g>
</g>
<!-- Node6&#45;&gt;Node8 -->
<g id="edge8_Node000006_Node000008" class="edge">
<title>Node6&#45;&gt;Node8</title>
<g id="a_edge8_Node000006_Node000008"><a xlink:title=" ">
<path fill="none" stroke="#63b8ff" d="M748.8,-149.67C730.86,-147.52 710.22,-145.05 691.6,-142.82"/>
<polygon fill="#63b8ff" stroke="#63b8ff" points="748.39,-153.15 758.74,-150.86 749.23,-146.2 748.39,-153.15"/>
</a>
</g>
</g>
<!-- Node8&#45;&gt;Node2 -->
<g id="edge9_Node000008_Node000002" class="edge">
<title>Node8&#45;&gt;Node2</title>
<g id="a_edge9_Node000008_Node000002"><a xlink:title=" ">
<path fill="none" stroke="#63b8ff" d="M570.2,-136.27C559.4,-136.27 548.43,-136.27 538.34,-136.27"/>
<polygon fill="#63b8ff" stroke="#63b8ff" points="570.47,-139.77 580.47,-136.27 570.47,-132.77 570.47,-139.77"/>
</a>
</g>
</g>
<!-- Node9&#45;&gt;Node5 -->
<g id="edge11_Node000009_Node000005" class="edge">
<title>Node9&#45;&gt;Node5</title>
<g id="a_edge11_Node000009_Node000005"><a xlink:title=" ">
<path fill="none" stroke="#63b8ff" d="M450.79,-21.27C363.63,-35.74 164.81,-68.73 80.24,-82.76"/>
<polygon fill="#63b8ff" stroke="#63b8ff" points="451.56,-24.69 460.86,-19.6 450.42,-17.79 451.56,-24.69"/>
</a>
</g>
</g>
<!-- Node11 -->
<g id="Node000011" class="node">
<title>Node11</title>
<g id="a_Node000011"><a xlink:href="uart__app_8c.html#af8629c1a7d2b90c4b857d1ab5ab812fd" target="_top" xlink:title="Read one byte from the RX ring buffer without blocking.">
<polygon fill="white" stroke="#666666" points="698,-69.77 574,-69.77 574,-50.77 698,-50.77 698,-69.77"/>
<text text-anchor="middle" x="636" y="-57.77" font-family="Helvetica,sans-Serif" font-size="10.00">uart_async_read_byte</text>
</a>
</g>
</g>
<!-- Node10&#45;&gt;Node11 -->
<g id="edge13_Node000010_Node000011" class="edge">
<title>Node10&#45;&gt;Node11</title>
<g id="a_edge13_Node000010_Node000011"><a xlink:title=" ">
<path fill="none" stroke="#63b8ff" d="M723.76,-60.27C715.17,-60.27 706.46,-60.27 698.04,-60.27"/>
<polygon fill="#63b8ff" stroke="#63b8ff" points="723.77,-63.77 733.77,-60.27 723.77,-56.77 723.77,-63.77"/>
</a>
</g>
</g>
<!-- Node12 -->
<g id="Node000012" class="node">
<title>Node12</title>
<g id="a_Node000012"><a xlink:href="uart__app_8c.html#a2705fba771080d1a41e60a74e6e56926" target="_top" xlink:title="Receive exactly len bytes from the UART RX ring buffer, blocking until all bytes arrive or timeout ex...">
<polygon fill="white" stroke="#666666" points="688.5,-32.77 583.5,-32.77 583.5,-13.77 688.5,-13.77 688.5,-32.77"/>
<text text-anchor="middle" x="636" y="-20.77" font-family="Helvetica,sans-Serif" font-size="10.00">uart_sync_receive</text>
</a>
</g>
</g>
<!-- Node10&#45;&gt;Node12 -->
<g id="edge14_Node000010_Node000012" class="edge">
<title>Node10&#45;&gt;Node12</title>
<g id="a_edge14_Node000010_Node000012"><a xlink:title=" ">
<path fill="none" stroke="#63b8ff" d="M744.71,-48.41C723.14,-43.38 698.32,-37.59 677.95,-32.83"/>
<polygon fill="#63b8ff" stroke="#63b8ff" points="744.15,-51.88 754.68,-50.74 745.74,-45.06 744.15,-51.88"/>
</a>
</g>
</g>
<!-- Node14 -->
<g id="Node000014" class="node">
<title>Node14</title>
<g id="a_Node000014"><a xlink:href="uart__mgmt_8c.html#a8e8f570b41df4e77ed5acfbeaef25423" target="_top" xlink:title="Create and start the UART management thread.">
<polygon fill="white" stroke="#666666" points="403.5,-221.77 305.5,-221.77 305.5,-202.77 403.5,-202.77 403.5,-221.77"/>
<text text-anchor="middle" x="354.5" y="-209.77" font-family="Helvetica,sans-Serif" font-size="10.00">uart_mgmt_start</text>
</a>
</g>
</g>
<!-- Node13&#45;&gt;Node14 -->
<g id="edge16_Node000013_Node000014" class="edge">
<title>Node13&#45;&gt;Node14</title>
<g id="a_edge16_Node000013_Node000014"><a xlink:title=" ">
<path fill="none" stroke="#63b8ff" d="M732.9,-228.65C721.32,-229.74 709.3,-230.69 698,-231.27 593.03,-236.64 470,-225.57 403.71,-218.18"/>
<polygon fill="#63b8ff" stroke="#63b8ff" points="733.34,-232.12 742.95,-227.65 732.66,-225.15 733.34,-232.12"/>
</a>
</g>
</g>
<!-- Node14&#45;&gt;Node4 -->
<g id="edge17_Node000014_Node000004" class="edge">
<title>Node14&#45;&gt;Node4</title>
<g id="a_edge17_Node000014_Node000004"><a xlink:title=" ">
<path fill="none" stroke="#63b8ff" d="M323.4,-198.41C290.31,-183.17 238.02,-159.08 209.23,-145.82"/>
<polygon fill="#63b8ff" stroke="#63b8ff" points="322.06,-201.64 332.6,-202.64 324.98,-195.28 322.06,-201.64"/>
</a>
</g>
</g>
</g>
</svg>

<g id="navigator" transform="translate(0 0)" fill="#404254">
  <rect fill="#f2f5e9" fill-opacity="0.5" stroke="#606060" stroke-width=".5" x="0" y="0" width="60" height="60"/>
  <use id="zoomplus" xlink:href="#zoomPlus" x="17" y="9" onmousedown="handleZoom(evt,'in')"/>
  <use id="zoomminus" xlink:href="#zoomMin" x="42" y="9" onmousedown="handleZoom(evt,'out')"/>
  <use id="reset" xlink:href="#resetDef" x="30" y="36" onmousedown="handleReset()"/>
   <use id="arrowup" xlink:href="#arrowUp" x="0" y="0" onmousedown="handlePan(0,-1)"/>
  <use id="arrowright" xlink:href="#arrowRight" x="0" y="0" onmousedown="handlePan(1,0)"/>
  <use id="arrowdown" xlink:href="#arrowDown" x="0" y="0" onmousedown="handlePan(0,1)"/>
  <use id="arrowleft" xlink:href="#arrowLeft" x="0" y="0" onmousedown="handlePan(-1,0)"/>
</g>
<svg viewBox="0 0 15 15" width="100%" height="30px" preserveAspectRatio="xMaxYMin meet">
 <g id="arrow_out" transform="scale(0.3 0.3)">
  <a xlink:href="mqueue_8h_ae54fde83faac5a815d0afa0be0ceb447_icgraph_org.svg" target="_base">
   <rect id="button" ry="5" rx="5" y="6" x="6" height="38" width="38"
        fill="#f2f5e9" fill-opacity="0.5" stroke="#606060" stroke-width="1.0"/>
   <path id="arrow"
     d="M 11.500037,31.436501 C 11.940474,20.09759 22.043105,11.32322 32.158766,21.979434 L 37.068811,17.246167 C 37.068811,17.246167 37.088388,32 37.088388,32 L 22.160133,31.978069 C 22.160133,31.978069 26.997745,27.140456 26.997745,27.140456 C 18.528582,18.264221 13.291696,25.230495 11.500037,31.436501 z"
     style="fill:#404040;"/>
  </a>
 </g>
</svg>

<style type='text/css'>
<![CDATA[
[data-mouse-over-selected='false'] { opacity: 0.7; }
[data-mouse-over-selected='true']  { opacity: 1.0; }
]]>
</style>
<script type="application/ecmascript"><![CDATA[
document.addEventListener('DOMContentLoaded', (event) => {
  highlightEdges();
  highlightAdjacentNodes();
});
]]></script>
</svg>
