<?xml version="1.0" encoding="UTF-8" standalone="no"?>
<!DOCTYPE svg PUBLIC "-//W3C//DTD SVG 1.1//EN"
 "http://www.w3.org/Graphics/SVG/1.1/DTD/svg11.dtd">
<!-- Generated by graphviz version 2.43.0 (0)
 -->
<!-- Title: mqueue.h Pages: 1 -->
<svg width="763pt" height="148pt"
 viewBox="0.00 0.00 762.50 148.00" xmlns="http://www.w3.org/2000/svg" xmlns:xlink="http://www.w3.org/1999/xlink">
<g id="graph0" class="graph" transform="scale(1 1) rotate(0) translate(4 144)">
<title>mqueue.h</title>
<!-- Node1 -->
<g id="Node000001" class="node">
<title>Node1</title>
<g id="a_Node000001"><a xlink:title=" ">
<polygon fill="#999999" stroke="#666666" points="360.5,-140 295.5,-140 295.5,-121 360.5,-121 360.5,-140"/>
<text text-anchor="middle" x="328" y="-128" font-family="Helvetica,sans-Serif" font-size="10.00">mqueue.h</text>
</a>
</g>
</g>
<!-- Node2 -->
<g id="Node000002" class="node">
<title>Node2</title>
<g id="a_Node000002"><a xlink:href="drv__iic_8h.html" target="_top" xlink:title=" ">
<polygon fill="white" stroke="#666666" points="58,-85 0,-85 0,-66 58,-66 58,-85"/>
<text text-anchor="middle" x="29" y="-73" font-family="Helvetica,sans-Serif" font-size="10.00">drv_iic.h</text>
</a>
</g>
</g>
<!-- Node1&#45;&gt;Node2 -->
<g id="edge1_Node000001_Node000002" class="edge">
<title>Node1&#45;&gt;Node2</title>
<g id="a_edge1_Node000001_Node000002"><a xlink:title=" ">
<path fill="none" stroke="#63b8ff" d="M285.2,-122.89C233.4,-114.74 143.58,-100.08 67,-85 64.08,-84.43 61.04,-83.8 58.01,-83.15"/>
<polygon fill="#63b8ff" stroke="#63b8ff" points="284.93,-126.39 295.35,-124.48 286.01,-119.48 284.93,-126.39"/>
</a>
</g>
</g>
<!-- Node3 -->
<g id="Node000003" class="node">
<title>Node3</title>
<g id="a_Node000003"><a xlink:href="drv__uart_8h.html" target="_top" xlink:title=" ">
<polygon fill="white" stroke="#666666" points="142,-85 76,-85 76,-66 142,-66 142,-85"/>
<text text-anchor="middle" x="109" y="-73" font-family="Helvetica,sans-Serif" font-size="10.00">drv_uart.h</text>
</a>
</g>
</g>
<!-- Node1&#45;&gt;Node3 -->
<g id="edge2_Node000001_Node000003" class="edge">
<title>Node1&#45;&gt;Node3</title>
<g id="a_edge2_Node000001_Node000003"><a xlink:title=" ">
<path fill="none" stroke="#63b8ff" d="M285.3,-119.17C243.35,-109.01 180.25,-93.74 142.01,-84.49"/>
<polygon fill="#63b8ff" stroke="#63b8ff" points="284.67,-122.61 295.21,-121.57 286.32,-115.81 284.67,-122.61"/>
</a>
</g>
</g>
<!-- Node4 -->
<g id="Node000004" class="node">
<title>Node4</title>
<g id="a_Node000004"><a xlink:href="init_8h.html" target="_top" xlink:title=" ">
<polygon fill="white" stroke="#666666" points="101.5,-24.5 60.5,-24.5 60.5,-5.5 101.5,-5.5 101.5,-24.5"/>
<text text-anchor="middle" x="81" y="-12.5" font-family="Helvetica,sans-Serif" font-size="10.00">init.h</text>
</a>
</g>
</g>
<!-- Node1&#45;&gt;Node4 -->
<g id="edge3_Node000001_Node000004" class="edge">
<title>Node1&#45;&gt;Node4</title>
<g id="a_edge3_Node000001_Node000004"><a xlink:title=" ">
<path fill="none" stroke="#63b8ff" d="M285.46,-118.96C257.37,-111.26 220.15,-99.63 189,-85 151.54,-67.4 111.5,-38.95 92.41,-24.71"/>
<polygon fill="#63b8ff" stroke="#63b8ff" points="284.8,-122.41 295.36,-121.62 286.61,-115.65 284.8,-122.41"/>
</a>
</g>
</g>
<!-- Node5 -->
<g id="Node000005" class="node">
<title>Node5</title>
<g id="a_Node000005"><a xlink:href="kernel__services_8h.html" target="_top" xlink:title=" ">
<polygon fill="white" stroke="#666666" points="299.5,-85 198.5,-85 198.5,-66 299.5,-66 299.5,-85"/>
<text text-anchor="middle" x="249" y="-73" font-family="Helvetica,sans-Serif" font-size="10.00">kernel_services.h</text>
</a>
</g>
</g>
<!-- Node1&#45;&gt;Node5 -->
<g id="edge4_Node000001_Node000005" class="edge">
<title>Node1&#45;&gt;Node5</title>
<g id="a_edge4_Node000001_Node000005"><a xlink:title=" ">
<path fill="none" stroke="#63b8ff" d="M306.61,-115.15C292.33,-105.57 274.03,-93.29 261.92,-85.17"/>
<polygon fill="#63b8ff" stroke="#63b8ff" points="305.05,-118.32 315.31,-120.98 308.95,-112.51 305.05,-118.32"/>
</a>
</g>
</g>
<!-- Node8 -->
<g id="Node000008" class="node">
<title>Node8</title>
<g id="a_Node000008"><a xlink:href="main_8c.html" target="_top" xlink:title=" ">
<polygon fill="white" stroke="#666666" points="442,-24.5 392,-24.5 392,-5.5 442,-5.5 442,-24.5"/>
<text text-anchor="middle" x="417" y="-12.5" font-family="Helvetica,sans-Serif" font-size="10.00">main.c</text>
</a>
</g>
</g>
<!-- Node1&#45;&gt;Node8 -->
<g id="edge9_Node000001_Node000008" class="edge">
<title>Node1&#45;&gt;Node8</title>
<g id="a_edge9_Node000001_Node000008"><a xlink:title=" ">
<path fill="none" stroke="#63b8ff" d="M330.65,-110.91C333.29,-97.44 338.39,-79.33 348,-66 361.41,-47.4 383.87,-32.99 399.51,-24.52"/>
<polygon fill="#63b8ff" stroke="#63b8ff" points="327.17,-110.49 328.96,-120.93 334.07,-111.65 327.17,-110.49"/>
</a>
</g>
</g>
<!-- Node9 -->
<g id="Node000009" class="node">
<title>Node9</title>
<g id="a_Node000009"><a xlink:href="mqueue_8c.html" target="_top" xlink:title=" ">
<polygon fill="white" stroke="#666666" points="421.5,-85 356.5,-85 356.5,-66 421.5,-66 421.5,-85"/>
<text text-anchor="middle" x="389" y="-73" font-family="Helvetica,sans-Serif" font-size="10.00">mqueue.c</text>
</a>
</g>
</g>
<!-- Node1&#45;&gt;Node9 -->
<g id="edge10_Node000001_Node000009" class="edge">
<title>Node1&#45;&gt;Node9</title>
<g id="a_edge10_Node000001_Node000009"><a xlink:title=" ">
<path fill="none" stroke="#63b8ff" d="M345.47,-114.32C356.34,-104.87 369.94,-93.06 379.02,-85.17"/>
<polygon fill="#63b8ff" stroke="#63b8ff" points="343.05,-111.78 337.8,-120.98 347.65,-117.07 343.05,-111.78"/>
</a>
</g>
</g>
<!-- Node10 -->
<g id="Node000010" class="node">
<title>Node10</title>
<g id="a_Node000010"><a xlink:href="os__shell__management_8c.html" target="_top" xlink:title=" ">
<polygon fill="white" stroke="#666666" points="574.5,-85 439.5,-85 439.5,-66 574.5,-66 574.5,-85"/>
<text text-anchor="middle" x="507" y="-73" font-family="Helvetica,sans-Serif" font-size="10.00">os_shell_management.c</text>
</a>
</g>
</g>
<!-- Node1&#45;&gt;Node10 -->
<g id="edge11_Node000001_Node000010" class="edge">
<title>Node1&#45;&gt;Node10</title>
<g id="a_edge11_Node000001_Node000010"><a xlink:title=" ">
<path fill="none" stroke="#63b8ff" d="M366.65,-118.06C400.11,-108.15 447.75,-94.04 478.02,-85.08"/>
<polygon fill="#63b8ff" stroke="#63b8ff" points="365.35,-114.79 356.76,-120.98 367.34,-121.5 365.35,-114.79"/>
</a>
</g>
</g>
<!-- Node11 -->
<g id="Node000011" class="node">
<title>Node11</title>
<g id="a_Node000011"><a xlink:href="syscalls_8c.html" target="_top" xlink:title=" ">
<polygon fill="white" stroke="#666666" points="657,-85 593,-85 593,-66 657,-66 657,-85"/>
<text text-anchor="middle" x="625" y="-73" font-family="Helvetica,sans-Serif" font-size="10.00">syscalls.c</text>
</a>
</g>
</g>
<!-- Node1&#45;&gt;Node11 -->
<g id="edge12_Node000001_Node000011" class="edge">
<title>Node1&#45;&gt;Node11</title>
<g id="a_edge12_Node000001_Node000011"><a xlink:title=" ">
<path fill="none" stroke="#63b8ff" d="M370.78,-122.5C421.67,-114.07 509.17,-99.26 584,-85 586.86,-84.46 589.82,-83.87 592.79,-83.28"/>
<polygon fill="#63b8ff" stroke="#63b8ff" points="370.09,-119.06 360.79,-124.15 371.23,-125.97 370.09,-119.06"/>
</a>
</g>
</g>
<!-- Node12 -->
<g id="Node000012" class="node">
<title>Node12</title>
<g id="a_Node000012"><a xlink:href="uart__mgmt_8c.html" target="_top" xlink:title=" ">
<polygon fill="white" stroke="#666666" points="754.5,-85 675.5,-85 675.5,-66 754.5,-66 754.5,-85"/>
<text text-anchor="middle" x="715" y="-73" font-family="Helvetica,sans-Serif" font-size="10.00">uart_mgmt.c</text>
</a>
</g>
</g>
<!-- Node1&#45;&gt;Node12 -->
<g id="edge13_Node000001_Node000012" class="edge">
<title>Node1&#45;&gt;Node12</title>
<g id="a_edge13_Node000001_Node000012"><a xlink:title=" ">
<path fill="none" stroke="#63b8ff" d="M370.84,-124.43C435.08,-116.7 560.14,-101.14 666,-85 669.07,-84.53 672.25,-84.03 675.44,-83.5"/>
<polygon fill="#63b8ff" stroke="#63b8ff" points="370.2,-120.98 360.69,-125.65 371.04,-127.93 370.2,-120.98"/>
</a>
</g>
</g>
<!-- Node5&#45;&gt;Node4 -->
<g id="edge5_Node000005_Node000004" class="edge">
<title>Node5&#45;&gt;Node4</title>
<g id="a_edge5_Node000005_Node000004"><a xlink:title=" ">
<path fill="none" stroke="#63b8ff" d="M208.98,-63.04C181.18,-54.72 143.45,-42.75 111,-30 106.83,-28.36 102.41,-26.42 98.29,-24.52"/>
<polygon fill="#63b8ff" stroke="#63b8ff" points="208.16,-66.44 218.74,-65.93 210.14,-59.73 208.16,-66.44"/>
</a>
</g>
</g>
<!-- Node6 -->
<g id="Node000006" class="node">
<title>Node6</title>
<g id="a_Node000006"><a xlink:href="kernel__service__core_8c.html" target="_top" xlink:title=" ">
<polygon fill="white" stroke="#666666" points="242,-24.5 120,-24.5 120,-5.5 242,-5.5 242,-24.5"/>
<text text-anchor="middle" x="181" y="-12.5" font-family="Helvetica,sans-Serif" font-size="10.00">kernel_service_core.c</text>
</a>
</g>
</g>
<!-- Node5&#45;&gt;Node6 -->
<g id="edge6_Node000005_Node000006" class="edge">
<title>Node5&#45;&gt;Node6</title>
<g id="a_edge6_Node000005_Node000006"><a xlink:title=" ">
<path fill="none" stroke="#63b8ff" d="M231.24,-59.22C218.45,-48.21 201.64,-33.75 191.07,-24.67"/>
<polygon fill="#63b8ff" stroke="#63b8ff" points="229.1,-62 238.97,-65.87 233.67,-56.69 229.1,-62"/>
</a>
</g>
</g>
<!-- Node7 -->
<g id="Node000007" class="node">
<title>Node7</title>
<g id="a_Node000007"><a xlink:href="kernel__service__task__manager_8c.html" target="_top" xlink:title=" ">
<polygon fill="white" stroke="#666666" points="373.5,-30 260.5,-30 260.5,0 373.5,0 373.5,-30"/>
<text text-anchor="start" x="268.5" y="-18" font-family="Helvetica,sans-Serif" font-size="10.00">kernel_service_task</text>
<text text-anchor="middle" x="317" y="-7" font-family="Helvetica,sans-Serif" font-size="10.00">_manager.c</text>
</a>
</g>
</g>
<!-- Node5&#45;&gt;Node7 -->
<g id="edge7_Node000005_Node000007" class="edge">
<title>Node5&#45;&gt;Node7</title>
<g id="a_edge7_Node000005_Node000007"><a xlink:title=" ">
<path fill="none" stroke="#63b8ff" d="M266.74,-59.23C277.21,-50.23 290.37,-38.91 300.59,-30.11"/>
<polygon fill="#63b8ff" stroke="#63b8ff" points="264.33,-56.69 259.03,-65.87 268.9,-62 264.33,-56.69"/>
</a>
</g>
</g>
<!-- Node5&#45;&gt;Node8 -->
<g id="edge8_Node000005_Node000008" class="edge">
<title>Node5&#45;&gt;Node8</title>
<g id="a_edge8_Node000005_Node000008"><a xlink:title=" ">
<path fill="none" stroke="#63b8ff" d="M286.47,-62.83C313.48,-54.23 350.7,-42 383,-30 387.55,-28.31 392.39,-26.39 396.96,-24.53"/>
<polygon fill="#63b8ff" stroke="#63b8ff" points="285.13,-59.58 276.66,-65.94 287.25,-66.26 285.13,-59.58"/>
</a>
</g>
</g>
</g>
</svg>
