<?xml version="1.0" encoding="UTF-8" standalone="no"?>
<!DOCTYPE svg PUBLIC "-//W3C//DTD SVG 1.1//EN"
 "http://www.w3.org/Graphics/SVG/1.1/DTD/svg11.dtd">
<!-- Generated by graphviz version 2.43.0 (0)
 -->
<!-- Title: kernel_mem.h Pages: 1 -->
<svg width="1327pt" height="203pt"
 viewBox="0.00 0.00 1327.22 203.00" xmlns="http://www.w3.org/2000/svg" xmlns:xlink="http://www.w3.org/1999/xlink">
<g id="graph0" class="graph" transform="scale(1 1) rotate(0) translate(4 199)">
<title>kernel_mem.h</title>
<!-- Node1 -->
<g id="Node000001" class="node">
<title>Node1</title>
<g id="a_Node000001"><a xlink:title=" ">
<polygon fill="#999999" stroke="#666666" points="988.22,-195 902.22,-195 902.22,-176 988.22,-176 988.22,-195"/>
<text text-anchor="middle" x="945.22" y="-183" font-family="Helvetica,sans-Serif" font-size="10.00">kernel_mem.h</text>
</a>
</g>
</g>
<!-- Node2 -->
<g id="Node000002" class="node">
<title>Node2</title>
<g id="a_Node000002"><a xlink:href="irq__desc_8c.html" target="_top" xlink:title=" ">
<polygon fill="white" stroke="#666666" points="420.72,-140 355.72,-140 355.72,-121 420.72,-121 420.72,-140"/>
<text text-anchor="middle" x="388.22" y="-128" font-family="Helvetica,sans-Serif" font-size="10.00">irq_desc.c</text>
</a>
</g>
</g>
<!-- Node1&#45;&gt;Node2 -->
<g id="edge1_Node000001_Node000002" class="edge">
<title>Node1&#45;&gt;Node2</title>
<g id="a_edge1_Node000001_Node000002"><a xlink:title=" ">
<path fill="none" stroke="#63b8ff" d="M891.88,-181.89C798.12,-176.86 597.82,-164.12 430.22,-140 427.28,-139.58 424.23,-139.08 421.18,-138.54"/>
<polygon fill="#63b8ff" stroke="#63b8ff" points="891.79,-185.39 901.96,-182.42 892.16,-178.4 891.79,-185.39"/>
</a>
</g>
</g>
<!-- Node3 -->
<g id="Node000003" class="node">
<title>Node3</title>
<g id="a_Node000003"><a xlink:href="kernel_8h.html" target="_top" xlink:title=" ">
<polygon fill="white" stroke="#666666" points="495.22,-140 439.22,-140 439.22,-121 495.22,-121 495.22,-140"/>
<text text-anchor="middle" x="467.22" y="-128" font-family="Helvetica,sans-Serif" font-size="10.00">kernel.h</text>
</a>
</g>
</g>
<!-- Node1&#45;&gt;Node3 -->
<g id="edge2_Node000001_Node000003" class="edge">
<title>Node1&#45;&gt;Node3</title>
<g id="a_edge2_Node000001_Node000003"><a xlink:title=" ">
<path fill="none" stroke="#63b8ff" d="M891.92,-178.59C790.43,-167.34 572.62,-143.19 495.22,-134.6"/>
<polygon fill="#63b8ff" stroke="#63b8ff" points="891.63,-182.08 901.96,-179.7 892.41,-175.12 891.63,-182.08"/>
</a>
</g>
</g>
<!-- Node14 -->
<g id="Node000014" class="node">
<title>Node14</title>
<g id="a_Node000014"><a xlink:href="kernel__mem_8c.html" target="_top" xlink:title=" ">
<polygon fill="white" stroke="#666666" points="1082.22,-140 996.22,-140 996.22,-121 1082.22,-121 1082.22,-140"/>
<text text-anchor="middle" x="1039.22" y="-128" font-family="Helvetica,sans-Serif" font-size="10.00">kernel_mem.c</text>
</a>
</g>
</g>
<!-- Node1&#45;&gt;Node14 -->
<g id="edge13_Node000001_Node000014" class="edge">
<title>Node1&#45;&gt;Node14</title>
<g id="a_edge13_Node000001_Node000014"><a xlink:title=" ">
<path fill="none" stroke="#63b8ff" d="M969.23,-170.97C986.41,-161.28 1009.03,-148.52 1023.84,-140.17"/>
<polygon fill="#63b8ff" stroke="#63b8ff" points="967.32,-168.02 960.32,-175.98 970.75,-174.12 967.32,-168.02"/>
</a>
</g>
</g>
<!-- Node15 -->
<g id="Node000015" class="node">
<title>Node15</title>
<g id="a_Node000015"><a xlink:href="mqueue_8h.html" target="_top" xlink:title=" ">
<polygon fill="white" stroke="#666666" points="977.72,-140 912.72,-140 912.72,-121 977.72,-121 977.72,-140"/>
<text text-anchor="middle" x="945.22" y="-128" font-family="Helvetica,sans-Serif" font-size="10.00">mqueue.h</text>
</a>
</g>
</g>
<!-- Node1&#45;&gt;Node15 -->
<g id="edge14_Node000001_Node000015" class="edge">
<title>Node1&#45;&gt;Node15</title>
<g id="a_edge14_Node000001_Node000015"><a xlink:title=" ">
<path fill="none" stroke="#63b8ff" d="M945.22,-165.66C945.22,-156.93 945.22,-146.99 945.22,-140.09"/>
<polygon fill="#63b8ff" stroke="#63b8ff" points="941.72,-165.75 945.22,-175.75 948.72,-165.75 941.72,-165.75"/>
</a>
</g>
</g>
<!-- Node22 -->
<g id="Node000022" class="node">
<title>Node22</title>
<g id="a_Node000022"><a xlink:href="ringbuffer_8c.html" target="_top" xlink:title=" ">
<polygon fill="white" stroke="#666666" points="1171.72,-140 1100.72,-140 1100.72,-121 1171.72,-121 1171.72,-140"/>
<text text-anchor="middle" x="1136.22" y="-128" font-family="Helvetica,sans-Serif" font-size="10.00">ringbuffer.c</text>
</a>
</g>
</g>
<!-- Node1&#45;&gt;Node22 -->
<g id="edge28_Node000001_Node000022" class="edge">
<title>Node1&#45;&gt;Node22</title>
<g id="a_edge28_Node000001_Node000022"><a xlink:title=" ">
<path fill="none" stroke="#63b8ff" d="M986,-173.18C1021.72,-163.27 1072.86,-149.08 1105.29,-140.08"/>
<polygon fill="#63b8ff" stroke="#63b8ff" points="984.61,-169.94 975.91,-175.98 986.48,-176.68 984.61,-169.94"/>
</a>
</g>
</g>
<!-- Node4 -->
<g id="Node000004" class="node">
<title>Node4</title>
<g id="a_Node000004"><a xlink:href="gpio__mgmt_8c.html" target="_top" xlink:title=" ">
<polygon fill="white" stroke="#666666" points="93.22,-85 13.22,-85 13.22,-66 93.22,-66 93.22,-85"/>
<text text-anchor="middle" x="53.22" y="-73" font-family="Helvetica,sans-Serif" font-size="10.00">gpio_mgmt.c</text>
</a>
</g>
</g>
<!-- Node3&#45;&gt;Node4 -->
<g id="edge3_Node000003_Node000004" class="edge">
<title>Node3&#45;&gt;Node4</title>
<g id="a_edge3_Node000003_Node000004"><a xlink:title=" ">
<path fill="none" stroke="#63b8ff" d="M429.52,-121.05C429.42,-121.03 429.32,-121.02 429.22,-121 284.99,-97.01 246.99,-105.5 102.22,-85 99.32,-84.59 96.32,-84.14 93.3,-83.66"/>
<polygon fill="#63b8ff" stroke="#63b8ff" points="428.59,-124.44 439.07,-122.84 429.88,-117.56 428.59,-124.44"/>
</a>
</g>
</g>
<!-- Node5 -->
<g id="Node000005" class="node">
<title>Node5</title>
<g id="a_Node000005"><a xlink:href="iic__mgmt_8c.html" target="_top" xlink:title=" ">
<polygon fill="white" stroke="#666666" points="470.72,-85 399.72,-85 399.72,-66 470.72,-66 470.72,-85"/>
<text text-anchor="middle" x="435.22" y="-73" font-family="Helvetica,sans-Serif" font-size="10.00">iic_mgmt.c</text>
</a>
</g>
</g>
<!-- Node3&#45;&gt;Node5 -->
<g id="edge4_Node000003_Node000005" class="edge">
<title>Node3&#45;&gt;Node5</title>
<g id="a_edge4_Node000003_Node000005"><a xlink:title=" ">
<path fill="none" stroke="#63b8ff" d="M456.72,-112.1C451.25,-103.04 444.8,-92.37 440.41,-85.09"/>
<polygon fill="#63b8ff" stroke="#63b8ff" points="453.77,-114 461.94,-120.75 459.77,-110.38 453.77,-114"/>
</a>
</g>
</g>
<!-- Node6 -->
<g id="Node000006" class="node">
<title>Node6</title>
<g id="a_Node000006"><a xlink:href="kernel__service__core_8c.html" target="_top" xlink:title=" ">
<polygon fill="white" stroke="#666666" points="691.22,-24.5 569.22,-24.5 569.22,-5.5 691.22,-5.5 691.22,-24.5"/>
<text text-anchor="middle" x="630.22" y="-12.5" font-family="Helvetica,sans-Serif" font-size="10.00">kernel_service_core.c</text>
</a>
</g>
</g>
<!-- Node3&#45;&gt;Node6 -->
<g id="edge5_Node000003_Node000006" class="edge">
<title>Node3&#45;&gt;Node6</title>
<g id="a_edge5_Node000003_Node000006"><a xlink:title=" ">
<path fill="none" stroke="#63b8ff" d="M479.14,-112.46C489.53,-98.56 505.65,-79.15 523.22,-66 548.34,-47.2 581.65,-33.01 604.39,-24.64"/>
<polygon fill="#63b8ff" stroke="#63b8ff" points="476.22,-110.52 473.19,-120.67 481.89,-114.63 476.22,-110.52"/>
</a>
</g>
</g>
<!-- Node7 -->
<g id="Node000007" class="node">
<title>Node7</title>
<g id="a_Node000007"><a xlink:href="kernel__service__task__manager_8c.html" target="_top" xlink:title=" ">
<polygon fill="white" stroke="#666666" points="361.72,-30 248.72,-30 248.72,0 361.72,0 361.72,-30"/>
<text text-anchor="start" x="256.72" y="-18" font-family="Helvetica,sans-Serif" font-size="10.00">kernel_service_task</text>
<text text-anchor="middle" x="305.22" y="-7" font-family="Helvetica,sans-Serif" font-size="10.00">_manager.c</text>
</a>
</g>
</g>
<!-- Node3&#45;&gt;Node7 -->
<g id="edge6_Node000003_Node000007" class="edge">
<title>Node3&#45;&gt;Node7</title>
<g id="a_edge6_Node000003_Node000007"><a xlink:title=" ">
<path fill="none" stroke="#63b8ff" d="M429.52,-121.05C429.42,-121.03 429.32,-121.02 429.22,-121 382.38,-113.81 36.29,-119.9 4.22,-85 -1.49,-78.78 -1.24,-72.44 4.22,-66 34.92,-29.78 170.2,-19.77 248.56,-17.02"/>
<polygon fill="#63b8ff" stroke="#63b8ff" points="428.62,-124.44 439.08,-122.76 429.85,-117.55 428.62,-124.44"/>
</a>
</g>
</g>
<!-- Node8 -->
<g id="Node000008" class="node">
<title>Node8</title>
<g id="a_Node000008"><a xlink:href="kernel__thread_8c.html" target="_top" xlink:title="All kernel thread operation api definition.">
<polygon fill="white" stroke="#666666" points="203.22,-85 111.22,-85 111.22,-66 203.22,-66 203.22,-85"/>
<text text-anchor="middle" x="157.22" y="-73" font-family="Helvetica,sans-Serif" font-size="10.00">kernel_thread.c</text>
</a>
</g>
</g>
<!-- Node3&#45;&gt;Node8 -->
<g id="edge7_Node000003_Node000008" class="edge">
<title>Node3&#45;&gt;Node8</title>
<g id="a_edge7_Node000003_Node000008"><a xlink:title=" ">
<path fill="none" stroke="#63b8ff" d="M429.52,-121.06C429.42,-121.04 429.32,-121.02 429.22,-121 386.88,-112.81 269.32,-94.09 203.45,-83.73"/>
<polygon fill="#63b8ff" stroke="#63b8ff" points="428.54,-124.43 439.04,-123.01 429.94,-117.57 428.54,-124.43"/>
</a>
</g>
</g>
<!-- Node9 -->
<g id="Node000009" class="node">
<title>Node9</title>
<g id="a_Node000009"><a xlink:href="main_8c.html" target="_top" xlink:title=" ">
<polygon fill="white" stroke="#666666" points="891.22,-24.5 841.22,-24.5 841.22,-5.5 891.22,-5.5 891.22,-24.5"/>
<text text-anchor="middle" x="866.22" y="-12.5" font-family="Helvetica,sans-Serif" font-size="10.00">main.c</text>
</a>
</g>
</g>
<!-- Node3&#45;&gt;Node9 -->
<g id="edge8_Node000003_Node000009" class="edge">
<title>Node3&#45;&gt;Node9</title>
<g id="a_edge8_Node000003_Node000009"><a xlink:title=" ">
<path fill="none" stroke="#63b8ff" d="M486.03,-114.52C507.45,-97.74 541.41,-72.09 556.22,-66 608.03,-44.71 776.42,-25.38 840.84,-18.58"/>
<polygon fill="#63b8ff" stroke="#63b8ff" points="483.65,-111.94 477.97,-120.88 487.99,-117.43 483.65,-111.94"/>
</a>
</g>
</g>
<!-- Node10 -->
<g id="Node000010" class="node">
<title>Node10</title>
<g id="a_Node000010"><a xlink:href="os__shell__management_8c.html" target="_top" xlink:title=" ">
<polygon fill="white" stroke="#666666" points="797.72,-85 662.72,-85 662.72,-66 797.72,-66 797.72,-85"/>
<text text-anchor="middle" x="730.22" y="-73" font-family="Helvetica,sans-Serif" font-size="10.00">os_shell_management.c</text>
</a>
</g>
</g>
<!-- Node3&#45;&gt;Node10 -->
<g id="edge9_Node000003_Node000010" class="edge">
<title>Node3&#45;&gt;Node10</title>
<g id="a_edge9_Node000003_Node000010"><a xlink:title=" ">
<path fill="none" stroke="#63b8ff" d="M505.47,-121.79C554.06,-112 637.63,-95.16 688.03,-85"/>
<polygon fill="#63b8ff" stroke="#63b8ff" points="504.48,-118.42 495.37,-123.83 505.86,-125.28 504.48,-118.42"/>
</a>
</g>
</g>
<!-- Node11 -->
<g id="Node000011" class="node">
<title>Node11</title>
<g id="a_Node000011"><a xlink:href="spi__mgmt_8c.html" target="_top" xlink:title=" ">
<polygon fill="white" stroke="#666666" points="295.22,-85 221.22,-85 221.22,-66 295.22,-66 295.22,-85"/>
<text text-anchor="middle" x="258.22" y="-73" font-family="Helvetica,sans-Serif" font-size="10.00">spi_mgmt.c</text>
</a>
</g>
</g>
<!-- Node3&#45;&gt;Node11 -->
<g id="edge10_Node000003_Node000011" class="edge">
<title>Node3&#45;&gt;Node11</title>
<g id="a_edge10_Node000003_Node000011"><a xlink:title=" ">
<path fill="none" stroke="#63b8ff" d="M429.31,-119.89C390.08,-109.94 329.39,-94.55 291.82,-85.02"/>
<polygon fill="#63b8ff" stroke="#63b8ff" points="428.48,-123.29 439.04,-122.35 430.2,-116.5 428.48,-123.29"/>
</a>
</g>
</g>
<!-- Node12 -->
<g id="Node000012" class="node">
<title>Node12</title>
<g id="a_Node000012"><a xlink:href="uart__app_8c.html" target="_top" xlink:title=" ">
<polygon fill="white" stroke="#666666" points="381.22,-85 313.22,-85 313.22,-66 381.22,-66 381.22,-85"/>
<text text-anchor="middle" x="347.22" y="-73" font-family="Helvetica,sans-Serif" font-size="10.00">uart_app.c</text>
</a>
</g>
</g>
<!-- Node3&#45;&gt;Node12 -->
<g id="edge11_Node000003_Node000012" class="edge">
<title>Node3&#45;&gt;Node12</title>
<g id="a_edge11_Node000003_Node000012"><a xlink:title=" ">
<path fill="none" stroke="#63b8ff" d="M438.69,-116.9C416.52,-107.11 386.37,-93.79 366.85,-85.17"/>
<polygon fill="#63b8ff" stroke="#63b8ff" points="437.38,-120.15 447.94,-120.98 440.21,-113.74 437.38,-120.15"/>
</a>
</g>
</g>
<!-- Node13 -->
<g id="Node000013" class="node">
<title>Node13</title>
<g id="a_Node000013"><a xlink:href="uart__mgmt_8c.html" target="_top" xlink:title=" ">
<polygon fill="white" stroke="#666666" points="644.72,-85 565.72,-85 565.72,-66 644.72,-66 644.72,-85"/>
<text text-anchor="middle" x="605.22" y="-73" font-family="Helvetica,sans-Serif" font-size="10.00">uart_mgmt.c</text>
</a>
</g>
</g>
<!-- Node3&#45;&gt;Node13 -->
<g id="edge12_Node000003_Node000013" class="edge">
<title>Node3&#45;&gt;Node13</title>
<g id="a_edge12_Node000003_Node000013"><a xlink:title=" ">
<path fill="none" stroke="#63b8ff" d="M499.01,-117.29C524.59,-107.47 559.9,-93.91 582.65,-85.17"/>
<polygon fill="#63b8ff" stroke="#63b8ff" points="497.47,-114.13 489.39,-120.98 499.98,-120.67 497.47,-114.13"/>
</a>
</g>
</g>
<!-- Node15&#45;&gt;Node9 -->
<g id="edge23_Node000015_Node000009" class="edge">
<title>Node15&#45;&gt;Node9</title>
<g id="a_edge23_Node000015_Node000009"><a xlink:title=" ">
<path fill="none" stroke="#63b8ff" d="M942.55,-110.66C939.99,-97.33 935.14,-79.51 926.22,-66 914.42,-48.12 894.33,-33.26 880.68,-24.51"/>
<polygon fill="#63b8ff" stroke="#63b8ff" points="939.11,-111.31 944.21,-120.6 946.02,-110.17 939.11,-111.31"/>
</a>
</g>
</g>
<!-- Node15&#45;&gt;Node10 -->
<g id="edge25_Node000015_Node000010" class="edge">
<title>Node15&#45;&gt;Node10</title>
<g id="a_edge25_Node000015_Node000010"><a xlink:title=" ">
<path fill="none" stroke="#63b8ff" d="M902.76,-119.03C862.43,-109.09 802.53,-94.33 764.97,-85.07"/>
<polygon fill="#63b8ff" stroke="#63b8ff" points="902.02,-122.46 912.57,-121.45 903.7,-115.66 902.02,-122.46"/>
</a>
</g>
</g>
<!-- Node15&#45;&gt;Node13 -->
<g id="edge27_Node000015_Node000013" class="edge">
<title>Node15&#45;&gt;Node13</title>
<g id="a_edge27_Node000015_Node000013"><a xlink:title=" ">
<path fill="none" stroke="#63b8ff" d="M902.26,-123.28C845.27,-114.96 741.58,-99.55 653.22,-85 650.47,-84.55 647.62,-84.07 644.76,-83.58"/>
<polygon fill="#63b8ff" stroke="#63b8ff" points="901.94,-126.77 912.34,-124.75 902.95,-119.85 901.94,-126.77"/>
</a>
</g>
</g>
<!-- Node16 -->
<g id="Node000016" class="node">
<title>Node16</title>
<g id="a_Node000016"><a xlink:href="drv__iic_8h.html" target="_top" xlink:title=" ">
<polygon fill="white" stroke="#666666" points="1031.22,-85 973.22,-85 973.22,-66 1031.22,-66 1031.22,-85"/>
<text text-anchor="middle" x="1002.22" y="-73" font-family="Helvetica,sans-Serif" font-size="10.00">drv_iic.h</text>
</a>
</g>
</g>
<!-- Node15&#45;&gt;Node16 -->
<g id="edge15_Node000015_Node000016" class="edge">
<title>Node15&#45;&gt;Node16</title>
<g id="a_edge15_Node000015_Node000016"><a xlink:title=" ">
<path fill="none" stroke="#63b8ff" d="M961.84,-114.04C971.96,-104.64 984.5,-92.98 992.9,-85.17"/>
<polygon fill="#63b8ff" stroke="#63b8ff" points="959.32,-111.61 954.38,-120.98 964.09,-116.74 959.32,-111.61"/>
</a>
</g>
</g>
<!-- Node17 -->
<g id="Node000017" class="node">
<title>Node17</title>
<g id="a_Node000017"><a xlink:href="drv__uart_8h.html" target="_top" xlink:title=" ">
<polygon fill="white" stroke="#666666" points="1115.22,-85 1049.22,-85 1049.22,-66 1115.22,-66 1115.22,-85"/>
<text text-anchor="middle" x="1082.22" y="-73" font-family="Helvetica,sans-Serif" font-size="10.00">drv_uart.h</text>
</a>
</g>
</g>
<!-- Node15&#45;&gt;Node17 -->
<g id="edge16_Node000015_Node000017" class="edge">
<title>Node15&#45;&gt;Node17</title>
<g id="a_edge16_Node000015_Node000017"><a xlink:title=" ">
<path fill="none" stroke="#63b8ff" d="M976.78,-117.29C1002.17,-107.47 1037.23,-93.91 1059.81,-85.17"/>
<polygon fill="#63b8ff" stroke="#63b8ff" points="975.3,-114.11 967.23,-120.98 977.82,-120.64 975.3,-114.11"/>
</a>
</g>
</g>
<!-- Node18 -->
<g id="Node000018" class="node">
<title>Node18</title>
<g id="a_Node000018"><a xlink:href="init_8h.html" target="_top" xlink:title=" ">
<polygon fill="white" stroke="#666666" points="1056.72,-24.5 1015.72,-24.5 1015.72,-5.5 1056.72,-5.5 1056.72,-24.5"/>
<text text-anchor="middle" x="1036.22" y="-12.5" font-family="Helvetica,sans-Serif" font-size="10.00">init.h</text>
</a>
</g>
</g>
<!-- Node15&#45;&gt;Node18 -->
<g id="edge17_Node000015_Node000018" class="edge">
<title>Node15&#45;&gt;Node18</title>
<g id="a_edge17_Node000015_Node000018"><a xlink:title=" ">
<path fill="none" stroke="#63b8ff" d="M987.73,-120.31C1039.3,-108.95 1119.95,-90.47 1124.22,-85 1146.58,-56.4 1089.32,-32.77 1056.83,-22.1"/>
<polygon fill="#63b8ff" stroke="#63b8ff" points="986.86,-116.92 977.84,-122.48 988.36,-123.75 986.86,-116.92"/>
</a>
</g>
</g>
<!-- Node19 -->
<g id="Node000019" class="node">
<title>Node19</title>
<g id="a_Node000019"><a xlink:href="kernel__services_8h.html" target="_top" xlink:title=" ">
<polygon fill="white" stroke="#666666" points="916.72,-85 815.72,-85 815.72,-66 916.72,-66 916.72,-85"/>
<text text-anchor="middle" x="866.22" y="-73" font-family="Helvetica,sans-Serif" font-size="10.00">kernel_services.h</text>
</a>
</g>
</g>
<!-- Node15&#45;&gt;Node19 -->
<g id="edge18_Node000015_Node000019" class="edge">
<title>Node15&#45;&gt;Node19</title>
<g id="a_edge18_Node000015_Node000019"><a xlink:title=" ">
<path fill="none" stroke="#63b8ff" d="M923.83,-115.15C909.56,-105.57 891.25,-93.29 879.15,-85.17"/>
<polygon fill="#63b8ff" stroke="#63b8ff" points="922.27,-118.32 932.53,-120.98 926.17,-112.51 922.27,-118.32"/>
</a>
</g>
</g>
<!-- Node20 -->
<g id="Node000020" class="node">
<title>Node20</title>
<g id="a_Node000020"><a xlink:href="mqueue_8c.html" target="_top" xlink:title=" ">
<polygon fill="white" stroke="#666666" points="1236.72,-85 1171.72,-85 1171.72,-66 1236.72,-66 1236.72,-85"/>
<text text-anchor="middle" x="1204.22" y="-73" font-family="Helvetica,sans-Serif" font-size="10.00">mqueue.c</text>
</a>
</g>
</g>
<!-- Node15&#45;&gt;Node20 -->
<g id="edge24_Node000015_Node000020" class="edge">
<title>Node15&#45;&gt;Node20</title>
<g id="a_edge24_Node000015_Node000020"><a xlink:title=" ">
<path fill="none" stroke="#63b8ff" d="M987.59,-120.83C1039.11,-110.29 1124.95,-92.72 1171.61,-83.17"/>
<polygon fill="#63b8ff" stroke="#63b8ff" points="986.86,-117.41 977.76,-122.84 988.26,-124.27 986.86,-117.41"/>
</a>
</g>
</g>
<!-- Node21 -->
<g id="Node000021" class="node">
<title>Node21</title>
<g id="a_Node000021"><a xlink:href="syscalls_8c.html" target="_top" xlink:title=" ">
<polygon fill="white" stroke="#666666" points="1319.22,-85 1255.22,-85 1255.22,-66 1319.22,-66 1319.22,-85"/>
<text text-anchor="middle" x="1287.22" y="-73" font-family="Helvetica,sans-Serif" font-size="10.00">syscalls.c</text>
</a>
</g>
</g>
<!-- Node15&#45;&gt;Node21 -->
<g id="edge26_Node000015_Node000021" class="edge">
<title>Node15&#45;&gt;Node21</title>
<g id="a_edge26_Node000015_Node000021"><a xlink:title=" ">
<path fill="none" stroke="#63b8ff" d="M987.71,-121.02C1103.49,-101.63 1134.84,-104.27 1246.22,-85 1249.09,-84.5 1252.06,-83.96 1255.03,-83.38"/>
<polygon fill="#63b8ff" stroke="#63b8ff" points="987.02,-117.59 977.74,-122.71 988.19,-124.49 987.02,-117.59"/>
</a>
</g>
</g>
<!-- Node19&#45;&gt;Node6 -->
<g id="edge20_Node000019_Node000006" class="edge">
<title>Node19&#45;&gt;Node6</title>
<g id="a_edge20_Node000019_Node000006"><a xlink:title=" ">
<path fill="none" stroke="#63b8ff" d="M822,-63.54C776.38,-52.23 706.2,-34.83 664.58,-24.52"/>
<polygon fill="#63b8ff" stroke="#63b8ff" points="821.36,-66.98 831.91,-65.99 823.04,-60.19 821.36,-66.98"/>
</a>
</g>
</g>
<!-- Node19&#45;&gt;Node7 -->
<g id="edge21_Node000019_Node000007" class="edge">
<title>Node19&#45;&gt;Node7</title>
<g id="a_edge21_Node000019_Node000007"><a xlink:title=" ">
<path fill="none" stroke="#63b8ff" d="M805.52,-65.96C638.06,-45.92 453.2,-28.93 362.03,-20.9"/>
<polygon fill="#63b8ff" stroke="#63b8ff" points="805.16,-69.45 815.5,-67.16 805.99,-62.5 805.16,-69.45"/>
</a>
</g>
</g>
<!-- Node19&#45;&gt;Node9 -->
<g id="edge22_Node000019_Node000009" class="edge">
<title>Node19&#45;&gt;Node9</title>
<g id="a_edge22_Node000019_Node000009"><a xlink:title=" ">
<path fill="none" stroke="#63b8ff" d="M866.22,-55.66C866.22,-45.24 866.22,-32.8 866.22,-24.67"/>
<polygon fill="#63b8ff" stroke="#63b8ff" points="862.72,-55.87 866.22,-65.87 869.72,-55.87 862.72,-55.87"/>
</a>
</g>
</g>
<!-- Node19&#45;&gt;Node18 -->
<g id="edge19_Node000019_Node000018" class="edge">
<title>Node19&#45;&gt;Node18</title>
<g id="a_edge19_Node000019_Node000018"><a xlink:title=" ">
<path fill="none" stroke="#63b8ff" d="M900.59,-62.67C935.02,-50.82 986.9,-32.97 1015.48,-23.14"/>
<polygon fill="#63b8ff" stroke="#63b8ff" points="899.26,-59.43 890.94,-65.99 901.54,-66.05 899.26,-59.43"/>
</a>
</g>
</g>
</g>
</svg>
