<?xml version="1.0" encoding="UTF-8" standalone="no"?>
<!DOCTYPE svg PUBLIC "-//W3C//DTD SVG 1.1//EN"
 "http://www.w3.org/Graphics/SVG/1.1/DTD/svg11.dtd">
<!-- Generated by graphviz version 2.43.0 (0)
 -->
<!-- Title: kmaloc Pages: 1 -->
<svg width="623pt" height="140pt"
 viewBox="0.00 0.00 623.00 140.00" xmlns="http://www.w3.org/2000/svg" xmlns:xlink="http://www.w3.org/1999/xlink">
<g id="graph0" class="graph" transform="scale(1 1) rotate(0) translate(4 136)">
<title>kmaloc</title>
<!-- Node1 -->
<g id="Node000001" class="node">
<title>Node1</title>
<g id="a_Node000001"><a xlink:title=" ">
<polygon fill="#999999" stroke="#666666" points="615,-76 562,-76 562,-57 615,-57 615,-76"/>
<text text-anchor="middle" x="588.5" y="-64" font-family="Helvetica,sans-Serif" font-size="10.00">kmaloc</text>
</a>
</g>
</g>
<!-- Node2 -->
<g id="Node000002" class="node">
<title>Node2</title>
<g id="a_Node000002"><a xlink:href="kernel__thread_8c.html#a50c699f62ea35510879d318e5a956029" target="_top" xlink:title="A generic thread create api.">
<polygon fill="white" stroke="#666666" points="516,-132 436,-132 436,-113 516,-113 516,-132"/>
<text text-anchor="middle" x="476" y="-120" font-family="Helvetica,sans-Serif" font-size="10.00">__attribute__</text>
</a>
</g>
</g>
<!-- Node1&#45;&gt;Node2 -->
<g id="edge1_Node000001_Node000002" class="edge">
<title>Node1&#45;&gt;Node2</title>
<g id="a_edge1_Node000001_Node000002"><a xlink:title=" ">
<path fill="none" stroke="#63b8ff" d="M565.32,-81.71C553.89,-89.16 539.54,-97.92 526,-104.5 519.64,-107.59 512.61,-110.47 505.91,-112.98"/>
<polygon fill="#63b8ff" stroke="#63b8ff" points="567.4,-84.53 573.79,-76.09 563.52,-78.7 567.4,-84.53"/>
</a>
</g>
</g>
<!-- Node3 -->
<g id="Node000003" class="node">
<title>Node3</title>
<g id="a_Node000003"><a xlink:href="irq__desc_8c.html#a0041385040c05835d54aca9c83340f87" target="_top" xlink:title=" ">
<polygon fill="white" stroke="#666666" points="516,-95 436,-95 436,-76 516,-76 516,-95"/>
<text text-anchor="middle" x="476" y="-83" font-family="Helvetica,sans-Serif" font-size="10.00">_alloc_action</text>
</a>
</g>
</g>
<!-- Node1&#45;&gt;Node3 -->
<g id="edge2_Node000001_Node000003" class="edge">
<title>Node1&#45;&gt;Node3</title>
<g id="a_edge2_Node000001_Node000003"><a xlink:title=" ">
<path fill="none" stroke="#63b8ff" d="M551.88,-72.62C540.54,-74.57 527.93,-76.74 516.35,-78.73"/>
<polygon fill="#63b8ff" stroke="#63b8ff" points="552.61,-76.05 561.87,-70.91 551.42,-69.15 552.61,-76.05"/>
</a>
</g>
</g>
<!-- Node11 -->
<g id="Node000011" class="node">
<title>Node11</title>
<g id="a_Node000011"><a xlink:href="mqueue_8c.html#a24352a9ab122f2913f5c92467d5bc676" target="_top" xlink:title=" ">
<polygon fill="white" stroke="#666666" points="390,-39 271,-39 271,-20 390,-20 390,-39"/>
<text text-anchor="middle" x="330.5" y="-27" font-family="Helvetica,sans-Serif" font-size="10.00">ipc_mqueue_register</text>
</a>
</g>
</g>
<!-- Node1&#45;&gt;Node11 -->
<g id="edge7_Node000001_Node000011" class="edge">
<title>Node1&#45;&gt;Node11</title>
<g id="a_edge7_Node000001_Node000011"><a xlink:title=" ">
<path fill="none" stroke="#63b8ff" d="M551.53,-61.3C509.67,-55.25 439.94,-45.17 390.19,-37.98"/>
<polygon fill="#63b8ff" stroke="#63b8ff" points="551.15,-64.78 561.54,-62.75 552.15,-57.85 551.15,-64.78"/>
</a>
</g>
</g>
<!-- Node13 -->
<g id="Node000013" class="node">
<title>Node13</title>
<g id="a_Node000013"><a xlink:href="ringbuffer_8c.html#a85a94391518dcb013756001945f97cd1" target="_top" xlink:title=" ">
<polygon fill="white" stroke="#666666" points="526,-19 426,-19 426,0 526,0 526,-19"/>
<text text-anchor="middle" x="476" y="-7" font-family="Helvetica,sans-Serif" font-size="10.00">ringbuffer_create</text>
</a>
</g>
</g>
<!-- Node1&#45;&gt;Node13 -->
<g id="edge10_Node000001_Node000013" class="edge">
<title>Node1&#45;&gt;Node13</title>
<g id="a_edge10_Node000001_Node000013"><a xlink:title=" ">
<path fill="none" stroke="#63b8ff" d="M561.13,-52.07C550.29,-46.22 537.59,-39.45 526,-33.5 516.56,-28.66 506,-23.46 497.11,-19.14"/>
<polygon fill="#63b8ff" stroke="#63b8ff" points="559.64,-55.25 570.09,-56.94 562.97,-49.09 559.64,-55.25"/>
</a>
</g>
</g>
<!-- Node4 -->
<g id="Node000004" class="node">
<title>Node4</title>
<g id="a_Node000004"><a xlink:href="irq__desc_8c.html#ab32b689bb2b7d1960aa47f19d9d65e90" target="_top" xlink:title=" ">
<polygon fill="white" stroke="#666666" points="366,-95 295,-95 295,-76 366,-76 366,-95"/>
<text text-anchor="middle" x="330.5" y="-83" font-family="Helvetica,sans-Serif" font-size="10.00">request_irq</text>
</a>
</g>
</g>
<!-- Node3&#45;&gt;Node4 -->
<g id="edge3_Node000003_Node000004" class="edge">
<title>Node3&#45;&gt;Node4</title>
<g id="a_edge3_Node000003_Node000004"><a xlink:title=" ">
<path fill="none" stroke="#63b8ff" d="M425.54,-85.5C406.02,-85.5 384.05,-85.5 366.26,-85.5"/>
<polygon fill="#63b8ff" stroke="#63b8ff" points="425.79,-89 435.79,-85.5 425.79,-82 425.79,-89"/>
</a>
</g>
</g>
<!-- Node5 -->
<g id="Node000005" class="node">
<title>Node5</title>
<g id="a_Node000005"><a xlink:href="irq__notify_8c.html#a88ce0c4278f16ca232b715dff43ec969" target="_top" xlink:title="Register a callback for a generic IRQ ID. Call from task context before interrupts fire....">
<polygon fill="white" stroke="#666666" points="225,-95 153,-95 153,-76 225,-76 225,-95"/>
<text text-anchor="middle" x="189" y="-83" font-family="Helvetica,sans-Serif" font-size="10.00">irq_register</text>
</a>
</g>
</g>
<!-- Node4&#45;&gt;Node5 -->
<g id="edge4_Node000004_Node000005" class="edge">
<title>Node4&#45;&gt;Node5</title>
<g id="a_edge4_Node000004_Node000005"><a xlink:title=" ">
<path fill="none" stroke="#63b8ff" d="M284.63,-85.5C265.45,-85.5 243.37,-85.5 225.37,-85.5"/>
<polygon fill="#63b8ff" stroke="#63b8ff" points="284.66,-89 294.66,-85.5 284.66,-82 284.66,-89"/>
</a>
</g>
</g>
<!-- Node6 -->
<g id="Node000006" class="node">
<title>Node6</title>
<g id="a_Node000006"><a xlink:href="drv__irq_8c.html#aa6d6a8b2c4fbd552e34f19094702effa" target="_top" xlink:title="Register a callback for a software IRQ ID. Thin wrapper over irq_register() — upper layers include on...">
<polygon fill="white" stroke="#666666" points="100,-122 7,-122 7,-103 100,-103 100,-122"/>
<text text-anchor="middle" x="53.5" y="-110" font-family="Helvetica,sans-Serif" font-size="10.00">drv_irq_register</text>
</a>
</g>
</g>
<!-- Node5&#45;&gt;Node6 -->
<g id="edge5_Node000005_Node000006" class="edge">
<title>Node5&#45;&gt;Node6</title>
<g id="a_edge5_Node000005_Node000006"><a xlink:title=" ">
<path fill="none" stroke="#63b8ff" d="M142.78,-94.65C129.12,-97.41 114.1,-100.45 100.4,-103.22"/>
<polygon fill="#63b8ff" stroke="#63b8ff" points="143.82,-98.01 152.92,-92.59 142.43,-91.15 143.82,-98.01"/>
</a>
</g>
</g>
<!-- Node7 -->
<g id="Node000007" class="node">
<title>Node7</title>
<g id="a_Node000007"><a xlink:href="uart__mgmt_8c.html#af8eff33b840c2e11d5bd889fd97c705a" target="_top" xlink:title=" ">
<polygon fill="#fff0f0" stroke="red" points="107,-85 0,-85 0,-66 107,-66 107,-85"/>
<text text-anchor="middle" x="53.5" y="-73" font-family="Helvetica,sans-Serif" font-size="10.00">uart_mgmt_thread</text>
</a>
</g>
</g>
<!-- Node5&#45;&gt;Node7 -->
<g id="edge6_Node000005_Node000007" class="edge">
<title>Node5&#45;&gt;Node7</title>
<g id="a_edge6_Node000005_Node000007"><a xlink:title=" ">
<path fill="none" stroke="#63b8ff" d="M142.74,-82.11C131.31,-81.25 118.95,-80.33 107.19,-79.45"/>
<polygon fill="#63b8ff" stroke="#63b8ff" points="142.69,-85.62 152.92,-82.87 143.21,-78.64 142.69,-85.62"/>
</a>
</g>
</g>
<!-- Node12 -->
<g id="Node000012" class="node">
<title>Node12</title>
<g id="a_Node000012"><a xlink:href="main_8c.html#aa675774b79cc01e2a386c7caf4fbdf03" target="_top" xlink:title=" ">
<polygon fill="white" stroke="#666666" points="235,-39 143,-39 143,-20 235,-20 235,-39"/>
<text text-anchor="middle" x="189" y="-27" font-family="Helvetica,sans-Serif" font-size="10.00">ipc_queues_init</text>
</a>
</g>
</g>
<!-- Node11&#45;&gt;Node12 -->
<g id="edge8_Node000011_Node000012" class="edge">
<title>Node11&#45;&gt;Node12</title>
<g id="a_edge8_Node000011_Node000012"><a xlink:title=" ">
<path fill="none" stroke="#63b8ff" d="M260.62,-29.5C251.96,-29.5 243.28,-29.5 235.12,-29.5"/>
<polygon fill="#63b8ff" stroke="#63b8ff" points="260.74,-33 270.74,-29.5 260.74,-26 260.74,-33"/>
</a>
</g>
</g>
<!-- Node10 -->
<g id="Node000010" class="node">
<title>Node10</title>
<g id="a_Node000010"><a xlink:href="main_8c.html#ab1eba6ea917a2135efde6edb0de4baef" target="_top" xlink:title=" ">
<polygon fill="white" stroke="#666666" points="93.5,-39 13.5,-39 13.5,-20 93.5,-20 93.5,-39"/>
<text text-anchor="middle" x="53.5" y="-27" font-family="Helvetica,sans-Serif" font-size="10.00">__attribute__</text>
</a>
</g>
</g>
<!-- Node12&#45;&gt;Node10 -->
<g id="edge9_Node000012_Node000010" class="edge">
<title>Node12&#45;&gt;Node10</title>
<g id="a_edge9_Node000012_Node000010"><a xlink:title=" ">
<path fill="none" stroke="#63b8ff" d="M132.55,-29.5C119.55,-29.5 105.97,-29.5 93.84,-29.5"/>
<polygon fill="#63b8ff" stroke="#63b8ff" points="132.8,-33 142.8,-29.5 132.8,-26 132.8,-33"/>
</a>
</g>
</g>
<!-- Node13&#45;&gt;Node11 -->
<g id="edge11_Node000013_Node000011" class="edge">
<title>Node13&#45;&gt;Node11</title>
<g id="a_edge11_Node000013_Node000011"><a xlink:title=" ">
<path fill="none" stroke="#63b8ff" d="M415.52,-17.79C407.13,-18.96 398.5,-20.16 390.13,-21.33"/>
<polygon fill="#63b8ff" stroke="#63b8ff" points="416.19,-21.23 425.62,-16.38 415.23,-14.3 416.19,-21.23"/>
</a>
</g>
</g>
</g>
</svg>
