<?xml version="1.0" encoding="UTF-8" standalone="no"?>
<!DOCTYPE svg PUBLIC "-//W3C//DTD SVG 1.1//EN"
 "http://www.w3.org/Graphics/SVG/1.1/DTD/svg11.dtd">
<!-- Generated by graphviz version 2.43.0 (0)
 -->
<!-- Title: kfree Pages: 1 -->
<svg width="603pt" height="216pt"
 viewBox="0.00 0.00 603.00 216.00" xmlns="http://www.w3.org/2000/svg" xmlns:xlink="http://www.w3.org/1999/xlink">
<g id="graph0" class="graph" transform="scale(1 1) rotate(0) translate(4 212)">
<title>kfree</title>
<!-- Node1 -->
<g id="Node000001" class="node">
<title>Node1</title>
<g id="a_Node000001"><a xlink:title=" ">
<polygon fill="#999999" stroke="#666666" points="595,-114 553,-114 553,-95 595,-95 595,-114"/>
<text text-anchor="middle" x="574" y="-102" font-family="Helvetica,sans-Serif" font-size="10.00">kfree</text>
</a>
</g>
</g>
<!-- Node2 -->
<g id="Node000002" class="node">
<title>Node2</title>
<g id="a_Node000002"><a xlink:href="kernel__thread_8c.html#a50c699f62ea35510879d318e5a956029" target="_top" xlink:title="A generic thread create api.">
<polygon fill="white" stroke="#666666" points="504,-208 424,-208 424,-189 504,-189 504,-208"/>
<text text-anchor="middle" x="464" y="-196" font-family="Helvetica,sans-Serif" font-size="10.00">__attribute__</text>
</a>
</g>
</g>
<!-- Node1&#45;&gt;Node2 -->
<g id="edge1_Node000001_Node000002" class="edge">
<title>Node1&#45;&gt;Node2</title>
<g id="a_edge1_Node000001_Node000002"><a xlink:title=" ">
<path fill="none" stroke="#63b8ff" d="M563.53,-123.19C553.95,-140.34 537.63,-165.31 517,-180.5 512.38,-183.9 507.07,-186.69 501.65,-188.98"/>
<polygon fill="#63b8ff" stroke="#63b8ff" points="566.74,-124.6 568.37,-114.13 560.57,-121.3 566.74,-124.6"/>
</a>
</g>
</g>
<!-- Node3 -->
<g id="Node000003" class="node">
<title>Node3</title>
<g id="a_Node000003"><a xlink:href="irq__desc_8c.html#aa58e675170de727bc88cd6b735c022c2" target="_top" xlink:title=" ">
<polygon fill="white" stroke="#666666" points="502.5,-171 425.5,-171 425.5,-152 502.5,-152 502.5,-171"/>
<text text-anchor="middle" x="464" y="-159" font-family="Helvetica,sans-Serif" font-size="10.00">_free_action</text>
</a>
</g>
</g>
<!-- Node1&#45;&gt;Node3 -->
<g id="edge2_Node000001_Node000003" class="edge">
<title>Node1&#45;&gt;Node3</title>
<g id="a_edge2_Node000001_Node000003"><a xlink:title=" ">
<path fill="none" stroke="#63b8ff" d="M548.79,-119.48C539.04,-125.33 527.61,-131.95 517,-137.5 507.31,-142.57 496.35,-147.72 486.99,-151.94"/>
<polygon fill="#63b8ff" stroke="#63b8ff" points="550.81,-122.35 557.55,-114.17 547.18,-116.36 550.81,-122.35"/>
</a>
</g>
</g>
<!-- Node5 -->
<g id="Node000005" class="node">
<title>Node5</title>
<g id="a_Node000005"><a xlink:href="mqueue_8c.html#a24352a9ab122f2913f5c92467d5bc676" target="_top" xlink:title=" ">
<polygon fill="white" stroke="#666666" points="369,-114 250,-114 250,-95 369,-95 369,-114"/>
<text text-anchor="middle" x="309.5" y="-102" font-family="Helvetica,sans-Serif" font-size="10.00">ipc_mqueue_register</text>
</a>
</g>
</g>
<!-- Node1&#45;&gt;Node5 -->
<g id="edge4_Node000001_Node000005" class="edge">
<title>Node1&#45;&gt;Node5</title>
<g id="a_edge4_Node000001_Node000005"><a xlink:title=" ">
<path fill="none" stroke="#63b8ff" d="M542.63,-104.5C500.33,-104.5 422.82,-104.5 369.06,-104.5"/>
<polygon fill="#63b8ff" stroke="#63b8ff" points="542.84,-108 552.84,-104.5 542.84,-101 542.84,-108"/>
</a>
</g>
</g>
<!-- Node8 -->
<g id="Node000008" class="node">
<title>Node8</title>
<g id="a_Node000008"><a xlink:href="mqueue_8c.html#a35e33eddc9a274c42cb45d56f4d3ea0f" target="_top" xlink:title=" ">
<polygon fill="white" stroke="#666666" points="375,-38 244,-38 244,-19 375,-19 375,-38"/>
<text text-anchor="middle" x="309.5" y="-26" font-family="Helvetica,sans-Serif" font-size="10.00">ipc_mqueue_unregister</text>
</a>
</g>
</g>
<!-- Node1&#45;&gt;Node8 -->
<g id="edge7_Node000001_Node000008" class="edge">
<title>Node1&#45;&gt;Node8</title>
<g id="a_edge7_Node000001_Node000008"><a xlink:title=" ">
<path fill="none" stroke="#63b8ff" d="M553.12,-88.55C542.88,-81.09 529.86,-72.72 517,-67.5 471.53,-49.06 416.83,-39.23 375.16,-34.05"/>
<polygon fill="#63b8ff" stroke="#63b8ff" points="551.25,-91.52 561.33,-94.77 555.48,-85.94 551.25,-91.52"/>
</a>
</g>
</g>
<!-- Node9 -->
<g id="Node000009" class="node">
<title>Node9</title>
<g id="a_Node000009"><a xlink:href="ringbuffer_8c.html#a85a94391518dcb013756001945f97cd1" target="_top" xlink:title=" ">
<polygon fill="white" stroke="#666666" points="514,-95 414,-95 414,-76 514,-76 514,-95"/>
<text text-anchor="middle" x="464" y="-83" font-family="Helvetica,sans-Serif" font-size="10.00">ringbuffer_create</text>
</a>
</g>
</g>
<!-- Node1&#45;&gt;Node9 -->
<g id="edge8_Node000001_Node000009" class="edge">
<title>Node1&#45;&gt;Node9</title>
<g id="a_edge8_Node000001_Node000009"><a xlink:title=" ">
<path fill="none" stroke="#63b8ff" d="M543.01,-99.22C534.04,-97.65 523.98,-95.88 514.12,-94.14"/>
<polygon fill="#63b8ff" stroke="#63b8ff" points="542.48,-102.69 552.94,-100.97 543.7,-95.79 542.48,-102.69"/>
</a>
</g>
</g>
<!-- Node10 -->
<g id="Node000010" class="node">
<title>Node10</title>
<g id="a_Node000010"><a xlink:href="ringbuffer_8c.html#a27581e7a4c0aaa05f77b6e6dd86b3177" target="_top" xlink:title=" ">
<polygon fill="white" stroke="#666666" points="517,-19 411,-19 411,0 517,0 517,-19"/>
<text text-anchor="middle" x="464" y="-7" font-family="Helvetica,sans-Serif" font-size="10.00">ringbuffer_destroy</text>
</a>
</g>
</g>
<!-- Node1&#45;&gt;Node10 -->
<g id="edge10_Node000001_Node000010" class="edge">
<title>Node1&#45;&gt;Node10</title>
<g id="a_edge10_Node000001_Node000010"><a xlink:title=" ">
<path fill="none" stroke="#63b8ff" d="M561.8,-85.79C551.69,-70.16 535.58,-48.15 517,-33.5 509.58,-27.65 500.51,-22.84 492.03,-19.1"/>
<polygon fill="#63b8ff" stroke="#63b8ff" points="559.02,-87.94 567.29,-94.57 564.96,-84.23 559.02,-87.94"/>
</a>
</g>
</g>
<!-- Node4 -->
<g id="Node000004" class="node">
<title>Node4</title>
<g id="a_Node000004"><a xlink:href="irq__desc_8c.html#a62938807635ece657b67ecad3550a7c3" target="_top" xlink:title=" ">
<polygon fill="white" stroke="#666666" points="336.5,-171 282.5,-171 282.5,-152 336.5,-152 336.5,-171"/>
<text text-anchor="middle" x="309.5" y="-159" font-family="Helvetica,sans-Serif" font-size="10.00">free_irq</text>
</a>
</g>
</g>
<!-- Node3&#45;&gt;Node4 -->
<g id="edge3_Node000003_Node000004" class="edge">
<title>Node3&#45;&gt;Node4</title>
<g id="a_edge3_Node000003_Node000004"><a xlink:title=" ">
<path fill="none" stroke="#63b8ff" d="M415.29,-161.5C389.37,-161.5 358.31,-161.5 336.77,-161.5"/>
<polygon fill="#63b8ff" stroke="#63b8ff" points="415.3,-165 425.3,-161.5 415.3,-158 415.3,-165"/>
</a>
</g>
</g>
<!-- Node6 -->
<g id="Node000006" class="node">
<title>Node6</title>
<g id="a_Node000006"><a xlink:href="main_8c.html#aa675774b79cc01e2a386c7caf4fbdf03" target="_top" xlink:title=" ">
<polygon fill="white" stroke="#666666" points="208,-114 116,-114 116,-95 208,-95 208,-114"/>
<text text-anchor="middle" x="162" y="-102" font-family="Helvetica,sans-Serif" font-size="10.00">ipc_queues_init</text>
</a>
</g>
</g>
<!-- Node5&#45;&gt;Node6 -->
<g id="edge5_Node000005_Node000006" class="edge">
<title>Node5&#45;&gt;Node6</title>
<g id="a_edge5_Node000005_Node000006"><a xlink:title=" ">
<path fill="none" stroke="#63b8ff" d="M239.56,-104.5C228.88,-104.5 218.08,-104.5 208.1,-104.5"/>
<polygon fill="#63b8ff" stroke="#63b8ff" points="239.74,-108 249.74,-104.5 239.74,-101 239.74,-108"/>
</a>
</g>
</g>
<!-- Node7 -->
<g id="Node000007" class="node">
<title>Node7</title>
<g id="a_Node000007"><a xlink:href="main_8c.html#ab1eba6ea917a2135efde6edb0de4baef" target="_top" xlink:title=" ">
<polygon fill="white" stroke="#666666" points="80,-114 0,-114 0,-95 80,-95 80,-114"/>
<text text-anchor="middle" x="40" y="-102" font-family="Helvetica,sans-Serif" font-size="10.00">__attribute__</text>
</a>
</g>
</g>
<!-- Node6&#45;&gt;Node7 -->
<g id="edge6_Node000006_Node000007" class="edge">
<title>Node6&#45;&gt;Node7</title>
<g id="a_edge6_Node000006_Node000007"><a xlink:title=" ">
<path fill="none" stroke="#63b8ff" d="M105.95,-104.5C97.32,-104.5 88.55,-104.5 80.37,-104.5"/>
<polygon fill="#63b8ff" stroke="#63b8ff" points="105.98,-108 115.98,-104.5 105.97,-101 105.98,-108"/>
</a>
</g>
</g>
<!-- Node9&#45;&gt;Node5 -->
<g id="edge9_Node000009_Node000005" class="edge">
<title>Node9&#45;&gt;Node5</title>
<g id="a_edge9_Node000009_Node000005"><a xlink:title=" ">
<path fill="none" stroke="#63b8ff" d="M403.66,-92.89C392.3,-94.31 380.42,-95.79 369.09,-97.2"/>
<polygon fill="#63b8ff" stroke="#63b8ff" points="404.42,-96.33 413.91,-91.62 403.55,-89.38 404.42,-96.33"/>
</a>
</g>
</g>
<!-- Node10&#45;&gt;Node8 -->
<g id="edge11_Node000010_Node000008" class="edge">
<title>Node10&#45;&gt;Node8</title>
<g id="a_edge11_Node000010_Node000008"><a xlink:title=" ">
<path fill="none" stroke="#63b8ff" d="M400.82,-17.25C392.39,-18.3 383.73,-19.38 375.27,-20.43"/>
<polygon fill="#63b8ff" stroke="#63b8ff" points="401.45,-20.7 410.94,-15.99 400.59,-13.75 401.45,-20.7"/>
</a>
</g>
</g>
</g>
</svg>
