<?xml version="1.0" encoding="UTF-8" standalone="no"?>
<!DOCTYPE svg PUBLIC "-//W3C//DTD SVG 1.1//EN"
 "http://www.w3.org/Graphics/SVG/1.1/DTD/svg11.dtd">
<!-- Generated by graphviz version 2.43.0 (0)
 -->
<!-- Title: os_shell_mgmt_start Pages: 1 -->
<svg width="888pt" height="291pt"
 viewBox="0.00 0.00 888.00 291.00" xmlns="http://www.w3.org/2000/svg" xmlns:xlink="http://www.w3.org/1999/xlink">
<g id="graph0" class="graph" transform="scale(1 1) rotate(0) translate(4 287)">
<title>os_shell_mgmt_start</title>
<!-- Node1 -->
<g id="Node000001" class="node">
<title>Node1</title>
<g id="a_Node000001"><a xlink:title="Create and start the OS shell management task.">
<polygon fill="#999999" stroke="#666666" points="119,-132 0,-132 0,-113 119,-113 119,-132"/>
<text text-anchor="middle" x="59.5" y="-120" font-family="Helvetica,sans-Serif" font-size="10.00">os_shell_mgmt_start</text>
</a>
</g>
</g>
<!-- Node2 -->
<g id="Node000002" class="node">
<title>Node2</title>
<g id="a_Node000002"><a xlink:href="os__shell__management_8c.html#a5b7eb0bbbac6bbc8febc3cf4a41932f5" target="_top" xlink:title=" ">
<polygon fill="white" stroke="#666666" points="249.5,-151 161.5,-151 161.5,-132 249.5,-132 249.5,-151"/>
<text text-anchor="middle" x="205.5" y="-139" font-family="Helvetica,sans-Serif" font-size="10.00">_os_shell_task</text>
</a>
</g>
</g>
<!-- Node1&#45;&gt;Node2 -->
<g id="edge1_Node000001_Node000002" class="edge">
<title>Node1&#45;&gt;Node2</title>
<g id="a_edge1_Node000001_Node000002"><a xlink:title=" ">
<path fill="none" stroke="#63b8ff" d="M119.07,-130.23C129.81,-131.65 140.96,-133.12 151.53,-134.51"/>
<polygon fill="#63b8ff" stroke="#63b8ff" points="151.07,-137.98 161.44,-135.82 151.99,-131.04 151.07,-137.98"/>
</a>
</g>
</g>
<!-- Node15 -->
<g id="Node000015" class="node">
<title>Node15</title>
<g id="a_Node000015"><a xlink:href="group__Thread.html#ga21ff81ef0bcb5564ba8ee6c5a0da2acc" target="_top" xlink:title=" ">
<polygon fill="white" stroke="#666666" points="256,-114 155,-114 155,-95 256,-95 256,-114"/>
<text text-anchor="middle" x="205.5" y="-102" font-family="Helvetica,sans-Serif" font-size="10.00">os_thread_create</text>
</a>
</g>
</g>
<!-- Node1&#45;&gt;Node15 -->
<g id="edge16_Node000001_Node000015" class="edge">
<title>Node1&#45;&gt;Node15</title>
<g id="a_edge16_Node000001_Node000015"><a xlink:title=" ">
<path fill="none" stroke="#63b8ff" d="M119.07,-115.18C127.48,-114.13 136.15,-113.04 144.59,-111.99"/>
<polygon fill="#63b8ff" stroke="#63b8ff" points="145.25,-115.43 154.74,-110.72 144.38,-108.49 145.25,-115.43"/>
</a>
</g>
</g>
<!-- Node3 -->
<g id="Node000003" class="node">
<title>Node3</title>
<g id="a_Node000003"><a xlink:href="os__shell__management_8c.html#a63ab3e9917ce5b451d7db14187564113" target="_top" xlink:title=" ">
<polygon fill="white" stroke="#666666" points="421,-283 338,-283 338,-264 421,-264 421,-283"/>
<text text-anchor="middle" x="379.5" y="-271" font-family="Helvetica,sans-Serif" font-size="10.00">_print_banner</text>
</a>
</g>
</g>
<!-- Node2&#45;&gt;Node3 -->
<g id="edge2_Node000002_Node000003" class="edge">
<title>Node2&#45;&gt;Node3</title>
<g id="a_edge2_Node000002_Node000003"><a xlink:title=" ">
<path fill="none" stroke="#63b8ff" d="M210.83,-151.33C221.26,-173.76 250.03,-228.82 292,-255.5 302.73,-262.32 315.57,-266.61 328.04,-269.29"/>
<polygon fill="#63b8ff" stroke="#63b8ff" points="327.44,-272.74 337.91,-271.12 328.71,-265.86 327.44,-272.74"/>
</a>
</g>
</g>
<!-- Node4 -->
<g id="Node000004" class="node">
<title>Node4</title>
<g id="a_Node000004"><a xlink:href="os__shell__management_8c.html#a4dcab531b1b38b06384ff4035db371da" target="_top" xlink:title=" ">
<polygon fill="white" stroke="#666666" points="435,-246 324,-246 324,-227 435,-227 435,-246"/>
<text text-anchor="middle" x="379.5" y="-234" font-family="Helvetica,sans-Serif" font-size="10.00">_shell_process_line</text>
</a>
</g>
</g>
<!-- Node2&#45;&gt;Node4 -->
<g id="edge3_Node000002_Node000004" class="edge">
<title>Node2&#45;&gt;Node4</title>
<g id="a_edge3_Node000002_Node000004"><a xlink:title=" ">
<path fill="none" stroke="#63b8ff" d="M215.52,-151.29C230.13,-166.57 260.54,-196.05 292,-212.5 300.8,-217.1 310.59,-220.9 320.32,-224.01"/>
<polygon fill="#63b8ff" stroke="#63b8ff" points="319.41,-227.39 329.99,-226.9 321.41,-220.69 319.41,-227.39"/>
</a>
</g>
</g>
<!-- Node5 -->
<g id="Node000005" class="node">
<title>Node5</title>
<g id="a_Node000005"><a xlink:href="os__shell__management_8c.html#a674105c8790acda9c7e4ea9a74cf1aec" target="_top" xlink:title=" ">
<polygon fill="white" stroke="#666666" points="593.5,-208 518.5,-208 518.5,-189 593.5,-189 593.5,-208"/>
<text text-anchor="middle" x="556" y="-196" font-family="Helvetica,sans-Serif" font-size="10.00">_shell_write</text>
</a>
</g>
</g>
<!-- Node2&#45;&gt;Node5 -->
<g id="edge9_Node000002_Node000005" class="edge">
<title>Node2&#45;&gt;Node5</title>
<g id="a_edge9_Node000002_Node000005"><a xlink:title=" ">
<path fill="none" stroke="#63b8ff" d="M226.73,-151.15C243.74,-158.81 268.92,-169.1 292,-174.5 366.29,-191.87 455.13,-196.8 508.21,-198.12"/>
<polygon fill="#63b8ff" stroke="#63b8ff" points="508.26,-201.62 518.33,-198.34 508.41,-194.62 508.26,-201.62"/>
</a>
</g>
</g>
<!-- Node7 -->
<g id="Node000007" class="node">
<title>Node7</title>
<g id="a_Node000007"><a xlink:href="mqueue_8c.html#ae54fde83faac5a815d0afa0be0ceb447" target="_top" xlink:title=" ">
<polygon fill="white" stroke="#666666" points="780,-170 645,-170 645,-151 780,-151 780,-170"/>
<text text-anchor="middle" x="712.5" y="-158" font-family="Helvetica,sans-Serif" font-size="10.00">ipc_mqueue_get_handle</text>
</a>
</g>
</g>
<!-- Node2&#45;&gt;Node7 -->
<g id="edge10_Node000002_Node000007" class="edge">
<title>Node2&#45;&gt;Node7</title>
<g id="a_edge10_Node000002_Node000007"><a xlink:title=" ">
<path fill="none" stroke="#63b8ff" d="M249.56,-143.12C335.05,-146.34 527.24,-153.57 634.84,-157.62"/>
<polygon fill="#63b8ff" stroke="#63b8ff" points="634.85,-161.12 644.98,-158 635.12,-154.12 634.85,-161.12"/>
</a>
</g>
</g>
<!-- Node11 -->
<g id="Node000011" class="node">
<title>Node11</title>
<g id="a_Node000011"><a xlink:href="group__Thread.html#gaf16424e47477714927313ecec2821eec" target="_top" xlink:title=" ">
<polygon fill="white" stroke="#666666" points="428,-132 331,-132 331,-113 428,-113 428,-132"/>
<text text-anchor="middle" x="379.5" y="-120" font-family="Helvetica,sans-Serif" font-size="10.00">os_thread_delay</text>
</a>
</g>
</g>
<!-- Node2&#45;&gt;Node11 -->
<g id="edge11_Node000002_Node000011" class="edge">
<title>Node2&#45;&gt;Node11</title>
<g id="a_edge11_Node000002_Node000011"><a xlink:title=" ">
<path fill="none" stroke="#63b8ff" d="M249.9,-136.71C271.4,-134.33 297.65,-131.43 320.82,-128.87"/>
<polygon fill="#63b8ff" stroke="#63b8ff" points="321.32,-132.34 330.87,-127.76 320.55,-125.38 321.32,-132.34"/>
</a>
</g>
</g>
<!-- Node12 -->
<g id="Node000012" class="node">
<title>Node12</title>
<g id="a_Node000012"><a xlink:href="syscalls_8c.html#a1c0b4afcbe4d9f5c21ef438f3bcf3e4c" target="_top" xlink:title=" ">
<polygon fill="white" stroke="#666666" points="422.5,-95 336.5,-95 336.5,-76 422.5,-76 422.5,-95"/>
<text text-anchor="middle" x="379.5" y="-83" font-family="Helvetica,sans-Serif" font-size="10.00">printk_disable</text>
</a>
</g>
</g>
<!-- Node2&#45;&gt;Node12 -->
<g id="edge12_Node000002_Node000012" class="edge">
<title>Node2&#45;&gt;Node12</title>
<g id="a_edge12_Node000002_Node000012"><a xlink:title=" ">
<path fill="none" stroke="#63b8ff" d="M235.08,-131.98C242.01,-129.43 249.34,-126.54 256,-123.5 272.65,-115.9 274.85,-109.88 292,-103.5 302.9,-99.45 314.92,-96.22 326.46,-93.67"/>
<polygon fill="#63b8ff" stroke="#63b8ff" points="327.34,-97.07 336.42,-91.62 325.92,-90.21 327.34,-97.07"/>
</a>
</g>
</g>
<!-- Node13 -->
<g id="Node000013" class="node">
<title>Node13</title>
<g id="a_Node000013"><a xlink:href="ringbuffer_8c.html#a3ad0c7d81e438887de4a1e02f25d4796" target="_top" xlink:title=" ">
<polygon fill="white" stroke="#666666" points="609,-76 503,-76 503,-57 609,-57 609,-76"/>
<text text-anchor="middle" x="556" y="-64" font-family="Helvetica,sans-Serif" font-size="10.00">ringbuffer_getchar</text>
</a>
</g>
</g>
<!-- Node2&#45;&gt;Node13 -->
<g id="edge13_Node000002_Node000013" class="edge">
<title>Node2&#45;&gt;Node13</title>
<g id="a_edge13_Node000002_Node000013"><a xlink:title=" ">
<path fill="none" stroke="#63b8ff" d="M241.86,-131.94C246.9,-129.67 251.8,-126.88 256,-123.5 279.33,-104.7 265.76,-80.96 292,-66.5 361.45,-28.22 457.73,-41.88 512.46,-54.63"/>
<polygon fill="#63b8ff" stroke="#63b8ff" points="511.64,-58.03 522.18,-56.98 513.28,-51.23 511.64,-58.03"/>
</a>
</g>
</g>
<!-- Node14 -->
<g id="Node000014" class="node">
<title>Node14</title>
<g id="a_Node000014"><a xlink:href="shell__task__mgmt_8c.html#a969e317f3c6f3236be6c00aff01d1ac2" target="_top" xlink:title=" ">
<polygon fill="white" stroke="#666666" points="467,-19 292,-19 292,0 467,0 467,-19"/>
<text text-anchor="middle" x="379.5" y="-7" font-family="Helvetica,sans-Serif" font-size="10.00">shell_task_mgmt_register_cmds</text>
</a>
</g>
</g>
<!-- Node2&#45;&gt;Node14 -->
<g id="edge15_Node000002_Node000014" class="edge">
<title>Node2&#45;&gt;Node14</title>
<g id="a_edge15_Node000002_Node000014"><a xlink:title=" ">
<path fill="none" stroke="#63b8ff" d="M243.7,-131.98C248.2,-129.72 252.45,-126.94 256,-123.5 286.94,-93.52 259.91,-62.24 292,-33.5 296.54,-29.44 301.7,-26.05 307.2,-23.24"/>
<polygon fill="#63b8ff" stroke="#63b8ff" points="309,-26.27 316.72,-19.02 306.16,-19.87 309,-26.27"/>
</a>
</g>
</g>
<!-- Node4&#45;&gt;Node5 -->
<g id="edge4_Node000004_Node000005" class="edge">
<title>Node4&#45;&gt;Node5</title>
<g id="a_edge4_Node000004_Node000005"><a xlink:title=" ">
<path fill="none" stroke="#63b8ff" d="M424.53,-226.91C450.11,-221.34 482.33,-214.33 508.34,-208.66"/>
<polygon fill="#63b8ff" stroke="#63b8ff" points="509.32,-212.03 518.35,-206.48 507.83,-205.19 509.32,-212.03"/>
</a>
</g>
</g>
<!-- Node6 -->
<g id="Node000006" class="node">
<title>Node6</title>
<g id="a_Node000006"><a xlink:href="drv__handle_8h.html#aaf5f1e74e6ff221acda9679b5a054c8f" target="_top" xlink:title=" ">
<polygon fill="white" stroke="#666666" points="761.5,-244 663.5,-244 663.5,-225 761.5,-225 761.5,-244"/>
<text text-anchor="middle" x="712.5" y="-232" font-family="Helvetica,sans-Serif" font-size="10.00">drv_uart_tx_kick</text>
</a>
</g>
</g>
<!-- Node5&#45;&gt;Node6 -->
<g id="edge5_Node000005_Node000006" class="edge">
<title>Node5&#45;&gt;Node6</title>
<g id="a_edge5_Node000005_Node000006"><a xlink:title=" ">
<path fill="none" stroke="#63b8ff" d="M593.61,-207.03C613.66,-211.7 638.8,-217.56 660.71,-222.67"/>
<polygon fill="#63b8ff" stroke="#63b8ff" points="659.99,-226.09 670.52,-224.95 661.58,-219.27 659.99,-226.09"/>
</a>
</g>
</g>
<!-- Node5&#45;&gt;Node7 -->
<g id="edge6_Node000005_Node000007" class="edge">
<title>Node5&#45;&gt;Node7</title>
<g id="a_edge6_Node000005_Node000007"><a xlink:title=" ">
<path fill="none" stroke="#63b8ff" d="M593.61,-189.49C614.28,-184.41 640.36,-178 662.73,-172.49"/>
<polygon fill="#63b8ff" stroke="#63b8ff" points="663.85,-175.83 672.72,-170.04 662.17,-169.03 663.85,-175.83"/>
</a>
</g>
</g>
<!-- Node8 -->
<g id="Node000008" class="node">
<title>Node8</title>
<g id="a_Node000008"><a xlink:href="ringbuffer_8c.html#ab0175d641c6489e01eb1f11eb161307a" target="_top" xlink:title=" ">
<polygon fill="white" stroke="#666666" points="765.5,-207 659.5,-207 659.5,-188 765.5,-188 765.5,-207"/>
<text text-anchor="middle" x="712.5" y="-195" font-family="Helvetica,sans-Serif" font-size="10.00">ringbuffer_putchar</text>
</a>
</g>
</g>
<!-- Node5&#45;&gt;Node8 -->
<g id="edge7_Node000005_Node000008" class="edge">
<title>Node5&#45;&gt;Node8</title>
<g id="a_edge7_Node000005_Node000008"><a xlink:title=" ">
<path fill="none" stroke="#63b8ff" d="M593.61,-198.26C610.26,-198.16 630.41,-198.02 649.32,-197.9"/>
<polygon fill="#63b8ff" stroke="#63b8ff" points="649.38,-201.4 659.36,-197.84 649.34,-194.4 649.38,-201.4"/>
</a>
</g>
</g>
<!-- Node9 -->
<g id="Node000009" class="node">
<title>Node9</title>
<g id="a_Node000009"><a xlink:href="ringbuffer_8c.html#abc6b533f80fb18ade4151b188f827c23" target="_top" xlink:title=" ">
<polygon fill="#fff0f0" stroke="red" points="880,-150 816,-150 816,-131 880,-131 880,-150"/>
<text text-anchor="middle" x="848" y="-138" font-family="Helvetica,sans-Serif" font-size="10.00">_data_len</text>
</a>
</g>
</g>
<!-- Node8&#45;&gt;Node9 -->
<g id="edge8_Node000008_Node000009" class="edge">
<title>Node8&#45;&gt;Node9</title>
<g id="a_edge8_Node000008_Node000009"><a xlink:title=" ">
<path fill="none" stroke="#63b8ff" d="M755.57,-187.91C763.8,-185.54 772.27,-182.73 780,-179.5 795.49,-173.03 811.79,-163.61 824.43,-155.64"/>
<polygon fill="#63b8ff" stroke="#63b8ff" points="826.42,-158.53 832.93,-150.17 822.63,-152.64 826.42,-158.53"/>
</a>
</g>
</g>
<!-- Node13&#45;&gt;Node9 -->
<g id="edge14_Node000013_Node000009" class="edge">
<title>Node13&#45;&gt;Node9</title>
<g id="a_edge14_Node000013_Node000009"><a xlink:title=" ">
<path fill="none" stroke="#63b8ff" d="M594.32,-76.02C648.61,-89.88 749.05,-115.51 805.57,-129.93"/>
<polygon fill="#63b8ff" stroke="#63b8ff" points="805.04,-133.4 815.59,-132.49 806.77,-126.62 805.04,-133.4"/>
</a>
</g>
</g>
</g>
</svg>
