<?xml version="1.0" encoding="UTF-8" standalone="no"?>
<!DOCTYPE svg PUBLIC "-//W3C//DTD SVG 1.1//EN"
 "http://www.w3.org/Graphics/SVG/1.1/DTD/svg11.dtd">
<!-- Generated by graphviz version 2.43.0 (0)
 -->
<!-- Title: _shell_write Pages: 1 -->
<svg width="442pt" height="101pt"
 viewBox="0.00 0.00 442.00 101.00" xmlns="http://www.w3.org/2000/svg" xmlns:xlink="http://www.w3.org/1999/xlink">

<svg id="main" version="1.1" xmlns="http://www.w3.org/2000/svg" xmlns:xlink="http://www.w3.org/1999/xlink" xml:space="preserve" onload="init(evt)">
<style type="text/css"><![CDATA[
.node, .edge {opacity: 0.7;}
.node.selected, .edge.selected {opacity: 1;}
.edge:hover path { stroke: red; }
.edge:hover polygon { stroke: red; fill: red; }
]]></style>
<script type="application/ecmascript" xlink:href="svg.min.js"/>
<svg id="graph" class="graph">
<g id="graph0" class="graph" transform="scale(1 1) rotate(0) translate(4 97)">
<title>_shell_write</title>
<!-- Node1 -->
<g id="Node000001" class="node">
<title>Node1</title>
<g id="a_Node000001"><a xlink:title=" ">
<polygon fill="#999999" stroke="#666666" points="75,-56 0,-56 0,-37 75,-37 75,-56"/>
<text text-anchor="middle" x="37.5" y="-44" font-family="Helvetica,sans-Serif" font-size="10.00">_shell_write</text>
</a>
</g>
</g>
<!-- Node2 -->
<g id="Node000002" class="node">
<title>Node2</title>
<g id="a_Node000002"><a xlink:href="drv__handle_8h.html#aaf5f1e74e6ff221acda9679b5a054c8f" target="_top" xlink:title=" ">
<polygon fill="white" stroke="#666666" points="227.5,-93 129.5,-93 129.5,-74 227.5,-74 227.5,-93"/>
<text text-anchor="middle" x="178.5" y="-81" font-family="Helvetica,sans-Serif" font-size="10.00">drv_uart_tx_kick</text>
</a>
</g>
</g>
<!-- Node1&#45;&gt;Node2 -->
<g id="edge1_Node000001_Node000002" class="edge">
<title>Node1&#45;&gt;Node2</title>
<g id="a_edge1_Node000001_Node000002"><a xlink:title=" ">
<path fill="none" stroke="#63b8ff" d="M74.3,-56.03C91.75,-60.67 112.95,-66.32 131.58,-71.28"/>
<polygon fill="#63b8ff" stroke="#63b8ff" points="130.78,-74.69 141.34,-73.88 132.58,-67.92 130.78,-74.69"/>
</a>
</g>
</g>
<!-- Node3 -->
<g id="Node000003" class="node">
<title>Node3</title>
<g id="a_Node000003"><a xlink:href="mqueue_8c.html#ae54fde83faac5a815d0afa0be0ceb447" target="_top" xlink:title=" ">
<polygon fill="white" stroke="#666666" points="246,-56 111,-56 111,-37 246,-37 246,-56"/>
<text text-anchor="middle" x="178.5" y="-44" font-family="Helvetica,sans-Serif" font-size="10.00">ipc_mqueue_get_handle</text>
</a>
</g>
</g>
<!-- Node1&#45;&gt;Node3 -->
<g id="edge2_Node000001_Node000003" class="edge">
<title>Node1&#45;&gt;Node3</title>
<g id="a_edge2_Node000001_Node000003"><a xlink:title=" ">
<path fill="none" stroke="#63b8ff" d="M75.02,-46.5C83.03,-46.5 91.79,-46.5 100.72,-46.5"/>
<polygon fill="#63b8ff" stroke="#63b8ff" points="100.84,-50 110.84,-46.5 100.84,-43 100.84,-50"/>
</a>
</g>
</g>
<!-- Node4 -->
<g id="Node000004" class="node">
<title>Node4</title>
<g id="a_Node000004"><a xlink:href="ringbuffer_8c.html#ab0175d641c6489e01eb1f11eb161307a" target="_top" xlink:title=" ">
<polygon fill="white" stroke="#666666" points="231.5,-19 125.5,-19 125.5,0 231.5,0 231.5,-19"/>
<text text-anchor="middle" x="178.5" y="-7" font-family="Helvetica,sans-Serif" font-size="10.00">ringbuffer_putchar</text>
</a>
</g>
</g>
<!-- Node1&#45;&gt;Node4 -->
<g id="edge3_Node000001_Node000004" class="edge">
<title>Node1&#45;&gt;Node4</title>
<g id="a_edge3_Node000001_Node000004"><a xlink:title=" ">
<path fill="none" stroke="#63b8ff" d="M74.3,-36.97C91.75,-32.33 112.95,-26.68 131.58,-21.72"/>
<polygon fill="#63b8ff" stroke="#63b8ff" points="132.58,-25.08 141.34,-19.12 130.78,-18.31 132.58,-25.08"/>
</a>
</g>
</g>
<!-- Node5 -->
<g id="Node000005" class="node">
<title>Node5</title>
<g id="a_Node000005"><a xlink:href="ringbuffer_8c.html#abc6b533f80fb18ade4151b188f827c23" target="_top" xlink:title=" ">
<polygon fill="white" stroke="#666666" points="346,-19 282,-19 282,0 346,0 346,-19"/>
<text text-anchor="middle" x="314" y="-7" font-family="Helvetica,sans-Serif" font-size="10.00">_data_len</text>
</a>
</g>
</g>
<!-- Node4&#45;&gt;Node5 -->
<g id="edge4_Node000004_Node000005" class="edge">
<title>Node4&#45;&gt;Node5</title>
<g id="a_edge4_Node000004_Node000005"><a xlink:title=" ">
<path fill="none" stroke="#63b8ff" d="M231.88,-9.5C245.12,-9.5 259.15,-9.5 271.76,-9.5"/>
<polygon fill="#63b8ff" stroke="#63b8ff" points="271.96,-13 281.96,-9.5 271.96,-6 271.96,-13"/>
</a>
</g>
</g>
<!-- Node6 -->
<g id="Node000006" class="node">
<title>Node6</title>
<g id="a_Node000006"><a xlink:href="ringbuffer_8c.html#a0d9be0bc18b041c2946fd11f840206e9" target="_top" xlink:title=" ">
<polygon fill="white" stroke="#666666" points="434,-19 382,-19 382,0 434,0 434,-19"/>
<text text-anchor="middle" x="408" y="-7" font-family="Helvetica,sans-Serif" font-size="10.00">_status</text>
</a>
</g>
</g>
<!-- Node5&#45;&gt;Node6 -->
<g id="edge5_Node000005_Node000006" class="edge">
<title>Node5&#45;&gt;Node6</title>
<g id="a_edge5_Node000005_Node000006"><a xlink:title=" ">
<path fill="none" stroke="#63b8ff" d="M346.15,-9.5C354.45,-9.5 363.47,-9.5 371.97,-9.5"/>
<polygon fill="#63b8ff" stroke="#63b8ff" points="371.98,-13 381.98,-9.5 371.98,-6 371.98,-13"/>
</a>
</g>
</g>
</g>
</svg>
</svg>

<style type='text/css'>
<![CDATA[
[data-mouse-over-selected='false'] { opacity: 0.7; }
[data-mouse-over-selected='true']  { opacity: 1.0; }
]]>
</style>
<script type="application/ecmascript"><![CDATA[
document.addEventListener('DOMContentLoaded', (event) => {
  highlightEdges();
  highlightAdjacentNodes();
});
]]></script>
</svg>
