<?xml version="1.0" encoding="UTF-8" standalone="no"?>
<!DOCTYPE svg PUBLIC "-//W3C//DTD SVG 1.1//EN"
 "http://www.w3.org/Graphics/SVG/1.1/DTD/svg11.dtd">
<!-- Generated by graphviz version 2.43.0 (0)
 -->
<!-- Title: PCA9685_IIC.h Pages: 1 -->
<svg width="1095pt" height="93pt"
 viewBox="0.00 0.00 1095.00 93.00" xmlns="http://www.w3.org/2000/svg" xmlns:xlink="http://www.w3.org/1999/xlink">
<g id="graph0" class="graph" transform="scale(1 1) rotate(0) translate(4 89)">
<title>PCA9685_IIC.h</title>
<!-- Node1 -->
<g id="Node000001" class="node">
<title>Node1</title>
<g id="a_Node000001"><a xlink:title=" ">
<polygon fill="#999999" stroke="#666666" points="576.5,-85 489.5,-85 489.5,-66 576.5,-66 576.5,-85"/>
<text text-anchor="middle" x="533" y="-73" font-family="Helvetica,sans-Serif" font-size="10.00">PCA9685_IIC.h</text>
</a>
</g>
</g>
<!-- Node2 -->
<g id="Node000002" class="node">
<title>Node2</title>
<g id="a_Node000002"><a xlink:title=" ">
<polygon fill="#e0e0e0" stroke="#999999" points="116,-30 0,-30 0,0 116,0 116,-30"/>
<text text-anchor="start" x="8" y="-18" font-family="Helvetica,sans-Serif" font-size="10.00">app/bsw_config/arch</text>
<text text-anchor="middle" x="58" y="-7" font-family="Helvetica,sans-Serif" font-size="10.00">_conf/board/board.h</text>
</a>
</g>
</g>
<!-- Node1&#45;&gt;Node2 -->
<g id="edge1_Node000001_Node000002" class="edge">
<title>Node1&#45;&gt;Node2</title>
<g id="a_edge1_Node000001_Node000002"><a xlink:title=" ">
<path fill="none" stroke="#63b8ff" d="M489.34,-71.14C416.24,-65.22 264.29,-51.59 125.97,-30.05"/>
<polygon fill="#63b8ff" stroke="#63b8ff" points="126.46,-26.59 116.04,-28.49 125.37,-33.5 126.46,-26.59"/>
</a>
</g>
</g>
<!-- Node3 -->
<g id="Node000003" class="node">
<title>Node3</title>
<g id="a_Node000003"><a xlink:title=" ">
<polygon fill="#e0e0e0" stroke="#999999" points="240,-30 134,-30 134,0 240,0 240,-30"/>
<text text-anchor="start" x="142" y="-18" font-family="Helvetica,sans-Serif" font-size="10.00">bsw/utils/type_def</text>
<text text-anchor="middle" x="187" y="-7" font-family="Helvetica,sans-Serif" font-size="10.00">/typedef_global.h</text>
</a>
</g>
</g>
<!-- Node1&#45;&gt;Node3 -->
<g id="edge2_Node000001_Node000003" class="edge">
<title>Node1&#45;&gt;Node3</title>
<g id="a_edge2_Node000001_Node000003"><a xlink:title=" ">
<path fill="none" stroke="#63b8ff" d="M489.06,-68.54C435.08,-61.02 340.51,-47.17 249.93,-30.1"/>
<polygon fill="#63b8ff" stroke="#63b8ff" points="250.53,-26.65 240.05,-28.22 249.22,-33.53 250.53,-26.65"/>
</a>
</g>
</g>
<!-- Node4 -->
<g id="Node000004" class="node">
<title>Node4</title>
<g id="a_Node000004"><a xlink:title=" ">
<polygon fill="#e0e0e0" stroke="#999999" points="390,-30 258,-30 258,0 390,0 390,-30"/>
<text text-anchor="start" x="266" y="-18" font-family="Helvetica,sans-Serif" font-size="10.00">app/bsw_config/os_conf</text>
<text text-anchor="middle" x="324" y="-7" font-family="Helvetica,sans-Serif" font-size="10.00">/os_config.h</text>
</a>
</g>
</g>
<!-- Node1&#45;&gt;Node4 -->
<g id="edge3_Node000001_Node000004" class="edge">
<title>Node1&#45;&gt;Node4</title>
<g id="a_edge3_Node000001_Node000004"><a xlink:title=" ">
<path fill="none" stroke="#63b8ff" d="M502.61,-65.99C471.61,-57.32 422.69,-43.62 383.88,-32.76"/>
<polygon fill="#63b8ff" stroke="#63b8ff" points="384.82,-29.39 374.25,-30.06 382.93,-36.13 384.82,-29.39"/>
</a>
</g>
</g>
<!-- Node5 -->
<g id="Node000005" class="node">
<title>Node5</title>
<g id="a_Node000005"><a xlink:title=" ">
<polygon fill="#e0e0e0" stroke="#999999" points="519.5,-24.5 408.5,-24.5 408.5,-5.5 519.5,-5.5 519.5,-24.5"/>
<text text-anchor="middle" x="464" y="-12.5" font-family="Helvetica,sans-Serif" font-size="10.00">bsw/kernel/kernel.h</text>
</a>
</g>
</g>
<!-- Node1&#45;&gt;Node5 -->
<g id="edge4_Node000001_Node000005" class="edge">
<title>Node1&#45;&gt;Node5</title>
<g id="a_edge4_Node000001_Node000005"><a xlink:title=" ">
<path fill="none" stroke="#63b8ff" d="M522.82,-65.87C512.12,-56.8 495.06,-42.34 482.07,-31.32"/>
<polygon fill="#63b8ff" stroke="#63b8ff" points="484.11,-28.46 474.22,-24.67 479.59,-33.8 484.11,-28.46"/>
</a>
</g>
</g>
<!-- Node6 -->
<g id="Node000006" class="node">
<title>Node6</title>
<g id="a_Node000006"><a xlink:title=" ">
<polygon fill="#e0e0e0" stroke="#999999" points="668.5,-24.5 537.5,-24.5 537.5,-5.5 668.5,-5.5 668.5,-24.5"/>
<text text-anchor="middle" x="603" y="-12.5" font-family="Helvetica,sans-Serif" font-size="10.00">bsw/ipc/events/signal.h</text>
</a>
</g>
</g>
<!-- Node1&#45;&gt;Node6 -->
<g id="edge5_Node000001_Node000006" class="edge">
<title>Node1&#45;&gt;Node6</title>
<g id="a_edge5_Node000001_Node000006"><a xlink:title=" ">
<path fill="none" stroke="#63b8ff" d="M543.33,-65.87C554.19,-56.8 571.49,-42.34 584.67,-31.32"/>
<polygon fill="#63b8ff" stroke="#63b8ff" points="587.2,-33.77 592.63,-24.67 582.71,-28.39 587.2,-33.77"/>
</a>
</g>
</g>
<!-- Node7 -->
<g id="Node000007" class="node">
<title>Node7</title>
<g id="a_Node000007"><a xlink:title=" ">
<polygon fill="#e0e0e0" stroke="#999999" points="835,-24.5 687,-24.5 687,-5.5 835,-5.5 835,-24.5"/>
<text text-anchor="middle" x="761" y="-12.5" font-family="Helvetica,sans-Serif" font-size="10.00">bsw/ipc/mqueue/mqueue.h</text>
</a>
</g>
</g>
<!-- Node1&#45;&gt;Node7 -->
<g id="edge6_Node000001_Node000007" class="edge">
<title>Node1&#45;&gt;Node7</title>
<g id="a_edge6_Node000001_Node000007"><a xlink:title=" ">
<path fill="none" stroke="#63b8ff" d="M566.15,-65.99C606.26,-55.7 673.86,-38.36 717.95,-27.04"/>
<polygon fill="#63b8ff" stroke="#63b8ff" points="718.99,-30.39 727.81,-24.52 717.25,-23.61 718.99,-30.39"/>
</a>
</g>
</g>
<!-- Node8 -->
<g id="Node000008" class="node">
<title>Node8</title>
<g id="a_Node000008"><a xlink:title=" ">
<polygon fill="#e0e0e0" stroke="#999999" points="961,-30 853,-30 853,0 961,0 961,-30"/>
<text text-anchor="start" x="861" y="-18" font-family="Helvetica,sans-Serif" font-size="10.00">bsw/drivers/device</text>
<text text-anchor="middle" x="907" y="-7" font-family="Helvetica,sans-Serif" font-size="10.00">/com/iic/drv_iic.h</text>
</a>
</g>
</g>
<!-- Node1&#45;&gt;Node8 -->
<g id="edge7_Node000001_Node000008" class="edge">
<title>Node1&#45;&gt;Node8</title>
<g id="a_edge7_Node000001_Node000008"><a xlink:title=" ">
<path fill="none" stroke="#63b8ff" d="M576.69,-69.32C635.08,-62.16 741.99,-48.23 842.72,-30.15"/>
<polygon fill="#63b8ff" stroke="#63b8ff" points="843.54,-33.56 852.76,-28.33 842.29,-26.67 843.54,-33.56"/>
</a>
</g>
</g>
<!-- Node9 -->
<g id="Node000009" class="node">
<title>Node9</title>
<g id="a_Node000009"><a xlink:title=" ">
<polygon fill="#e0e0e0" stroke="#999999" points="1087,-30 979,-30 979,0 1087,0 1087,-30"/>
<text text-anchor="start" x="987" y="-18" font-family="Helvetica,sans-Serif" font-size="10.00">bsw/drivers/device</text>
<text text-anchor="middle" x="1033" y="-7" font-family="Helvetica,sans-Serif" font-size="10.00">/time/drv_time.h</text>
</a>
</g>
</g>
<!-- Node1&#45;&gt;Node9 -->
<g id="edge8_Node000001_Node000009" class="edge">
<title>Node1&#45;&gt;Node9</title>
<g id="a_edge8_Node000001_Node000009"><a xlink:title=" ">
<path fill="none" stroke="#63b8ff" d="M576.64,-71.76C653.75,-66.54 819.3,-53.69 968.52,-30.11"/>
<polygon fill="#63b8ff" stroke="#63b8ff" points="969.46,-33.51 978.78,-28.47 968.35,-26.6 969.46,-33.51"/>
</a>
</g>
</g>
</g>
</svg>
