<?xml version="1.0" encoding="UTF-8" standalone="no"?>
<!DOCTYPE svg PUBLIC "-//W3C//DTD SVG 1.1//EN"
 "http://www.w3.org/Graphics/SVG/1.1/DTD/svg11.dtd">
<!-- Generated by graphviz version 2.43.0 (0)
 -->
<!-- Title: ringbuffer_init Pages: 1 -->
<svg width="628pt" height="27pt"
 viewBox="0.00 0.00 628.00 27.00" xmlns="http://www.w3.org/2000/svg" xmlns:xlink="http://www.w3.org/1999/xlink">
<g id="graph0" class="graph" transform="scale(1 1) rotate(0) translate(4 23)">
<title>ringbuffer_init</title>
<!-- Node1 -->
<g id="Node000001" class="node">
<title>Node1</title>
<g id="a_Node000001"><a xlink:title=" ">
<polygon fill="#999999" stroke="#666666" points="620,-19 535,-19 535,0 620,0 620,-19"/>
<text text-anchor="middle" x="577.5" y="-7" font-family="Helvetica,sans-Serif" font-size="10.00">ringbuffer_init</text>
</a>
</g>
</g>
<!-- Node2 -->
<g id="Node000002" class="node">
<title>Node2</title>
<g id="a_Node000002"><a xlink:href="ringbuffer_8c.html#a85a94391518dcb013756001945f97cd1" target="_top" xlink:title=" ">
<polygon fill="white" stroke="#666666" points="499,-19 399,-19 399,0 499,0 499,-19"/>
<text text-anchor="middle" x="449" y="-7" font-family="Helvetica,sans-Serif" font-size="10.00">ringbuffer_create</text>
</a>
</g>
</g>
<!-- Node1&#45;&gt;Node2 -->
<g id="edge1_Node000001_Node000002" class="edge">
<title>Node1&#45;&gt;Node2</title>
<g id="a_edge1_Node000001_Node000002"><a xlink:title=" ">
<path fill="none" stroke="#63b8ff" d="M524.65,-9.5C516.23,-9.5 507.54,-9.5 499.2,-9.5"/>
<polygon fill="#63b8ff" stroke="#63b8ff" points="524.73,-13 534.73,-9.5 524.73,-6 524.73,-13"/>
</a>
</g>
</g>
<!-- Node3 -->
<g id="Node000003" class="node">
<title>Node3</title>
<g id="a_Node000003"><a xlink:href="mqueue_8c.html#a24352a9ab122f2913f5c92467d5bc676" target="_top" xlink:title=" ">
<polygon fill="white" stroke="#666666" points="363,-19 244,-19 244,0 363,0 363,-19"/>
<text text-anchor="middle" x="303.5" y="-7" font-family="Helvetica,sans-Serif" font-size="10.00">ipc_mqueue_register</text>
</a>
</g>
</g>
<!-- Node2&#45;&gt;Node3 -->
<g id="edge2_Node000002_Node000003" class="edge">
<title>Node2&#45;&gt;Node3</title>
<g id="a_edge2_Node000002_Node000003"><a xlink:title=" ">
<path fill="none" stroke="#63b8ff" d="M388.52,-9.5C380.13,-9.5 371.5,-9.5 363.13,-9.5"/>
<polygon fill="#63b8ff" stroke="#63b8ff" points="388.62,-13 398.62,-9.5 388.62,-6 388.62,-13"/>
</a>
</g>
</g>
<!-- Node4 -->
<g id="Node000004" class="node">
<title>Node4</title>
<g id="a_Node000004"><a xlink:href="main_8c.html#aa675774b79cc01e2a386c7caf4fbdf03" target="_top" xlink:title=" ">
<polygon fill="white" stroke="#666666" points="208,-19 116,-19 116,0 208,0 208,-19"/>
<text text-anchor="middle" x="162" y="-7" font-family="Helvetica,sans-Serif" font-size="10.00">ipc_queues_init</text>
</a>
</g>
</g>
<!-- Node3&#45;&gt;Node4 -->
<g id="edge3_Node000003_Node000004" class="edge">
<title>Node3&#45;&gt;Node4</title>
<g id="a_edge3_Node000003_Node000004"><a xlink:title=" ">
<path fill="none" stroke="#63b8ff" d="M233.62,-9.5C224.96,-9.5 216.28,-9.5 208.12,-9.5"/>
<polygon fill="#63b8ff" stroke="#63b8ff" points="233.74,-13 243.74,-9.5 233.74,-6 233.74,-13"/>
</a>
</g>
</g>
<!-- Node5 -->
<g id="Node000005" class="node">
<title>Node5</title>
<g id="a_Node000005"><a xlink:href="main_8c.html#ab1eba6ea917a2135efde6edb0de4baef" target="_top" xlink:title=" ">
<polygon fill="white" stroke="#666666" points="80,-19 0,-19 0,0 80,0 80,-19"/>
<text text-anchor="middle" x="40" y="-7" font-family="Helvetica,sans-Serif" font-size="10.00">__attribute__</text>
</a>
</g>
</g>
<!-- Node4&#45;&gt;Node5 -->
<g id="edge4_Node000004_Node000005" class="edge">
<title>Node4&#45;&gt;Node5</title>
<g id="a_edge4_Node000004_Node000005"><a xlink:title=" ">
<path fill="none" stroke="#63b8ff" d="M105.95,-9.5C97.32,-9.5 88.55,-9.5 80.37,-9.5"/>
<polygon fill="#63b8ff" stroke="#63b8ff" points="105.98,-13 115.98,-9.5 105.97,-6 105.98,-13"/>
</a>
</g>
</g>
</g>
</svg>
