<?xml version="1.0" encoding="UTF-8" standalone="no"?>
<!DOCTYPE svg PUBLIC "-//W3C//DTD SVG 1.1//EN"
 "http://www.w3.org/Graphics/SVG/1.1/DTD/svg11.dtd">
<!-- Generated by graphviz version 2.43.0 (0)
 -->
<!-- Title: _status Pages: 1 -->
<!--zoomable 281 -->

<svg id="main" version="1.1" xmlns="http://www.w3.org/2000/svg" xmlns:xlink="http://www.w3.org/1999/xlink" xml:space="preserve" onload="init(evt)">
<style type="text/css"><![CDATA[
.node, .edge {opacity: 0.7;}
.node.selected, .edge.selected {opacity: 1;}
.edge:hover path { stroke: red; }
.edge:hover polygon { stroke: red; fill: red; }
]]></style>

<defs>
  <circle id="rim" cx="0" cy="0" r="7"/>
  <circle id="rim2" cx="0" cy="0" r="3.5"/>
  <g id="zoomPlus">
    <use xlink:href="#rim" fill="#404040"><set attributeName="fill" to="#808080" begin="zoomplus.mouseover" end="zoomplus.mouseout"/></use>
    <path d="M-4,0h8M0,-4v8" fill="none" stroke="white" stroke-width="1.5" pointer-events="none"/>
  </g>
  <g id="zoomMin">
    <use xlink:href="#rim" fill="#404040"><set attributeName="fill" to="#808080" begin="zoomminus.mouseover" end="zoomminus.mouseout"/></use>
    <path d="M-4,0h8" fill="none" stroke="white" stroke-width="1.5" pointer-events="none"/>
  </g>
  <g id="arrowUp" transform="translate(30 24)">
    <use xlink:href="#rim"/>
    <path pointer-events="none" fill="none" stroke="white" stroke-width="1.5" d="M0,-3.0v7 M-2.5,-0.5L0,-3.0L2.5,-0.5"/>
  </g>
  <g id="arrowRight" transform="rotate(90) translate(36 -43)">
    <use xlink:href="#rim"/>
    <path pointer-events="none" fill="none" stroke="white" stroke-width="1.5" d="M0,-3.0v7 M-2.5,-0.5L0,-3.0L2.5,-0.5"/>
  </g>
  <g id="arrowDown" transform="rotate(180) translate(-30 -48)">
    <use xlink:href="#rim"/>
    <path pointer-events="none" fill="none" stroke="white" stroke-width="1.5" d="M0,-3.0v7 M-2.5,-0.5L0,-3.0L2.5,-0.5"/>
  </g>
  <g id="arrowLeft" transform="rotate(270) translate(-36 17)">
    <use xlink:href="#rim"/>
    <path pointer-events="none" fill="none" stroke="white" stroke-width="1.5" d="M0,-3.0v7 M-2.5,-0.5L0,-3.0L2.5,-0.5"/>
  </g>
  <g id="resetDef">
    <use xlink:href="#rim2" fill="#404040"><set attributeName="fill" to="#808080" begin="reset.mouseover" end="reset.mouseout"/></use>
  </g>
</defs>
<script type="application/ecmascript">
var viewWidth = 958;
var viewHeight = 281;
var sectionId = 'dynsection-3';
</script>
<script type="application/ecmascript" xlink:href="svg.min.js"/>
<svg id="graph" class="graph">
<g id="viewport">
<title>_status</title>
<!-- Node1 -->
<g id="Node000001" class="node">
<title>Node1</title>
<g id="a_Node000001"><a xlink:title=" ">
<polygon fill="#999999" stroke="#666666" points="950,-118 898,-118 898,-99 950,-99 950,-118"/>
<text text-anchor="middle" x="924" y="-106" font-family="Helvetica,sans-Serif" font-size="10.00">_status</text>
</a>
</g>
</g>
<!-- Node2 -->
<g id="Node000002" class="node">
<title>Node2</title>
<g id="a_Node000002"><a xlink:href="ringbuffer_8c.html#abc6b533f80fb18ade4151b188f827c23" target="_top" xlink:title=" ">
<polygon fill="white" stroke="#666666" points="836.5,-177 772.5,-177 772.5,-158 836.5,-158 836.5,-177"/>
<text text-anchor="middle" x="804.5" y="-165" font-family="Helvetica,sans-Serif" font-size="10.00">_data_len</text>
</a>
</g>
</g>
<!-- Node1&#45;&gt;Node2 -->
<g id="edge1_Node000001_Node000002" class="edge">
<title>Node1&#45;&gt;Node2</title>
<g id="a_edge1_Node000001_Node000002"><a xlink:title=" ">
<path fill="none" stroke="#63b8ff" d="M902.08,-124.14C890.66,-132.18 876.02,-141.69 862,-148.5 854,-152.39 844.99,-155.81 836.57,-158.64"/>
<polygon fill="#63b8ff" stroke="#63b8ff" points="904.41,-126.77 910.48,-118.09 900.32,-121.09 904.41,-126.77"/>
</a>
</g>
</g>
<!-- Node23 -->
<g id="Node000023" class="node">
<title>Node23</title>
<g id="a_Node000023"><a xlink:href="ringbuffer_8c.html#a41af8be9a44c894b45ce7f26af9ab646" target="_top" xlink:title=" ">
<polygon fill="white" stroke="#666666" points="862,-140 747,-140 747,-121 862,-121 862,-140"/>
<text text-anchor="middle" x="804.5" y="-128" font-family="Helvetica,sans-Serif" font-size="10.00">ringbuffer_put_force</text>
</a>
</g>
</g>
<!-- Node1&#45;&gt;Node23 -->
<g id="edge21_Node000001_Node000023" class="edge">
<title>Node1&#45;&gt;Node23</title>
<g id="a_edge21_Node000001_Node000023"><a xlink:title=" ">
<path fill="none" stroke="#63b8ff" d="M887.89,-115.07C877.96,-116.93 866.94,-119 856.28,-120.99"/>
<polygon fill="#63b8ff" stroke="#63b8ff" points="888.61,-118.5 897.79,-113.22 887.32,-111.62 888.61,-118.5"/>
</a>
</g>
</g>
<!-- Node24 -->
<g id="Node000024" class="node">
<title>Node24</title>
<g id="a_Node000024"><a xlink:href="ringbuffer_8c.html#a68ff4765b12cd916b977e92751caa2ed" target="_top" xlink:title=" ">
<polygon fill="white" stroke="#666666" points="857.5,-102.5 751.5,-102.5 751.5,-72.5 857.5,-72.5 857.5,-102.5"/>
<text text-anchor="start" x="759.5" y="-90.5" font-family="Helvetica,sans-Serif" font-size="10.00">ringbuffer_putchar</text>
<text text-anchor="middle" x="804.5" y="-79.5" font-family="Helvetica,sans-Serif" font-size="10.00">_force</text>
</a>
</g>
</g>
<!-- Node1&#45;&gt;Node24 -->
<g id="edge22_Node000001_Node000024" class="edge">
<title>Node1&#45;&gt;Node24</title>
<g id="a_edge22_Node000001_Node000024"><a xlink:title=" ">
<path fill="none" stroke="#63b8ff" d="M887.93,-102.23C878.44,-100.54 867.94,-98.66 857.72,-96.83"/>
<polygon fill="#63b8ff" stroke="#63b8ff" points="887.33,-105.68 897.79,-103.99 888.57,-98.79 887.33,-105.68"/>
</a>
</g>
</g>
<!-- Node25 -->
<g id="Node000025" class="node">
<title>Node25</title>
<g id="a_Node000025"><a xlink:href="ringbuffer_8c.html#a45e5598f7defea13781160a122defcda" target="_top" xlink:title=" ">
<polygon fill="white" stroke="#666666" points="854,-54 755,-54 755,-35 854,-35 854,-54"/>
<text text-anchor="middle" x="804.5" y="-42" font-family="Helvetica,sans-Serif" font-size="10.00">ringbuffer_status</text>
</a>
</g>
</g>
<!-- Node1&#45;&gt;Node25 -->
<g id="edge23_Node000001_Node000025" class="edge">
<title>Node1&#45;&gt;Node25</title>
<g id="a_edge23_Node000001_Node000025"><a xlink:title=" ">
<path fill="none" stroke="#63b8ff" d="M904,-92.07C892.45,-82.72 877.07,-71.35 862,-63.5 855.02,-59.87 847.21,-56.72 839.67,-54.08"/>
<polygon fill="#63b8ff" stroke="#63b8ff" points="902.09,-95.03 912.02,-98.74 906.56,-89.65 902.09,-95.03"/>
</a>
</g>
</g>
<!-- Node3 -->
<g id="Node000003" class="node">
<title>Node3</title>
<g id="a_Node000003"><a xlink:href="ringbuffer_8c.html#ad0cff7710b47171c42be6b621f5f0245" target="_top" xlink:title=" ">
<polygon fill="white" stroke="#666666" points="711,-273 600,-273 600,-254 711,-254 711,-273"/>
<text text-anchor="middle" x="655.5" y="-261" font-family="Helvetica,sans-Serif" font-size="10.00">ringbuffer_data_len</text>
</a>
</g>
</g>
<!-- Node2&#45;&gt;Node3 -->
<g id="edge2_Node000002_Node000003" class="edge">
<title>Node2&#45;&gt;Node3</title>
<g id="a_edge2_Node000002_Node000003"><a xlink:title=" ">
<path fill="none" stroke="#63b8ff" d="M787.59,-184.28C770.23,-201.73 740.89,-228.79 711,-245.5 705.09,-248.81 698.47,-251.63 691.94,-253.99"/>
<polygon fill="#63b8ff" stroke="#63b8ff" points="790.2,-186.61 794.68,-177.01 785.2,-181.72 790.2,-186.61"/>
</a>
</g>
</g>
<!-- Node4 -->
<g id="Node000004" class="node">
<title>Node4</title>
<g id="a_Node000004"><a xlink:href="ringbuffer_8c.html#ab4188a990f89ed844defa8ee50049671" target="_top" xlink:title=" ">
<polygon fill="white" stroke="#666666" points="698,-236 613,-236 613,-217 698,-217 698,-236"/>
<text text-anchor="middle" x="655.5" y="-224" font-family="Helvetica,sans-Serif" font-size="10.00">ringbuffer_get</text>
</a>
</g>
</g>
<!-- Node2&#45;&gt;Node4 -->
<g id="edge3_Node000002_Node000004" class="edge">
<title>Node2&#45;&gt;Node4</title>
<g id="a_edge3_Node000002_Node000004"><a xlink:title=" ">
<path fill="none" stroke="#63b8ff" d="M774.14,-181.4C756.11,-189.71 732.43,-200.23 711,-208.5 703.38,-211.44 695.05,-214.34 687.24,-216.93"/>
<polygon fill="#63b8ff" stroke="#63b8ff" points="775.94,-184.42 783.53,-177.03 772.99,-178.08 775.94,-184.42"/>
</a>
</g>
</g>
<!-- Node5 -->
<g id="Node000005" class="node">
<title>Node5</title>
<g id="a_Node000005"><a xlink:href="ringbuffer_8c.html#a3ad0c7d81e438887de4a1e02f25d4796" target="_top" xlink:title=" ">
<polygon fill="white" stroke="#666666" points="708.5,-199 602.5,-199 602.5,-180 708.5,-180 708.5,-199"/>
<text text-anchor="middle" x="655.5" y="-187" font-family="Helvetica,sans-Serif" font-size="10.00">ringbuffer_getchar</text>
</a>
</g>
</g>
<!-- Node2&#45;&gt;Node5 -->
<g id="edge4_Node000002_Node000005" class="edge">
<title>Node2&#45;&gt;Node5</title>
<g id="a_edge4_Node000002_Node000005"><a xlink:title=" ">
<path fill="none" stroke="#63b8ff" d="M762.37,-173.66C745.74,-176.14 726.36,-179.05 708.75,-181.68"/>
<polygon fill="#63b8ff" stroke="#63b8ff" points="762.95,-177.11 772.33,-172.17 761.92,-170.18 762.95,-177.11"/>
</a>
</g>
</g>
<!-- Node13 -->
<g id="Node000013" class="node">
<title>Node13</title>
<g id="a_Node000013"><a xlink:href="ringbuffer_8c.html#a196e803edf76a774be3c2c33c338a21a" target="_top" xlink:title=" ">
<polygon fill="white" stroke="#666666" points="708.5,-161.5 602.5,-161.5 602.5,-131.5 708.5,-131.5 708.5,-161.5"/>
<text text-anchor="start" x="610.5" y="-149.5" font-family="Helvetica,sans-Serif" font-size="10.00">ringbuffer_getchar</text>
<text text-anchor="middle" x="655.5" y="-138.5" font-family="Helvetica,sans-Serif" font-size="10.00">_from_isr</text>
</a>
</g>
</g>
<!-- Node2&#45;&gt;Node13 -->
<g id="edge10_Node000002_Node000013" class="edge">
<title>Node2&#45;&gt;Node13</title>
<g id="a_edge10_Node000002_Node000013"><a xlink:title=" ">
<path fill="none" stroke="#63b8ff" d="M762.37,-161.62C745.74,-159.25 726.36,-156.48 708.75,-153.96"/>
<polygon fill="#63b8ff" stroke="#63b8ff" points="761.93,-165.1 772.33,-163.05 762.92,-158.17 761.93,-165.1"/>
</a>
</g>
</g>
<!-- Node14 -->
<g id="Node000014" class="node">
<title>Node14</title>
<g id="a_Node000014"><a xlink:href="ringbuffer_8c.html#a22f7f922ef4c2f6cfec06cea5a294c1d" target="_top" xlink:title=" ">
<polygon fill="white" stroke="#666666" points="698,-113 613,-113 613,-94 698,-94 698,-113"/>
<text text-anchor="middle" x="655.5" y="-101" font-family="Helvetica,sans-Serif" font-size="10.00">ringbuffer_put</text>
</a>
</g>
</g>
<!-- Node2&#45;&gt;Node14 -->
<g id="edge11_Node000002_Node000014" class="edge">
<title>Node2&#45;&gt;Node14</title>
<g id="a_edge11_Node000002_Node000014"><a xlink:title=" ">
<path fill="none" stroke="#63b8ff" d="M762.69,-155.42C757.31,-153.36 751.95,-151.04 747,-148.5 729.45,-139.47 728.5,-131.62 711,-122.5 704.07,-118.89 696.3,-115.71 688.85,-113.04"/>
<polygon fill="#63b8ff" stroke="#63b8ff" points="761.72,-158.8 772.32,-158.88 764.08,-152.21 761.72,-158.8"/>
</a>
</g>
</g>
<!-- Node15 -->
<g id="Node000015" class="node">
<title>Node15</title>
<g id="a_Node000015"><a xlink:href="ringbuffer_8c.html#ab0175d641c6489e01eb1f11eb161307a" target="_top" xlink:title=" ">
<polygon fill="white" stroke="#666666" points="708.5,-63 602.5,-63 602.5,-44 708.5,-44 708.5,-63"/>
<text text-anchor="middle" x="655.5" y="-51" font-family="Helvetica,sans-Serif" font-size="10.00">ringbuffer_putchar</text>
</a>
</g>
</g>
<!-- Node2&#45;&gt;Node15 -->
<g id="edge12_Node000002_Node000015" class="edge">
<title>Node2&#45;&gt;Node15</title>
<g id="a_edge12_Node000002_Node000015"><a xlink:title=" ">
<path fill="none" stroke="#63b8ff" d="M762.77,-157.89C757.11,-155.43 751.65,-152.35 747,-148.5 721.86,-127.69 734.02,-107.63 711,-84.5 702.02,-75.47 689.86,-68.22 679.31,-63.01"/>
<polygon fill="#63b8ff" stroke="#63b8ff" points="761.79,-161.26 772.38,-161.48 764.24,-154.7 761.79,-161.26"/>
</a>
</g>
</g>
<!-- Node6 -->
<g id="Node000006" class="node">
<title>Node6</title>
<g id="a_Node000006"><a xlink:href="os__shell__management_8c.html#a5b7eb0bbbac6bbc8febc3cf4a41932f5" target="_top" xlink:title=" ">
<polygon fill="white" stroke="#666666" points="243,-131 155,-131 155,-112 243,-112 243,-131"/>
<text text-anchor="middle" x="199" y="-119" font-family="Helvetica,sans-Serif" font-size="10.00">_os_shell_task</text>
</a>
</g>
</g>
<!-- Node5&#45;&gt;Node6 -->
<g id="edge5_Node000005_Node000006" class="edge">
<title>Node5&#45;&gt;Node6</title>
<g id="a_edge5_Node000005_Node000006"><a xlink:title=" ">
<path fill="none" stroke="#63b8ff" d="M605.93,-201.22C592.43,-204.06 577.71,-206.77 564,-208.5 438.29,-224.32 393.85,-269 279,-215.5 240.74,-197.68 214.4,-151.19 204.44,-131.04"/>
<polygon fill="#63b8ff" stroke="#63b8ff" points="606.95,-204.58 615.98,-199.04 605.46,-197.74 606.95,-204.58"/>
</a>
</g>
</g>
<!-- Node10 -->
<g id="Node000010" class="node">
<title>Node10</title>
<g id="a_Node000010"><a xlink:href="uart__mgmt_8c.html#aa83680295a6822a437bc349e63451236" target="_top" xlink:title="Read one byte from the UART RX ring buffer.">
<polygon fill="white" stroke="#666666" points="564,-199 439,-199 439,-180 564,-180 564,-199"/>
<text text-anchor="middle" x="501.5" y="-187" font-family="Helvetica,sans-Serif" font-size="10.00">uart_mgmt_read_byte</text>
</a>
</g>
</g>
<!-- Node5&#45;&gt;Node10 -->
<g id="edge7_Node000005_Node000010" class="edge">
<title>Node5&#45;&gt;Node10</title>
<g id="a_edge7_Node000005_Node000010"><a xlink:title=" ">
<path fill="none" stroke="#63b8ff" d="M591.94,-189.5C582.73,-189.5 573.26,-189.5 564.07,-189.5"/>
<polygon fill="#63b8ff" stroke="#63b8ff" points="592.19,-193 602.19,-189.5 592.19,-186 592.19,-193"/>
</a>
</g>
</g>
<!-- Node7 -->
<g id="Node000007" class="node">
<title>Node7</title>
<g id="a_Node000007"><a xlink:href="os__shell__management_8c.html#a8fae79f71d15477bc1251891e977e46e" target="_top" xlink:title="Create and start the OS shell management task.">
<polygon fill="#fff0f0" stroke="red" points="119,-131 0,-131 0,-112 119,-112 119,-131"/>
<text text-anchor="middle" x="59.5" y="-119" font-family="Helvetica,sans-Serif" font-size="10.00">os_shell_mgmt_start</text>
</a>
</g>
</g>
<!-- Node6&#45;&gt;Node7 -->
<g id="edge6_Node000006_Node000007" class="edge">
<title>Node6&#45;&gt;Node7</title>
<g id="a_edge6_Node000006_Node000007"><a xlink:title=" ">
<path fill="none" stroke="#63b8ff" d="M144.8,-121.5C136.38,-121.5 127.63,-121.5 119.1,-121.5"/>
<polygon fill="#63b8ff" stroke="#63b8ff" points="144.87,-125 154.87,-121.5 144.87,-118 144.87,-125"/>
</a>
</g>
</g>
<!-- Node11 -->
<g id="Node000011" class="node">
<title>Node11</title>
<g id="a_Node000011"><a xlink:href="uart__app_8c.html#af8629c1a7d2b90c4b857d1ab5ab812fd" target="_top" xlink:title="Read one byte from the RX ring buffer without blocking.">
<polygon fill="white" stroke="#666666" points="403,-206 279,-206 279,-187 403,-187 403,-206"/>
<text text-anchor="middle" x="341" y="-194" font-family="Helvetica,sans-Serif" font-size="10.00">uart_async_read_byte</text>
</a>
</g>
</g>
<!-- Node10&#45;&gt;Node11 -->
<g id="edge8_Node000010_Node000011" class="edge">
<title>Node10&#45;&gt;Node11</title>
<g id="a_edge8_Node000010_Node000011"><a xlink:title=" ">
<path fill="none" stroke="#63b8ff" d="M428.76,-192.67C420.17,-193.05 411.46,-193.43 403.04,-193.8"/>
<polygon fill="#63b8ff" stroke="#63b8ff" points="428.93,-196.16 438.77,-192.23 428.62,-189.17 428.93,-196.16"/>
</a>
</g>
</g>
<!-- Node12 -->
<g id="Node000012" class="node">
<title>Node12</title>
<g id="a_Node000012"><a xlink:href="uart__app_8c.html#a2705fba771080d1a41e60a74e6e56926" target="_top" xlink:title="Receive exactly len bytes from the UART RX ring buffer, blocking until all bytes arrive or timeout ex...">
<polygon fill="white" stroke="#666666" points="393.5,-169 288.5,-169 288.5,-150 393.5,-150 393.5,-169"/>
<text text-anchor="middle" x="341" y="-157" font-family="Helvetica,sans-Serif" font-size="10.00">uart_sync_receive</text>
</a>
</g>
</g>
<!-- Node10&#45;&gt;Node12 -->
<g id="edge9_Node000010_Node000012" class="edge">
<title>Node10&#45;&gt;Node12</title>
<g id="a_edge9_Node000010_Node000012"><a xlink:title=" ">
<path fill="none" stroke="#63b8ff" d="M439.8,-178.01C424.14,-175.05 407.45,-171.89 392.38,-169.04"/>
<polygon fill="#63b8ff" stroke="#63b8ff" points="439.44,-181.5 449.91,-179.93 440.74,-174.63 439.44,-181.5"/>
</a>
</g>
</g>
<!-- Node16 -->
<g id="Node000016" class="node">
<title>Node16</title>
<g id="a_Node000016"><a xlink:href="os__shell__management_8c.html#a674105c8790acda9c7e4ea9a74cf1aec" target="_top" xlink:title=" ">
<polygon fill="white" stroke="#666666" points="539,-93 464,-93 464,-74 539,-74 539,-93"/>
<text text-anchor="middle" x="501.5" y="-81" font-family="Helvetica,sans-Serif" font-size="10.00">_shell_write</text>
</a>
</g>
</g>
<!-- Node15&#45;&gt;Node16 -->
<g id="edge13_Node000015_Node000016" class="edge">
<title>Node15&#45;&gt;Node16</title>
<g id="a_edge13_Node000015_Node000016"><a xlink:title=" ">
<path fill="none" stroke="#63b8ff" d="M595.93,-65.06C576.95,-68.81 556.44,-72.85 539.48,-76.2"/>
<polygon fill="#63b8ff" stroke="#63b8ff" points="596.86,-68.44 605.99,-63.07 595.5,-61.58 596.86,-68.44"/>
</a>
</g>
</g>
<!-- Node19 -->
<g id="Node000019" class="node">
<title>Node19</title>
<g id="a_Node000019"><a xlink:href="uart__mgmt_8c.html#a92576ac01ea62a4da3a4bb9c598d8e7b" target="_top" xlink:title=" ">
<polygon fill="white" stroke="#666666" points="538,-56 465,-56 465,-37 538,-37 538,-56"/>
<text text-anchor="middle" x="501.5" y="-44" font-family="Helvetica,sans-Serif" font-size="10.00">_uart_rx_cb</text>
</a>
</g>
</g>
<!-- Node15&#45;&gt;Node19 -->
<g id="edge18_Node000015_Node000019" class="edge">
<title>Node15&#45;&gt;Node19</title>
<g id="a_edge18_Node000015_Node000019"><a xlink:title=" ">
<path fill="none" stroke="#63b8ff" d="M592.12,-50.63C573.73,-49.78 554.25,-48.88 538.16,-48.14"/>
<polygon fill="#63b8ff" stroke="#63b8ff" points="592.04,-54.13 602.19,-51.09 592.36,-47.13 592.04,-54.13"/>
</a>
</g>
</g>
<!-- Node22 -->
<g id="Node000022" class="node">
<title>Node22</title>
<g id="a_Node000022"><a xlink:href="syscalls_8c.html#ae9112526a914a06994511bdf3095b0a9" target="_top" xlink:title=" ">
<polygon fill="white" stroke="#666666" points="524,-19 479,-19 479,0 524,0 524,-19"/>
<text text-anchor="middle" x="501.5" y="-7" font-family="Helvetica,sans-Serif" font-size="10.00">printk</text>
</a>
</g>
</g>
<!-- Node15&#45;&gt;Node22 -->
<g id="edge20_Node000015_Node000022" class="edge">
<title>Node15&#45;&gt;Node22</title>
<g id="a_edge20_Node000015_Node000022"><a xlink:title=" ">
<path fill="none" stroke="#63b8ff" d="M611.78,-41.14C583.25,-32.87 546.91,-22.36 524.17,-15.77"/>
<polygon fill="#63b8ff" stroke="#63b8ff" points="610.94,-44.53 621.52,-43.95 612.89,-37.81 610.94,-44.53"/>
</a>
</g>
</g>
<!-- Node16&#45;&gt;Node6 -->
<g id="edge15_Node000016_Node000006" class="edge">
<title>Node16&#45;&gt;Node6</title>
<g id="a_edge15_Node000016_Node000006"><a xlink:title=" ">
<path fill="none" stroke="#63b8ff" d="M453.42,-93.02C437.46,-96.03 419.5,-99.17 403,-101.5 348.12,-109.25 284.48,-115 243.29,-118.3"/>
<polygon fill="#63b8ff" stroke="#63b8ff" points="454.42,-96.39 463.58,-91.07 453.1,-89.52 454.42,-96.39"/>
</a>
</g>
</g>
<!-- Node17 -->
<g id="Node000017" class="node">
<title>Node17</title>
<g id="a_Node000017"><a xlink:href="os__shell__management_8c.html#a038e91f0ffdf433bba8536c74ef958d9" target="_top" xlink:title=" ">
<polygon fill="white" stroke="#666666" points="388.5,-93 293.5,-93 293.5,-74 388.5,-74 388.5,-93"/>
<text text-anchor="middle" x="341" y="-81" font-family="Helvetica,sans-Serif" font-size="10.00">_cmd_reboot_fn</text>
</a>
</g>
</g>
<!-- Node16&#45;&gt;Node17 -->
<g id="edge14_Node000016_Node000017" class="edge">
<title>Node16&#45;&gt;Node17</title>
<g id="a_edge14_Node000016_Node000017"><a xlink:title=" ">
<path fill="none" stroke="#63b8ff" d="M453.65,-83.5C433.1,-83.5 409.03,-83.5 388.51,-83.5"/>
<polygon fill="#63b8ff" stroke="#63b8ff" points="453.74,-87 463.74,-83.5 453.74,-80 453.74,-87"/>
</a>
</g>
</g>
<!-- Node18 -->
<g id="Node000018" class="node">
<title>Node18</title>
<g id="a_Node000018"><a xlink:href="os__shell__management_8c.html#a4dcab531b1b38b06384ff4035db371da" target="_top" xlink:title=" ">
<polygon fill="white" stroke="#666666" points="396.5,-56 285.5,-56 285.5,-37 396.5,-37 396.5,-56"/>
<text text-anchor="middle" x="341" y="-44" font-family="Helvetica,sans-Serif" font-size="10.00">_shell_process_line</text>
</a>
</g>
</g>
<!-- Node16&#45;&gt;Node18 -->
<g id="edge16_Node000016_Node000018" class="edge">
<title>Node16&#45;&gt;Node18</title>
<g id="a_edge16_Node000016_Node000018"><a xlink:title=" ">
<path fill="none" stroke="#63b8ff" d="M453.72,-72.58C431.19,-67.32 404.42,-61.07 382.74,-56.01"/>
<polygon fill="#63b8ff" stroke="#63b8ff" points="453.2,-76.05 463.74,-74.92 454.8,-69.24 453.2,-76.05"/>
</a>
</g>
</g>
<!-- Node18&#45;&gt;Node6 -->
<g id="edge17_Node000018_Node000006" class="edge">
<title>Node18&#45;&gt;Node6</title>
<g id="a_edge17_Node000018_Node000006"><a xlink:title=" ">
<path fill="none" stroke="#63b8ff" d="M290.91,-59.38C286.81,-60.93 282.79,-62.64 279,-64.5 252.43,-77.53 225.27,-99.38 210.74,-111.91"/>
<polygon fill="#63b8ff" stroke="#63b8ff" points="292.25,-62.62 300.53,-56.02 289.94,-56.01 292.25,-62.62"/>
</a>
</g>
</g>
<!-- Node20 -->
<g id="Node000020" class="node">
<title>Node20</title>
<g id="a_Node000020"><a xlink:href="uart__mgmt_8c.html#af8eff33b840c2e11d5bd889fd97c705a" target="_top" xlink:title=" ">
<polygon fill="#fff0f0" stroke="red" points="394.5,-19 287.5,-19 287.5,0 394.5,0 394.5,-19"/>
<text text-anchor="middle" x="341" y="-7" font-family="Helvetica,sans-Serif" font-size="10.00">uart_mgmt_thread</text>
</a>
</g>
</g>
<!-- Node19&#45;&gt;Node20 -->
<g id="edge19_Node000019_Node000020" class="edge">
<title>Node19&#45;&gt;Node20</title>
<g id="a_edge19_Node000019_Node000020"><a xlink:title=" ">
<path fill="none" stroke="#63b8ff" d="M455.14,-35.91C432.33,-30.59 404.9,-24.18 382.77,-19.02"/>
<polygon fill="#63b8ff" stroke="#63b8ff" points="454.4,-39.33 464.93,-38.2 455.99,-32.51 454.4,-39.33"/>
</a>
</g>
</g>
</g>
</svg>

<g id="navigator" transform="translate(0 0)" fill="#404254">
  <rect fill="#f2f5e9" fill-opacity="0.5" stroke="#606060" stroke-width=".5" x="0" y="0" width="60" height="60"/>
  <use id="zoomplus" xlink:href="#zoomPlus" x="17" y="9" onmousedown="handleZoom(evt,'in')"/>
  <use id="zoomminus" xlink:href="#zoomMin" x="42" y="9" onmousedown="handleZoom(evt,'out')"/>
  <use id="reset" xlink:href="#resetDef" x="30" y="36" onmousedown="handleReset()"/>
   <use id="arrowup" xlink:href="#arrowUp" x="0" y="0" onmousedown="handlePan(0,-1)"/>
  <use id="arrowright" xlink:href="#arrowRight" x="0" y="0" onmousedown="handlePan(1,0)"/>
  <use id="arrowdown" xlink:href="#arrowDown" x="0" y="0" onmousedown="handlePan(0,1)"/>
  <use id="arrowleft" xlink:href="#arrowLeft" x="0" y="0" onmousedown="handlePan(-1,0)"/>
</g>
<svg viewBox="0 0 15 15" width="100%" height="30px" preserveAspectRatio="xMaxYMin meet">
 <g id="arrow_out" transform="scale(0.3 0.3)">
  <a xlink:href="ringbuffer_8c_a0d9be0bc18b041c2946fd11f840206e9_icgraph_org.svg" target="_base">
   <rect id="button" ry="5" rx="5" y="6" x="6" height="38" width="38"
        fill="#f2f5e9" fill-opacity="0.5" stroke="#606060" stroke-width="1.0"/>
   <path id="arrow"
     d="M 11.500037,31.436501 C 11.940474,20.09759 22.043105,11.32322 32.158766,21.979434 L 37.068811,17.246167 C 37.068811,17.246167 37.088388,32 37.088388,32 L 22.160133,31.978069 C 22.160133,31.978069 26.997745,27.140456 26.997745,27.140456 C 18.528582,18.264221 13.291696,25.230495 11.500037,31.436501 z"
     style="fill:#404040;"/>
  </a>
 </g>
</svg>

<style type='text/css'>
<![CDATA[
[data-mouse-over-selected='false'] { opacity: 0.7; }
[data-mouse-over-selected='true']  { opacity: 1.0; }
]]>
</style>
<script type="application/ecmascript"><![CDATA[
document.addEventListener('DOMContentLoaded', (event) => {
  highlightEdges();
  highlightAdjacentNodes();
});
]]></script>
</svg>
