<?xml version="1.0" encoding="UTF-8" standalone="no"?>
<!DOCTYPE svg PUBLIC "-//W3C//DTD SVG 1.1//EN"
 "http://www.w3.org/Graphics/SVG/1.1/DTD/svg11.dtd">
<!-- Generated by graphviz version 2.43.0 (0)
 -->
<!-- Title: _data_len Pages: 1 -->
<!--zoomable 281 -->

<svg id="main" version="1.1" xmlns="http://www.w3.org/2000/svg" xmlns:xlink="http://www.w3.org/1999/xlink" xml:space="preserve" onload="init(evt)">
<style type="text/css"><![CDATA[
.node, .edge {opacity: 0.7;}
.node.selected, .edge.selected {opacity: 1;}
.edge:hover path { stroke: red; }
.edge:hover polygon { stroke: red; fill: red; }
]]></style>

<defs>
  <circle id="rim" cx="0" cy="0" r="7"/>
  <circle id="rim2" cx="0" cy="0" r="3.5"/>
  <g id="zoomPlus">
    <use xlink:href="#rim" fill="#404040"><set attributeName="fill" to="#808080" begin="zoomplus.mouseover" end="zoomplus.mouseout"/></use>
    <path d="M-4,0h8M0,-4v8" fill="none" stroke="white" stroke-width="1.5" pointer-events="none"/>
  </g>
  <g id="zoomMin">
    <use xlink:href="#rim" fill="#404040"><set attributeName="fill" to="#808080" begin="zoomminus.mouseover" end="zoomminus.mouseout"/></use>
    <path d="M-4,0h8" fill="none" stroke="white" stroke-width="1.5" pointer-events="none"/>
  </g>
  <g id="arrowUp" transform="translate(30 24)">
    <use xlink:href="#rim"/>
    <path pointer-events="none" fill="none" stroke="white" stroke-width="1.5" d="M0,-3.0v7 M-2.5,-0.5L0,-3.0L2.5,-0.5"/>
  </g>
  <g id="arrowRight" transform="rotate(90) translate(36 -43)">
    <use xlink:href="#rim"/>
    <path pointer-events="none" fill="none" stroke="white" stroke-width="1.5" d="M0,-3.0v7 M-2.5,-0.5L0,-3.0L2.5,-0.5"/>
  </g>
  <g id="arrowDown" transform="rotate(180) translate(-30 -48)">
    <use xlink:href="#rim"/>
    <path pointer-events="none" fill="none" stroke="white" stroke-width="1.5" d="M0,-3.0v7 M-2.5,-0.5L0,-3.0L2.5,-0.5"/>
  </g>
  <g id="arrowLeft" transform="rotate(270) translate(-36 17)">
    <use xlink:href="#rim"/>
    <path pointer-events="none" fill="none" stroke="white" stroke-width="1.5" d="M0,-3.0v7 M-2.5,-0.5L0,-3.0L2.5,-0.5"/>
  </g>
  <g id="resetDef">
    <use xlink:href="#rim2" fill="#404040"><set attributeName="fill" to="#808080" begin="reset.mouseover" end="reset.mouseout"/></use>
  </g>
</defs>
<script type="application/ecmascript">
var viewWidth = 998;
var viewHeight = 281;
var sectionId = 'dynsection-2';
</script>
<script type="application/ecmascript" xlink:href="svg.min.js"/>
<svg id="graph" class="graph">
<g id="viewport">
<title>_data_len</title>
<!-- Node1 -->
<g id="Node000001" class="node">
<title>Node1</title>
<g id="a_Node000001"><a xlink:title=" ">
<polygon fill="#999999" stroke="#666666" points="990,-177 926,-177 926,-158 990,-158 990,-177"/>
<text text-anchor="middle" x="958" y="-165" font-family="Helvetica,sans-Serif" font-size="10.00">_data_len</text>
</a>
</g>
</g>
<!-- Node2 -->
<g id="Node000002" class="node">
<title>Node2</title>
<g id="a_Node000002"><a xlink:href="ringbuffer_8c.html#ad0cff7710b47171c42be6b621f5f0245" target="_top" xlink:title=" ">
<polygon fill="white" stroke="#666666" points="890,-273 779,-273 779,-254 890,-254 890,-273"/>
<text text-anchor="middle" x="834.5" y="-261" font-family="Helvetica,sans-Serif" font-size="10.00">ringbuffer_data_len</text>
</a>
</g>
</g>
<!-- Node1&#45;&gt;Node2 -->
<g id="edge1_Node000001_Node000002" class="edge">
<title>Node1&#45;&gt;Node2</title>
<g id="a_edge1_Node000001_Node000002"><a xlink:title=" ">
<path fill="none" stroke="#63b8ff" d="M945.51,-185.93C933.62,-203.57 913.53,-229.74 890,-245.5 884.95,-248.88 879.21,-251.67 873.4,-253.97"/>
<polygon fill="#63b8ff" stroke="#63b8ff" points="948.71,-187.42 951.23,-177.13 942.84,-183.61 948.71,-187.42"/>
</a>
</g>
</g>
<!-- Node3 -->
<g id="Node000003" class="node">
<title>Node3</title>
<g id="a_Node000003"><a xlink:href="ringbuffer_8c.html#ab4188a990f89ed844defa8ee50049671" target="_top" xlink:title=" ">
<polygon fill="white" stroke="#666666" points="877,-236 792,-236 792,-217 877,-217 877,-236"/>
<text text-anchor="middle" x="834.5" y="-224" font-family="Helvetica,sans-Serif" font-size="10.00">ringbuffer_get</text>
</a>
</g>
</g>
<!-- Node1&#45;&gt;Node3 -->
<g id="edge2_Node000001_Node000003" class="edge">
<title>Node1&#45;&gt;Node3</title>
<g id="a_edge2_Node000001_Node000003"><a xlink:title=" ">
<path fill="none" stroke="#63b8ff" d="M934.88,-182.82C922.15,-191.17 905.63,-201.25 890,-208.5 883.22,-211.64 875.73,-214.49 868.54,-216.94"/>
<polygon fill="#63b8ff" stroke="#63b8ff" points="937.04,-185.58 943.4,-177.11 933.15,-179.77 937.04,-185.58"/>
</a>
</g>
</g>
<!-- Node4 -->
<g id="Node000004" class="node">
<title>Node4</title>
<g id="a_Node000004"><a xlink:href="ringbuffer_8c.html#a3ad0c7d81e438887de4a1e02f25d4796" target="_top" xlink:title=" ">
<polygon fill="white" stroke="#666666" points="887.5,-199 781.5,-199 781.5,-180 887.5,-180 887.5,-199"/>
<text text-anchor="middle" x="834.5" y="-187" font-family="Helvetica,sans-Serif" font-size="10.00">ringbuffer_getchar</text>
</a>
</g>
</g>
<!-- Node1&#45;&gt;Node4 -->
<g id="edge3_Node000001_Node000004" class="edge">
<title>Node1&#45;&gt;Node4</title>
<g id="a_edge3_Node000001_Node000004"><a xlink:title=" ">
<path fill="none" stroke="#63b8ff" d="M915.59,-175C906.68,-176.61 897.16,-178.34 887.89,-180.01"/>
<polygon fill="#63b8ff" stroke="#63b8ff" points="916.49,-178.39 925.71,-173.17 915.25,-171.5 916.49,-178.39"/>
</a>
</g>
</g>
<!-- Node12 -->
<g id="Node000012" class="node">
<title>Node12</title>
<g id="a_Node000012"><a xlink:href="ringbuffer_8c.html#a196e803edf76a774be3c2c33c338a21a" target="_top" xlink:title=" ">
<polygon fill="white" stroke="#666666" points="887.5,-161.5 781.5,-161.5 781.5,-131.5 887.5,-131.5 887.5,-161.5"/>
<text text-anchor="start" x="789.5" y="-149.5" font-family="Helvetica,sans-Serif" font-size="10.00">ringbuffer_getchar</text>
<text text-anchor="middle" x="834.5" y="-138.5" font-family="Helvetica,sans-Serif" font-size="10.00">_from_isr</text>
</a>
</g>
</g>
<!-- Node1&#45;&gt;Node12 -->
<g id="edge10_Node000001_Node000012" class="edge">
<title>Node1&#45;&gt;Node12</title>
<g id="a_edge10_Node000001_Node000012"><a xlink:title=" ">
<path fill="none" stroke="#63b8ff" d="M915.59,-160.34C906.68,-158.8 897.16,-157.16 887.89,-155.56"/>
<polygon fill="#63b8ff" stroke="#63b8ff" points="915.26,-163.84 925.71,-162.09 916.45,-156.94 915.26,-163.84"/>
</a>
</g>
</g>
<!-- Node13 -->
<g id="Node000013" class="node">
<title>Node13</title>
<g id="a_Node000013"><a xlink:href="ringbuffer_8c.html#a22f7f922ef4c2f6cfec06cea5a294c1d" target="_top" xlink:title=" ">
<polygon fill="white" stroke="#666666" points="877,-113 792,-113 792,-94 877,-94 877,-113"/>
<text text-anchor="middle" x="834.5" y="-101" font-family="Helvetica,sans-Serif" font-size="10.00">ringbuffer_put</text>
</a>
</g>
</g>
<!-- Node1&#45;&gt;Node13 -->
<g id="edge11_Node000001_Node000013" class="edge">
<title>Node1&#45;&gt;Node13</title>
<g id="a_edge11_Node000001_Node000013"><a xlink:title=" ">
<path fill="none" stroke="#63b8ff" d="M936.61,-151.79C923.74,-142.41 906.5,-130.74 890,-122.5 882.83,-118.92 874.82,-115.72 867.19,-113.01"/>
<polygon fill="#63b8ff" stroke="#63b8ff" points="934.64,-154.69 944.75,-157.86 938.82,-149.08 934.64,-154.69"/>
</a>
</g>
</g>
<!-- Node14 -->
<g id="Node000014" class="node">
<title>Node14</title>
<g id="a_Node000014"><a xlink:href="ringbuffer_8c.html#ab0175d641c6489e01eb1f11eb161307a" target="_top" xlink:title=" ">
<polygon fill="white" stroke="#666666" points="887.5,-63 781.5,-63 781.5,-44 887.5,-44 887.5,-63"/>
<text text-anchor="middle" x="834.5" y="-51" font-family="Helvetica,sans-Serif" font-size="10.00">ringbuffer_putchar</text>
</a>
</g>
</g>
<!-- Node1&#45;&gt;Node14 -->
<g id="edge12_Node000001_Node000014" class="edge">
<title>Node1&#45;&gt;Node14</title>
<g id="a_edge12_Node000001_Node000014"><a xlink:title=" ">
<path fill="none" stroke="#63b8ff" d="M945.35,-149.36C933.13,-131.35 912.59,-103.7 890,-84.5 879.88,-75.9 867.03,-68.46 856.35,-63.02"/>
<polygon fill="#63b8ff" stroke="#63b8ff" points="942.5,-151.41 950.94,-157.81 948.34,-147.55 942.5,-151.41"/>
</a>
</g>
</g>
<!-- Node5 -->
<g id="Node000005" class="node">
<title>Node5</title>
<g id="a_Node000005"><a xlink:href="os__shell__management_8c.html#a5b7eb0bbbac6bbc8febc3cf4a41932f5" target="_top" xlink:title=" ">
<polygon fill="white" stroke="#666666" points="422,-112 334,-112 334,-93 422,-93 422,-112"/>
<text text-anchor="middle" x="378" y="-100" font-family="Helvetica,sans-Serif" font-size="10.00">_os_shell_task</text>
</a>
</g>
</g>
<!-- Node4&#45;&gt;Node5 -->
<g id="edge4_Node000004_Node000005" class="edge">
<title>Node4&#45;&gt;Node5</title>
<g id="a_edge4_Node000004_Node000005"><a xlink:title=" ">
<path fill="none" stroke="#63b8ff" d="M784.93,-201.22C771.43,-204.06 756.71,-206.77 743,-208.5 617.29,-224.32 570.37,-274.05 458,-215.5 414.91,-193.05 390.48,-135.15 382.22,-112.14"/>
<polygon fill="#63b8ff" stroke="#63b8ff" points="785.95,-204.58 794.98,-199.04 784.46,-197.74 785.95,-204.58"/>
</a>
</g>
</g>
<!-- Node9 -->
<g id="Node000009" class="node">
<title>Node9</title>
<g id="a_Node000009"><a xlink:href="uart__mgmt_8c.html#aa83680295a6822a437bc349e63451236" target="_top" xlink:title="Read one byte from the UART RX ring buffer.">
<polygon fill="white" stroke="#666666" points="743,-199 618,-199 618,-180 743,-180 743,-199"/>
<text text-anchor="middle" x="680.5" y="-187" font-family="Helvetica,sans-Serif" font-size="10.00">uart_mgmt_read_byte</text>
</a>
</g>
</g>
<!-- Node4&#45;&gt;Node9 -->
<g id="edge7_Node000004_Node000009" class="edge">
<title>Node4&#45;&gt;Node9</title>
<g id="a_edge7_Node000004_Node000009"><a xlink:title=" ">
<path fill="none" stroke="#63b8ff" d="M770.94,-189.5C761.73,-189.5 752.26,-189.5 743.07,-189.5"/>
<polygon fill="#63b8ff" stroke="#63b8ff" points="771.19,-193 781.19,-189.5 771.19,-186 771.19,-193"/>
</a>
</g>
</g>
<!-- Node6 -->
<g id="Node000006" class="node">
<title>Node6</title>
<g id="a_Node000006"><a xlink:href="os__shell__management_8c.html#a8fae79f71d15477bc1251891e977e46e" target="_top" xlink:title="Create and start the OS shell management task.">
<polygon fill="white" stroke="#666666" points="298,-93 179,-93 179,-74 298,-74 298,-93"/>
<text text-anchor="middle" x="238.5" y="-81" font-family="Helvetica,sans-Serif" font-size="10.00">os_shell_mgmt_start</text>
</a>
</g>
</g>
<!-- Node5&#45;&gt;Node6 -->
<g id="edge5_Node000005_Node000006" class="edge">
<title>Node5&#45;&gt;Node6</title>
<g id="a_edge5_Node000005_Node000006"><a xlink:title=" ">
<path fill="none" stroke="#63b8ff" d="M323.8,-95.15C315.38,-93.99 306.63,-92.78 298.1,-91.6"/>
<polygon fill="#63b8ff" stroke="#63b8ff" points="323.49,-98.64 333.87,-96.54 324.44,-91.7 323.49,-98.64"/>
</a>
</g>
</g>
<!-- Node7 -->
<g id="Node000007" class="node">
<title>Node7</title>
<g id="a_Node000007"><a xlink:href="kernel__service__core_8c.html#a77b96ca30dab7f5f8e84daae1ed8f183" target="_top" xlink:title=" ">
<polygon fill="#fff0f0" stroke="red" points="143,-74 0,-74 0,-55 143,-55 143,-74"/>
<text text-anchor="middle" x="71.5" y="-62" font-family="Helvetica,sans-Serif" font-size="10.00">os_kernel_thread_register</text>
</a>
</g>
</g>
<!-- Node6&#45;&gt;Node7 -->
<g id="edge6_Node000006_Node000007" class="edge">
<title>Node6&#45;&gt;Node7</title>
<g id="a_edge6_Node000006_Node000007"><a xlink:title=" ">
<path fill="none" stroke="#63b8ff" d="M168.67,-75.57C160.22,-74.6 151.57,-73.61 143.09,-72.63"/>
<polygon fill="#63b8ff" stroke="#63b8ff" points="168.53,-79.08 178.86,-76.75 169.33,-72.13 168.53,-79.08"/>
</a>
</g>
</g>
<!-- Node10 -->
<g id="Node000010" class="node">
<title>Node10</title>
<g id="a_Node000010"><a xlink:href="uart__app_8c.html#af8629c1a7d2b90c4b857d1ab5ab812fd" target="_top" xlink:title="Read one byte from the RX ring buffer without blocking.">
<polygon fill="white" stroke="#666666" points="582,-206 458,-206 458,-187 582,-187 582,-206"/>
<text text-anchor="middle" x="520" y="-194" font-family="Helvetica,sans-Serif" font-size="10.00">uart_async_read_byte</text>
</a>
</g>
</g>
<!-- Node9&#45;&gt;Node10 -->
<g id="edge8_Node000009_Node000010" class="edge">
<title>Node9&#45;&gt;Node10</title>
<g id="a_edge8_Node000009_Node000010"><a xlink:title=" ">
<path fill="none" stroke="#63b8ff" d="M607.76,-192.67C599.17,-193.05 590.46,-193.43 582.04,-193.8"/>
<polygon fill="#63b8ff" stroke="#63b8ff" points="607.93,-196.16 617.77,-192.23 607.62,-189.17 607.93,-196.16"/>
</a>
</g>
</g>
<!-- Node11 -->
<g id="Node000011" class="node">
<title>Node11</title>
<g id="a_Node000011"><a xlink:href="uart__app_8c.html#a2705fba771080d1a41e60a74e6e56926" target="_top" xlink:title="Receive exactly len bytes from the UART RX ring buffer, blocking until all bytes arrive or timeout ex...">
<polygon fill="white" stroke="#666666" points="572.5,-169 467.5,-169 467.5,-150 572.5,-150 572.5,-169"/>
<text text-anchor="middle" x="520" y="-157" font-family="Helvetica,sans-Serif" font-size="10.00">uart_sync_receive</text>
</a>
</g>
</g>
<!-- Node9&#45;&gt;Node11 -->
<g id="edge9_Node000009_Node000011" class="edge">
<title>Node9&#45;&gt;Node11</title>
<g id="a_edge9_Node000009_Node000011"><a xlink:title=" ">
<path fill="none" stroke="#63b8ff" d="M618.8,-178.01C603.14,-175.05 586.45,-171.89 571.38,-169.04"/>
<polygon fill="#63b8ff" stroke="#63b8ff" points="618.44,-181.5 628.91,-179.93 619.74,-174.63 618.44,-181.5"/>
</a>
</g>
</g>
<!-- Node15 -->
<g id="Node000015" class="node">
<title>Node15</title>
<g id="a_Node000015"><a xlink:href="os__shell__management_8c.html#a674105c8790acda9c7e4ea9a74cf1aec" target="_top" xlink:title=" ">
<polygon fill="white" stroke="#666666" points="718,-93 643,-93 643,-74 718,-74 718,-93"/>
<text text-anchor="middle" x="680.5" y="-81" font-family="Helvetica,sans-Serif" font-size="10.00">_shell_write</text>
</a>
</g>
</g>
<!-- Node14&#45;&gt;Node15 -->
<g id="edge13_Node000014_Node000015" class="edge">
<title>Node14&#45;&gt;Node15</title>
<g id="a_edge13_Node000014_Node000015"><a xlink:title=" ">
<path fill="none" stroke="#63b8ff" d="M774.93,-65.06C755.95,-68.81 735.44,-72.85 718.48,-76.2"/>
<polygon fill="#63b8ff" stroke="#63b8ff" points="775.86,-68.44 784.99,-63.07 774.5,-61.58 775.86,-68.44"/>
</a>
</g>
</g>
<!-- Node18 -->
<g id="Node000018" class="node">
<title>Node18</title>
<g id="a_Node000018"><a xlink:href="uart__mgmt_8c.html#a92576ac01ea62a4da3a4bb9c598d8e7b" target="_top" xlink:title=" ">
<polygon fill="white" stroke="#666666" points="717,-56 644,-56 644,-37 717,-37 717,-56"/>
<text text-anchor="middle" x="680.5" y="-44" font-family="Helvetica,sans-Serif" font-size="10.00">_uart_rx_cb</text>
</a>
</g>
</g>
<!-- Node14&#45;&gt;Node18 -->
<g id="edge18_Node000014_Node000018" class="edge">
<title>Node14&#45;&gt;Node18</title>
<g id="a_edge18_Node000014_Node000018"><a xlink:title=" ">
<path fill="none" stroke="#63b8ff" d="M771.12,-50.63C752.73,-49.78 733.25,-48.88 717.16,-48.14"/>
<polygon fill="#63b8ff" stroke="#63b8ff" points="771.04,-54.13 781.19,-51.09 771.36,-47.13 771.04,-54.13"/>
</a>
</g>
</g>
<!-- Node21 -->
<g id="Node000021" class="node">
<title>Node21</title>
<g id="a_Node000021"><a xlink:href="syscalls_8c.html#ae9112526a914a06994511bdf3095b0a9" target="_top" xlink:title=" ">
<polygon fill="white" stroke="#666666" points="703,-19 658,-19 658,0 703,0 703,-19"/>
<text text-anchor="middle" x="680.5" y="-7" font-family="Helvetica,sans-Serif" font-size="10.00">printk</text>
</a>
</g>
</g>
<!-- Node14&#45;&gt;Node21 -->
<g id="edge22_Node000014_Node000021" class="edge">
<title>Node14&#45;&gt;Node21</title>
<g id="a_edge22_Node000014_Node000021"><a xlink:title=" ">
<path fill="none" stroke="#63b8ff" d="M790.78,-41.14C762.25,-32.87 725.91,-22.36 703.17,-15.77"/>
<polygon fill="#63b8ff" stroke="#63b8ff" points="789.94,-44.53 800.52,-43.95 791.89,-37.81 789.94,-44.53"/>
</a>
</g>
</g>
<!-- Node15&#45;&gt;Node5 -->
<g id="edge15_Node000015_Node000005" class="edge">
<title>Node15&#45;&gt;Node5</title>
<g id="a_edge15_Node000015_Node000005"><a xlink:title=" ">
<path fill="none" stroke="#63b8ff" d="M632.52,-93.92C616.57,-96.99 598.59,-99.94 582,-101.5 527.09,-106.66 463.45,-105.89 422.27,-104.5"/>
<polygon fill="#63b8ff" stroke="#63b8ff" points="633.55,-97.28 642.68,-91.9 632.19,-90.41 633.55,-97.28"/>
</a>
</g>
</g>
<!-- Node16 -->
<g id="Node000016" class="node">
<title>Node16</title>
<g id="a_Node000016"><a xlink:href="os__shell__management_8c.html#a038e91f0ffdf433bba8536c74ef958d9" target="_top" xlink:title=" ">
<polygon fill="white" stroke="#666666" points="567.5,-93 472.5,-93 472.5,-74 567.5,-74 567.5,-93"/>
<text text-anchor="middle" x="520" y="-81" font-family="Helvetica,sans-Serif" font-size="10.00">_cmd_reboot_fn</text>
</a>
</g>
</g>
<!-- Node15&#45;&gt;Node16 -->
<g id="edge14_Node000015_Node000016" class="edge">
<title>Node15&#45;&gt;Node16</title>
<g id="a_edge14_Node000015_Node000016"><a xlink:title=" ">
<path fill="none" stroke="#63b8ff" d="M632.65,-83.5C612.1,-83.5 588.03,-83.5 567.51,-83.5"/>
<polygon fill="#63b8ff" stroke="#63b8ff" points="632.74,-87 642.74,-83.5 632.74,-80 632.74,-87"/>
</a>
</g>
</g>
<!-- Node17 -->
<g id="Node000017" class="node">
<title>Node17</title>
<g id="a_Node000017"><a xlink:href="os__shell__management_8c.html#a4dcab531b1b38b06384ff4035db371da" target="_top" xlink:title=" ">
<polygon fill="white" stroke="#666666" points="575.5,-56 464.5,-56 464.5,-37 575.5,-37 575.5,-56"/>
<text text-anchor="middle" x="520" y="-44" font-family="Helvetica,sans-Serif" font-size="10.00">_shell_process_line</text>
</a>
</g>
</g>
<!-- Node15&#45;&gt;Node17 -->
<g id="edge16_Node000015_Node000017" class="edge">
<title>Node15&#45;&gt;Node17</title>
<g id="a_edge16_Node000015_Node000017"><a xlink:title=" ">
<path fill="none" stroke="#63b8ff" d="M632.72,-72.58C610.19,-67.32 583.42,-61.07 561.74,-56.01"/>
<polygon fill="#63b8ff" stroke="#63b8ff" points="632.2,-76.05 642.74,-74.92 633.8,-69.24 632.2,-76.05"/>
</a>
</g>
</g>
<!-- Node17&#45;&gt;Node5 -->
<g id="edge17_Node000017_Node000005" class="edge">
<title>Node17&#45;&gt;Node5</title>
<g id="a_edge17_Node000017_Node000005"><a xlink:title=" ">
<path fill="none" stroke="#63b8ff" d="M473.27,-59.12C468.08,-60.81 462.9,-62.61 458,-64.5 436.41,-72.81 412.61,-84.65 396.83,-92.9"/>
<polygon fill="#63b8ff" stroke="#63b8ff" points="474.69,-62.34 483.19,-56.02 472.61,-55.66 474.69,-62.34"/>
</a>
</g>
</g>
<!-- Node19 -->
<g id="Node000019" class="node">
<title>Node19</title>
<g id="a_Node000019"><a xlink:href="uart__mgmt_8c.html#af8eff33b840c2e11d5bd889fd97c705a" target="_top" xlink:title=" ">
<polygon fill="white" stroke="#666666" points="573.5,-19 466.5,-19 466.5,0 573.5,0 573.5,-19"/>
<text text-anchor="middle" x="520" y="-7" font-family="Helvetica,sans-Serif" font-size="10.00">uart_mgmt_thread</text>
</a>
</g>
</g>
<!-- Node18&#45;&gt;Node19 -->
<g id="edge19_Node000018_Node000019" class="edge">
<title>Node18&#45;&gt;Node19</title>
<g id="a_edge19_Node000018_Node000019"><a xlink:title=" ">
<path fill="none" stroke="#63b8ff" d="M634.14,-35.91C611.33,-30.59 583.9,-24.18 561.77,-19.02"/>
<polygon fill="#63b8ff" stroke="#63b8ff" points="633.4,-39.33 643.93,-38.2 634.99,-32.51 633.4,-39.33"/>
</a>
</g>
</g>
<!-- Node20 -->
<g id="Node000020" class="node">
<title>Node20</title>
<g id="a_Node000020"><a xlink:href="uart__mgmt_8c.html#a8e8f570b41df4e77ed5acfbeaef25423" target="_top" xlink:title="Create and start the UART management thread.">
<polygon fill="white" stroke="#666666" points="287.5,-56 189.5,-56 189.5,-37 287.5,-37 287.5,-56"/>
<text text-anchor="middle" x="238.5" y="-44" font-family="Helvetica,sans-Serif" font-size="10.00">uart_mgmt_start</text>
</a>
</g>
</g>
<!-- Node19&#45;&gt;Node20 -->
<g id="edge20_Node000019_Node000020" class="edge">
<title>Node19&#45;&gt;Node20</title>
<g id="a_edge20_Node000019_Node000020"><a xlink:title=" ">
<path fill="none" stroke="#63b8ff" d="M456.5,-17.77C405.45,-24.53 334.34,-33.95 287.63,-40.13"/>
<polygon fill="#63b8ff" stroke="#63b8ff" points="456.97,-21.24 466.43,-16.46 456.06,-14.3 456.97,-21.24"/>
</a>
</g>
</g>
<!-- Node20&#45;&gt;Node7 -->
<g id="edge21_Node000020_Node000007" class="edge">
<title>Node20&#45;&gt;Node7</title>
<g id="a_edge21_Node000020_Node000007"><a xlink:title=" ">
<path fill="none" stroke="#63b8ff" d="M179.27,-52.85C167.58,-54.13 155.17,-55.48 143.11,-56.8"/>
<polygon fill="#63b8ff" stroke="#63b8ff" points="179.77,-56.32 189.33,-51.75 179.01,-49.36 179.77,-56.32"/>
</a>
</g>
</g>
</g>
</svg>

<g id="navigator" transform="translate(0 0)" fill="#404254">
  <rect fill="#f2f5e9" fill-opacity="0.5" stroke="#606060" stroke-width=".5" x="0" y="0" width="60" height="60"/>
  <use id="zoomplus" xlink:href="#zoomPlus" x="17" y="9" onmousedown="handleZoom(evt,'in')"/>
  <use id="zoomminus" xlink:href="#zoomMin" x="42" y="9" onmousedown="handleZoom(evt,'out')"/>
  <use id="reset" xlink:href="#resetDef" x="30" y="36" onmousedown="handleReset()"/>
   <use id="arrowup" xlink:href="#arrowUp" x="0" y="0" onmousedown="handlePan(0,-1)"/>
  <use id="arrowright" xlink:href="#arrowRight" x="0" y="0" onmousedown="handlePan(1,0)"/>
  <use id="arrowdown" xlink:href="#arrowDown" x="0" y="0" onmousedown="handlePan(0,1)"/>
  <use id="arrowleft" xlink:href="#arrowLeft" x="0" y="0" onmousedown="handlePan(-1,0)"/>
</g>
<svg viewBox="0 0 15 15" width="100%" height="30px" preserveAspectRatio="xMaxYMin meet">
 <g id="arrow_out" transform="scale(0.3 0.3)">
  <a xlink:href="ringbuffer_8c_abc6b533f80fb18ade4151b188f827c23_icgraph_org.svg" target="_base">
   <rect id="button" ry="5" rx="5" y="6" x="6" height="38" width="38"
        fill="#f2f5e9" fill-opacity="0.5" stroke="#606060" stroke-width="1.0"/>
   <path id="arrow"
     d="M 11.500037,31.436501 C 11.940474,20.09759 22.043105,11.32322 32.158766,21.979434 L 37.068811,17.246167 C 37.068811,17.246167 37.088388,32 37.088388,32 L 22.160133,31.978069 C 22.160133,31.978069 26.997745,27.140456 26.997745,27.140456 C 18.528582,18.264221 13.291696,25.230495 11.500037,31.436501 z"
     style="fill:#404040;"/>
  </a>
 </g>
</svg>

<style type='text/css'>
<![CDATA[
[data-mouse-over-selected='false'] { opacity: 0.7; }
[data-mouse-over-selected='true']  { opacity: 1.0; }
]]>
</style>
<script type="application/ecmascript"><![CDATA[
document.addEventListener('DOMContentLoaded', (event) => {
  highlightEdges();
  highlightAdjacentNodes();
});
]]></script>
</svg>
