<?xml version="1.0" encoding="UTF-8" standalone="no"?>
<!DOCTYPE svg PUBLIC "-//W3C//DTD SVG 1.1//EN"
 "http://www.w3.org/Graphics/SVG/1.1/DTD/svg11.dtd">
<!-- Generated by graphviz version 2.43.0 (0)
 -->
<!-- Title: shell_task_mgmt.c Pages: 1 -->
<svg width="1061pt" height="302pt"
 viewBox="0.00 0.00 1061.00 302.00" xmlns="http://www.w3.org/2000/svg" xmlns:xlink="http://www.w3.org/1999/xlink">
<g id="graph0" class="graph" transform="scale(1 1) rotate(0) translate(4 298)">
<title>shell_task_mgmt.c</title>
<!-- Node1 -->
<g id="Node000001" class="node">
<title>Node1</title>
<g id="a_Node000001"><a xlink:title=" ">
<polygon fill="#999999" stroke="#666666" points="414,-294 305,-294 305,-275 414,-275 414,-294"/>
<text text-anchor="middle" x="359.5" y="-282" font-family="Helvetica,sans-Serif" font-size="10.00">shell_task_mgmt.c</text>
</a>
</g>
</g>
<!-- Node2 -->
<g id="Node000002" class="node">
<title>Node2</title>
<g id="a_Node000002"><a xlink:href="shell__task__mgmt_8h.html" target="_top" xlink:title=" ">
<polygon fill="white" stroke="#666666" points="150.5,-239 14.5,-239 14.5,-220 150.5,-220 150.5,-239"/>
<text text-anchor="middle" x="82.5" y="-227" font-family="Helvetica,sans-Serif" font-size="10.00">shell/shell_task_mgmt.h</text>
</a>
</g>
</g>
<!-- Node1&#45;&gt;Node2 -->
<g id="edge1_Node000001_Node000002" class="edge">
<title>Node1&#45;&gt;Node2</title>
<g id="a_edge1_Node000001_Node000002"><a xlink:title=" ">
<path fill="none" stroke="#63b8ff" d="M315,-274.98C266.68,-265.74 189.46,-250.97 137.41,-241.01"/>
<polygon fill="#63b8ff" stroke="#63b8ff" points="137.83,-237.52 127.35,-239.08 136.52,-244.4 137.83,-237.52"/>
</a>
</g>
</g>
<!-- Node3 -->
<g id="Node000003" class="node">
<title>Node3</title>
<g id="a_Node000003"><a xlink:href="kernel__task__mgr_8h.html" target="_top" xlink:title=" ">
<polygon fill="white" stroke="#666666" points="226.5,-129 106.5,-129 106.5,-110 226.5,-110 226.5,-129"/>
<text text-anchor="middle" x="166.5" y="-117" font-family="Helvetica,sans-Serif" font-size="10.00">os/kernel_task_mgr.h</text>
</a>
</g>
</g>
<!-- Node1&#45;&gt;Node3 -->
<g id="edge2_Node000001_Node000003" class="edge">
<title>Node1&#45;&gt;Node3</title>
<g id="a_edge2_Node000001_Node000003"><a xlink:title=" ">
<path fill="none" stroke="#63b8ff" d="M304.98,-280.93C271.34,-276.54 229.59,-265.59 202.5,-239 175.1,-212.11 168.41,-165.07 166.87,-139.08"/>
<polygon fill="#63b8ff" stroke="#63b8ff" points="170.36,-138.91 166.47,-129.06 163.37,-139.19 170.36,-138.91"/>
</a>
</g>
</g>
<!-- Node6 -->
<g id="Node000006" class="node">
<title>Node6</title>
<g id="a_Node000006"><a xlink:title=" ">
<polygon fill="#e0e0e0" stroke="#999999" points="331.5,-74 259.5,-74 259.5,-55 331.5,-55 331.5,-74"/>
<text text-anchor="middle" x="295.5" y="-62" font-family="Helvetica,sans-Serif" font-size="10.00">FreeRTOS.h</text>
</a>
</g>
</g>
<!-- Node1&#45;&gt;Node6 -->
<g id="edge37_Node000001_Node000006" class="edge">
<title>Node1&#45;&gt;Node6</title>
<g id="a_edge37_Node000001_Node000006"><a xlink:title=" ">
<path fill="none" stroke="#63b8ff" d="M328.08,-274.97C310.16,-268.32 289.2,-257.09 278.5,-239 249.02,-189.17 273.09,-116.93 287.14,-83.6"/>
<polygon fill="#63b8ff" stroke="#63b8ff" points="290.44,-84.78 291.27,-74.22 284.04,-81.96 290.44,-84.78"/>
</a>
</g>
</g>
<!-- Node7 -->
<g id="Node000007" class="node">
<title>Node7</title>
<g id="a_Node000007"><a xlink:title=" ">
<polygon fill="#e0e0e0" stroke="#999999" points="241,-74 194,-74 194,-55 241,-55 241,-74"/>
<text text-anchor="middle" x="217.5" y="-62" font-family="Helvetica,sans-Serif" font-size="10.00">task.h</text>
</a>
</g>
</g>
<!-- Node1&#45;&gt;Node7 -->
<g id="edge38_Node000001_Node000007" class="edge">
<title>Node1&#45;&gt;Node7</title>
<g id="a_edge38_Node000001_Node000007"><a xlink:title=" ">
<path fill="none" stroke="#63b8ff" d="M353.93,-274.95C332.82,-242.54 257.42,-126.78 228.71,-82.71"/>
<polygon fill="#63b8ff" stroke="#63b8ff" points="231.57,-80.69 223.18,-74.22 225.71,-84.51 231.57,-80.69"/>
</a>
</g>
</g>
<!-- Node8 -->
<g id="Node000008" class="node">
<title>Node8</title>
<g id="a_Node000008"><a xlink:href="kernel__syscall_8h.html" target="_top" xlink:title=" ">
<polygon fill="white" stroke="#666666" points="481,-239 372,-239 372,-220 481,-220 481,-239"/>
<text text-anchor="middle" x="426.5" y="-227" font-family="Helvetica,sans-Serif" font-size="10.00">os/kernel_syscall.h</text>
</a>
</g>
</g>
<!-- Node1&#45;&gt;Node8 -->
<g id="edge7_Node000001_Node000008" class="edge">
<title>Node1&#45;&gt;Node8</title>
<g id="a_edge7_Node000001_Node000008"><a xlink:title=" ">
<path fill="none" stroke="#63b8ff" d="M370.26,-274.98C380.27,-267.07 395.39,-255.11 407.43,-245.58"/>
<polygon fill="#63b8ff" stroke="#63b8ff" points="409.87,-248.12 415.54,-239.17 405.53,-242.63 409.87,-248.12"/>
</a>
</g>
</g>
<!-- Node12 -->
<g id="Node000012" class="node">
<title>Node12</title>
<g id="a_Node000012"><a xlink:title=" ">
<polygon fill="#e0e0e0" stroke="#999999" points="830.5,-19 780.5,-19 780.5,0 830.5,0 830.5,-19"/>
<text text-anchor="middle" x="805.5" y="-7" font-family="Helvetica,sans-Serif" font-size="10.00">stdio.h</text>
</a>
</g>
</g>
<!-- Node1&#45;&gt;Node12 -->
<g id="edge40_Node000001_Node000012" class="edge">
<title>Node1&#45;&gt;Node12</title>
<g id="a_edge40_Node000001_Node000012"><a xlink:title=" ">
<path fill="none" stroke="#63b8ff" d="M414.18,-283.18C544.29,-280.95 861.5,-266.21 861.5,-175.5 861.5,-175.5 861.5,-175.5 861.5,-118.5 861.5,-82.65 836.88,-46.86 820.29,-26.81"/>
<polygon fill="#63b8ff" stroke="#63b8ff" points="822.94,-24.52 813.76,-19.23 817.63,-29.09 822.94,-24.52"/>
</a>
</g>
</g>
<!-- Node27 -->
<g id="Node000027" class="node">
<title>Node27</title>
<g id="a_Node000027"><a xlink:title=" ">
<polygon fill="#e0e0e0" stroke="#999999" points="981.5,-239 889.5,-239 889.5,-220 981.5,-220 981.5,-239"/>
<text text-anchor="middle" x="935.5" y="-227" font-family="Helvetica,sans-Serif" font-size="10.00">FreeRTOS_CLI.h</text>
</a>
</g>
</g>
<!-- Node1&#45;&gt;Node27 -->
<g id="edge39_Node000001_Node000027" class="edge">
<title>Node1&#45;&gt;Node27</title>
<g id="a_edge39_Node000001_Node000027"><a xlink:title=" ">
<path fill="none" stroke="#63b8ff" d="M414.21,-279.77C508.52,-273.12 707.77,-258.1 875.5,-239 876.76,-238.86 878.04,-238.71 879.33,-238.55"/>
<polygon fill="#63b8ff" stroke="#63b8ff" points="879.86,-242.01 889.34,-237.3 878.99,-235.07 879.86,-242.01"/>
</a>
</g>
</g>
<!-- Node28 -->
<g id="Node000028" class="node">
<title>Node28</title>
<g id="a_Node000028"><a xlink:title=" ">
<polygon fill="#e0e0e0" stroke="#999999" points="1053,-239 1000,-239 1000,-220 1053,-220 1053,-239"/>
<text text-anchor="middle" x="1026.5" y="-227" font-family="Helvetica,sans-Serif" font-size="10.00">string.h</text>
</a>
</g>
</g>
<!-- Node1&#45;&gt;Node28 -->
<g id="edge41_Node000001_Node000028" class="edge">
<title>Node1&#45;&gt;Node28</title>
<g id="a_edge41_Node000001_Node000028"><a xlink:title=" ">
<path fill="none" stroke="#63b8ff" d="M414.27,-282.61C522.48,-280.2 771.38,-271.47 989.81,-238.82"/>
<polygon fill="#63b8ff" stroke="#63b8ff" points="990.49,-242.26 999.86,-237.3 989.45,-235.33 990.49,-242.26"/>
</a>
</g>
</g>
<!-- Node4 -->
<g id="Node000004" class="node">
<title>Node4</title>
<g id="a_Node000004"><a xlink:title=" ">
<polygon fill="#e0e0e0" stroke="#999999" points="192,-19 139,-19 139,0 192,0 192,-19"/>
<text text-anchor="middle" x="165.5" y="-7" font-family="Helvetica,sans-Serif" font-size="10.00">stdint.h</text>
</a>
</g>
</g>
<!-- Node3&#45;&gt;Node4 -->
<g id="edge3_Node000003_Node000004" class="edge">
<title>Node3&#45;&gt;Node4</title>
<g id="a_edge3_Node000003_Node000004"><a xlink:title=" ">
<path fill="none" stroke="#63b8ff" d="M166.42,-109.66C166.26,-92.17 165.89,-52.8 165.67,-29.27"/>
<polygon fill="#63b8ff" stroke="#63b8ff" points="169.17,-29.13 165.58,-19.16 162.17,-29.19 169.17,-29.13"/>
</a>
</g>
</g>
<!-- Node5 -->
<g id="Node000005" class="node">
<title>Node5</title>
<g id="a_Node000005"><a xlink:title=" ">
<polygon fill="#e0e0e0" stroke="#999999" points="135.5,-74 79.5,-74 79.5,-55 135.5,-55 135.5,-74"/>
<text text-anchor="middle" x="107.5" y="-62" font-family="Helvetica,sans-Serif" font-size="10.00">stddef.h</text>
</a>
</g>
</g>
<!-- Node3&#45;&gt;Node5 -->
<g id="edge4_Node000003_Node000005" class="edge">
<title>Node3&#45;&gt;Node5</title>
<g id="a_edge4_Node000003_Node000005"><a xlink:title=" ">
<path fill="none" stroke="#63b8ff" d="M157.02,-109.98C148.3,-102.15 135.16,-90.34 124.6,-80.86"/>
<polygon fill="#63b8ff" stroke="#63b8ff" points="126.93,-78.25 117.15,-74.17 122.25,-83.46 126.93,-78.25"/>
</a>
</g>
</g>
<!-- Node3&#45;&gt;Node6 -->
<g id="edge5_Node000003_Node000006" class="edge">
<title>Node3&#45;&gt;Node6</title>
<g id="a_edge5_Node000003_Node000006"><a xlink:title=" ">
<path fill="none" stroke="#63b8ff" d="M187.23,-109.98C208.26,-101.34 241.05,-87.87 265.04,-78.02"/>
<polygon fill="#63b8ff" stroke="#63b8ff" points="266.48,-81.21 274.4,-74.17 263.82,-74.73 266.48,-81.21"/>
</a>
</g>
</g>
<!-- Node3&#45;&gt;Node7 -->
<g id="edge6_Node000003_Node000007" class="edge">
<title>Node3&#45;&gt;Node7</title>
<g id="a_edge6_Node000003_Node000007"><a xlink:title=" ">
<path fill="none" stroke="#63b8ff" d="M174.92,-109.75C182.27,-102.11 193.13,-90.82 202.04,-81.56"/>
<polygon fill="#63b8ff" stroke="#63b8ff" points="204.82,-83.72 209.24,-74.09 199.78,-78.87 204.82,-83.72"/>
</a>
</g>
</g>
<!-- Node8&#45;&gt;Node6 -->
<g id="edge34_Node000008_Node000006" class="edge">
<title>Node8&#45;&gt;Node6</title>
<g id="a_edge34_Node000008_Node000006"><a xlink:title=" ">
<path fill="none" stroke="#63b8ff" d="M416.48,-219.77C406.81,-211.13 391.97,-197.29 380.5,-184 351.27,-150.14 321.91,-106.58 306.51,-82.83"/>
<polygon fill="#63b8ff" stroke="#63b8ff" points="309.33,-80.75 300.98,-74.22 303.44,-84.53 309.33,-80.75"/>
</a>
</g>
</g>
<!-- Node9 -->
<g id="Node000009" class="node">
<title>Node9</title>
<g id="a_Node000009"><a xlink:href="def__std_8h.html" target="_top" xlink:title=" ">
<polygon fill="white" stroke="#666666" points="565.5,-74 503.5,-74 503.5,-55 565.5,-55 565.5,-74"/>
<text text-anchor="middle" x="534.5" y="-62" font-family="Helvetica,sans-Serif" font-size="10.00">def_std.h</text>
</a>
</g>
</g>
<!-- Node8&#45;&gt;Node9 -->
<g id="edge8_Node000008_Node000009" class="edge">
<title>Node8&#45;&gt;Node9</title>
<g id="a_edge8_Node000008_Node000009"><a xlink:title=" ">
<path fill="none" stroke="#63b8ff" d="M414.46,-219.89C398.63,-207.5 374.31,-184.03 387.5,-165 413.46,-127.55 446.58,-155.72 483.5,-129 500.62,-116.61 515.14,-97.03 524.26,-82.89"/>
<polygon fill="#63b8ff" stroke="#63b8ff" points="527.39,-84.47 529.67,-74.12 521.44,-80.79 527.39,-84.47"/>
</a>
</g>
</g>
<!-- Node16 -->
<g id="Node000016" class="node">
<title>Node16</title>
<g id="a_Node000016"><a xlink:href="conf__os_8h.html" target="_top" xlink:title=" ">
<polygon fill="white" stroke="#666666" points="825,-129 762,-129 762,-110 825,-110 825,-129"/>
<text text-anchor="middle" x="793.5" y="-117" font-family="Helvetica,sans-Serif" font-size="10.00">conf_os.h</text>
</a>
</g>
</g>
<!-- Node8&#45;&gt;Node16 -->
<g id="edge16_Node000008_Node000016" class="edge">
<title>Node8&#45;&gt;Node16</title>
<g id="a_edge16_Node000008_Node000016"><a xlink:title=" ">
<path fill="none" stroke="#63b8ff" d="M481.22,-226.01C580.81,-220.92 783.4,-207.73 804.5,-184 815.51,-171.62 810.1,-152.32 803.59,-138.24"/>
<polygon fill="#63b8ff" stroke="#63b8ff" points="806.56,-136.38 798.87,-129.09 800.34,-139.58 806.56,-136.38"/>
</a>
</g>
</g>
<!-- Node18 -->
<g id="Node000018" class="node">
<title>Node18</title>
<g id="a_Node000018"><a xlink:href="ipc_2ringbuffer_8h.html" target="_top" xlink:title=" ">
<polygon fill="white" stroke="#666666" points="89,-129 0,-129 0,-110 89,-110 89,-129"/>
<text text-anchor="middle" x="44.5" y="-117" font-family="Helvetica,sans-Serif" font-size="10.00">ipc/ringbuffer.h</text>
</a>
</g>
</g>
<!-- Node8&#45;&gt;Node18 -->
<g id="edge18_Node000008_Node000018" class="edge">
<title>Node8&#45;&gt;Node18</title>
<g id="a_edge18_Node000008_Node000018"><a xlink:title=" ">
<path fill="none" stroke="#63b8ff" d="M396.21,-219.94C327.81,-200.6 161.41,-153.55 84.59,-131.83"/>
<polygon fill="#63b8ff" stroke="#63b8ff" points="85.37,-128.42 74.8,-129.07 83.47,-135.15 85.37,-128.42"/>
</a>
</g>
</g>
<!-- Node19 -->
<g id="Node000019" class="node">
<title>Node19</title>
<g id="a_Node000019"><a xlink:href="drv__time_8h.html" target="_top" xlink:title=" ">
<polygon fill="white" stroke="#666666" points="684,-184 549,-184 549,-165 684,-165 684,-184"/>
<text text-anchor="middle" x="616.5" y="-172" font-family="Helvetica,sans-Serif" font-size="10.00">drivers/timer/drv_time.h</text>
</a>
</g>
</g>
<!-- Node8&#45;&gt;Node19 -->
<g id="edge21_Node000008_Node000019" class="edge">
<title>Node8&#45;&gt;Node19</title>
<g id="a_edge21_Node000008_Node000019"><a xlink:title=" ">
<path fill="none" stroke="#63b8ff" d="M457.03,-219.98C489.2,-211.01 540.06,-196.82 575.67,-186.89"/>
<polygon fill="#63b8ff" stroke="#63b8ff" points="577.04,-190.14 585.73,-184.08 575.16,-183.4 577.04,-190.14"/>
</a>
</g>
</g>
<!-- Node24 -->
<g id="Node000024" class="node">
<title>Node24</title>
<g id="a_Node000024"><a xlink:href="global__var_8h.html" target="_top" xlink:title=" ">
<polygon fill="white" stroke="#666666" points="795,-184 702,-184 702,-165 795,-165 795,-184"/>
<text text-anchor="middle" x="748.5" y="-172" font-family="Helvetica,sans-Serif" font-size="10.00">ipc/global_var.h</text>
</a>
</g>
</g>
<!-- Node8&#45;&gt;Node24 -->
<g id="edge30_Node000008_Node000024" class="edge">
<title>Node8&#45;&gt;Node24</title>
<g id="a_edge30_Node000008_Node000024"><a xlink:title=" ">
<path fill="none" stroke="#63b8ff" d="M478.23,-219.98C536.63,-210.37 631.35,-194.78 691.74,-184.84"/>
<polygon fill="#63b8ff" stroke="#63b8ff" points="692.56,-188.25 701.86,-183.18 691.43,-181.35 692.56,-188.25"/>
</a>
</g>
</g>
<!-- Node25 -->
<g id="Node000025" class="node">
<title>Node25</title>
<g id="a_Node000025"><a xlink:title=" ">
<polygon fill="#e0e0e0" stroke="#999999" points="456,-184 397,-184 397,-165 456,-165 456,-184"/>
<text text-anchor="middle" x="426.5" y="-172" font-family="Helvetica,sans-Serif" font-size="10.00">atomic.h</text>
</a>
</g>
</g>
<!-- Node8&#45;&gt;Node25 -->
<g id="edge35_Node000008_Node000025" class="edge">
<title>Node8&#45;&gt;Node25</title>
<g id="a_edge35_Node000008_Node000025"><a xlink:title=" ">
<path fill="none" stroke="#63b8ff" d="M426.5,-219.75C426.5,-212.8 426.5,-202.85 426.5,-194.13"/>
<polygon fill="#63b8ff" stroke="#63b8ff" points="430,-194.09 426.5,-184.09 423,-194.09 430,-194.09"/>
</a>
</g>
</g>
<!-- Node26 -->
<g id="Node000026" class="node">
<title>Node26</title>
<g id="a_Node000026"><a xlink:title=" ">
<polygon fill="#e0e0e0" stroke="#999999" points="530.5,-184 474.5,-184 474.5,-165 530.5,-165 530.5,-184"/>
<text text-anchor="middle" x="502.5" y="-172" font-family="Helvetica,sans-Serif" font-size="10.00">stdarg.h</text>
</a>
</g>
</g>
<!-- Node8&#45;&gt;Node26 -->
<g id="edge36_Node000008_Node000026" class="edge">
<title>Node8&#45;&gt;Node26</title>
<g id="a_edge36_Node000008_Node000026"><a xlink:title=" ">
<path fill="none" stroke="#63b8ff" d="M438.71,-219.98C450.28,-211.92 467.88,-199.65 481.66,-190.03"/>
<polygon fill="#63b8ff" stroke="#63b8ff" points="483.87,-192.76 490.07,-184.17 479.86,-187.02 483.87,-192.76"/>
</a>
</g>
</g>
<!-- Node9&#45;&gt;Node4 -->
<g id="edge14_Node000009_Node000004" class="edge">
<title>Node9&#45;&gt;Node4</title>
<g id="a_edge14_Node000009_Node000004"><a xlink:title=" ">
<path fill="none" stroke="#63b8ff" d="M503.1,-56.6C500.2,-56.03 497.3,-55.49 494.5,-55 388.96,-36.68 263.27,-21.51 202.31,-14.57"/>
<polygon fill="#63b8ff" stroke="#63b8ff" points="202.37,-11.05 192.04,-13.41 201.59,-18.01 202.37,-11.05"/>
</a>
</g>
</g>
<!-- Node10 -->
<g id="Node000010" class="node">
<title>Node10</title>
<g id="a_Node000010"><a xlink:title=" ">
<polygon fill="#e0e0e0" stroke="#999999" points="638,-19 585,-19 585,0 638,0 638,-19"/>
<text text-anchor="middle" x="611.5" y="-7" font-family="Helvetica,sans-Serif" font-size="10.00">stdlib.h</text>
</a>
</g>
</g>
<!-- Node9&#45;&gt;Node10 -->
<g id="edge9_Node000009_Node000010" class="edge">
<title>Node9&#45;&gt;Node10</title>
<g id="a_edge9_Node000009_Node000010"><a xlink:title=" ">
<path fill="none" stroke="#63b8ff" d="M546.87,-54.98C558.59,-46.92 576.42,-34.65 590.39,-25.03"/>
<polygon fill="#63b8ff" stroke="#63b8ff" points="592.65,-27.72 598.9,-19.17 588.68,-21.96 592.65,-27.72"/>
</a>
</g>
</g>
<!-- Node11 -->
<g id="Node000011" class="node">
<title>Node11</title>
<g id="a_Node000011"><a xlink:title=" ">
<polygon fill="#e0e0e0" stroke="#999999" points="707,-19 656,-19 656,0 707,0 707,-19"/>
<text text-anchor="middle" x="681.5" y="-7" font-family="Helvetica,sans-Serif" font-size="10.00">errno.h</text>
</a>
</g>
</g>
<!-- Node9&#45;&gt;Node11 -->
<g id="edge10_Node000009_Node000011" class="edge">
<title>Node9&#45;&gt;Node11</title>
<g id="a_edge10_Node000009_Node000011"><a xlink:title=" ">
<path fill="none" stroke="#63b8ff" d="M558.12,-54.98C582.4,-46.23 620.45,-32.51 647.87,-22.62"/>
<polygon fill="#63b8ff" stroke="#63b8ff" points="649.23,-25.85 657.45,-19.17 646.86,-19.27 649.23,-25.85"/>
</a>
</g>
</g>
<!-- Node9&#45;&gt;Node12 -->
<g id="edge11_Node000009_Node000012" class="edge">
<title>Node9&#45;&gt;Node12</title>
<g id="a_edge11_Node000009_Node000012"><a xlink:title=" ">
<path fill="none" stroke="#63b8ff" d="M565.93,-56.76C568.83,-56.16 571.72,-55.56 574.5,-55 643.76,-40.97 724.92,-25.58 770.25,-17.07"/>
<polygon fill="#63b8ff" stroke="#63b8ff" points="770.99,-20.5 780.17,-15.22 769.7,-13.62 770.99,-20.5"/>
</a>
</g>
</g>
<!-- Node13 -->
<g id="Node000013" class="node">
<title>Node13</title>
<g id="a_Node000013"><a xlink:title=" ">
<polygon fill="#e0e0e0" stroke="#999999" points="417,-19 362,-19 362,0 417,0 417,-19"/>
<text text-anchor="middle" x="389.5" y="-7" font-family="Helvetica,sans-Serif" font-size="10.00">signal.h</text>
</a>
</g>
</g>
<!-- Node9&#45;&gt;Node13 -->
<g id="edge12_Node000009_Node000013" class="edge">
<title>Node9&#45;&gt;Node13</title>
<g id="a_edge12_Node000009_Node000013"><a xlink:title=" ">
<path fill="none" stroke="#63b8ff" d="M511.2,-54.98C487.25,-46.23 449.72,-32.51 422.67,-22.62"/>
<polygon fill="#63b8ff" stroke="#63b8ff" points="423.81,-19.32 413.22,-19.17 421.41,-25.89 423.81,-19.32"/>
</a>
</g>
</g>
<!-- Node14 -->
<g id="Node000014" class="node">
<title>Node14</title>
<g id="a_Node000014"><a xlink:title=" ">
<polygon fill="#e0e0e0" stroke="#999999" points="483.5,-19 435.5,-19 435.5,0 483.5,0 483.5,-19"/>
<text text-anchor="middle" x="459.5" y="-7" font-family="Helvetica,sans-Serif" font-size="10.00">time.h</text>
</a>
</g>
</g>
<!-- Node9&#45;&gt;Node14 -->
<g id="edge13_Node000009_Node000014" class="edge">
<title>Node9&#45;&gt;Node14</title>
<g id="a_edge13_Node000009_Node000014"><a xlink:title=" ">
<path fill="none" stroke="#63b8ff" d="M522.45,-54.98C511.04,-46.92 493.67,-34.65 480.07,-25.03"/>
<polygon fill="#63b8ff" stroke="#63b8ff" points="481.96,-22.08 471.77,-19.17 477.92,-27.8 481.96,-22.08"/>
</a>
</g>
</g>
<!-- Node15 -->
<g id="Node000015" class="node">
<title>Node15</title>
<g id="a_Node000015"><a xlink:title=" ">
<polygon fill="#e0e0e0" stroke="#999999" points="567,-19 502,-19 502,0 567,0 567,-19"/>
<text text-anchor="middle" x="534.5" y="-7" font-family="Helvetica,sans-Serif" font-size="10.00">inttypes.h</text>
</a>
</g>
</g>
<!-- Node9&#45;&gt;Node15 -->
<g id="edge15_Node000009_Node000015" class="edge">
<title>Node9&#45;&gt;Node15</title>
<g id="a_edge15_Node000009_Node000015"><a xlink:title=" ">
<path fill="none" stroke="#63b8ff" d="M534.5,-54.75C534.5,-47.8 534.5,-37.85 534.5,-29.13"/>
<polygon fill="#63b8ff" stroke="#63b8ff" points="538,-29.09 534.5,-19.09 531,-29.09 538,-29.09"/>
</a>
</g>
</g>
<!-- Node17 -->
<g id="Node000017" class="node">
<title>Node17</title>
<g id="a_Node000017"><a xlink:href="autoconf_8h.html" target="_top" xlink:title=" ">
<polygon fill="white" stroke="#666666" points="827.5,-74 759.5,-74 759.5,-55 827.5,-55 827.5,-74"/>
<text text-anchor="middle" x="793.5" y="-62" font-family="Helvetica,sans-Serif" font-size="10.00">autoconf.h</text>
</a>
</g>
</g>
<!-- Node16&#45;&gt;Node17 -->
<g id="edge17_Node000016_Node000017" class="edge">
<title>Node16&#45;&gt;Node17</title>
<g id="a_edge17_Node000016_Node000017"><a xlink:title=" ">
<path fill="none" stroke="#63b8ff" d="M793.5,-109.75C793.5,-102.8 793.5,-92.85 793.5,-84.13"/>
<polygon fill="#63b8ff" stroke="#63b8ff" points="797,-84.09 793.5,-74.09 790,-84.09 797,-84.09"/>
</a>
</g>
</g>
<!-- Node18&#45;&gt;Node4 -->
<g id="edge19_Node000018_Node000004" class="edge">
<title>Node18&#45;&gt;Node4</title>
<g id="a_edge19_Node000018_Node000004"><a xlink:title=" ">
<path fill="none" stroke="#63b8ff" d="M46.01,-109.59C48.72,-96.17 55.55,-70.71 70.5,-55 86.4,-38.3 109.81,-27.23 129.41,-20.31"/>
<polygon fill="#63b8ff" stroke="#63b8ff" points="130.57,-23.61 138.96,-17.15 128.37,-16.97 130.57,-23.61"/>
</a>
</g>
</g>
<!-- Node18&#45;&gt;Node5 -->
<g id="edge20_Node000018_Node000005" class="edge">
<title>Node18&#45;&gt;Node5</title>
<g id="a_edge20_Node000018_Node000005"><a xlink:title=" ">
<path fill="none" stroke="#63b8ff" d="M54.62,-109.98C63.94,-102.15 77.97,-90.34 89.24,-80.86"/>
<polygon fill="#63b8ff" stroke="#63b8ff" points="91.79,-83.29 97.19,-74.17 87.29,-77.93 91.79,-83.29"/>
</a>
</g>
</g>
<!-- Node20 -->
<g id="Node000020" class="node">
<title>Node20</title>
<g id="a_Node000020"><a xlink:href="drv__handle_8h.html" target="_top" xlink:title=" ">
<polygon fill="white" stroke="#666666" points="474.5,-129 358.5,-129 358.5,-110 474.5,-110 474.5,-129"/>
<text text-anchor="middle" x="416.5" y="-117" font-family="Helvetica,sans-Serif" font-size="10.00">drivers/drv_handle.h</text>
</a>
</g>
</g>
<!-- Node19&#45;&gt;Node20 -->
<g id="edge22_Node000019_Node000020" class="edge">
<title>Node19&#45;&gt;Node20</title>
<g id="a_edge22_Node000019_Node000020"><a xlink:title=" ">
<path fill="none" stroke="#63b8ff" d="M584.37,-164.98C550.35,-155.97 496.5,-141.7 459,-131.76"/>
<polygon fill="#63b8ff" stroke="#63b8ff" points="459.45,-128.26 448.89,-129.08 457.66,-135.03 459.45,-128.26"/>
</a>
</g>
</g>
<!-- Node22 -->
<g id="Node000022" class="node">
<title>Node22</title>
<g id="a_Node000022"><a xlink:title=" ">
<polygon fill="#e0e0e0" stroke="#999999" points="695.5,-74 583.5,-74 583.5,-55 695.5,-55 695.5,-74"/>
<text text-anchor="middle" x="639.5" y="-62" font-family="Helvetica,sans-Serif" font-size="10.00">board/mcu_config.h</text>
</a>
</g>
</g>
<!-- Node19&#45;&gt;Node22 -->
<g id="edge29_Node000019_Node000022" class="edge">
<title>Node19&#45;&gt;Node22</title>
<g id="a_edge29_Node000019_Node000022"><a xlink:title=" ">
<path fill="none" stroke="#63b8ff" d="M618.38,-164.66C622.12,-147.09 630.57,-107.45 635.57,-83.95"/>
<polygon fill="#63b8ff" stroke="#63b8ff" points="639,-84.67 637.66,-74.16 632.15,-83.21 639,-84.67"/>
</a>
</g>
</g>
<!-- Node20&#45;&gt;Node6 -->
<g id="edge26_Node000020_Node000006" class="edge">
<title>Node20&#45;&gt;Node6</title>
<g id="a_edge26_Node000020_Node000006"><a xlink:title=" ">
<path fill="none" stroke="#63b8ff" d="M397.06,-109.98C377.51,-101.42 347.12,-88.11 324.68,-78.28"/>
<polygon fill="#63b8ff" stroke="#63b8ff" points="325.86,-74.98 315.29,-74.17 323.05,-81.39 325.86,-74.98"/>
</a>
</g>
</g>
<!-- Node20&#45;&gt;Node7 -->
<g id="edge27_Node000020_Node000007" class="edge">
<title>Node20&#45;&gt;Node7</title>
<g id="a_edge27_Node000020_Node000007"><a xlink:title=" ">
<path fill="none" stroke="#63b8ff" d="M384.53,-109.98C347.97,-100.25 288.39,-84.38 251.15,-74.46"/>
<polygon fill="#63b8ff" stroke="#63b8ff" points="251.84,-71.02 241.28,-71.83 250.04,-77.79 251.84,-71.02"/>
</a>
</g>
</g>
<!-- Node20&#45;&gt;Node9 -->
<g id="edge23_Node000020_Node000009" class="edge">
<title>Node20&#45;&gt;Node9</title>
<g id="a_edge23_Node000020_Node000009"><a xlink:title=" ">
<path fill="none" stroke="#63b8ff" d="M435.46,-109.98C454.53,-101.42 484.16,-88.11 506.05,-78.28"/>
<polygon fill="#63b8ff" stroke="#63b8ff" points="507.51,-81.46 515.2,-74.17 504.64,-75.07 507.51,-81.46"/>
</a>
</g>
</g>
<!-- Node21 -->
<g id="Node000021" class="node">
<title>Node21</title>
<g id="a_Node000021"><a xlink:href="def__err_8h.html" target="_top" xlink:title=" ">
<polygon fill="white" stroke="#666666" points="409,-74 350,-74 350,-55 409,-55 409,-74"/>
<text text-anchor="middle" x="379.5" y="-62" font-family="Helvetica,sans-Serif" font-size="10.00">def_err.h</text>
</a>
</g>
</g>
<!-- Node20&#45;&gt;Node21 -->
<g id="edge24_Node000020_Node000021" class="edge">
<title>Node20&#45;&gt;Node21</title>
<g id="a_edge24_Node000020_Node000021"><a xlink:title=" ">
<path fill="none" stroke="#63b8ff" d="M410.39,-109.75C405.22,-102.34 397.65,-91.5 391.31,-82.41"/>
<polygon fill="#63b8ff" stroke="#63b8ff" points="394.09,-80.29 385.5,-74.09 388.35,-84.29 394.09,-80.29"/>
</a>
</g>
</g>
<!-- Node20&#45;&gt;Node22 -->
<g id="edge25_Node000020_Node000022" class="edge">
<title>Node20&#45;&gt;Node22</title>
<g id="a_edge25_Node000020_Node000022"><a xlink:title=" ">
<path fill="none" stroke="#63b8ff" d="M452.33,-109.98C490.66,-100.87 551.58,-86.4 593.45,-76.45"/>
<polygon fill="#63b8ff" stroke="#63b8ff" points="594.47,-79.8 603.39,-74.08 592.85,-72.99 594.47,-79.8"/>
</a>
</g>
</g>
<!-- Node23 -->
<g id="Node000023" class="node">
<title>Node23</title>
<g id="a_Node000023"><a xlink:title=" ">
<polygon fill="#e0e0e0" stroke="#999999" points="485.5,-74 427.5,-74 427.5,-55 485.5,-55 485.5,-74"/>
<text text-anchor="middle" x="456.5" y="-62" font-family="Helvetica,sans-Serif" font-size="10.00">device.h</text>
</a>
</g>
</g>
<!-- Node20&#45;&gt;Node23 -->
<g id="edge28_Node000020_Node000023" class="edge">
<title>Node20&#45;&gt;Node23</title>
<g id="a_edge28_Node000020_Node000023"><a xlink:title=" ">
<path fill="none" stroke="#63b8ff" d="M423.11,-109.75C428.76,-102.26 437.04,-91.28 443.95,-82.13"/>
<polygon fill="#63b8ff" stroke="#63b8ff" points="446.79,-84.18 450.02,-74.09 441.2,-79.96 446.79,-84.18"/>
</a>
</g>
</g>
<!-- Node24&#45;&gt;Node9 -->
<g id="edge31_Node000024_Node000009" class="edge">
<title>Node24&#45;&gt;Node9</title>
<g id="a_edge31_Node000024_Node000009"><a xlink:title=" ">
<path fill="none" stroke="#63b8ff" d="M731.35,-164.84C693.93,-145.96 604.75,-100.96 560.43,-78.59"/>
<polygon fill="#63b8ff" stroke="#63b8ff" points="561.94,-75.43 551.44,-74.05 558.79,-81.68 561.94,-75.43"/>
</a>
</g>
</g>
<!-- Node24&#45;&gt;Node16 -->
<g id="edge32_Node000024_Node000016" class="edge">
<title>Node24&#45;&gt;Node16</title>
<g id="a_edge32_Node000024_Node000016"><a xlink:title=" ">
<path fill="none" stroke="#63b8ff" d="M755.93,-164.75C762.35,-157.18 771.81,-146.05 779.62,-136.84"/>
<polygon fill="#63b8ff" stroke="#63b8ff" points="782.4,-138.98 786.21,-129.09 777.07,-134.45 782.4,-138.98"/>
</a>
</g>
</g>
<!-- Node24&#45;&gt;Node22 -->
<g id="edge33_Node000024_Node000022" class="edge">
<title>Node24&#45;&gt;Node22</title>
<g id="a_edge33_Node000024_Node000022"><a xlink:title=" ">
<path fill="none" stroke="#63b8ff" d="M739.58,-164.66C721.21,-146.46 678.91,-104.55 655.62,-81.47"/>
<polygon fill="#63b8ff" stroke="#63b8ff" points="657.81,-78.71 648.24,-74.16 652.88,-83.68 657.81,-78.71"/>
</a>
</g>
</g>
</g>
</svg>
