<?xml version="1.0" encoding="UTF-8" standalone="no"?>
<!DOCTYPE svg PUBLIC "-//W3C//DTD SVG 1.1//EN"
 "http://www.w3.org/Graphics/SVG/1.1/DTD/svg11.dtd">
<!-- Generated by graphviz version 2.43.0 (0)
 -->
<!-- Title: _cmd_debug_fn Pages: 1 -->
<svg width="223pt" height="64pt"
 viewBox="0.00 0.00 223.00 64.00" xmlns="http://www.w3.org/2000/svg" xmlns:xlink="http://www.w3.org/1999/xlink">
<g id="graph0" class="graph" transform="scale(1 1) rotate(0) translate(4 60)">
<title>_cmd_debug_fn</title>
<!-- Node1 -->
<g id="Node000001" class="node">
<title>Node1</title>
<g id="a_Node000001"><a xlink:title=" ">
<polygon fill="#999999" stroke="#666666" points="93,-37 0,-37 0,-18 93,-18 93,-37"/>
<text text-anchor="middle" x="46.5" y="-25" font-family="Helvetica,sans-Serif" font-size="10.00">_cmd_debug_fn</text>
</a>
</g>
</g>
<!-- Node2 -->
<g id="Node000002" class="node">
<title>Node2</title>
<g id="a_Node000002"><a xlink:href="syscalls_8c.html#a1c0b4afcbe4d9f5c21ef438f3bcf3e4c" target="_top" xlink:title=" ">
<polygon fill="white" stroke="#666666" points="215,-56 129,-56 129,-37 215,-37 215,-56"/>
<text text-anchor="middle" x="172" y="-44" font-family="Helvetica,sans-Serif" font-size="10.00">printk_disable</text>
</a>
</g>
</g>
<!-- Node1&#45;&gt;Node2 -->
<g id="edge1_Node000001_Node000002" class="edge">
<title>Node1&#45;&gt;Node2</title>
<g id="a_edge1_Node000001_Node000002"><a xlink:title=" ">
<path fill="none" stroke="#63b8ff" d="M93.14,-34.52C101.53,-35.81 110.35,-37.17 118.92,-38.49"/>
<polygon fill="#63b8ff" stroke="#63b8ff" points="118.41,-41.95 128.82,-40.01 119.47,-35.03 118.41,-41.95"/>
</a>
</g>
</g>
<!-- Node3 -->
<g id="Node000003" class="node">
<title>Node3</title>
<g id="a_Node000003"><a xlink:href="syscalls_8c.html#a699bbcac2cb2e984db5fd3f817711fcf" target="_top" xlink:title=" ">
<polygon fill="white" stroke="#666666" points="213.5,-19 130.5,-19 130.5,0 213.5,0 213.5,-19"/>
<text text-anchor="middle" x="172" y="-7" font-family="Helvetica,sans-Serif" font-size="10.00">printk_enable</text>
</a>
</g>
</g>
<!-- Node1&#45;&gt;Node3 -->
<g id="edge2_Node000001_Node000003" class="edge">
<title>Node1&#45;&gt;Node3</title>
<g id="a_edge2_Node000001_Node000003"><a xlink:title=" ">
<path fill="none" stroke="#63b8ff" d="M93.14,-20.85C102.02,-19.55 111.39,-18.19 120.42,-16.87"/>
<polygon fill="#63b8ff" stroke="#63b8ff" points="121.05,-20.32 130.44,-15.41 120.04,-13.39 121.05,-20.32"/>
</a>
</g>
</g>
</g>
</svg>
