<?xml version="1.0" encoding="UTF-8" standalone="no"?>
<!DOCTYPE svg PUBLIC "-//W3C//DTD SVG 1.1//EN"
 "http://www.w3.org/Graphics/SVG/1.1/DTD/svg11.dtd">
<!-- Generated by graphviz version 2.43.0 (0)
 -->
<!-- Title: spi_mgmt.c Pages: 1 -->
<!--zoomable 258 -->

<svg id="main" version="1.1" xmlns="http://www.w3.org/2000/svg" xmlns:xlink="http://www.w3.org/1999/xlink" xml:space="preserve" onload="init(evt)">
<style type="text/css"><![CDATA[
.node, .edge {opacity: 0.7;}
.node.selected, .edge.selected {opacity: 1;}
.edge:hover path { stroke: red; }
.edge:hover polygon { stroke: red; fill: red; }
]]></style>

<defs>
  <circle id="rim" cx="0" cy="0" r="7"/>
  <circle id="rim2" cx="0" cy="0" r="3.5"/>
  <g id="zoomPlus">
    <use xlink:href="#rim" fill="#404040"><set attributeName="fill" to="#808080" begin="zoomplus.mouseover" end="zoomplus.mouseout"/></use>
    <path d="M-4,0h8M0,-4v8" fill="none" stroke="white" stroke-width="1.5" pointer-events="none"/>
  </g>
  <g id="zoomMin">
    <use xlink:href="#rim" fill="#404040"><set attributeName="fill" to="#808080" begin="zoomminus.mouseover" end="zoomminus.mouseout"/></use>
    <path d="M-4,0h8" fill="none" stroke="white" stroke-width="1.5" pointer-events="none"/>
  </g>
  <g id="arrowUp" transform="translate(30 24)">
    <use xlink:href="#rim"/>
    <path pointer-events="none" fill="none" stroke="white" stroke-width="1.5" d="M0,-3.0v7 M-2.5,-0.5L0,-3.0L2.5,-0.5"/>
  </g>
  <g id="arrowRight" transform="rotate(90) translate(36 -43)">
    <use xlink:href="#rim"/>
    <path pointer-events="none" fill="none" stroke="white" stroke-width="1.5" d="M0,-3.0v7 M-2.5,-0.5L0,-3.0L2.5,-0.5"/>
  </g>
  <g id="arrowDown" transform="rotate(180) translate(-30 -48)">
    <use xlink:href="#rim"/>
    <path pointer-events="none" fill="none" stroke="white" stroke-width="1.5" d="M0,-3.0v7 M-2.5,-0.5L0,-3.0L2.5,-0.5"/>
  </g>
  <g id="arrowLeft" transform="rotate(270) translate(-36 17)">
    <use xlink:href="#rim"/>
    <path pointer-events="none" fill="none" stroke="white" stroke-width="1.5" d="M0,-3.0v7 M-2.5,-0.5L0,-3.0L2.5,-0.5"/>
  </g>
  <g id="resetDef">
    <use xlink:href="#rim2" fill="#404040"><set attributeName="fill" to="#808080" begin="reset.mouseover" end="reset.mouseout"/></use>
  </g>
</defs>
<script type="application/ecmascript">
var viewWidth = 1239;
var viewHeight = 258;
var sectionId = 'dynsection-0';
</script>
<script type="application/ecmascript" xlink:href="svg.min.js"/>
<svg id="graph" class="graph">
<g id="viewport">
<title>spi_mgmt.c</title>
<!-- Node1 -->
<g id="Node000001" class="node">
<title>Node1</title>
<g id="a_Node000001"><a xlink:title=" ">
<polygon fill="#999999" stroke="#666666" points="488,-250 414,-250 414,-231 488,-231 488,-250"/>
<text text-anchor="middle" x="451" y="-238" font-family="Helvetica,sans-Serif" font-size="10.00">spi_mgmt.c</text>
</a>
</g>
</g>
<!-- Node2 -->
<g id="Node000002" class="node">
<title>Node2</title>
<g id="a_Node000002"><a xlink:href="spi__mgmt_8h.html" target="_top" xlink:title=" ">
<polygon fill="white" stroke="#666666" points="442,-189.5 324,-189.5 324,-170.5 442,-170.5 442,-189.5"/>
<text text-anchor="middle" x="383" y="-177.5" font-family="Helvetica,sans-Serif" font-size="10.00">services/spi_mgmt.h</text>
</a>
</g>
</g>
<!-- Node1&#45;&gt;Node2 -->
<g id="edge1_Node000001_Node000002" class="edge">
<title>Node1&#45;&gt;Node2</title>
<g id="a_edge1_Node000001_Node000002"><a xlink:title=" ">
<path fill="none" stroke="#63b8ff" d="M440.97,-230.87C430.42,-221.8 413.61,-207.34 400.81,-196.32"/>
<polygon fill="#63b8ff" stroke="#63b8ff" points="402.94,-193.54 393.07,-189.67 398.37,-198.84 402.94,-193.54"/>
</a>
</g>
</g>
<!-- Node15 -->
<g id="Node000015" class="node">
<title>Node15</title>
<g id="a_Node000015"><a xlink:href="drv__handle_8h.html" target="_top" xlink:title=" ">
<polygon fill="white" stroke="#666666" points="325,-129 209,-129 209,-110 325,-110 325,-129"/>
<text text-anchor="middle" x="267" y="-117" font-family="Helvetica,sans-Serif" font-size="10.00">drivers/drv_handle.h</text>
</a>
</g>
</g>
<!-- Node1&#45;&gt;Node15 -->
<g id="edge43_Node000001_Node000015" class="edge">
<title>Node1&#45;&gt;Node15</title>
<g id="a_edge43_Node000001_Node000015"><a xlink:title=" ">
<path fill="none" stroke="#63b8ff" d="M413.75,-234.3C384.46,-228.67 343.91,-217.31 315,-195 295.84,-180.21 282.1,-155.46 274.35,-138.57"/>
<polygon fill="#63b8ff" stroke="#63b8ff" points="277.5,-137.03 270.31,-129.24 271.07,-139.81 277.5,-137.03"/>
</a>
</g>
</g>
<!-- Node20 -->
<g id="Node000020" class="node">
<title>Node20</title>
<g id="a_Node000020"><a xlink:href="kernel_8h.html" target="_top" xlink:title=" ">
<polygon fill="white" stroke="#666666" points="668,-189.5 598,-189.5 598,-170.5 668,-170.5 668,-189.5"/>
<text text-anchor="middle" x="633" y="-177.5" font-family="Helvetica,sans-Serif" font-size="10.00">os/kernel.h</text>
</a>
</g>
</g>
<!-- Node1&#45;&gt;Node20 -->
<g id="edge24_Node000001_Node000020" class="edge">
<title>Node1&#45;&gt;Node20</title>
<g id="a_edge24_Node000001_Node000020"><a xlink:title=" ">
<path fill="none" stroke="#63b8ff" d="M477.46,-230.99C508.87,-220.9 561.4,-204.01 596.62,-192.69"/>
<polygon fill="#63b8ff" stroke="#63b8ff" points="598.05,-195.91 606.5,-189.52 595.91,-189.24 598.05,-195.91"/>
</a>
</g>
</g>
<!-- Node29 -->
<g id="Node000029" class="node">
<title>Node29</title>
<g id="a_Node000029"><a xlink:title=" ">
<polygon fill="#e0e0e0" stroke="#999999" points="579.5,-189.5 460.5,-189.5 460.5,-170.5 579.5,-170.5 579.5,-189.5"/>
<text text-anchor="middle" x="520" y="-177.5" font-family="Helvetica,sans-Serif" font-size="10.00">board/board_config.h</text>
</a>
</g>
</g>
<!-- Node1&#45;&gt;Node29 -->
<g id="edge44_Node000001_Node000029" class="edge">
<title>Node1&#45;&gt;Node29</title>
<g id="a_edge44_Node000001_Node000029"><a xlink:title=" ">
<path fill="none" stroke="#63b8ff" d="M461.18,-230.87C471.88,-221.8 488.94,-207.34 501.93,-196.32"/>
<polygon fill="#63b8ff" stroke="#63b8ff" points="504.41,-198.8 509.78,-189.67 499.89,-193.46 504.41,-198.8"/>
</a>
</g>
</g>
<!-- Node30 -->
<g id="Node000030" class="node">
<title>Node30</title>
<g id="a_Node000030"><a xlink:href="irq__notify_8h.html" target="_top" xlink:title=" ">
<polygon fill="white" stroke="#666666" points="1094,-189.5 1008,-189.5 1008,-170.5 1094,-170.5 1094,-189.5"/>
<text text-anchor="middle" x="1051" y="-177.5" font-family="Helvetica,sans-Serif" font-size="10.00">irq/irq_notify.h</text>
</a>
</g>
</g>
<!-- Node1&#45;&gt;Node30 -->
<g id="edge45_Node000001_Node000030" class="edge">
<title>Node1&#45;&gt;Node30</title>
<g id="a_edge45_Node000001_Node000030"><a xlink:title=" ">
<path fill="none" stroke="#63b8ff" d="M488.08,-235.88C590.61,-225.89 878.24,-197.84 997.82,-186.19"/>
<polygon fill="#63b8ff" stroke="#63b8ff" points="998.22,-189.66 1007.84,-185.21 997.54,-182.7 998.22,-189.66"/>
</a>
</g>
</g>
<!-- Node32 -->
<g id="Node000032" class="node">
<title>Node32</title>
<g id="a_Node000032"><a xlink:href="hal__spi__stm32_8h.html" target="_top" xlink:title=" ">
<polygon fill="white" stroke="#666666" points="268,-195 142,-195 142,-165 268,-165 268,-195"/>
<text text-anchor="start" x="150" y="-183" font-family="Helvetica,sans-Serif" font-size="10.00">drivers/com/hal/stm32</text>
<text text-anchor="middle" x="205" y="-172" font-family="Helvetica,sans-Serif" font-size="10.00">/hal_spi_stm32.h</text>
</a>
</g>
</g>
<!-- Node1&#45;&gt;Node32 -->
<g id="edge48_Node000001_Node000032" class="edge">
<title>Node1&#45;&gt;Node32</title>
<g id="a_edge48_Node000001_Node000032"><a xlink:title=" ">
<path fill="none" stroke="#63b8ff" d="M415.23,-230.99C378.36,-222.23 319.94,-208.33 274.03,-197.42"/>
<polygon fill="#63b8ff" stroke="#63b8ff" points="274.68,-193.97 264.14,-195.06 273.06,-200.78 274.68,-193.97"/>
</a>
</g>
</g>
<!-- Node3 -->
<g id="Node000003" class="node">
<title>Node3</title>
<g id="a_Node000003"><a xlink:href="def__std_8h.html" target="_top" xlink:title=" ">
<polygon fill="white" stroke="#666666" points="420,-74 358,-74 358,-55 420,-55 420,-74"/>
<text text-anchor="middle" x="389" y="-62" font-family="Helvetica,sans-Serif" font-size="10.00">def_std.h</text>
</a>
</g>
</g>
<!-- Node2&#45;&gt;Node3 -->
<g id="edge2_Node000002_Node000003" class="edge">
<title>Node2&#45;&gt;Node3</title>
<g id="a_edge2_Node000002_Node000003"><a xlink:title=" ">
<path fill="none" stroke="#63b8ff" d="M383.45,-170.47C384.42,-152.23 386.7,-109.07 388.01,-84.14"/>
<polygon fill="#63b8ff" stroke="#63b8ff" points="391.51,-84.3 388.54,-74.13 384.52,-83.93 391.51,-84.3"/>
</a>
</g>
</g>
<!-- Node11 -->
<g id="Node000011" class="node">
<title>Node11</title>
<g id="a_Node000011"><a xlink:href="def__err_8h.html" target="_top" xlink:title=" ">
<polygon fill="white" stroke="#666666" points="497.5,-74 438.5,-74 438.5,-55 497.5,-55 497.5,-74"/>
<text text-anchor="middle" x="468" y="-62" font-family="Helvetica,sans-Serif" font-size="10.00">def_err.h</text>
</a>
</g>
</g>
<!-- Node2&#45;&gt;Node11 -->
<g id="edge10_Node000002_Node000011" class="edge">
<title>Node2&#45;&gt;Node11</title>
<g id="a_edge10_Node000002_Node000011"><a xlink:title=" ">
<path fill="none" stroke="#63b8ff" d="M389.39,-170.47C403.42,-151.74 437.13,-106.72 455.52,-82.16"/>
<polygon fill="#63b8ff" stroke="#63b8ff" points="458.34,-84.23 461.54,-74.13 452.74,-80.04 458.34,-84.23"/>
</a>
</g>
</g>
<!-- Node12 -->
<g id="Node000012" class="node">
<title>Node12</title>
<g id="a_Node000012"><a xlink:title=" ">
<polygon fill="#e0e0e0" stroke="#999999" points="198,-74 86,-74 86,-55 198,-55 198,-74"/>
<text text-anchor="middle" x="142" y="-62" font-family="Helvetica,sans-Serif" font-size="10.00">board/mcu_config.h</text>
</a>
</g>
</g>
<!-- Node2&#45;&gt;Node12 -->
<g id="edge11_Node000002_Node000012" class="edge">
<title>Node2&#45;&gt;Node12</title>
<g id="a_edge11_Node000002_Node000012"><a xlink:title=" ">
<path fill="none" stroke="#63b8ff" d="M323.58,-171.44C286.03,-164.64 237.66,-152.02 200,-129 180.77,-117.25 164.06,-97.28 153.57,-82.87"/>
<polygon fill="#63b8ff" stroke="#63b8ff" points="156.22,-80.54 147.62,-74.34 150.48,-84.55 156.22,-80.54"/>
</a>
</g>
</g>
<!-- Node13 -->
<g id="Node000013" class="node">
<title>Node13</title>
<g id="a_Node000013"><a xlink:href="conf__os_8h.html" target="_top" xlink:title=" ">
<polygon fill="white" stroke="#666666" points="97.5,-129 2.5,-129 2.5,-110 97.5,-110 97.5,-129"/>
<text text-anchor="middle" x="50" y="-117" font-family="Helvetica,sans-Serif" font-size="10.00">config/conf_os.h</text>
</a>
</g>
</g>
<!-- Node2&#45;&gt;Node13 -->
<g id="edge12_Node000002_Node000013" class="edge">
<title>Node2&#45;&gt;Node13</title>
<g id="a_edge12_Node000002_Node000013"><a xlink:title=" ">
<path fill="none" stroke="#63b8ff" d="M334.58,-170.49C274.39,-159.92 171.8,-141.9 107.63,-130.62"/>
<polygon fill="#63b8ff" stroke="#63b8ff" points="108.12,-127.16 97.67,-128.87 106.91,-134.05 108.12,-127.16"/>
</a>
</g>
</g>
<!-- Node2&#45;&gt;Node15 -->
<g id="edge14_Node000002_Node000015" class="edge">
<title>Node2&#45;&gt;Node15</title>
<g id="a_edge14_Node000002_Node000015"><a xlink:title=" ">
<path fill="none" stroke="#63b8ff" d="M365.88,-170.37C346.78,-160.73 315.63,-145.03 293.4,-133.81"/>
<polygon fill="#63b8ff" stroke="#63b8ff" points="294.69,-130.55 284.19,-129.17 291.54,-136.8 294.69,-130.55"/>
</a>
</g>
</g>
<!-- Node16 -->
<g id="Node000016" class="node">
<title>Node16</title>
<g id="a_Node000016"><a xlink:title=" ">
<polygon fill="#e0e0e0" stroke="#999999" points="1117,-74 1045,-74 1045,-55 1117,-55 1117,-74"/>
<text text-anchor="middle" x="1081" y="-62" font-family="Helvetica,sans-Serif" font-size="10.00">FreeRTOS.h</text>
</a>
</g>
</g>
<!-- Node2&#45;&gt;Node16 -->
<g id="edge21_Node000002_Node000016" class="edge">
<title>Node2&#45;&gt;Node16</title>
<g id="a_edge21_Node000002_Node000016"><a xlink:title=" ">
<path fill="none" stroke="#63b8ff" d="M422.31,-170.46C431.99,-168.52 442.35,-166.56 452,-165 582.82,-143.81 617.06,-149.42 748,-129 850.94,-112.94 970.75,-88.73 1034.87,-75.32"/>
<polygon fill="#63b8ff" stroke="#63b8ff" points="1035.61,-78.74 1044.68,-73.26 1034.17,-71.89 1035.61,-78.74"/>
</a>
</g>
</g>
<!-- Node17 -->
<g id="Node000017" class="node">
<title>Node17</title>
<g id="a_Node000017"><a xlink:title=" ">
<polygon fill="#e0e0e0" stroke="#999999" points="339.5,-74 292.5,-74 292.5,-55 339.5,-55 339.5,-74"/>
<text text-anchor="middle" x="316" y="-62" font-family="Helvetica,sans-Serif" font-size="10.00">task.h</text>
</a>
</g>
</g>
<!-- Node2&#45;&gt;Node17 -->
<g id="edge23_Node000002_Node000017" class="edge">
<title>Node2&#45;&gt;Node17</title>
<g id="a_edge23_Node000002_Node000017"><a xlink:title=" ">
<path fill="none" stroke="#63b8ff" d="M377.96,-170.47C367,-151.9 340.8,-107.51 326.22,-82.82"/>
<polygon fill="#63b8ff" stroke="#63b8ff" points="329.19,-80.96 321.09,-74.13 323.16,-84.52 329.19,-80.96"/>
</a>
</g>
</g>
<!-- Node19 -->
<g id="Node000019" class="node">
<title>Node19</title>
<g id="a_Node000019"><a xlink:title=" ">
<polygon fill="#e0e0e0" stroke="#999999" points="572,-74 516,-74 516,-55 572,-55 572,-74"/>
<text text-anchor="middle" x="544" y="-62" font-family="Helvetica,sans-Serif" font-size="10.00">queue.h</text>
</a>
</g>
</g>
<!-- Node2&#45;&gt;Node19 -->
<g id="edge22_Node000002_Node000019" class="edge">
<title>Node2&#45;&gt;Node19</title>
<g id="a_edge22_Node000002_Node000019"><a xlink:title=" ">
<path fill="none" stroke="#63b8ff" d="M395.1,-170.47C422.49,-151.16 489.48,-103.93 523.49,-79.96"/>
<polygon fill="#63b8ff" stroke="#63b8ff" points="525.6,-82.75 531.76,-74.13 521.57,-77.03 525.6,-82.75"/>
</a>
</g>
</g>
<!-- Node4 -->
<g id="Node000004" class="node">
<title>Node4</title>
<g id="a_Node000004"><a xlink:title=" ">
<polygon fill="#e0e0e0" stroke="#999999" points="205.5,-19 152.5,-19 152.5,0 205.5,0 205.5,-19"/>
<text text-anchor="middle" x="179" y="-7" font-family="Helvetica,sans-Serif" font-size="10.00">stdlib.h</text>
</a>
</g>
</g>
<!-- Node3&#45;&gt;Node4 -->
<g id="edge3_Node000003_Node000004" class="edge">
<title>Node3&#45;&gt;Node4</title>
<g id="a_edge3_Node000003_Node000004"><a xlink:title=" ">
<path fill="none" stroke="#63b8ff" d="M357.56,-55.57C319.56,-45.98 255.74,-29.87 215.57,-19.73"/>
<polygon fill="#63b8ff" stroke="#63b8ff" points="216.21,-16.28 205.65,-17.23 214.49,-23.07 216.21,-16.28"/>
</a>
</g>
</g>
<!-- Node5 -->
<g id="Node000005" class="node">
<title>Node5</title>
<g id="a_Node000005"><a xlink:title=" ">
<polygon fill="#e0e0e0" stroke="#999999" points="274.5,-19 223.5,-19 223.5,0 274.5,0 274.5,-19"/>
<text text-anchor="middle" x="249" y="-7" font-family="Helvetica,sans-Serif" font-size="10.00">errno.h</text>
</a>
</g>
</g>
<!-- Node3&#45;&gt;Node5 -->
<g id="edge4_Node000003_Node000005" class="edge">
<title>Node3&#45;&gt;Node5</title>
<g id="a_edge4_Node000003_Node000005"><a xlink:title=" ">
<path fill="none" stroke="#63b8ff" d="M366.51,-54.98C343.48,-46.27 307.46,-32.63 281.37,-22.75"/>
<polygon fill="#63b8ff" stroke="#63b8ff" points="282.49,-19.44 271.9,-19.17 280.02,-25.98 282.49,-19.44"/>
</a>
</g>
</g>
<!-- Node6 -->
<g id="Node000006" class="node">
<title>Node6</title>
<g id="a_Node000006"><a xlink:title=" ">
<polygon fill="#e0e0e0" stroke="#999999" points="343,-19 293,-19 293,0 343,0 343,-19"/>
<text text-anchor="middle" x="318" y="-7" font-family="Helvetica,sans-Serif" font-size="10.00">stdio.h</text>
</a>
</g>
</g>
<!-- Node3&#45;&gt;Node6 -->
<g id="edge5_Node000003_Node000006" class="edge">
<title>Node3&#45;&gt;Node6</title>
<g id="a_edge5_Node000003_Node000006"><a xlink:title=" ">
<path fill="none" stroke="#63b8ff" d="M377.59,-54.98C366.89,-47 350.66,-34.88 337.84,-25.31"/>
<polygon fill="#63b8ff" stroke="#63b8ff" points="339.72,-22.35 329.61,-19.17 335.53,-27.96 339.72,-22.35"/>
</a>
</g>
</g>
<!-- Node7 -->
<g id="Node000007" class="node">
<title>Node7</title>
<g id="a_Node000007"><a xlink:title=" ">
<polygon fill="#e0e0e0" stroke="#999999" points="416.5,-19 361.5,-19 361.5,0 416.5,0 416.5,-19"/>
<text text-anchor="middle" x="389" y="-7" font-family="Helvetica,sans-Serif" font-size="10.00">signal.h</text>
</a>
</g>
</g>
<!-- Node3&#45;&gt;Node7 -->
<g id="edge6_Node000003_Node000007" class="edge">
<title>Node3&#45;&gt;Node7</title>
<g id="a_edge6_Node000003_Node000007"><a xlink:title=" ">
<path fill="none" stroke="#63b8ff" d="M389,-54.75C389,-47.8 389,-37.85 389,-29.13"/>
<polygon fill="#63b8ff" stroke="#63b8ff" points="392.5,-29.09 389,-19.09 385.5,-29.09 392.5,-29.09"/>
</a>
</g>
</g>
<!-- Node8 -->
<g id="Node000008" class="node">
<title>Node8</title>
<g id="a_Node000008"><a xlink:title=" ">
<polygon fill="#e0e0e0" stroke="#999999" points="483,-19 435,-19 435,0 483,0 483,-19"/>
<text text-anchor="middle" x="459" y="-7" font-family="Helvetica,sans-Serif" font-size="10.00">time.h</text>
</a>
</g>
</g>
<!-- Node3&#45;&gt;Node8 -->
<g id="edge7_Node000003_Node000008" class="edge">
<title>Node3&#45;&gt;Node8</title>
<g id="a_edge7_Node000003_Node000008"><a xlink:title=" ">
<path fill="none" stroke="#63b8ff" d="M400.25,-54.98C410.8,-47 426.8,-34.88 439.44,-25.31"/>
<polygon fill="#63b8ff" stroke="#63b8ff" points="441.69,-28 447.55,-19.17 437.46,-22.42 441.69,-28"/>
</a>
</g>
</g>
<!-- Node9 -->
<g id="Node000009" class="node">
<title>Node9</title>
<g id="a_Node000009"><a xlink:title=" ">
<polygon fill="#e0e0e0" stroke="#999999" points="554.5,-19 501.5,-19 501.5,0 554.5,0 554.5,-19"/>
<text text-anchor="middle" x="528" y="-7" font-family="Helvetica,sans-Serif" font-size="10.00">stdint.h</text>
</a>
</g>
</g>
<!-- Node3&#45;&gt;Node9 -->
<g id="edge8_Node000003_Node000009" class="edge">
<title>Node3&#45;&gt;Node9</title>
<g id="a_edge8_Node000003_Node000009"><a xlink:title=" ">
<path fill="none" stroke="#63b8ff" d="M411.33,-54.98C434.2,-46.27 469.96,-32.63 495.86,-22.75"/>
<polygon fill="#63b8ff" stroke="#63b8ff" points="497.16,-26 505.26,-19.17 494.67,-19.46 497.16,-26"/>
</a>
</g>
</g>
<!-- Node10 -->
<g id="Node000010" class="node">
<title>Node10</title>
<g id="a_Node000010"><a xlink:title=" ">
<polygon fill="#e0e0e0" stroke="#999999" points="637.5,-19 572.5,-19 572.5,0 637.5,0 637.5,-19"/>
<text text-anchor="middle" x="605" y="-7" font-family="Helvetica,sans-Serif" font-size="10.00">inttypes.h</text>
</a>
</g>
</g>
<!-- Node3&#45;&gt;Node10 -->
<g id="edge9_Node000003_Node000010" class="edge">
<title>Node3&#45;&gt;Node10</title>
<g id="a_edge9_Node000003_Node000010"><a xlink:title=" ">
<path fill="none" stroke="#63b8ff" d="M420.41,-55.79C457.92,-46.59 520.82,-31.16 562.61,-20.9"/>
<polygon fill="#63b8ff" stroke="#63b8ff" points="563.62,-24.26 572.49,-18.48 561.95,-17.46 563.62,-24.26"/>
</a>
</g>
</g>
<!-- Node14 -->
<g id="Node000014" class="node">
<title>Node14</title>
<g id="a_Node000014"><a xlink:href="autoconf_8h.html" target="_top" xlink:title=" ">
<polygon fill="white" stroke="#666666" points="68,-74 0,-74 0,-55 68,-55 68,-74"/>
<text text-anchor="middle" x="34" y="-62" font-family="Helvetica,sans-Serif" font-size="10.00">autoconf.h</text>
</a>
</g>
</g>
<!-- Node13&#45;&gt;Node14 -->
<g id="edge13_Node000013_Node000014" class="edge">
<title>Node13&#45;&gt;Node14</title>
<g id="a_edge13_Node000013_Node000014"><a xlink:title=" ">
<path fill="none" stroke="#63b8ff" d="M47.36,-109.75C45.24,-102.72 42.19,-92.62 39.54,-83.84"/>
<polygon fill="#63b8ff" stroke="#63b8ff" points="42.83,-82.65 36.59,-74.09 36.13,-84.67 42.83,-82.65"/>
</a>
</g>
</g>
<!-- Node15&#45;&gt;Node3 -->
<g id="edge15_Node000015_Node000003" class="edge">
<title>Node15&#45;&gt;Node3</title>
<g id="a_edge15_Node000015_Node000003"><a xlink:title=" ">
<path fill="none" stroke="#63b8ff" d="M286.6,-109.98C306.32,-101.42 336.95,-88.11 359.58,-78.28"/>
<polygon fill="#63b8ff" stroke="#63b8ff" points="361.26,-81.37 369.04,-74.17 358.48,-74.94 361.26,-81.37"/>
</a>
</g>
</g>
<!-- Node15&#45;&gt;Node11 -->
<g id="edge16_Node000015_Node000011" class="edge">
<title>Node15&#45;&gt;Node11</title>
<g id="a_edge16_Node000015_Node000011"><a xlink:title=" ">
<path fill="none" stroke="#63b8ff" d="M299.29,-109.98C334.39,-100.73 390.5,-85.94 428.27,-75.98"/>
<polygon fill="#63b8ff" stroke="#63b8ff" points="429.63,-79.24 438.41,-73.3 427.84,-72.47 429.63,-79.24"/>
</a>
</g>
</g>
<!-- Node15&#45;&gt;Node12 -->
<g id="edge17_Node000015_Node000012" class="edge">
<title>Node15&#45;&gt;Node12</title>
<g id="a_edge17_Node000015_Node000012"><a xlink:title=" ">
<path fill="none" stroke="#63b8ff" d="M246.92,-109.98C226.63,-101.38 195.04,-87.99 171.83,-78.15"/>
<polygon fill="#63b8ff" stroke="#63b8ff" points="173.02,-74.85 162.45,-74.17 170.29,-81.3 173.02,-74.85"/>
</a>
</g>
</g>
<!-- Node15&#45;&gt;Node16 -->
<g id="edge18_Node000015_Node000016" class="edge">
<title>Node15&#45;&gt;Node16</title>
<g id="a_edge18_Node000015_Node000016"><a xlink:title=" ">
<path fill="none" stroke="#63b8ff" d="M325.08,-116.11C476.14,-109.75 879.77,-91.73 1034.45,-73.99"/>
<polygon fill="#63b8ff" stroke="#63b8ff" points="1035.2,-77.43 1044.71,-72.77 1034.37,-70.48 1035.2,-77.43"/>
</a>
</g>
</g>
<!-- Node15&#45;&gt;Node17 -->
<g id="edge19_Node000015_Node000017" class="edge">
<title>Node15&#45;&gt;Node17</title>
<g id="a_edge19_Node000015_Node000017"><a xlink:title=" ">
<path fill="none" stroke="#63b8ff" d="M275.09,-109.75C282.16,-102.11 292.59,-90.82 301.15,-81.56"/>
<polygon fill="#63b8ff" stroke="#63b8ff" points="303.84,-83.81 308.06,-74.09 298.7,-79.06 303.84,-83.81"/>
</a>
</g>
</g>
<!-- Node18 -->
<g id="Node000018" class="node">
<title>Node18</title>
<g id="a_Node000018"><a xlink:title=" ">
<polygon fill="#e0e0e0" stroke="#999999" points="274,-74 216,-74 216,-55 274,-55 274,-74"/>
<text text-anchor="middle" x="245" y="-62" font-family="Helvetica,sans-Serif" font-size="10.00">device.h</text>
</a>
</g>
</g>
<!-- Node15&#45;&gt;Node18 -->
<g id="edge20_Node000015_Node000018" class="edge">
<title>Node15&#45;&gt;Node18</title>
<g id="a_edge20_Node000015_Node000018"><a xlink:title=" ">
<path fill="none" stroke="#63b8ff" d="M263.37,-109.75C260.42,-102.65 256.17,-92.4 252.49,-83.56"/>
<polygon fill="#63b8ff" stroke="#63b8ff" points="255.63,-81.98 248.57,-74.09 249.17,-84.67 255.63,-81.98"/>
</a>
</g>
</g>
<!-- Node20&#45;&gt;Node3 -->
<g id="edge26_Node000020_Node000003" class="edge">
<title>Node20&#45;&gt;Node3</title>
<g id="a_edge26_Node000020_Node000003"><a xlink:title=" ">
<path fill="none" stroke="#63b8ff" d="M614.26,-170.35C592.72,-160.39 556.29,-143.55 525,-129 487.54,-111.58 444.32,-91.39 416.84,-78.53"/>
<polygon fill="#63b8ff" stroke="#63b8ff" points="418.01,-75.21 407.47,-74.15 415.04,-81.55 418.01,-75.21"/>
</a>
</g>
</g>
<!-- Node20&#45;&gt;Node11 -->
<g id="edge27_Node000020_Node000011" class="edge">
<title>Node20&#45;&gt;Node11</title>
<g id="a_edge27_Node000020_Node000011"><a xlink:title=" ">
<path fill="none" stroke="#63b8ff" d="M632.03,-170.49C629.92,-156.02 623.61,-126.57 606,-110 591.65,-96.5 543.24,-82.87 507.8,-74.32"/>
<polygon fill="#63b8ff" stroke="#63b8ff" points="508.27,-70.83 497.73,-71.94 506.66,-77.64 508.27,-70.83"/>
</a>
</g>
</g>
<!-- Node20&#45;&gt;Node16 -->
<g id="edge28_Node000020_Node000016" class="edge">
<title>Node20&#45;&gt;Node16</title>
<g id="a_edge28_Node000020_Node000016"><a xlink:title=" ">
<path fill="none" stroke="#63b8ff" d="M668.37,-174.13C719.86,-166.65 818.22,-150.87 900,-129 953.96,-114.57 1014.91,-91.79 1050.53,-77.8"/>
<polygon fill="#63b8ff" stroke="#63b8ff" points="1051.87,-81.03 1059.88,-74.1 1049.29,-74.52 1051.87,-81.03"/>
</a>
</g>
</g>
<!-- Node21 -->
<g id="Node000021" class="node">
<title>Node21</title>
<g id="a_Node000021"><a xlink:href="def__attributes_8h.html" target="_top" xlink:title=" ">
<polygon fill="white" stroke="#666666" points="1229,-74 1135,-74 1135,-55 1229,-55 1229,-74"/>
<text text-anchor="middle" x="1182" y="-62" font-family="Helvetica,sans-Serif" font-size="10.00">def_attributes.h</text>
</a>
</g>
</g>
<!-- Node20&#45;&gt;Node21 -->
<g id="edge25_Node000020_Node000021" class="edge">
<title>Node20&#45;&gt;Node21</title>
<g id="a_edge25_Node000020_Node000021"><a xlink:title=" ">
<path fill="none" stroke="#63b8ff" d="M668.19,-174.53C726.06,-166.9 844.79,-150.15 944,-129 1015.31,-113.8 1097.2,-90.68 1143.94,-76.93"/>
<polygon fill="#63b8ff" stroke="#63b8ff" points="1145.05,-80.26 1153.65,-74.06 1143.07,-73.54 1145.05,-80.26"/>
</a>
</g>
</g>
<!-- Node22 -->
<g id="Node000022" class="node">
<title>Node22</title>
<g id="a_Node000022"><a xlink:href="list_8h.html" target="_top" xlink:title="All linked list operation functions definitions and macros.">
<polygon fill="white" stroke="#666666" points="596.5,-129 533.5,-129 533.5,-110 596.5,-110 596.5,-129"/>
<text text-anchor="middle" x="565" y="-117" font-family="Helvetica,sans-Serif" font-size="10.00">mm/list.h</text>
</a>
</g>
</g>
<!-- Node20&#45;&gt;Node22 -->
<g id="edge29_Node000020_Node000022" class="edge">
<title>Node20&#45;&gt;Node22</title>
<g id="a_edge29_Node000020_Node000022"><a xlink:title=" ">
<path fill="none" stroke="#63b8ff" d="M622.97,-170.37C612.42,-161.3 595.61,-146.84 582.81,-135.82"/>
<polygon fill="#63b8ff" stroke="#63b8ff" points="584.94,-133.04 575.07,-129.17 580.37,-138.34 584.94,-133.04"/>
</a>
</g>
</g>
<!-- Node23 -->
<g id="Node000023" class="node">
<title>Node23</title>
<g id="a_Node000023"><a xlink:href="os_2kernel__mem_8h.html" target="_top" xlink:title=" ">
<polygon fill="white" stroke="#666666" points="739,-129 653,-129 653,-110 739,-110 739,-129"/>
<text text-anchor="middle" x="696" y="-117" font-family="Helvetica,sans-Serif" font-size="10.00">kernel_mem.h</text>
</a>
</g>
</g>
<!-- Node20&#45;&gt;Node23 -->
<g id="edge31_Node000020_Node000023" class="edge">
<title>Node20&#45;&gt;Node23</title>
<g id="a_edge31_Node000020_Node000023"><a xlink:title=" ">
<path fill="none" stroke="#63b8ff" d="M642.3,-170.37C651.97,-161.38 667.34,-147.11 679.16,-136.14"/>
<polygon fill="#63b8ff" stroke="#63b8ff" points="681.72,-138.54 686.67,-129.17 676.96,-133.41 681.72,-138.54"/>
</a>
</g>
</g>
<!-- Node22&#45;&gt;Node3 -->
<g id="edge30_Node000022_Node000003" class="edge">
<title>Node22&#45;&gt;Node3</title>
<g id="a_edge30_Node000022_Node000003"><a xlink:title=" ">
<path fill="none" stroke="#63b8ff" d="M536.72,-109.98C507.05,-101.05 460.21,-86.94 427.25,-77.02"/>
<polygon fill="#63b8ff" stroke="#63b8ff" points="428.08,-73.61 417.5,-74.08 426.07,-80.32 428.08,-73.61"/>
</a>
</g>
</g>
<!-- Node23&#45;&gt;Node3 -->
<g id="edge32_Node000023_Node000003" class="edge">
<title>Node23&#45;&gt;Node3</title>
<g id="a_edge32_Node000023_Node000003"><a xlink:title=" ">
<path fill="none" stroke="#63b8ff" d="M652.6,-111.77C601.88,-103.78 515.16,-89.77 430.37,-74"/>
<polygon fill="#63b8ff" stroke="#63b8ff" points="430.79,-70.52 420.31,-72.12 429.5,-77.4 430.79,-70.52"/>
</a>
</g>
</g>
<!-- Node23&#45;&gt;Node11 -->
<g id="edge33_Node000023_Node000011" class="edge">
<title>Node23&#45;&gt;Node11</title>
<g id="a_edge33_Node000023_Node000011"><a xlink:title=" ">
<path fill="none" stroke="#63b8ff" d="M659.37,-109.98C617.76,-100.31 550.13,-84.59 507.41,-74.66"/>
<polygon fill="#63b8ff" stroke="#63b8ff" points="508.17,-71.25 497.64,-72.39 506.59,-78.06 508.17,-71.25"/>
</a>
</g>
</g>
<!-- Node23&#45;&gt;Node16 -->
<g id="edge35_Node000023_Node000016" class="edge">
<title>Node23&#45;&gt;Node16</title>
<g id="a_edge35_Node000023_Node000016"><a xlink:title=" ">
<path fill="none" stroke="#63b8ff" d="M739.05,-113.66C801.8,-106.42 922.27,-91.88 1034.54,-74.16"/>
<polygon fill="#63b8ff" stroke="#63b8ff" points="1035.36,-77.57 1044.68,-72.54 1034.26,-70.66 1035.36,-77.57"/>
</a>
</g>
</g>
<!-- Node23&#45;&gt;Node17 -->
<g id="edge38_Node000023_Node000017" class="edge">
<title>Node23&#45;&gt;Node17</title>
<g id="a_edge38_Node000023_Node000017"><a xlink:title=" ">
<path fill="none" stroke="#63b8ff" d="M652.83,-113.65C576.98,-105.01 421.79,-86.83 349.72,-73.86"/>
<polygon fill="#63b8ff" stroke="#63b8ff" points="350.19,-70.38 339.71,-71.98 348.9,-77.26 350.19,-70.38"/>
</a>
</g>
</g>
<!-- Node23&#45;&gt;Node19 -->
<g id="edge37_Node000023_Node000019" class="edge">
<title>Node23&#45;&gt;Node19</title>
<g id="a_edge37_Node000023_Node000019"><a xlink:title=" ">
<path fill="none" stroke="#63b8ff" d="M671.58,-109.98C646.28,-101.16 606.55,-87.31 578.14,-77.41"/>
<polygon fill="#63b8ff" stroke="#63b8ff" points="579.21,-74.07 568.61,-74.08 576.9,-80.68 579.21,-74.07"/>
</a>
</g>
</g>
<!-- Node23&#45;&gt;Node21 -->
<g id="edge34_Node000023_Node000021" class="edge">
<title>Node23&#45;&gt;Node21</title>
<g id="a_edge34_Node000023_Node000021"><a xlink:title=" ">
<path fill="none" stroke="#63b8ff" d="M739.11,-114.72C814.9,-107.93 977.23,-92.72 1124.82,-74.09"/>
<polygon fill="#63b8ff" stroke="#63b8ff" points="1125.49,-77.54 1134.97,-72.8 1124.61,-70.59 1125.49,-77.54"/>
</a>
</g>
</g>
<!-- Node24 -->
<g id="Node000024" class="node">
<title>Node24</title>
<g id="a_Node000024"><a xlink:title=" ">
<polygon fill="#e0e0e0" stroke="#999999" points="649.5,-74 590.5,-74 590.5,-55 649.5,-55 649.5,-74"/>
<text text-anchor="middle" x="620" y="-62" font-family="Helvetica,sans-Serif" font-size="10.00">atomic.h</text>
</a>
</g>
</g>
<!-- Node23&#45;&gt;Node24 -->
<g id="edge36_Node000023_Node000024" class="edge">
<title>Node23&#45;&gt;Node24</title>
<g id="a_edge36_Node000023_Node000024"><a xlink:title=" ">
<path fill="none" stroke="#63b8ff" d="M683.79,-109.98C672.22,-101.92 654.62,-89.65 640.84,-80.03"/>
<polygon fill="#63b8ff" stroke="#63b8ff" points="642.64,-77.02 632.43,-74.17 638.63,-82.76 642.64,-77.02"/>
</a>
</g>
</g>
<!-- Node25 -->
<g id="Node000025" class="node">
<title>Node25</title>
<g id="a_Node000025"><a xlink:title=" ">
<polygon fill="#e0e0e0" stroke="#999999" points="724.5,-74 667.5,-74 667.5,-55 724.5,-55 724.5,-74"/>
<text text-anchor="middle" x="696" y="-62" font-family="Helvetica,sans-Serif" font-size="10.00">timers.h</text>
</a>
</g>
</g>
<!-- Node23&#45;&gt;Node25 -->
<g id="edge39_Node000023_Node000025" class="edge">
<title>Node23&#45;&gt;Node25</title>
<g id="a_edge39_Node000023_Node000025"><a xlink:title=" ">
<path fill="none" stroke="#63b8ff" d="M696,-109.75C696,-102.8 696,-92.85 696,-84.13"/>
<polygon fill="#63b8ff" stroke="#63b8ff" points="699.5,-84.09 696,-74.09 692.5,-84.09 699.5,-84.09"/>
</a>
</g>
</g>
<!-- Node26 -->
<g id="Node000026" class="node">
<title>Node26</title>
<g id="a_Node000026"><a xlink:title=" ">
<polygon fill="#e0e0e0" stroke="#999999" points="805,-74 743,-74 743,-55 805,-55 805,-74"/>
<text text-anchor="middle" x="774" y="-62" font-family="Helvetica,sans-Serif" font-size="10.00">semphr.h</text>
</a>
</g>
</g>
<!-- Node23&#45;&gt;Node26 -->
<g id="edge40_Node000023_Node000026" class="edge">
<title>Node23&#45;&gt;Node26</title>
<g id="a_edge40_Node000023_Node000026"><a xlink:title=" ">
<path fill="none" stroke="#63b8ff" d="M708.53,-109.98C720.4,-101.92 738.46,-89.65 752.61,-80.03"/>
<polygon fill="#63b8ff" stroke="#63b8ff" points="754.94,-82.69 761.24,-74.17 751,-76.9 754.94,-82.69"/>
</a>
</g>
</g>
<!-- Node27 -->
<g id="Node000027" class="node">
<title>Node27</title>
<g id="a_Node000027"><a xlink:title=" ">
<polygon fill="#e0e0e0" stroke="#999999" points="915,-74 823,-74 823,-55 915,-55 915,-74"/>
<text text-anchor="middle" x="869" y="-62" font-family="Helvetica,sans-Serif" font-size="10.00">event_groups.h</text>
</a>
</g>
</g>
<!-- Node23&#45;&gt;Node27 -->
<g id="edge41_Node000023_Node000027" class="edge">
<title>Node23&#45;&gt;Node27</title>
<g id="a_edge41_Node000023_Node000027"><a xlink:title=" ">
<path fill="none" stroke="#63b8ff" d="M723.8,-109.98C752.97,-101.05 799,-86.94 831.4,-77.02"/>
<polygon fill="#63b8ff" stroke="#63b8ff" points="832.45,-80.36 840.99,-74.08 830.4,-73.66 832.45,-80.36"/>
</a>
</g>
</g>
<!-- Node28 -->
<g id="Node000028" class="node">
<title>Node28</title>
<g id="a_Node000028"><a xlink:title=" ">
<polygon fill="#e0e0e0" stroke="#999999" points="1026.5,-74 933.5,-74 933.5,-55 1026.5,-55 1026.5,-74"/>
<text text-anchor="middle" x="980" y="-62" font-family="Helvetica,sans-Serif" font-size="10.00">stream_buffer.h</text>
</a>
</g>
</g>
<!-- Node23&#45;&gt;Node28 -->
<g id="edge42_Node000023_Node000028" class="edge">
<title>Node23&#45;&gt;Node28</title>
<g id="a_edge42_Node000023_Node000028"><a xlink:title=" ">
<path fill="none" stroke="#63b8ff" d="M739.13,-110.45C788.55,-101.23 869.69,-86.09 923.96,-75.96"/>
<polygon fill="#63b8ff" stroke="#63b8ff" points="924.91,-79.34 934.1,-74.07 923.63,-72.46 924.91,-79.34"/>
</a>
</g>
</g>
<!-- Node30&#45;&gt;Node16 -->
<g id="edge47_Node000030_Node000016" class="edge">
<title>Node30&#45;&gt;Node16</title>
<g id="a_edge47_Node000030_Node000016"><a xlink:title=" ">
<path fill="none" stroke="#63b8ff" d="M1053.25,-170.47C1058.1,-152.15 1069.59,-108.68 1076.16,-83.81"/>
<polygon fill="#63b8ff" stroke="#63b8ff" points="1079.55,-84.69 1078.72,-74.13 1072.78,-82.9 1079.55,-84.69"/>
</a>
</g>
</g>
<!-- Node31 -->
<g id="Node000031" class="node">
<title>Node31</title>
<g id="a_Node000031"><a xlink:title=" ">
<polygon fill="#e0e0e0" stroke="#999999" points="1231,-129 1117,-129 1117,-110 1231,-110 1231,-129"/>
<text text-anchor="middle" x="1174" y="-117" font-family="Helvetica,sans-Serif" font-size="10.00">board/irq_hw_conf.h</text>
</a>
</g>
</g>
<!-- Node30&#45;&gt;Node31 -->
<g id="edge46_Node000030_Node000031" class="edge">
<title>Node30&#45;&gt;Node31</title>
<g id="a_edge46_Node000030_Node000031"><a xlink:title=" ">
<path fill="none" stroke="#63b8ff" d="M1068.89,-170.49C1089.38,-160.75 1123.19,-144.66 1146.92,-133.38"/>
<polygon fill="#63b8ff" stroke="#63b8ff" points="1148.57,-136.47 1156.09,-129.02 1145.56,-130.15 1148.57,-136.47"/>
</a>
</g>
</g>
<!-- Node32&#45;&gt;Node12 -->
<g id="edge49_Node000032_Node000012" class="edge">
<title>Node32&#45;&gt;Node12</title>
<g id="a_edge49_Node000032_Node000012"><a xlink:title=" ">
<path fill="none" stroke="#63b8ff" d="M192.57,-164.86C184.54,-155.23 174.27,-141.92 167,-129 158.83,-114.48 152.09,-96.75 147.68,-83.72"/>
<polygon fill="#63b8ff" stroke="#63b8ff" points="150.96,-82.48 144.54,-74.05 144.3,-84.64 150.96,-82.48"/>
</a>
</g>
</g>
<!-- Node32&#45;&gt;Node15 -->
<g id="edge50_Node000032_Node000015" class="edge">
<title>Node32&#45;&gt;Node15</title>
<g id="a_edge50_Node000032_Node000015"><a xlink:title=" ">
<path fill="none" stroke="#63b8ff" d="M220.01,-164.84C229.19,-156.17 240.95,-145.08 250.41,-136.15"/>
<polygon fill="#63b8ff" stroke="#63b8ff" points="252.84,-138.67 257.71,-129.27 248.03,-133.58 252.84,-138.67"/>
</a>
</g>
</g>
</g>
</svg>

<g id="navigator" transform="translate(0 0)" fill="#404254">
  <rect fill="#f2f5e9" fill-opacity="0.5" stroke="#606060" stroke-width=".5" x="0" y="0" width="60" height="60"/>
  <use id="zoomplus" xlink:href="#zoomPlus" x="17" y="9" onmousedown="handleZoom(evt,'in')"/>
  <use id="zoomminus" xlink:href="#zoomMin" x="42" y="9" onmousedown="handleZoom(evt,'out')"/>
  <use id="reset" xlink:href="#resetDef" x="30" y="36" onmousedown="handleReset()"/>
   <use id="arrowup" xlink:href="#arrowUp" x="0" y="0" onmousedown="handlePan(0,-1)"/>
  <use id="arrowright" xlink:href="#arrowRight" x="0" y="0" onmousedown="handlePan(1,0)"/>
  <use id="arrowdown" xlink:href="#arrowDown" x="0" y="0" onmousedown="handlePan(0,1)"/>
  <use id="arrowleft" xlink:href="#arrowLeft" x="0" y="0" onmousedown="handlePan(-1,0)"/>
</g>
<svg viewBox="0 0 15 15" width="100%" height="30px" preserveAspectRatio="xMaxYMin meet">
 <g id="arrow_out" transform="scale(0.3 0.3)">
  <a xlink:href="spi__mgmt_8c__incl_org.svg" target="_base">
   <rect id="button" ry="5" rx="5" y="6" x="6" height="38" width="38"
        fill="#f2f5e9" fill-opacity="0.5" stroke="#606060" stroke-width="1.0"/>
   <path id="arrow"
     d="M 11.500037,31.436501 C 11.940474,20.09759 22.043105,11.32322 32.158766,21.979434 L 37.068811,17.246167 C 37.068811,17.246167 37.088388,32 37.088388,32 L 22.160133,31.978069 C 22.160133,31.978069 26.997745,27.140456 26.997745,27.140456 C 18.528582,18.264221 13.291696,25.230495 11.500037,31.436501 z"
     style="fill:#404040;"/>
  </a>
 </g>
</svg>

<style type='text/css'>
<![CDATA[
[data-mouse-over-selected='false'] { opacity: 0.7; }
[data-mouse-over-selected='true']  { opacity: 1.0; }
]]>
</style>
<script type="application/ecmascript"><![CDATA[
document.addEventListener('DOMContentLoaded', (event) => {
  highlightEdges();
  highlightAdjacentNodes();
});
]]></script>
</svg>
