<?xml version="1.0" encoding="UTF-8" standalone="no"?>
<!DOCTYPE svg PUBLIC "-//W3C//DTD SVG 1.1//EN"
 "http://www.w3.org/Graphics/SVG/1.1/DTD/svg11.dtd">
<!-- Generated by graphviz version 2.43.0 (0)
 -->
<!-- Title: _fault_puts Pages: 1 -->
<svg width="326pt" height="196pt"
 viewBox="0.00 0.00 326.00 195.99" xmlns="http://www.w3.org/2000/svg" xmlns:xlink="http://www.w3.org/1999/xlink">

<svg id="main" version="1.1" xmlns="http://www.w3.org/2000/svg" xmlns:xlink="http://www.w3.org/1999/xlink" xml:space="preserve" onload="init(evt)">
<style type="text/css"><![CDATA[
.node, .edge {opacity: 0.7;}
.node.selected, .edge.selected {opacity: 1;}
.edge:hover path { stroke: red; }
.edge:hover polygon { stroke: red; fill: red; }
]]></style>
<script type="application/ecmascript" xlink:href="svg.min.js"/>
<svg id="graph" class="graph">
<g id="graph0" class="graph" transform="scale(1 1) rotate(0) translate(4 191.99)">
<title>_fault_puts</title>
<!-- Node1 -->
<g id="Node000001" class="node">
<title>Node1</title>
<g id="a_Node000001"><a xlink:title=" ">
<polygon fill="#999999" stroke="#666666" points="318,-111 247,-111 247,-92 318,-92 318,-111"/>
<text text-anchor="middle" x="282.5" y="-99" font-family="Helvetica,sans-Serif" font-size="10.00">_fault_puts</text>
</a>
</g>
</g>
<!-- Node2 -->
<g id="Node000002" class="node">
<title>Node2</title>
<g id="a_Node000002"><a xlink:href="stm32__exceptions_8c.html#a152d994cac28669a043f654c16c93568" target="_top" xlink:title=" ">
<polygon fill="white" stroke="#666666" points="80,-130 0,-130 0,-111 80,-111 80,-130"/>
<text text-anchor="middle" x="40" y="-118" font-family="Helvetica,sans-Serif" font-size="10.00">__attribute__</text>
</a>
</g>
</g>
<!-- Node1&#45;&gt;Node2 -->
<g id="edge1_Node000001_Node000002" class="edge">
<title>Node1&#45;&gt;Node2</title>
<g id="a_edge1_Node000001_Node000002"><a xlink:title=" ">
<path fill="none" stroke="#63b8ff" d="M270.67,-119.83C258.69,-138.1 237.54,-165.02 211,-176.5 172.25,-193.26 156.07,-189.81 116,-176.5 88.55,-167.38 63.01,-143.87 50,-130.39"/>
<polygon fill="#63b8ff" stroke="#63b8ff" points="273.73,-121.53 276.07,-111.2 267.8,-117.82 273.73,-121.53"/>
</a>
</g>
</g>
<!-- Node3 -->
<g id="Node000003" class="node">
<title>Node3</title>
<g id="a_Node000003"><a xlink:href="stm32__exceptions_8c.html#a355a951e28f1b54c179512940f0ebc58" target="_top" xlink:title=" ">
<polygon fill="white" stroke="#666666" points="204,-167 123,-167 123,-148 204,-148 204,-167"/>
<text text-anchor="middle" x="163.5" y="-155" font-family="Helvetica,sans-Serif" font-size="10.00">_decode_bfsr</text>
</a>
</g>
</g>
<!-- Node1&#45;&gt;Node3 -->
<g id="edge2_Node000001_Node000003" class="edge">
<title>Node1&#45;&gt;Node3</title>
<g id="a_edge2_Node000001_Node000003"><a xlink:title=" ">
<path fill="none" stroke="#63b8ff" d="M256.01,-116.24C242.78,-123.63 226.24,-132.48 211,-139.5 204.55,-142.47 197.47,-145.39 190.81,-147.97"/>
<polygon fill="#63b8ff" stroke="#63b8ff" points="258.01,-119.13 264.99,-111.16 254.56,-113.03 258.01,-119.13"/>
</a>
</g>
</g>
<!-- Node4 -->
<g id="Node000004" class="node">
<title>Node4</title>
<g id="a_Node000004"><a xlink:href="stm32__exceptions_8c.html#a5a89ec4d89244f315ab463585315ec83" target="_top" xlink:title=" ">
<polygon fill="white" stroke="#666666" points="204,-130 123,-130 123,-111 204,-111 204,-130"/>
<text text-anchor="middle" x="163.5" y="-118" font-family="Helvetica,sans-Serif" font-size="10.00">_decode_hfsr</text>
</a>
</g>
</g>
<!-- Node1&#45;&gt;Node4 -->
<g id="edge4_Node000001_Node000004" class="edge">
<title>Node1&#45;&gt;Node4</title>
<g id="a_edge4_Node000001_Node000004"><a xlink:title=" ">
<path fill="none" stroke="#63b8ff" d="M236.72,-108.77C226.05,-110.51 214.72,-112.34 204.29,-114.04"/>
<polygon fill="#63b8ff" stroke="#63b8ff" points="237.4,-112.21 246.71,-107.15 236.28,-105.3 237.4,-112.21"/>
</a>
</g>
</g>
<!-- Node5 -->
<g id="Node000005" class="node">
<title>Node5</title>
<g id="a_Node000005"><a xlink:href="stm32__exceptions_8c.html#af224de80cf3e8cfdabed770e4d84ae0f" target="_top" xlink:title=" ">
<polygon fill="white" stroke="#666666" points="211,-93 116,-93 116,-74 211,-74 211,-93"/>
<text text-anchor="middle" x="163.5" y="-81" font-family="Helvetica,sans-Serif" font-size="10.00">_decode_mmfsr</text>
</a>
</g>
</g>
<!-- Node1&#45;&gt;Node5 -->
<g id="edge6_Node000001_Node000005" class="edge">
<title>Node1&#45;&gt;Node5</title>
<g id="a_edge6_Node000001_Node000005"><a xlink:title=" ">
<path fill="none" stroke="#63b8ff" d="M236.72,-94.61C228.32,-93.32 219.52,-91.96 211.07,-90.66"/>
<polygon fill="#63b8ff" stroke="#63b8ff" points="236.3,-98.09 246.71,-96.15 237.36,-91.17 236.3,-98.09"/>
</a>
</g>
</g>
<!-- Node6 -->
<g id="Node000006" class="node">
<title>Node6</title>
<g id="a_Node000006"><a xlink:href="stm32__exceptions_8c.html#aef351fcfb1f969875723de22d10bc253" target="_top" xlink:title=" ">
<polygon fill="white" stroke="#666666" points="204,-56 123,-56 123,-37 204,-37 204,-56"/>
<text text-anchor="middle" x="163.5" y="-44" font-family="Helvetica,sans-Serif" font-size="10.00">_decode_ufsr</text>
</a>
</g>
</g>
<!-- Node1&#45;&gt;Node6 -->
<g id="edge8_Node000001_Node000006" class="edge">
<title>Node1&#45;&gt;Node6</title>
<g id="a_edge8_Node000001_Node000006"><a xlink:title=" ">
<path fill="none" stroke="#63b8ff" d="M254.81,-87.2C241.73,-80.37 225.68,-72.23 211,-65.5 204.02,-62.3 196.35,-59.06 189.28,-56.17"/>
<polygon fill="#63b8ff" stroke="#63b8ff" points="253.26,-90.34 263.74,-91.9 256.52,-84.15 253.26,-90.34"/>
</a>
</g>
</g>
<!-- Node7 -->
<g id="Node000007" class="node">
<title>Node7</title>
<g id="a_Node000007"><a xlink:href="stm32__exceptions_8c.html#a6ad7a5e3ee69cb6db6a6b9111ba898bc" target="_top" xlink:title=" ">
<polygon fill="white" stroke="#666666" points="203.5,-19 123.5,-19 123.5,0 203.5,0 203.5,-19"/>
<text text-anchor="middle" x="163.5" y="-7" font-family="Helvetica,sans-Serif" font-size="10.00">NMI_Handler</text>
</a>
</g>
</g>
<!-- Node1&#45;&gt;Node7 -->
<g id="edge10_Node000001_Node000007" class="edge">
<title>Node1&#45;&gt;Node7</title>
<g id="a_edge10_Node000001_Node000007"><a xlink:title=" ">
<path fill="none" stroke="#63b8ff" d="M267.86,-83.61C254.75,-67.42 233.65,-43.84 211,-28.5 205.66,-24.88 199.52,-21.77 193.49,-19.17"/>
<polygon fill="#63b8ff" stroke="#63b8ff" points="265.33,-86.06 274.28,-91.74 270.83,-81.72 265.33,-86.06"/>
</a>
</g>
</g>
<!-- Node3&#45;&gt;Node2 -->
<g id="edge3_Node000003_Node000002" class="edge">
<title>Node3&#45;&gt;Node2</title>
<g id="a_edge3_Node000003_Node000002"><a xlink:title=" ">
<path fill="none" stroke="#63b8ff" d="M121.57,-145.04C105.59,-140.17 87.56,-134.68 72.61,-130.12"/>
<polygon fill="#63b8ff" stroke="#63b8ff" points="120.62,-148.41 131.21,-147.97 122.66,-141.71 120.62,-148.41"/>
</a>
</g>
</g>
<!-- Node4&#45;&gt;Node2 -->
<g id="edge5_Node000004_Node000002" class="edge">
<title>Node4&#45;&gt;Node2</title>
<g id="a_edge5_Node000004_Node000002"><a xlink:title=" ">
<path fill="none" stroke="#63b8ff" d="M112.52,-120.5C101.69,-120.5 90.38,-120.5 80.04,-120.5"/>
<polygon fill="#63b8ff" stroke="#63b8ff" points="112.72,-124 122.72,-120.5 112.72,-117 112.72,-124"/>
</a>
</g>
</g>
<!-- Node5&#45;&gt;Node2 -->
<g id="edge7_Node000005_Node000002" class="edge">
<title>Node5&#45;&gt;Node2</title>
<g id="a_edge7_Node000005_Node000002"><a xlink:title=" ">
<path fill="none" stroke="#63b8ff" d="M121.57,-95.96C105.59,-100.83 87.56,-106.32 72.61,-110.88"/>
<polygon fill="#63b8ff" stroke="#63b8ff" points="122.66,-99.29 131.21,-93.03 120.62,-92.59 122.66,-99.29"/>
</a>
</g>
</g>
<!-- Node6&#45;&gt;Node2 -->
<g id="edge9_Node000006_Node000002" class="edge">
<title>Node6&#45;&gt;Node2</title>
<g id="a_edge9_Node000006_Node000002"><a xlink:title=" ">
<path fill="none" stroke="#63b8ff" d="M126.43,-60.2C122.85,-61.87 119.31,-63.64 116,-65.5 92.05,-78.91 66.83,-98.76 52.6,-110.59"/>
<polygon fill="#63b8ff" stroke="#63b8ff" points="128.14,-63.27 135.9,-56.06 125.34,-56.86 128.14,-63.27"/>
</a>
</g>
</g>
</g>
</svg>
</svg>

<style type='text/css'>
<![CDATA[
[data-mouse-over-selected='false'] { opacity: 0.7; }
[data-mouse-over-selected='true']  { opacity: 1.0; }
]]>
</style>
<script type="application/ecmascript"><![CDATA[
document.addEventListener('DOMContentLoaded', (event) => {
  highlightEdges();
  highlightAdjacentNodes();
});
]]></script>
</svg>
