<?xml version="1.0" encoding="UTF-8" standalone="no"?>
<!DOCTYPE svg PUBLIC "-//W3C//DTD SVG 1.1//EN"
 "http://www.w3.org/Graphics/SVG/1.1/DTD/svg11.dtd">
<!-- Generated by graphviz version 2.43.0 (0)
 -->
<!-- Title: __attribute__ Pages: 1 -->
<svg width="484pt" height="197pt"
 viewBox="0.00 0.00 484.00 197.22" xmlns="http://www.w3.org/2000/svg" xmlns:xlink="http://www.w3.org/1999/xlink">
<g id="graph0" class="graph" transform="scale(1 1) rotate(0) translate(4 193.22)">
<title>__attribute__</title>
<!-- Node1 -->
<g id="Node000001" class="node">
<title>Node1</title>
<g id="a_Node000001"><a xlink:title=" ">
<polygon fill="#999999" stroke="#666666" points="80,-94.22 0,-94.22 0,-75.22 80,-75.22 80,-94.22"/>
<text text-anchor="middle" x="40" y="-82.22" font-family="Helvetica,sans-Serif" font-size="10.00">__attribute__</text>
</a>
</g>
</g>
<!-- Node2 -->
<g id="Node000002" class="node">
<title>Node2</title>
<g id="a_Node000002"><a xlink:href="stm32__exceptions_8c.html#a355a951e28f1b54c179512940f0ebc58" target="_top" xlink:title=" ">
<polygon fill="white" stroke="#666666" points="204,-189.22 123,-189.22 123,-170.22 204,-170.22 204,-189.22"/>
<text text-anchor="middle" x="163.5" y="-177.22" font-family="Helvetica,sans-Serif" font-size="10.00">_decode_bfsr</text>
</a>
</g>
</g>
<!-- Node1&#45;&gt;Node2 -->
<g id="edge1_Node000001_Node000002" class="edge">
<title>Node1&#45;&gt;Node2</title>
<g id="a_edge1_Node000001_Node000002"><a xlink:title=" ">
<path fill="none" stroke="#63b8ff" d="M49.51,-94.35C62.71,-108.92 89.39,-136.83 116,-155.72 120.94,-159.22 126.45,-162.53 131.91,-165.5"/>
<polygon fill="#63b8ff" stroke="#63b8ff" points="130.45,-168.68 140.94,-170.17 133.66,-162.47 130.45,-168.68"/>
</a>
</g>
</g>
<!-- Node3 -->
<g id="Node000003" class="node">
<title>Node3</title>
<g id="a_Node000003"><a xlink:href="stm32__exceptions_8c.html#adeba1bdf56c3dfdf25b559d239a20fa5" target="_top" xlink:title=" ">
<polygon fill="white" stroke="#666666" points="336,-94.22 265,-94.22 265,-75.22 336,-75.22 336,-94.22"/>
<text text-anchor="middle" x="300.5" y="-82.22" font-family="Helvetica,sans-Serif" font-size="10.00">_fault_puts</text>
</a>
</g>
</g>
<!-- Node1&#45;&gt;Node3 -->
<g id="edge12_Node000001_Node000003" class="edge">
<title>Node1&#45;&gt;Node3</title>
<g id="a_edge12_Node000001_Node000003"><a xlink:title=" ">
<path fill="none" stroke="#63b8ff" d="M54.88,-94.28C69.37,-103.64 93.14,-117.26 116,-122.72 157.07,-132.53 169.64,-131.22 211,-122.72 233.25,-118.15 256.81,-107.73 274.02,-98.95"/>
<polygon fill="#63b8ff" stroke="#63b8ff" points="275.65,-102.05 282.88,-94.3 272.4,-95.85 275.65,-102.05"/>
</a>
</g>
</g>
<!-- Node5 -->
<g id="Node000005" class="node">
<title>Node5</title>
<g id="a_Node000005"><a xlink:href="stm32__exceptions_8c.html#a5a89ec4d89244f315ab463585315ec83" target="_top" xlink:title=" ">
<polygon fill="white" stroke="#666666" points="204,-113.22 123,-113.22 123,-94.22 204,-94.22 204,-113.22"/>
<text text-anchor="middle" x="163.5" y="-101.22" font-family="Helvetica,sans-Serif" font-size="10.00">_decode_hfsr</text>
</a>
</g>
</g>
<!-- Node1&#45;&gt;Node5 -->
<g id="edge4_Node000001_Node000005" class="edge">
<title>Node1&#45;&gt;Node5</title>
<g id="a_edge4_Node000001_Node000005"><a xlink:title=" ">
<path fill="none" stroke="#63b8ff" d="M80.11,-90.84C90.42,-92.45 101.68,-94.21 112.47,-95.9"/>
<polygon fill="#63b8ff" stroke="#63b8ff" points="112.21,-99.4 122.63,-97.49 113.29,-92.48 112.21,-99.4"/>
</a>
</g>
</g>
<!-- Node6 -->
<g id="Node000006" class="node">
<title>Node6</title>
<g id="a_Node000006"><a xlink:href="stm32__exceptions_8c.html#af224de80cf3e8cfdabed770e4d84ae0f" target="_top" xlink:title=" ">
<polygon fill="white" stroke="#666666" points="211,-76.22 116,-76.22 116,-57.22 211,-57.22 211,-76.22"/>
<text text-anchor="middle" x="163.5" y="-64.22" font-family="Helvetica,sans-Serif" font-size="10.00">_decode_mmfsr</text>
</a>
</g>
</g>
<!-- Node1&#45;&gt;Node6 -->
<g id="edge6_Node000001_Node000006" class="edge">
<title>Node1&#45;&gt;Node6</title>
<g id="a_edge6_Node000001_Node000006"><a xlink:title=" ">
<path fill="none" stroke="#63b8ff" d="M80.11,-78.93C88.29,-77.72 97.07,-76.41 105.74,-75.13"/>
<polygon fill="#63b8ff" stroke="#63b8ff" points="106.44,-78.56 115.82,-73.64 105.42,-71.64 106.44,-78.56"/>
</a>
</g>
</g>
<!-- Node7 -->
<g id="Node000007" class="node">
<title>Node7</title>
<g id="a_Node000007"><a xlink:href="stm32__exceptions_8c.html#aef351fcfb1f969875723de22d10bc253" target="_top" xlink:title=" ">
<polygon fill="white" stroke="#666666" points="204,-39.22 123,-39.22 123,-20.22 204,-20.22 204,-39.22"/>
<text text-anchor="middle" x="163.5" y="-27.22" font-family="Helvetica,sans-Serif" font-size="10.00">_decode_ufsr</text>
</a>
</g>
</g>
<!-- Node1&#45;&gt;Node7 -->
<g id="edge8_Node000001_Node000007" class="edge">
<title>Node1&#45;&gt;Node7</title>
<g id="a_edge8_Node000001_Node000007"><a xlink:title=" ">
<path fill="none" stroke="#63b8ff" d="M60.28,-75.08C75.34,-67.64 96.86,-57.22 116,-48.72 120.15,-46.88 124.53,-45 128.88,-43.18"/>
<polygon fill="#63b8ff" stroke="#63b8ff" points="130.34,-46.36 138.25,-39.31 127.67,-39.89 130.34,-46.36"/>
</a>
</g>
</g>
<!-- Node8 -->
<g id="Node000008" class="node">
<title>Node8</title>
<g id="a_Node000008"><a xlink:href="stm32__exceptions_8c.html#a39ae5a6cf613bcc076cf5b7957eefd0d" target="_top" xlink:title=" ">
<polygon fill="white" stroke="#666666" points="354,-38.22 247,-38.22 247,-19.22 354,-19.22 354,-38.22"/>
<text text-anchor="middle" x="300.5" y="-26.22" font-family="Helvetica,sans-Serif" font-size="10.00">_fault_print_hex32</text>
</a>
</g>
</g>
<!-- Node1&#45;&gt;Node8 -->
<g id="edge10_Node000001_Node000008" class="edge">
<title>Node1&#45;&gt;Node8</title>
<g id="a_edge10_Node000001_Node000008"><a xlink:title=" ">
<path fill="none" stroke="#63b8ff" d="M46.97,-75.13C58.11,-58.29 83.85,-23.91 116,-10.72 164.93,9.36 227.15,-3.98 265.11,-15.97"/>
<polygon fill="#63b8ff" stroke="#63b8ff" points="264.09,-19.31 274.68,-19.12 266.28,-12.67 264.09,-19.31"/>
</a>
</g>
</g>
<!-- Node2&#45;&gt;Node3 -->
<g id="edge2_Node000002_Node000003" class="edge">
<title>Node2&#45;&gt;Node3</title>
<g id="a_edge2_Node000002_Node000003"><a xlink:title=" ">
<path fill="none" stroke="#63b8ff" d="M185.37,-170.06C193.57,-165.99 202.93,-160.97 211,-155.72 236.69,-139.02 263.83,-116.41 281.18,-101.23"/>
<polygon fill="#63b8ff" stroke="#63b8ff" points="283.69,-103.68 288.86,-94.43 279.05,-98.44 283.69,-103.68"/>
</a>
</g>
</g>
<!-- Node4 -->
<g id="Node000004" class="node">
<title>Node4</title>
<g id="a_Node000004"><a xlink:href="stm32__exceptions_8c.html#a8d37bcc361b4d040ca56e527236c46b7" target="_top" xlink:title=" ">
<polygon fill="white" stroke="#666666" points="476,-56.22 390,-56.22 390,-37.22 476,-37.22 476,-56.22"/>
<text text-anchor="middle" x="433" y="-44.22" font-family="Helvetica,sans-Serif" font-size="10.00">_fault_putchar</text>
</a>
</g>
</g>
<!-- Node3&#45;&gt;Node4 -->
<g id="edge3_Node000003_Node000004" class="edge">
<title>Node3&#45;&gt;Node4</title>
<g id="a_edge3_Node000003_Node000004"><a xlink:title=" ">
<path fill="none" stroke="#63b8ff" d="M334.43,-75.13C351.12,-70.27 371.59,-64.31 389.46,-59.11"/>
<polygon fill="#63b8ff" stroke="#63b8ff" points="390.46,-62.46 399.08,-56.31 388.5,-55.74 390.46,-62.46"/>
</a>
</g>
</g>
<!-- Node5&#45;&gt;Node3 -->
<g id="edge5_Node000005_Node000003" class="edge">
<title>Node5&#45;&gt;Node3</title>
<g id="a_edge5_Node000005_Node000003"><a xlink:title=" ">
<path fill="none" stroke="#63b8ff" d="M204.27,-98.12C219.97,-95.91 238.09,-93.36 254.28,-91.09"/>
<polygon fill="#63b8ff" stroke="#63b8ff" points="255.18,-94.49 264.59,-89.63 254.2,-87.56 255.18,-94.49"/>
</a>
</g>
</g>
<!-- Node6&#45;&gt;Node3 -->
<g id="edge7_Node000006_Node000003" class="edge">
<title>Node6&#45;&gt;Node3</title>
<g id="a_edge7_Node000006_Node000003"><a xlink:title=" ">
<path fill="none" stroke="#63b8ff" d="M211.34,-72.97C225.3,-74.83 240.56,-76.86 254.4,-78.71"/>
<polygon fill="#63b8ff" stroke="#63b8ff" points="254.29,-82.22 264.67,-80.08 255.22,-75.29 254.29,-82.22"/>
</a>
</g>
</g>
<!-- Node7&#45;&gt;Node3 -->
<g id="edge9_Node000007_Node000003" class="edge">
<title>Node7&#45;&gt;Node3</title>
<g id="a_edge9_Node000007_Node000003"><a xlink:title=" ">
<path fill="none" stroke="#63b8ff" d="M188.02,-39.3C209.66,-48.12 241.99,-61.29 266.27,-71.18"/>
<polygon fill="#63b8ff" stroke="#63b8ff" points="265.22,-74.53 275.8,-75.07 267.86,-68.05 265.22,-74.53"/>
</a>
</g>
</g>
<!-- Node8&#45;&gt;Node4 -->
<g id="edge11_Node000008_Node000004" class="edge">
<title>Node8&#45;&gt;Node4</title>
<g id="a_edge11_Node000008_Node000004"><a xlink:title=" ">
<path fill="none" stroke="#63b8ff" d="M354.2,-35.99C362.65,-37.16 371.39,-38.36 379.83,-39.53"/>
<polygon fill="#63b8ff" stroke="#63b8ff" points="379.54,-43.02 389.93,-40.92 380.5,-36.08 379.54,-43.02"/>
</a>
</g>
</g>
</g>
</svg>
