<?xml version="1.0" encoding="UTF-8" standalone="no"?>
<!DOCTYPE svg PUBLIC "-//W3C//DTD SVG 1.1//EN"
 "http://www.w3.org/Graphics/SVG/1.1/DTD/svg11.dtd">
<!-- Generated by graphviz version 2.43.0 (0)
 -->
<!-- Title: _fault_putchar Pages: 1 -->
<svg width="484pt" height="250pt"
 viewBox="0.00 0.00 484.00 250.00" xmlns="http://www.w3.org/2000/svg" xmlns:xlink="http://www.w3.org/1999/xlink">

<svg id="main" version="1.1" xmlns="http://www.w3.org/2000/svg" xmlns:xlink="http://www.w3.org/1999/xlink" xml:space="preserve" onload="init(evt)">
<style type="text/css"><![CDATA[
.node, .edge {opacity: 0.7;}
.node.selected, .edge.selected {opacity: 1;}
.edge:hover path { stroke: red; }
.edge:hover polygon { stroke: red; fill: red; }
]]></style>
<script type="application/ecmascript" xlink:href="svg.min.js"/>
<svg id="graph" class="graph">
<g id="graph0" class="graph" transform="scale(1 1) rotate(0) translate(4 246)">
<title>_fault_putchar</title>
<!-- Node1 -->
<g id="Node000001" class="node">
<title>Node1</title>
<g id="a_Node000001"><a xlink:title=" ">
<polygon fill="#999999" stroke="#666666" points="476,-205 390,-205 390,-186 476,-186 476,-205"/>
<text text-anchor="middle" x="433" y="-193" font-family="Helvetica,sans-Serif" font-size="10.00">_fault_putchar</text>
</a>
</g>
</g>
<!-- Node2 -->
<g id="Node000002" class="node">
<title>Node2</title>
<g id="a_Node000002"><a xlink:href="stm32__exceptions_8c.html#ae1b37a36bc905590e3784450e0f3806a" target="_top" xlink:title=" ">
<polygon fill="white" stroke="#666666" points="348,-242 253,-242 253,-223 348,-223 348,-242"/>
<text text-anchor="middle" x="300.5" y="-230" font-family="Helvetica,sans-Serif" font-size="10.00">_fault_print_dec</text>
</a>
</g>
</g>
<!-- Node1&#45;&gt;Node2 -->
<g id="edge1_Node000001_Node000002" class="edge">
<title>Node1&#45;&gt;Node2</title>
<g id="a_edge1_Node000001_Node000002"><a xlink:title=" ">
<path fill="none" stroke="#63b8ff" d="M388.53,-207.83C371.24,-212.73 351.66,-218.28 335.45,-222.88"/>
<polygon fill="#63b8ff" stroke="#63b8ff" points="389.73,-211.12 398.39,-205.03 387.82,-204.39 389.73,-211.12"/>
</a>
</g>
</g>
<!-- Node3 -->
<g id="Node000003" class="node">
<title>Node3</title>
<g id="a_Node000003"><a xlink:href="stm32__exceptions_8c.html#a39ae5a6cf613bcc076cf5b7957eefd0d" target="_top" xlink:title=" ">
<polygon fill="white" stroke="#666666" points="354,-205 247,-205 247,-186 354,-186 354,-205"/>
<text text-anchor="middle" x="300.5" y="-193" font-family="Helvetica,sans-Serif" font-size="10.00">_fault_print_hex32</text>
</a>
</g>
</g>
<!-- Node1&#45;&gt;Node3 -->
<g id="edge2_Node000001_Node000003" class="edge">
<title>Node1&#45;&gt;Node3</title>
<g id="a_edge2_Node000001_Node000003"><a xlink:title=" ">
<path fill="none" stroke="#63b8ff" d="M379.94,-195.5C371.54,-195.5 362.84,-195.5 354.43,-195.5"/>
<polygon fill="#63b8ff" stroke="#63b8ff" points="379.99,-199 389.99,-195.5 379.99,-192 379.99,-199"/>
</a>
</g>
</g>
<!-- Node5 -->
<g id="Node000005" class="node">
<title>Node5</title>
<g id="a_Node000005"><a xlink:href="stm32__exceptions_8c.html#adeba1bdf56c3dfdf25b559d239a20fa5" target="_top" xlink:title=" ">
<polygon fill="white" stroke="#666666" points="336,-130 265,-130 265,-111 336,-111 336,-130"/>
<text text-anchor="middle" x="300.5" y="-118" font-family="Helvetica,sans-Serif" font-size="10.00">_fault_puts</text>
</a>
</g>
</g>
<!-- Node1&#45;&gt;Node5 -->
<g id="edge4_Node000001_Node000005" class="edge">
<title>Node1&#45;&gt;Node5</title>
<g id="a_edge4_Node000001_Node000005"><a xlink:title=" ">
<path fill="none" stroke="#63b8ff" d="M406.26,-180.71C380.15,-165.7 340.51,-142.92 318.23,-130.11"/>
<polygon fill="#63b8ff" stroke="#63b8ff" points="404.79,-183.9 415.21,-185.85 408.28,-177.83 404.79,-183.9"/>
</a>
</g>
</g>
<!-- Node4 -->
<g id="Node000004" class="node">
<title>Node4</title>
<g id="a_Node000004"><a xlink:href="stm32__exceptions_8c.html#a152d994cac28669a043f654c16c93568" target="_top" xlink:title=" ">
<polygon fill="white" stroke="#666666" points="80,-148 0,-148 0,-129 80,-129 80,-148"/>
<text text-anchor="middle" x="40" y="-136" font-family="Helvetica,sans-Serif" font-size="10.00">__attribute__</text>
</a>
</g>
</g>
<!-- Node3&#45;&gt;Node4 -->
<g id="edge3_Node000003_Node000004" class="edge">
<title>Node3&#45;&gt;Node4</title>
<g id="a_edge3_Node000003_Node000004"><a xlink:title=" ">
<path fill="none" stroke="#63b8ff" d="M236.26,-204.76C200.13,-207.71 154.49,-207.4 116,-194.5 88.57,-185.31 63.03,-161.82 50.01,-148.37"/>
<polygon fill="#63b8ff" stroke="#63b8ff" points="237.03,-208.2 246.66,-203.8 236.38,-201.23 237.03,-208.2"/>
</a>
</g>
</g>
<!-- Node5&#45;&gt;Node4 -->
<g id="edge5_Node000005_Node000004" class="edge">
<title>Node5&#45;&gt;Node4</title>
<g id="a_edge5_Node000005_Node000004"><a xlink:title=" ">
<path fill="none" stroke="#63b8ff" d="M280.84,-136.79C263.92,-150.4 237.62,-168.79 211,-176.5 170.45,-188.25 157.07,-186.31 116,-176.5 93.14,-171.04 69.37,-157.42 54.88,-148.06"/>
<polygon fill="#63b8ff" stroke="#63b8ff" points="283.33,-139.27 288.78,-130.19 278.85,-133.89 283.33,-139.27"/>
</a>
</g>
</g>
<!-- Node6 -->
<g id="Node000006" class="node">
<title>Node6</title>
<g id="a_Node000006"><a xlink:href="stm32__exceptions_8c.html#a355a951e28f1b54c179512940f0ebc58" target="_top" xlink:title=" ">
<polygon fill="white" stroke="#666666" points="204,-167 123,-167 123,-148 204,-148 204,-167"/>
<text text-anchor="middle" x="163.5" y="-155" font-family="Helvetica,sans-Serif" font-size="10.00">_decode_bfsr</text>
</a>
</g>
</g>
<!-- Node5&#45;&gt;Node6 -->
<g id="edge6_Node000005_Node000006" class="edge">
<title>Node5&#45;&gt;Node6</title>
<g id="a_edge6_Node000005_Node000006"><a xlink:title=" ">
<path fill="none" stroke="#63b8ff" d="M255.03,-132.69C237.03,-137.62 216.54,-143.24 199.62,-147.88"/>
<polygon fill="#63b8ff" stroke="#63b8ff" points="256.01,-136.05 264.73,-130.03 254.16,-129.3 256.01,-136.05"/>
</a>
</g>
</g>
<!-- Node7 -->
<g id="Node000007" class="node">
<title>Node7</title>
<g id="a_Node000007"><a xlink:href="stm32__exceptions_8c.html#a5a89ec4d89244f315ab463585315ec83" target="_top" xlink:title=" ">
<polygon fill="white" stroke="#666666" points="204,-130 123,-130 123,-111 204,-111 204,-130"/>
<text text-anchor="middle" x="163.5" y="-118" font-family="Helvetica,sans-Serif" font-size="10.00">_decode_hfsr</text>
</a>
</g>
</g>
<!-- Node5&#45;&gt;Node7 -->
<g id="edge8_Node000005_Node000007" class="edge">
<title>Node5&#45;&gt;Node7</title>
<g id="a_edge8_Node000005_Node000007"><a xlink:title=" ">
<path fill="none" stroke="#63b8ff" d="M254.42,-120.5C238.24,-120.5 220.12,-120.5 204.41,-120.5"/>
<polygon fill="#63b8ff" stroke="#63b8ff" points="254.73,-124 264.73,-120.5 254.73,-117 254.73,-124"/>
</a>
</g>
</g>
<!-- Node8 -->
<g id="Node000008" class="node">
<title>Node8</title>
<g id="a_Node000008"><a xlink:href="stm32__exceptions_8c.html#af224de80cf3e8cfdabed770e4d84ae0f" target="_top" xlink:title=" ">
<polygon fill="white" stroke="#666666" points="211,-93 116,-93 116,-74 211,-74 211,-93"/>
<text text-anchor="middle" x="163.5" y="-81" font-family="Helvetica,sans-Serif" font-size="10.00">_decode_mmfsr</text>
</a>
</g>
</g>
<!-- Node5&#45;&gt;Node8 -->
<g id="edge10_Node000005_Node000008" class="edge">
<title>Node5&#45;&gt;Node8</title>
<g id="a_edge10_Node000005_Node000008"><a xlink:title=" ">
<path fill="none" stroke="#63b8ff" d="M255.03,-108.31C237.03,-103.38 216.54,-97.76 199.62,-93.12"/>
<polygon fill="#63b8ff" stroke="#63b8ff" points="254.16,-111.7 264.73,-110.97 256.01,-104.95 254.16,-111.7"/>
</a>
</g>
</g>
<!-- Node9 -->
<g id="Node000009" class="node">
<title>Node9</title>
<g id="a_Node000009"><a xlink:href="stm32__exceptions_8c.html#aef351fcfb1f969875723de22d10bc253" target="_top" xlink:title=" ">
<polygon fill="white" stroke="#666666" points="204,-56 123,-56 123,-37 204,-37 204,-56"/>
<text text-anchor="middle" x="163.5" y="-44" font-family="Helvetica,sans-Serif" font-size="10.00">_decode_ufsr</text>
</a>
</g>
</g>
<!-- Node5&#45;&gt;Node9 -->
<g id="edge12_Node000005_Node000009" class="edge">
<title>Node5&#45;&gt;Node9</title>
<g id="a_edge12_Node000005_Node000009"><a xlink:title=" ">
<path fill="none" stroke="#63b8ff" d="M277.41,-105.32C259.87,-93.62 234.46,-77.48 211,-65.5 204.48,-62.17 197.23,-58.98 190.43,-56.2"/>
<polygon fill="#63b8ff" stroke="#63b8ff" points="275.57,-108.3 285.82,-110.99 279.48,-102.5 275.57,-108.3"/>
</a>
</g>
</g>
<!-- Node10 -->
<g id="Node000010" class="node">
<title>Node10</title>
<g id="a_Node000010"><a xlink:href="stm32__exceptions_8c.html#a6ad7a5e3ee69cb6db6a6b9111ba898bc" target="_top" xlink:title=" ">
<polygon fill="white" stroke="#666666" points="203.5,-19 123.5,-19 123.5,0 203.5,0 203.5,-19"/>
<text text-anchor="middle" x="163.5" y="-7" font-family="Helvetica,sans-Serif" font-size="10.00">NMI_Handler</text>
</a>
</g>
</g>
<!-- Node5&#45;&gt;Node10 -->
<g id="edge14_Node000005_Node000010" class="edge">
<title>Node5&#45;&gt;Node10</title>
<g id="a_edge14_Node000005_Node000010"><a xlink:title=" ">
<path fill="none" stroke="#63b8ff" d="M286.27,-102.82C270.33,-82.55 241.83,-49.43 211,-28.5 205.66,-24.88 199.52,-21.76 193.49,-19.16"/>
<polygon fill="#63b8ff" stroke="#63b8ff" points="283.62,-105.1 292.49,-110.89 289.16,-100.83 283.62,-105.1"/>
</a>
</g>
</g>
<!-- Node6&#45;&gt;Node4 -->
<g id="edge7_Node000006_Node000004" class="edge">
<title>Node6&#45;&gt;Node4</title>
<g id="a_edge7_Node000006_Node000004"><a xlink:title=" ">
<path fill="none" stroke="#63b8ff" d="M112.52,-149.68C101.69,-147.99 90.38,-146.22 80.04,-144.61"/>
<polygon fill="#63b8ff" stroke="#63b8ff" points="112.3,-153.19 122.72,-151.28 113.38,-146.28 112.3,-153.19"/>
</a>
</g>
</g>
<!-- Node7&#45;&gt;Node4 -->
<g id="edge9_Node000007_Node000004" class="edge">
<title>Node7&#45;&gt;Node4</title>
<g id="a_edge9_Node000007_Node000004"><a xlink:title=" ">
<path fill="none" stroke="#63b8ff" d="M112.52,-127.9C101.69,-129.51 90.38,-131.18 80.04,-132.72"/>
<polygon fill="#63b8ff" stroke="#63b8ff" points="113.34,-131.32 122.72,-126.39 112.31,-124.4 113.34,-131.32"/>
</a>
</g>
</g>
<!-- Node8&#45;&gt;Node4 -->
<g id="edge11_Node000008_Node000004" class="edge">
<title>Node8&#45;&gt;Node4</title>
<g id="a_edge11_Node000008_Node000004"><a xlink:title=" ">
<path fill="none" stroke="#63b8ff" d="M128.88,-96.96C124.53,-98.78 120.15,-100.66 116,-102.5 96.86,-111 75.34,-121.42 60.28,-128.86"/>
<polygon fill="#63b8ff" stroke="#63b8ff" points="130.34,-100.14 138.25,-93.09 127.67,-93.67 130.34,-100.14"/>
</a>
</g>
</g>
<!-- Node9&#45;&gt;Node4 -->
<g id="edge13_Node000009_Node000004" class="edge">
<title>Node9&#45;&gt;Node4</title>
<g id="a_edge13_Node000009_Node000004"><a xlink:title=" ">
<path fill="none" stroke="#63b8ff" d="M124.8,-60.42C121.75,-61.99 118.77,-63.68 116,-65.5 88.03,-83.82 61.52,-113.52 48.82,-128.77"/>
<polygon fill="#63b8ff" stroke="#63b8ff" points="126.5,-63.49 134.08,-56.08 123.54,-57.14 126.5,-63.49"/>
</a>
</g>
</g>
</g>
</svg>
</svg>

<style type='text/css'>
<![CDATA[
[data-mouse-over-selected='false'] { opacity: 0.7; }
[data-mouse-over-selected='true']  { opacity: 1.0; }
]]>
</style>
<script type="application/ecmascript"><![CDATA[
document.addEventListener('DOMContentLoaded', (event) => {
  highlightEdges();
  highlightAdjacentNodes();
});
]]></script>
</svg>
