<?xml version="1.0" encoding="UTF-8" standalone="no"?>
<!DOCTYPE svg PUBLIC "-//W3C//DTD SVG 1.1//EN"
 "http://www.w3.org/Graphics/SVG/1.1/DTD/svg11.dtd">
<!-- Generated by graphviz version 2.43.0 (0)
 -->
<!-- Title: syscalls.c Pages: 1 -->
<!--zoomable 302 -->

<svg id="main" version="1.1" xmlns="http://www.w3.org/2000/svg" xmlns:xlink="http://www.w3.org/1999/xlink" xml:space="preserve" onload="init(evt)">
<style type="text/css"><![CDATA[
.node, .edge {opacity: 0.7;}
.node.selected, .edge.selected {opacity: 1;}
.edge:hover path { stroke: red; }
.edge:hover polygon { stroke: red; fill: red; }
]]></style>

<defs>
  <circle id="rim" cx="0" cy="0" r="7"/>
  <circle id="rim2" cx="0" cy="0" r="3.5"/>
  <g id="zoomPlus">
    <use xlink:href="#rim" fill="#404040"><set attributeName="fill" to="#808080" begin="zoomplus.mouseover" end="zoomplus.mouseout"/></use>
    <path d="M-4,0h8M0,-4v8" fill="none" stroke="white" stroke-width="1.5" pointer-events="none"/>
  </g>
  <g id="zoomMin">
    <use xlink:href="#rim" fill="#404040"><set attributeName="fill" to="#808080" begin="zoomminus.mouseover" end="zoomminus.mouseout"/></use>
    <path d="M-4,0h8" fill="none" stroke="white" stroke-width="1.5" pointer-events="none"/>
  </g>
  <g id="arrowUp" transform="translate(30 24)">
    <use xlink:href="#rim"/>
    <path pointer-events="none" fill="none" stroke="white" stroke-width="1.5" d="M0,-3.0v7 M-2.5,-0.5L0,-3.0L2.5,-0.5"/>
  </g>
  <g id="arrowRight" transform="rotate(90) translate(36 -43)">
    <use xlink:href="#rim"/>
    <path pointer-events="none" fill="none" stroke="white" stroke-width="1.5" d="M0,-3.0v7 M-2.5,-0.5L0,-3.0L2.5,-0.5"/>
  </g>
  <g id="arrowDown" transform="rotate(180) translate(-30 -48)">
    <use xlink:href="#rim"/>
    <path pointer-events="none" fill="none" stroke="white" stroke-width="1.5" d="M0,-3.0v7 M-2.5,-0.5L0,-3.0L2.5,-0.5"/>
  </g>
  <g id="arrowLeft" transform="rotate(270) translate(-36 17)">
    <use xlink:href="#rim"/>
    <path pointer-events="none" fill="none" stroke="white" stroke-width="1.5" d="M0,-3.0v7 M-2.5,-0.5L0,-3.0L2.5,-0.5"/>
  </g>
  <g id="resetDef">
    <use xlink:href="#rim2" fill="#404040"><set attributeName="fill" to="#808080" begin="reset.mouseover" end="reset.mouseout"/></use>
  </g>
</defs>
<script type="application/ecmascript">
var viewWidth = 1628;
var viewHeight = 302;
var sectionId = 'dynsection-0';
</script>
<script type="application/ecmascript" xlink:href="svg.min.js"/>
<svg id="graph" class="graph">
<g id="viewport">
<title>syscalls.c</title>
<!-- Node1 -->
<g id="Node000001" class="node">
<title>Node1</title>
<g id="a_Node000001"><a xlink:title=" ">
<polygon fill="#999999" stroke="#666666" points="389,-294 325,-294 325,-275 389,-275 389,-294"/>
<text text-anchor="middle" x="357" y="-282" font-family="Helvetica,sans-Serif" font-size="10.00">syscalls.c</text>
</a>
</g>
</g>
<!-- Node2 -->
<g id="Node000002" class="node">
<title>Node2</title>
<g id="a_Node000002"><a xlink:title=" ">
<polygon fill="#e0e0e0" stroke="#999999" points="64,-239 0,-239 0,-220 64,-220 64,-239"/>
<text text-anchor="middle" x="32" y="-227" font-family="Helvetica,sans-Serif" font-size="10.00">sys/stat.h</text>
</a>
</g>
</g>
<!-- Node1&#45;&gt;Node2 -->
<g id="edge1_Node000001_Node000002" class="edge">
<title>Node1&#45;&gt;Node2</title>
<g id="a_edge1_Node000001_Node000002"><a xlink:title=" ">
<path fill="none" stroke="#63b8ff" d="M324.74,-278.62C272.73,-270.69 167.19,-254.35 78,-239 76.74,-238.78 75.46,-238.56 74.17,-238.33"/>
<polygon fill="#63b8ff" stroke="#63b8ff" points="74.61,-234.86 64.15,-236.55 73.38,-241.75 74.61,-234.86"/>
</a>
</g>
</g>
<!-- Node3 -->
<g id="Node000003" class="node">
<title>Node3</title>
<g id="a_Node000003"><a xlink:title=" ">
<polygon fill="#e0e0e0" stroke="#999999" points="123.5,-19 70.5,-19 70.5,0 123.5,0 123.5,-19"/>
<text text-anchor="middle" x="97" y="-7" font-family="Helvetica,sans-Serif" font-size="10.00">stdlib.h</text>
</a>
</g>
</g>
<!-- Node1&#45;&gt;Node3 -->
<g id="edge2_Node000001_Node000003" class="edge">
<title>Node1&#45;&gt;Node3</title>
<g id="a_edge2_Node000001_Node000003"><a xlink:title=" ">
<path fill="none" stroke="#63b8ff" d="M324.98,-283.55C280.65,-282.22 199.54,-274.59 142,-239 111.45,-220.1 92,-211.42 92,-175.5 92,-175.5 92,-175.5 92,-118.5 92,-87.16 94.13,-50.75 95.61,-29.22"/>
<polygon fill="#63b8ff" stroke="#63b8ff" points="99.1,-29.4 96.33,-19.17 92.12,-28.9 99.1,-29.4"/>
</a>
</g>
</g>
<!-- Node4 -->
<g id="Node000004" class="node">
<title>Node4</title>
<g id="a_Node000004"><a xlink:title=" ">
<polygon fill="#e0e0e0" stroke="#999999" points="266.5,-19 215.5,-19 215.5,0 266.5,0 266.5,-19"/>
<text text-anchor="middle" x="241" y="-7" font-family="Helvetica,sans-Serif" font-size="10.00">errno.h</text>
</a>
</g>
</g>
<!-- Node1&#45;&gt;Node4 -->
<g id="edge3_Node000001_Node000004" class="edge">
<title>Node1&#45;&gt;Node4</title>
<g id="a_edge3_Node000001_Node000004"><a xlink:title=" ">
<path fill="none" stroke="#63b8ff" d="M324.96,-282.55C262.39,-278.81 130,-260.82 130,-175.5 130,-175.5 130,-175.5 130,-118.5 130,-72.98 178.54,-40.44 211.42,-23.61"/>
<polygon fill="#63b8ff" stroke="#63b8ff" points="213.2,-26.64 220.64,-19.09 210.12,-20.35 213.2,-26.64"/>
</a>
</g>
</g>
<!-- Node5 -->
<g id="Node000005" class="node">
<title>Node5</title>
<g id="a_Node000005"><a xlink:title=" ">
<polygon fill="#e0e0e0" stroke="#999999" points="372,-19 322,-19 322,0 372,0 372,-19"/>
<text text-anchor="middle" x="347" y="-7" font-family="Helvetica,sans-Serif" font-size="10.00">stdio.h</text>
</a>
</g>
</g>
<!-- Node1&#45;&gt;Node5 -->
<g id="edge4_Node000001_Node000005" class="edge">
<title>Node1&#45;&gt;Node5</title>
<g id="a_edge4_Node000001_Node000005"><a xlink:title=" ">
<path fill="none" stroke="#63b8ff" d="M324.68,-283.19C288.09,-281.13 228.82,-272.38 192,-239 169.65,-218.74 168,-205.67 168,-175.5 168,-175.5 168,-175.5 168,-118.5 168,-88.33 169.81,-75.44 192,-55 209.47,-38.9 271.91,-24.59 312.01,-16.77"/>
<polygon fill="#63b8ff" stroke="#63b8ff" points="312.76,-20.19 321.93,-14.88 311.45,-13.31 312.76,-20.19"/>
</a>
</g>
</g>
<!-- Node6 -->
<g id="Node000006" class="node">
<title>Node6</title>
<g id="a_Node000006"><a xlink:title=" ">
<polygon fill="#e0e0e0" stroke="#999999" points="463.5,-19 408.5,-19 408.5,0 463.5,0 463.5,-19"/>
<text text-anchor="middle" x="436" y="-7" font-family="Helvetica,sans-Serif" font-size="10.00">signal.h</text>
</a>
</g>
</g>
<!-- Node1&#45;&gt;Node6 -->
<g id="edge5_Node000001_Node000006" class="edge">
<title>Node1&#45;&gt;Node6</title>
<g id="a_edge5_Node000001_Node000006"><a xlink:title=" ">
<path fill="none" stroke="#63b8ff" d="M324.84,-279.9C296.48,-275.13 255.75,-264.13 230,-239 208.41,-217.93 206,-205.67 206,-175.5 206,-175.5 206,-175.5 206,-118.5 206,-88.33 207.14,-74.69 230,-55 242.69,-44.07 342.61,-26.01 398.49,-16.61"/>
<polygon fill="#63b8ff" stroke="#63b8ff" points="399.09,-20.06 408.38,-14.96 397.94,-13.15 399.09,-20.06"/>
</a>
</g>
</g>
<!-- Node7 -->
<g id="Node000007" class="node">
<title>Node7</title>
<g id="a_Node000007"><a xlink:title=" ">
<polygon fill="#e0e0e0" stroke="#999999" points="539,-19 491,-19 491,0 539,0 539,-19"/>
<text text-anchor="middle" x="515" y="-7" font-family="Helvetica,sans-Serif" font-size="10.00">time.h</text>
</a>
</g>
</g>
<!-- Node1&#45;&gt;Node7 -->
<g id="edge6_Node000001_Node000007" class="edge">
<title>Node1&#45;&gt;Node7</title>
<g id="a_edge6_Node000001_Node000007"><a xlink:title=" ">
<path fill="none" stroke="#63b8ff" d="M336.01,-274.89C303.33,-259.93 244,-225.84 244,-175.5 244,-175.5 244,-175.5 244,-118.5 244,-89.04 240.95,-74.53 263,-55 333.88,7.79 379.92,-36.39 473,-19 475.5,-18.53 478.07,-18.04 480.66,-17.54"/>
<polygon fill="#63b8ff" stroke="#63b8ff" points="481.47,-20.95 490.59,-15.57 480.1,-14.08 481.47,-20.95"/>
</a>
</g>
</g>
<!-- Node8 -->
<g id="Node000008" class="node">
<title>Node8</title>
<g id="a_Node000008"><a xlink:title=" ">
<polygon fill="#e0e0e0" stroke="#999999" points="770,-239 702,-239 702,-220 770,-220 770,-239"/>
<text text-anchor="middle" x="736" y="-227" font-family="Helvetica,sans-Serif" font-size="10.00">sys/time.h</text>
</a>
</g>
</g>
<!-- Node1&#45;&gt;Node8 -->
<g id="edge7_Node000001_Node000008" class="edge">
<title>Node1&#45;&gt;Node8</title>
<g id="a_edge7_Node000001_Node000008"><a xlink:title=" ">
<path fill="none" stroke="#63b8ff" d="M389.02,-279.65C448.18,-272.42 578.57,-256.04 688,-239 689.27,-238.8 690.56,-238.6 691.86,-238.39"/>
<polygon fill="#63b8ff" stroke="#63b8ff" points="692.65,-241.81 701.94,-236.71 691.5,-234.9 692.65,-241.81"/>
</a>
</g>
</g>
<!-- Node9 -->
<g id="Node000009" class="node">
<title>Node9</title>
<g id="a_Node000009"><a xlink:title=" ">
<polygon fill="#e0e0e0" stroke="#999999" points="861.5,-239 788.5,-239 788.5,-220 861.5,-220 861.5,-239"/>
<text text-anchor="middle" x="825" y="-227" font-family="Helvetica,sans-Serif" font-size="10.00">sys/times.h</text>
</a>
</g>
</g>
<!-- Node1&#45;&gt;Node9 -->
<g id="edge8_Node000001_Node000009" class="edge">
<title>Node1&#45;&gt;Node9</title>
<g id="a_edge8_Node000001_Node000009"><a xlink:title=" ">
<path fill="none" stroke="#63b8ff" d="M389.13,-280.97C458.31,-275.34 626.65,-260.65 778.41,-238.97"/>
<polygon fill="#63b8ff" stroke="#63b8ff" points="778.99,-242.42 788.38,-237.53 777.99,-235.49 778.99,-242.42"/>
</a>
</g>
</g>
<!-- Node10 -->
<g id="Node000010" class="node">
<title>Node10</title>
<g id="a_Node000010"><a xlink:href="kernel__syscall_8h.html" target="_top" xlink:title=" ">
<polygon fill="white" stroke="#666666" points="607.5,-239 498.5,-239 498.5,-220 607.5,-220 607.5,-239"/>
<text text-anchor="middle" x="553" y="-227" font-family="Helvetica,sans-Serif" font-size="10.00">os/kernel_syscall.h</text>
</a>
</g>
</g>
<!-- Node1&#45;&gt;Node10 -->
<g id="edge9_Node000001_Node000010" class="edge">
<title>Node1&#45;&gt;Node10</title>
<g id="a_edge9_Node000001_Node000010"><a xlink:title=" ">
<path fill="none" stroke="#63b8ff" d="M388.49,-274.98C421.82,-265.97 474.6,-251.7 511.35,-241.76"/>
<polygon fill="#63b8ff" stroke="#63b8ff" points="512.52,-245.07 521.26,-239.08 510.7,-238.31 512.52,-245.07"/>
</a>
</g>
</g>
<!-- Node19 -->
<g id="Node000019" class="node">
<title>Node19</title>
<g id="a_Node000019"><a xlink:href="drv__handle_8h.html" target="_top" xlink:title=" ">
<polygon fill="white" stroke="#666666" points="622,-129 506,-129 506,-110 622,-110 622,-129"/>
<text text-anchor="middle" x="564" y="-117" font-family="Helvetica,sans-Serif" font-size="10.00">drivers/drv_handle.h</text>
</a>
</g>
</g>
<!-- Node1&#45;&gt;Node19 -->
<g id="edge62_Node000001_Node000019" class="edge">
<title>Node1&#45;&gt;Node19</title>
<g id="a_edge62_Node000001_Node000019"><a xlink:title=" ">
<path fill="none" stroke="#63b8ff" d="M365.54,-274.85C385.97,-254.41 439.69,-202.04 490,-165 505.55,-153.55 524.18,-142.36 538.86,-134.06"/>
<polygon fill="#63b8ff" stroke="#63b8ff" points="540.82,-136.98 547.86,-129.06 537.42,-130.86 540.82,-136.98"/>
</a>
</g>
</g>
<!-- Node27 -->
<g id="Node000027" class="node">
<title>Node27</title>
<g id="a_Node000027"><a xlink:title=" ">
<polygon fill="#e0e0e0" stroke="#999999" points="999,-184 943,-184 943,-165 999,-165 999,-184"/>
<text text-anchor="middle" x="971" y="-172" font-family="Helvetica,sans-Serif" font-size="10.00">stdarg.h</text>
</a>
</g>
</g>
<!-- Node1&#45;&gt;Node27 -->
<g id="edge63_Node000001_Node000027" class="edge">
<title>Node1&#45;&gt;Node27</title>
<g id="a_edge63_Node000001_Node000027"><a xlink:title=" ">
<path fill="none" stroke="#63b8ff" d="M389.2,-280.57C438.92,-275.47 536.98,-263.12 617,-239 637,-232.97 639.89,-225.66 660,-220 776.1,-187.3 810.04,-203.97 929,-184 930.1,-183.82 931.22,-183.62 932.34,-183.42"/>
<polygon fill="#63b8ff" stroke="#63b8ff" points="933.39,-186.79 942.58,-181.52 932.11,-179.91 933.39,-186.79"/>
</a>
</g>
</g>
<!-- Node28 -->
<g id="Node000028" class="node">
<title>Node28</title>
<g id="a_Node000028"><a xlink:href="mqueue_8h.html" target="_top" xlink:title=" ">
<polygon fill="white" stroke="#666666" points="1100.5,-184 1017.5,-184 1017.5,-165 1100.5,-165 1100.5,-184"/>
<text text-anchor="middle" x="1059" y="-172" font-family="Helvetica,sans-Serif" font-size="10.00">ipc/mqueue.h</text>
</a>
</g>
</g>
<!-- Node1&#45;&gt;Node28 -->
<g id="edge39_Node000001_Node000028" class="edge">
<title>Node1&#45;&gt;Node28</title>
<g id="a_edge39_Node000001_Node000028"><a xlink:title=" ">
<path fill="none" stroke="#63b8ff" d="M389.08,-281.65C443.98,-277.82 558.99,-266.94 652,-239 671.23,-233.22 673.66,-225.43 693,-220 825.48,-182.78 866.54,-202.6 1006.99,-184.04"/>
<polygon fill="#63b8ff" stroke="#63b8ff" points="1007.84,-187.45 1017.28,-182.63 1006.9,-180.52 1007.84,-187.45"/>
</a>
</g>
</g>
<!-- Node11 -->
<g id="Node000011" class="node">
<title>Node11</title>
<g id="a_Node000011"><a xlink:href="def__std_8h.html" target="_top" xlink:title=" ">
<polygon fill="white" stroke="#666666" points="626,-74 564,-74 564,-55 626,-55 626,-74"/>
<text text-anchor="middle" x="595" y="-62" font-family="Helvetica,sans-Serif" font-size="10.00">def_std.h</text>
</a>
</g>
</g>
<!-- Node10&#45;&gt;Node11 -->
<g id="edge10_Node000010_Node000011" class="edge">
<title>Node10&#45;&gt;Node11</title>
<g id="a_edge10_Node000010_Node000011"><a xlink:title=" ">
<path fill="none" stroke="#63b8ff" d="M498.5,-226.78C432.1,-223.41 325.7,-213.44 301,-184 295.57,-177.53 297.6,-172.73 301,-165 348.01,-58.13 432.77,-95.29 553.67,-74.11"/>
<polygon fill="#63b8ff" stroke="#63b8ff" points="554.39,-77.54 563.57,-72.26 553.1,-70.66 554.39,-77.54"/>
</a>
</g>
</g>
<!-- Node14 -->
<g id="Node000014" class="node">
<title>Node14</title>
<g id="a_Node000014"><a xlink:href="conf__os_8h.html" target="_top" xlink:title=" ">
<polygon fill="white" stroke="#666666" points="449.5,-129 386.5,-129 386.5,-110 449.5,-110 449.5,-129"/>
<text text-anchor="middle" x="418" y="-117" font-family="Helvetica,sans-Serif" font-size="10.00">conf_os.h</text>
</a>
</g>
</g>
<!-- Node10&#45;&gt;Node14 -->
<g id="edge18_Node000010_Node000014" class="edge">
<title>Node10&#45;&gt;Node14</title>
<g id="a_edge18_Node000010_Node000014"><a xlink:title=" ">
<path fill="none" stroke="#63b8ff" d="M539.67,-219.7C526.71,-211 506.6,-197.12 490,-184 470.33,-168.45 448.9,-149.24 434.59,-136.05"/>
<polygon fill="#63b8ff" stroke="#63b8ff" points="436.76,-133.29 427.05,-129.05 431.99,-138.42 436.76,-133.29"/>
</a>
</g>
</g>
<!-- Node16 -->
<g id="Node000016" class="node">
<title>Node16</title>
<g id="a_Node000016"><a xlink:href="ipc_2ringbuffer_8h.html" target="_top" xlink:title=" ">
<polygon fill="white" stroke="#666666" points="848.5,-129 759.5,-129 759.5,-110 848.5,-110 848.5,-129"/>
<text text-anchor="middle" x="804" y="-117" font-family="Helvetica,sans-Serif" font-size="10.00">ipc/ringbuffer.h</text>
</a>
</g>
</g>
<!-- Node10&#45;&gt;Node16 -->
<g id="edge20_Node000010_Node000016" class="edge">
<title>Node10&#45;&gt;Node16</title>
<g id="a_edge20_Node000010_Node000016"><a xlink:title=" ">
<path fill="none" stroke="#63b8ff" d="M573.12,-219.84C617.38,-200.8 723.36,-155.2 774.88,-133.03"/>
<polygon fill="#63b8ff" stroke="#63b8ff" points="776.33,-136.21 784.14,-129.05 773.57,-129.78 776.33,-136.21"/>
</a>
</g>
</g>
<!-- Node18 -->
<g id="Node000018" class="node">
<title>Node18</title>
<g id="a_Node000018"><a xlink:href="drv__time_8h.html" target="_top" xlink:title=" ">
<polygon fill="white" stroke="#666666" points="633.5,-184 498.5,-184 498.5,-165 633.5,-165 633.5,-184"/>
<text text-anchor="middle" x="566" y="-172" font-family="Helvetica,sans-Serif" font-size="10.00">drivers/timer/drv_time.h</text>
</a>
</g>
</g>
<!-- Node10&#45;&gt;Node18 -->
<g id="edge23_Node000010_Node000018" class="edge">
<title>Node10&#45;&gt;Node18</title>
<g id="a_edge23_Node000010_Node000018"><a xlink:title=" ">
<path fill="none" stroke="#63b8ff" d="M555.15,-219.75C556.87,-212.72 559.35,-202.62 561.5,-193.84"/>
<polygon fill="#63b8ff" stroke="#63b8ff" points="564.91,-194.63 563.89,-184.09 558.11,-192.97 564.91,-194.63"/>
</a>
</g>
</g>
<!-- Node22 -->
<g id="Node000022" class="node">
<title>Node22</title>
<g id="a_Node000022"><a xlink:title=" ">
<polygon fill="#e0e0e0" stroke="#999999" points="913,-74 841,-74 841,-55 913,-55 913,-74"/>
<text text-anchor="middle" x="877" y="-62" font-family="Helvetica,sans-Serif" font-size="10.00">FreeRTOS.h</text>
</a>
</g>
</g>
<!-- Node10&#45;&gt;Node22 -->
<g id="edge36_Node000010_Node000022" class="edge">
<title>Node10&#45;&gt;Node22</title>
<g id="a_edge36_Node000010_Node000022"><a xlink:title=" ">
<path fill="none" stroke="#63b8ff" d="M594.54,-219.96C669,-203.86 820.89,-167.21 858,-129 869.64,-117.02 874.19,-98.2 875.94,-84.16"/>
<polygon fill="#63b8ff" stroke="#63b8ff" points="879.44,-84.41 876.84,-74.14 872.46,-83.79 879.44,-84.41"/>
</a>
</g>
</g>
<!-- Node25 -->
<g id="Node000025" class="node">
<title>Node25</title>
<g id="a_Node000025"><a xlink:href="global__var_8h.html" target="_top" xlink:title=" ">
<polygon fill="white" stroke="#666666" points="403.5,-184 310.5,-184 310.5,-165 403.5,-165 403.5,-184"/>
<text text-anchor="middle" x="357" y="-172" font-family="Helvetica,sans-Serif" font-size="10.00">ipc/global_var.h</text>
</a>
</g>
</g>
<!-- Node10&#45;&gt;Node25 -->
<g id="edge32_Node000010_Node000025" class="edge">
<title>Node10&#45;&gt;Node25</title>
<g id="a_edge32_Node000010_Node000025"><a xlink:title=" ">
<path fill="none" stroke="#63b8ff" d="M521.51,-219.98C488.18,-210.97 435.4,-196.7 398.65,-186.76"/>
<polygon fill="#63b8ff" stroke="#63b8ff" points="399.3,-183.31 388.74,-184.08 397.48,-190.07 399.3,-183.31"/>
</a>
</g>
</g>
<!-- Node26 -->
<g id="Node000026" class="node">
<title>Node26</title>
<g id="a_Node000026"><a xlink:title=" ">
<polygon fill="#e0e0e0" stroke="#999999" points="1055.5,-74 996.5,-74 996.5,-55 1055.5,-55 1055.5,-74"/>
<text text-anchor="middle" x="1026" y="-62" font-family="Helvetica,sans-Serif" font-size="10.00">atomic.h</text>
</a>
</g>
</g>
<!-- Node10&#45;&gt;Node26 -->
<g id="edge37_Node000010_Node000026" class="edge">
<title>Node10&#45;&gt;Node26</title>
<g id="a_edge37_Node000010_Node000026"><a xlink:title=" ">
<path fill="none" stroke="#63b8ff" d="M604.44,-219.99C661.02,-210.35 748.13,-194.6 780,-184 791.37,-180.22 938.22,-108.49 999.46,-78.51"/>
<polygon fill="#63b8ff" stroke="#63b8ff" points="1001.08,-81.61 1008.52,-74.07 998,-75.33 1001.08,-81.61"/>
</a>
</g>
</g>
<!-- Node10&#45;&gt;Node27 -->
<g id="edge38_Node000010_Node000027" class="edge">
<title>Node10&#45;&gt;Node27</title>
<g id="a_edge38_Node000010_Node000027"><a xlink:title=" ">
<path fill="none" stroke="#63b8ff" d="M607.61,-221.74C612.48,-221.15 617.33,-220.56 622,-220 758.4,-203.6 793.34,-205.64 929,-184 930.1,-183.82 931.22,-183.64 932.35,-183.45"/>
<polygon fill="#63b8ff" stroke="#63b8ff" points="933.38,-186.82 942.59,-181.58 932.13,-179.93 933.38,-186.82"/>
</a>
</g>
</g>
<!-- Node11&#45;&gt;Node3 -->
<g id="edge11_Node000011_Node000003" class="edge">
<title>Node11&#45;&gt;Node3</title>
<g id="a_edge11_Node000011_Node000003"><a xlink:title=" ">
<path fill="none" stroke="#63b8ff" d="M563.62,-56.48C560.71,-55.94 557.81,-55.43 555,-55 473.84,-42.48 227.68,-21.37 133.86,-13.54"/>
<polygon fill="#63b8ff" stroke="#63b8ff" points="133.96,-10.04 123.71,-12.7 133.38,-17.01 133.96,-10.04"/>
</a>
</g>
</g>
<!-- Node11&#45;&gt;Node4 -->
<g id="edge12_Node000011_Node000004" class="edge">
<title>Node11&#45;&gt;Node4</title>
<g id="a_edge12_Node000011_Node000004"><a xlink:title=" ">
<path fill="none" stroke="#63b8ff" d="M563.6,-56.61C560.7,-56.04 557.8,-55.49 555,-55 454.71,-37.26 335.4,-21.92 276.93,-14.78"/>
<polygon fill="#63b8ff" stroke="#63b8ff" points="277.09,-11.27 266.74,-13.54 276.24,-18.22 277.09,-11.27"/>
</a>
</g>
</g>
<!-- Node11&#45;&gt;Node5 -->
<g id="edge13_Node000011_Node000005" class="edge">
<title>Node11&#45;&gt;Node5</title>
<g id="a_edge13_Node000011_Node000005"><a xlink:title=" ">
<path fill="none" stroke="#63b8ff" d="M563.84,-56.84C517.54,-46.95 430.84,-28.42 382.27,-18.04"/>
<polygon fill="#63b8ff" stroke="#63b8ff" points="382.74,-14.56 372.23,-15.89 381.28,-21.4 382.74,-14.56"/>
</a>
</g>
</g>
<!-- Node11&#45;&gt;Node6 -->
<g id="edge14_Node000011_Node000006" class="edge">
<title>Node11&#45;&gt;Node6</title>
<g id="a_edge14_Node000011_Node000006"><a xlink:title=" ">
<path fill="none" stroke="#63b8ff" d="M569.45,-54.98C542.88,-46.13 501.06,-32.19 471.33,-22.28"/>
<polygon fill="#63b8ff" stroke="#63b8ff" points="472.34,-18.92 461.75,-19.08 470.13,-25.56 472.34,-18.92"/>
</a>
</g>
</g>
<!-- Node11&#45;&gt;Node7 -->
<g id="edge15_Node000011_Node000007" class="edge">
<title>Node11&#45;&gt;Node7</title>
<g id="a_edge15_Node000011_Node000007"><a xlink:title=" ">
<path fill="none" stroke="#63b8ff" d="M582.15,-54.98C569.86,-46.84 551.09,-34.41 536.52,-24.76"/>
<polygon fill="#63b8ff" stroke="#63b8ff" points="538.36,-21.78 528.09,-19.17 534.49,-27.61 538.36,-21.78"/>
</a>
</g>
</g>
<!-- Node12 -->
<g id="Node000012" class="node">
<title>Node12</title>
<g id="a_Node000012"><a xlink:title=" ">
<polygon fill="#e0e0e0" stroke="#999999" points="765.5,-19 712.5,-19 712.5,0 765.5,0 765.5,-19"/>
<text text-anchor="middle" x="739" y="-7" font-family="Helvetica,sans-Serif" font-size="10.00">stdint.h</text>
</a>
</g>
</g>
<!-- Node11&#45;&gt;Node12 -->
<g id="edge16_Node000011_Node000012" class="edge">
<title>Node11&#45;&gt;Node12</title>
<g id="a_edge16_Node000011_Node000012"><a xlink:title=" ">
<path fill="none" stroke="#63b8ff" d="M618.14,-54.98C641.82,-46.27 678.87,-32.63 705.71,-22.75"/>
<polygon fill="#63b8ff" stroke="#63b8ff" points="707.27,-25.91 715.44,-19.17 704.85,-19.34 707.27,-25.91"/>
</a>
</g>
</g>
<!-- Node13 -->
<g id="Node000013" class="node">
<title>Node13</title>
<g id="a_Node000013"><a xlink:title=" ">
<polygon fill="#e0e0e0" stroke="#999999" points="627.5,-19 562.5,-19 562.5,0 627.5,0 627.5,-19"/>
<text text-anchor="middle" x="595" y="-7" font-family="Helvetica,sans-Serif" font-size="10.00">inttypes.h</text>
</a>
</g>
</g>
<!-- Node11&#45;&gt;Node13 -->
<g id="edge17_Node000011_Node000013" class="edge">
<title>Node11&#45;&gt;Node13</title>
<g id="a_edge17_Node000011_Node000013"><a xlink:title=" ">
<path fill="none" stroke="#63b8ff" d="M595,-54.75C595,-47.8 595,-37.85 595,-29.13"/>
<polygon fill="#63b8ff" stroke="#63b8ff" points="598.5,-29.09 595,-19.09 591.5,-29.09 598.5,-29.09"/>
</a>
</g>
</g>
<!-- Node15 -->
<g id="Node000015" class="node">
<title>Node15</title>
<g id="a_Node000015"><a xlink:href="autoconf_8h.html" target="_top" xlink:title=" ">
<polygon fill="white" stroke="#666666" points="340,-74 272,-74 272,-55 340,-55 340,-74"/>
<text text-anchor="middle" x="306" y="-62" font-family="Helvetica,sans-Serif" font-size="10.00">autoconf.h</text>
</a>
</g>
</g>
<!-- Node14&#45;&gt;Node15 -->
<g id="edge19_Node000014_Node000015" class="edge">
<title>Node14&#45;&gt;Node15</title>
<g id="a_edge19_Node000014_Node000015"><a xlink:title=" ">
<path fill="none" stroke="#63b8ff" d="M400.01,-109.98C382.07,-101.5 354.28,-88.35 333.57,-78.54"/>
<polygon fill="#63b8ff" stroke="#63b8ff" points="334.86,-75.28 324.32,-74.17 331.86,-81.61 334.86,-75.28"/>
</a>
</g>
</g>
<!-- Node16&#45;&gt;Node12 -->
<g id="edge21_Node000016_Node000012" class="edge">
<title>Node16&#45;&gt;Node12</title>
<g id="a_edge21_Node000016_Node000012"><a xlink:title=" ">
<path fill="none" stroke="#63b8ff" d="M803.2,-109.69C801.7,-96.84 797.6,-72.59 787,-55 780.1,-43.56 769.42,-33.24 759.88,-25.43"/>
<polygon fill="#63b8ff" stroke="#63b8ff" points="761.96,-22.61 751.91,-19.24 757.67,-28.14 761.96,-22.61"/>
</a>
</g>
</g>
<!-- Node17 -->
<g id="Node000017" class="node">
<title>Node17</title>
<g id="a_Node000017"><a xlink:title=" ">
<polygon fill="#e0e0e0" stroke="#999999" points="778,-74 722,-74 722,-55 778,-55 778,-74"/>
<text text-anchor="middle" x="750" y="-62" font-family="Helvetica,sans-Serif" font-size="10.00">stddef.h</text>
</a>
</g>
</g>
<!-- Node16&#45;&gt;Node17 -->
<g id="edge22_Node000016_Node000017" class="edge">
<title>Node16&#45;&gt;Node17</title>
<g id="a_edge22_Node000016_Node000017"><a xlink:title=" ">
<path fill="none" stroke="#63b8ff" d="M795.08,-109.75C787.22,-102.03 775.57,-90.6 766.08,-81.28"/>
<polygon fill="#63b8ff" stroke="#63b8ff" points="768.34,-78.6 758.75,-74.09 763.44,-83.59 768.34,-78.6"/>
</a>
</g>
</g>
<!-- Node18&#45;&gt;Node19 -->
<g id="edge24_Node000018_Node000019" class="edge">
<title>Node18&#45;&gt;Node19</title>
<g id="a_edge24_Node000018_Node000019"><a xlink:title=" ">
<path fill="none" stroke="#63b8ff" d="M565.67,-164.75C565.41,-157.8 565.03,-147.85 564.7,-139.13"/>
<polygon fill="#63b8ff" stroke="#63b8ff" points="568.2,-138.95 564.32,-129.09 561.2,-139.21 568.2,-138.95"/>
</a>
</g>
</g>
<!-- Node21 -->
<g id="Node000021" class="node">
<title>Node21</title>
<g id="a_Node000021"><a xlink:title=" ">
<polygon fill="#e0e0e0" stroke="#999999" points="470,-74 358,-74 358,-55 470,-55 470,-74"/>
<text text-anchor="middle" x="414" y="-62" font-family="Helvetica,sans-Serif" font-size="10.00">board/mcu_config.h</text>
</a>
</g>
</g>
<!-- Node18&#45;&gt;Node21 -->
<g id="edge31_Node000018_Node000021" class="edge">
<title>Node18&#45;&gt;Node21</title>
<g id="a_edge31_Node000018_Node000021"><a xlink:title=" ">
<path fill="none" stroke="#63b8ff" d="M552.04,-164.96C537.94,-156.22 515.66,-142.12 497,-129 474.38,-113.09 449.27,-93.61 432.66,-80.46"/>
<polygon fill="#63b8ff" stroke="#63b8ff" points="434.8,-77.7 424.8,-74.21 430.45,-83.17 434.8,-77.7"/>
</a>
</g>
</g>
<!-- Node19&#45;&gt;Node11 -->
<g id="edge25_Node000019_Node000011" class="edge">
<title>Node19&#45;&gt;Node11</title>
<g id="a_edge25_Node000019_Node000011"><a xlink:title=" ">
<path fill="none" stroke="#63b8ff" d="M569.12,-109.75C573.36,-102.49 579.53,-91.95 584.78,-82.98"/>
<polygon fill="#63b8ff" stroke="#63b8ff" points="587.95,-84.49 589.98,-74.09 581.91,-80.95 587.95,-84.49"/>
</a>
</g>
</g>
<!-- Node20 -->
<g id="Node000020" class="node">
<title>Node20</title>
<g id="a_Node000020"><a xlink:href="def__err_8h.html" target="_top" xlink:title=" ">
<polygon fill="white" stroke="#666666" points="703.5,-74 644.5,-74 644.5,-55 703.5,-55 703.5,-74"/>
<text text-anchor="middle" x="674" y="-62" font-family="Helvetica,sans-Serif" font-size="10.00">def_err.h</text>
</a>
</g>
</g>
<!-- Node19&#45;&gt;Node20 -->
<g id="edge26_Node000019_Node000020" class="edge">
<title>Node19&#45;&gt;Node20</title>
<g id="a_edge26_Node000019_Node000020"><a xlink:title=" ">
<path fill="none" stroke="#63b8ff" d="M581.67,-109.98C599.29,-101.5 626.58,-88.35 646.93,-78.54"/>
<polygon fill="#63b8ff" stroke="#63b8ff" points="648.52,-81.66 656.01,-74.17 645.48,-75.36 648.52,-81.66"/>
</a>
</g>
</g>
<!-- Node19&#45;&gt;Node21 -->
<g id="edge27_Node000019_Node000021" class="edge">
<title>Node19&#45;&gt;Node21</title>
<g id="a_edge27_Node000019_Node000021"><a xlink:title=" ">
<path fill="none" stroke="#63b8ff" d="M539.9,-109.98C515.12,-101.23 476.3,-87.51 448.31,-77.62"/>
<polygon fill="#63b8ff" stroke="#63b8ff" points="449.13,-74.2 438.54,-74.17 446.8,-80.8 449.13,-74.2"/>
</a>
</g>
</g>
<!-- Node19&#45;&gt;Node22 -->
<g id="edge28_Node000019_Node000022" class="edge">
<title>Node19&#45;&gt;Node22</title>
<g id="a_edge28_Node000019_Node000022"><a xlink:title=" ">
<path fill="none" stroke="#63b8ff" d="M614.29,-109.98C674.12,-99.85 773.16,-83.08 831.02,-73.29"/>
<polygon fill="#63b8ff" stroke="#63b8ff" points="831.71,-76.72 840.98,-71.6 830.54,-69.82 831.71,-76.72"/>
</a>
</g>
</g>
<!-- Node23 -->
<g id="Node000023" class="node">
<title>Node23</title>
<g id="a_Node000023"><a xlink:title=" ">
<polygon fill="#e0e0e0" stroke="#999999" points="978.5,-74 931.5,-74 931.5,-55 978.5,-55 978.5,-74"/>
<text text-anchor="middle" x="955" y="-62" font-family="Helvetica,sans-Serif" font-size="10.00">task.h</text>
</a>
</g>
</g>
<!-- Node19&#45;&gt;Node23 -->
<g id="edge29_Node000019_Node000023" class="edge">
<title>Node19&#45;&gt;Node23</title>
<g id="a_edge29_Node000019_Node000023"><a xlink:title=" ">
<path fill="none" stroke="#63b8ff" d="M622.02,-113.6C691.04,-107.25 809.87,-94.71 921.23,-73.9"/>
<polygon fill="#63b8ff" stroke="#63b8ff" points="922.12,-77.3 931.29,-72 920.81,-70.42 922.12,-77.3"/>
</a>
</g>
</g>
<!-- Node24 -->
<g id="Node000024" class="node">
<title>Node24</title>
<g id="a_Node000024"><a xlink:title=" ">
<polygon fill="#e0e0e0" stroke="#999999" points="546,-74 488,-74 488,-55 546,-55 546,-74"/>
<text text-anchor="middle" x="517" y="-62" font-family="Helvetica,sans-Serif" font-size="10.00">device.h</text>
</a>
</g>
</g>
<!-- Node19&#45;&gt;Node24 -->
<g id="edge30_Node000019_Node000024" class="edge">
<title>Node19&#45;&gt;Node24</title>
<g id="a_edge30_Node000019_Node000024"><a xlink:title=" ">
<path fill="none" stroke="#63b8ff" d="M556.24,-109.75C549.53,-102.18 539.66,-91.05 531.49,-81.84"/>
<polygon fill="#63b8ff" stroke="#63b8ff" points="533.87,-79.25 524.62,-74.09 528.63,-83.89 533.87,-79.25"/>
</a>
</g>
</g>
<!-- Node25&#45;&gt;Node11 -->
<g id="edge33_Node000025_Node000011" class="edge">
<title>Node25&#45;&gt;Node11</title>
<g id="a_edge33_Node000025_Node000011"><a xlink:title=" ">
<path fill="none" stroke="#63b8ff" d="M357.1,-164.63C357.77,-150.81 361.19,-124.22 377,-110 434.66,-58.13 472.89,-87.84 553.9,-74.03"/>
<polygon fill="#63b8ff" stroke="#63b8ff" points="554.82,-77.42 564,-72.12 553.52,-70.54 554.82,-77.42"/>
</a>
</g>
</g>
<!-- Node25&#45;&gt;Node14 -->
<g id="edge34_Node000025_Node000014" class="edge">
<title>Node25&#45;&gt;Node14</title>
<g id="a_edge34_Node000025_Node000014"><a xlink:title=" ">
<path fill="none" stroke="#63b8ff" d="M366.8,-164.98C375.82,-157.15 389.41,-145.34 400.32,-135.86"/>
<polygon fill="#63b8ff" stroke="#63b8ff" points="402.77,-138.37 408.02,-129.17 398.18,-133.09 402.77,-138.37"/>
</a>
</g>
</g>
<!-- Node25&#45;&gt;Node21 -->
<g id="edge35_Node000025_Node000021" class="edge">
<title>Node25&#45;&gt;Node21</title>
<g id="a_edge35_Node000025_Node000021"><a xlink:title=" ">
<path fill="none" stroke="#63b8ff" d="M351.66,-164.73C344.64,-151.93 334.25,-127.75 344,-110 351.77,-95.85 366.17,-85.56 379.89,-78.46"/>
<polygon fill="#63b8ff" stroke="#63b8ff" points="381.66,-81.49 389.19,-74.05 378.66,-75.17 381.66,-81.49"/>
</a>
</g>
</g>
<!-- Node28&#45;&gt;Node11 -->
<g id="edge40_Node000028_Node000011" class="edge">
<title>Node28&#45;&gt;Node11</title>
<g id="a_edge40_Node000028_Node000011"><a xlink:title=" ">
<path fill="none" stroke="#63b8ff" d="M1017.28,-166.34C1014.14,-165.87 1011.02,-165.41 1008,-165 858.32,-144.57 808.89,-188.43 670,-129 645.38,-118.47 622.76,-96.98 608.94,-81.93"/>
<polygon fill="#63b8ff" stroke="#63b8ff" points="611.47,-79.51 602.21,-74.35 606.23,-84.15 611.47,-79.51"/>
</a>
</g>
</g>
<!-- Node28&#45;&gt;Node14 -->
<g id="edge46_Node000028_Node000014" class="edge">
<title>Node28&#45;&gt;Node14</title>
<g id="a_edge46_Node000028_Node000014"><a xlink:title=" ">
<path fill="none" stroke="#63b8ff" d="M1017.3,-166.22C1014.16,-165.77 1011.03,-165.36 1008,-165 781.9,-138.26 723.78,-149.18 497,-129 484.99,-127.93 471.97,-126.6 460.04,-125.31"/>
<polygon fill="#63b8ff" stroke="#63b8ff" points="460.2,-121.81 449.88,-124.2 459.44,-128.77 460.2,-121.81"/>
</a>
</g>
</g>
<!-- Node28&#45;&gt;Node16 -->
<g id="edge47_Node000028_Node000016" class="edge">
<title>Node28&#45;&gt;Node16</title>
<g id="a_edge47_Node000028_Node000016"><a xlink:title=" ">
<path fill="none" stroke="#63b8ff" d="M1018.03,-164.98C973.74,-155.78 903.06,-141.09 855.15,-131.13"/>
<polygon fill="#63b8ff" stroke="#63b8ff" points="855.79,-127.69 845.29,-129.08 854.37,-134.54 855.79,-127.69"/>
</a>
</g>
</g>
<!-- Node28&#45;&gt;Node22 -->
<g id="edge60_Node000028_Node000022" class="edge">
<title>Node28&#45;&gt;Node22</title>
<g id="a_edge60_Node000028_Node000022"><a xlink:title=" ">
<path fill="none" stroke="#63b8ff" d="M1099.84,-164.93C1138.62,-154.98 1187.83,-136.48 1165,-110 1129.5,-68.82 976.63,-82.94 923,-74 922.9,-73.98 922.8,-73.97 922.7,-73.95"/>
<polygon fill="#63b8ff" stroke="#63b8ff" points="923.59,-70.55 913.14,-72.3 922.4,-77.45 923.59,-70.55"/>
</a>
</g>
</g>
<!-- Node29 -->
<g id="Node000029" class="node">
<title>Node29</title>
<g id="a_Node000029"><a xlink:href="def__compiler_8h.html" target="_top" xlink:title=" ">
<polygon fill="white" stroke="#666666" points="1032.5,-129 943.5,-129 943.5,-110 1032.5,-110 1032.5,-129"/>
<text text-anchor="middle" x="988" y="-117" font-family="Helvetica,sans-Serif" font-size="10.00">def_compiler.h</text>
</a>
</g>
</g>
<!-- Node28&#45;&gt;Node29 -->
<g id="edge41_Node000028_Node000029" class="edge">
<title>Node28&#45;&gt;Node29</title>
<g id="a_edge41_Node000028_Node000029"><a xlink:title=" ">
<path fill="none" stroke="#63b8ff" d="M1047.59,-164.98C1036.89,-157 1020.66,-144.88 1007.84,-135.31"/>
<polygon fill="#63b8ff" stroke="#63b8ff" points="1009.72,-132.35 999.61,-129.17 1005.53,-137.96 1009.72,-132.35"/>
</a>
</g>
</g>
<!-- Node30 -->
<g id="Node000030" class="node">
<title>Node30</title>
<g id="a_Node000030"><a xlink:href="list_8h.html" target="_top" xlink:title="All linked list operation functions definitions and macros.">
<polygon fill="white" stroke="#666666" points="741.5,-129 678.5,-129 678.5,-110 741.5,-110 741.5,-129"/>
<text text-anchor="middle" x="710" y="-117" font-family="Helvetica,sans-Serif" font-size="10.00">mm/list.h</text>
</a>
</g>
</g>
<!-- Node28&#45;&gt;Node30 -->
<g id="edge42_Node000028_Node000030" class="edge">
<title>Node28&#45;&gt;Node30</title>
<g id="a_edge42_Node000028_Node000030"><a xlink:title=" ">
<path fill="none" stroke="#63b8ff" d="M1017.27,-166.45C1014.13,-165.95 1011.02,-165.46 1008,-165 897.11,-148 866.31,-148.67 751.62,-129"/>
<polygon fill="#63b8ff" stroke="#63b8ff" points="752.2,-125.55 741.75,-127.29 751,-132.45 752.2,-125.55"/>
</a>
</g>
</g>
<!-- Node31 -->
<g id="Node000031" class="node">
<title>Node31</title>
<g id="a_Node000031"><a xlink:href="def__env__macros_8h.html" target="_top" xlink:title=" ">
<polygon fill="white" stroke="#666666" points="1156,-129 1050,-129 1050,-110 1156,-110 1156,-129"/>
<text text-anchor="middle" x="1103" y="-117" font-family="Helvetica,sans-Serif" font-size="10.00">def_env_macros.h</text>
</a>
</g>
</g>
<!-- Node28&#45;&gt;Node31 -->
<g id="edge44_Node000028_Node000031" class="edge">
<title>Node28&#45;&gt;Node31</title>
<g id="a_edge44_Node000028_Node000031"><a xlink:title=" ">
<path fill="none" stroke="#63b8ff" d="M1066.27,-164.75C1072.54,-157.18 1081.79,-146.05 1089.43,-136.84"/>
<polygon fill="#63b8ff" stroke="#63b8ff" points="1092.17,-139.02 1095.87,-129.09 1086.79,-134.55 1092.17,-139.02"/>
</a>
</g>
</g>
<!-- Node32 -->
<g id="Node000032" class="node">
<title>Node32</title>
<g id="a_Node000032"><a xlink:href="def__hw_8h.html" target="_top" xlink:title=" ">
<polygon fill="white" stroke="#666666" points="1272,-129 1212,-129 1212,-110 1272,-110 1272,-129"/>
<text text-anchor="middle" x="1242" y="-117" font-family="Helvetica,sans-Serif" font-size="10.00">def_hw.h</text>
</a>
</g>
</g>
<!-- Node28&#45;&gt;Node32 -->
<g id="edge45_Node000028_Node000032" class="edge">
<title>Node28&#45;&gt;Node32</title>
<g id="a_edge45_Node000028_Node000032"><a xlink:title=" ">
<path fill="none" stroke="#63b8ff" d="M1088.4,-164.98C1119.39,-156.01 1168.38,-141.82 1202.67,-131.89"/>
<polygon fill="#63b8ff" stroke="#63b8ff" points="1203.74,-135.23 1212.37,-129.08 1201.79,-128.5 1203.74,-135.23"/>
</a>
</g>
</g>
<!-- Node33 -->
<g id="Node000033" class="node">
<title>Node33</title>
<g id="a_Node000033"><a xlink:href="os_2kernel__mem_8h.html" target="_top" xlink:title=" ">
<polygon fill="white" stroke="#666666" points="1391.5,-129 1290.5,-129 1290.5,-110 1391.5,-110 1391.5,-129"/>
<text text-anchor="middle" x="1341" y="-117" font-family="Helvetica,sans-Serif" font-size="10.00">os/kernel_mem.h</text>
</a>
</g>
</g>
<!-- Node28&#45;&gt;Node33 -->
<g id="edge48_Node000028_Node000033" class="edge">
<title>Node28&#45;&gt;Node33</title>
<g id="a_edge48_Node000028_Node000033"><a xlink:title=" ">
<path fill="none" stroke="#63b8ff" d="M1100.61,-165.68C1149.55,-156.48 1230.98,-141.18 1285.32,-130.96"/>
<polygon fill="#63b8ff" stroke="#63b8ff" points="1286.3,-134.34 1295.48,-129.06 1285,-127.46 1286.3,-134.34"/>
</a>
</g>
</g>
<!-- Node35 -->
<g id="Node000035" class="node">
<title>Node35</title>
<g id="a_Node000035"><a xlink:title=" ">
<polygon fill="#e0e0e0" stroke="#999999" points="1620,-74 1564,-74 1564,-55 1620,-55 1620,-74"/>
<text text-anchor="middle" x="1592" y="-62" font-family="Helvetica,sans-Serif" font-size="10.00">queue.h</text>
</a>
</g>
</g>
<!-- Node28&#45;&gt;Node35 -->
<g id="edge61_Node000028_Node000035" class="edge">
<title>Node28&#45;&gt;Node35</title>
<g id="a_edge61_Node000028_Node000035"><a xlink:title=" ">
<path fill="none" stroke="#63b8ff" d="M1100.51,-170.68C1165.32,-165.69 1294.19,-153.47 1401,-129 1458.76,-115.77 1523.79,-92.21 1561.13,-77.81"/>
<polygon fill="#63b8ff" stroke="#63b8ff" points="1562.85,-80.89 1570.9,-74 1560.31,-74.37 1562.85,-80.89"/>
</a>
</g>
</g>
<!-- Node30&#45;&gt;Node11 -->
<g id="edge43_Node000030_Node000011" class="edge">
<title>Node30&#45;&gt;Node11</title>
<g id="a_edge43_Node000030_Node000011"><a xlink:title=" ">
<path fill="none" stroke="#63b8ff" d="M691.52,-109.98C673.02,-101.46 644.32,-88.23 623.02,-78.41"/>
<polygon fill="#63b8ff" stroke="#63b8ff" points="624.36,-75.18 613.81,-74.17 621.43,-81.53 624.36,-75.18"/>
</a>
</g>
</g>
<!-- Node33&#45;&gt;Node11 -->
<g id="edge49_Node000033_Node000011" class="edge">
<title>Node33&#45;&gt;Node11</title>
<g id="a_edge49_Node000033_Node000011"><a xlink:title=" ">
<path fill="none" stroke="#63b8ff" d="M1290.3,-111.01C1287.15,-110.64 1284.04,-110.3 1281,-110 998.62,-82.17 922.46,-110.56 636.52,-73.81"/>
<polygon fill="#63b8ff" stroke="#63b8ff" points="636.63,-70.3 626.26,-72.48 635.72,-77.24 636.63,-70.3"/>
</a>
</g>
</g>
<!-- Node33&#45;&gt;Node20 -->
<g id="edge50_Node000033_Node000020" class="edge">
<title>Node33&#45;&gt;Node20</title>
<g id="a_edge50_Node000033_Node000020"><a xlink:title=" ">
<path fill="none" stroke="#63b8ff" d="M1290.29,-111.04C1287.15,-110.66 1284.04,-110.31 1281,-110 1032.68,-84.58 965.28,-108.39 713.9,-73.88"/>
<polygon fill="#63b8ff" stroke="#63b8ff" points="714.11,-70.37 703.73,-72.46 713.15,-77.31 714.11,-70.37"/>
</a>
</g>
</g>
<!-- Node33&#45;&gt;Node22 -->
<g id="edge52_Node000033_Node000022" class="edge">
<title>Node33&#45;&gt;Node22</title>
<g id="a_edge52_Node000033_Node000022"><a xlink:title=" ">
<path fill="none" stroke="#63b8ff" d="M1290.28,-111.17C1287.14,-110.76 1284.03,-110.37 1281,-110 1122.25,-90.78 1081.32,-96.55 923,-74 922.9,-73.99 922.8,-73.97 922.7,-73.96"/>
<polygon fill="#63b8ff" stroke="#63b8ff" points="923.53,-70.54 913.11,-72.46 922.46,-77.46 923.53,-70.54"/>
</a>
</g>
</g>
<!-- Node33&#45;&gt;Node23 -->
<g id="edge55_Node000033_Node000023" class="edge">
<title>Node33&#45;&gt;Node23</title>
<g id="a_edge55_Node000033_Node000023"><a xlink:title=" ">
<path fill="none" stroke="#63b8ff" d="M1290.27,-111.25C1287.13,-110.82 1284.02,-110.4 1281,-110 1154.11,-93.22 1118.63,-98.15 988.65,-73.88"/>
<polygon fill="#63b8ff" stroke="#63b8ff" points="989.19,-70.42 978.71,-72 987.89,-77.3 989.19,-70.42"/>
</a>
</g>
</g>
<!-- Node33&#45;&gt;Node26 -->
<g id="edge53_Node000033_Node000026" class="edge">
<title>Node33&#45;&gt;Node26</title>
<g id="a_edge53_Node000033_Node000026"><a xlink:title=" ">
<path fill="none" stroke="#63b8ff" d="M1290.49,-111.2C1237.15,-103.31 1150.37,-89.93 1065.81,-74.06"/>
<polygon fill="#63b8ff" stroke="#63b8ff" points="1066.25,-70.58 1055.78,-72.17 1064.95,-77.46 1066.25,-70.58"/>
</a>
</g>
</g>
<!-- Node34 -->
<g id="Node000034" class="node">
<title>Node34</title>
<g id="a_Node000034"><a xlink:href="def__attributes_8h.html" target="_top" xlink:title=" ">
<polygon fill="white" stroke="#666666" points="1470,-74 1376,-74 1376,-55 1470,-55 1470,-74"/>
<text text-anchor="middle" x="1423" y="-62" font-family="Helvetica,sans-Serif" font-size="10.00">def_attributes.h</text>
</a>
</g>
</g>
<!-- Node33&#45;&gt;Node34 -->
<g id="edge51_Node000033_Node000034" class="edge">
<title>Node33&#45;&gt;Node34</title>
<g id="a_edge51_Node000033_Node000034"><a xlink:title=" ">
<path fill="none" stroke="#63b8ff" d="M1354.17,-109.98C1366.77,-101.84 1386,-89.41 1400.94,-79.76"/>
<polygon fill="#63b8ff" stroke="#63b8ff" points="1403.09,-82.54 1409.59,-74.17 1399.29,-76.66 1403.09,-82.54"/>
</a>
</g>
</g>
<!-- Node33&#45;&gt;Node35 -->
<g id="edge54_Node000033_Node000035" class="edge">
<title>Node33&#45;&gt;Node35</title>
<g id="a_edge54_Node000033_Node000035"><a xlink:title=" ">
<path fill="none" stroke="#63b8ff" d="M1383.28,-109.98C1424.38,-101.63 1488.82,-88.39 1553.73,-74.24"/>
<polygon fill="#63b8ff" stroke="#63b8ff" points="1554.71,-77.61 1563.73,-72.06 1553.22,-70.77 1554.71,-77.61"/>
</a>
</g>
</g>
<!-- Node36 -->
<g id="Node000036" class="node">
<title>Node36</title>
<g id="a_Node000036"><a xlink:title=" ">
<polygon fill="#e0e0e0" stroke="#999999" points="1545.5,-74 1488.5,-74 1488.5,-55 1545.5,-55 1545.5,-74"/>
<text text-anchor="middle" x="1517" y="-62" font-family="Helvetica,sans-Serif" font-size="10.00">timers.h</text>
</a>
</g>
</g>
<!-- Node33&#45;&gt;Node36 -->
<g id="edge56_Node000033_Node000036" class="edge">
<title>Node33&#45;&gt;Node36</title>
<g id="a_edge56_Node000033_Node000036"><a xlink:title=" ">
<path fill="none" stroke="#63b8ff" d="M1369.28,-109.98C1398.95,-101.05 1445.79,-86.94 1478.75,-77.02"/>
<polygon fill="#63b8ff" stroke="#63b8ff" points="1479.93,-80.32 1488.5,-74.08 1477.92,-73.61 1479.93,-80.32"/>
</a>
</g>
</g>
<!-- Node37 -->
<g id="Node000037" class="node">
<title>Node37</title>
<g id="a_Node000037"><a xlink:title=" ">
<polygon fill="#e0e0e0" stroke="#999999" points="1136,-74 1074,-74 1074,-55 1136,-55 1136,-74"/>
<text text-anchor="middle" x="1105" y="-62" font-family="Helvetica,sans-Serif" font-size="10.00">semphr.h</text>
</a>
</g>
</g>
<!-- Node33&#45;&gt;Node37 -->
<g id="edge57_Node000033_Node000037" class="edge">
<title>Node33&#45;&gt;Node37</title>
<g id="a_edge57_Node000033_Node000037"><a xlink:title=" ">
<path fill="none" stroke="#63b8ff" d="M1303.08,-109.98C1260.05,-100.32 1190.11,-84.61 1145.88,-74.68"/>
<polygon fill="#63b8ff" stroke="#63b8ff" points="1146.57,-71.25 1136.04,-72.47 1145.03,-78.08 1146.57,-71.25"/>
</a>
</g>
</g>
<!-- Node38 -->
<g id="Node000038" class="node">
<title>Node38</title>
<g id="a_Node000038"><a xlink:title=" ">
<polygon fill="#e0e0e0" stroke="#999999" points="1246,-74 1154,-74 1154,-55 1246,-55 1246,-74"/>
<text text-anchor="middle" x="1200" y="-62" font-family="Helvetica,sans-Serif" font-size="10.00">event_groups.h</text>
</a>
</g>
</g>
<!-- Node33&#45;&gt;Node38 -->
<g id="edge58_Node000033_Node000038" class="edge">
<title>Node33&#45;&gt;Node38</title>
<g id="a_edge58_Node000033_Node000038"><a xlink:title=" ">
<path fill="none" stroke="#63b8ff" d="M1318.35,-109.98C1295.15,-101.27 1258.88,-87.63 1232.6,-77.75"/>
<polygon fill="#63b8ff" stroke="#63b8ff" points="1233.66,-74.41 1223.07,-74.17 1231.2,-80.97 1233.66,-74.41"/>
</a>
</g>
</g>
<!-- Node39 -->
<g id="Node000039" class="node">
<title>Node39</title>
<g id="a_Node000039"><a xlink:title=" ">
<polygon fill="#e0e0e0" stroke="#999999" points="1357.5,-74 1264.5,-74 1264.5,-55 1357.5,-55 1357.5,-74"/>
<text text-anchor="middle" x="1311" y="-62" font-family="Helvetica,sans-Serif" font-size="10.00">stream_buffer.h</text>
</a>
</g>
</g>
<!-- Node33&#45;&gt;Node39 -->
<g id="edge59_Node000033_Node000039" class="edge">
<title>Node33&#45;&gt;Node39</title>
<g id="a_edge59_Node000033_Node000039"><a xlink:title=" ">
<path fill="none" stroke="#63b8ff" d="M1336.05,-109.75C1331.94,-102.49 1325.97,-91.95 1320.9,-82.98"/>
<polygon fill="#63b8ff" stroke="#63b8ff" points="1323.83,-81.07 1315.86,-74.09 1317.74,-84.52 1323.83,-81.07"/>
</a>
</g>
</g>
</g>
</svg>

<g id="navigator" transform="translate(0 0)" fill="#404254">
  <rect fill="#f2f5e9" fill-opacity="0.5" stroke="#606060" stroke-width=".5" x="0" y="0" width="60" height="60"/>
  <use id="zoomplus" xlink:href="#zoomPlus" x="17" y="9" onmousedown="handleZoom(evt,'in')"/>
  <use id="zoomminus" xlink:href="#zoomMin" x="42" y="9" onmousedown="handleZoom(evt,'out')"/>
  <use id="reset" xlink:href="#resetDef" x="30" y="36" onmousedown="handleReset()"/>
   <use id="arrowup" xlink:href="#arrowUp" x="0" y="0" onmousedown="handlePan(0,-1)"/>
  <use id="arrowright" xlink:href="#arrowRight" x="0" y="0" onmousedown="handlePan(1,0)"/>
  <use id="arrowdown" xlink:href="#arrowDown" x="0" y="0" onmousedown="handlePan(0,1)"/>
  <use id="arrowleft" xlink:href="#arrowLeft" x="0" y="0" onmousedown="handlePan(-1,0)"/>
</g>
<svg viewBox="0 0 15 15" width="100%" height="30px" preserveAspectRatio="xMaxYMin meet">
 <g id="arrow_out" transform="scale(0.3 0.3)">
  <a xlink:href="syscalls_8c__incl_org.svg" target="_base">
   <rect id="button" ry="5" rx="5" y="6" x="6" height="38" width="38"
        fill="#f2f5e9" fill-opacity="0.5" stroke="#606060" stroke-width="1.0"/>
   <path id="arrow"
     d="M 11.500037,31.436501 C 11.940474,20.09759 22.043105,11.32322 32.158766,21.979434 L 37.068811,17.246167 C 37.068811,17.246167 37.088388,32 37.088388,32 L 22.160133,31.978069 C 22.160133,31.978069 26.997745,27.140456 26.997745,27.140456 C 18.528582,18.264221 13.291696,25.230495 11.500037,31.436501 z"
     style="fill:#404040;"/>
  </a>
 </g>
</svg>

<style type='text/css'>
<![CDATA[
[data-mouse-over-selected='false'] { opacity: 0.7; }
[data-mouse-over-selected='true']  { opacity: 1.0; }
]]>
</style>
<script type="application/ecmascript"><![CDATA[
document.addEventListener('DOMContentLoaded', (event) => {
  highlightEdges();
  highlightAdjacentNodes();
});
]]></script>
</svg>
