<?xml version="1.0" encoding="UTF-8" standalone="no"?>
<!DOCTYPE svg PUBLIC "-//W3C//DTD SVG 1.1//EN"
 "http://www.w3.org/Graphics/SVG/1.1/DTD/svg11.dtd">
<!-- Generated by graphviz version 2.43.0 (0)
 -->
<!-- Title: uart_mgmt.c Pages: 1 -->
<svg width="1616pt" height="258pt"
 viewBox="0.00 0.00 1615.50 258.00" xmlns="http://www.w3.org/2000/svg" xmlns:xlink="http://www.w3.org/1999/xlink">
<g id="graph0" class="graph" transform="scale(1 1) rotate(0) translate(4 254)">
<title>uart_mgmt.c</title>
<!-- Node1 -->
<g id="Node000001" class="node">
<title>Node1</title>
<g id="a_Node000001"><a xlink:title=" ">
<polygon fill="#999999" stroke="#666666" points="558.5,-250 479.5,-250 479.5,-231 558.5,-231 558.5,-250"/>
<text text-anchor="middle" x="519" y="-238" font-family="Helvetica,sans-Serif" font-size="10.00">uart_mgmt.c</text>
</a>
</g>
</g>
<!-- Node2 -->
<g id="Node000002" class="node">
<title>Node2</title>
<g id="a_Node000002"><a xlink:href="uart__mgmt_8h.html" target="_top" xlink:title=" ">
<polygon fill="white" stroke="#666666" points="580.5,-189.5 457.5,-189.5 457.5,-170.5 580.5,-170.5 580.5,-189.5"/>
<text text-anchor="middle" x="519" y="-177.5" font-family="Helvetica,sans-Serif" font-size="10.00">services/uart_mgmt.h</text>
</a>
</g>
</g>
<!-- Node1&#45;&gt;Node2 -->
<g id="edge1_Node000001_Node000002" class="edge">
<title>Node1&#45;&gt;Node2</title>
<g id="a_edge1_Node000001_Node000002"><a xlink:title=" ">
<path fill="none" stroke="#63b8ff" d="M519,-230.87C519,-222.75 519,-210.31 519,-199.89"/>
<polygon fill="#63b8ff" stroke="#63b8ff" points="522.5,-199.67 519,-189.67 515.5,-199.67 522.5,-199.67"/>
</a>
</g>
</g>
<!-- Node15 -->
<g id="Node000015" class="node">
<title>Node15</title>
<g id="a_Node000015"><a xlink:href="drv__handle_8h.html" target="_top" xlink:title=" ">
<polygon fill="white" stroke="#666666" points="227,-129 111,-129 111,-110 227,-110 227,-129"/>
<text text-anchor="middle" x="169" y="-117" font-family="Helvetica,sans-Serif" font-size="10.00">drivers/drv_handle.h</text>
</a>
</g>
</g>
<!-- Node1&#45;&gt;Node15 -->
<g id="edge43_Node000001_Node000015" class="edge">
<title>Node1&#45;&gt;Node15</title>
<g id="a_edge43_Node000001_Node000015"><a xlink:title=" ">
<path fill="none" stroke="#63b8ff" d="M479.35,-238.7C404.03,-236.43 243.92,-227.77 201,-195 183.38,-181.55 175.33,-156.45 171.74,-139.13"/>
<polygon fill="#63b8ff" stroke="#63b8ff" points="175.15,-138.31 169.97,-129.07 168.26,-139.52 175.15,-138.31"/>
</a>
</g>
</g>
<!-- Node20 -->
<g id="Node000020" class="node">
<title>Node20</title>
<g id="a_Node000020"><a xlink:href="kernel_8h.html" target="_top" xlink:title=" ">
<polygon fill="white" stroke="#666666" points="670,-189.5 600,-189.5 600,-170.5 670,-170.5 670,-189.5"/>
<text text-anchor="middle" x="635" y="-177.5" font-family="Helvetica,sans-Serif" font-size="10.00">os/kernel.h</text>
</a>
</g>
</g>
<!-- Node1&#45;&gt;Node20 -->
<g id="edge24_Node000001_Node000020" class="edge">
<title>Node1&#45;&gt;Node20</title>
<g id="a_edge24_Node000001_Node000020"><a xlink:title=" ">
<path fill="none" stroke="#63b8ff" d="M536.12,-230.87C555.22,-221.23 586.37,-205.53 608.6,-194.31"/>
<polygon fill="#63b8ff" stroke="#63b8ff" points="610.46,-197.3 617.81,-189.67 607.31,-191.05 610.46,-197.3"/>
</a>
</g>
</g>
<!-- Node29 -->
<g id="Node000029" class="node">
<title>Node29</title>
<g id="a_Node000029"><a xlink:title=" ">
<polygon fill="#e0e0e0" stroke="#999999" points="439.5,-189.5 320.5,-189.5 320.5,-170.5 439.5,-170.5 439.5,-189.5"/>
<text text-anchor="middle" x="380" y="-177.5" font-family="Helvetica,sans-Serif" font-size="10.00">board/board_config.h</text>
</a>
</g>
</g>
<!-- Node1&#45;&gt;Node29 -->
<g id="edge44_Node000001_Node000029" class="edge">
<title>Node1&#45;&gt;Node29</title>
<g id="a_edge44_Node000001_Node000029"><a xlink:title=" ">
<path fill="none" stroke="#63b8ff" d="M498.79,-230.99C475.32,-221.12 436.39,-204.73 409.54,-193.43"/>
<polygon fill="#63b8ff" stroke="#63b8ff" points="410.81,-190.17 400.24,-189.52 408.1,-196.62 410.81,-190.17"/>
</a>
</g>
</g>
<!-- Node30 -->
<g id="Node000030" class="node">
<title>Node30</title>
<g id="a_Node000030"><a xlink:href="ipc_2ringbuffer_8h.html" target="_top" xlink:title=" ">
<polygon fill="white" stroke="#666666" points="1607.5,-129 1518.5,-129 1518.5,-110 1607.5,-110 1607.5,-129"/>
<text text-anchor="middle" x="1563" y="-117" font-family="Helvetica,sans-Serif" font-size="10.00">ipc/ringbuffer.h</text>
</a>
</g>
</g>
<!-- Node1&#45;&gt;Node30 -->
<g id="edge45_Node000001_Node000030" class="edge">
<title>Node1&#45;&gt;Node30</title>
<g id="a_edge45_Node000001_Node000030"><a xlink:title=" ">
<path fill="none" stroke="#63b8ff" d="M558.7,-237.87C655.47,-233.62 911.11,-220.69 1123,-195 1264.02,-177.9 1428.75,-147.08 1510.88,-130.96"/>
<polygon fill="#63b8ff" stroke="#63b8ff" points="1511.58,-134.39 1520.72,-129.03 1510.23,-127.52 1511.58,-134.39"/>
</a>
</g>
</g>
<!-- Node32 -->
<g id="Node000032" class="node">
<title>Node32</title>
<g id="a_Node000032"><a xlink:href="global__var_8h.html" target="_top" xlink:title=" ">
<polygon fill="white" stroke="#666666" points="302.5,-189.5 209.5,-189.5 209.5,-170.5 302.5,-170.5 302.5,-189.5"/>
<text text-anchor="middle" x="256" y="-177.5" font-family="Helvetica,sans-Serif" font-size="10.00">ipc/global_var.h</text>
</a>
</g>
</g>
<!-- Node1&#45;&gt;Node32 -->
<g id="edge48_Node000001_Node000032" class="edge">
<title>Node1&#45;&gt;Node32</title>
<g id="a_edge48_Node000001_Node000032"><a xlink:title=" ">
<path fill="none" stroke="#63b8ff" d="M479.23,-231.36C437.49,-222.72 370,-208.48 312,-195 307.88,-194.04 303.6,-193.02 299.32,-191.98"/>
<polygon fill="#63b8ff" stroke="#63b8ff" points="299.96,-188.54 289.42,-189.55 298.29,-195.33 299.96,-188.54"/>
</a>
</g>
</g>
<!-- Node33 -->
<g id="Node000033" class="node">
<title>Node33</title>
<g id="a_Node000033"><a xlink:href="mqueue_8h.html" target="_top" xlink:title=" ">
<polygon fill="white" stroke="#666666" points="1113.5,-189.5 1030.5,-189.5 1030.5,-170.5 1113.5,-170.5 1113.5,-189.5"/>
<text text-anchor="middle" x="1072" y="-177.5" font-family="Helvetica,sans-Serif" font-size="10.00">ipc/mqueue.h</text>
</a>
</g>
</g>
<!-- Node1&#45;&gt;Node33 -->
<g id="edge52_Node000001_Node000033" class="edge">
<title>Node1&#45;&gt;Node33</title>
<g id="a_edge52_Node000001_Node000033"><a xlink:title=" ">
<path fill="none" stroke="#63b8ff" d="M558.77,-235.29C656.89,-224.91 910.51,-198.08 1020.19,-186.48"/>
<polygon fill="#63b8ff" stroke="#63b8ff" points="1020.77,-189.94 1030.34,-185.41 1020.03,-182.98 1020.77,-189.94"/>
</a>
</g>
</g>
<!-- Node37 -->
<g id="Node000037" class="node">
<title>Node37</title>
<g id="a_Node000037"><a xlink:href="irq__notify_8h.html" target="_top" xlink:title=" ">
<polygon fill="white" stroke="#666666" points="836,-189.5 750,-189.5 750,-170.5 836,-170.5 836,-189.5"/>
<text text-anchor="middle" x="793" y="-177.5" font-family="Helvetica,sans-Serif" font-size="10.00">irq/irq_notify.h</text>
</a>
</g>
</g>
<!-- Node1&#45;&gt;Node37 -->
<g id="edge63_Node000001_Node000037" class="edge">
<title>Node1&#45;&gt;Node37</title>
<g id="a_edge63_Node000001_Node000037"><a xlink:title=" ">
<path fill="none" stroke="#63b8ff" d="M558.55,-231.06C607.28,-220.65 690.11,-202.97 743.15,-191.64"/>
<polygon fill="#63b8ff" stroke="#63b8ff" points="743.97,-195.05 753.02,-189.54 742.51,-188.2 743.97,-195.05"/>
</a>
</g>
</g>
<!-- Node39 -->
<g id="Node000039" class="node">
<title>Node39</title>
<g id="a_Node000039"><a xlink:href="hal__uart__stm32_8h.html" target="_top" xlink:title=" ">
<polygon fill="white" stroke="#666666" points="153,-195 27,-195 27,-165 153,-165 153,-195"/>
<text text-anchor="start" x="35" y="-183" font-family="Helvetica,sans-Serif" font-size="10.00">drivers/com/hal/stm32</text>
<text text-anchor="middle" x="90" y="-172" font-family="Helvetica,sans-Serif" font-size="10.00">/hal_uart_stm32.h</text>
</a>
</g>
</g>
<!-- Node1&#45;&gt;Node39 -->
<g id="edge66_Node000001_Node000039" class="edge">
<title>Node1&#45;&gt;Node39</title>
<g id="a_edge66_Node000001_Node000039"><a xlink:title=" ">
<path fill="none" stroke="#63b8ff" d="M479.31,-235.19C414.02,-227.94 279.93,-212.39 167,-195 165.89,-194.83 164.78,-194.66 163.65,-194.48"/>
<polygon fill="#63b8ff" stroke="#63b8ff" points="163.84,-190.96 153.4,-192.81 162.71,-197.87 163.84,-190.96"/>
</a>
</g>
</g>
<!-- Node3 -->
<g id="Node000003" class="node">
<title>Node3</title>
<g id="a_Node000003"><a xlink:href="def__std_8h.html" target="_top" xlink:title=" ">
<polygon fill="white" stroke="#666666" points="592,-74 530,-74 530,-55 592,-55 592,-74"/>
<text text-anchor="middle" x="561" y="-62" font-family="Helvetica,sans-Serif" font-size="10.00">def_std.h</text>
</a>
</g>
</g>
<!-- Node2&#45;&gt;Node3 -->
<g id="edge2_Node000002_Node000003" class="edge">
<title>Node2&#45;&gt;Node3</title>
<g id="a_edge2_Node000002_Node000003"><a xlink:title=" ">
<path fill="none" stroke="#63b8ff" d="M522.16,-170.47C528.94,-152.15 545.02,-108.68 554.22,-83.81"/>
<polygon fill="#63b8ff" stroke="#63b8ff" points="557.62,-84.72 557.81,-74.13 551.05,-82.29 557.62,-84.72"/>
</a>
</g>
</g>
<!-- Node11 -->
<g id="Node000011" class="node">
<title>Node11</title>
<g id="a_Node000011"><a xlink:href="def__err_8h.html" target="_top" xlink:title=" ">
<polygon fill="white" stroke="#666666" points="497.5,-74 438.5,-74 438.5,-55 497.5,-55 497.5,-74"/>
<text text-anchor="middle" x="468" y="-62" font-family="Helvetica,sans-Serif" font-size="10.00">def_err.h</text>
</a>
</g>
</g>
<!-- Node2&#45;&gt;Node11 -->
<g id="edge10_Node000002_Node000011" class="edge">
<title>Node2&#45;&gt;Node11</title>
<g id="a_edge10_Node000002_Node000011"><a xlink:title=" ">
<path fill="none" stroke="#63b8ff" d="M505.95,-170.48C493.84,-161.72 476.56,-146.86 469,-129 463.01,-114.87 463.24,-97.32 464.7,-84.26"/>
<polygon fill="#63b8ff" stroke="#63b8ff" points="468.19,-84.53 466.17,-74.13 461.27,-83.53 468.19,-84.53"/>
</a>
</g>
</g>
<!-- Node12 -->
<g id="Node000012" class="node">
<title>Node12</title>
<g id="a_Node000012"><a xlink:title=" ">
<polygon fill="#e0e0e0" stroke="#999999" points="112,-74 0,-74 0,-55 112,-55 112,-74"/>
<text text-anchor="middle" x="56" y="-62" font-family="Helvetica,sans-Serif" font-size="10.00">board/mcu_config.h</text>
</a>
</g>
</g>
<!-- Node2&#45;&gt;Node12 -->
<g id="edge11_Node000002_Node000012" class="edge">
<title>Node2&#45;&gt;Node12</title>
<g id="a_edge11_Node000002_Node000012"><a xlink:title=" ">
<path fill="none" stroke="#63b8ff" d="M479.87,-170.5C469.84,-168.51 459.05,-166.52 449,-165 372.35,-153.39 169.14,-167.76 102,-129 84.18,-118.71 71.37,-98.44 63.86,-83.56"/>
<polygon fill="#63b8ff" stroke="#63b8ff" points="66.94,-81.87 59.52,-74.31 60.6,-84.85 66.94,-81.87"/>
</a>
</g>
</g>
<!-- Node13 -->
<g id="Node000013" class="node">
<title>Node13</title>
<g id="a_Node000013"><a xlink:href="conf__os_8h.html" target="_top" xlink:title=" ">
<polygon fill="white" stroke="#666666" points="416.5,-129 321.5,-129 321.5,-110 416.5,-110 416.5,-129"/>
<text text-anchor="middle" x="369" y="-117" font-family="Helvetica,sans-Serif" font-size="10.00">config/conf_os.h</text>
</a>
</g>
</g>
<!-- Node2&#45;&gt;Node13 -->
<g id="edge12_Node000002_Node000013" class="edge">
<title>Node2&#45;&gt;Node13</title>
<g id="a_edge12_Node000002_Node000013"><a xlink:title=" ">
<path fill="none" stroke="#63b8ff" d="M497.19,-170.49C471.75,-160.57 429.49,-144.09 400.49,-132.78"/>
<polygon fill="#63b8ff" stroke="#63b8ff" points="401.43,-129.39 390.84,-129.02 398.88,-135.91 401.43,-129.39"/>
</a>
</g>
</g>
<!-- Node2&#45;&gt;Node15 -->
<g id="edge14_Node000002_Node000015" class="edge">
<title>Node2&#45;&gt;Node15</title>
<g id="a_edge14_Node000002_Node000015"><a xlink:title=" ">
<path fill="none" stroke="#63b8ff" d="M477.6,-170.44C468.21,-168.57 458.27,-166.66 449,-165 376.79,-152.05 293.75,-139.09 236.97,-130.53"/>
<polygon fill="#63b8ff" stroke="#63b8ff" points="237.44,-127.06 227.03,-129.03 236.4,-133.98 237.44,-127.06"/>
</a>
</g>
</g>
<!-- Node16 -->
<g id="Node000016" class="node">
<title>Node16</title>
<g id="a_Node000016"><a xlink:title=" ">
<polygon fill="#e0e0e0" stroke="#999999" points="694,-74 622,-74 622,-55 694,-55 694,-74"/>
<text text-anchor="middle" x="658" y="-62" font-family="Helvetica,sans-Serif" font-size="10.00">FreeRTOS.h</text>
</a>
</g>
</g>
<!-- Node2&#45;&gt;Node16 -->
<g id="edge21_Node000002_Node000016" class="edge">
<title>Node2&#45;&gt;Node16</title>
<g id="a_edge21_Node000002_Node000016"><a xlink:title=" ">
<path fill="none" stroke="#63b8ff" d="M529.45,-170.47C552.89,-151.32 609.95,-104.73 639.53,-80.58"/>
<polygon fill="#63b8ff" stroke="#63b8ff" points="641.9,-83.17 647.43,-74.13 637.47,-77.74 641.9,-83.17"/>
</a>
</g>
</g>
<!-- Node17 -->
<g id="Node000017" class="node">
<title>Node17</title>
<g id="a_Node000017"><a xlink:title=" ">
<polygon fill="#e0e0e0" stroke="#999999" points="316.5,-74 269.5,-74 269.5,-55 316.5,-55 316.5,-74"/>
<text text-anchor="middle" x="293" y="-62" font-family="Helvetica,sans-Serif" font-size="10.00">task.h</text>
</a>
</g>
</g>
<!-- Node2&#45;&gt;Node17 -->
<g id="edge23_Node000002_Node000017" class="edge">
<title>Node2&#45;&gt;Node17</title>
<g id="a_edge23_Node000002_Node000017"><a xlink:title=" ">
<path fill="none" stroke="#63b8ff" d="M479.32,-170.42C421.21,-157.7 319.13,-134.73 313,-129 300.74,-117.54 295.96,-98.65 294.11,-84.45"/>
<polygon fill="#63b8ff" stroke="#63b8ff" points="297.58,-83.93 293.17,-74.3 290.61,-84.58 297.58,-83.93"/>
</a>
</g>
</g>
<!-- Node19 -->
<g id="Node000019" class="node">
<title>Node19</title>
<g id="a_Node000019"><a xlink:title=" ">
<polygon fill="#e0e0e0" stroke="#999999" points="1348,-74 1292,-74 1292,-55 1348,-55 1348,-74"/>
<text text-anchor="middle" x="1320" y="-62" font-family="Helvetica,sans-Serif" font-size="10.00">queue.h</text>
</a>
</g>
</g>
<!-- Node2&#45;&gt;Node19 -->
<g id="edge22_Node000002_Node000019" class="edge">
<title>Node2&#45;&gt;Node19</title>
<g id="a_edge22_Node000002_Node000019"><a xlink:title=" ">
<path fill="none" stroke="#63b8ff" d="M558.09,-170.48C568.72,-168.41 580.27,-166.4 591,-165 826.43,-134.28 894.89,-191.31 1124,-129 1142.22,-124.04 1144.39,-116.81 1162,-110 1183.82,-101.56 1242.66,-85.64 1282.04,-75.31"/>
<polygon fill="#63b8ff" stroke="#63b8ff" points="1283.06,-78.66 1291.85,-72.74 1281.29,-71.88 1283.06,-78.66"/>
</a>
</g>
</g>
<!-- Node4 -->
<g id="Node000004" class="node">
<title>Node4</title>
<g id="a_Node000004"><a xlink:title=" ">
<polygon fill="#e0e0e0" stroke="#999999" points="412.5,-19 359.5,-19 359.5,0 412.5,0 412.5,-19"/>
<text text-anchor="middle" x="386" y="-7" font-family="Helvetica,sans-Serif" font-size="10.00">stdlib.h</text>
</a>
</g>
</g>
<!-- Node3&#45;&gt;Node4 -->
<g id="edge3_Node000003_Node000004" class="edge">
<title>Node3&#45;&gt;Node4</title>
<g id="a_edge3_Node000003_Node000004"><a xlink:title=" ">
<path fill="none" stroke="#63b8ff" d="M532.88,-54.98C502.85,-45.89 455.14,-31.44 422.29,-21.49"/>
<polygon fill="#63b8ff" stroke="#63b8ff" points="423.2,-18.11 412.61,-18.56 421.17,-24.81 423.2,-18.11"/>
</a>
</g>
</g>
<!-- Node5 -->
<g id="Node000005" class="node">
<title>Node5</title>
<g id="a_Node000005"><a xlink:title=" ">
<polygon fill="#e0e0e0" stroke="#999999" points="481.5,-19 430.5,-19 430.5,0 481.5,0 481.5,-19"/>
<text text-anchor="middle" x="456" y="-7" font-family="Helvetica,sans-Serif" font-size="10.00">errno.h</text>
</a>
</g>
</g>
<!-- Node3&#45;&gt;Node5 -->
<g id="edge4_Node000003_Node000005" class="edge">
<title>Node3&#45;&gt;Node5</title>
<g id="a_edge4_Node000003_Node000005"><a xlink:title=" ">
<path fill="none" stroke="#63b8ff" d="M544.13,-54.98C527.39,-46.54 501.5,-33.47 482.11,-23.68"/>
<polygon fill="#63b8ff" stroke="#63b8ff" points="483.68,-20.55 473.18,-19.17 480.53,-26.8 483.68,-20.55"/>
</a>
</g>
</g>
<!-- Node6 -->
<g id="Node000006" class="node">
<title>Node6</title>
<g id="a_Node000006"><a xlink:title=" ">
<polygon fill="#e0e0e0" stroke="#999999" points="550,-19 500,-19 500,0 550,0 550,-19"/>
<text text-anchor="middle" x="525" y="-7" font-family="Helvetica,sans-Serif" font-size="10.00">stdio.h</text>
</a>
</g>
</g>
<!-- Node3&#45;&gt;Node6 -->
<g id="edge5_Node000003_Node000006" class="edge">
<title>Node3&#45;&gt;Node6</title>
<g id="a_edge5_Node000003_Node000006"><a xlink:title=" ">
<path fill="none" stroke="#63b8ff" d="M555.06,-54.75C550.02,-47.34 542.66,-36.5 536.49,-27.41"/>
<polygon fill="#63b8ff" stroke="#63b8ff" points="539.35,-25.39 530.83,-19.09 533.56,-29.33 539.35,-25.39"/>
</a>
</g>
</g>
<!-- Node7 -->
<g id="Node000007" class="node">
<title>Node7</title>
<g id="a_Node000007"><a xlink:title=" ">
<polygon fill="#e0e0e0" stroke="#999999" points="623.5,-19 568.5,-19 568.5,0 623.5,0 623.5,-19"/>
<text text-anchor="middle" x="596" y="-7" font-family="Helvetica,sans-Serif" font-size="10.00">signal.h</text>
</a>
</g>
</g>
<!-- Node3&#45;&gt;Node7 -->
<g id="edge6_Node000003_Node000007" class="edge">
<title>Node3&#45;&gt;Node7</title>
<g id="a_edge6_Node000003_Node000007"><a xlink:title=" ">
<path fill="none" stroke="#63b8ff" d="M566.78,-54.75C571.62,-47.42 578.68,-36.73 584.64,-27.7"/>
<polygon fill="#63b8ff" stroke="#63b8ff" points="587.74,-29.36 590.33,-19.09 581.9,-25.5 587.74,-29.36"/>
</a>
</g>
</g>
<!-- Node8 -->
<g id="Node000008" class="node">
<title>Node8</title>
<g id="a_Node000008"><a xlink:title=" ">
<polygon fill="#e0e0e0" stroke="#999999" points="690,-19 642,-19 642,0 690,0 690,-19"/>
<text text-anchor="middle" x="666" y="-7" font-family="Helvetica,sans-Serif" font-size="10.00">time.h</text>
</a>
</g>
</g>
<!-- Node3&#45;&gt;Node8 -->
<g id="edge7_Node000003_Node000008" class="edge">
<title>Node3&#45;&gt;Node8</title>
<g id="a_edge7_Node000003_Node000008"><a xlink:title=" ">
<path fill="none" stroke="#63b8ff" d="M577.87,-54.98C594.61,-46.54 620.5,-33.47 639.89,-23.68"/>
<polygon fill="#63b8ff" stroke="#63b8ff" points="641.47,-26.8 648.82,-19.17 638.32,-20.55 641.47,-26.8"/>
</a>
</g>
</g>
<!-- Node9 -->
<g id="Node000009" class="node">
<title>Node9</title>
<g id="a_Node000009"><a xlink:title=" ">
<polygon fill="#e0e0e0" stroke="#999999" points="1174.5,-19 1121.5,-19 1121.5,0 1174.5,0 1174.5,-19"/>
<text text-anchor="middle" x="1148" y="-7" font-family="Helvetica,sans-Serif" font-size="10.00">stdint.h</text>
</a>
</g>
</g>
<!-- Node3&#45;&gt;Node9 -->
<g id="edge8_Node000003_Node000009" class="edge">
<title>Node3&#45;&gt;Node9</title>
<g id="a_edge8_Node000003_Node000009"><a xlink:title=" ">
<path fill="none" stroke="#63b8ff" d="M592.01,-58.02C598.91,-56.92 606.19,-55.84 613,-55 799.7,-32.01 1024.56,-17.61 1111.35,-12.55"/>
<polygon fill="#63b8ff" stroke="#63b8ff" points="1111.7,-16.03 1121.48,-11.96 1111.3,-9.04 1111.7,-16.03"/>
</a>
</g>
</g>
<!-- Node10 -->
<g id="Node000010" class="node">
<title>Node10</title>
<g id="a_Node000010"><a xlink:title=" ">
<polygon fill="#e0e0e0" stroke="#999999" points="773.5,-19 708.5,-19 708.5,0 773.5,0 773.5,-19"/>
<text text-anchor="middle" x="741" y="-7" font-family="Helvetica,sans-Serif" font-size="10.00">inttypes.h</text>
</a>
</g>
</g>
<!-- Node3&#45;&gt;Node10 -->
<g id="edge9_Node000003_Node000010" class="edge">
<title>Node3&#45;&gt;Node10</title>
<g id="a_edge9_Node000003_Node000010"><a xlink:title=" ">
<path fill="none" stroke="#63b8ff" d="M589.92,-54.98C620.27,-46.05 668.17,-31.94 701.88,-22.02"/>
<polygon fill="#63b8ff" stroke="#63b8ff" points="703.25,-25.26 711.85,-19.08 701.27,-18.55 703.25,-25.26"/>
</a>
</g>
</g>
<!-- Node14 -->
<g id="Node000014" class="node">
<title>Node14</title>
<g id="a_Node000014"><a xlink:href="autoconf_8h.html" target="_top" xlink:title=" ">
<polygon fill="white" stroke="#666666" points="403,-74 335,-74 335,-55 403,-55 403,-74"/>
<text text-anchor="middle" x="369" y="-62" font-family="Helvetica,sans-Serif" font-size="10.00">autoconf.h</text>
</a>
</g>
</g>
<!-- Node13&#45;&gt;Node14 -->
<g id="edge13_Node000013_Node000014" class="edge">
<title>Node13&#45;&gt;Node14</title>
<g id="a_edge13_Node000013_Node000014"><a xlink:title=" ">
<path fill="none" stroke="#63b8ff" d="M369,-109.75C369,-102.8 369,-92.85 369,-84.13"/>
<polygon fill="#63b8ff" stroke="#63b8ff" points="372.5,-84.09 369,-74.09 365.5,-84.09 372.5,-84.09"/>
</a>
</g>
</g>
<!-- Node15&#45;&gt;Node3 -->
<g id="edge15_Node000015_Node000003" class="edge">
<title>Node15&#45;&gt;Node3</title>
<g id="a_edge15_Node000015_Node000003"><a xlink:title=" ">
<path fill="none" stroke="#63b8ff" d="M227.08,-111.31C294.46,-102.85 408.88,-88.18 507,-74 511.17,-73.4 515.53,-72.75 519.87,-72.08"/>
<polygon fill="#63b8ff" stroke="#63b8ff" points="520.55,-75.52 529.9,-70.53 519.48,-68.6 520.55,-75.52"/>
</a>
</g>
</g>
<!-- Node15&#45;&gt;Node11 -->
<g id="edge16_Node000015_Node000011" class="edge">
<title>Node15&#45;&gt;Node11</title>
<g id="a_edge16_Node000015_Node000011"><a xlink:title=" ">
<path fill="none" stroke="#63b8ff" d="M217.04,-109.98C275.66,-99.59 373.69,-82.22 428.26,-72.54"/>
<polygon fill="#63b8ff" stroke="#63b8ff" points="429.01,-75.97 438.25,-70.77 427.79,-69.07 429.01,-75.97"/>
</a>
</g>
</g>
<!-- Node15&#45;&gt;Node12 -->
<g id="edge17_Node000015_Node000012" class="edge">
<title>Node15&#45;&gt;Node12</title>
<g id="a_edge17_Node000015_Node000012"><a xlink:title=" ">
<path fill="none" stroke="#63b8ff" d="M150.84,-109.98C132.75,-101.5 104.72,-88.35 83.81,-78.54"/>
<polygon fill="#63b8ff" stroke="#63b8ff" points="85.03,-75.25 74.49,-74.17 82.05,-81.59 85.03,-75.25"/>
</a>
</g>
</g>
<!-- Node15&#45;&gt;Node16 -->
<g id="edge18_Node000015_Node000016" class="edge">
<title>Node15&#45;&gt;Node16</title>
<g id="a_edge18_Node000015_Node000016"><a xlink:title=" ">
<path fill="none" stroke="#63b8ff" d="M227.09,-113.36C310.12,-105.82 467.47,-90.82 601,-74 604.48,-73.56 608.08,-73.08 611.69,-72.59"/>
<polygon fill="#63b8ff" stroke="#63b8ff" points="612.44,-76.01 621.85,-71.14 611.46,-69.08 612.44,-76.01"/>
</a>
</g>
</g>
<!-- Node15&#45;&gt;Node17 -->
<g id="edge19_Node000015_Node000017" class="edge">
<title>Node15&#45;&gt;Node17</title>
<g id="a_edge19_Node000015_Node000017"><a xlink:title=" ">
<path fill="none" stroke="#63b8ff" d="M188.92,-109.98C209.05,-101.38 240.38,-87.99 263.41,-78.15"/>
<polygon fill="#63b8ff" stroke="#63b8ff" points="264.9,-81.32 272.71,-74.17 262.14,-74.88 264.9,-81.32"/>
</a>
</g>
</g>
<!-- Node18 -->
<g id="Node000018" class="node">
<title>Node18</title>
<g id="a_Node000018"><a xlink:title=" ">
<polygon fill="#e0e0e0" stroke="#999999" points="198,-74 140,-74 140,-55 198,-55 198,-74"/>
<text text-anchor="middle" x="169" y="-62" font-family="Helvetica,sans-Serif" font-size="10.00">device.h</text>
</a>
</g>
</g>
<!-- Node15&#45;&gt;Node18 -->
<g id="edge20_Node000015_Node000018" class="edge">
<title>Node15&#45;&gt;Node18</title>
<g id="a_edge20_Node000015_Node000018"><a xlink:title=" ">
<path fill="none" stroke="#63b8ff" d="M169,-109.75C169,-102.8 169,-92.85 169,-84.13"/>
<polygon fill="#63b8ff" stroke="#63b8ff" points="172.5,-84.09 169,-74.09 165.5,-84.09 172.5,-84.09"/>
</a>
</g>
</g>
<!-- Node20&#45;&gt;Node3 -->
<g id="edge26_Node000020_Node000003" class="edge">
<title>Node20&#45;&gt;Node3</title>
<g id="a_edge26_Node000020_Node000003"><a xlink:title=" ">
<path fill="none" stroke="#63b8ff" d="M629.44,-170.47C617.33,-151.9 588.39,-107.51 572.29,-82.82"/>
<polygon fill="#63b8ff" stroke="#63b8ff" points="575.02,-80.6 566.63,-74.13 569.16,-84.42 575.02,-80.6"/>
</a>
</g>
</g>
<!-- Node20&#45;&gt;Node11 -->
<g id="edge27_Node000020_Node000011" class="edge">
<title>Node20&#45;&gt;Node11</title>
<g id="a_edge27_Node000020_Node000011"><a xlink:title=" ">
<path fill="none" stroke="#63b8ff" d="M622.45,-170.47C594.04,-151.16 524.55,-103.93 489.28,-79.96"/>
<polygon fill="#63b8ff" stroke="#63b8ff" points="490.94,-76.86 480.7,-74.13 487,-82.65 490.94,-76.86"/>
</a>
</g>
</g>
<!-- Node20&#45;&gt;Node16 -->
<g id="edge28_Node000020_Node000016" class="edge">
<title>Node20&#45;&gt;Node16</title>
<g id="a_edge28_Node000020_Node000016"><a xlink:title=" ">
<path fill="none" stroke="#63b8ff" d="M636.73,-170.47C640.43,-152.23 649.17,-109.07 654.22,-84.14"/>
<polygon fill="#63b8ff" stroke="#63b8ff" points="657.7,-84.63 656.25,-74.13 650.83,-83.24 657.7,-84.63"/>
</a>
</g>
</g>
<!-- Node21 -->
<g id="Node000021" class="node">
<title>Node21</title>
<g id="a_Node000021"><a xlink:href="def__attributes_8h.html" target="_top" xlink:title=" ">
<polygon fill="white" stroke="#666666" points="811,-74 717,-74 717,-55 811,-55 811,-74"/>
<text text-anchor="middle" x="764" y="-62" font-family="Helvetica,sans-Serif" font-size="10.00">def_attributes.h</text>
</a>
</g>
</g>
<!-- Node20&#45;&gt;Node21 -->
<g id="edge25_Node000020_Node000021" class="edge">
<title>Node20&#45;&gt;Node21</title>
<g id="a_edge25_Node000020_Node000021"><a xlink:title=" ">
<path fill="none" stroke="#63b8ff" d="M664.9,-170.35C687,-162.64 716.52,-149.36 736,-129 747.96,-116.5 755.31,-98.04 759.46,-84.24"/>
<polygon fill="#63b8ff" stroke="#63b8ff" points="762.9,-84.95 762.13,-74.38 756.14,-83.12 762.9,-84.95"/>
</a>
</g>
</g>
<!-- Node22 -->
<g id="Node000022" class="node">
<title>Node22</title>
<g id="a_Node000022"><a xlink:href="list_8h.html" target="_top" xlink:title="All linked list operation functions definitions and macros.">
<polygon fill="white" stroke="#666666" points="726.5,-129 663.5,-129 663.5,-110 726.5,-110 726.5,-129"/>
<text text-anchor="middle" x="695" y="-117" font-family="Helvetica,sans-Serif" font-size="10.00">mm/list.h</text>
</a>
</g>
</g>
<!-- Node20&#45;&gt;Node22 -->
<g id="edge29_Node000020_Node000022" class="edge">
<title>Node20&#45;&gt;Node22</title>
<g id="a_edge29_Node000020_Node000022"><a xlink:title=" ">
<path fill="none" stroke="#63b8ff" d="M643.85,-170.37C652.98,-161.47 667.42,-147.39 678.64,-136.45"/>
<polygon fill="#63b8ff" stroke="#63b8ff" points="681.39,-138.65 686.11,-129.17 676.51,-133.64 681.39,-138.65"/>
</a>
</g>
</g>
<!-- Node23 -->
<g id="Node000023" class="node">
<title>Node23</title>
<g id="a_Node000023"><a xlink:href="os_2kernel__mem_8h.html" target="_top" xlink:title=" ">
<polygon fill="white" stroke="#666666" points="1115,-129 1029,-129 1029,-110 1115,-110 1115,-129"/>
<text text-anchor="middle" x="1072" y="-117" font-family="Helvetica,sans-Serif" font-size="10.00">kernel_mem.h</text>
</a>
</g>
</g>
<!-- Node20&#45;&gt;Node23 -->
<g id="edge31_Node000020_Node000023" class="edge">
<title>Node20&#45;&gt;Node23</title>
<g id="a_edge31_Node000020_Node000023"><a xlink:title=" ">
<path fill="none" stroke="#63b8ff" d="M670.02,-174.31C746.37,-164.09 928.21,-139.75 1018.8,-127.62"/>
<polygon fill="#63b8ff" stroke="#63b8ff" points="1019.41,-131.07 1028.86,-126.28 1018.48,-124.13 1019.41,-131.07"/>
</a>
</g>
</g>
<!-- Node22&#45;&gt;Node3 -->
<g id="edge30_Node000022_Node000003" class="edge">
<title>Node22&#45;&gt;Node3</title>
<g id="a_edge30_Node000022_Node000003"><a xlink:title=" ">
<path fill="none" stroke="#63b8ff" d="M673.47,-109.98C651.53,-101.3 617.26,-87.75 592.31,-77.88"/>
<polygon fill="#63b8ff" stroke="#63b8ff" points="593.51,-74.59 582.92,-74.17 590.93,-81.1 593.51,-74.59"/>
</a>
</g>
</g>
<!-- Node23&#45;&gt;Node3 -->
<g id="edge32_Node000023_Node000003" class="edge">
<title>Node23&#45;&gt;Node3</title>
<g id="a_edge32_Node000023_Node000003"><a xlink:title=" ">
<path fill="none" stroke="#63b8ff" d="M1028.67,-114.46C922.23,-104.52 653.59,-79.28 613,-74 609.49,-73.54 605.86,-73.03 602.21,-72.49"/>
<polygon fill="#63b8ff" stroke="#63b8ff" points="602.44,-68.98 592.02,-70.91 601.37,-75.9 602.44,-68.98"/>
</a>
</g>
</g>
<!-- Node23&#45;&gt;Node11 -->
<g id="edge33_Node000023_Node000011" class="edge">
<title>Node23&#45;&gt;Node11</title>
<g id="a_edge33_Node000023_Node000011"><a xlink:title=" ">
<path fill="none" stroke="#63b8ff" d="M1028.79,-115.45C916.84,-107.48 619.26,-85.83 521,-74 516.73,-73.49 512.28,-72.88 507.85,-72.24"/>
<polygon fill="#63b8ff" stroke="#63b8ff" points="508.07,-68.73 497.66,-70.68 507.01,-75.65 508.07,-68.73"/>
</a>
</g>
</g>
<!-- Node23&#45;&gt;Node16 -->
<g id="edge35_Node000023_Node000016" class="edge">
<title>Node23&#45;&gt;Node16</title>
<g id="a_edge35_Node000023_Node000016"><a xlink:title=" ">
<path fill="none" stroke="#63b8ff" d="M1028.76,-111.91C1024.12,-111.24 1019.46,-110.59 1015,-110 878.82,-91.87 843.99,-93.52 708,-74 706.73,-73.82 705.43,-73.63 704.13,-73.43"/>
<polygon fill="#63b8ff" stroke="#63b8ff" points="704.44,-69.94 694.02,-71.85 703.35,-76.85 704.44,-69.94"/>
</a>
</g>
</g>
<!-- Node23&#45;&gt;Node17 -->
<g id="edge38_Node000023_Node000017" class="edge">
<title>Node23&#45;&gt;Node17</title>
<g id="a_edge38_Node000023_Node000017"><a xlink:title=" ">
<path fill="none" stroke="#63b8ff" d="M1028.75,-115.54C1003.95,-113.87 972.23,-111.76 944,-110 672.75,-93.09 599.61,-115.94 326.88,-73.78"/>
<polygon fill="#63b8ff" stroke="#63b8ff" points="327.1,-70.27 316.68,-72.18 326.02,-77.19 327.1,-70.27"/>
</a>
</g>
</g>
<!-- Node23&#45;&gt;Node19 -->
<g id="edge37_Node000023_Node000019" class="edge">
<title>Node23&#45;&gt;Node19</title>
<g id="a_edge37_Node000023_Node000019"><a xlink:title=" ">
<path fill="none" stroke="#63b8ff" d="M1113.68,-109.94C1154.2,-101.57 1217.74,-88.3 1281.85,-74.22"/>
<polygon fill="#63b8ff" stroke="#63b8ff" points="1282.72,-77.62 1291.73,-72.05 1281.21,-70.78 1282.72,-77.62"/>
</a>
</g>
</g>
<!-- Node23&#45;&gt;Node21 -->
<g id="edge34_Node000023_Node000021" class="edge">
<title>Node23&#45;&gt;Node21</title>
<g id="a_edge34_Node000023_Node000021"><a xlink:title=" ">
<path fill="none" stroke="#63b8ff" d="M1028.85,-111.07C974.62,-101.74 881.38,-85.7 821.24,-75.35"/>
<polygon fill="#63b8ff" stroke="#63b8ff" points="821.6,-71.86 811.15,-73.61 820.41,-78.76 821.6,-71.86"/>
</a>
</g>
</g>
<!-- Node24 -->
<g id="Node000024" class="node">
<title>Node24</title>
<g id="a_Node000024"><a xlink:title=" ">
<polygon fill="#e0e0e0" stroke="#999999" points="1008.5,-74 949.5,-74 949.5,-55 1008.5,-55 1008.5,-74"/>
<text text-anchor="middle" x="979" y="-62" font-family="Helvetica,sans-Serif" font-size="10.00">atomic.h</text>
</a>
</g>
</g>
<!-- Node23&#45;&gt;Node24 -->
<g id="edge36_Node000023_Node000024" class="edge">
<title>Node23&#45;&gt;Node24</title>
<g id="a_edge36_Node000023_Node000024"><a xlink:title=" ">
<path fill="none" stroke="#63b8ff" d="M1057.06,-109.98C1042.5,-101.69 1020.13,-88.94 1003.07,-79.22"/>
<polygon fill="#63b8ff" stroke="#63b8ff" points="1004.64,-76.08 994.21,-74.17 1001.17,-82.16 1004.64,-76.08"/>
</a>
</g>
</g>
<!-- Node25 -->
<g id="Node000025" class="node">
<title>Node25</title>
<g id="a_Node000025"><a xlink:title=" ">
<polygon fill="#e0e0e0" stroke="#999999" points="1083.5,-74 1026.5,-74 1026.5,-55 1083.5,-55 1083.5,-74"/>
<text text-anchor="middle" x="1055" y="-62" font-family="Helvetica,sans-Serif" font-size="10.00">timers.h</text>
</a>
</g>
</g>
<!-- Node23&#45;&gt;Node25 -->
<g id="edge39_Node000023_Node000025" class="edge">
<title>Node23&#45;&gt;Node25</title>
<g id="a_edge39_Node000023_Node000025"><a xlink:title=" ">
<path fill="none" stroke="#63b8ff" d="M1069.19,-109.75C1066.94,-102.72 1063.7,-92.62 1060.88,-83.84"/>
<polygon fill="#63b8ff" stroke="#63b8ff" points="1064.14,-82.54 1057.75,-74.09 1057.48,-84.68 1064.14,-82.54"/>
</a>
</g>
</g>
<!-- Node26 -->
<g id="Node000026" class="node">
<title>Node26</title>
<g id="a_Node000026"><a xlink:title=" ">
<polygon fill="#e0e0e0" stroke="#999999" points="1164,-74 1102,-74 1102,-55 1164,-55 1164,-74"/>
<text text-anchor="middle" x="1133" y="-62" font-family="Helvetica,sans-Serif" font-size="10.00">semphr.h</text>
</a>
</g>
</g>
<!-- Node23&#45;&gt;Node26 -->
<g id="edge40_Node000023_Node000026" class="edge">
<title>Node23&#45;&gt;Node26</title>
<g id="a_edge40_Node000023_Node000026"><a xlink:title=" ">
<path fill="none" stroke="#63b8ff" d="M1081.8,-109.98C1090.82,-102.15 1104.41,-90.34 1115.32,-80.86"/>
<polygon fill="#63b8ff" stroke="#63b8ff" points="1117.77,-83.37 1123.02,-74.17 1113.18,-78.09 1117.77,-83.37"/>
</a>
</g>
</g>
<!-- Node27 -->
<g id="Node000027" class="node">
<title>Node27</title>
<g id="a_Node000027"><a xlink:title=" ">
<polygon fill="#e0e0e0" stroke="#999999" points="1274,-74 1182,-74 1182,-55 1274,-55 1274,-74"/>
<text text-anchor="middle" x="1228" y="-62" font-family="Helvetica,sans-Serif" font-size="10.00">event_groups.h</text>
</a>
</g>
</g>
<!-- Node23&#45;&gt;Node27 -->
<g id="edge41_Node000023_Node000027" class="edge">
<title>Node23&#45;&gt;Node27</title>
<g id="a_edge41_Node000023_Node000027"><a xlink:title=" ">
<path fill="none" stroke="#63b8ff" d="M1097.06,-109.98C1123.03,-101.16 1163.81,-87.31 1192.96,-77.41"/>
<polygon fill="#63b8ff" stroke="#63b8ff" points="1194.4,-80.61 1202.74,-74.08 1192.15,-73.99 1194.4,-80.61"/>
</a>
</g>
</g>
<!-- Node28 -->
<g id="Node000028" class="node">
<title>Node28</title>
<g id="a_Node000028"><a xlink:title=" ">
<polygon fill="#e0e0e0" stroke="#999999" points="931.5,-74 838.5,-74 838.5,-55 931.5,-55 931.5,-74"/>
<text text-anchor="middle" x="885" y="-62" font-family="Helvetica,sans-Serif" font-size="10.00">stream_buffer.h</text>
</a>
</g>
</g>
<!-- Node23&#45;&gt;Node28 -->
<g id="edge42_Node000023_Node000028" class="edge">
<title>Node23&#45;&gt;Node28</title>
<g id="a_edge42_Node000023_Node000028"><a xlink:title=" ">
<path fill="none" stroke="#63b8ff" d="M1041.96,-109.98C1010.29,-101.01 960.23,-86.82 925.19,-76.89"/>
<polygon fill="#63b8ff" stroke="#63b8ff" points="925.86,-73.44 915.28,-74.08 923.95,-80.18 925.86,-73.44"/>
</a>
</g>
</g>
<!-- Node30&#45;&gt;Node9 -->
<g id="edge46_Node000030_Node000009" class="edge">
<title>Node30&#45;&gt;Node9</title>
<g id="a_edge46_Node000030_Node000009"><a xlink:title=" ">
<path fill="none" stroke="#63b8ff" d="M1537.84,-109.95C1499.23,-97 1422.92,-72.14 1357,-55 1297.09,-39.42 1226.49,-25.25 1184.58,-17.26"/>
<polygon fill="#63b8ff" stroke="#63b8ff" points="1185.05,-13.79 1174.57,-15.37 1183.75,-20.67 1185.05,-13.79"/>
</a>
</g>
</g>
<!-- Node31 -->
<g id="Node000031" class="node">
<title>Node31</title>
<g id="a_Node000031"><a xlink:title=" ">
<polygon fill="#e0e0e0" stroke="#999999" points="1591,-74 1535,-74 1535,-55 1591,-55 1591,-74"/>
<text text-anchor="middle" x="1563" y="-62" font-family="Helvetica,sans-Serif" font-size="10.00">stddef.h</text>
</a>
</g>
</g>
<!-- Node30&#45;&gt;Node31 -->
<g id="edge47_Node000030_Node000031" class="edge">
<title>Node30&#45;&gt;Node31</title>
<g id="a_edge47_Node000030_Node000031"><a xlink:title=" ">
<path fill="none" stroke="#63b8ff" d="M1563,-109.75C1563,-102.8 1563,-92.85 1563,-84.13"/>
<polygon fill="#63b8ff" stroke="#63b8ff" points="1566.5,-84.09 1563,-74.09 1559.5,-84.09 1566.5,-84.09"/>
</a>
</g>
</g>
<!-- Node32&#45;&gt;Node3 -->
<g id="edge49_Node000032_Node000003" class="edge">
<title>Node32&#45;&gt;Node3</title>
<g id="a_edge49_Node000032_Node000003"><a xlink:title=" ">
<path fill="none" stroke="#63b8ff" d="M260.59,-170.1C268.86,-155.04 287.78,-124.74 313,-110 321.87,-104.82 451.26,-83.28 519.52,-72.18"/>
<polygon fill="#63b8ff" stroke="#63b8ff" points="520.22,-75.61 529.53,-70.56 519.1,-68.7 520.22,-75.61"/>
</a>
</g>
</g>
<!-- Node32&#45;&gt;Node12 -->
<g id="edge51_Node000032_Node000012" class="edge">
<title>Node32&#45;&gt;Node12</title>
<g id="a_edge51_Node000032_Node000012"><a xlink:title=" ">
<path fill="none" stroke="#63b8ff" d="M209.12,-172.19C160.2,-164.12 88.01,-149.18 69,-129 57.8,-117.11 55.12,-98.28 54.9,-84.21"/>
<polygon fill="#63b8ff" stroke="#63b8ff" points="58.4,-84.25 55.14,-74.17 51.4,-84.08 58.4,-84.25"/>
</a>
</g>
</g>
<!-- Node32&#45;&gt;Node13 -->
<g id="edge50_Node000032_Node000013" class="edge">
<title>Node32&#45;&gt;Node13</title>
<g id="a_edge50_Node000032_Node000013"><a xlink:title=" ">
<path fill="none" stroke="#63b8ff" d="M272.67,-170.37C291.28,-160.73 321.62,-145.03 343.28,-133.81"/>
<polygon fill="#63b8ff" stroke="#63b8ff" points="344.99,-136.87 352.26,-129.17 341.77,-130.66 344.99,-136.87"/>
</a>
</g>
</g>
<!-- Node33&#45;&gt;Node3 -->
<g id="edge53_Node000033_Node000003" class="edge">
<title>Node33&#45;&gt;Node3</title>
<g id="a_edge53_Node000033_Node000003"><a xlink:title=" ">
<path fill="none" stroke="#63b8ff" d="M1055.08,-170.34C1036,-160.52 1004.1,-143.93 977,-129 962.18,-120.84 960.09,-115.25 944,-110 803.32,-64.1 759.63,-93.94 613,-74 609.49,-73.52 605.86,-73 602.22,-72.45"/>
<polygon fill="#63b8ff" stroke="#63b8ff" points="602.45,-68.94 592.03,-70.85 601.37,-75.86 602.45,-68.94"/>
</a>
</g>
</g>
<!-- Node33&#45;&gt;Node13 -->
<g id="edge58_Node000033_Node000013" class="edge">
<title>Node33&#45;&gt;Node13</title>
<g id="a_edge58_Node000033_Node000013"><a xlink:title=" ">
<path fill="none" stroke="#63b8ff" d="M1030.39,-175.54C910.66,-165.57 565.05,-136.81 426.99,-125.33"/>
<polygon fill="#63b8ff" stroke="#63b8ff" points="426.88,-121.8 416.63,-124.46 426.3,-128.78 426.88,-121.8"/>
</a>
</g>
</g>
<!-- Node33&#45;&gt;Node16 -->
<g id="edge61_Node000033_Node000016" class="edge">
<title>Node33&#45;&gt;Node16</title>
<g id="a_edge61_Node000033_Node000016"><a xlink:title=" ">
<path fill="none" stroke="#63b8ff" d="M1063.48,-170.47C1047.87,-155.43 1012.96,-124.39 977,-110 865.01,-65.19 827.25,-92.11 708,-74 706.73,-73.81 705.44,-73.61 704.13,-73.4"/>
<polygon fill="#63b8ff" stroke="#63b8ff" points="704.45,-69.91 694.03,-71.78 703.34,-76.82 704.45,-69.91"/>
</a>
</g>
</g>
<!-- Node33&#45;&gt;Node19 -->
<g id="edge62_Node000033_Node000019" class="edge">
<title>Node33&#45;&gt;Node19</title>
<g id="a_edge62_Node000033_Node000019"><a xlink:title=" ">
<path fill="none" stroke="#63b8ff" d="M1113.57,-176.85C1210.99,-171.4 1447.59,-155.53 1471,-129 1505.38,-90.04 1413.76,-74.34 1358.48,-68.55"/>
<polygon fill="#63b8ff" stroke="#63b8ff" points="1358.59,-65.05 1348.29,-67.55 1357.9,-72.01 1358.59,-65.05"/>
</a>
</g>
</g>
<!-- Node33&#45;&gt;Node22 -->
<g id="edge55_Node000033_Node000022" class="edge">
<title>Node33&#45;&gt;Node22</title>
<g id="a_edge55_Node000033_Node000022"><a xlink:title=" ">
<path fill="none" stroke="#63b8ff" d="M1030.21,-172.52C957.67,-161.26 809.26,-138.23 736.75,-126.98"/>
<polygon fill="#63b8ff" stroke="#63b8ff" points="737.04,-123.48 726.62,-125.41 735.96,-130.4 737.04,-123.48"/>
</a>
</g>
</g>
<!-- Node33&#45;&gt;Node23 -->
<g id="edge60_Node000033_Node000023" class="edge">
<title>Node33&#45;&gt;Node23</title>
<g id="a_edge60_Node000033_Node000023"><a xlink:title=" ">
<path fill="none" stroke="#63b8ff" d="M1072,-170.37C1072,-162.25 1072,-149.81 1072,-139.39"/>
<polygon fill="#63b8ff" stroke="#63b8ff" points="1075.5,-139.17 1072,-129.17 1068.5,-139.17 1075.5,-139.17"/>
</a>
</g>
</g>
<!-- Node33&#45;&gt;Node30 -->
<g id="edge59_Node000033_Node000030" class="edge">
<title>Node33&#45;&gt;Node30</title>
<g id="a_edge59_Node000033_Node000030"><a xlink:title=" ">
<path fill="none" stroke="#63b8ff" d="M1113.75,-174.56C1190.9,-166.26 1360.99,-147.57 1504,-129 1505.3,-128.83 1506.61,-128.66 1507.94,-128.48"/>
<polygon fill="#63b8ff" stroke="#63b8ff" points="1508.8,-131.9 1518.24,-127.08 1507.86,-124.96 1508.8,-131.9"/>
</a>
</g>
</g>
<!-- Node34 -->
<g id="Node000034" class="node">
<title>Node34</title>
<g id="a_Node000034"><a xlink:href="def__compiler_8h.html" target="_top" xlink:title=" ">
<polygon fill="white" stroke="#666666" points="1338.5,-129 1249.5,-129 1249.5,-110 1338.5,-110 1338.5,-129"/>
<text text-anchor="middle" x="1294" y="-117" font-family="Helvetica,sans-Serif" font-size="10.00">def_compiler.h</text>
</a>
</g>
</g>
<!-- Node33&#45;&gt;Node34 -->
<g id="edge54_Node000033_Node000034" class="edge">
<title>Node33&#45;&gt;Node34</title>
<g id="a_edge54_Node000033_Node000034"><a xlink:title=" ">
<path fill="none" stroke="#63b8ff" d="M1104.28,-170.49C1143.25,-160.23 1208.88,-142.93 1251.82,-131.62"/>
<polygon fill="#63b8ff" stroke="#63b8ff" points="1252.9,-134.95 1261.68,-129.02 1251.12,-128.18 1252.9,-134.95"/>
</a>
</g>
</g>
<!-- Node35 -->
<g id="Node000035" class="node">
<title>Node35</title>
<g id="a_Node000035"><a xlink:href="def__env__macros_8h.html" target="_top" xlink:title=" ">
<polygon fill="white" stroke="#666666" points="1462,-129 1356,-129 1356,-110 1462,-110 1462,-129"/>
<text text-anchor="middle" x="1409" y="-117" font-family="Helvetica,sans-Serif" font-size="10.00">def_env_macros.h</text>
</a>
</g>
</g>
<!-- Node33&#45;&gt;Node35 -->
<g id="edge56_Node000033_Node000035" class="edge">
<title>Node33&#45;&gt;Node35</title>
<g id="a_edge56_Node000033_Node000035"><a xlink:title=" ">
<path fill="none" stroke="#63b8ff" d="M1113.66,-171.77C1172.96,-161.47 1282,-142.55 1349.7,-130.79"/>
<polygon fill="#63b8ff" stroke="#63b8ff" points="1350.54,-134.2 1359.79,-129.04 1349.34,-127.3 1350.54,-134.2"/>
</a>
</g>
</g>
<!-- Node36 -->
<g id="Node000036" class="node">
<title>Node36</title>
<g id="a_Node000036"><a xlink:href="def__hw_8h.html" target="_top" xlink:title=" ">
<polygon fill="white" stroke="#666666" points="1231,-129 1171,-129 1171,-110 1231,-110 1231,-129"/>
<text text-anchor="middle" x="1201" y="-117" font-family="Helvetica,sans-Serif" font-size="10.00">def_hw.h</text>
</a>
</g>
</g>
<!-- Node33&#45;&gt;Node36 -->
<g id="edge57_Node000033_Node000036" class="edge">
<title>Node33&#45;&gt;Node36</title>
<g id="a_edge57_Node000033_Node000036"><a xlink:title=" ">
<path fill="none" stroke="#63b8ff" d="M1090.76,-170.49C1112.35,-160.7 1148.03,-144.52 1172.93,-133.23"/>
<polygon fill="#63b8ff" stroke="#63b8ff" points="1174.56,-136.33 1182.22,-129.02 1171.67,-129.96 1174.56,-136.33"/>
</a>
</g>
</g>
<!-- Node37&#45;&gt;Node16 -->
<g id="edge65_Node000037_Node000016" class="edge">
<title>Node37&#45;&gt;Node16</title>
<g id="a_edge65_Node000037_Node000016"><a xlink:title=" ">
<path fill="none" stroke="#63b8ff" d="M787.2,-170.06C777.75,-156 757.88,-128.41 736,-110 720.98,-97.37 701.88,-86.4 686.33,-78.51"/>
<polygon fill="#63b8ff" stroke="#63b8ff" points="687.7,-75.28 677.18,-74.01 684.61,-81.57 687.7,-75.28"/>
</a>
</g>
</g>
<!-- Node38 -->
<g id="Node000038" class="node">
<title>Node38</title>
<g id="a_Node000038"><a xlink:title=" ">
<polygon fill="#e0e0e0" stroke="#999999" points="935,-129 821,-129 821,-110 935,-110 935,-129"/>
<text text-anchor="middle" x="878" y="-117" font-family="Helvetica,sans-Serif" font-size="10.00">board/irq_hw_conf.h</text>
</a>
</g>
</g>
<!-- Node37&#45;&gt;Node38 -->
<g id="edge64_Node000037_Node000038" class="edge">
<title>Node37&#45;&gt;Node38</title>
<g id="a_edge64_Node000037_Node000038"><a xlink:title=" ">
<path fill="none" stroke="#63b8ff" d="M805.54,-170.37C819.1,-161.04 840.94,-146.01 857.1,-134.88"/>
<polygon fill="#63b8ff" stroke="#63b8ff" points="859.15,-137.72 865.41,-129.17 855.18,-131.95 859.15,-137.72"/>
</a>
</g>
</g>
<!-- Node39&#45;&gt;Node12 -->
<g id="edge67_Node000039_Node000012" class="edge">
<title>Node39&#45;&gt;Node12</title>
<g id="a_edge67_Node000039_Node000012"><a xlink:title=" ">
<path fill="none" stroke="#63b8ff" d="M64.7,-164.88C52.06,-156.31 38,-144.11 31,-129 23.8,-113.45 32.71,-95.21 41.83,-82.27"/>
<polygon fill="#63b8ff" stroke="#63b8ff" points="44.67,-84.33 47.98,-74.26 39.11,-80.06 44.67,-84.33"/>
</a>
</g>
</g>
<!-- Node39&#45;&gt;Node15 -->
<g id="edge68_Node000039_Node000015" class="edge">
<title>Node39&#45;&gt;Node15</title>
<g id="a_edge68_Node000039_Node000015"><a xlink:title=" ">
<path fill="none" stroke="#63b8ff" d="M109.12,-164.84C121.18,-155.91 136.71,-144.41 148.94,-135.35"/>
<polygon fill="#63b8ff" stroke="#63b8ff" points="151.21,-138.03 157.16,-129.27 147.04,-132.4 151.21,-138.03"/>
</a>
</g>
</g>
</g>
</svg>
