<?xml version="1.0" encoding="UTF-8" standalone="no"?>
<!DOCTYPE svg PUBLIC "-//W3C//DTD SVG 1.1//EN"
 "http://www.w3.org/Graphics/SVG/1.1/DTD/svg11.dtd">
<!-- Generated by graphviz version 2.43.0 (0)
 -->
<!-- Title: uart_mgmt_read_byte Pages: 1 -->
<svg width="492pt" height="64pt"
 viewBox="0.00 0.00 492.00 64.00" xmlns="http://www.w3.org/2000/svg" xmlns:xlink="http://www.w3.org/1999/xlink">
<g id="graph0" class="graph" transform="scale(1 1) rotate(0) translate(4 60)">
<title>uart_mgmt_read_byte</title>
<!-- Node1 -->
<g id="Node000001" class="node">
<title>Node1</title>
<g id="a_Node000001"><a xlink:title="Read one byte from the UART RX ring buffer.">
<polygon fill="#999999" stroke="#666666" points="125,-37 0,-37 0,-18 125,-18 125,-37"/>
<text text-anchor="middle" x="62.5" y="-25" font-family="Helvetica,sans-Serif" font-size="10.00">uart_mgmt_read_byte</text>
</a>
</g>
</g>
<!-- Node2 -->
<g id="Node000002" class="node">
<title>Node2</title>
<g id="a_Node000002"><a xlink:href="mqueue_8c.html#ae54fde83faac5a815d0afa0be0ceb447" target="_top" xlink:title=" ">
<polygon fill="white" stroke="#666666" points="296,-56 161,-56 161,-37 296,-37 296,-56"/>
<text text-anchor="middle" x="228.5" y="-44" font-family="Helvetica,sans-Serif" font-size="10.00">ipc_mqueue_get_handle</text>
</a>
</g>
</g>
<!-- Node1&#45;&gt;Node2 -->
<g id="edge1_Node000001_Node000002" class="edge">
<title>Node1&#45;&gt;Node2</title>
<g id="a_edge1_Node000001_Node000002"><a xlink:title=" ">
<path fill="none" stroke="#63b8ff" d="M125.03,-34.63C133.46,-35.61 142.2,-36.62 150.85,-37.62"/>
<polygon fill="#63b8ff" stroke="#63b8ff" points="150.62,-41.12 160.95,-38.79 151.42,-34.16 150.62,-41.12"/>
</a>
</g>
</g>
<!-- Node3 -->
<g id="Node000003" class="node">
<title>Node3</title>
<g id="a_Node000003"><a xlink:href="ringbuffer_8c.html#a3ad0c7d81e438887de4a1e02f25d4796" target="_top" xlink:title=" ">
<polygon fill="white" stroke="#666666" points="281.5,-19 175.5,-19 175.5,0 281.5,0 281.5,-19"/>
<text text-anchor="middle" x="228.5" y="-7" font-family="Helvetica,sans-Serif" font-size="10.00">ringbuffer_getchar</text>
</a>
</g>
</g>
<!-- Node1&#45;&gt;Node3 -->
<g id="edge2_Node000001_Node000003" class="edge">
<title>Node1&#45;&gt;Node3</title>
<g id="a_edge2_Node000001_Node000003"><a xlink:title=" ">
<path fill="none" stroke="#63b8ff" d="M125.03,-20.75C138.09,-19.31 151.88,-17.8 164.97,-16.36"/>
<polygon fill="#63b8ff" stroke="#63b8ff" points="165.73,-19.8 175.29,-15.23 164.96,-12.84 165.73,-19.8"/>
</a>
</g>
</g>
<!-- Node4 -->
<g id="Node000004" class="node">
<title>Node4</title>
<g id="a_Node000004"><a xlink:href="ringbuffer_8c.html#abc6b533f80fb18ade4151b188f827c23" target="_top" xlink:title=" ">
<polygon fill="white" stroke="#666666" points="396,-19 332,-19 332,0 396,0 396,-19"/>
<text text-anchor="middle" x="364" y="-7" font-family="Helvetica,sans-Serif" font-size="10.00">_data_len</text>
</a>
</g>
</g>
<!-- Node3&#45;&gt;Node4 -->
<g id="edge3_Node000003_Node000004" class="edge">
<title>Node3&#45;&gt;Node4</title>
<g id="a_edge3_Node000003_Node000004"><a xlink:title=" ">
<path fill="none" stroke="#63b8ff" d="M281.88,-9.5C295.12,-9.5 309.15,-9.5 321.76,-9.5"/>
<polygon fill="#63b8ff" stroke="#63b8ff" points="321.96,-13 331.96,-9.5 321.96,-6 321.96,-13"/>
</a>
</g>
</g>
<!-- Node5 -->
<g id="Node000005" class="node">
<title>Node5</title>
<g id="a_Node000005"><a xlink:href="ringbuffer_8c.html#a0d9be0bc18b041c2946fd11f840206e9" target="_top" xlink:title=" ">
<polygon fill="white" stroke="#666666" points="484,-19 432,-19 432,0 484,0 484,-19"/>
<text text-anchor="middle" x="458" y="-7" font-family="Helvetica,sans-Serif" font-size="10.00">_status</text>
</a>
</g>
</g>
<!-- Node4&#45;&gt;Node5 -->
<g id="edge4_Node000004_Node000005" class="edge">
<title>Node4&#45;&gt;Node5</title>
<g id="a_edge4_Node000004_Node000005"><a xlink:title=" ">
<path fill="none" stroke="#63b8ff" d="M396.15,-9.5C404.45,-9.5 413.47,-9.5 421.97,-9.5"/>
<polygon fill="#63b8ff" stroke="#63b8ff" points="421.98,-13 431.98,-9.5 421.98,-6 421.98,-13"/>
</a>
</g>
</g>
</g>
</svg>
