<?xml version="1.0" encoding="UTF-8" standalone="no"?>
<!DOCTYPE svg PUBLIC "-//W3C//DTD SVG 1.1//EN"
 "http://www.w3.org/Graphics/SVG/1.1/DTD/svg11.dtd">
<!-- Generated by graphviz version 2.43.0 (0)
 -->
<!-- Title: uart_app.c Pages: 1 -->
<svg width="1264pt" height="247pt"
 viewBox="0.00 0.00 1263.50 247.00" xmlns="http://www.w3.org/2000/svg" xmlns:xlink="http://www.w3.org/1999/xlink">
<g id="graph0" class="graph" transform="scale(1 1) rotate(0) translate(4 243)">
<title>uart_app.c</title>
<!-- Node1 -->
<g id="Node000001" class="node">
<title>Node1</title>
<g id="a_Node000001"><a xlink:title=" ">
<polygon fill="#999999" stroke="#666666" points="978,-239 910,-239 910,-220 978,-220 978,-239"/>
<text text-anchor="middle" x="944" y="-227" font-family="Helvetica,sans-Serif" font-size="10.00">uart_app.c</text>
</a>
</g>
</g>
<!-- Node2 -->
<g id="Node000002" class="node">
<title>Node2</title>
<g id="a_Node000002"><a xlink:href="uart__app_8h.html" target="_top" xlink:title=" ">
<polygon fill="white" stroke="#666666" points="726,-129 616,-129 616,-110 726,-110 726,-129"/>
<text text-anchor="middle" x="671" y="-117" font-family="Helvetica,sans-Serif" font-size="10.00">drv_app/uart_app.h</text>
</a>
</g>
</g>
<!-- Node1&#45;&gt;Node2 -->
<g id="edge1_Node000001_Node000002" class="edge">
<title>Node1&#45;&gt;Node2</title>
<g id="a_edge1_Node000001_Node000002"><a xlink:title=" ">
<path fill="none" stroke="#63b8ff" d="M922.12,-219.84C873.78,-200.72 757.75,-154.82 701.97,-132.75"/>
<polygon fill="#63b8ff" stroke="#63b8ff" points="703.19,-129.47 692.6,-129.05 700.62,-135.98 703.19,-129.47"/>
</a>
</g>
</g>
<!-- Node12 -->
<g id="Node000012" class="node">
<title>Node12</title>
<g id="a_Node000012"><a xlink:href="uart__mgmt_8h.html" target="_top" xlink:title=" ">
<polygon fill="white" stroke="#666666" points="1005.5,-184 882.5,-184 882.5,-165 1005.5,-165 1005.5,-184"/>
<text text-anchor="middle" x="944" y="-172" font-family="Helvetica,sans-Serif" font-size="10.00">services/uart_mgmt.h</text>
</a>
</g>
</g>
<!-- Node1&#45;&gt;Node12 -->
<g id="edge11_Node000001_Node000012" class="edge">
<title>Node1&#45;&gt;Node12</title>
<g id="a_edge11_Node000001_Node000012"><a xlink:title=" ">
<path fill="none" stroke="#63b8ff" d="M944,-219.75C944,-212.8 944,-202.85 944,-194.13"/>
<polygon fill="#63b8ff" stroke="#63b8ff" points="947.5,-194.09 944,-184.09 940.5,-194.09 947.5,-194.09"/>
</a>
</g>
</g>
<!-- Node17 -->
<g id="Node000017" class="node">
<title>Node17</title>
<g id="a_Node000017"><a xlink:title=" ">
<polygon fill="#e0e0e0" stroke="#999999" points="1190,-74 1118,-74 1118,-55 1190,-55 1190,-74"/>
<text text-anchor="middle" x="1154" y="-62" font-family="Helvetica,sans-Serif" font-size="10.00">FreeRTOS.h</text>
</a>
</g>
</g>
<!-- Node1&#45;&gt;Node17 -->
<g id="edge46_Node000001_Node000017" class="edge">
<title>Node1&#45;&gt;Node17</title>
<g id="a_edge46_Node000001_Node000017"><a xlink:title=" ">
<path fill="none" stroke="#63b8ff" d="M978.01,-225.85C1032.39,-219.57 1137.53,-198.58 1184,-129 1194.09,-113.89 1182.26,-94.84 1170.62,-81.57"/>
<polygon fill="#63b8ff" stroke="#63b8ff" points="1173,-79 1163.59,-74.14 1167.92,-83.81 1173,-79"/>
</a>
</g>
</g>
<!-- Node18 -->
<g id="Node000018" class="node">
<title>Node18</title>
<g id="a_Node000018"><a xlink:title=" ">
<polygon fill="#e0e0e0" stroke="#999999" points="1255.5,-74 1208.5,-74 1208.5,-55 1255.5,-55 1255.5,-74"/>
<text text-anchor="middle" x="1232" y="-62" font-family="Helvetica,sans-Serif" font-size="10.00">task.h</text>
</a>
</g>
</g>
<!-- Node1&#45;&gt;Node18 -->
<g id="edge47_Node000001_Node000018" class="edge">
<title>Node1&#45;&gt;Node18</title>
<g id="a_edge47_Node000001_Node000018"><a xlink:title=" ">
<path fill="none" stroke="#63b8ff" d="M978.36,-227.23C1020.81,-224.33 1094.02,-214.83 1148,-184 1188.02,-161.14 1213.71,-110.54 1225.13,-83.44"/>
<polygon fill="#63b8ff" stroke="#63b8ff" points="1228.44,-84.6 1228.93,-74.02 1221.95,-81.99 1228.44,-84.6"/>
</a>
</g>
</g>
<!-- Node21 -->
<g id="Node000021" class="node">
<title>Node21</title>
<g id="a_Node000021"><a xlink:href="kernel_8h.html" target="_top" xlink:title=" ">
<polygon fill="white" stroke="#666666" points="563,-184 493,-184 493,-165 563,-165 563,-184"/>
<text text-anchor="middle" x="528" y="-172" font-family="Helvetica,sans-Serif" font-size="10.00">os/kernel.h</text>
</a>
</g>
</g>
<!-- Node1&#45;&gt;Node21 -->
<g id="edge27_Node000001_Node000021" class="edge">
<title>Node1&#45;&gt;Node21</title>
<g id="a_edge27_Node000001_Node000021"><a xlink:title=" ">
<path fill="none" stroke="#63b8ff" d="M909.96,-224.16C835.26,-214.65 656.97,-191.93 573.09,-181.24"/>
<polygon fill="#63b8ff" stroke="#63b8ff" points="573.46,-177.76 563.1,-179.97 572.58,-184.71 573.46,-177.76"/>
</a>
</g>
</g>
<!-- Node3 -->
<g id="Node000003" class="node">
<title>Node3</title>
<g id="a_Node000003"><a xlink:href="def__std_8h.html" target="_top" xlink:title=" ">
<polygon fill="white" stroke="#666666" points="702,-74 640,-74 640,-55 702,-55 702,-74"/>
<text text-anchor="middle" x="671" y="-62" font-family="Helvetica,sans-Serif" font-size="10.00">def_std.h</text>
</a>
</g>
</g>
<!-- Node2&#45;&gt;Node3 -->
<g id="edge2_Node000002_Node000003" class="edge">
<title>Node2&#45;&gt;Node3</title>
<g id="a_edge2_Node000002_Node000003"><a xlink:title=" ">
<path fill="none" stroke="#63b8ff" d="M671,-109.75C671,-102.8 671,-92.85 671,-84.13"/>
<polygon fill="#63b8ff" stroke="#63b8ff" points="674.5,-84.09 671,-74.09 667.5,-84.09 674.5,-84.09"/>
</a>
</g>
</g>
<!-- Node11 -->
<g id="Node000011" class="node">
<title>Node11</title>
<g id="a_Node000011"><a xlink:href="def__err_8h.html" target="_top" xlink:title=" ">
<polygon fill="white" stroke="#666666" points="783.5,-74 724.5,-74 724.5,-55 783.5,-55 783.5,-74"/>
<text text-anchor="middle" x="754" y="-62" font-family="Helvetica,sans-Serif" font-size="10.00">def_err.h</text>
</a>
</g>
</g>
<!-- Node2&#45;&gt;Node11 -->
<g id="edge10_Node000002_Node000011" class="edge">
<title>Node2&#45;&gt;Node11</title>
<g id="a_edge10_Node000002_Node000011"><a xlink:title=" ">
<path fill="none" stroke="#63b8ff" d="M684.34,-109.98C697.09,-101.84 716.55,-89.41 731.67,-79.76"/>
<polygon fill="#63b8ff" stroke="#63b8ff" points="733.88,-82.5 740.42,-74.17 730.11,-76.6 733.88,-82.5"/>
</a>
</g>
</g>
<!-- Node4 -->
<g id="Node000004" class="node">
<title>Node4</title>
<g id="a_Node000004"><a xlink:title=" ">
<polygon fill="#e0e0e0" stroke="#999999" points="487.5,-19 434.5,-19 434.5,0 487.5,0 487.5,-19"/>
<text text-anchor="middle" x="461" y="-7" font-family="Helvetica,sans-Serif" font-size="10.00">stdlib.h</text>
</a>
</g>
</g>
<!-- Node3&#45;&gt;Node4 -->
<g id="edge3_Node000003_Node000004" class="edge">
<title>Node3&#45;&gt;Node4</title>
<g id="a_edge3_Node000003_Node000004"><a xlink:title=" ">
<path fill="none" stroke="#63b8ff" d="M639.56,-55.57C601.56,-45.98 537.74,-29.87 497.57,-19.73"/>
<polygon fill="#63b8ff" stroke="#63b8ff" points="498.21,-16.28 487.65,-17.23 496.49,-23.07 498.21,-16.28"/>
</a>
</g>
</g>
<!-- Node5 -->
<g id="Node000005" class="node">
<title>Node5</title>
<g id="a_Node000005"><a xlink:title=" ">
<polygon fill="#e0e0e0" stroke="#999999" points="556.5,-19 505.5,-19 505.5,0 556.5,0 556.5,-19"/>
<text text-anchor="middle" x="531" y="-7" font-family="Helvetica,sans-Serif" font-size="10.00">errno.h</text>
</a>
</g>
</g>
<!-- Node3&#45;&gt;Node5 -->
<g id="edge4_Node000003_Node000005" class="edge">
<title>Node3&#45;&gt;Node5</title>
<g id="a_edge4_Node000003_Node000005"><a xlink:title=" ">
<path fill="none" stroke="#63b8ff" d="M648.51,-54.98C625.48,-46.27 589.46,-32.63 563.37,-22.75"/>
<polygon fill="#63b8ff" stroke="#63b8ff" points="564.49,-19.44 553.9,-19.17 562.02,-25.98 564.49,-19.44"/>
</a>
</g>
</g>
<!-- Node6 -->
<g id="Node000006" class="node">
<title>Node6</title>
<g id="a_Node000006"><a xlink:title=" ">
<polygon fill="#e0e0e0" stroke="#999999" points="625,-19 575,-19 575,0 625,0 625,-19"/>
<text text-anchor="middle" x="600" y="-7" font-family="Helvetica,sans-Serif" font-size="10.00">stdio.h</text>
</a>
</g>
</g>
<!-- Node3&#45;&gt;Node6 -->
<g id="edge5_Node000003_Node000006" class="edge">
<title>Node3&#45;&gt;Node6</title>
<g id="a_edge5_Node000003_Node000006"><a xlink:title=" ">
<path fill="none" stroke="#63b8ff" d="M659.59,-54.98C648.89,-47 632.66,-34.88 619.84,-25.31"/>
<polygon fill="#63b8ff" stroke="#63b8ff" points="621.72,-22.35 611.61,-19.17 617.53,-27.96 621.72,-22.35"/>
</a>
</g>
</g>
<!-- Node7 -->
<g id="Node000007" class="node">
<title>Node7</title>
<g id="a_Node000007"><a xlink:title=" ">
<polygon fill="#e0e0e0" stroke="#999999" points="698.5,-19 643.5,-19 643.5,0 698.5,0 698.5,-19"/>
<text text-anchor="middle" x="671" y="-7" font-family="Helvetica,sans-Serif" font-size="10.00">signal.h</text>
</a>
</g>
</g>
<!-- Node3&#45;&gt;Node7 -->
<g id="edge6_Node000003_Node000007" class="edge">
<title>Node3&#45;&gt;Node7</title>
<g id="a_edge6_Node000003_Node000007"><a xlink:title=" ">
<path fill="none" stroke="#63b8ff" d="M671,-54.75C671,-47.8 671,-37.85 671,-29.13"/>
<polygon fill="#63b8ff" stroke="#63b8ff" points="674.5,-29.09 671,-19.09 667.5,-29.09 674.5,-29.09"/>
</a>
</g>
</g>
<!-- Node8 -->
<g id="Node000008" class="node">
<title>Node8</title>
<g id="a_Node000008"><a xlink:title=" ">
<polygon fill="#e0e0e0" stroke="#999999" points="765,-19 717,-19 717,0 765,0 765,-19"/>
<text text-anchor="middle" x="741" y="-7" font-family="Helvetica,sans-Serif" font-size="10.00">time.h</text>
</a>
</g>
</g>
<!-- Node3&#45;&gt;Node8 -->
<g id="edge7_Node000003_Node000008" class="edge">
<title>Node3&#45;&gt;Node8</title>
<g id="a_edge7_Node000003_Node000008"><a xlink:title=" ">
<path fill="none" stroke="#63b8ff" d="M682.25,-54.98C692.8,-47 708.8,-34.88 721.44,-25.31"/>
<polygon fill="#63b8ff" stroke="#63b8ff" points="723.69,-28 729.55,-19.17 719.46,-22.42 723.69,-28"/>
</a>
</g>
</g>
<!-- Node9 -->
<g id="Node000009" class="node">
<title>Node9</title>
<g id="a_Node000009"><a xlink:title=" ">
<polygon fill="#e0e0e0" stroke="#999999" points="836.5,-19 783.5,-19 783.5,0 836.5,0 836.5,-19"/>
<text text-anchor="middle" x="810" y="-7" font-family="Helvetica,sans-Serif" font-size="10.00">stdint.h</text>
</a>
</g>
</g>
<!-- Node3&#45;&gt;Node9 -->
<g id="edge8_Node000003_Node000009" class="edge">
<title>Node3&#45;&gt;Node9</title>
<g id="a_edge8_Node000003_Node000009"><a xlink:title=" ">
<path fill="none" stroke="#63b8ff" d="M693.33,-54.98C716.2,-46.27 751.96,-32.63 777.86,-22.75"/>
<polygon fill="#63b8ff" stroke="#63b8ff" points="779.16,-26 787.26,-19.17 776.67,-19.46 779.16,-26"/>
</a>
</g>
</g>
<!-- Node10 -->
<g id="Node000010" class="node">
<title>Node10</title>
<g id="a_Node000010"><a xlink:title=" ">
<polygon fill="#e0e0e0" stroke="#999999" points="919.5,-19 854.5,-19 854.5,0 919.5,0 919.5,-19"/>
<text text-anchor="middle" x="887" y="-7" font-family="Helvetica,sans-Serif" font-size="10.00">inttypes.h</text>
</a>
</g>
</g>
<!-- Node3&#45;&gt;Node10 -->
<g id="edge9_Node000003_Node000010" class="edge">
<title>Node3&#45;&gt;Node10</title>
<g id="a_edge9_Node000003_Node000010"><a xlink:title=" ">
<path fill="none" stroke="#63b8ff" d="M702.41,-55.79C739.92,-46.59 802.82,-31.16 844.61,-20.9"/>
<polygon fill="#63b8ff" stroke="#63b8ff" points="845.62,-24.26 854.49,-18.48 843.95,-17.46 845.62,-24.26"/>
</a>
</g>
</g>
<!-- Node12&#45;&gt;Node3 -->
<g id="edge12_Node000012_Node000003" class="edge">
<title>Node12&#45;&gt;Node3</title>
<g id="a_edge12_Node000012_Node000003"><a xlink:title=" ">
<path fill="none" stroke="#63b8ff" d="M917.3,-164.89C891.25,-156.34 850.61,-142.57 816,-129 774.62,-112.78 727.66,-91.71 698.68,-78.39"/>
<polygon fill="#63b8ff" stroke="#63b8ff" points="700.12,-75.2 689.57,-74.19 697.19,-81.56 700.12,-75.2"/>
</a>
</g>
</g>
<!-- Node12&#45;&gt;Node11 -->
<g id="edge13_Node000012_Node000011" class="edge">
<title>Node12&#45;&gt;Node11</title>
<g id="a_edge13_Node000012_Node000011"><a xlink:title=" ">
<path fill="none" stroke="#63b8ff" d="M923.78,-164.93C904.45,-156.5 874.69,-142.92 850,-129 822.8,-113.67 793.04,-93.4 773.98,-79.93"/>
<polygon fill="#63b8ff" stroke="#63b8ff" points="775.95,-77.04 765.78,-74.08 771.89,-82.74 775.95,-77.04"/>
</a>
</g>
</g>
<!-- Node13 -->
<g id="Node000013" class="node">
<title>Node13</title>
<g id="a_Node000013"><a xlink:title=" ">
<polygon fill="#e0e0e0" stroke="#999999" points="1024,-74 912,-74 912,-55 1024,-55 1024,-74"/>
<text text-anchor="middle" x="968" y="-62" font-family="Helvetica,sans-Serif" font-size="10.00">board/mcu_config.h</text>
</a>
</g>
</g>
<!-- Node12&#45;&gt;Node13 -->
<g id="edge14_Node000012_Node000013" class="edge">
<title>Node12&#45;&gt;Node13</title>
<g id="a_edge14_Node000012_Node000013"><a xlink:title=" ">
<path fill="none" stroke="#63b8ff" d="M948.66,-164.93C953.17,-156.17 959.79,-142.05 963,-129 966.6,-114.37 967.78,-97.32 968.1,-84.57"/>
<polygon fill="#63b8ff" stroke="#63b8ff" points="971.61,-84.3 968.2,-74.27 964.61,-84.24 971.61,-84.3"/>
</a>
</g>
</g>
<!-- Node14 -->
<g id="Node000014" class="node">
<title>Node14</title>
<g id="a_Node000014"><a xlink:href="conf__os_8h.html" target="_top" xlink:title=" ">
<polygon fill="white" stroke="#666666" points="953.5,-129 858.5,-129 858.5,-110 953.5,-110 953.5,-129"/>
<text text-anchor="middle" x="906" y="-117" font-family="Helvetica,sans-Serif" font-size="10.00">config/conf_os.h</text>
</a>
</g>
</g>
<!-- Node12&#45;&gt;Node14 -->
<g id="edge15_Node000012_Node000014" class="edge">
<title>Node12&#45;&gt;Node14</title>
<g id="a_edge15_Node000012_Node000014"><a xlink:title=" ">
<path fill="none" stroke="#63b8ff" d="M937.73,-164.75C932.41,-157.34 924.64,-146.5 918.12,-137.41"/>
<polygon fill="#63b8ff" stroke="#63b8ff" points="920.83,-135.18 912.16,-129.09 915.14,-139.26 920.83,-135.18"/>
</a>
</g>
</g>
<!-- Node16 -->
<g id="Node000016" class="node">
<title>Node16</title>
<g id="a_Node000016"><a xlink:href="drv__handle_8h.html" target="_top" xlink:title=" ">
<polygon fill="white" stroke="#666666" points="1126,-129 1010,-129 1010,-110 1126,-110 1126,-129"/>
<text text-anchor="middle" x="1068" y="-117" font-family="Helvetica,sans-Serif" font-size="10.00">drivers/drv_handle.h</text>
</a>
</g>
</g>
<!-- Node12&#45;&gt;Node16 -->
<g id="edge17_Node000012_Node000016" class="edge">
<title>Node12&#45;&gt;Node16</title>
<g id="a_edge17_Node000012_Node000016"><a xlink:title=" ">
<path fill="none" stroke="#63b8ff" d="M963.92,-164.98C984.05,-156.38 1015.38,-142.99 1038.41,-133.15"/>
<polygon fill="#63b8ff" stroke="#63b8ff" points="1039.9,-136.32 1047.71,-129.17 1037.14,-129.88 1039.9,-136.32"/>
</a>
</g>
</g>
<!-- Node12&#45;&gt;Node17 -->
<g id="edge24_Node000012_Node000017" class="edge">
<title>Node12&#45;&gt;Node17</title>
<g id="a_edge24_Node000012_Node000017"><a xlink:title=" ">
<path fill="none" stroke="#63b8ff" d="M1005.56,-169.83C1064.63,-164.88 1147.78,-153.63 1168,-129 1178.49,-116.22 1172.4,-97.28 1165.26,-83.41"/>
<polygon fill="#63b8ff" stroke="#63b8ff" points="1168.1,-81.32 1160.1,-74.37 1162.02,-84.79 1168.1,-81.32"/>
</a>
</g>
</g>
<!-- Node12&#45;&gt;Node18 -->
<g id="edge26_Node000012_Node000018" class="edge">
<title>Node12&#45;&gt;Node18</title>
<g id="a_edge26_Node000012_Node000018"><a xlink:title=" ">
<path fill="none" stroke="#63b8ff" d="M1005.5,-167.2C1066.45,-160.07 1154.8,-147.04 1184,-129 1201.77,-118.02 1215.28,-97.88 1223.38,-83.21"/>
<polygon fill="#63b8ff" stroke="#63b8ff" points="1226.6,-84.6 1228.1,-74.12 1220.39,-81.38 1226.6,-84.6"/>
</a>
</g>
</g>
<!-- Node20 -->
<g id="Node000020" class="node">
<title>Node20</title>
<g id="a_Node000020"><a xlink:title=" ">
<polygon fill="#e0e0e0" stroke="#999999" points="622,-74 566,-74 566,-55 622,-55 622,-74"/>
<text text-anchor="middle" x="594" y="-62" font-family="Helvetica,sans-Serif" font-size="10.00">queue.h</text>
</a>
</g>
</g>
<!-- Node12&#45;&gt;Node20 -->
<g id="edge25_Node000012_Node000020" class="edge">
<title>Node12&#45;&gt;Node20</title>
<g id="a_edge25_Node000012_Node000020"><a xlink:title=" ">
<path fill="none" stroke="#63b8ff" d="M882.45,-173.63C796.26,-172.48 645.81,-165.16 607,-129 595.05,-117.86 592.47,-98.93 592.48,-84.63"/>
<polygon fill="#63b8ff" stroke="#63b8ff" points="595.99,-84.53 592.91,-74.39 588.99,-84.24 595.99,-84.53"/>
</a>
</g>
</g>
<!-- Node15 -->
<g id="Node000015" class="node">
<title>Node15</title>
<g id="a_Node000015"><a xlink:href="autoconf_8h.html" target="_top" xlink:title=" ">
<polygon fill="white" stroke="#666666" points="894,-74 826,-74 826,-55 894,-55 894,-74"/>
<text text-anchor="middle" x="860" y="-62" font-family="Helvetica,sans-Serif" font-size="10.00">autoconf.h</text>
</a>
</g>
</g>
<!-- Node14&#45;&gt;Node15 -->
<g id="edge16_Node000014_Node000015" class="edge">
<title>Node14&#45;&gt;Node15</title>
<g id="a_edge16_Node000014_Node000015"><a xlink:title=" ">
<path fill="none" stroke="#63b8ff" d="M898.4,-109.75C891.84,-102.18 882.18,-91.05 874.19,-81.84"/>
<polygon fill="#63b8ff" stroke="#63b8ff" points="876.65,-79.35 867.45,-74.09 871.37,-83.94 876.65,-79.35"/>
</a>
</g>
</g>
<!-- Node16&#45;&gt;Node3 -->
<g id="edge18_Node000016_Node000003" class="edge">
<title>Node16&#45;&gt;Node3</title>
<g id="a_edge18_Node000016_Node000003"><a xlink:title=" ">
<path fill="none" stroke="#63b8ff" d="M1009.92,-112.26C940.01,-104.49 819.14,-90.24 716,-74 714.9,-73.83 713.79,-73.65 712.66,-73.46"/>
<polygon fill="#63b8ff" stroke="#63b8ff" points="712.88,-69.95 702.43,-71.69 711.68,-76.84 712.88,-69.95"/>
</a>
</g>
</g>
<!-- Node16&#45;&gt;Node11 -->
<g id="edge19_Node000016_Node000011" class="edge">
<title>Node16&#45;&gt;Node11</title>
<g id="a_edge19_Node000016_Node000011"><a xlink:title=" ">
<path fill="none" stroke="#63b8ff" d="M1017.55,-109.98C955.21,-99.46 850.42,-81.78 793.57,-72.18"/>
<polygon fill="#63b8ff" stroke="#63b8ff" points="793.98,-68.7 783.54,-70.49 792.81,-75.6 793.98,-68.7"/>
</a>
</g>
</g>
<!-- Node16&#45;&gt;Node13 -->
<g id="edge20_Node000016_Node000013" class="edge">
<title>Node16&#45;&gt;Node13</title>
<g id="a_edge20_Node000016_Node000013"><a xlink:title=" ">
<path fill="none" stroke="#63b8ff" d="M1051.93,-109.98C1036.14,-101.61 1011.78,-88.7 993.37,-78.95"/>
<polygon fill="#63b8ff" stroke="#63b8ff" points="994.83,-75.76 984.36,-74.17 991.56,-81.95 994.83,-75.76"/>
</a>
</g>
</g>
<!-- Node16&#45;&gt;Node17 -->
<g id="edge21_Node000016_Node000017" class="edge">
<title>Node16&#45;&gt;Node17</title>
<g id="a_edge21_Node000016_Node000017"><a xlink:title=" ">
<path fill="none" stroke="#63b8ff" d="M1081.82,-109.98C1095.15,-101.77 1115.58,-89.18 1131.31,-79.49"/>
<polygon fill="#63b8ff" stroke="#63b8ff" points="1133.25,-82.4 1139.93,-74.17 1129.58,-76.44 1133.25,-82.4"/>
</a>
</g>
</g>
<!-- Node16&#45;&gt;Node18 -->
<g id="edge22_Node000016_Node000018" class="edge">
<title>Node16&#45;&gt;Node18</title>
<g id="a_edge22_Node000016_Node000018"><a xlink:title=" ">
<path fill="none" stroke="#63b8ff" d="M1094.35,-109.98C1122.66,-100.84 1167.72,-86.27 1198.52,-76.32"/>
<polygon fill="#63b8ff" stroke="#63b8ff" points="1199.94,-79.54 1208.38,-73.13 1197.79,-72.88 1199.94,-79.54"/>
</a>
</g>
</g>
<!-- Node19 -->
<g id="Node000019" class="node">
<title>Node19</title>
<g id="a_Node000019"><a xlink:title=" ">
<polygon fill="#e0e0e0" stroke="#999999" points="1100,-74 1042,-74 1042,-55 1100,-55 1100,-74"/>
<text text-anchor="middle" x="1071" y="-62" font-family="Helvetica,sans-Serif" font-size="10.00">device.h</text>
</a>
</g>
</g>
<!-- Node16&#45;&gt;Node19 -->
<g id="edge23_Node000016_Node000019" class="edge">
<title>Node16&#45;&gt;Node19</title>
<g id="a_edge23_Node000016_Node000019"><a xlink:title=" ">
<path fill="none" stroke="#63b8ff" d="M1068.5,-109.75C1068.89,-102.8 1069.45,-92.85 1069.95,-84.13"/>
<polygon fill="#63b8ff" stroke="#63b8ff" points="1073.44,-84.27 1070.51,-74.09 1066.45,-83.88 1073.44,-84.27"/>
</a>
</g>
</g>
<!-- Node21&#45;&gt;Node3 -->
<g id="edge29_Node000021_Node000003" class="edge">
<title>Node21&#45;&gt;Node3</title>
<g id="a_edge29_Node000021_Node000003"><a xlink:title=" ">
<path fill="none" stroke="#63b8ff" d="M515.69,-164.91C499.17,-152.34 473.51,-128.44 488,-110 490.23,-107.16 576.49,-87.06 629.77,-74.86"/>
<polygon fill="#63b8ff" stroke="#63b8ff" points="630.66,-78.25 639.63,-72.61 629.1,-71.43 630.66,-78.25"/>
</a>
</g>
</g>
<!-- Node21&#45;&gt;Node11 -->
<g id="edge30_Node000021_Node000011" class="edge">
<title>Node21&#45;&gt;Node11</title>
<g id="a_edge30_Node000021_Node000011"><a xlink:title=" ">
<path fill="none" stroke="#63b8ff" d="M563.3,-170.23C615.65,-164.69 710.36,-151.76 735,-129 747.27,-117.66 751.73,-98.76 753.3,-84.52"/>
<polygon fill="#63b8ff" stroke="#63b8ff" points="756.81,-84.56 754.03,-74.33 749.82,-84.06 756.81,-84.56"/>
</a>
</g>
</g>
<!-- Node21&#45;&gt;Node17 -->
<g id="edge31_Node000021_Node000017" class="edge">
<title>Node21&#45;&gt;Node17</title>
<g id="a_edge31_Node000021_Node000017"><a xlink:title=" ">
<path fill="none" stroke="#63b8ff" d="M563.28,-173.21C686.17,-171.89 1090.36,-164.85 1135,-129 1148.17,-118.42 1152.48,-99.1 1153.77,-84.54"/>
<polygon fill="#63b8ff" stroke="#63b8ff" points="1157.28,-84.29 1154.26,-74.14 1150.29,-83.96 1157.28,-84.29"/>
</a>
</g>
</g>
<!-- Node22 -->
<g id="Node000022" class="node">
<title>Node22</title>
<g id="a_Node000022"><a xlink:href="def__attributes_8h.html" target="_top" xlink:title=" ">
<polygon fill="white" stroke="#666666" points="94,-74 0,-74 0,-55 94,-55 94,-74"/>
<text text-anchor="middle" x="47" y="-62" font-family="Helvetica,sans-Serif" font-size="10.00">def_attributes.h</text>
</a>
</g>
</g>
<!-- Node21&#45;&gt;Node22 -->
<g id="edge28_Node000021_Node000022" class="edge">
<title>Node21&#45;&gt;Node22</title>
<g id="a_edge28_Node000021_Node000022"><a xlink:title=" ">
<path fill="none" stroke="#63b8ff" d="M492.63,-165.56C407.56,-146.46 191.41,-97.92 94.86,-76.25"/>
<polygon fill="#63b8ff" stroke="#63b8ff" points="95.59,-72.82 85.07,-74.05 94.06,-79.65 95.59,-72.82"/>
</a>
</g>
</g>
<!-- Node23 -->
<g id="Node000023" class="node">
<title>Node23</title>
<g id="a_Node000023"><a xlink:href="list_8h.html" target="_top" xlink:title="All linked list operation functions definitions and macros.">
<polygon fill="white" stroke="#666666" points="559.5,-129 496.5,-129 496.5,-110 559.5,-110 559.5,-129"/>
<text text-anchor="middle" x="528" y="-117" font-family="Helvetica,sans-Serif" font-size="10.00">mm/list.h</text>
</a>
</g>
</g>
<!-- Node21&#45;&gt;Node23 -->
<g id="edge32_Node000021_Node000023" class="edge">
<title>Node21&#45;&gt;Node23</title>
<g id="a_edge32_Node000021_Node000023"><a xlink:title=" ">
<path fill="none" stroke="#63b8ff" d="M528,-164.75C528,-157.8 528,-147.85 528,-139.13"/>
<polygon fill="#63b8ff" stroke="#63b8ff" points="531.5,-139.09 528,-129.09 524.5,-139.09 531.5,-139.09"/>
</a>
</g>
</g>
<!-- Node24 -->
<g id="Node000024" class="node">
<title>Node24</title>
<g id="a_Node000024"><a xlink:href="os_2kernel__mem_8h.html" target="_top" xlink:title=" ">
<polygon fill="white" stroke="#666666" points="440,-129 354,-129 354,-110 440,-110 440,-129"/>
<text text-anchor="middle" x="397" y="-117" font-family="Helvetica,sans-Serif" font-size="10.00">kernel_mem.h</text>
</a>
</g>
</g>
<!-- Node21&#45;&gt;Node24 -->
<g id="edge34_Node000021_Node000024" class="edge">
<title>Node21&#45;&gt;Node24</title>
<g id="a_edge34_Node000021_Node000024"><a xlink:title=" ">
<path fill="none" stroke="#63b8ff" d="M506.95,-164.98C485.59,-156.34 452.3,-142.87 427.94,-133.02"/>
<polygon fill="#63b8ff" stroke="#63b8ff" points="429.01,-129.68 418.43,-129.17 426.39,-136.17 429.01,-129.68"/>
</a>
</g>
</g>
<!-- Node23&#45;&gt;Node3 -->
<g id="edge33_Node000023_Node000003" class="edge">
<title>Node23&#45;&gt;Node3</title>
<g id="a_edge33_Node000023_Node000003"><a xlink:title=" ">
<path fill="none" stroke="#63b8ff" d="M550.98,-109.98C574.5,-101.27 611.29,-87.63 637.94,-77.75"/>
<polygon fill="#63b8ff" stroke="#63b8ff" points="639.45,-80.93 647.61,-74.17 637.01,-74.36 639.45,-80.93"/>
</a>
</g>
</g>
<!-- Node24&#45;&gt;Node3 -->
<g id="edge35_Node000024_Node000003" class="edge">
<title>Node24&#45;&gt;Node3</title>
<g id="a_edge35_Node000024_Node000003"><a xlink:title=" ">
<path fill="none" stroke="#63b8ff" d="M440.18,-110.57C485.07,-102.27 557.63,-88.68 629.44,-74.28"/>
<polygon fill="#63b8ff" stroke="#63b8ff" points="630.46,-77.65 639.57,-72.25 629.08,-70.79 630.46,-77.65"/>
</a>
</g>
</g>
<!-- Node24&#45;&gt;Node11 -->
<g id="edge36_Node000024_Node000011" class="edge">
<title>Node24&#45;&gt;Node11</title>
<g id="a_edge36_Node000024_Node000011"><a xlink:title=" ">
<path fill="none" stroke="#63b8ff" d="M440.03,-113.15C500.63,-105.46 614.51,-90.36 711,-74 712.09,-73.82 713.19,-73.62 714.3,-73.43"/>
<polygon fill="#63b8ff" stroke="#63b8ff" points="715.23,-76.82 724.43,-71.56 713.96,-69.93 715.23,-76.82"/>
</a>
</g>
</g>
<!-- Node24&#45;&gt;Node17 -->
<g id="edge38_Node000024_Node000017" class="edge">
<title>Node24&#45;&gt;Node17</title>
<g id="a_edge38_Node000024_Node000017"><a xlink:title=" ">
<path fill="none" stroke="#63b8ff" d="M440.02,-114.17C455.18,-112.72 472.34,-111.19 488,-110 760.31,-89.4 832.84,-107.28 1107.44,-74.03"/>
<polygon fill="#63b8ff" stroke="#63b8ff" points="1108.21,-77.46 1117.71,-72.77 1107.36,-70.51 1108.21,-77.46"/>
</a>
</g>
</g>
<!-- Node24&#45;&gt;Node18 -->
<g id="edge41_Node000024_Node000018" class="edge">
<title>Node24&#45;&gt;Node18</title>
<g id="a_edge41_Node000024_Node000018"><a xlink:title=" ">
<path fill="none" stroke="#63b8ff" d="M440.02,-114.1C455.17,-112.65 472.33,-111.13 488,-110 800.2,-87.53 884.41,-120.97 1198.03,-73.77"/>
<polygon fill="#63b8ff" stroke="#63b8ff" points="1198.97,-77.17 1208.33,-72.21 1197.91,-70.25 1198.97,-77.17"/>
</a>
</g>
</g>
<!-- Node24&#45;&gt;Node20 -->
<g id="edge40_Node000024_Node000020" class="edge">
<title>Node24&#45;&gt;Node20</title>
<g id="a_edge40_Node000024_Node000020"><a xlink:title=" ">
<path fill="none" stroke="#63b8ff" d="M428.65,-109.98C463.35,-100.65 519,-85.68 556.02,-75.72"/>
<polygon fill="#63b8ff" stroke="#63b8ff" points="557.19,-79.03 565.94,-73.05 555.37,-72.27 557.19,-79.03"/>
</a>
</g>
</g>
<!-- Node24&#45;&gt;Node22 -->
<g id="edge37_Node000024_Node000022" class="edge">
<title>Node24&#45;&gt;Node22</title>
<g id="a_edge37_Node000024_Node000022"><a xlink:title=" ">
<path fill="none" stroke="#63b8ff" d="M353.66,-111.95C298.27,-103.57 199.14,-88.57 104.12,-74.17"/>
<polygon fill="#63b8ff" stroke="#63b8ff" points="104.47,-70.68 94.05,-72.64 103.42,-77.6 104.47,-70.68"/>
</a>
</g>
</g>
<!-- Node25 -->
<g id="Node000025" class="node">
<title>Node25</title>
<g id="a_Node000025"><a xlink:title=" ">
<polygon fill="#e0e0e0" stroke="#999999" points="392.5,-74 333.5,-74 333.5,-55 392.5,-55 392.5,-74"/>
<text text-anchor="middle" x="363" y="-62" font-family="Helvetica,sans-Serif" font-size="10.00">atomic.h</text>
</a>
</g>
</g>
<!-- Node24&#45;&gt;Node25 -->
<g id="edge39_Node000024_Node000025" class="edge">
<title>Node24&#45;&gt;Node25</title>
<g id="a_edge39_Node000024_Node000025"><a xlink:title=" ">
<path fill="none" stroke="#63b8ff" d="M391.39,-109.75C386.68,-102.42 379.83,-91.73 374.03,-82.7"/>
<polygon fill="#63b8ff" stroke="#63b8ff" points="376.86,-80.62 368.51,-74.09 370.96,-84.4 376.86,-80.62"/>
</a>
</g>
</g>
<!-- Node26 -->
<g id="Node000026" class="node">
<title>Node26</title>
<g id="a_Node000026"><a xlink:title=" ">
<polygon fill="#e0e0e0" stroke="#999999" points="467.5,-74 410.5,-74 410.5,-55 467.5,-55 467.5,-74"/>
<text text-anchor="middle" x="439" y="-62" font-family="Helvetica,sans-Serif" font-size="10.00">timers.h</text>
</a>
</g>
</g>
<!-- Node24&#45;&gt;Node26 -->
<g id="edge42_Node000024_Node000026" class="edge">
<title>Node24&#45;&gt;Node26</title>
<g id="a_edge42_Node000024_Node000026"><a xlink:title=" ">
<path fill="none" stroke="#63b8ff" d="M403.94,-109.75C409.87,-102.26 418.57,-91.28 425.82,-82.13"/>
<polygon fill="#63b8ff" stroke="#63b8ff" points="428.73,-84.1 432.19,-74.09 423.24,-79.75 428.73,-84.1"/>
</a>
</g>
</g>
<!-- Node27 -->
<g id="Node000027" class="node">
<title>Node27</title>
<g id="a_Node000027"><a xlink:title=" ">
<polygon fill="#e0e0e0" stroke="#999999" points="548,-74 486,-74 486,-55 548,-55 548,-74"/>
<text text-anchor="middle" x="517" y="-62" font-family="Helvetica,sans-Serif" font-size="10.00">semphr.h</text>
</a>
</g>
</g>
<!-- Node24&#45;&gt;Node27 -->
<g id="edge43_Node000024_Node000027" class="edge">
<title>Node24&#45;&gt;Node27</title>
<g id="a_edge43_Node000024_Node000027"><a xlink:title=" ">
<path fill="none" stroke="#63b8ff" d="M416.28,-109.98C435.67,-101.42 465.81,-88.11 488.07,-78.28"/>
<polygon fill="#63b8ff" stroke="#63b8ff" points="489.64,-81.41 497.37,-74.17 486.81,-75.01 489.64,-81.41"/>
</a>
</g>
</g>
<!-- Node28 -->
<g id="Node000028" class="node">
<title>Node28</title>
<g id="a_Node000028"><a xlink:title=" ">
<polygon fill="#e0e0e0" stroke="#999999" points="204,-74 112,-74 112,-55 204,-55 204,-74"/>
<text text-anchor="middle" x="158" y="-62" font-family="Helvetica,sans-Serif" font-size="10.00">event_groups.h</text>
</a>
</g>
</g>
<!-- Node24&#45;&gt;Node28 -->
<g id="edge44_Node000024_Node000028" class="edge">
<title>Node24&#45;&gt;Node28</title>
<g id="a_edge44_Node000024_Node000028"><a xlink:title=" ">
<path fill="none" stroke="#63b8ff" d="M358.6,-109.98C317.26,-100.82 251.4,-86.21 206.51,-76.26"/>
<polygon fill="#63b8ff" stroke="#63b8ff" points="207.22,-72.83 196.7,-74.08 205.71,-79.66 207.22,-72.83"/>
</a>
</g>
</g>
<!-- Node29 -->
<g id="Node000029" class="node">
<title>Node29</title>
<g id="a_Node000029"><a xlink:title=" ">
<polygon fill="#e0e0e0" stroke="#999999" points="315.5,-74 222.5,-74 222.5,-55 315.5,-55 315.5,-74"/>
<text text-anchor="middle" x="269" y="-62" font-family="Helvetica,sans-Serif" font-size="10.00">stream_buffer.h</text>
</a>
</g>
</g>
<!-- Node24&#45;&gt;Node29 -->
<g id="edge45_Node000024_Node000029" class="edge">
<title>Node24&#45;&gt;Node29</title>
<g id="a_edge45_Node000024_Node000029"><a xlink:title=" ">
<path fill="none" stroke="#63b8ff" d="M376.43,-109.98C355.57,-101.34 323.03,-87.87 299.23,-78.02"/>
<polygon fill="#63b8ff" stroke="#63b8ff" points="300.52,-74.76 289.94,-74.17 297.84,-81.23 300.52,-74.76"/>
</a>
</g>
</g>
</g>
</svg>
