<?xml version="1.0" encoding="UTF-8" standalone="no"?>
<!DOCTYPE svg PUBLIC "-//W3C//DTD SVG 1.1//EN"
 "http://www.w3.org/Graphics/SVG/1.1/DTD/svg11.dtd">
<!-- Generated by graphviz version 2.43.0 (0)
 -->
<!-- Title: uart_mgmt_thread Pages: 1 -->
<svg width="638pt" height="353pt"
 viewBox="0.00 0.00 638.00 353.00" xmlns="http://www.w3.org/2000/svg" xmlns:xlink="http://www.w3.org/1999/xlink">
<g id="graph0" class="graph" transform="scale(1 1) rotate(0) translate(4 349)">
<title>uart_mgmt_thread</title>
<!-- Node1 -->
<g id="Node000001" class="node">
<title>Node1</title>
<g id="a_Node000001"><a xlink:title=" ">
<polygon fill="#999999" stroke="#666666" points="107,-197 0,-197 0,-178 107,-178 107,-197"/>
<text text-anchor="middle" x="53.5" y="-185" font-family="Helvetica,sans-Serif" font-size="10.00">uart_mgmt_thread</text>
</a>
</g>
</g>
<!-- Node2 -->
<g id="Node000002" class="node">
<title>Node2</title>
<g id="a_Node000002"><a xlink:href="uart__mgmt_8c.html#aa5881408b26352c2632b318a6d8c6915" target="_top" xlink:title=" ">
<polygon fill="white" stroke="#666666" points="249.5,-345 172.5,-345 172.5,-326 249.5,-326 249.5,-345"/>
<text text-anchor="middle" x="211" y="-333" font-family="Helvetica,sans-Serif" font-size="10.00">_uart_err_cb</text>
</a>
</g>
</g>
<!-- Node1&#45;&gt;Node2 -->
<g id="edge1_Node000001_Node000002" class="edge">
<title>Node1&#45;&gt;Node2</title>
<g id="a_edge1_Node000001_Node000002"><a xlink:title=" ">
<path fill="none" stroke="#63b8ff" d="M58.21,-197.06C68.07,-221.22 97.37,-285.08 143,-317.5 148.94,-321.72 155.81,-324.95 162.85,-327.43"/>
<polygon fill="#63b8ff" stroke="#63b8ff" points="161.89,-330.79 172.47,-330.35 163.92,-324.09 161.89,-330.79"/>
</a>
</g>
</g>
<!-- Node3 -->
<g id="Node000003" class="node">
<title>Node3</title>
<g id="a_Node000003"><a xlink:href="uart__mgmt_8c.html#a92576ac01ea62a4da3a4bb9c598d8e7b" target="_top" xlink:title=" ">
<polygon fill="white" stroke="#666666" points="247.5,-308 174.5,-308 174.5,-289 247.5,-289 247.5,-308"/>
<text text-anchor="middle" x="211" y="-296" font-family="Helvetica,sans-Serif" font-size="10.00">_uart_rx_cb</text>
</a>
</g>
</g>
<!-- Node1&#45;&gt;Node3 -->
<g id="edge2_Node000001_Node000003" class="edge">
<title>Node1&#45;&gt;Node3</title>
<g id="a_edge2_Node000001_Node000003"><a xlink:title=" ">
<path fill="none" stroke="#63b8ff" d="M60.82,-197.04C73.85,-215.96 105.64,-258.29 143,-280.5 149.62,-284.44 157.12,-287.53 164.64,-289.96"/>
<polygon fill="#63b8ff" stroke="#63b8ff" points="163.89,-293.38 174.47,-292.77 165.82,-286.65 163.89,-293.38"/>
</a>
</g>
</g>
<!-- Node7 -->
<g id="Node000007" class="node">
<title>Node7</title>
<g id="a_Node000007"><a xlink:href="drv__handle_8h.html#a495e6d69f743d8627525469689a28304" target="_top" xlink:title=" ">
<polygon fill="white" stroke="#666666" points="269,-271 153,-271 153,-252 269,-252 269,-271"/>
<text text-anchor="middle" x="211" y="-259" font-family="Helvetica,sans-Serif" font-size="10.00">drv_uart_get_handle</text>
</a>
</g>
</g>
<!-- Node1&#45;&gt;Node7 -->
<g id="edge6_Node000001_Node000007" class="edge">
<title>Node1&#45;&gt;Node7</title>
<g id="a_edge6_Node000001_Node000007"><a xlink:title=" ">
<path fill="none" stroke="#63b8ff" d="M67.01,-197.14C83.55,-209.49 114.03,-230.79 143,-243.5 147.45,-245.45 152.17,-247.24 156.95,-248.86"/>
<polygon fill="#63b8ff" stroke="#63b8ff" points="156.22,-252.3 166.81,-251.96 158.32,-245.62 156.22,-252.3"/>
</a>
</g>
</g>
<!-- Node8 -->
<g id="Node000008" class="node">
<title>Node8</title>
<g id="a_Node000008"><a xlink:href="drv__handle_8h.html#add994b9515165b84c4e7a8c035f58b71" target="_top" xlink:title=" ">
<polygon fill="white" stroke="#666666" points="261,-234 161,-234 161,-215 261,-215 261,-234"/>
<text text-anchor="middle" x="211" y="-222" font-family="Helvetica,sans-Serif" font-size="10.00">drv_uart_register</text>
</a>
</g>
</g>
<!-- Node1&#45;&gt;Node8 -->
<g id="edge7_Node000001_Node000008" class="edge">
<title>Node1&#45;&gt;Node8</title>
<g id="a_edge7_Node000001_Node000008"><a xlink:title=" ">
<path fill="none" stroke="#63b8ff" d="M94.55,-197.03C114.51,-201.78 138.85,-207.57 160.03,-212.61"/>
<polygon fill="#63b8ff" stroke="#63b8ff" points="159.28,-216.03 169.82,-214.94 160.9,-209.22 159.28,-216.03"/>
</a>
</g>
</g>
<!-- Node9 -->
<g id="Node000009" class="node">
<title>Node9</title>
<g id="a_Node000009"><a xlink:href="hal__uart__stm32_8c.html#aed568a227a5f7162049e5db390ba48ef" target="_top" xlink:title="Return a pointer to the STM32 UART HAL ops table.">
<polygon fill="white" stroke="#666666" points="279,-197 143,-197 143,-178 279,-178 279,-197"/>
<text text-anchor="middle" x="211" y="-185" font-family="Helvetica,sans-Serif" font-size="10.00">hal_uart_stm32_get_ops</text>
</a>
</g>
</g>
<!-- Node1&#45;&gt;Node9 -->
<g id="edge8_Node000001_Node000009" class="edge">
<title>Node1&#45;&gt;Node9</title>
<g id="a_edge8_Node000001_Node000009"><a xlink:title=" ">
<path fill="none" stroke="#63b8ff" d="M107.15,-187.5C115.38,-187.5 124.03,-187.5 132.68,-187.5"/>
<polygon fill="#63b8ff" stroke="#63b8ff" points="132.8,-191 142.8,-187.5 132.8,-184 132.8,-191"/>
</a>
</g>
</g>
<!-- Node10 -->
<g id="Node000010" class="node">
<title>Node10</title>
<g id="a_Node000010"><a xlink:href="hal__uart__stm32_8c.html#a829bbb9cf490043dd73c590943e80d4d" target="_top" xlink:title="Configure the STM32 peripheral parameters directly in the hw context before calling drv_uart_register...">
<polygon fill="white" stroke="#666666" points="267.5,-159.5 154.5,-159.5 154.5,-129.5 267.5,-129.5 267.5,-159.5"/>
<text text-anchor="start" x="162.5" y="-147.5" font-family="Helvetica,sans-Serif" font-size="10.00">hal_uart_stm32_set</text>
<text text-anchor="middle" x="211" y="-136.5" font-family="Helvetica,sans-Serif" font-size="10.00">_config</text>
</a>
</g>
</g>
<!-- Node1&#45;&gt;Node10 -->
<g id="edge9_Node000001_Node000010" class="edge">
<title>Node1&#45;&gt;Node10</title>
<g id="a_edge9_Node000001_Node000010"><a xlink:title=" ">
<path fill="none" stroke="#63b8ff" d="M89.01,-177.96C105.77,-173.32 126.47,-167.6 145.97,-162.21"/>
<polygon fill="#63b8ff" stroke="#63b8ff" points="147.03,-165.55 155.73,-159.51 145.16,-158.8 147.03,-165.55"/>
</a>
</g>
</g>
<!-- Node11 -->
<g id="Node000011" class="node">
<title>Node11</title>
<g id="a_Node000011"><a xlink:href="mqueue_8c.html#ae54fde83faac5a815d0afa0be0ceb447" target="_top" xlink:title=" ">
<polygon fill="white" stroke="#666666" points="278.5,-111 143.5,-111 143.5,-92 278.5,-92 278.5,-111"/>
<text text-anchor="middle" x="211" y="-99" font-family="Helvetica,sans-Serif" font-size="10.00">ipc_mqueue_get_handle</text>
</a>
</g>
</g>
<!-- Node1&#45;&gt;Node11 -->
<g id="edge10_Node000001_Node000011" class="edge">
<title>Node1&#45;&gt;Node11</title>
<g id="a_edge10_Node000001_Node000011"><a xlink:title=" ">
<path fill="none" stroke="#63b8ff" d="M64.54,-177.86C80.12,-163.41 111.61,-136.14 143,-120.5 147.62,-118.2 152.55,-116.14 157.58,-114.3"/>
<polygon fill="#63b8ff" stroke="#63b8ff" points="158.92,-117.54 167.29,-111.04 156.69,-110.91 158.92,-117.54"/>
</a>
</g>
</g>
<!-- Node12 -->
<g id="Node000012" class="node">
<title>Node12</title>
<g id="a_Node000012"><a xlink:href="irq__notify_8c.html#a88ce0c4278f16ca232b715dff43ec969" target="_top" xlink:title="Register a callback for a generic IRQ ID. Call from task context before interrupts fire....">
<polygon fill="white" stroke="#666666" points="247,-74 175,-74 175,-55 247,-55 247,-74"/>
<text text-anchor="middle" x="211" y="-62" font-family="Helvetica,sans-Serif" font-size="10.00">irq_register</text>
</a>
</g>
</g>
<!-- Node1&#45;&gt;Node12 -->
<g id="edge11_Node000001_Node000012" class="edge">
<title>Node1&#45;&gt;Node12</title>
<g id="a_edge11_Node000001_Node000012"><a xlink:title=" ">
<path fill="none" stroke="#63b8ff" d="M59.99,-177.81C72.16,-157.21 103.51,-108.87 143,-83.5 149.72,-79.18 157.44,-75.83 165.19,-73.22"/>
<polygon fill="#63b8ff" stroke="#63b8ff" points="166.37,-76.53 174.95,-70.32 164.37,-69.82 166.37,-76.53"/>
</a>
</g>
</g>
<!-- Node21 -->
<g id="Node000021" class="node">
<title>Node21</title>
<g id="a_Node000021"><a xlink:href="group__Thread.html#gaf16424e47477714927313ecec2821eec" target="_top" xlink:title=" ">
<polygon fill="white" stroke="#666666" points="259.5,-37 162.5,-37 162.5,-18 259.5,-18 259.5,-37"/>
<text text-anchor="middle" x="211" y="-25" font-family="Helvetica,sans-Serif" font-size="10.00">os_thread_delay</text>
</a>
</g>
</g>
<!-- Node1&#45;&gt;Node21 -->
<g id="edge20_Node000001_Node000021" class="edge">
<title>Node1&#45;&gt;Node21</title>
<g id="a_edge20_Node000001_Node000021"><a xlink:title=" ">
<path fill="none" stroke="#63b8ff" d="M57.72,-177.92C66.81,-152.43 95.13,-82.39 143,-46.5 146.03,-44.23 149.33,-42.23 152.77,-40.46"/>
<polygon fill="#63b8ff" stroke="#63b8ff" points="154.43,-43.56 162.18,-36.34 151.61,-37.15 154.43,-43.56"/>
</a>
</g>
</g>
<!-- Node4 -->
<g id="Node000004" class="node">
<title>Node4</title>
<g id="a_Node000004"><a xlink:href="ringbuffer_8c.html#ab0175d641c6489e01eb1f11eb161307a" target="_top" xlink:title=" ">
<polygon fill="white" stroke="#666666" points="422,-308 316,-308 316,-289 422,-289 422,-308"/>
<text text-anchor="middle" x="369" y="-296" font-family="Helvetica,sans-Serif" font-size="10.00">ringbuffer_putchar</text>
</a>
</g>
</g>
<!-- Node3&#45;&gt;Node4 -->
<g id="edge3_Node000003_Node000004" class="edge">
<title>Node3&#45;&gt;Node4</title>
<g id="a_edge3_Node000003_Node000004"><a xlink:title=" ">
<path fill="none" stroke="#63b8ff" d="M247.79,-298.5C264.95,-298.5 286.01,-298.5 305.68,-298.5"/>
<polygon fill="#63b8ff" stroke="#63b8ff" points="305.81,-302 315.81,-298.5 305.81,-295 305.81,-302"/>
</a>
</g>
</g>
<!-- Node5 -->
<g id="Node000005" class="node">
<title>Node5</title>
<g id="a_Node000005"><a xlink:href="ringbuffer_8c.html#abc6b533f80fb18ade4151b188f827c23" target="_top" xlink:title=" ">
<polygon fill="white" stroke="#666666" points="531,-308 467,-308 467,-289 531,-289 531,-308"/>
<text text-anchor="middle" x="499" y="-296" font-family="Helvetica,sans-Serif" font-size="10.00">_data_len</text>
</a>
</g>
</g>
<!-- Node4&#45;&gt;Node5 -->
<g id="edge4_Node000004_Node000005" class="edge">
<title>Node4&#45;&gt;Node5</title>
<g id="a_edge4_Node000004_Node000005"><a xlink:title=" ">
<path fill="none" stroke="#63b8ff" d="M422.06,-298.5C433.6,-298.5 445.68,-298.5 456.72,-298.5"/>
<polygon fill="#63b8ff" stroke="#63b8ff" points="456.93,-302 466.93,-298.5 456.93,-295 456.93,-302"/>
</a>
</g>
</g>
<!-- Node6 -->
<g id="Node000006" class="node">
<title>Node6</title>
<g id="a_Node000006"><a xlink:href="ringbuffer_8c.html#a0d9be0bc18b041c2946fd11f840206e9" target="_top" xlink:title=" ">
<polygon fill="white" stroke="#666666" points="628.5,-308 576.5,-308 576.5,-289 628.5,-289 628.5,-308"/>
<text text-anchor="middle" x="602.5" y="-296" font-family="Helvetica,sans-Serif" font-size="10.00">_status</text>
</a>
</g>
</g>
<!-- Node5&#45;&gt;Node6 -->
<g id="edge5_Node000005_Node000006" class="edge">
<title>Node5&#45;&gt;Node6</title>
<g id="a_edge5_Node000005_Node000006"><a xlink:title=" ">
<path fill="none" stroke="#63b8ff" d="M531,-298.5C542.16,-298.5 554.83,-298.5 566.32,-298.5"/>
<polygon fill="#63b8ff" stroke="#63b8ff" points="566.46,-302 576.46,-298.5 566.46,-295 566.46,-302"/>
</a>
</g>
</g>
<!-- Node13 -->
<g id="Node000013" class="node">
<title>Node13</title>
<g id="a_Node000013"><a xlink:href="irq__notify_8c.html#a854bc11942113795c21bf83e08b564ae" target="_top" xlink:title=" ">
<polygon fill="white" stroke="#666666" points="421,-111 317,-111 317,-92 421,-92 421,-111"/>
<text text-anchor="middle" x="369" y="-99" font-family="Helvetica,sans-Serif" font-size="10.00">_alloc_trampoline</text>
</a>
</g>
</g>
<!-- Node12&#45;&gt;Node13 -->
<g id="edge12_Node000012_Node000013" class="edge">
<title>Node12&#45;&gt;Node13</title>
<g id="a_edge12_Node000012_Node000013"><a xlink:title=" ">
<path fill="none" stroke="#63b8ff" d="M247.01,-72.8C267.9,-77.76 294.78,-84.13 317.9,-89.62"/>
<polygon fill="#63b8ff" stroke="#63b8ff" points="317.34,-93.08 327.88,-91.98 318.96,-86.27 317.34,-93.08"/>
</a>
</g>
</g>
<!-- Node14 -->
<g id="Node000014" class="node">
<title>Node14</title>
<g id="a_Node000014"><a xlink:href="irq__notify_8c.html#a7faff0a2928451eb3d1965fb159ea580" target="_top" xlink:title=" ">
<polygon fill="white" stroke="#666666" points="423,-74 315,-74 315,-55 423,-55 423,-74"/>
<text text-anchor="middle" x="369" y="-62" font-family="Helvetica,sans-Serif" font-size="10.00">_notify_trampoline</text>
</a>
</g>
</g>
<!-- Node12&#45;&gt;Node14 -->
<g id="edge13_Node000012_Node000014" class="edge">
<title>Node12&#45;&gt;Node14</title>
<g id="a_edge13_Node000012_Node000014"><a xlink:title=" ">
<path fill="none" stroke="#63b8ff" d="M247.01,-64.5C263.99,-64.5 284.93,-64.5 304.58,-64.5"/>
<polygon fill="#63b8ff" stroke="#63b8ff" points="304.72,-68 314.72,-64.5 304.72,-61 304.72,-68"/>
</a>
</g>
</g>
<!-- Node15 -->
<g id="Node000015" class="node">
<title>Node15</title>
<g id="a_Node000015"><a xlink:href="irq__desc_8c.html#ab32b689bb2b7d1960aa47f19d9d65e90" target="_top" xlink:title=" ">
<polygon fill="white" stroke="#666666" points="404.5,-37 333.5,-37 333.5,-18 404.5,-18 404.5,-37"/>
<text text-anchor="middle" x="369" y="-25" font-family="Helvetica,sans-Serif" font-size="10.00">request_irq</text>
</a>
</g>
</g>
<!-- Node12&#45;&gt;Node15 -->
<g id="edge14_Node000012_Node000015" class="edge">
<title>Node12&#45;&gt;Node15</title>
<g id="a_edge14_Node000012_Node000015"><a xlink:title=" ">
<path fill="none" stroke="#63b8ff" d="M247.01,-56.2C269.57,-50.85 299.1,-43.84 323.35,-38.09"/>
<polygon fill="#63b8ff" stroke="#63b8ff" points="324.45,-41.43 333.38,-35.71 322.84,-34.61 324.45,-41.43"/>
</a>
</g>
</g>
<!-- Node16 -->
<g id="Node000016" class="node">
<title>Node16</title>
<g id="a_Node000016"><a xlink:href="irq__desc_8c.html#a0041385040c05835d54aca9c83340f87" target="_top" xlink:title=" ">
<polygon fill="white" stroke="#666666" points="539,-56 459,-56 459,-37 539,-37 539,-56"/>
<text text-anchor="middle" x="499" y="-44" font-family="Helvetica,sans-Serif" font-size="10.00">_alloc_action</text>
</a>
</g>
</g>
<!-- Node15&#45;&gt;Node16 -->
<g id="edge15_Node000015_Node000016" class="edge">
<title>Node15&#45;&gt;Node16</title>
<g id="a_edge15_Node000015_Node000016"><a xlink:title=" ">
<path fill="none" stroke="#63b8ff" d="M404.64,-32.64C418.23,-34.66 434.09,-37.01 448.83,-39.2"/>
<polygon fill="#63b8ff" stroke="#63b8ff" points="448.41,-42.68 458.81,-40.68 449.44,-35.75 448.41,-42.68"/>
</a>
</g>
</g>
<!-- Node19 -->
<g id="Node000019" class="node">
<title>Node19</title>
<g id="a_Node000019"><a xlink:href="group__list__api.html#gafb58231c241f9acee99a56aaa1b98cec" target="_top" xlink:title="Add a new node at the tail of the list.">
<polygon fill="white" stroke="#666666" points="537,-19 461,-19 461,0 537,0 537,-19"/>
<text text-anchor="middle" x="499" y="-7" font-family="Helvetica,sans-Serif" font-size="10.00">list_add_tail</text>
</a>
</g>
</g>
<!-- Node15&#45;&gt;Node19 -->
<g id="edge18_Node000015_Node000019" class="edge">
<title>Node15&#45;&gt;Node19</title>
<g id="a_edge18_Node000015_Node000019"><a xlink:title=" ">
<path fill="none" stroke="#63b8ff" d="M404.64,-22.63C418.72,-20.65 435.21,-18.33 450.39,-16.2"/>
<polygon fill="#63b8ff" stroke="#63b8ff" points="451.22,-19.61 460.64,-14.75 450.25,-12.68 451.22,-19.61"/>
</a>
</g>
</g>
<!-- Node17 -->
<g id="Node000017" class="node">
<title>Node17</title>
<g id="a_Node000017"><a xlink:href="os_2kernel__mem_8h.html#a2b55f9d76c0a87c16c336ec837a80101" target="_top" xlink:title=" ">
<polygon fill="white" stroke="#666666" points="629,-93 576,-93 576,-74 629,-74 629,-93"/>
<text text-anchor="middle" x="602.5" y="-81" font-family="Helvetica,sans-Serif" font-size="10.00">kmaloc</text>
</a>
</g>
</g>
<!-- Node16&#45;&gt;Node17 -->
<g id="edge16_Node000016_Node000017" class="edge">
<title>Node16&#45;&gt;Node17</title>
<g id="a_edge16_Node000016_Node000017"><a xlink:title=" ">
<path fill="none" stroke="#63b8ff" d="M526.14,-56.03C538.31,-60.46 552.97,-65.81 566.11,-70.6"/>
<polygon fill="#63b8ff" stroke="#63b8ff" points="565.21,-74 575.8,-74.13 567.6,-67.42 565.21,-74"/>
</a>
</g>
</g>
<!-- Node18 -->
<g id="Node000018" class="node">
<title>Node18</title>
<g id="a_Node000018"><a xlink:href="group__list__api.html#ga9e661d1dcd51bd4eb3951488574058b0" target="_top" xlink:title="Initialize a list node [ Doubly circular].">
<polygon fill="white" stroke="#666666" points="629,-56 576,-56 576,-37 629,-37 629,-56"/>
<text text-anchor="middle" x="602.5" y="-44" font-family="Helvetica,sans-Serif" font-size="10.00">list_init</text>
</a>
</g>
</g>
<!-- Node16&#45;&gt;Node18 -->
<g id="edge17_Node000016_Node000018" class="edge">
<title>Node16&#45;&gt;Node18</title>
<g id="a_edge17_Node000016_Node000018"><a xlink:title=" ">
<path fill="none" stroke="#63b8ff" d="M539.24,-46.5C547.97,-46.5 557.17,-46.5 565.75,-46.5"/>
<polygon fill="#63b8ff" stroke="#63b8ff" points="565.82,-50 575.82,-46.5 565.82,-43 565.82,-50"/>
</a>
</g>
</g>
<!-- Node20 -->
<g id="Node000020" class="node">
<title>Node20</title>
<g id="a_Node000020"><a xlink:href="group__list__api.html#gab1766e25461b90b75aa3360245547452" target="_top" xlink:title="add a node in between two nodes.">
<polygon fill="white" stroke="#666666" points="630,-19 575,-19 575,0 630,0 630,-19"/>
<text text-anchor="middle" x="602.5" y="-7" font-family="Helvetica,sans-Serif" font-size="10.00">list_add</text>
</a>
</g>
</g>
<!-- Node19&#45;&gt;Node20 -->
<g id="edge19_Node000019_Node000020" class="edge">
<title>Node19&#45;&gt;Node20</title>
<g id="a_edge19_Node000019_Node000020"><a xlink:title=" ">
<path fill="none" stroke="#63b8ff" d="M537.22,-9.5C546.16,-9.5 555.72,-9.5 564.65,-9.5"/>
<polygon fill="#63b8ff" stroke="#63b8ff" points="564.77,-13 574.77,-9.5 564.77,-6 564.77,-13"/>
</a>
</g>
</g>
</g>
</svg>
