<?xml version="1.0" encoding="UTF-8" standalone="no"?>
<!DOCTYPE svg PUBLIC "-//W3C//DTD SVG 1.1//EN"
 "http://www.w3.org/Graphics/SVG/1.1/DTD/svg11.dtd">
<!-- Generated by graphviz version 2.43.0 (0)
 -->
<!-- Title: uart_mgmt_start Pages: 1 -->
<svg width="681pt" height="353pt"
 viewBox="0.00 0.00 681.00 353.00" xmlns="http://www.w3.org/2000/svg" xmlns:xlink="http://www.w3.org/1999/xlink">
<g id="graph0" class="graph" transform="scale(1 1) rotate(0) translate(4 349)">
<title>uart_mgmt_start</title>
<!-- Node1 -->
<g id="Node000001" class="node">
<title>Node1</title>
<g id="a_Node000001"><a xlink:title="Create and start the UART management thread.">
<polygon fill="#999999" stroke="#666666" points="98,-215 0,-215 0,-196 98,-196 98,-215"/>
<text text-anchor="middle" x="49" y="-203" font-family="Helvetica,sans-Serif" font-size="10.00">uart_mgmt_start</text>
</a>
</g>
</g>
<!-- Node2 -->
<g id="Node000002" class="node">
<title>Node2</title>
<g id="a_Node000002"><a xlink:href="group__Thread.html#ga21ff81ef0bcb5564ba8ee6c5a0da2acc" target="_top" xlink:title=" ">
<polygon fill="white" stroke="#666666" points="238,-234 137,-234 137,-215 238,-215 238,-234"/>
<text text-anchor="middle" x="187.5" y="-222" font-family="Helvetica,sans-Serif" font-size="10.00">os_thread_create</text>
</a>
</g>
</g>
<!-- Node1&#45;&gt;Node2 -->
<g id="edge1_Node000001_Node000002" class="edge">
<title>Node1&#45;&gt;Node2</title>
<g id="a_edge1_Node000001_Node000002"><a xlink:title=" ">
<path fill="none" stroke="#63b8ff" d="M98.12,-212.2C107.47,-213.5 117.36,-214.88 127.02,-216.22"/>
<polygon fill="#63b8ff" stroke="#63b8ff" points="126.58,-219.69 136.96,-217.6 127.54,-212.76 126.58,-219.69"/>
</a>
</g>
</g>
<!-- Node3 -->
<g id="Node000003" class="node">
<title>Node3</title>
<g id="a_Node000003"><a xlink:href="uart__mgmt_8c.html#af8eff33b840c2e11d5bd889fd97c705a" target="_top" xlink:title=" ">
<polygon fill="white" stroke="#666666" points="241,-197 134,-197 134,-178 241,-178 241,-197"/>
<text text-anchor="middle" x="187.5" y="-185" font-family="Helvetica,sans-Serif" font-size="10.00">uart_mgmt_thread</text>
</a>
</g>
</g>
<!-- Node1&#45;&gt;Node3 -->
<g id="edge2_Node000001_Node000003" class="edge">
<title>Node1&#45;&gt;Node3</title>
<g id="a_edge2_Node000001_Node000003"><a xlink:title=" ">
<path fill="none" stroke="#63b8ff" d="M98.12,-199.15C106.4,-198.06 115.11,-196.91 123.7,-195.78"/>
<polygon fill="#63b8ff" stroke="#63b8ff" points="124.25,-199.24 133.7,-194.46 123.33,-192.3 124.25,-199.24"/>
</a>
</g>
</g>
<!-- Node4 -->
<g id="Node000004" class="node">
<title>Node4</title>
<g id="a_Node000004"><a xlink:href="uart__mgmt_8c.html#aa5881408b26352c2632b318a6d8c6915" target="_top" xlink:title=" ">
<polygon fill="white" stroke="#666666" points="383.5,-345 306.5,-345 306.5,-326 383.5,-326 383.5,-345"/>
<text text-anchor="middle" x="345" y="-333" font-family="Helvetica,sans-Serif" font-size="10.00">_uart_err_cb</text>
</a>
</g>
</g>
<!-- Node3&#45;&gt;Node4 -->
<g id="edge3_Node000003_Node000004" class="edge">
<title>Node3&#45;&gt;Node4</title>
<g id="a_edge3_Node000003_Node000004"><a xlink:title=" ">
<path fill="none" stroke="#63b8ff" d="M227.65,-197.02C232.59,-199.49 237.23,-202.6 241,-206.5 277.05,-243.78 239.4,-281.78 277,-317.5 282.46,-322.69 289.26,-326.42 296.41,-329.09"/>
<polygon fill="#63b8ff" stroke="#63b8ff" points="295.7,-332.53 306.28,-332.11 297.75,-325.84 295.7,-332.53"/>
</a>
</g>
</g>
<!-- Node5 -->
<g id="Node000005" class="node">
<title>Node5</title>
<g id="a_Node000005"><a xlink:href="uart__mgmt_8c.html#a92576ac01ea62a4da3a4bb9c598d8e7b" target="_top" xlink:title=" ">
<polygon fill="white" stroke="#666666" points="381.5,-308 308.5,-308 308.5,-289 381.5,-289 381.5,-308"/>
<text text-anchor="middle" x="345" y="-296" font-family="Helvetica,sans-Serif" font-size="10.00">_uart_rx_cb</text>
</a>
</g>
</g>
<!-- Node3&#45;&gt;Node5 -->
<g id="edge4_Node000003_Node000005" class="edge">
<title>Node3&#45;&gt;Node5</title>
<g id="a_edge4_Node000003_Node000005"><a xlink:title=" ">
<path fill="none" stroke="#63b8ff" d="M226.1,-197.02C231.5,-199.5 236.68,-202.61 241,-206.5 268.19,-230.96 248.8,-257.21 277,-280.5 283.2,-285.62 290.73,-289.3 298.47,-291.93"/>
<polygon fill="#63b8ff" stroke="#63b8ff" points="297.72,-295.36 308.3,-294.74 299.65,-288.63 297.72,-295.36"/>
</a>
</g>
</g>
<!-- Node9 -->
<g id="Node000009" class="node">
<title>Node9</title>
<g id="a_Node000009"><a xlink:href="drv__handle_8h.html#a495e6d69f743d8627525469689a28304" target="_top" xlink:title=" ">
<polygon fill="white" stroke="#666666" points="403,-271 287,-271 287,-252 403,-252 403,-271"/>
<text text-anchor="middle" x="345" y="-259" font-family="Helvetica,sans-Serif" font-size="10.00">drv_uart_get_handle</text>
</a>
</g>
</g>
<!-- Node3&#45;&gt;Node9 -->
<g id="edge7_Node000003_Node000009" class="edge">
<title>Node3&#45;&gt;Node9</title>
<g id="a_edge7_Node000003_Node000009"><a xlink:title=" ">
<path fill="none" stroke="#63b8ff" d="M222.07,-197.08C228.6,-199.64 235.22,-202.77 241,-206.5 260.28,-218.94 257.21,-231.89 277,-243.5 280,-245.26 283.17,-246.85 286.45,-248.29"/>
<polygon fill="#63b8ff" stroke="#63b8ff" points="285.28,-251.59 295.87,-251.96 287.82,-245.07 285.28,-251.59"/>
</a>
</g>
</g>
<!-- Node10 -->
<g id="Node000010" class="node">
<title>Node10</title>
<g id="a_Node000010"><a xlink:href="drv__handle_8h.html#add994b9515165b84c4e7a8c035f58b71" target="_top" xlink:title=" ">
<polygon fill="white" stroke="#666666" points="395,-234 295,-234 295,-215 395,-215 395,-234"/>
<text text-anchor="middle" x="345" y="-222" font-family="Helvetica,sans-Serif" font-size="10.00">drv_uart_register</text>
</a>
</g>
</g>
<!-- Node3&#45;&gt;Node10 -->
<g id="edge8_Node000003_Node000010" class="edge">
<title>Node3&#45;&gt;Node10</title>
<g id="a_edge8_Node000003_Node000010"><a xlink:title=" ">
<path fill="none" stroke="#63b8ff" d="M228.55,-197.03C248.51,-201.78 272.85,-207.57 294.03,-212.61"/>
<polygon fill="#63b8ff" stroke="#63b8ff" points="293.28,-216.03 303.82,-214.94 294.9,-209.22 293.28,-216.03"/>
</a>
</g>
</g>
<!-- Node11 -->
<g id="Node000011" class="node">
<title>Node11</title>
<g id="a_Node000011"><a xlink:href="hal__uart__stm32_8c.html#aed568a227a5f7162049e5db390ba48ef" target="_top" xlink:title="Return a pointer to the STM32 UART HAL ops table.">
<polygon fill="white" stroke="#666666" points="413,-197 277,-197 277,-178 413,-178 413,-197"/>
<text text-anchor="middle" x="345" y="-185" font-family="Helvetica,sans-Serif" font-size="10.00">hal_uart_stm32_get_ops</text>
</a>
</g>
</g>
<!-- Node3&#45;&gt;Node11 -->
<g id="edge9_Node000003_Node000011" class="edge">
<title>Node3&#45;&gt;Node11</title>
<g id="a_edge9_Node000003_Node000011"><a xlink:title=" ">
<path fill="none" stroke="#63b8ff" d="M241.15,-187.5C249.38,-187.5 258.03,-187.5 266.68,-187.5"/>
<polygon fill="#63b8ff" stroke="#63b8ff" points="266.8,-191 276.8,-187.5 266.8,-184 266.8,-191"/>
</a>
</g>
</g>
<!-- Node12 -->
<g id="Node000012" class="node">
<title>Node12</title>
<g id="a_Node000012"><a xlink:href="hal__uart__stm32_8c.html#a829bbb9cf490043dd73c590943e80d4d" target="_top" xlink:title="Configure the STM32 peripheral parameters directly in the hw context before calling drv_uart_register...">
<polygon fill="white" stroke="#666666" points="401.5,-159.5 288.5,-159.5 288.5,-129.5 401.5,-129.5 401.5,-159.5"/>
<text text-anchor="start" x="296.5" y="-147.5" font-family="Helvetica,sans-Serif" font-size="10.00">hal_uart_stm32_set</text>
<text text-anchor="middle" x="345" y="-136.5" font-family="Helvetica,sans-Serif" font-size="10.00">_config</text>
</a>
</g>
</g>
<!-- Node3&#45;&gt;Node12 -->
<g id="edge10_Node000003_Node000012" class="edge">
<title>Node3&#45;&gt;Node12</title>
<g id="a_edge10_Node000003_Node000012"><a xlink:title=" ">
<path fill="none" stroke="#63b8ff" d="M223.01,-177.96C239.77,-173.32 260.47,-167.6 279.97,-162.21"/>
<polygon fill="#63b8ff" stroke="#63b8ff" points="281.03,-165.55 289.73,-159.51 279.16,-158.8 281.03,-165.55"/>
</a>
</g>
</g>
<!-- Node13 -->
<g id="Node000013" class="node">
<title>Node13</title>
<g id="a_Node000013"><a xlink:href="mqueue_8c.html#ae54fde83faac5a815d0afa0be0ceb447" target="_top" xlink:title=" ">
<polygon fill="white" stroke="#666666" points="412.5,-111 277.5,-111 277.5,-92 412.5,-92 412.5,-111"/>
<text text-anchor="middle" x="345" y="-99" font-family="Helvetica,sans-Serif" font-size="10.00">ipc_mqueue_get_handle</text>
</a>
</g>
</g>
<!-- Node3&#45;&gt;Node13 -->
<g id="edge11_Node000003_Node000013" class="edge">
<title>Node3&#45;&gt;Node13</title>
<g id="a_edge11_Node000003_Node000013"><a xlink:title=" ">
<path fill="none" stroke="#63b8ff" d="M198.54,-177.86C214.12,-163.41 245.61,-136.14 277,-120.5 281.62,-118.2 286.55,-116.14 291.58,-114.3"/>
<polygon fill="#63b8ff" stroke="#63b8ff" points="292.92,-117.54 301.29,-111.04 290.69,-110.91 292.92,-117.54"/>
</a>
</g>
</g>
<!-- Node14 -->
<g id="Node000014" class="node">
<title>Node14</title>
<g id="a_Node000014"><a xlink:href="irq__notify_8c.html#a88ce0c4278f16ca232b715dff43ec969" target="_top" xlink:title="Register a callback for a generic IRQ ID. Call from task context before interrupts fire....">
<polygon fill="white" stroke="#666666" points="381,-74 309,-74 309,-55 381,-55 381,-74"/>
<text text-anchor="middle" x="345" y="-62" font-family="Helvetica,sans-Serif" font-size="10.00">irq_register</text>
</a>
</g>
</g>
<!-- Node3&#45;&gt;Node14 -->
<g id="edge12_Node000003_Node000014" class="edge">
<title>Node3&#45;&gt;Node14</title>
<g id="a_edge12_Node000003_Node000014"><a xlink:title=" ">
<path fill="none" stroke="#63b8ff" d="M193.99,-177.81C206.16,-157.21 237.51,-108.87 277,-83.5 283.72,-79.18 291.44,-75.83 299.19,-73.22"/>
<polygon fill="#63b8ff" stroke="#63b8ff" points="300.37,-76.53 308.95,-70.32 298.37,-69.82 300.37,-76.53"/>
</a>
</g>
</g>
<!-- Node23 -->
<g id="Node000023" class="node">
<title>Node23</title>
<g id="a_Node000023"><a xlink:href="group__Thread.html#gaf16424e47477714927313ecec2821eec" target="_top" xlink:title=" ">
<polygon fill="white" stroke="#666666" points="393.5,-37 296.5,-37 296.5,-18 393.5,-18 393.5,-37"/>
<text text-anchor="middle" x="345" y="-25" font-family="Helvetica,sans-Serif" font-size="10.00">os_thread_delay</text>
</a>
</g>
</g>
<!-- Node3&#45;&gt;Node23 -->
<g id="edge18_Node000003_Node000023" class="edge">
<title>Node3&#45;&gt;Node23</title>
<g id="a_edge18_Node000003_Node000023"><a xlink:title=" ">
<path fill="none" stroke="#63b8ff" d="M191.72,-177.92C200.81,-152.43 229.13,-82.39 277,-46.5 280.03,-44.23 283.33,-42.23 286.77,-40.46"/>
<polygon fill="#63b8ff" stroke="#63b8ff" points="288.43,-43.56 296.18,-36.34 285.61,-37.15 288.43,-43.56"/>
</a>
</g>
</g>
<!-- Node6 -->
<g id="Node000006" class="node">
<title>Node6</title>
<g id="a_Node000006"><a xlink:href="ringbuffer_8c.html#ab0175d641c6489e01eb1f11eb161307a" target="_top" xlink:title=" ">
<polygon fill="white" stroke="#666666" points="556,-308 450,-308 450,-289 556,-289 556,-308"/>
<text text-anchor="middle" x="503" y="-296" font-family="Helvetica,sans-Serif" font-size="10.00">ringbuffer_putchar</text>
</a>
</g>
</g>
<!-- Node5&#45;&gt;Node6 -->
<g id="edge5_Node000005_Node000006" class="edge">
<title>Node5&#45;&gt;Node6</title>
<g id="a_edge5_Node000005_Node000006"><a xlink:title=" ">
<path fill="none" stroke="#63b8ff" d="M381.79,-298.5C398.95,-298.5 420.01,-298.5 439.68,-298.5"/>
<polygon fill="#63b8ff" stroke="#63b8ff" points="439.81,-302 449.81,-298.5 439.81,-295 439.81,-302"/>
</a>
</g>
</g>
<!-- Node7 -->
<g id="Node000007" class="node">
<title>Node7</title>
<g id="a_Node000007"><a xlink:href="ringbuffer_8c.html#abc6b533f80fb18ade4151b188f827c23" target="_top" xlink:title=" ">
<polygon fill="#fff0f0" stroke="red" points="665,-308 601,-308 601,-289 665,-289 665,-308"/>
<text text-anchor="middle" x="633" y="-296" font-family="Helvetica,sans-Serif" font-size="10.00">_data_len</text>
</a>
</g>
</g>
<!-- Node6&#45;&gt;Node7 -->
<g id="edge6_Node000006_Node000007" class="edge">
<title>Node6&#45;&gt;Node7</title>
<g id="a_edge6_Node000006_Node000007"><a xlink:title=" ">
<path fill="none" stroke="#63b8ff" d="M556.06,-298.5C567.6,-298.5 579.68,-298.5 590.72,-298.5"/>
<polygon fill="#63b8ff" stroke="#63b8ff" points="590.93,-302 600.93,-298.5 590.93,-295 590.93,-302"/>
</a>
</g>
</g>
<!-- Node15 -->
<g id="Node000015" class="node">
<title>Node15</title>
<g id="a_Node000015"><a xlink:href="irq__notify_8c.html#a854bc11942113795c21bf83e08b564ae" target="_top" xlink:title=" ">
<polygon fill="white" stroke="#666666" points="555,-111 451,-111 451,-92 555,-92 555,-111"/>
<text text-anchor="middle" x="503" y="-99" font-family="Helvetica,sans-Serif" font-size="10.00">_alloc_trampoline</text>
</a>
</g>
</g>
<!-- Node14&#45;&gt;Node15 -->
<g id="edge13_Node000014_Node000015" class="edge">
<title>Node14&#45;&gt;Node15</title>
<g id="a_edge13_Node000014_Node000015"><a xlink:title=" ">
<path fill="none" stroke="#63b8ff" d="M381.01,-72.8C401.9,-77.76 428.78,-84.13 451.9,-89.62"/>
<polygon fill="#63b8ff" stroke="#63b8ff" points="451.34,-93.08 461.88,-91.98 452.96,-86.27 451.34,-93.08"/>
</a>
</g>
</g>
<!-- Node16 -->
<g id="Node000016" class="node">
<title>Node16</title>
<g id="a_Node000016"><a xlink:href="irq__notify_8c.html#a7faff0a2928451eb3d1965fb159ea580" target="_top" xlink:title=" ">
<polygon fill="white" stroke="#666666" points="557,-74 449,-74 449,-55 557,-55 557,-74"/>
<text text-anchor="middle" x="503" y="-62" font-family="Helvetica,sans-Serif" font-size="10.00">_notify_trampoline</text>
</a>
</g>
</g>
<!-- Node14&#45;&gt;Node16 -->
<g id="edge14_Node000014_Node000016" class="edge">
<title>Node14&#45;&gt;Node16</title>
<g id="a_edge14_Node000014_Node000016"><a xlink:title=" ">
<path fill="none" stroke="#63b8ff" d="M381.01,-64.5C397.99,-64.5 418.93,-64.5 438.58,-64.5"/>
<polygon fill="#63b8ff" stroke="#63b8ff" points="438.72,-68 448.72,-64.5 438.72,-61 438.72,-68"/>
</a>
</g>
</g>
<!-- Node17 -->
<g id="Node000017" class="node">
<title>Node17</title>
<g id="a_Node000017"><a xlink:href="irq__desc_8c.html#ab32b689bb2b7d1960aa47f19d9d65e90" target="_top" xlink:title=" ">
<polygon fill="white" stroke="#666666" points="538.5,-37 467.5,-37 467.5,-18 538.5,-18 538.5,-37"/>
<text text-anchor="middle" x="503" y="-25" font-family="Helvetica,sans-Serif" font-size="10.00">request_irq</text>
</a>
</g>
</g>
<!-- Node14&#45;&gt;Node17 -->
<g id="edge15_Node000014_Node000017" class="edge">
<title>Node14&#45;&gt;Node17</title>
<g id="a_edge15_Node000014_Node000017"><a xlink:title=" ">
<path fill="none" stroke="#63b8ff" d="M381.01,-56.2C403.57,-50.85 433.1,-43.84 457.35,-38.09"/>
<polygon fill="#63b8ff" stroke="#63b8ff" points="458.45,-41.43 467.38,-35.71 456.84,-34.61 458.45,-41.43"/>
</a>
</g>
</g>
<!-- Node18 -->
<g id="Node000018" class="node">
<title>Node18</title>
<g id="a_Node000018"><a xlink:href="irq__desc_8c.html#a0041385040c05835d54aca9c83340f87" target="_top" xlink:title=" ">
<polygon fill="#fff0f0" stroke="red" points="673,-56 593,-56 593,-37 673,-37 673,-56"/>
<text text-anchor="middle" x="633" y="-44" font-family="Helvetica,sans-Serif" font-size="10.00">_alloc_action</text>
</a>
</g>
</g>
<!-- Node17&#45;&gt;Node18 -->
<g id="edge16_Node000017_Node000018" class="edge">
<title>Node17&#45;&gt;Node18</title>
<g id="a_edge16_Node000017_Node000018"><a xlink:title=" ">
<path fill="none" stroke="#63b8ff" d="M538.64,-32.64C552.23,-34.66 568.09,-37.01 582.83,-39.2"/>
<polygon fill="#63b8ff" stroke="#63b8ff" points="582.41,-42.68 592.81,-40.68 583.44,-35.75 582.41,-42.68"/>
</a>
</g>
</g>
<!-- Node21 -->
<g id="Node000021" class="node">
<title>Node21</title>
<g id="a_Node000021"><a xlink:href="group__list__api.html#gafb58231c241f9acee99a56aaa1b98cec" target="_top" xlink:title="Add a new node at the tail of the list.">
<polygon fill="#fff0f0" stroke="red" points="671,-19 595,-19 595,0 671,0 671,-19"/>
<text text-anchor="middle" x="633" y="-7" font-family="Helvetica,sans-Serif" font-size="10.00">list_add_tail</text>
</a>
</g>
</g>
<!-- Node17&#45;&gt;Node21 -->
<g id="edge17_Node000017_Node000021" class="edge">
<title>Node17&#45;&gt;Node21</title>
<g id="a_edge17_Node000017_Node000021"><a xlink:title=" ">
<path fill="none" stroke="#63b8ff" d="M538.64,-22.63C552.72,-20.65 569.21,-18.33 584.39,-16.2"/>
<polygon fill="#63b8ff" stroke="#63b8ff" points="585.22,-19.61 594.64,-14.75 584.25,-12.68 585.22,-19.61"/>
</a>
</g>
</g>
</g>
</svg>
