<?xml version="1.0" encoding="UTF-8" standalone="no"?>
<!DOCTYPE svg PUBLIC "-//W3C//DTD SVG 1.1//EN"
 "http://www.w3.org/Graphics/SVG/1.1/DTD/svg11.dtd">
<!-- Generated by graphviz version 2.43.0 (0)
 -->
<!-- Title: uart_async_read_byte Pages: 1 -->
<svg width="652pt" height="64pt"
 viewBox="0.00 0.00 652.00 64.00" xmlns="http://www.w3.org/2000/svg" xmlns:xlink="http://www.w3.org/1999/xlink">
<g id="graph0" class="graph" transform="scale(1 1) rotate(0) translate(4 60)">
<title>uart_async_read_byte</title>
<!-- Node1 -->
<g id="Node000001" class="node">
<title>Node1</title>
<g id="a_Node000001"><a xlink:title="Read one byte from the RX ring buffer without blocking.">
<polygon fill="#999999" stroke="#666666" points="124,-37 0,-37 0,-18 124,-18 124,-37"/>
<text text-anchor="middle" x="62" y="-25" font-family="Helvetica,sans-Serif" font-size="10.00">uart_async_read_byte</text>
</a>
</g>
</g>
<!-- Node2 -->
<g id="Node000002" class="node">
<title>Node2</title>
<g id="a_Node000002"><a xlink:href="uart__mgmt_8c.html#aa83680295a6822a437bc349e63451236" target="_top" xlink:title="Read one byte from the UART RX ring buffer.">
<polygon fill="white" stroke="#666666" points="285,-37 160,-37 160,-18 285,-18 285,-37"/>
<text text-anchor="middle" x="222.5" y="-25" font-family="Helvetica,sans-Serif" font-size="10.00">uart_mgmt_read_byte</text>
</a>
</g>
</g>
<!-- Node1&#45;&gt;Node2 -->
<g id="edge1_Node000001_Node000002" class="edge">
<title>Node1&#45;&gt;Node2</title>
<g id="a_edge1_Node000001_Node000002"><a xlink:title=" ">
<path fill="none" stroke="#63b8ff" d="M124.28,-27.5C132.58,-27.5 141.16,-27.5 149.62,-27.5"/>
<polygon fill="#63b8ff" stroke="#63b8ff" points="149.86,-31 159.86,-27.5 149.86,-24 149.86,-31"/>
</a>
</g>
</g>
<!-- Node3 -->
<g id="Node000003" class="node">
<title>Node3</title>
<g id="a_Node000003"><a xlink:href="mqueue_8c.html#ae54fde83faac5a815d0afa0be0ceb447" target="_top" xlink:title=" ">
<polygon fill="white" stroke="#666666" points="456,-56 321,-56 321,-37 456,-37 456,-56"/>
<text text-anchor="middle" x="388.5" y="-44" font-family="Helvetica,sans-Serif" font-size="10.00">ipc_mqueue_get_handle</text>
</a>
</g>
</g>
<!-- Node2&#45;&gt;Node3 -->
<g id="edge2_Node000002_Node000003" class="edge">
<title>Node2&#45;&gt;Node3</title>
<g id="a_edge2_Node000002_Node000003"><a xlink:title=" ">
<path fill="none" stroke="#63b8ff" d="M285.03,-34.63C293.46,-35.61 302.2,-36.62 310.85,-37.62"/>
<polygon fill="#63b8ff" stroke="#63b8ff" points="310.62,-41.12 320.95,-38.79 311.42,-34.16 310.62,-41.12"/>
</a>
</g>
</g>
<!-- Node4 -->
<g id="Node000004" class="node">
<title>Node4</title>
<g id="a_Node000004"><a xlink:href="ringbuffer_8c.html#a3ad0c7d81e438887de4a1e02f25d4796" target="_top" xlink:title=" ">
<polygon fill="white" stroke="#666666" points="441.5,-19 335.5,-19 335.5,0 441.5,0 441.5,-19"/>
<text text-anchor="middle" x="388.5" y="-7" font-family="Helvetica,sans-Serif" font-size="10.00">ringbuffer_getchar</text>
</a>
</g>
</g>
<!-- Node2&#45;&gt;Node4 -->
<g id="edge3_Node000002_Node000004" class="edge">
<title>Node2&#45;&gt;Node4</title>
<g id="a_edge3_Node000002_Node000004"><a xlink:title=" ">
<path fill="none" stroke="#63b8ff" d="M285.03,-20.75C298.09,-19.31 311.88,-17.8 324.97,-16.36"/>
<polygon fill="#63b8ff" stroke="#63b8ff" points="325.73,-19.8 335.29,-15.23 324.96,-12.84 325.73,-19.8"/>
</a>
</g>
</g>
<!-- Node5 -->
<g id="Node000005" class="node">
<title>Node5</title>
<g id="a_Node000005"><a xlink:href="ringbuffer_8c.html#abc6b533f80fb18ade4151b188f827c23" target="_top" xlink:title=" ">
<polygon fill="white" stroke="#666666" points="556,-19 492,-19 492,0 556,0 556,-19"/>
<text text-anchor="middle" x="524" y="-7" font-family="Helvetica,sans-Serif" font-size="10.00">_data_len</text>
</a>
</g>
</g>
<!-- Node4&#45;&gt;Node5 -->
<g id="edge4_Node000004_Node000005" class="edge">
<title>Node4&#45;&gt;Node5</title>
<g id="a_edge4_Node000004_Node000005"><a xlink:title=" ">
<path fill="none" stroke="#63b8ff" d="M441.88,-9.5C455.12,-9.5 469.15,-9.5 481.76,-9.5"/>
<polygon fill="#63b8ff" stroke="#63b8ff" points="481.96,-13 491.96,-9.5 481.96,-6 481.96,-13"/>
</a>
</g>
</g>
<!-- Node6 -->
<g id="Node000006" class="node">
<title>Node6</title>
<g id="a_Node000006"><a xlink:href="ringbuffer_8c.html#a0d9be0bc18b041c2946fd11f840206e9" target="_top" xlink:title=" ">
<polygon fill="white" stroke="#666666" points="644,-19 592,-19 592,0 644,0 644,-19"/>
<text text-anchor="middle" x="618" y="-7" font-family="Helvetica,sans-Serif" font-size="10.00">_status</text>
</a>
</g>
</g>
<!-- Node5&#45;&gt;Node6 -->
<g id="edge5_Node000005_Node000006" class="edge">
<title>Node5&#45;&gt;Node6</title>
<g id="a_edge5_Node000005_Node000006"><a xlink:title=" ">
<path fill="none" stroke="#63b8ff" d="M556.15,-9.5C564.45,-9.5 573.47,-9.5 581.97,-9.5"/>
<polygon fill="#63b8ff" stroke="#63b8ff" points="581.98,-13 591.98,-9.5 581.98,-6 581.98,-13"/>
</a>
</g>
</g>
</g>
</svg>
